<svg width="135" height="200" viewBox="0 0 135 200" fill="none" xmlns="http://www.w3.org/2000/svg">
<path d="M16.194 1H67.5H118.806C127.197 1 134 7.80258 134 16.194L134 178.139C134 185.895 128.158 192.407 120.446 193.244L69.1404 198.816C68.05 198.934 66.95 198.934 65.8596 198.816L14.5536 193.244C6.84241 192.407 1 185.895 1 178.139L1.00002 16.194C1.00002 7.80257 7.80259 1 16.194 1Z" fill="url(#paint0_linear)" stroke="url(#paint1_radial)" stroke-width="2" stroke-miterlimit="5.75877"/>
<g opacity="0.2">
<circle cx="68" cy="82" r="11" stroke="white" stroke-width="2"/>
<path d="M68 78V86" stroke="white" stroke-width="2" stroke-linejoin="round"/>
<path d="M72 82L64 82" stroke="white" stroke-width="2" stroke-linejoin="round"/>
<path d="M42.0655 107.2V124H43.9375V117.376H45.5935C48.2575 117.376 49.5055 115.984 49.5055 113.32V111.304C49.5055 108.76 48.3775 107.2 45.7375 107.2H42.0655ZM43.9375 115.696V108.904H45.7375C47.1055 108.904 47.6575 109.672 47.6575 111.208V113.44C47.6575 115.048 46.9855 115.696 45.5935 115.696H43.9375ZM57.6437 124V122.296H52.8437V107.2H50.9717V124H57.6437ZM65.2017 120.616L65.8497 124H67.7217L64.5057 107.2H61.7937L58.5777 124H60.3057L60.9537 120.616H65.2017ZM63.0417 109.312L64.9377 119.008H61.1937L63.0417 109.312ZM70.9868 124H72.8348V117.976L76.4108 107.2H74.6348L71.9948 115.456L69.3788 107.2H67.4348L70.9868 117.976V124ZM79.6328 114.64V108.904H84.6728V107.2H77.7608V124H84.6728V122.296H79.6328V116.32H83.7368V114.64H79.6328ZM86.4092 107.2V124H88.2812V116.824H89.6012C91.1612 116.824 92.0492 117.424 92.0492 119.32V121.96C92.0492 123.088 92.1452 123.52 92.3612 124H94.2572C93.9452 123.424 93.9212 122.728 93.9212 121.984V119.368C93.9212 117.568 93.3452 116.32 91.8092 115.864C93.2492 115.408 93.8972 114.256 93.8972 112.408V111.04C93.8972 108.544 92.7932 107.2 90.1532 107.2H86.4092ZM88.2812 115.12V108.904H90.1052C91.4972 108.904 92.0492 109.696 92.0492 111.208V112.816C92.0492 114.64 91.1612 115.12 89.6732 115.12H88.2812Z" fill="white"/>
</g>
<defs>
<linearGradient id="paint0_linear" x1="135.164" y1="7.317e-06" x2="-0.441727" y2="213.393" gradientUnits="userSpaceOnUse">
<stop stop-color="#35355E"/>
<stop offset="1" stop-color="#181829"/>
</linearGradient>
<radialGradient id="paint1_radial" cx="0" cy="0" r="1" gradientUnits="userSpaceOnUse" gradientTransform="translate(67.5) rotate(90.1105) scale(242.311 174.985)">
<stop stop-color="#898DED"/>
<stop offset="1" stop-color="#282B62" stop-opacity="0.9"/>
</radialGradient>
</defs>
</svg>
