<svg width="137" height="38" viewBox="0 0 137 38" fill="none" xmlns="http://www.w3.org/2000/svg">
<g clip-path="url(#clip0)">
<path d="M67.9864 8.49749V29.4492C67.9864 29.6088 67.8675 29.7684 67.6694 29.7684H65.4898C64.4991 29.7684 63.5481 29.2496 62.9932 28.4116L53.1654 13.1268L53.4824 20.7492V29.4891C53.4824 29.6487 53.3635 29.8083 53.1654 29.8083H50.3121C50.1537 29.8083 49.9952 29.6886 49.9952 29.4891V8.49749C49.9952 8.33785 50.114 8.17822 50.3121 8.17822H52.4521C53.4428 8.17822 54.3939 8.69702 54.9487 9.53507L64.7766 24.7799L64.4595 17.1575V8.49749C64.4595 8.33785 64.5783 8.17822 64.7766 8.17822H67.6297C67.8675 8.17822 67.9864 8.29795 67.9864 8.49749Z" fill="white"/>
<path d="M97.2342 30.1111H94.2216C94.0237 30.1111 93.8651 29.9115 93.9444 29.712L101.949 8.84018C102.029 8.68052 102.187 8.56079 102.346 8.56079H106.15C106.349 8.56079 106.506 8.68052 106.547 8.84018L114.591 29.712C114.67 29.9115 114.512 30.1111 114.313 30.1111H111.302C111.183 30.1111 111.064 30.0313 111.024 29.9115L104.565 12.7511C104.486 12.5116 104.089 12.5116 104.01 12.7511L97.5506 29.9115C97.4713 30.0313 97.3527 30.1111 97.2342 30.1111Z" fill="white"/>
<path d="M88.1973 8.17822H74.9218C74.684 8.17822 74.5255 8.33785 74.5255 8.5773C74.5255 10.1736 75.8332 11.4906 77.4183 11.4906H88.1973C88.356 11.4906 88.5146 11.3709 88.5146 11.1713V8.45757C88.4745 8.29795 88.356 8.17822 88.1973 8.17822ZM88.1973 26.4161H78.2902C78.1316 26.4161 77.9732 26.2965 77.9732 26.0969V20.7093C77.9732 20.5497 78.0921 20.3901 78.2902 20.3901H87.4442C87.6028 20.3901 87.7615 20.2703 87.7615 20.0708V17.357C87.7615 17.1975 87.6429 17.0378 87.4442 17.0378H74.9614C74.7237 17.0378 74.5255 17.2373 74.5255 17.4767V29.2496C74.5255 29.4891 74.7237 29.6886 74.9614 29.6886H88.1973C88.356 29.6886 88.5146 29.5689 88.5146 29.3693V26.6556C88.4745 26.5358 88.356 26.4161 88.1973 26.4161Z" fill="white"/>
<path d="M28.7554 2.83039L21.3053 13.9647C20.7901 14.723 21.7809 15.6408 22.4942 15.0023L29.8254 8.57714C30.0236 8.4175 30.301 8.53723 30.301 8.81659V28.8902C30.301 29.1696 29.9443 29.2894 29.7858 29.0898L7.5939 2.3515C6.88059 1.47352 5.85025 0.994629 4.70103 0.994629H3.90846C1.84778 0.994629 0.143768 2.71067 0.143768 4.82579V33.0806C0.143768 35.1958 1.84778 36.9118 3.94809 36.9118C5.25583 36.9118 6.48431 36.2333 7.19762 35.076L14.6478 23.9417C15.1629 23.1834 14.1722 22.2655 13.4589 22.9041L6.12765 29.2894C5.92951 29.449 5.65211 29.3293 5.65211 29.0499V9.01614C5.65211 8.73676 6.00876 8.61704 6.16728 8.81659L28.3592 35.5549C29.0725 36.4329 30.1425 36.9118 31.2521 36.9118H32.0446C34.1449 36.9118 35.849 35.1958 35.849 33.0806V4.82579C35.8093 2.71067 34.1053 0.994629 32.005 0.994629C30.6972 0.994629 29.4687 1.67307 28.7554 2.83039Z" fill="white"/>
<path d="M135.212 29.6322L129.188 21.89C132.597 21.2515 134.578 18.9369 134.578 15.3851C134.578 11.3144 131.963 8.56079 127.286 8.56079H118.885C118.648 8.56079 118.449 8.76036 118.449 8.99974C118.449 10.5961 119.717 11.8732 121.303 11.8732H126.969C129.783 11.8732 131.13 13.3099 131.13 15.425C131.13 17.5401 129.823 18.9768 126.969 18.9768H118.964C118.727 18.9768 118.528 19.1763 118.528 19.4157V29.7918C118.528 29.9514 118.648 30.1111 118.845 30.1111H121.699C121.857 30.1111 122.016 29.9914 122.016 29.7918V22.0896H125.305L130.536 28.9538C131.09 29.712 131.963 30.1111 132.914 30.1111H135.093C135.252 30.1111 135.37 29.8317 135.212 29.6322Z" fill="white"/>
</g>
<defs>
<clipPath id="clip0">
<rect width="136.099" height="36.8151" fill="white" transform="translate(0 0.328125)"/>
</clipPath>
</defs>
</svg>
