<svg width="125" height="51" viewBox="0 0 125 51" fill="none" xmlns="http://www.w3.org/2000/svg">
<g clip-path="url(#clip0)">
<path d="M17.2586 32.174C17.2793 32.174 17.2793 32.174 17.3 32.174H20.5507C20.5507 32.4022 20.5507 32.5474 20.5507 32.589C20.5507 35.9086 20.5507 39.2076 20.5507 42.5274C20.5507 42.7556 20.4679 42.9008 20.2608 43.0045C19.1428 43.544 18.3145 44.9341 18.5424 46.4072C18.8115 48.1293 20.5714 49.4365 22.2899 49.1045C23.8014 48.814 24.7745 47.7766 25.0023 46.1997C25.1472 45.1208 24.6296 43.7099 23.2424 43.0045C23.056 42.9008 22.9525 42.797 22.9525 42.5688C22.9525 39.3528 22.9525 36.1369 22.9525 32.9209C22.9525 32.8587 22.9525 32.6096 22.9525 32.1947H26.9693C27.0935 32.1947 27.2177 32.1947 27.3419 32.174C28.253 32.0702 29.1019 31.759 29.8266 31.2818L35.5205 34.5807C35.7068 34.7052 35.8517 34.8089 35.9552 34.8505C36.2451 35.0165 36.3486 35.1825 36.3486 35.5144C36.3072 37.444 37.9843 39.0209 39.9306 38.8134C41.8561 38.6059 43.202 36.7593 42.7672 34.892C42.2288 32.6511 39.8064 31.6345 37.8601 32.8587C37.653 32.9832 37.5081 33.0246 37.2804 32.9001C35.624 31.925 33.9676 30.9705 32.2905 30.0162C32.2283 29.9747 31.9799 29.8294 31.5244 29.5389C32.0006 28.7298 32.2905 27.7961 32.2905 26.8002C32.2905 24.8083 31.2138 23.0862 29.5988 22.1526L29.6195 22.1318C29.6402 22.1111 29.6816 22.0903 29.7231 22.0696C30.427 21.6753 31.131 21.2604 31.8349 20.8455L36.5143 18.1482C36.7835 18.003 37.0319 17.8577 37.3011 17.6917C37.5081 17.5672 37.6323 17.5672 37.8394 17.7125C38.5434 18.1896 39.3509 18.3349 40.179 18.1896C41.8148 17.8992 42.995 16.4261 42.85 14.6833C42.6844 12.7951 40.8416 11.3842 38.9989 11.7992C37.3839 12.1519 36.3693 13.4175 36.3693 15.0982C36.3693 15.3887 36.2866 15.5339 36.0381 15.6792C35.3755 16.0526 34.7337 16.4261 34.0711 16.7995L28.0873 20.2645C27.0314 18.4179 25.1472 17.09 22.9525 16.7373C22.9525 13.9363 22.9525 11.1353 22.9525 8.31353C22.9525 7.89856 23.056 7.64958 23.4494 7.42135C24.8573 6.61217 25.3957 4.86932 24.7538 3.37545C24.1119 1.88158 22.4348 1.0724 20.8819 1.54961C19.4534 1.98532 18.6666 2.98124 18.5216 4.45436C18.4181 5.57476 18.9564 6.8404 20.2401 7.54584C20.4472 7.64958 20.5714 7.75332 20.5714 8.02305C20.5714 8.85298 20.5714 9.68287 20.5714 10.4921L20.6128 16.758C18.6666 17.09 16.9273 18.1896 15.8507 19.7665C15.5815 19.8288 15.2916 19.9118 15.0432 19.9947C12.5793 18.5839 10.1361 17.1522 7.67218 15.7621C7.29949 15.5547 7.13385 15.3265 7.19596 14.9115C7.21667 14.7455 7.17526 14.5588 7.13385 14.3928C6.88539 12.7951 5.33251 11.4673 3.44835 11.7785C1.60561 12.0897 0.446126 13.7496 0.735996 15.5339C1.12939 17.8162 3.71752 18.9781 5.6845 17.7125C5.91225 17.5672 6.05719 17.5672 6.28494 17.6917C6.76116 17.9614 7.46513 18.3556 8.41756 18.8744L12.7863 21.4056C11.5855 22.5468 10.84 24.1444 10.84 25.908C10.84 27.2774 11.2956 28.543 12.0409 29.5597L6.9061 32.4851C6.57481 32.6512 6.32636 32.7964 6.16072 32.8794C6.05719 32.9417 5.82943 32.9209 5.7259 32.8587C5.18757 32.5474 4.62854 32.3192 4.02809 32.3192C1.9783 32.2569 0.735996 33.9375 0.673881 35.3899C0.591061 37.0913 1.87477 38.8341 3.96598 38.8134C5.78803 38.7927 7.17526 37.3403 7.15455 35.5144C7.15455 35.1825 7.23737 34.9957 7.52724 34.8297C8.93519 34.0206 11.0264 32.8172 13.8215 31.1988C14.8155 31.8213 15.9956 32.174 17.2586 32.174ZM41.5663 18.3972C41.3385 18.5424 41.2557 18.6877 41.2557 18.9573C41.2557 23.1485 41.2557 27.3604 41.2557 31.5515C41.2557 31.8005 41.3179 31.9458 41.5456 32.091C43.0363 32.9624 43.7817 34.5392 43.5126 36.2198C43.2641 37.8175 41.9804 39.1454 40.324 39.4565C39.3716 39.6433 38.4399 39.4981 37.591 38.9794C37.3424 38.8134 37.1561 38.8549 36.9077 38.9794C33.305 41.075 29.7023 43.1498 26.0789 45.2246C25.8305 45.3698 25.7477 45.515 25.7477 45.8055C25.7477 47.8181 24.1948 49.5817 22.2485 49.7892C20.178 49.9967 18.3352 48.6896 17.9005 46.6769C17.8383 46.3657 17.8176 46.0337 17.7969 45.7226C17.7969 45.515 17.7348 45.3698 17.5484 45.266C13.8837 43.1498 10.2189 41.0334 6.57481 38.9172C6.36776 38.7926 6.22283 38.7926 6.01578 38.9172C3.6347 40.3487 0.570356 38.9794 0.0734356 36.2821C-0.23714 34.5807 0.446126 32.9832 1.95759 32.091C2.20605 31.9458 2.30958 31.8005 2.30958 31.51C2.28888 27.3189 2.30958 23.107 2.30958 18.9159C2.30958 18.6669 2.24746 18.5217 2.01971 18.3764C0.487537 17.4842 -0.216434 15.9489 0.0734356 14.206C0.363306 12.4839 1.68842 11.2182 3.42765 10.9693C4.35938 10.8448 5.24969 11.0108 6.05719 11.5087C6.24353 11.6332 6.38847 11.6332 6.57481 11.5087C10.2189 9.39243 13.8837 7.29686 17.5277 5.18055C17.7556 5.05606 17.8383 4.91082 17.8383 4.64109C17.8383 2.33804 19.6604 0.553695 21.9794 0.595192C23.7807 0.636688 25.4785 2.13056 25.727 3.89416C25.7477 4.06014 25.7891 4.16389 25.7891 4.39211C25.7891 4.89007 25.9754 5.09755 26.3481 5.30503C29.8886 7.33835 33.4292 9.39243 36.9698 11.4258C37.2182 11.571 37.3839 11.571 37.6323 11.4258C40.0341 10.0563 42.9328 11.3635 43.5332 14.0815C43.5954 14.3305 43.5747 14.6002 43.5954 14.8284C43.5333 16.4676 42.8707 17.6087 41.5663 18.3972ZM38.7297 35.5352C38.7297 34.9957 39.1024 34.6223 39.6408 34.6223C40.1377 34.6223 40.5724 35.0372 40.5724 35.5352C40.5724 36.0124 40.117 36.4689 39.6408 36.4689C39.1231 36.4689 38.7297 36.0539 38.7297 35.5352ZM20.8199 4.68258C20.8199 4.16389 21.2133 3.76966 21.7516 3.76966C22.2693 3.76966 22.6627 4.16389 22.6627 4.68258C22.6627 5.18055 22.2278 5.61626 21.7516 5.61626C21.2547 5.61626 20.8199 5.18055 20.8199 4.68258ZM4.8563 35.5352C4.8563 36.0539 4.44219 36.4689 3.94528 36.4689C3.46906 36.4689 3.01355 36.0124 3.01355 35.5352C3.01355 35.058 3.44835 34.6223 3.94528 34.6223C4.4629 34.6223 4.8563 34.9957 4.8563 35.5352ZM21.7516 44.9549C22.2693 44.9549 22.6627 45.3699 22.6627 45.8885C22.6627 46.4072 22.2693 46.8014 21.7309 46.8014C21.2133 46.8014 20.8199 46.3865 20.8199 45.8678C20.8406 45.3283 21.234 44.9341 21.7516 44.9549ZM3.96598 15.8658C3.44835 15.8658 3.03426 15.4716 3.01355 14.9529C2.99285 14.455 3.40695 14.0193 3.92457 14.0193C4.4629 14.0193 4.83559 14.372 4.8563 14.9322C4.8563 15.4924 4.48361 15.8658 3.96598 15.8658ZM39.6201 15.8658C39.0817 15.8658 38.7297 15.4716 38.7297 14.9322C38.7297 14.3928 39.1024 14.0193 39.6614 14.0193C40.179 14.0193 40.5931 14.455 40.5724 14.9529C40.5517 15.4716 40.1377 15.8866 39.6201 15.8658ZM17.3 29.8917C14.981 29.8917 13.0969 28.0866 13.0969 25.8458C13.0969 23.6257 14.9603 21.8206 17.2586 21.7998C18.004 20.057 19.7639 18.8328 21.8137 18.8328C24.5053 18.8328 26.7001 20.9492 26.7415 23.5635C28.5429 23.5635 30.0129 24.9744 30.0129 26.7379C30.0129 28.4185 28.6878 29.7879 26.99 29.8917C26.9693 29.8917 26.9693 29.8917 26.9485 29.8917H17.3207H17.3ZM120.68 20.9077H115.546V17.4013H120.68H124.221V27.6716C124.221 31.4893 121.985 33.3151 118.672 33.3151C116.228 33.3151 114.634 32.2362 113.557 30.9705L115.732 28.543C116.622 29.5389 117.491 30.1199 118.589 30.1199C119.893 30.1199 120.68 29.3315 120.68 27.5264V20.9077ZM62.6648 28.4393C62.6648 31.5515 60.3044 33.2943 56.9294 33.2943C54.5691 33.2943 52.1673 32.4645 50.2831 30.7839L52.3122 28.3356C53.7201 29.4975 55.1902 30.2444 56.9916 30.2444C58.3995 30.2444 59.2484 29.6842 59.2484 28.7712V28.7298C59.2484 27.8583 58.71 27.4019 56.1013 26.7379C52.9541 25.9287 50.925 25.0573 50.925 21.9451V21.9036C50.925 19.0611 53.2025 17.173 56.4118 17.173C58.6893 17.173 60.6356 17.8992 62.2299 19.1649L60.4493 21.7584C59.0621 20.8039 57.6955 20.223 56.3911 20.223C55.066 20.223 54.3827 20.8247 54.3827 21.5924V21.6339C54.3827 22.6713 55.0453 23.0033 57.7577 23.688C60.9255 24.5178 62.7268 25.659 62.7268 28.3978V28.4393H62.6648ZM77.3032 20.5757H72.541V33.1077H69.1039V20.5757H64.3419V17.3805H77.3032V20.5757ZM95.3783 25.2441C95.3783 29.7049 91.8587 33.3566 87.0138 33.3566C82.1689 33.3566 78.7111 29.7464 78.7111 25.2855V25.2441C78.7111 20.7832 82.231 17.1315 87.076 17.1315C91.9208 17.1315 95.3783 20.7417 95.3783 25.2026V25.2441ZM91.7758 25.2855V25.2441C91.7758 22.5675 89.809 20.3268 87.0345 20.3268C84.2601 20.3268 82.3345 22.5261 82.3345 25.2026V25.2441C82.3345 27.9206 84.3014 30.1614 87.076 30.1614C89.8504 30.1614 91.7758 27.9828 91.7758 25.2855ZM111.839 33.1077H107.823L104.468 28.0866H101.755V33.1077H98.3186V17.4013H105.462C109.148 17.4013 111.363 19.3515 111.363 22.5883V22.6298C111.363 25.161 109.996 26.7587 108.009 27.5056L111.839 33.1077ZM107.864 22.8165V22.775C107.864 21.3019 106.829 20.5342 105.172 20.5342H101.755V25.0366H105.234C106.911 25.0366 107.864 24.1444 107.864 22.8165Z" fill="white"/>
</g>
<defs>
<clipPath id="clip0">
<rect width="124.317" height="49.65" fill="white" transform="translate(0 0.594482)"/>
</clipPath>
</defs>
</svg>
