<svg width="24" height="24" viewBox="0 0 24 24" fill="none" xmlns="http://www.w3.org/2000/svg">
<path d="M14.7182 11.9984L23.0079 3.72681C23.3709 3.36374 23.5748 2.87132 23.5748 2.35786C23.5748 1.84441 23.3709 1.35198 23.0079 0.988913C22.6449 0.625845 22.1525 0.421875 21.6391 0.421875C21.1257 0.421875 20.6334 0.625845 20.2704 0.988913L12 9.27974L3.72963 0.988913C3.36662 0.625845 2.87426 0.421875 2.36088 0.421875C1.84749 0.421875 1.35514 0.625845 0.992122 0.988913C0.629106 1.35198 0.425165 1.84441 0.425165 2.35786C0.425165 2.87132 0.629106 3.36374 0.992122 3.72681L9.28177 11.9984L0.992122 20.2699C0.81143 20.4491 0.668012 20.6624 0.570138 20.8973C0.472265 21.1323 0.421875 21.3843 0.421875 21.6388C0.421875 21.8934 0.472265 22.1454 0.570138 22.3804C0.668012 22.6153 0.81143 22.8286 0.992122 23.0078C1.17134 23.1885 1.38456 23.332 1.61948 23.4298C1.8544 23.5277 2.10638 23.5781 2.36088 23.5781C2.61537 23.5781 2.86735 23.5277 3.10227 23.4298C3.3372 23.332 3.55042 23.1885 3.72963 23.0078L12 14.717L20.2704 23.0078C20.4496 23.1885 20.6628 23.332 20.8977 23.4298C21.1326 23.5277 21.3846 23.5781 21.6391 23.5781C21.8936 23.5781 22.1456 23.5277 22.3805 23.4298C22.6154 23.332 22.8287 23.1885 23.0079 23.0078C23.1886 22.8286 23.332 22.6153 23.4299 22.3804C23.5277 22.1454 23.5781 21.8934 23.5781 21.6388C23.5781 21.3843 23.5277 21.1323 23.4299 20.8973C23.332 20.6624 23.1886 20.4491 23.0079 20.2699L14.7182 11.9984Z" fill="white" fill-opacity="0.7"/>
</svg>
