<svg width="16" height="16" viewBox="0 0 16 16" fill="none" xmlns="http://www.w3.org/2000/svg">
<g clip-path="url(#clip0)">
<path d="M13.5356 2.09711L6.29044 9.34227C6.09516 9.53755 5.77853 9.53755 5.58325 9.34227L2.46441 6.22342L0 8.68783L4.70459 13.3925C5.03141 13.7193 5.47466 13.9029 5.93681 13.9029C6.39894 13.9029 6.84222 13.7193 7.169 13.3925L16 4.56148L13.5356 2.09711Z" fill="#A5EB78"/>
<path opacity="0.4" d="M15.185 3.74646L5.86219 13.0693C5.60426 13.3272 5.27991 13.5031 4.92947 13.5816C5.22207 13.7889 5.57347 13.9028 5.93682 13.9028C6.39894 13.9028 6.84222 13.7192 7.16901 13.3924L16 4.5614L15.185 3.74646Z" fill="#488E1B"/>
</g>
<defs>
<clipPath id="clip0">
<rect width="16" height="16" fill="white"/>
</clipPath>
</defs>
</svg>
