<svg width="16" height="16" viewBox="0 0 16 16" fill="none" xmlns="http://www.w3.org/2000/svg">
<g filter="url(#filter0_i)">
<path d="M7.13915 1.68702C7.49783 0.984122 8.50217 0.984122 8.86085 1.68702L10.1745 4.26145C10.3149 4.53665 10.5785 4.72813 10.8836 4.77664L13.738 5.23047C14.5173 5.35438 14.8277 6.30957 14.27 6.8679L12.2275 8.91281C12.0092 9.13141 11.9085 9.44122 11.9567 9.7464L12.4071 12.6013C12.5301 13.3808 11.7176 13.9711 11.0142 13.6133L8.43824 12.3027C8.16288 12.1626 7.83712 12.1626 7.56176 12.3027L4.98576 13.6133C4.28244 13.9711 3.4699 13.3808 3.59289 12.6013L4.04332 9.7464C4.09147 9.44122 3.9908 9.13141 3.77247 8.91281L1.72998 6.8679C1.17232 6.30957 1.48268 5.35438 2.26202 5.23047L5.11639 4.77664C5.42152 4.72813 5.68506 4.53665 5.82549 4.26145L7.13915 1.68702Z" fill="#43628F"/>
</g>
<path d="M7.13915 1.68702C7.49783 0.984122 8.50217 0.984122 8.86085 1.68702L10.1745 4.26145C10.3149 4.53665 10.5785 4.72813 10.8836 4.77664L13.738 5.23047C14.5173 5.35438 14.8277 6.30957 14.27 6.8679L12.2275 8.91281C12.0092 9.13141 11.9085 9.44122 11.9567 9.7464L12.4071 12.6013C12.5301 13.3808 11.7176 13.9711 11.0142 13.6133L8.43824 12.3027C8.16288 12.1626 7.83712 12.1626 7.56176 12.3027L4.98576 13.6133C4.28244 13.9711 3.4699 13.3808 3.59289 12.6013L4.04332 9.7464C4.09147 9.44122 3.9908 9.13141 3.77247 8.91281L1.72998 6.8679C1.17232 6.30957 1.48268 5.35438 2.26202 5.23047L5.11639 4.77664C5.42152 4.72813 5.68506 4.53665 5.82549 4.26145L7.13915 1.68702Z" fill="url(#paint0_linear)"/>
<path d="M7.42628 1.12461C7.66539 0.656014 8.33496 0.656012 8.57407 1.12461L10.2492 4.40738C10.3428 4.59084 10.5185 4.71849 10.7219 4.75083L14.3616 5.32953C14.8812 5.41214 15.0881 6.04893 14.7163 6.42115L12.1119 9.02871C11.9663 9.17444 11.8992 9.38098 11.9313 9.58443L12.5057 13.2249C12.5877 13.7445 12.046 14.1381 11.5771 13.8995L8.29234 12.2283C8.10876 12.1349 7.89159 12.1349 7.70801 12.2283L4.42326 13.8995C3.95437 14.1381 3.41268 13.7445 3.49467 13.2249L4.06904 9.58443C4.10114 9.38098 4.03403 9.17444 3.88847 9.02871L1.28401 6.42115C0.91224 6.04893 1.11915 5.41214 1.6387 5.32953L5.27844 4.75083C5.48185 4.71849 5.65755 4.59084 5.75116 4.40738L7.42628 1.12461Z" fill="url(#paint1_linear)"/>
<path d="M7.42628 1.12461C7.66539 0.656014 8.33496 0.656012 8.57407 1.12461L10.2492 4.40738C10.3428 4.59084 10.5185 4.71849 10.7219 4.75083L14.3616 5.32953C14.8812 5.41214 15.0881 6.04893 14.7163 6.42115L12.1119 9.02871C11.9663 9.17444 11.8992 9.38098 11.9313 9.58443L12.5057 13.2249C12.5877 13.7445 12.046 14.1381 11.5771 13.8995L8.29234 12.2283C8.10876 12.1349 7.89159 12.1349 7.70801 12.2283L4.42326 13.8995C3.95437 14.1381 3.41268 13.7445 3.49467 13.2249L4.06904 9.58443C4.10114 9.38098 4.03403 9.17444 3.88847 9.02871L1.28401 6.42115C0.91224 6.04893 1.11915 5.41214 1.6387 5.32953L5.27844 4.75083C5.48185 4.71849 5.65755 4.59084 5.75116 4.40738L7.42628 1.12461Z" fill="url(#paint2_radial)"/>
<path fill-rule="evenodd" clip-rule="evenodd" d="M10.0579 4.50499L8.38277 1.22223C8.22336 0.909828 7.77699 0.909828 7.61758 1.22223L5.94246 4.50499C5.81764 4.74961 5.58338 4.91981 5.31216 4.96293L1.67243 5.54163C1.32605 5.5967 1.18812 6.02123 1.43597 6.26938L4.04042 8.87694C4.2345 9.07124 4.32398 9.34663 4.28118 9.6179L3.70681 13.2583C3.65215 13.6048 4.01328 13.8671 4.32587 13.7081L7.61063 12.0369C7.8554 11.9124 8.14496 11.9124 8.38973 12.0369L11.6745 13.7081C11.9871 13.8671 12.3482 13.6048 12.2935 13.2583L11.7192 9.6179C11.6764 9.34663 11.7659 9.07124 11.9599 8.87694L14.5644 6.26938C14.8122 6.02123 14.6743 5.5967 14.3279 5.54163L10.6882 4.96293C10.417 4.91981 10.1827 4.74961 10.0579 4.50499ZM8.57407 1.12461C8.33496 0.656012 7.66539 0.656014 7.42628 1.12461L5.75116 4.40738C5.65755 4.59084 5.48185 4.71849 5.27844 4.75083L1.6387 5.32953C1.11915 5.41214 0.91224 6.04893 1.28401 6.42115L3.88847 9.02871C4.03403 9.17444 4.10114 9.38098 4.06904 9.58443L3.49467 13.2249C3.41268 13.7445 3.95437 14.1381 4.42326 13.8995L7.70801 12.2283C7.89159 12.1349 8.10876 12.1349 8.29234 12.2283L11.5771 13.8995C12.046 14.1381 12.5877 13.7445 12.5057 13.2249L11.9313 9.58443C11.8992 9.38098 11.9663 9.17444 12.1119 9.02871L14.7163 6.42115C15.0881 6.04893 14.8812 5.41214 14.3616 5.32953L10.7219 4.75083C10.5185 4.71849 10.3428 4.59084 10.2492 4.40738L8.57407 1.12461Z" fill="url(#paint3_linear)"/>
<path d="M7.58163 4.5886C7.76772 4.26697 8.23206 4.26697 8.41815 4.5886L9.22399 5.9814C9.29242 6.09967 9.40772 6.18344 9.54135 6.21197L11.115 6.54798C11.4784 6.62557 11.6219 7.06718 11.3735 7.34355L10.2979 8.54035C10.2065 8.64198 10.1625 8.77752 10.1767 8.91343L10.3434 10.5139C10.3819 10.8835 10.0062 11.1564 9.66663 11.0056L8.19603 10.3524C8.07115 10.297 7.92863 10.297 7.80375 10.3524L6.33315 11.0056C5.99354 11.1564 5.61789 10.8835 5.65639 10.5139L5.82311 8.91343C5.83727 8.77752 5.79323 8.64198 5.70189 8.54035L4.62628 7.34355C4.3779 7.06718 4.52138 6.62557 4.88478 6.54798L6.45843 6.21197C6.59206 6.18344 6.70736 6.09967 6.77579 5.9814L7.58163 4.5886Z" fill="url(#paint4_linear)"/>
<path d="M12.0899 6.87164C8.20315 10.5445 4.73188 8.91997 3.48208 7.64859C1.58098 4.82334 5.75284 7.08354 9.44943 6.09469C12.4067 5.30362 12.4419 6.28304 12.0899 6.87164Z" fill="url(#paint5_linear)"/>
<path fill-rule="evenodd" clip-rule="evenodd" d="M7.55958 1.85581C7.63896 1.89597 7.67075 1.99288 7.63059 2.07225L7.17517 2.97237C7.13501 3.05175 7.0381 3.08354 6.95873 3.04338C6.87935 3.00321 6.84756 2.90631 6.88772 2.82693L7.34314 1.92682C7.3833 1.84744 7.4802 1.81565 7.55958 1.85581Z" fill="#93D6F6"/>
<circle cx="1.98654" cy="5.74494" r="0.161074" fill="#93D6F6"/>
<circle cx="6.81876" cy="3.27506" r="0.161074" fill="#93D6F6"/>
<path d="M6.4616 4.93802C5.2398 6.66868 5.67644 7.61095 6.04748 7.86574C7.17437 8.37438 9.22767 5.37327 9.36661 4.5791C9.50555 3.78492 7.98884 2.77469 6.4616 4.93802Z" fill="url(#paint6_linear)" fill-opacity="0.6"/>
<defs>
<filter id="filter0_i" x="1.44632" y="-0.450887" width="13.1073" height="14.1713" filterUnits="userSpaceOnUse" color-interpolation-filters="sRGB">
<feFlood flood-opacity="0" result="BackgroundImageFix"/>
<feBlend mode="normal" in="SourceGraphic" in2="BackgroundImageFix" result="shape"/>
<feColorMatrix in="SourceAlpha" type="matrix" values="0 0 0 0 0 0 0 0 0 0 0 0 0 0 0 0 0 0 127 0" result="hardAlpha"/>
<feOffset dy="-1.61074"/>
<feGaussianBlur stdDeviation="2.01342"/>
<feComposite in2="hardAlpha" operator="arithmetic" k2="-1" k3="1"/>
<feColorMatrix type="matrix" values="0 0 0 0 0.595833 0 0 0 0 0.83025 0 0 0 0 1 0 0 0 1 0"/>
<feBlend mode="normal" in2="shape" result="effect1_innerShadow"/>
</filter>
<linearGradient id="paint0_linear" x1="8" y1="-1.44009e-08" x2="11.5973" y2="13.906" gradientUnits="userSpaceOnUse">
<stop stop-color="#708FBE" stop-opacity="0"/>
<stop offset="1" stop-color="#72DDFF" stop-opacity="0.63"/>
</linearGradient>
<linearGradient id="paint1_linear" x1="8.00016" y1="-6.49604e-05" x2="11.5975" y2="13.906" gradientUnits="userSpaceOnUse">
<stop stop-color="#708FBE" stop-opacity="0"/>
<stop offset="1" stop-color="#72DDFF" stop-opacity="0.63"/>
</linearGradient>
<radialGradient id="paint2_radial" cx="0" cy="0" r="1" gradientUnits="userSpaceOnUse" gradientTransform="translate(6.12097 5.95967) rotate(52.6712) scale(9.38554)">
<stop offset="0.738765" stop-color="#9CB6DD" stop-opacity="0"/>
<stop offset="0.89825" stop-color="#C6F1FF" stop-opacity="0.37"/>
<stop offset="1" stop-color="#EFFBFF" stop-opacity="0.7"/>
</radialGradient>
<linearGradient id="paint3_linear" x1="12.5102" y1="10.7382" x2="5.10083" y2="4.02678" gradientUnits="userSpaceOnUse">
<stop stop-color="#D8F6FF" stop-opacity="0.63"/>
<stop offset="0.218803" stop-color="#A0D2FF" stop-opacity="0"/>
<stop offset="0.491108" stop-color="#8DC8FF" stop-opacity="0.56"/>
<stop offset="0.733041" stop-color="#9ADBF8"/>
<stop offset="1" stop-color="white" stop-opacity="0"/>
<stop offset="1" stop-color="#BAEAFF" stop-opacity="0"/>
</linearGradient>
<linearGradient id="paint4_linear" x1="7.99989" y1="3.86569" x2="7.89251" y2="11.0066" gradientUnits="userSpaceOnUse">
<stop stop-color="#9BE1FF"/>
<stop offset="0.277442" stop-color="#9BE1FF" stop-opacity="0.51"/>
<stop offset="1" stop-color="#CDDEE6" stop-opacity="0.15"/>
</linearGradient>
<linearGradient id="paint5_linear" x1="7.65397" y1="6.58909" x2="7.60077" y2="9.12692" gradientUnits="userSpaceOnUse">
<stop stop-color="#C4C4C4" stop-opacity="0"/>
<stop offset="0.731853" stop-color="#DBF6FF" stop-opacity="0.46"/>
</linearGradient>
<linearGradient id="paint6_linear" x1="6.94212" y1="5.16952" x2="8.36822" y2="6.51549" gradientUnits="userSpaceOnUse">
<stop offset="0.223958" stop-color="#DBF6FF" stop-opacity="0.35"/>
<stop offset="1" stop-color="#C4C4C4" stop-opacity="0"/>
</linearGradient>
</defs>
</svg>
