<svg width="442" height="479" viewBox="0 0 442 479" fill="none" xmlns="http://www.w3.org/2000/svg">
<g opacity="0.5">
<path d="M196.634 189.035L188.307 0.488525H254.923L246.596 189.035H196.634Z" fill="url(#paint0_linear)"/>
<path d="M274.55 242.937L442 329.999L408.692 387.69L249.569 286.205L274.55 242.937Z" fill="url(#paint1_linear)"/>
<path d="M245.404 289.554L253.731 478.101H187.116L195.443 289.554H245.404Z" fill="url(#paint2_linear)"/>
<path d="M192.785 286.804L33.6626 388.288L0.35464 330.597L167.804 243.535L192.785 286.804Z" fill="url(#paint3_linear)"/>
<path d="M274.55 235.95L442 148.888L408.692 91.1966L249.569 192.681L274.55 235.95Z" fill="url(#paint4_linear)"/>
<path d="M192.785 192.083L33.6626 90.5981L0.354656 148.289L167.804 235.351L192.785 192.083Z" fill="url(#paint5_linear)"/>
</g>
<defs>
<linearGradient id="paint0_linear" x1="221.615" y1="0.488525" x2="221.615" y2="189.035" gradientUnits="userSpaceOnUse">
<stop stop-color="#987B57" stop-opacity="0"/>
<stop offset="1" stop-color="#987B57" stop-opacity="0.75"/>
</linearGradient>
<linearGradient id="paint1_linear" x1="425.346" y1="358.844" x2="262.06" y2="264.571" gradientUnits="userSpaceOnUse">
<stop stop-color="#987B57" stop-opacity="0"/>
<stop offset="1" stop-color="#987B57" stop-opacity="0.75"/>
</linearGradient>
<linearGradient id="paint2_linear" x1="220.424" y1="478.101" x2="220.424" y2="289.554" gradientUnits="userSpaceOnUse">
<stop stop-color="#987B57" stop-opacity="0"/>
<stop offset="1" stop-color="#987B57" stop-opacity="0.75"/>
</linearGradient>
<linearGradient id="paint3_linear" x1="17.0086" y1="359.443" x2="180.295" y2="265.169" gradientUnits="userSpaceOnUse">
<stop stop-color="#987B57" stop-opacity="0"/>
<stop offset="1" stop-color="#987B57" stop-opacity="0.75"/>
</linearGradient>
<linearGradient id="paint4_linear" x1="425.346" y1="120.042" x2="262.06" y2="214.316" gradientUnits="userSpaceOnUse">
<stop stop-color="#987B57" stop-opacity="0"/>
<stop offset="1" stop-color="#987B57" stop-opacity="0.75"/>
</linearGradient>
<linearGradient id="paint5_linear" x1="17.0086" y1="119.444" x2="180.295" y2="213.717" gradientUnits="userSpaceOnUse">
<stop stop-color="#987B57" stop-opacity="0"/>
<stop offset="1" stop-color="#987B57" stop-opacity="0.75"/>
</linearGradient>
</defs>
</svg>
