<svg width="541" height="585" viewBox="0 0 541 585" fill="none" xmlns="http://www.w3.org/2000/svg">
<g filter="url(#filter0_d)">
<path d="M497.934 176.407L271.994 46.0898L46.0551 176.407L46.0544 412.501L137.446 465.213L137.446 465.266L173.833 486.555L173.839 486.204L175.193 486.985L178.349 488.836L178.349 488.805L271.994 542.818L386.182 476.956L411.62 462.427V462.422L413.312 461.465V461.308L497.934 412.5V176.407Z" fill="#F7DDC4"/>
</g>
<g filter="url(#filter1_f)">
<path d="M507 170.382L270.5 34L34.0007 170.382L34 417.464L129.663 472.63L129.663 472.686L167.751 494.965L167.757 494.598L169.175 495.416L172.478 497.352L172.478 497.32L270.5 553.847L390.026 484.92L416.652 469.714V469.709L418.424 468.707V468.544L507 417.464V170.382Z" fill="url(#paint0_linear)"/>
</g>
<path d="M271.994 535.942L52.7651 409.496V180.414L271.994 306.861V535.942Z" fill="#DB4534"/>
<path d="M254.093 507.908L69.6606 401.382V208.39L254.093 314.916V507.908Z" fill="#DB4534"/>
<path d="M52.7651 180.414V409.496L271.994 535.942L59.3338 406.211L52.7651 180.414Z" fill="#F56C5D"/>
<path d="M271.992 535.942L491.221 409.496V180.414L271.992 306.861V535.942Z" fill="#BF1300"/>
<path d="M271.992 535.941L491.221 409.495V405.389L271.992 531.836V535.941Z" fill="#DB4534"/>
<path d="M271.994 306.86L52.7651 180.414L271.994 53.9675L491.222 180.414L271.994 306.86Z" fill="#A6CADC"/>
<path d="M473.157 180.415L287.593 287.976L271.992 296.187L257.213 287.976L71.6487 180.415L271.992 64.6423L473.157 180.415Z" fill="#4B6470"/>
<path d="M271.992 64.6423V296.187L71.6487 180.415L271.992 64.6423Z" fill="#647D89"/>
<path d="M287.592 287.975L271.991 296.185L257.212 287.975L271.991 278.943L287.592 287.975Z" fill="#587481"/>
<path d="M424.477 357.094L424.478 348.28L429.489 345.386L429.488 358.701L425.507 358.5C424.872 358.468 424.477 357.929 424.477 357.094Z" fill="#516069"/>
<path d="M443.403 346.166L443.404 337.351L438.393 340.245L438.392 353.56L442.373 348.762C443.008 347.996 443.403 347 443.403 346.166Z" fill="#516069"/>
<path d="M428.84 344.23L439.544 338.05L439.543 353.745L434.705 359.379C434.34 359.804 433.908 360.053 433.543 360.048L428.84 359.979L428.84 344.23Z" fill="#84A0B3"/>
<path d="M433.765 315.355L424.599 321.755C423.4 322.592 422.49 324.286 422.49 325.678L422.489 354.287C422.488 355.432 423.109 356.095 424.041 355.948L433.206 354.493C433.724 354.411 434.293 354.083 434.811 353.566L443.977 344.436C444.908 343.508 445.529 342.128 445.529 340.984L445.53 312.374C445.53 310.982 444.62 310.34 443.42 310.888L434.255 315.071C434.092 315.146 433.928 315.241 433.765 315.355Z" fill="#91B0C5"/>
<path d="M456.369 342.876L456.369 334.998C456.369 334.183 456.941 333.192 457.647 332.785L462.506 329.979C463.212 329.572 463.784 329.902 463.784 330.717L463.784 336.344C463.784 336.947 463.466 337.672 462.982 338.176L458.122 343.233C457.283 344.107 456.369 343.921 456.369 342.876Z" fill="#8C7A79"/>
<path d="M456.369 342.876L456.369 334.998C456.369 334.183 456.941 333.192 457.647 332.785L462.506 329.979C463.212 329.572 463.784 329.902 463.784 330.717L463.784 336.344C463.784 336.947 463.466 337.672 462.982 338.176L458.122 343.233C457.283 344.107 456.369 343.921 456.369 342.876Z" fill="#516069"/>
<path d="M473.292 333.105L473.292 325.226C473.292 324.412 472.72 324.081 472.014 324.489L467.155 327.294C466.449 327.702 465.877 328.693 465.877 329.508L465.877 335.135C465.877 335.738 466.195 336.096 466.679 336.041L471.538 335.487C472.378 335.391 473.292 334.149 473.292 333.105Z" fill="#8C7A79"/>
<path d="M473.292 333.105L473.292 325.226C473.292 324.412 472.72 324.081 472.014 324.489L467.155 327.294C466.449 327.702 465.877 328.693 465.877 329.508L465.877 335.135C465.877 335.738 466.195 336.096 466.679 336.041L471.538 335.487C472.378 335.391 473.292 334.149 473.292 333.105Z" fill="#8C685C"/>
<path d="M473.292 333.105L473.292 325.226C473.292 324.412 472.72 324.081 472.014 324.489L467.155 327.294C466.449 327.702 465.877 328.693 465.877 329.508L465.877 335.135C465.877 335.738 466.195 336.096 466.679 336.041L471.538 335.487C472.378 335.391 473.292 334.149 473.292 333.105Z" fill="#516069"/>
<path d="M460.56 296.516C459.751 297.018 458.816 297.622 457.89 298.23C455.246 299.964 453.228 303.694 453.228 306.753L453.227 333.92C453.227 336.945 455.201 338.345 457.805 337.167L464.195 334.277C464.562 334.111 464.933 333.897 465.3 333.639L471.689 329.15C474.294 327.321 476.268 323.642 476.268 320.617L476.269 293.45C476.269 290.39 474.252 288.99 471.608 290.309C470.682 290.77 469.748 291.246 468.94 291.677C465.67 293.422 463.83 294.484 460.56 296.516Z" fill="#91B0C5"/>
<path fill-rule="evenodd" clip-rule="evenodd" d="M458.344 395.22L458.345 388.341L455.862 389.774L455.862 395.114C455.862 395.208 455.908 395.266 455.981 395.265L458.344 395.22Z" fill="#516069"/>
<path fill-rule="evenodd" clip-rule="evenodd" d="M467.389 389.998L467.389 383.118L469.871 381.685L469.871 387.026C469.871 387.119 469.825 387.231 469.752 387.313L467.389 389.998Z" fill="#516069"/>
<path d="M458.259 372.433L467.589 367.046L467.588 391.645C467.588 391.87 467.399 392.14 467.212 392.181L462.988 393.099C462.946 393.108 462.901 393.134 462.859 393.173L458.634 397.134C458.448 397.309 458.258 397.257 458.258 397.032L458.259 372.433Z" fill="#84A0B3"/>
<path d="M462.882 349.785L454.399 354.683C452.722 355.652 451.362 358.007 451.362 359.944L451.361 391.173C451.36 392.964 452.529 393.793 454.07 393.095L462.553 389.258C462.771 389.16 462.99 389.033 463.208 388.881L471.691 382.921C473.233 381.838 474.401 379.66 474.401 377.87L474.402 346.641C474.402 344.704 473.042 343.919 471.365 344.887L462.882 349.785Z" fill="url(#paint1_linear)"/>
<path d="M462.882 349.785L454.399 354.683C452.722 355.652 451.362 358.007 451.362 359.944L451.361 391.173C451.36 392.964 452.529 393.793 454.07 393.095L462.553 389.258C462.771 389.16 462.99 389.033 463.208 388.881L471.691 382.921C473.233 381.838 474.401 379.66 474.401 377.87L474.402 346.641C474.402 344.704 473.042 343.919 471.365 344.887L462.882 349.785Z" fill="#91B0C5"/>
<path d="M426.777 414.467L426.777 407.176L439.344 399.919L439.344 407.135C439.344 407.8 439.036 408.591 438.537 409.21L433.783 415.104C433.286 415.72 432.675 416.072 432.179 416.027L427.579 415.61C427.082 415.565 426.777 415.13 426.777 414.467Z" fill="#84A0B3"/>
<path fill-rule="evenodd" clip-rule="evenodd" d="M430.429 405.067L430.429 415.868L427.579 415.61C427.082 415.565 426.777 415.13 426.777 414.467L426.777 407.176L430.429 405.067Z" fill="#516069"/>
<path fill-rule="evenodd" clip-rule="evenodd" d="M430.304 415.857L430.305 405.139L430.429 405.068L430.428 415.868L430.304 415.857Z" fill="#B0D2DD"/>
<path fill-rule="evenodd" clip-rule="evenodd" d="M435.692 401.957L435.691 412.758L438.542 409.209C439.038 408.59 439.344 407.802 439.344 407.14L439.344 399.848L435.692 401.957Z" fill="#516069"/>
<path fill-rule="evenodd" clip-rule="evenodd" d="M435.813 412.607L435.813 401.887L435.689 401.959L435.689 412.762L435.813 412.607Z" fill="#B0D2DD"/>
<path d="M433.064 370.583L426.674 374.272C423.841 375.908 421.543 379.887 421.543 383.159L421.542 408.413C421.542 411.087 423.092 412.533 425.326 411.945L431.716 410.263C432.597 410.031 433.527 409.494 434.409 408.708L440.798 403.012C443.032 401.02 444.583 397.783 444.583 395.11L444.584 369.856C444.584 366.584 442.287 365.257 439.453 366.894L433.064 370.583Z" fill="#91B0C5"/>
<path d="M403.562 459.413V230.331L366.228 252.653L363.865 482.086L403.562 459.413Z" fill="#4D6775"/>
<path d="M405.205 458.48V229.511L366.08 252.653V480.611L405.205 458.48Z" fill="#8FBACE"/>
<path d="M140.816 457.785V230.833L176.123 250.539L177.221 479.136L140.816 457.785Z" fill="#4D6775"/>
<path d="M137.534 456.266L138.122 227.57L176.484 249.702L172.841 476.923L137.534 456.266Z" fill="#AACCE1"/>
<defs>
<filter id="filter0_d" x="12.0544" y="16.0898" width="519.879" height="564.728" filterUnits="userSpaceOnUse" color-interpolation-filters="sRGB">
<feFlood flood-opacity="0" result="BackgroundImageFix"/>
<feColorMatrix in="SourceAlpha" type="matrix" values="0 0 0 0 0 0 0 0 0 0 0 0 0 0 0 0 0 0 127 0" result="hardAlpha"/>
<feOffset dy="4"/>
<feGaussianBlur stdDeviation="17"/>
<feComposite in2="hardAlpha" operator="out"/>
<feColorMatrix type="matrix" values="0 0 0 0 1 0 0 0 0 0.568627 0 0 0 0 0.0313726 0 0 0 0.4 0"/>
<feBlend mode="normal" in2="BackgroundImageFix" result="effect1_dropShadow"/>
<feBlend mode="normal" in="SourceGraphic" in2="effect1_dropShadow" result="shape"/>
</filter>
<filter id="filter1_f" x="0" y="0" width="541" height="587.847" filterUnits="userSpaceOnUse" color-interpolation-filters="sRGB">
<feFlood flood-opacity="0" result="BackgroundImageFix"/>
<feBlend mode="normal" in="SourceGraphic" in2="BackgroundImageFix" result="shape"/>
<feGaussianBlur stdDeviation="17" result="effect1_foregroundBlur"/>
</filter>
<linearGradient id="paint0_linear" x1="11.1392" y1="84.5804" x2="497.915" y2="86.0118" gradientUnits="userSpaceOnUse">
<stop stop-color="#00C5FF"/>
<stop offset="0.208333" stop-color="#3CE457"/>
<stop offset="0.571698" stop-color="#F15B5B"/>
<stop offset="0.8125" stop-color="#D660E9"/>
<stop offset="1" stop-color="#184ED9"/>
</linearGradient>
<linearGradient id="paint1_linear" x1="458.043" y1="357.579" x2="477.152" y2="371.654" gradientUnits="userSpaceOnUse">
<stop stop-color="#D8ECF1"/>
<stop offset="1" stop-color="#82B3BF"/>
</linearGradient>
</defs>
</svg>
