<svg width="442" height="314" viewBox="0 0 442 314" fill="none" xmlns="http://www.w3.org/2000/svg">
<path d="M220.87 0.467773L0.289062 127.357L223.083 254.246L441.451 127.357L220.87 0.467773Z" fill="#FF8375"/>
<path d="M223.083 313.264V254.246L441.451 127.356V186.375L223.083 313.264Z" fill="#E3311C"/>
<path d="M223.083 313.264V254.246L0.288986 127.356V186.375L223.083 313.264Z" fill="#FF5845"/>
<path d="M425.442 128.39L221.814 244.983L0.289062 127.357L223.083 254.246L441.451 127.357L220.87 0.467773L425.442 128.39Z" fill="#FFA197"/>
<path d="M100.134 70.142L315.815 193.752L349.75 173.833L100.871 69.4043L100.134 70.142Z" fill="#647D89"/>
<path d="M134.874 49.7578L222.829 97.687L186.702 119.035L100.872 69.4032L134.874 49.7578Z" fill="#C5EAFA"/>
<path d="M353.995 176.699L315.46 199.367L222.274 139.031L260.044 118.504L353.995 176.699Z" fill="#C5EAFA"/>
<path d="M120.318 193.752L347.495 71.0369L349.014 72.0271L126.22 196.703L120.318 193.752Z" fill="#647D89"/>
<path d="M260.6 119.035L222.83 139.562L186.703 119.035L222.83 97.6865L260.6 119.035Z" fill="#D8F2FF"/>
<path d="M186.702 119.037L222.829 139.564L125.481 197.441L87.1195 174.571L186.702 119.037Z" fill="#C5EAFA"/>
<path d="M349.014 72.0261L260.599 119.036L222.829 97.688L309.176 49.1565L349.014 72.0261Z" fill="#C5EAFA"/>
<path d="M273.052 128.031L231.703 151.402L191.252 128.031L230.804 104.66L273.052 128.031Z" fill="#FFDF31"/>
<path opacity="0.3" d="M171.376 123.656C171.376 123.656 128.272 106.112 129.835 127.313C131.398 148.513 176.846 142.792 176.846 142.792H190.913C190.913 142.792 172.158 193.54 214.357 193.54C256.557 193.54 261.246 175.48 254.213 166.057C247.179 156.635 244.835 140.93 244.835 140.93C244.835 140.93 271.405 143.151 291.723 142.366C312.042 140.796 343.301 138.44 341.738 129.018C340.175 119.595 350.334 104.025 321.419 111.878C292.505 119.73 244.053 114.233 244.053 114.233L217.483 80.469L198.728 83.6098V104.811L171.376 123.656Z" fill="black"/>
<path d="M251.48 41.7386C251.48 85.7846 237.097 116.347 237.097 116.347L209.232 111.853L210.13 104.661C210.13 104.661 190.355 41.7386 204.737 28.2551C206.535 26.4573 208.333 25.5584 211.029 25.5584C234.401 25.5584 251.48 24.6596 251.48 41.7386Z" fill="#FFDF52"/>
<path d="M211.927 45.3323C211.927 45.3323 215.522 77.6926 214.623 83.9849C213.724 91.1761 214.623 99.2662 214.623 99.2662L244.287 93.8728C244.287 93.8728 249.68 71.4003 250.579 57.9168C250.579 44.4333 250.579 44.4333 250.579 44.4333L246.983 68.7036C246.983 71.4003 243.388 72.2992 242.489 69.6025C239.792 66.9058 237.096 65.108 233.5 65.108C229.904 65.108 226.309 66.9058 222.713 68.7036C219.118 70.5014 215.522 68.7036 214.623 65.108C213.724 58.8157 212.825 49.8267 211.927 45.3323Z" fill="#FAC22A"/>
<path d="M212.825 111.851H210.128L211.027 104.659C211.027 104.659 191.251 41.7366 205.634 28.2532C207.431 30.051 209.229 32.7477 210.128 37.2422C214.623 70.5014 213.724 98.3672 212.825 111.851Z" fill="#FAB01B"/>
<path d="M202.937 32.7475C202.937 32.7475 197.544 35.4442 202.937 66.9057C208.33 99.266 212.825 108.255 212.825 108.255C212.825 108.255 211.027 18.3652 202.937 32.7475Z" fill="#D85E00"/>
<path d="M237.096 113.651C237.096 113.651 271.254 122.64 302.715 113.651C334.177 104.662 362.043 85.7852 362.043 85.7852L371.032 110.954C371.032 110.954 334.177 152.304 236.197 131.629L237.096 113.651Z" fill="#D85E00"/>
<path d="M237.096 113.65C237.096 113.65 309.907 47.1317 340.469 57.9185C371.032 68.7053 371.032 108.257 371.032 110.954C371.032 110.954 353.953 74.0987 296.423 108.257C271.254 123.538 236.197 131.628 236.197 131.628L237.096 113.65Z" fill="url(#paint0_linear)"/>
<path d="M232.601 113.651C232.601 113.651 198.443 122.64 166.981 113.651C135.52 104.662 107.654 85.7852 107.654 85.7852L98.665 110.954C98.665 110.954 138.216 152.304 236.196 131.629L232.601 113.651Z" fill="#D85E00"/>
<path d="M236.2 132.526C236.2 132.526 198.446 125.335 173.277 109.155C134.624 85.7837 113.949 95.6716 104.96 103.762C100.466 107.357 98.6682 111.852 98.6682 111.852C97.7693 109.155 97.7693 86.6826 111.253 70.5024C115.747 65.109 121.141 61.5134 128.332 58.8167C158.894 48.0299 231.705 114.548 231.705 114.548L236.2 132.526Z" fill="url(#paint1_linear)"/>
<path d="M239.795 99.2681C239.795 99.2681 245.188 80.3912 229.907 81.2901C213.727 81.2901 210.131 81.2901 210.131 92.9758C210.131 104.662 223.614 117.246 223.614 117.246L239.795 99.2681Z" fill="#FADD4A"/>
<path d="M229.905 90.2784C229.905 90.2784 242.489 75.8961 250.579 88.4807C258.669 101.964 261.366 104.661 251.478 110.953C241.59 117.245 223.612 113.65 223.612 113.65L229.905 90.2784Z" fill="#FEC200"/>
<path d="M217.319 92.975C217.319 92.975 204.734 78.5926 196.644 91.1772C188.554 104.661 185.858 107.357 195.745 113.65C205.633 119.942 223.611 116.346 223.611 116.346L217.319 92.975Z" fill="#FEC200"/>
<path d="M242.491 104.662C247.884 108.258 248.783 125.337 227.209 125.337C205.636 125.337 196.647 125.337 200.243 113.651C204.737 98.3697 225.412 104.662 225.412 104.662C225.412 104.662 238.895 102.864 242.491 104.662Z" fill="#FAB01B"/>
<path d="M211.03 114.549C211.03 114.549 202.939 111.852 193.95 131.628C179.568 163.089 191.254 187.359 198.445 190.056C212.827 194.551 246.086 196.348 250.581 180.168C255.075 163.089 239.794 115.448 239.794 115.448L228.109 117.245L211.03 114.549Z" fill="#FADD4A"/>
<path d="M211.03 114.549C211.03 114.549 202.939 111.852 193.95 131.628C179.568 163.089 191.254 187.359 198.445 190.056C212.827 194.551 246.086 196.348 250.581 180.168C255.075 163.089 239.794 115.448 239.794 115.448L228.109 117.245L211.03 114.549Z" fill="#FFE45C"/>
<path d="M239.794 114.55L237.996 115.448C240.693 126.235 249.682 155.899 246.086 168.483C241.592 182.866 212.827 181.068 200.242 177.472C187.658 173.877 182.264 156.798 195.748 126.235C195.748 125.336 196.647 124.437 196.647 123.539C194.849 125.336 193.95 128.033 192.152 131.629C177.77 163.09 189.455 187.36 196.647 190.057C211.029 194.551 244.288 196.349 248.783 180.169C255.075 162.191 239.794 114.55 239.794 114.55Z" fill="#FAB01B"/>
<path d="M198.444 160.392C193.05 158.594 192.152 154.998 189.455 149.605C183.163 172.976 186.758 186.46 198.444 190.055C212.826 194.55 246.085 196.347 250.58 180.167C252.378 173.875 251.479 163.987 249.681 153.2C242.49 166.684 211.927 164.886 198.444 160.392Z" fill="#FFD13B"/>
<path d="M251.476 164.887C251.476 165.785 251.476 166.684 250.577 167.583C246.083 184.662 212.824 181.966 198.441 177.471C191.25 174.774 189.452 168.482 187.654 158.594C185.857 174.774 188.553 185.561 198.441 188.258C212.824 192.752 246.083 194.55 250.577 178.37C251.476 175.673 251.476 170.28 251.476 164.887Z" fill="#FAB01B"/>
<defs>
<linearGradient id="paint0_linear" x1="361.224" y1="81.9263" x2="270.467" y2="100.377" gradientUnits="userSpaceOnUse">
<stop stop-color="#FEDE31"/>
<stop offset="0.4271" stop-color="#FDD62E"/>
<stop offset="0.4706" stop-color="#FBBC21"/>
<stop offset="0.7882" stop-color="#FAB01B"/>
</linearGradient>
<linearGradient id="paint1_linear" x1="115.435" y1="82.7921" x2="261.977" y2="124.711" gradientUnits="userSpaceOnUse">
<stop stop-color="#FEDE31"/>
<stop offset="0.4271" stop-color="#FDD62E"/>
<stop offset="0.4706" stop-color="#FBBC21"/>
<stop offset="0.7882" stop-color="#FAB01B"/>
</linearGradient>
</defs>
</svg>
