<svg width="300" height="336" viewBox="0 0 300 336" fill="none" xmlns="http://www.w3.org/2000/svg">
<path d="M150 329.775L0 243.258V86.5164L150 173.033V329.775Z" fill="#87A2B4"/>
<path d="M0 86.5164V243.258L150 329.775L4.49438 241.011L0 86.5164Z" fill="#647D89"/>
<path d="M150 329.775L300 243.258V86.5165L150 173.033V329.775Z" fill="#647D89"/>
<path d="M150 329.774L300 243.257V240.448L150 326.965V329.774Z" fill="#536A76"/>
<path d="M150 173.034L0 86.5169L150 0L300 86.5169L150 173.034Z" fill="#A6CADC"/>
<path d="M287.641 86.517L160.675 160.112L150 165.73L139.888 160.112L12.9218 86.517L150 7.3035L287.641 86.517Z" fill="#4B6470"/>
<path d="M150 7.3035V165.73L12.9218 86.517L150 7.3035Z" fill="#647D89"/>
<path d="M160.674 160.112L150 165.73L139.887 160.112L150 153.932L160.674 160.112Z" fill="#587481"/>
<path d="M212.096 277.613L212.096 291.435L161.636 320.571L161.636 306.165C161.637 297.006 165.818 289.845 173.603 285.35L177.712 282.978C183.046 279.898 186.867 279.607 188.525 283.562C190.183 278.525 193.499 274.778 198.689 271.781L200.491 270.741C208.276 266.246 212.097 268.12 212.096 277.613ZM184.343 294.22C184.344 290.057 182.902 289.14 178.216 291.846L173.819 294.385C170.071 296.549 168.845 298.922 168.845 302.003L168.845 307.249L184.343 298.3L184.343 294.22ZM204.888 282.025C204.888 278.777 203.302 278.277 199.698 280.358L196.887 281.982C192.85 284.312 191.552 287.143 191.552 290.557L191.552 294.138L204.888 286.438L204.888 282.025Z" fill="#536A76"/>
<path d="M200.492 255.898C204.096 253.817 205.466 251.194 205.466 248.28C205.466 245.366 204.096 244.324 200.492 246.406L173.244 262.139C169.639 264.22 168.27 266.843 168.27 269.757C168.269 272.671 169.639 273.713 173.243 271.631L200.492 255.898ZM173.748 280.5C165.674 285.161 161.061 282.912 161.061 273.919C161.061 264.926 165.675 257.35 173.749 252.688L199.988 237.537C208.061 232.876 212.675 235.125 212.674 244.118C212.674 253.111 208.06 260.687 199.987 265.349L173.748 280.5Z" fill="#536A76"/>
<path d="M212.099 203.746L193.501 221.562L212.099 217.735L212.098 227.228L187.59 231.803L161.638 257.029L161.639 248.453L181.607 229.346L161.639 233.381L161.64 223.722L187.59 218.98L212.1 195.252L212.099 203.746Z" fill="#536A76"/>
<path d="M242.697 276.404V119.662L216.854 135.44L215.536 291.917L242.697 276.404Z" fill="#4D6775"/>
<path d="M243.82 275.765V119.101L217.05 134.935V290.908L243.82 275.765Z" fill="#8FBACE"/>
<path d="M62.9211 279.327V124.043L87.0784 137.526L87.8295 293.937L62.9211 279.327Z" fill="#4D6775"/>
<path d="M60.6743 278.289L61.0768 121.811L87.3247 136.954L84.8316 292.422L60.6743 278.289Z" fill="#AACCE1"/>
</svg>
