<svg width="303" height="195" viewBox="0 0 303 195" fill="none" xmlns="http://www.w3.org/2000/svg">
<path d="M151.916 0.657166L0.990479 87.4771L153.43 174.297L302.841 87.4771L151.916 0.657166Z" fill="#A6CADC"/>
<path d="M153.43 194.488V174.297L302.841 87.4772V107.668L153.43 194.488Z" fill="#536A76"/>
<path d="M153.43 194.488V174.297L0.990433 87.4772V107.668L153.43 194.488Z" fill="#9FBED2"/>
<path d="M291.888 88.1836L152.562 167.959L0.990479 87.4771L153.43 174.297L302.841 87.4771L151.916 0.657166L291.888 88.1836Z" fill="#BEDFEF"/>
<path d="M67.6198 49.1149L219.555 135.935L242.774 122.306L68.1245 48.6101L67.6198 49.1149Z" fill="#647D89"/>
<path d="M92.3533 34.9813L155.932 70.2061L131.213 84.8129L68.1245 48.61L92.3533 34.9813Z" fill="#C5EAFA"/>
<path d="M245.803 120.287L219.555 135.935L155.931 98.858L181.774 84.813L245.803 120.287Z" fill="#C5EAFA"/>
<path d="M85.7915 135.935L241.23 51.9706L242.269 52.6482L89.8296 137.954L85.7915 135.935Z" fill="#647D89"/>
<path d="M181.774 84.8124L155.932 98.8573L131.213 84.8124L155.932 70.2056L181.774 84.8124Z" fill="#D8F2FF"/>
<path d="M131.213 84.813L155.932 98.858L89.3248 138.459L63.0769 122.811L131.213 84.813Z" fill="#C5EAFA"/>
<path d="M242.269 52.6482L181.774 84.8133L155.931 70.2066L215.012 37.0004L242.269 52.6482Z" fill="#C5EAFA"/>
</svg>
