<svg width="279" height="248" viewBox="0 0 279 248" fill="none" xmlns="http://www.w3.org/2000/svg">
<path d="M129 92C129.211 94.4444 129.421 96 130.263 98C131.737 97.3333 132.579 96.4444 133 95.7778C132.368 94.6667 132.158 93.7778 132.158 92C131.105 92.4444 130.263 92.4444 129 92Z" fill="url(#paint0_linear)"/>
<path d="M106 53.3103C107.101 54.6897 107.321 55.7931 107.101 58C108.862 57.1724 109.963 56.069 111.945 54.1379C112.165 52.4828 111.725 51.3793 110.624 50C109.083 51.931 107.761 53.0345 106 53.3103Z" fill="url(#paint1_linear)"/>
<path d="M116 13.3103C117.101 14.6897 117.321 15.7931 117.101 18C118.862 17.1724 119.963 16.069 121.945 14.1379C122.165 12.4828 121.725 11.3793 120.624 10C119.083 11.931 117.761 13.0345 116 13.3103Z" fill="url(#paint2_linear)"/>
<path d="M60 116.31C61.1009 117.69 61.3211 118.793 61.1009 121C62.8624 120.172 63.9633 119.069 65.945 117.138C66.1651 115.483 65.7248 114.379 64.6239 113C63.0826 114.931 61.7615 116.034 60 116.31Z" fill="url(#paint3_linear)"/>
<path d="M91.3177 164C92.7974 161.057 93.5373 159.34 92.5508 156.151C87.3717 154.679 84.4122 153.453 79.4797 151C79.2331 152.962 78.7399 154.189 78 155.17C83.6724 157.623 86.6318 159.83 91.3177 164Z" fill="url(#paint4_linear)"/>
<path d="M68.5502 204C68.0902 207.143 67.8602 209.429 68.0902 212C69.9301 211.714 70.8501 210.857 71.77 210C71.31 208.286 71.54 207.143 72 205.143C70.3901 205.429 69.7001 205.143 68.5502 204Z" fill="url(#paint5_linear)"/>
<path d="M184 204.361C185.475 206.328 186.213 208.295 186.951 211C191.623 207.066 194.82 204.852 199 202.885C199 199.689 198.262 198.213 197.033 196C193.836 197.475 189.164 200.426 184 204.361Z" fill="url(#paint6_linear)"/>
<path d="M199.633 74C202.551 72.9767 204.143 71.6977 206 68.8837C202.551 67.093 201.224 65.3023 199.898 63C197.245 63.7674 195.388 64.7907 193 66.8372C195.653 68.8837 197.51 70.9302 199.633 74Z" fill="url(#paint7_linear)"/>
<path d="M230 127.375C229.043 125.792 227.609 125.528 225.457 125C224.5 130.278 222.109 135.292 219 141.097C220.674 141.625 221.63 142.417 222.826 144C226.652 138.194 228.326 134.5 230 127.375Z" fill="url(#paint8_linear)"/>
<path d="M8 173.326C6.78788 172.558 5.81818 171.535 4.84849 170C3.15152 173.326 1.69697 175.372 0 177.419C0.727273 179.209 1.45454 179.977 2.66667 181C4.12121 179.721 6.06061 176.907 8 173.326Z" fill="url(#paint9_linear)"/>
<path d="M217 105.224C215 104.974 212.75 104.723 210.5 105.726C209.75 107.232 209.25 108.487 208 109.741C209.5 109.741 210.5 110.243 211.75 112C212.75 109.741 214.5 107.734 217 105.224Z" fill="url(#paint10_linear)"/>
<path d="M171.4 105C172.6 103.174 173.32 102.13 175 100.826C174.52 100.043 173.8 99.2609 172.84 99C171.64 99.7826 170.44 101.087 169 102.913C170.2 103.174 170.92 103.696 171.4 105Z" fill="url(#paint11_linear)"/>
<path d="M122.4 196C123.6 194.174 124.32 193.13 126 191.826C125.52 191.043 124.8 190.261 123.84 190C122.64 190.783 121.44 192.087 120 193.913C121.2 194.174 121.92 194.696 122.4 196Z" fill="url(#paint12_linear)"/>
<path d="M72 74.3333C73.5225 76.4762 74.03 78.1429 73.015 81C76.5675 80.2857 78.8512 79.3333 82.6574 76.9524C83.4187 74.5714 82.9112 73.381 81.135 71C77.8362 73.1429 75.2987 74.3333 72 74.3333Z" fill="url(#paint13_linear)"/>
<path d="M76.5263 14.2174C79.9474 15.2609 82.0526 15.2609 86 14.2174C84.4211 10.0435 84.4211 7.43478 84.9474 4.56522C81.7895 3.26087 79.6842 3 76 3C77.0526 6.91304 77.0526 9.78261 76.5263 14.2174Z" fill="url(#paint14_linear)"/>
<path d="M272 89.1613C272.241 90.4516 272.966 90.9677 274.414 92C275.862 89.6774 276.828 88.6452 279 87.0968C278.034 86.5806 277.552 85.8065 276.828 84C274.655 85.2903 273.448 86.8387 272 89.1613Z" fill="url(#paint15_linear)"/>
<path d="M164 186.161C164.241 187.452 164.966 187.968 166.414 189C167.862 186.677 168.828 185.645 171 184.097C170.034 183.581 169.552 182.806 168.828 181C166.655 182.29 165.448 183.839 164 186.161Z" fill="url(#paint16_linear)"/>
<path d="M106 244.176C103.692 241.118 102.538 238.824 101.154 235C99.3077 235.765 97.9231 236.529 97 238.314C97.6923 241.118 99.0769 244.176 101.385 248C102.769 245.451 103.923 244.176 106 244.176Z" fill="url(#paint17_linear)"/>
<path d="M229 9.17647C226.692 6.11765 225.538 3.82352 224.154 0C222.308 0.764705 220.923 1.52942 220 3.31373C220.692 6.11765 222.077 9.17647 224.385 13C225.769 10.451 226.923 9.17647 229 9.17647Z" fill="url(#paint18_linear)"/>
<path d="M2.79748 112C2.79748 113.963 2.02713 114.945 1 116.172C4.0814 116.908 7.41958 117.153 8.70349 116.908C9.21706 115.436 8.96028 114.209 8.70349 112.491C7.16279 112.982 5.6221 112.736 2.79748 112Z" fill="url(#paint19_linear)"/>
<path d="M42.8274 172.961C44.916 171.923 47.5266 171.923 52.7479 174C53.27 171.663 53.0089 169.326 51.7036 166.73C47.5266 165.951 44.916 165.691 41 166.47C42.5664 168.288 42.8274 169.846 42.8274 172.961Z" fill="url(#paint20_linear)"/>
<path d="M157 11.7647C157 13.6471 157.778 14.8235 159.593 16C161.667 15.5294 162.963 14.8235 164 13.8824C163.222 12 163.481 10.3529 164 8C161.667 9.41176 160.111 10.5882 157 11.7647Z" fill="url(#paint21_linear)"/>
<path d="M126 149.818C127.548 151.182 128.065 152.545 127.806 155C130.129 153.909 131.677 152.818 134 150.364C134 148.455 133.484 147.364 132.194 146C130.129 147.909 128.323 149.273 126 149.818Z" fill="url(#paint22_linear)"/>
<path d="M167 141.957C166.5 139.87 166 138.304 164.75 137C163.5 137.261 162.75 137.783 162 138.304C163.25 139.87 163.75 141.174 164 143C165 142.217 165.75 141.696 167 141.957Z" fill="url(#paint23_linear)"/>
<path d="M137.75 228C137 229 136 229.75 134 230C136 234.25 137.5 236.5 140.5 240C143 239.25 144.25 238.25 145 237.5C141.25 234.5 139.75 232 137.75 228Z" fill="url(#paint24_linear)"/>
<path d="M250.161 102.714C249.892 104.381 249.892 105.333 250.7 107C252.588 106.048 254.205 105.81 255.553 106.048C256.093 104.619 256.093 103.429 255.823 102C254.205 102.476 252.588 102.714 250.161 102.714Z" fill="url(#paint25_linear)"/>
<defs>
<linearGradient id="paint0_linear" x1="128.907" y1="95.2049" x2="133.042" y2="94.0472" gradientUnits="userSpaceOnUse">
<stop stop-color="#FF5C5C"/>
<stop offset="0.3013" stop-color="#F44444"/>
<stop offset="0.935" stop-color="#D60707"/>
<stop offset="1" stop-color="#D30000"/>
</linearGradient>
<linearGradient id="paint1_linear" x1="107.974" y1="51.7246" x2="111.292" y2="56.7084" gradientUnits="userSpaceOnUse">
<stop stop-color="#FF5C5C"/>
<stop offset="0.3013" stop-color="#F44444"/>
<stop offset="0.935" stop-color="#D60707"/>
<stop offset="1" stop-color="#D30000"/>
</linearGradient>
<linearGradient id="paint2_linear" x1="117.974" y1="11.7246" x2="121.292" y2="16.7084" gradientUnits="userSpaceOnUse">
<stop stop-color="#FF5C5C"/>
<stop offset="0.3013" stop-color="#F44444"/>
<stop offset="0.935" stop-color="#D60707"/>
<stop offset="1" stop-color="#D30000"/>
</linearGradient>
<linearGradient id="paint3_linear" x1="61.9738" y1="114.725" x2="65.2919" y2="119.708" gradientUnits="userSpaceOnUse">
<stop stop-color="#FF5C5C"/>
<stop offset="0.3013" stop-color="#F44444"/>
<stop offset="0.935" stop-color="#D60707"/>
<stop offset="1" stop-color="#D30000"/>
</linearGradient>
<linearGradient id="paint4_linear" x1="87.1341" y1="153.073" x2="84.1967" y2="161.48" gradientUnits="userSpaceOnUse">
<stop stop-color="#FF5C5C"/>
<stop offset="0.3013" stop-color="#F44444"/>
<stop offset="0.935" stop-color="#D60707"/>
<stop offset="1" stop-color="#D30000"/>
</linearGradient>
<linearGradient id="paint5_linear" x1="67.4723" y1="208.082" x2="72.1883" y2="208.001" gradientUnits="userSpaceOnUse">
<stop stop-color="#4D8EFF"/>
<stop offset="0.4282" stop-color="#3F76FF"/>
<stop offset="1" stop-color="#2850FF"/>
</linearGradient>
<linearGradient id="paint6_linear" x1="195.222" y1="209.187" x2="189.193" y2="199.175" gradientUnits="userSpaceOnUse">
<stop stop-color="#4D8EFF"/>
<stop offset="0.4282" stop-color="#3F76FF"/>
<stop offset="1" stop-color="#2850FF"/>
</linearGradient>
<linearGradient id="paint7_linear" x1="196.455" y1="70.8091" x2="203.543" y2="64.4647" gradientUnits="userSpaceOnUse">
<stop stop-color="#4D8EFF"/>
<stop offset="0.4282" stop-color="#3F76FF"/>
<stop offset="1" stop-color="#2850FF"/>
</linearGradient>
<linearGradient id="paint8_linear" x1="228.614" y1="136.836" x2="221.206" y2="132.736" gradientUnits="userSpaceOnUse">
<stop stop-color="#4D8EFF"/>
<stop offset="0.4282" stop-color="#3F76FF"/>
<stop offset="1" stop-color="#2850FF"/>
</linearGradient>
<linearGradient id="paint9_linear" x1="0.818381" y1="173.173" x2="6.59092" y2="177.314" gradientUnits="userSpaceOnUse">
<stop stop-color="#FC9512"/>
<stop offset="0.00696862" stop-color="#FC9612"/>
<stop offset="0.68" stop-color="#FED319"/>
<stop offset="1" stop-color="#FFEB1C"/>
</linearGradient>
<linearGradient id="paint10_linear" x1="214.719" y1="108.881" x2="209.179" y2="105.887" gradientUnits="userSpaceOnUse">
<stop stop-color="#FC9512"/>
<stop offset="0.00696862" stop-color="#FC9612"/>
<stop offset="0.68" stop-color="#FED319"/>
<stop offset="1" stop-color="#FFEB1C"/>
</linearGradient>
<linearGradient id="paint11_linear" x1="173.122" y1="103.044" x2="170.109" y2="100.47" gradientUnits="userSpaceOnUse">
<stop stop-color="#FC9512"/>
<stop offset="0.00696862" stop-color="#FC9612"/>
<stop offset="0.68" stop-color="#FED319"/>
<stop offset="1" stop-color="#FFEB1C"/>
</linearGradient>
<linearGradient id="paint12_linear" x1="124.122" y1="194.044" x2="121.109" y2="191.47" gradientUnits="userSpaceOnUse">
<stop stop-color="#FC9512"/>
<stop offset="0.00696862" stop-color="#FC9612"/>
<stop offset="0.68" stop-color="#FED319"/>
<stop offset="1" stop-color="#FFEB1C"/>
</linearGradient>
<linearGradient id="paint13_linear" x1="75.9952" y1="72.6567" x2="78.7569" y2="80.9815" gradientUnits="userSpaceOnUse">
<stop stop-color="#FC9512"/>
<stop offset="0.00696862" stop-color="#FC9612"/>
<stop offset="0.68" stop-color="#FED319"/>
<stop offset="1" stop-color="#FFEB1C"/>
</linearGradient>
<linearGradient id="paint14_linear" x1="76.3393" y1="9.04497" x2="87.2652" y2="8.71299" gradientUnits="userSpaceOnUse">
<stop stop-color="#FC9512"/>
<stop offset="0.00696862" stop-color="#FC9612"/>
<stop offset="0.68" stop-color="#FED319"/>
<stop offset="1" stop-color="#FFEB1C"/>
</linearGradient>
<linearGradient id="paint15_linear" x1="277.286" y1="89.8391" x2="273.145" y2="86.0837" gradientUnits="userSpaceOnUse">
<stop stop-color="#FF3EB9"/>
<stop offset="0.0433129" stop-color="#FF44BC"/>
<stop offset="0.7006" stop-color="#FF98E3"/>
<stop offset="1" stop-color="#FFB9F2"/>
</linearGradient>
<linearGradient id="paint16_linear" x1="169.286" y1="186.839" x2="165.145" y2="183.084" gradientUnits="userSpaceOnUse">
<stop stop-color="#FF3EB9"/>
<stop offset="0.0433129" stop-color="#FF44BC"/>
<stop offset="0.7006" stop-color="#FF98E3"/>
<stop offset="1" stop-color="#FFB9F2"/>
</linearGradient>
<linearGradient id="paint17_linear" x1="103.815" y1="239.656" x2="97.4242" y2="243.163" gradientUnits="userSpaceOnUse">
<stop stop-color="#FF3EB9"/>
<stop offset="0.0433129" stop-color="#FF44BC"/>
<stop offset="0.7006" stop-color="#FF98E3"/>
<stop offset="1" stop-color="#FFB9F2"/>
</linearGradient>
<linearGradient id="paint18_linear" x1="226.815" y1="4.65577" x2="220.424" y2="8.16284" gradientUnits="userSpaceOnUse">
<stop stop-color="#FF3EB9"/>
<stop offset="0.0433129" stop-color="#FF44BC"/>
<stop offset="0.7006" stop-color="#FF98E3"/>
<stop offset="1" stop-color="#FFB9F2"/>
</linearGradient>
<linearGradient id="paint19_linear" x1="5.65669" y1="111.808" x2="4.79036" y2="118.143" gradientUnits="userSpaceOnUse">
<stop stop-color="#FF3EB9"/>
<stop offset="0.0433129" stop-color="#FF44BC"/>
<stop offset="0.7006" stop-color="#FF98E3"/>
<stop offset="1" stop-color="#FFB9F2"/>
</linearGradient>
<linearGradient id="paint20_linear" x1="46.9621" y1="175.049" x2="47.0815" y2="163.747" gradientUnits="userSpaceOnUse">
<stop stop-color="#FF3EB9"/>
<stop offset="0.0433129" stop-color="#FF44BC"/>
<stop offset="0.7006" stop-color="#FF98E3"/>
<stop offset="1" stop-color="#FFB9F2"/>
</linearGradient>
<linearGradient id="paint21_linear" x1="159.967" y1="9.4758" x2="163.094" y2="15.6473" gradientUnits="userSpaceOnUse">
<stop stop-color="#00EE98"/>
<stop offset="0.2798" stop-color="#00D685"/>
<stop offset="0.8679" stop-color="#009955"/>
<stop offset="1" stop-color="#008A49"/>
</linearGradient>
<linearGradient id="paint22_linear" x1="128.665" y1="147.833" x2="132.397" y2="153.783" gradientUnits="userSpaceOnUse">
<stop stop-color="#00EE98"/>
<stop offset="0.2798" stop-color="#00D685"/>
<stop offset="0.8679" stop-color="#009955"/>
<stop offset="1" stop-color="#008A49"/>
</linearGradient>
<linearGradient id="paint23_linear" x1="166.163" y1="139.123" x2="162.893" y2="140.69" gradientUnits="userSpaceOnUse">
<stop stop-color="#00EE98"/>
<stop offset="0.2798" stop-color="#00D685"/>
<stop offset="0.8679" stop-color="#009955"/>
<stop offset="1" stop-color="#008A49"/>
</linearGradient>
<linearGradient id="paint24_linear" x1="141.548" y1="232.4" x2="135.759" y2="236.414" gradientUnits="userSpaceOnUse">
<stop stop-color="#00EE98"/>
<stop offset="0.2798" stop-color="#00D685"/>
<stop offset="0.8679" stop-color="#009955"/>
<stop offset="1" stop-color="#008A49"/>
</linearGradient>
<linearGradient id="paint25_linear" x1="252.912" y1="102.329" x2="253.613" y2="107.276" gradientUnits="userSpaceOnUse">
<stop stop-color="#00EE98"/>
<stop offset="0.2798" stop-color="#00D685"/>
<stop offset="0.8679" stop-color="#009955"/>
<stop offset="1" stop-color="#008A49"/>
</linearGradient>
</defs>
</svg>
