<svg width="24" height="24" viewBox="0 0 24 24" fill="none" xmlns="http://www.w3.org/2000/svg">
<circle cx="12" cy="12" r="12" fill="#404070"/>
<path fill-rule="evenodd" clip-rule="evenodd" d="M8.10591 6.08955C8.01083 6.12752 7.9194 6.23035 7.89279 6.3292C7.87725 6.38694 7.87413 6.51672 7.88445 6.67611L7.90095 6.93077H7.08294C6.15966 6.93077 6.15237 6.93201 6.04737 7.10903C5.99498 7.19736 5.99367 7.21267 6.00736 7.57545C6.05342 8.79389 6.30766 9.85133 6.78381 10.8048C7.49783 12.2345 8.55763 13.1097 9.75313 13.2569L9.93514 13.2793L10.1379 13.4713C10.2494 13.5768 10.4234 13.7211 10.5244 13.7919L10.7081 13.9206V14.704V15.4874L10.3154 15.4877C10.0474 15.4879 9.88216 15.4988 9.79485 15.522C9.34881 15.6407 8.98427 16.001 8.86738 16.4387C8.84483 16.5232 8.82484 16.7304 8.81626 16.9682L8.80219 17.3589L8.71946 17.3745C8.61509 17.394 8.49333 17.5137 8.46187 17.6277C8.4181 17.7862 8.50789 17.9702 8.66001 18.0338C8.77532 18.082 15.2195 18.082 15.3348 18.0338C15.487 17.9702 15.5768 17.7862 15.533 17.6277C15.5015 17.5137 15.3798 17.394 15.2754 17.3745L15.1927 17.3589L15.1786 16.9682C15.17 16.7304 15.15 16.5232 15.1275 16.4387C15.0106 16.001 14.646 15.6407 14.2 15.522C14.1127 15.4988 13.9475 15.4879 13.6795 15.4877L13.2868 15.4874V14.704V13.9206L13.4705 13.7919C13.5715 13.7211 13.7454 13.5768 13.8569 13.4713L14.0597 13.2793L14.2417 13.2569C15.4372 13.1097 16.497 12.2345 17.211 10.8048C17.6872 9.85133 17.9414 8.79389 17.9875 7.57545C18.0012 7.21267 17.9999 7.19736 17.9475 7.10903C17.8425 6.93211 17.8348 6.93077 16.9149 6.93077H16.0999L16.1058 6.61628C16.1122 6.27182 16.1009 6.2359 15.9502 6.12345C15.8855 6.07513 15.8841 6.07511 12.025 6.07063C9.49905 6.0677 8.14427 6.07424 8.10591 6.08955ZM15.3883 7.14762C15.2992 9.31458 14.6556 11.4064 13.7145 12.5884C12.7527 13.7963 11.5726 13.9167 10.5669 12.9094C9.47692 11.8176 8.70539 9.55002 8.60654 7.14762L8.59085 6.76667H11.9974H15.404L15.3883 7.14762ZM7.94742 7.83332C8.06041 9.05647 8.32728 10.2284 8.71618 11.2091C8.84045 11.5225 9.08843 12.0457 9.21893 12.2699C9.26584 12.3505 9.29569 12.4164 9.28528 12.4164C9.27487 12.4164 9.1701 12.368 9.05249 12.3088C7.83009 11.6941 6.87582 9.91376 6.73521 7.9857C6.72722 7.8761 6.71538 7.75197 6.70888 7.70985L6.69707 7.63328L7.31359 7.63952L7.93009 7.64578L7.94742 7.83332ZM17.2859 7.71025C17.2795 7.75214 17.2676 7.8761 17.2596 7.9857C17.1356 9.68613 16.382 11.2811 15.3292 12.0715C15.1778 12.1851 14.7623 12.4164 14.7096 12.4164C14.6992 12.4164 14.729 12.3505 14.7759 12.2699C14.9064 12.0457 15.1544 11.5225 15.2787 11.2091C15.6626 10.241 15.9529 8.9718 16.0428 7.86848C16.0517 7.75889 16.0636 7.6613 16.0691 7.65164C16.0747 7.64198 16.3534 7.63406 16.6884 7.63406H17.2976L17.2859 7.71025ZM11.6223 14.2676C11.6804 14.2803 11.8492 14.2907 11.9974 14.2907C12.1457 14.2907 12.3145 14.2803 12.3725 14.2676C12.4305 14.2549 12.5017 14.2392 12.5308 14.2326L12.5835 14.2206V14.854V15.4874H11.9974H11.4114V14.854V14.2206L11.4641 14.2326C11.4931 14.2392 11.5643 14.2549 11.6223 14.2676ZM14.1424 16.2414C14.249 16.3006 14.3673 16.426 14.4151 16.5306C14.4507 16.6086 14.458 16.6866 14.4584 16.9936L14.4589 17.3628H11.9974H9.53593L9.53644 16.9936C9.53705 16.552 9.55886 16.4828 9.75123 16.3118C9.88893 16.1893 9.83876 16.1918 12.0326 16.1973C13.8851 16.2019 14.0786 16.206 14.1424 16.2414Z" fill="white"/>
</svg>
