<svg width="24" height="24" viewBox="0 0 24 24" fill="none" xmlns="http://www.w3.org/2000/svg">
<circle cx="12" cy="12" r="12" fill="#404070"/>
<path fill-rule="evenodd" clip-rule="evenodd" d="M11.449 6.02542C10.2814 6.13402 9.12438 6.60678 8.21432 7.34715C7.94643 7.56507 7.52638 7.98886 7.30811 8.26142C6.79944 8.89657 6.38559 9.73104 6.18668 10.5225C5.83126 11.9367 5.98504 13.364 6.63363 14.6705C7.21803 15.8478 8.14979 16.7794 9.32945 17.366C10.8078 18.1011 12.4663 18.2001 14.0266 17.6464C14.3809 17.5207 14.9639 17.2307 15.2815 17.0223C16.2122 16.4115 16.9747 15.5306 17.4373 14.5318C18.2118 12.8593 18.1858 10.9765 17.3655 9.32967C17.0596 8.71569 16.7431 8.27345 16.2595 7.7843C15.7699 7.28904 15.2959 6.94609 14.6703 6.63448C13.6623 6.13238 12.5534 5.92271 11.449 6.02542ZM10.804 6.96358C11.0907 7.12257 11.32 7.27788 11.3182 7.31175C11.3171 7.33128 11.1668 7.79527 10.9841 8.34285L10.6521 9.33844L10.4294 9.427C10.0911 9.56152 9.30976 9.95664 8.93365 10.1834L8.59817 10.3856L8.51173 10.3355C8.46419 10.3078 8.16357 10.1305 7.84374 9.94139L7.26217 9.5975L7.27612 9.52268C7.29862 9.40196 7.55486 8.7708 7.6941 8.49317C7.80996 8.26213 7.84615 8.21384 8.06529 7.99784C8.19883 7.8662 8.38192 7.6994 8.47216 7.62716C8.89502 7.28864 9.54683 6.91407 9.99456 6.75229L10.1809 6.68497L10.4278 6.78839C10.5635 6.84528 10.7328 6.92411 10.804 6.96358ZM14.6955 7.07014C15.1454 7.31234 15.5956 7.65433 15.9901 8.05365C16.3054 8.37272 16.5113 8.63004 16.7383 8.98867C16.9084 9.2572 17.1214 9.65232 17.1049 9.66873C17.1007 9.67302 17.0235 9.62886 16.9335 9.57057C16.7425 9.44687 16.1099 9.1283 15.9751 9.08791C15.8942 9.06368 15.7699 8.9334 15.0018 8.06795C14.0686 7.01653 14.076 7.0267 14.1198 6.85212L14.1334 6.79786L14.3148 6.88037C14.4146 6.92577 14.5859 7.01116 14.6955 7.07014ZM14.5118 8.09148C14.9272 8.55883 15.3345 9.01731 15.4171 9.11035L15.5671 9.27954L15.4922 9.50883C15.404 9.77888 15.0031 10.8062 14.9731 10.8391C14.9443 10.8707 12.3666 11.1336 12.3499 11.1066C12.3181 11.0556 11.3381 9.95437 11.1652 9.77543L10.9747 9.57835L11.3345 8.49957C11.5324 7.90626 11.7037 7.41137 11.7153 7.39982C11.7586 7.3565 12.9453 7.25044 13.4466 7.24509L13.7565 7.24179L14.5118 8.09148ZM7.69032 10.2918C8.04298 10.4996 8.34458 10.6818 8.36052 10.6967C8.38025 10.715 8.3972 10.8848 8.41351 11.2271C8.43813 11.744 8.49734 12.2816 8.57436 12.6871L8.61803 12.9171L8.11503 13.7068C7.83839 14.1411 7.59825 14.5109 7.58137 14.5286C7.55564 14.5555 7.51595 14.5369 7.33418 14.4123C7.21508 14.3308 7.0273 14.1843 6.9169 14.0868L6.71618 13.9095L6.64108 13.6756C6.37562 12.8487 6.31843 11.8646 6.48305 10.957C6.50942 10.8118 6.54727 10.6986 6.60468 10.5937C6.68346 10.4497 7.02859 9.91394 7.04258 9.91394C7.04617 9.91394 7.33765 10.084 7.69032 10.2918ZM15.2435 11.6032C15.5386 12.0557 15.75 12.4123 15.9236 12.7505L16.0618 13.0197L15.4136 14.2282L14.7653 15.4367L14.5018 15.479C13.9369 15.5698 13.271 15.633 12.8786 15.6332L12.6204 15.6333L11.9878 14.5405C11.6399 13.9395 11.352 13.4339 11.348 13.417C11.344 13.4 11.4665 13.1508 11.6203 12.8631C11.774 12.5754 11.9971 12.1527 12.1159 11.9239C12.2932 11.5826 12.3411 11.5076 12.3827 11.5066C12.4107 11.5059 12.9662 11.4491 13.6172 11.3803C14.2683 11.3116 14.8487 11.2541 14.907 11.2527L15.0131 11.25L15.2435 11.6032ZM17.566 12.7171C17.4173 13.9245 16.8655 15.0599 16.0019 15.935C15.7094 16.2314 15.3084 16.5629 15.295 16.5195C15.2897 16.5026 15.2681 16.3886 15.2469 16.2662C15.2257 16.1437 15.1823 15.9509 15.1506 15.8377L15.0928 15.6318L15.7639 14.3799L16.435 13.1279L16.6728 13.011C16.9554 12.872 17.3378 12.6467 17.4848 12.5326C17.5428 12.4875 17.592 12.4521 17.5942 12.4539C17.5963 12.4557 17.5836 12.5741 17.566 12.7171ZM9.22929 13.3229C9.60569 13.4172 10.1432 13.524 10.6591 13.6071C10.8615 13.6397 11.0388 13.6791 11.0531 13.6947C11.0674 13.7102 11.2429 14.0077 11.4432 14.3558C11.6434 14.7039 11.9181 15.1801 12.0536 15.4141L12.2999 15.8396L11.9682 16.2952C11.7858 16.5458 11.6097 16.7844 11.5769 16.8255L11.5172 16.9003L10.1822 16.6634C8.89919 16.4358 8.84511 16.4241 8.79343 16.3639C8.69946 16.2546 8.49616 15.9806 8.33818 15.7505C8.18111 15.5217 7.82756 14.9217 7.82756 14.8839C7.82756 14.8472 8.86197 13.2424 8.88564 13.2424C8.89804 13.2424 9.05267 13.2786 9.22929 13.3229ZM10.3928 17.0872C11.2616 17.241 11.4926 17.2895 11.5883 17.3386C11.6535 17.3721 11.8157 17.4436 11.9487 17.4974L12.1905 17.5953L12.0606 17.6088C11.92 17.6233 11.4589 17.5957 11.1853 17.5565C10.689 17.4852 10.0607 17.2959 9.60443 17.0801C9.32884 16.9497 9.17116 16.8575 9.26912 16.8839C9.2949 16.8909 9.80057 16.9824 10.3928 17.0872Z" fill="white"/>
</svg>
