<svg width="24" height="24" viewBox="0 0 24 24" fill="none" xmlns="http://www.w3.org/2000/svg">
<circle cx="12" cy="12" r="12" fill="#404070"/>
<path fill-rule="evenodd" clip-rule="evenodd" d="M12.907 6.11967C12.9594 6.08899 13.06 6.04773 13.1307 6.02799C13.3005 5.98052 13.5488 5.99456 13.7241 6.06155C13.9893 6.16287 14.2302 6.46823 14.2766 6.76189C14.2867 6.82538 14.2868 7.65697 14.2769 8.60986C14.2671 9.56275 14.2583 10.5285 14.2574 10.756L14.2559 11.1695L14.4024 11.1792C14.7975 11.2052 15.139 11.5331 15.4506 12.1855C15.5998 12.498 15.6481 12.6991 15.6329 12.9457C15.6038 13.4203 15.2647 14.0389 14.7178 14.6153C14.5564 14.7854 14.3913 14.9726 14.3509 15.0314C14.2606 15.1626 14.1717 15.3934 14.1513 15.5495C14.1429 15.6137 14.1315 15.6886 14.126 15.7158C14.118 15.7549 14.1314 15.7697 14.1893 15.7864C14.2298 15.798 14.285 15.8371 14.3121 15.8734C14.3599 15.9373 14.3616 15.9675 14.3688 16.8348C14.3766 17.7949 14.3697 17.8685 14.2639 17.9518C14.2029 17.9998 14.1918 18 11.3667 18C8.65996 18 8.44633 18.0049 8.39284 17.9148C8.38542 17.9023 8.38109 17.888 8.37361 17.8716C8.35339 17.8272 8.34558 17.552 8.34558 16.8836C8.34558 15.8505 8.34608 15.8471 8.4985 15.792C8.58045 15.7623 8.58131 15.7606 8.56717 15.6555C8.54712 15.5067 8.45678 15.1259 8.3317 14.6627C8.25901 14.3935 8.21261 14.2307 8.1822 14.0648C8.12415 13.7484 8.12434 13.4212 8.11117 12.3242C8.10082 11.4623 8.07148 10.3458 8.04151 9.67397C8.01304 9.03545 7.99493 8.45235 8.00126 8.37821C8.02497 8.10057 8.22923 7.79896 8.47934 7.67224C8.91642 7.45074 9.48303 7.64055 9.70384 8.08244C9.78499 8.24485 9.79262 8.30194 9.82374 8.9805C9.83671 9.26339 9.84989 9.49746 9.85306 9.5006C9.8562 9.50374 9.92201 9.48491 9.99926 9.45874C10.2707 9.36682 10.7047 9.43453 10.8839 9.59674C10.9016 9.61276 10.9118 9.62441 10.9217 9.62409C10.9396 9.6235 10.9562 9.58305 11.0145 9.45646C11.2342 8.97972 11.8144 8.75166 12.2751 8.96096C12.3261 8.98411 12.3745 9.00674 12.3827 9.01122C12.3909 9.0157 12.405 8.67323 12.414 8.25023C12.4423 6.92055 12.457 6.70035 12.5271 6.5472C12.5969 6.3947 12.7699 6.20004 12.907 6.11967ZM13.7687 6.70126C13.7395 6.64645 13.6729 6.5734 13.6207 6.5389C13.384 6.38227 13.0666 6.48129 12.9559 6.74634C12.9227 6.8258 12.8828 8.08047 12.8205 10.9991L12.8145 11.2805L12.9664 11.2968C13.1085 11.3121 13.6104 11.2845 13.7279 11.255L13.7806 11.2418L13.7953 9.8774C13.8269 6.94747 13.8287 6.81937 13.7776 6.71801C13.7748 6.7125 13.7718 6.70707 13.7687 6.70126ZM9.30507 8.34444C9.27113 8.2388 9.19938 8.15517 9.09973 8.1051C8.90917 8.00934 8.73163 8.03213 8.5907 8.17044C8.54611 8.2142 8.49791 8.28909 8.48361 8.33686C8.46379 8.403 8.47226 8.781 8.51907 9.92248C8.56248 10.9809 8.58047 11.7315 8.58033 12.4773C8.58021 13.0804 8.59074 13.6181 8.60491 13.731C8.61856 13.8398 8.67747 14.1139 8.73587 14.3402C8.95371 15.1844 8.99663 15.3665 9.02498 15.5667L9.05404 15.7719C10.5843 15.7719 12.1142 15.7856 13.6443 15.7698L13.6575 15.6829C13.7543 15.0447 13.847 14.8596 14.3218 14.3558C14.6538 14.0037 14.8843 13.6863 15.0151 13.4016C15.2261 12.9422 15.2243 12.7768 15.0033 12.3347C14.8663 12.0605 14.6953 11.8183 14.573 11.725C14.4494 11.6307 14.3135 11.6264 13.8672 11.7031C13.446 11.7754 12.9954 11.789 12.6756 11.7391C12.4498 11.7039 12.4239 11.7207 12.408 11.9132C12.3934 12.089 12.4488 12.2271 12.5912 12.3695C12.7591 12.5373 12.8702 12.5812 13.2547 12.6317C13.6079 12.678 13.677 12.7059 13.7356 12.8254C13.8077 12.9724 13.6526 13.1613 13.4819 13.1344C13.4367 13.1272 13.2943 13.1097 13.1653 13.0954C13.0363 13.0811 12.8696 13.0505 12.7948 13.0273L12.6588 12.9852L12.4993 13.0649C12.2245 13.2024 11.9229 13.5189 11.7635 13.837C11.68 14.0036 11.6094 14.246 11.5909 14.4297C11.5727 14.6099 11.5381 14.6765 11.4418 14.7163C11.3532 14.753 11.2499 14.7285 11.1805 14.6545C11.1309 14.6015 11.1253 14.5753 11.1291 14.4153C11.1346 14.1787 11.2248 13.8742 11.3725 13.5932C11.4362 13.472 11.4883 13.3659 11.4883 13.3575C11.4883 13.349 11.4435 13.319 11.3887 13.2909C11.3338 13.2627 11.2493 13.2059 11.2008 13.1646L11.1125 13.0895L11.0366 13.1626C10.9948 13.2028 10.9026 13.2654 10.8317 13.3018C10.7132 13.3625 10.6815 13.3679 10.4447 13.3679C10.2135 13.3679 10.1727 13.3613 10.0518 13.3047C9.78624 13.1802 9.57445 12.9202 9.52063 12.6526C9.50637 12.5816 9.47869 12.112 9.45915 11.6089C9.37076 9.33368 9.32735 8.41374 9.30507 8.34444ZM8.81465 16.2409V17.5309H13.9048L13.8923 16.2527L8.81465 16.2409ZM12.3298 9.64897C12.2707 9.51162 12.1571 9.40461 12.0343 9.37048C11.9231 9.33962 11.8765 9.34107 11.7543 9.37928C11.6062 9.42562 11.5207 9.49842 11.4559 9.63349L11.3972 9.75606L11.3745 11.1205C11.3593 12.0317 11.3596 12.5158 11.3753 12.5777C11.4209 12.7575 11.6269 12.934 11.7911 12.934C11.8386 12.934 11.9097 12.8972 12.0124 12.8195C12.0956 12.7565 12.1768 12.7006 12.1927 12.6953C12.2115 12.689 12.1848 12.6318 12.1166 12.5322C11.814 12.0902 11.8988 11.5074 12.299 11.278C12.3418 11.2535 12.3454 11.2089 12.362 10.5085C12.3793 9.78188 12.3786 9.76239 12.3298 9.64897ZM10.652 10.0212C10.6154 9.98637 10.5462 9.9415 10.4982 9.92147C10.2792 9.83 10.0151 9.91031 9.9237 10.0961L9.87182 10.2017L9.91772 11.3509C9.94298 11.983 9.97452 12.5392 9.98782 12.587C10.0418 12.7807 10.2253 12.9105 10.4449 12.9105C10.5952 12.9105 10.6831 12.8724 10.7696 12.7696C10.8901 12.6264 10.8911 12.6052 10.8396 11.3666C10.797 10.3432 10.7916 10.1827 10.7112 10.0819C10.6949 10.0614 10.6754 10.0434 10.652 10.0212Z" fill="white"/>
</svg>
