<svg width="24" height="24" viewBox="0 0 24 24" fill="none" xmlns="http://www.w3.org/2000/svg">
<path d="M12.0568 0.0942896C12.4362 -0.025535 12.8499 -0.0323404 13.2317 0.0806787C13.7127 0.219947 14.1246 0.555359 14.3862 0.979242C14.3981 1.00282 14.41 1.02615 14.4219 1.04973C14.4518 1.09591 14.4749 1.14598 14.4958 1.19677C14.566 1.36958 14.6195 1.55041 14.6423 1.73611C14.6778 1.98718 14.6589 2.24165 14.6642 2.49443C16.0688 2.49759 17.4733 2.49491 18.8779 2.49589C19.04 2.49686 19.2024 2.492 19.3642 2.50293C19.4029 2.51606 19.4435 2.52165 19.4843 2.52773C19.5171 2.5372 19.5502 2.54498 19.5842 2.55252C19.6151 2.56467 19.6462 2.57634 19.6775 2.58825C19.7188 2.60186 19.7589 2.61936 19.7978 2.63929C19.8233 2.65095 19.8494 2.66262 19.8761 2.67331C19.887 2.68012 19.9089 2.69349 19.9198 2.70005C20.169 2.85196 20.3858 3.06754 20.5097 3.33393C20.516 3.34608 20.5287 3.37014 20.5347 3.3823C20.5474 3.41535 20.5605 3.44841 20.5724 3.48195C20.5846 3.51306 20.596 3.54465 20.6081 3.57625C20.6137 3.61004 20.622 3.64358 20.6349 3.6759C20.6388 3.71941 20.6419 3.7634 20.6446 3.80739L20.6606 3.80691C20.6721 4.37881 20.6631 4.95095 20.666 5.5231C20.666 10.7565 20.666 15.9901 20.666 21.2238C20.6628 21.7223 20.6728 22.221 20.6597 22.7195L20.6436 22.7185C20.641 22.7545 20.6383 22.791 20.6351 22.8277C20.6227 22.859 20.6137 22.8911 20.6094 22.9254C20.5962 22.9565 20.5831 22.9873 20.5705 23.0194C20.5564 23.0714 20.5318 23.1196 20.5092 23.1687C20.2676 23.6701 19.7252 24.0079 19.1679 23.9994C14.8339 24.0001 10.4996 24.0001 6.16562 23.9997C5.69313 24.0079 5.23013 23.7666 4.95549 23.3845C4.91733 23.3301 4.88087 23.2744 4.84661 23.2178C4.83275 23.1842 4.8172 23.1517 4.79873 23.1208C4.7856 23.0872 4.77296 23.0539 4.76178 23.0202C4.74939 22.9888 4.73796 22.9582 4.72557 22.9276C4.70248 22.8483 4.69397 22.7662 4.67404 22.6865C4.6597 22.1267 4.67137 21.5665 4.66772 21.0065C4.66772 15.6187 4.66772 10.231 4.66772 4.84328C4.6704 4.48235 4.6614 4.12117 4.6738 3.76024L4.68984 3.75976C4.69251 3.72354 4.69543 3.68733 4.69883 3.65111C4.71293 3.61198 4.7246 3.57163 4.73748 3.53202C4.75036 3.48948 4.7681 3.44865 4.78609 3.4083C4.79362 3.39153 4.80116 3.37476 4.80869 3.35799C4.94309 3.06609 5.18274 2.83276 5.45884 2.67283C5.4846 2.66189 5.51036 2.65071 5.53613 2.63977C5.57477 2.61936 5.61463 2.60161 5.65595 2.58752C5.68682 2.57561 5.71793 2.56394 5.74879 2.55154C5.80761 2.53915 5.86594 2.52359 5.92597 2.51582C6.00326 2.49078 6.08565 2.49977 6.16537 2.49637C7.66667 2.49467 9.16821 2.4971 10.6695 2.49516C10.6712 2.28078 10.6676 2.06641 10.67 1.85204C10.7154 1.0558 11.3007 0.333453 12.0568 0.0942896ZM12.1885 1.11681C11.9722 1.22861 11.8091 1.42767 11.7234 1.6542C11.7073 1.71204 11.6925 1.77062 11.676 1.82846C11.6645 1.97381 11.6706 2.11988 11.6692 2.26572C11.6713 2.84005 11.6696 3.41389 11.6687 3.98798C12.3341 3.98871 12.9993 3.98822 13.6646 3.98822C13.6607 3.27268 13.6716 2.55665 13.6587 1.8411L13.6449 1.84013C13.641 1.76892 13.6211 1.70086 13.5958 1.63475C13.5178 1.41309 13.353 1.22594 13.1457 1.11657C12.8506 0.961985 12.4836 0.962714 12.1885 1.11681ZM6.04409 3.50893C6.01906 3.51597 5.99427 3.52302 5.96924 3.53007C5.83167 3.58767 5.72497 3.70774 5.67952 3.84944C5.67102 3.88809 5.6647 3.92722 5.6647 3.96684C5.6647 9.83265 5.6647 15.6987 5.6647 21.5645C5.66907 21.9128 5.65546 22.2618 5.67199 22.6099C5.68098 22.6347 5.68827 22.6604 5.69484 22.6867C5.74369 22.8133 5.84455 22.9215 5.9741 22.9667C6.08079 23.01 6.19794 22.9961 6.31047 22.998C10.6051 22.9978 14.8997 22.998 19.1943 22.9978C19.3812 22.9985 19.557 22.878 19.6299 22.7069C19.6377 22.6818 19.6457 22.657 19.6544 22.6325C19.6763 22.5455 19.6671 22.4548 19.669 22.3664C19.669 16.2497 19.669 10.1331 19.669 4.01642C19.6685 3.96756 19.6651 3.91871 19.6537 3.87107C19.645 3.84628 19.6367 3.82149 19.6289 3.79646C19.5684 3.65476 19.442 3.53809 19.2886 3.50747C19.25 3.49434 19.2087 3.49191 19.1683 3.49264C17.6668 3.49459 16.1653 3.49094 14.6637 3.49434C14.6586 3.87132 14.6756 4.24926 14.6542 4.62551C14.6112 4.74339 14.5395 4.85082 14.4362 4.92397C14.4034 4.94002 14.3704 4.95533 14.3376 4.97064C14.3118 4.97817 14.286 4.9862 14.2608 4.9947C13.2232 5.00029 12.1856 4.99519 11.1481 4.99738C10.9291 5.00175 10.7429 4.82943 10.679 4.62818C10.6581 4.25096 10.6748 3.87229 10.6697 3.49434C9.16796 3.49094 7.66594 3.49459 6.16416 3.49264C6.12333 3.49143 6.08274 3.49556 6.04409 3.50893Z" fill="white"/>
<path d="M12.1845 1.84629C12.2494 1.65525 12.4283 1.51063 12.6305 1.49678C12.8487 1.47879 13.0687 1.62001 13.1394 1.8283C13.1642 1.93938 13.1781 2.06601 13.1297 2.17174L13.1324 2.19191C13.0767 2.2935 12.9987 2.38125 12.8988 2.44128C12.786 2.49402 12.6575 2.51347 12.5357 2.48187C12.3843 2.4335 12.2535 2.31757 12.1986 2.16712C12.1626 2.06406 12.1721 1.9525 12.1845 1.84629Z" fill="white"/>
<path d="M11.9701 6.57747C12.462 6.47004 13.0067 6.4433 13.4661 6.68198C13.5898 6.7374 13.6884 6.83243 13.801 6.90437C14.0277 6.96368 14.2562 7.04145 14.4446 7.18534C14.7114 7.38002 14.8867 7.6763 14.9832 7.9879C15.0896 8.32039 15.0916 8.67476 15.0638 9.01965C15.0281 9.26732 14.9681 9.51062 14.9015 9.75172C14.8808 9.81297 14.911 9.87058 14.9457 9.91894C15.0466 10.1416 15.0507 10.3961 14.9963 10.6316C14.9562 10.8212 14.8862 11.0083 14.7651 11.1617C14.7348 11.1991 14.69 11.2219 14.6426 11.229C14.6208 11.2465 14.5853 11.2567 14.5829 11.29C14.5607 11.3678 14.5464 11.4477 14.5262 11.5262C14.5185 11.5581 14.5114 11.5902 14.5041 11.6223C14.4917 11.6541 14.4803 11.6864 14.4694 11.719C14.4455 11.7863 14.4137 11.8502 14.3826 11.9146C14.3235 12.0128 14.2805 12.1251 14.1913 12.2017C14.1906 12.3823 14.1911 12.5629 14.1988 12.7432C14.2489 12.811 14.3102 12.8696 14.3794 12.9177C14.4735 12.97 14.5683 13.0213 14.6687 13.0616C15.0271 13.2108 15.3954 13.3372 15.7432 13.5117C15.7816 13.5319 15.82 13.5518 15.8586 13.572C16.2224 13.7623 16.5566 14.0226 16.7938 14.361C17.024 14.6998 17.154 15.1052 17.1686 15.514C17.1684 15.7682 16.9443 15.9904 16.692 15.9984C14.0173 15.9999 11.3423 15.9982 8.6676 15.9991C8.40779 16.004 8.1645 15.7777 8.16669 15.515C8.17373 15.1523 8.28262 14.7938 8.4649 14.4813C8.69677 14.0819 9.07057 13.784 9.47549 13.573C9.85464 13.3649 10.2661 13.2288 10.6635 13.0616C10.7089 13.0402 10.7551 13.0208 10.8015 13.0013C10.8215 12.9906 10.8414 12.9799 10.8616 12.9697C10.9675 12.9146 11.0655 12.8419 11.1367 12.7447C11.1418 12.5694 11.1596 12.3949 11.1571 12.2197C11.0864 12.1217 11.0142 12.0243 10.961 11.9154C10.8594 11.727 10.8054 11.5187 10.7571 11.3116C10.7534 11.2805 10.7367 11.2567 10.7114 11.2397C10.6594 11.2224 10.601 11.2071 10.5673 11.1612C10.3966 10.9395 10.3252 10.6573 10.3048 10.3829C10.2904 10.1892 10.3395 9.99769 10.4304 9.82756C10.3706 9.49774 10.305 9.16548 10.3026 8.82837C10.28 8.3639 10.3755 7.88897 10.6078 7.48356C10.9063 7.00354 11.4274 6.69972 11.9701 6.57747ZM11.8566 7.63766C11.6639 7.71981 11.519 7.88338 11.4344 8.07224C11.3939 8.16727 11.362 8.26522 11.3399 8.36609C11.3324 8.4147 11.327 8.46379 11.3153 8.51192C11.2983 8.7066 11.3027 8.90274 11.3146 9.09767C11.3416 9.37694 11.4075 9.65013 11.4641 9.92429C11.466 9.95492 11.467 9.98603 11.4665 10.0171C11.4471 10.1353 11.3931 10.2466 11.3071 10.3304C11.319 10.3924 11.3321 10.4544 11.3537 10.5139C11.483 10.5635 11.5798 10.6719 11.635 10.7968C11.642 10.8219 11.649 10.8469 11.6563 10.8722C11.6685 10.9206 11.6719 10.9704 11.6768 11.02C11.6867 11.0504 11.6962 11.081 11.7054 11.1121C11.7166 11.1439 11.7271 11.176 11.7382 11.2081C11.7519 11.2499 11.7684 11.2905 11.7871 11.3306C11.8457 11.4414 11.8938 11.5702 12.0012 11.6434C12.0501 11.6947 12.0941 11.7516 12.1191 11.8189C12.1296 11.8592 12.1395 11.8998 12.1514 11.9402C12.1599 12.2428 12.1599 12.5461 12.1507 12.8487L12.1364 12.8516C12.1376 12.9129 12.1368 12.9753 12.1159 13.0341C12.0571 13.1822 11.9784 13.3231 11.8724 13.4432C11.6184 13.7293 11.2672 13.9004 10.9177 14.0401C10.4491 14.247 9.93776 14.3918 9.5382 14.7258C9.44754 14.789 9.42737 14.901 9.38921 14.9973C11.5754 14.9953 13.7616 14.9999 15.9478 14.9948C15.9072 14.9188 15.8999 14.8237 15.8355 14.7618C15.4965 14.4557 15.0624 14.2936 14.6434 14.1305C14.456 14.0533 14.2703 13.9726 14.0863 13.8877C13.7728 13.7344 13.4753 13.5185 13.3003 13.2094C13.2821 13.1664 13.2629 13.1236 13.2415 13.0823C13.214 13.0137 13.2271 12.9374 13.2058 12.8672C13.1987 12.7405 13.1956 12.6134 13.196 12.4868L13.1802 12.4885C13.1819 12.3018 13.18 12.1149 13.1802 11.928L13.1948 11.9266C13.1977 11.8896 13.2026 11.8529 13.2172 11.8186C13.2293 11.7929 13.2408 11.7669 13.2522 11.7409C13.2954 11.6796 13.3462 11.6223 13.4104 11.5821C13.4284 11.5566 13.4466 11.5311 13.4636 11.5051C13.47 11.4927 13.4826 11.4679 13.4889 11.4553C13.5256 11.3739 13.5618 11.2919 13.5939 11.2083C13.6051 11.176 13.6165 11.1439 13.6284 11.1118C13.6367 11.0798 13.6449 11.0479 13.6564 11.0168C13.661 10.9718 13.6646 10.9271 13.6671 10.8824L13.679 10.8805C13.6841 10.8343 13.6982 10.79 13.7164 10.7478C13.7847 10.644 13.8744 10.5509 13.994 10.5088C14.0008 10.4748 14.0081 10.4408 14.0205 10.4085C14.0224 10.3883 14.026 10.3482 14.028 10.328C13.9944 10.2925 13.9621 10.2563 13.9337 10.2169C13.9276 10.2048 13.9157 10.1807 13.9096 10.1686C13.8664 10.0692 13.8404 9.95783 13.8707 9.85089C13.8795 9.81881 13.8877 9.78672 13.897 9.75513C13.9048 9.73034 13.913 9.70579 13.9213 9.68124C13.9475 9.58426 13.9701 9.48631 13.994 9.3886C14.001 9.34753 14.0078 9.30645 14.02 9.26684C14.0256 9.21847 14.0292 9.16962 14.0455 9.12344C14.0508 9.05805 14.0513 8.99146 14.07 8.92802C14.0771 8.78073 14.0807 8.63296 14.0703 8.48591C14.0506 8.40546 14.0431 8.32282 14.0214 8.2431C14.0076 8.21053 13.9927 8.17845 13.9777 8.1471C13.9774 8.14151 13.9772 8.13033 13.9769 8.12474C13.9325 8.06203 13.8904 7.9947 13.8246 7.95193C13.6977 7.85252 13.5237 7.87804 13.3854 7.80512C13.3005 7.76502 13.2335 7.69356 13.189 7.61165C12.9513 7.49013 12.6725 7.48745 12.4122 7.51273C12.2224 7.52634 12.0306 7.55745 11.8566 7.63766Z" fill="white"/>
<path d="M8.62157 17.9392C8.64539 17.6903 8.8843 17.4903 9.13172 17.4976C11.4978 17.4995 13.8636 17.4961 16.2296 17.4993C16.4537 17.528 16.6494 17.7151 16.6705 17.9429C16.705 18.1845 16.532 18.4224 16.3004 18.4856C15.92 18.5038 15.5384 18.4888 15.1576 18.4936C13.1325 18.4941 11.1074 18.4927 9.08263 18.4944C9.03062 18.4958 8.98152 18.4788 8.93316 18.4628C8.72535 18.3857 8.59362 18.1572 8.62157 17.9392Z" fill="white"/>
<path d="M9.03787 19.5076C9.04881 19.501 9.06023 19.4952 9.07165 19.4898C11.4448 19.4915 13.8179 19.492 16.1907 19.4896L16.189 19.5051C16.2425 19.5059 16.2972 19.5071 16.348 19.527C16.3732 19.5382 16.3985 19.5499 16.4248 19.5603C16.5514 19.6466 16.6542 19.7786 16.669 19.9354C16.7004 20.1456 16.5798 20.3541 16.3973 20.4555C16.3917 20.4562 16.3808 20.4574 16.3752 20.4579C16.3285 20.4771 16.2792 20.4881 16.2308 20.5009C13.8307 20.5041 11.4307 20.5039 9.03082 20.5009C8.99947 20.4881 8.96812 20.4757 8.93676 20.464C8.76371 20.4066 8.63952 20.2365 8.6208 20.0571C8.59334 19.8542 8.70708 19.6417 8.89156 19.5528C8.92145 19.5389 8.95183 19.5258 8.98148 19.5117C8.99558 19.5105 9.02377 19.5086 9.03787 19.5076Z" fill="white"/>
</svg>
