<svg width="23" height="23" viewBox="0 0 23 23" fill="none" xmlns="http://www.w3.org/2000/svg">
<path d="M11.8556 0.362291C12.1292 0.349233 12.4031 0.321667 12.6773 0.338787C12.8603 0.354456 13.0314 0.46472 13.1135 0.621121C13.259 0.903164 13.4102 1.18289 13.5557 1.46522C13.7863 1.49075 14.0151 1.52964 14.2392 1.58709C14.3164 1.61263 14.3954 1.63236 14.4741 1.65325C14.8755 1.79137 15.264 1.97911 15.5809 2.25506C15.8496 2.48458 16.0756 2.75734 16.2705 3.04635C16.3343 3.1511 16.3956 3.2573 16.4569 3.3635C16.4764 3.40151 16.4956 3.43952 16.5158 3.47754C16.6076 3.66789 16.6911 3.8623 16.7558 4.06281C16.8464 4.30423 16.9062 4.55493 16.9553 4.8068C16.962 4.8657 16.9696 4.9249 16.9833 4.98322C17.0379 5.4089 17.069 5.83806 17.0428 6.26692C17.0221 6.37226 17.0212 6.47962 17.0111 6.58611C16.9876 6.72046 16.9769 6.85684 16.9455 6.99031C16.8995 7.25059 16.8189 7.50565 16.7094 7.74823C16.6951 7.78392 16.6795 7.81961 16.6741 7.85792C16.7137 7.94381 16.786 8.01229 16.8263 8.09847C16.8866 8.22614 16.9257 8.36281 16.9446 8.5018C16.9785 8.75889 16.9785 9.02265 16.9428 9.27945C16.9117 9.60734 16.8333 9.9332 16.6969 10.2364C16.6067 10.4256 16.5045 10.6282 16.3111 10.7407C16.1906 10.7822 16.0714 10.8263 15.9546 10.8754C15.9039 11.0889 15.8448 11.3005 15.7807 11.5108C15.7212 11.7221 15.6377 11.9261 15.5526 12.1289C15.4855 12.2865 15.4104 12.4411 15.3247 12.5903C15.164 12.8566 15.0249 13.15 14.7657 13.3447C14.7623 13.7829 14.7977 14.2193 14.8065 14.6568C14.9331 14.6696 15.0591 14.7053 15.1634 14.7767C15.7761 15.191 16.3169 15.6983 16.7762 16.2638C16.8125 16.3027 16.8424 16.3584 16.9031 16.3662C17.009 16.3839 17.116 16.3981 17.2206 16.4225C17.4585 16.4753 17.6903 16.5487 17.9246 16.6132C18.1765 16.6814 18.4144 16.7867 18.6566 16.8801C18.8243 16.9477 18.9841 17.0313 19.1467 17.1099C20.4689 17.777 21.6105 18.8242 22.2199 20.1373C22.2958 20.3198 22.373 20.502 22.4316 20.6906C22.4551 20.7655 22.4785 20.8406 22.5036 20.9155C22.5682 21.2042 22.6329 21.4952 22.6445 21.7915C22.6564 21.9775 22.7055 22.1812 22.603 22.353C22.5051 22.5404 22.2876 22.6536 22.0698 22.6466C19.0915 22.6469 16.1132 22.6466 13.1348 22.6466C13.0116 22.6475 12.8878 22.64 12.7661 22.6608C12.6444 22.6809 12.5245 22.6426 12.4031 22.6463C11.7827 22.6492 11.1621 22.6429 10.5417 22.6495C10.4005 22.6783 10.2584 22.6591 10.1168 22.6469C7.12721 22.6466 4.13728 22.6469 1.14765 22.6469C0.991795 22.6449 0.830755 22.6603 0.681304 22.6072C0.474818 22.5268 0.327197 22.3216 0.333907 22.1078C0.322927 21.5214 0.469023 20.9399 0.696859 20.3972C0.768839 20.2153 0.86949 20.0456 0.95794 19.8703C1.61949 18.7001 2.67327 17.7503 3.89236 17.1123C4.23518 16.9239 4.59752 16.7681 4.96627 16.632C5.17886 16.5624 5.38687 16.4797 5.60433 16.424C5.65222 16.4109 5.70041 16.3996 5.74829 16.3865C5.86419 16.3506 5.99779 16.3465 6.1021 16.2873C6.52422 15.7316 7.03845 15.2389 7.61368 14.826C7.75947 14.7195 7.92509 14.6246 8.11602 14.6284C8.11846 14.5393 8.11846 14.4497 8.13707 14.3623C8.15049 14.0179 8.1819 13.6746 8.18038 13.3296C8.05563 13.224 7.93729 13.1097 7.85189 12.9718C7.54567 12.5134 7.29435 12.0183 7.15313 11.4908C7.09213 11.2575 7.0351 11.0234 6.98965 10.7869C6.97135 10.7785 6.93475 10.7616 6.91645 10.7532C6.86521 10.7358 6.81397 10.7181 6.76273 10.701C6.68251 10.6665 6.60016 10.6279 6.54313 10.5617C6.40496 10.4044 6.30706 10.2196 6.21983 10.0333C6.0838 9.7208 5.99962 9.38739 5.96668 9.0508C5.94258 8.87728 5.97369 8.70318 5.99809 8.53169C6.05177 8.30216 6.16188 8.08686 6.31224 7.90057C6.3281 7.86952 6.37294 7.84196 6.35799 7.80336C6.3278 7.6931 6.27442 7.58951 6.2485 7.4778C6.23416 7.44182 6.22074 7.40583 6.2058 7.37014C6.1207 7.06315 6.03561 6.75412 6.00114 6.43754C5.97949 6.34295 5.98467 6.24516 5.96271 6.15057C5.9496 5.80382 5.92824 5.45358 5.97369 5.10828C6.00724 4.72033 6.09996 4.33789 6.23294 3.97053C6.28571 3.82139 6.35098 3.67688 6.41747 3.53267C6.5535 3.24076 6.73467 2.96974 6.9192 2.70337C7.24311 2.28204 7.6393 1.91324 8.07759 1.59986C8.30299 1.45216 8.52991 1.30592 8.76933 1.17911C8.92488 1.10657 9.07861 1.02968 9.2366 0.961198C9.44827 0.8785 9.66085 0.797833 9.8771 0.726162C10.1482 0.652169 10.4163 0.56744 10.6948 0.520432C11.0758 0.436864 11.4655 0.389567 11.8556 0.362291ZM10.9092 1.59086C10.5874 1.65702 10.2675 1.7345 9.96006 1.84795C9.79353 1.91034 9.63035 1.9794 9.46748 2.0502C9.44064 2.06384 9.4135 2.07777 9.38666 2.09169C9.12588 2.22227 8.87181 2.36648 8.64245 2.54349C8.11663 2.92274 7.70427 3.43256 7.42489 3.99955C7.33918 4.20151 7.24646 4.40172 7.19217 4.61413C6.98904 5.31314 6.9863 6.05539 7.15222 6.76137C7.22572 7.09187 7.34376 7.41164 7.48558 7.72096C7.57739 7.9174 7.53133 8.16956 7.35901 8.31348C7.28062 8.37993 7.22938 8.46785 7.17662 8.55287C7.13422 8.65646 7.09915 8.76382 7.09061 8.87554C7.07322 9.03339 7.12812 9.1866 7.15344 9.34126C7.21962 9.5731 7.2913 9.81742 7.47277 9.99472C7.61978 10.0142 7.77381 10.0539 7.87415 10.1653C8.0718 10.3545 8.02544 10.6427 8.09864 10.8803C8.11236 10.9267 8.12395 10.9737 8.13737 11.0205C8.18678 11.2123 8.26791 11.3945 8.34081 11.579C8.42346 11.7868 8.53814 11.9809 8.64886 12.1759C8.77269 12.3726 8.90292 12.5772 9.10392 12.7113C9.19878 12.7731 9.2491 12.8735 9.29638 12.9695C9.322 13.1221 9.3101 13.2771 9.31102 13.4312C9.30278 13.6613 9.31712 13.8934 9.28448 14.1224C9.27747 14.2677 9.28021 14.4143 9.25764 14.5588C9.25337 14.7041 9.23416 14.8495 9.23904 14.9952C9.25734 15.1052 9.27442 15.2154 9.27991 15.3271C9.44827 15.6391 9.79749 15.8071 10.1165 15.9519C10.3322 16.0456 10.5536 16.128 10.7802 16.1939C10.8943 16.2171 11.0004 16.2774 11.12 16.2708C11.3744 16.2702 11.6287 16.2699 11.8831 16.2708C12.013 16.2786 12.1311 16.2177 12.2561 16.1945C12.4644 16.1089 12.6825 16.0456 12.8856 15.9478C13.1656 15.828 13.4435 15.6777 13.6451 15.4528C13.7348 15.3611 13.739 15.2302 13.7323 15.1124C13.6863 14.4555 13.6192 13.7988 13.6356 13.1398C13.6381 13.1018 13.6451 13.0647 13.6524 13.0276C13.6905 12.9591 13.725 12.8865 13.7863 12.8334C14.048 12.6228 14.2087 12.3271 14.3594 12.0404C14.4445 11.8686 14.5354 11.6995 14.6052 11.5216C14.6836 11.3307 14.7605 11.1388 14.819 10.9418C14.8273 10.9105 14.8358 10.8794 14.8456 10.849C14.877 10.7216 14.9017 10.593 14.9298 10.4651C14.9779 10.2475 15.1951 10.0751 15.4297 10.0734C15.6377 9.9953 15.6977 9.7591 15.7648 9.57687C15.856 9.22403 15.9143 8.84739 15.7893 8.49426C15.5449 8.41301 15.3815 8.16346 15.4178 7.91856C15.4284 7.76564 15.5465 7.65277 15.6133 7.52103C15.6776 7.40932 15.7218 7.2889 15.7633 7.1679C16.0131 6.35978 15.9857 5.49334 15.7835 4.67883C15.731 4.45337 15.641 4.23807 15.551 4.0245C15.3202 3.51526 14.9529 3.04374 14.4442 2.75966C14.2917 2.66942 14.1227 2.6108 13.9537 2.5548C13.8955 2.54145 13.8363 2.53217 13.7787 2.51737C13.5762 2.48197 13.3706 2.45905 13.1647 2.45992C12.9454 2.46862 12.7459 2.32209 12.6541 2.13957C12.5785 1.98259 12.4907 1.8317 12.4104 1.67704C12.3699 1.59522 12.3269 1.51455 12.2839 1.43388C11.8227 1.45913 11.3622 1.50062 10.9092 1.59086ZM7.07902 16.8111C7.07963 16.9161 7.13514 17.0162 7.15161 17.1207C7.16533 17.1668 7.17753 17.2132 7.19156 17.2597C7.26019 17.5443 7.35443 17.8229 7.42489 18.1069C7.49138 18.2866 7.50937 18.4885 7.41147 18.6615C7.36419 18.7236 7.30929 18.781 7.2428 18.8251C6.88229 19.0703 6.52117 19.3143 6.16066 19.5592C6.72247 20.2327 7.2855 20.9053 7.84701 21.5791C8.10474 21.5837 8.36277 21.575 8.6208 21.5843C8.92946 21.5727 9.23873 21.5884 9.54739 21.5753C9.46535 21.3873 9.40374 21.192 9.32901 21.0014C9.31529 20.9642 9.30278 20.9277 9.28936 20.8911C9.21952 20.6874 9.14022 20.4866 9.07373 20.282C9.06305 20.2533 9.05177 20.2249 9.04048 20.197C8.89499 19.7914 8.75774 19.3834 8.61409 18.9772C8.60616 18.9473 8.59823 18.9177 8.58999 18.8884C8.42773 18.4264 8.28072 17.9598 8.13493 17.4935C8.12212 17.4552 8.11084 17.4169 8.09864 17.3792C8.03093 17.1366 7.9562 16.8961 7.88269 16.6552C7.83481 16.4687 7.77899 16.2841 7.73416 16.097C7.48589 16.3073 7.27117 16.5534 7.07902 16.8111ZM15.2393 16.2075C15.1838 16.3929 15.1369 16.5807 15.0795 16.7655C15.0759 16.7823 15.0685 16.8154 15.0652 16.8322C15.0484 16.8761 15.0344 16.921 15.0191 16.9657C14.9642 17.1706 14.8996 17.3734 14.8346 17.5759C14.8312 17.5925 14.8242 17.6258 14.8209 17.6424C14.7419 17.8722 14.6702 18.1038 14.5915 18.3336C14.5875 18.3498 14.5796 18.3826 14.5756 18.3989C14.5015 18.6197 14.4228 18.839 14.3493 19.0602C14.3451 19.0764 14.3368 19.1086 14.3329 19.1249C14.1782 19.5595 14.0349 19.9977 13.8705 20.4289C13.8604 20.4573 13.8513 20.4863 13.8424 20.5156C13.7741 20.71 13.6997 20.9024 13.6323 21.0971C13.6204 21.1256 13.6091 21.1546 13.5984 21.1839C13.5499 21.3153 13.5048 21.4482 13.4535 21.5788C13.7335 21.5837 14.0138 21.5759 14.2938 21.5832C14.497 21.5788 14.7004 21.5777 14.9038 21.584C14.9856 21.5806 15.0673 21.5797 15.1494 21.5803C15.7142 20.9114 16.2666 20.233 16.8366 19.5682C16.5429 19.3445 16.2251 19.1513 15.9228 18.938C15.8027 18.8498 15.6532 18.7828 15.5831 18.6478C15.4983 18.512 15.5099 18.3429 15.5471 18.1952C15.6288 17.9143 15.7157 17.6351 15.7926 17.3528C15.8283 17.2132 15.8713 17.0754 15.914 16.9376C15.7072 16.6996 15.4964 16.4629 15.2601 16.251C15.2549 16.24 15.2445 16.2182 15.2393 16.2075ZM13.4746 16.8636C13.2846 16.9471 13.0927 17.0267 12.8966 17.0972C12.7874 17.1381 12.666 17.1552 12.5645 17.2112C12.5172 17.3046 12.4794 17.4021 12.4361 17.4973C12.3552 17.6996 12.2698 17.9006 12.1814 18.1C12.1411 18.1989 12.0987 18.297 12.0569 18.3954C12.0893 18.5022 12.1259 18.6081 12.1539 18.7163C12.1634 18.7456 12.1732 18.7752 12.1826 18.8054C12.2683 19.0831 12.3543 19.3608 12.4358 19.6396C12.5029 19.8651 12.5794 20.0876 12.6429 20.314C12.6547 20.354 12.6666 20.3949 12.6785 20.4355C12.7243 20.3453 12.756 20.2496 12.7917 20.1555C12.9936 19.59 13.1861 19.0213 13.384 18.4543C13.4465 18.2477 13.5252 18.0457 13.5881 17.8394C13.5981 17.8104 13.6076 17.7814 13.6173 17.7527C13.6979 17.524 13.7653 17.2913 13.8436 17.0618C13.8473 17.0452 13.8546 17.0119 13.858 16.9953C13.9068 16.8543 13.9467 16.711 13.9949 16.5699C13.8296 16.6799 13.6579 16.7823 13.4746 16.8636ZM9.01242 16.5749C9.03133 16.6497 9.0542 16.7246 9.07861 16.798C9.08654 16.8276 9.09416 16.8578 9.10179 16.888C9.16279 17.0827 9.22653 17.2771 9.28601 17.4723C9.4504 17.963 9.60687 18.456 9.78682 18.9418C9.79048 18.958 9.7981 18.9902 9.80176 19.0065C9.9622 19.4403 10.0985 19.8819 10.266 20.3134C10.2788 20.3584 10.2904 20.4045 10.3017 20.4506C10.3944 20.2127 10.46 19.9658 10.5356 19.7229C10.596 19.5195 10.6622 19.3181 10.7198 19.1141C10.7433 19.0396 10.7643 18.9644 10.7897 18.8904C10.8348 18.7241 10.9025 18.5631 10.9339 18.3939C10.8973 18.2639 10.8308 18.1432 10.7793 18.0184C10.7589 17.9703 10.739 17.9227 10.7189 17.8754C10.639 17.6816 10.5554 17.4892 10.4764 17.2953C10.4493 17.1598 10.2812 17.1627 10.1711 17.1233C10.1333 17.1082 10.0952 17.094 10.0574 17.0798C9.86947 17.0148 9.68678 16.9376 9.50774 16.8531C9.3345 16.7739 9.17133 16.6773 9.01242 16.5749ZM5.47379 17.5434C5.43597 17.5571 5.39815 17.571 5.36064 17.5855C5.21515 17.6372 5.07302 17.6975 4.93272 17.7616C4.78083 17.822 4.64175 17.9056 4.49748 17.9804C3.40527 18.5706 2.48234 19.4586 1.92876 20.5359C1.91473 20.5667 1.9007 20.598 1.88667 20.6294C1.79639 20.8151 1.72227 21.0078 1.66036 21.2039C1.65121 21.2335 1.64206 21.264 1.63199 21.2939C1.6082 21.3882 1.58777 21.4833 1.57496 21.58C1.76802 21.582 1.9614 21.5762 2.15477 21.584C2.49027 21.5779 2.82577 21.5779 3.16127 21.584C3.68984 21.5774 4.21871 21.5785 4.74728 21.5835C4.82841 21.5794 4.90985 21.5794 4.99128 21.584C5.46678 21.5745 5.94258 21.5846 6.41838 21.5785C5.97583 21.0553 5.53906 20.5275 5.09895 20.0023C4.99647 19.8767 4.87142 19.76 4.8217 19.6039C4.73599 19.384 4.85677 19.1263 5.05838 19.0036C5.46739 18.7337 5.86816 18.4522 6.28174 18.1894C6.26863 18.1406 6.25704 18.091 6.24575 18.0422C6.23447 18.0054 6.22471 17.9677 6.21434 17.9311C6.20122 17.8919 6.18994 17.8525 6.17743 17.8139C6.13839 17.6624 6.10332 17.5089 6.04537 17.3627C5.85413 17.4204 5.66381 17.4816 5.47379 17.5434ZM16.7695 17.9915C16.7534 18.037 16.7393 18.0832 16.7238 18.1293C16.7222 18.1496 16.721 18.1699 16.7198 18.1905C16.9623 18.3391 17.192 18.5065 17.4299 18.6615C17.6202 18.79 17.8135 18.9145 18.0005 19.0474C18.0765 19.1034 18.125 19.1841 18.1673 19.2644C18.1795 19.312 18.1899 19.3602 18.2043 19.4078C18.2052 19.4574 18.2058 19.5076 18.2067 19.5578C18.1908 19.5935 18.1768 19.6306 18.1612 19.6669C18.0865 19.7937 17.9819 19.9008 17.8892 20.0154C17.4536 20.5357 17.0199 21.0574 16.5823 21.5759C16.6045 21.5791 16.6494 21.5852 16.6719 21.5884C17.0578 21.5724 17.4454 21.5806 17.8318 21.584C18.3705 21.5779 18.9097 21.5779 19.4484 21.584C19.9159 21.5774 20.3838 21.5788 20.8514 21.5832C21.0313 21.5826 21.2128 21.5681 21.3915 21.5942C21.4037 21.4514 21.3394 21.3156 21.3125 21.1772C21.1188 20.4886 20.7409 19.8538 20.2508 19.317C19.7628 18.774 19.1632 18.3269 18.508 17.9801C18.3613 17.9195 18.2247 17.8391 18.0774 17.7799C17.9053 17.7094 17.733 17.6389 17.5534 17.5878C17.5143 17.5733 17.4759 17.5606 17.4375 17.5469C17.4064 17.5388 17.3756 17.5301 17.3454 17.5217C17.2045 17.4811 17.0635 17.4396 16.9175 17.4204C16.8818 17.6137 16.8153 17.8002 16.7695 17.9915Z" fill="white"/>
</svg>
