<svg width="24" height="24" viewBox="0 0 24 24" fill="none" xmlns="http://www.w3.org/2000/svg">
<circle cx="12" cy="12" r="12" fill="#404070"/>
<path fill-rule="evenodd" clip-rule="evenodd" d="M12.0021 7C10.5351 7 9.34589 8.19432 9.34589 9.66759C9.34589 11.1409 10.5351 12.3352 12.0021 12.3352C13.4692 12.3352 14.6584 11.1409 14.6584 9.66759C14.6584 8.19432 13.4692 7 12.0021 7ZM12.0021 7.72383C13.0711 7.72383 13.9376 8.59408 13.9376 9.66759C13.9376 10.7411 13.0711 11.6113 12.0021 11.6113C10.9332 11.6113 10.0666 10.7411 10.0666 9.66759C10.0666 8.59408 10.9332 7.72383 12.0021 7.72383ZM10.915 13.4104C10.5262 13.4374 10.1331 13.4929 9.7454 13.576C8.99709 13.7302 8.39843 14.0381 8.14362 14.5499C8.04751 14.7501 7.99919 14.9644 8.00001 15.1814C7.99972 15.3968 8.04765 15.6113 8.14031 15.8076C8.38497 16.3135 8.9139 16.5998 9.62812 16.7585L9.75606 16.7852C10.1332 16.8703 10.5264 16.9276 10.9222 16.9545C10.9559 16.9644 11.0363 16.9736 11.124 16.9781L11.1961 16.9808C11.2332 16.9816 11.2753 16.9818 11.338 16.9818C11.9069 17.0131 12.4967 17.004 13.0838 16.9541C13.3966 16.9326 13.7115 16.8917 14.0239 16.8318L14.2575 16.7833C15.0288 16.6311 15.6063 16.3418 15.8593 15.8082C16.0469 15.4121 16.0469 14.9523 15.8594 14.5564C15.607 14.0241 15.0368 13.7372 14.2517 13.5754C13.9436 13.5097 13.6306 13.461 13.3153 13.4299L13.0849 13.4104C12.363 13.3468 11.6369 13.3468 10.915 13.4104ZM13.0218 14.1315L13.0281 14.132C13.3899 14.1575 13.7495 14.2083 14.1043 14.284C14.6875 14.4041 15.0833 14.6033 15.2085 14.8674C15.3028 15.0665 15.3028 15.2979 15.2085 15.4972C15.0915 15.7439 14.736 15.9346 14.2222 16.0511L14.1097 16.0749C13.748 16.1556 13.3896 16.2076 13.0288 16.2324C12.469 16.28 11.9125 16.2886 11.3574 16.2585L11.1606 16.2552C11.1059 16.2524 11.0599 16.2471 11.0172 16.2385C10.6794 16.213 10.3753 16.1727 10.0801 16.1142L9.90387 16.0769C9.31885 15.9622 8.91957 15.7621 8.79011 15.4945C8.74481 15.3985 8.72062 15.2902 8.72076 15.1805C8.72036 15.0714 8.74423 14.9655 8.79058 14.8689C8.91646 14.6162 9.33959 14.3985 9.89302 14.2845C10.2504 14.2079 10.6098 14.1572 10.9715 14.132C11.658 14.0715 12.3419 14.0715 13.0218 14.1315Z" fill="white"/>
</svg>
