<svg width="24" height="24" viewBox="0 0 24 24" fill="none" xmlns="http://www.w3.org/2000/svg">
<circle cx="12" cy="12" r="12" fill="#404070"/>
<path fill-rule="evenodd" clip-rule="evenodd" d="M5.1629 9.01223C5.13496 9.02425 5.08925 9.05912 5.06132 9.08975C5.01136 9.14449 5.0104 9.18607 5.00293 11.6285C4.99603 13.8921 4.99905 14.1185 5.03706 14.19C5.06002 14.2332 5.10683 14.2811 5.14108 14.2965C5.18324 14.3154 5.49352 14.3245 6.10029 14.3245C7.13156 14.3245 7.0938 14.3327 7.17082 14.0917L7.21252 13.9612L7.66062 14.4012C8.07893 14.812 8.38459 15.0693 9.23883 15.7298C9.78577 16.1527 10.4414 16.6339 10.5965 16.7262C10.8072 16.8517 11.2146 16.9819 11.4453 16.9975C11.6646 17.0122 11.9149 16.9615 12.0335 16.8782C12.0981 16.8329 12.118 16.8306 12.2228 16.8566C12.5706 16.943 12.9858 16.7598 13.2274 16.4136C13.2981 16.3122 13.3021 16.3104 13.4231 16.3218C13.7708 16.3548 14.1871 16.1511 14.3572 15.8649C14.4155 15.7668 14.4288 15.759 14.5878 15.7301C14.7989 15.6917 14.9259 15.6285 15.083 15.4836C15.2553 15.3247 15.34 15.1385 15.3483 14.9005L15.3549 14.7127L15.5411 14.5822C15.6435 14.5104 15.7387 14.4514 15.7527 14.4511C15.7667 14.4507 15.801 14.5199 15.8289 14.6048C15.9163 14.8708 15.8805 14.8616 16.8656 14.8707C17.8028 14.8794 17.8709 14.8713 17.9505 14.7426C17.9987 14.6647 18 14.5967 18 12.1956C18 9.80756 17.9984 9.72619 17.9513 9.6499C17.871 9.52009 17.7945 9.50907 17.1864 9.53978C16.227 9.58817 15.5024 9.70675 14.7984 9.93053C14.3163 10.0838 14.1998 10.1683 14.224 10.3472L14.2365 10.4397L14.1057 10.3887C14.0339 10.3606 13.9065 10.3121 13.8227 10.2808C13.7389 10.2496 13.3814 10.1034 13.0283 9.95595C12.2774 9.64241 12.0079 9.56593 11.654 9.56593C11.26 9.56593 10.943 9.67424 10.5449 9.94481L10.3654 10.0668H9.29218H8.21898L8.23625 9.90766C8.24966 9.78424 8.24425 9.73082 8.21218 9.66964C8.07659 9.41107 7.3475 9.19829 6.1479 9.06721C5.56742 9.00377 5.22682 8.98476 5.1629 9.01223ZM6.02534 9.59135C6.70284 9.66563 7.29135 9.7732 7.55762 9.87142L7.69216 9.92104L7.67608 10.0378C7.57841 10.7469 7.20213 12.1967 6.72112 13.7171L6.69537 13.7985H6.11324H5.53113V11.6697C5.53113 10.4988 5.53969 9.54098 5.55018 9.54111C5.56066 9.54123 5.77447 9.56382 6.02534 9.59135ZM17.4669 12.1956V14.3245H16.8855H16.3041L16.1971 13.9926C15.9298 13.1632 15.3203 11.514 15.0382 10.8566C14.9497 10.6504 14.8858 10.4745 14.896 10.4655C14.9261 10.4393 15.373 10.3216 15.6892 10.2566C16.2012 10.1514 16.8242 10.0774 17.2574 10.0703L17.4669 10.0668V12.1956ZM11.9638 10.1329C12.0643 10.1554 12.2494 10.2159 12.3751 10.2672C12.5008 10.3186 12.8494 10.4618 13.1497 10.5855C13.45 10.7091 13.8931 10.8825 14.1343 10.9707L14.5729 11.1311L14.7268 11.5194C15.0307 12.2862 15.6063 13.891 15.5839 13.9091C15.579 13.9131 15.4689 13.9861 15.3393 14.0714L15.1037 14.2265L15.0353 14.144C14.7641 13.8168 14.2469 13.3554 13.3148 12.609C12.633 12.0631 12.3507 11.8291 12.1344 11.6304C11.9261 11.4391 11.859 11.3942 11.7814 11.3942C11.7474 11.3942 11.5781 11.4506 11.4052 11.5194C11.2323 11.5883 11.0656 11.6452 11.0347 11.6458C10.9351 11.6477 10.7842 11.7139 10.7421 11.774C10.6579 11.8942 10.4423 12.1023 10.3416 12.1605C10.1721 12.2585 9.98903 12.2835 9.79564 12.2351C9.7059 12.2127 9.61722 12.1749 9.5986 12.1511C9.5133 12.0424 9.66694 11.6192 9.91823 11.2708C10.1562 10.9408 10.7979 10.378 11.1054 10.2296C11.3889 10.0927 11.6524 10.063 11.9638 10.1329ZM9.70839 10.6742C9.04844 11.4709 8.86567 12.1151 9.18964 12.5027C9.3464 12.6903 9.76055 12.8202 10.0941 12.7865C10.4186 12.7537 10.694 12.6121 10.9638 12.3394C11.079 12.2231 11.1521 12.1699 11.2122 12.1587C11.2591 12.1501 11.39 12.1039 11.5032 12.0561L11.7089 11.9693L11.8389 12.0896C11.987 12.2267 12.3128 12.4947 13.1082 13.1335C14.5816 14.3169 14.9575 14.7479 14.7667 15.0351C14.7056 15.127 14.5769 15.2008 14.4775 15.2009C14.3656 15.2011 14.1562 15.0147 13.371 14.2164C12.6882 13.5221 12.6446 13.4898 12.4806 13.5574C12.3257 13.6212 12.2701 13.7951 12.3593 13.9363C12.3855 13.9776 12.7483 14.3541 13.1656 14.7729C13.5828 15.1917 13.9205 15.5467 13.9159 15.5618C13.889 15.6501 13.7318 15.7492 13.5721 15.7785C13.3649 15.8164 13.3389 15.7972 12.6004 15.0618C12.2215 14.6844 11.8799 14.3638 11.8413 14.3493C11.7402 14.3114 11.6086 14.3604 11.5479 14.4585C11.4864 14.5581 11.4862 14.6415 11.5473 14.7404C11.5737 14.7831 11.8722 15.0959 12.2105 15.4353L12.8257 16.0525L12.7562 16.1423C12.6203 16.318 12.4465 16.3821 12.2938 16.3128C12.2335 16.2855 11.9342 16.0078 11.4956 15.5723C10.811 14.8925 10.7913 14.8754 10.6927 14.8754C10.4989 14.8754 10.3675 15.0601 10.4402 15.2302C10.4599 15.2761 10.7305 15.5705 11.0416 15.8844C11.3528 16.1982 11.6003 16.4619 11.5917 16.4704C11.5668 16.495 11.2718 16.4383 11.1091 16.3778C10.9148 16.3056 10.6511 16.127 9.9245 15.5761C8.81549 14.7351 8.33598 14.3327 7.86193 13.8454C7.62054 13.5973 7.41944 13.3843 7.41502 13.3722C7.41058 13.3601 7.48308 13.0888 7.57613 12.7693C7.76118 12.134 7.98235 11.2841 8.07245 10.862L8.12992 10.5928H8.95285H9.77581L9.70839 10.6742Z" fill="white"/>
</svg>
