<svg width="24" height="24" viewBox="0 0 24 24" fill="none" xmlns="http://www.w3.org/2000/svg">
<circle cx="12" cy="12" r="12" fill="#404070"/>
<path d="M16.3535 8.35357C16.5488 8.15831 16.5488 7.84172 16.3535 7.64646C16.1583 7.4512 15.8417 7.4512 15.6464 7.64646L16.3535 8.35357ZM7.72179 15.7782C7.72179 16.0543 7.94565 16.2782 8.22179 16.2782L12.7218 16.2782C12.9979 16.2782 13.2218 16.0543 13.2218 15.7782C13.2218 15.502 12.9979 15.2782 12.7218 15.2782L8.72179 15.2782L8.7218 11.2782C8.72179 11.002 8.49794 10.7782 8.2218 10.7782C7.94565 10.7782 7.72179 11.002 7.7218 11.2782L7.72179 15.7782ZM15.6464 7.64646L7.86824 15.4246L8.57535 16.1317L16.3535 8.35357L15.6464 7.64646Z" fill="white"/>
</svg>
