<svg width="36" height="28" viewBox="0 0 36 28" fill="none" xmlns="http://www.w3.org/2000/svg">
<path fill-rule="evenodd" clip-rule="evenodd" d="M35.99 3.3168C34.7003 3.87732 33.3166 4.25785 31.865 4.42755C33.3479 3.55335 34.4862 2.16492 35.0188 0.514233C33.6299 1.32672 32.0947 1.91295 30.4604 2.23177C29.1498 0.85877 27.2857 0 25.2179 0C21.2548 0 18.0383 3.16768 18.0383 7.07071C18.0383 7.62608 18.101 8.16602 18.2263 8.68026C12.2581 8.38714 6.96866 5.56915 3.42845 1.29073C2.81231 2.33462 2.45724 3.54821 2.45724 4.84408C2.45724 7.29697 3.72608 9.46189 5.65283 10.7269C4.47798 10.6909 3.37101 10.3721 2.39981 9.84242C2.39981 9.87328 2.39981 9.89899 2.39981 9.92984C2.39981 13.3546 4.87482 16.2138 8.15917 16.8617C7.55869 17.0211 6.92166 17.1085 6.26897 17.1085C5.80425 17.1085 5.3552 17.0623 4.91659 16.98C5.83036 19.7877 8.4829 21.8343 11.6211 21.8909C9.1617 23.7884 6.07055 24.9197 2.70266 24.9197C2.12306 24.9197 1.55392 24.8837 0.98999 24.822C4.16469 26.8275 7.93986 28 11.997 28C25.2023 28 32.4237 17.2268 32.4237 7.8832C32.4237 7.57466 32.4185 7.27126 32.4028 6.96786C33.8074 5.97025 35.024 4.7258 35.9848 3.30652L35.99 3.3168Z" fill="white"/>
</svg>
