<svg width="266" height="266" viewBox="0 0 266 266" fill="none" xmlns="http://www.w3.org/2000/svg">
<path d="M112.072 122.772V146.028C112.072 146.292 111.976 146.52 111.784 146.712C111.592 146.904 111.364 147 111.1 147H104.044C103.78 147 103.552 146.904 103.36 146.712C103.168 146.52 103.072 146.292 103.072 146.028V131.484L99.0405 134.58C98.8485 134.724 98.6325 134.796 98.3925 134.796C98.1765 134.796 97.9365 134.628 97.6725 134.292L94.5045 130.188C94.4085 130.02 94.3605 129.864 94.3605 129.72C94.3605 129.288 94.5165 128.976 94.8285 128.784L103.504 122.052C103.744 121.884 104.008 121.8 104.296 121.8H111.1C111.364 121.8 111.592 121.896 111.784 122.088C111.976 122.28 112.072 122.508 112.072 122.772ZM125.591 139.224C125.927 139.656 126.239 139.968 126.527 140.16C126.815 140.328 127.247 140.412 127.823 140.412C128.423 140.412 128.927 140.22 129.335 139.836C129.767 139.428 129.983 138.9 129.983 138.252C129.983 137.604 129.779 137.064 129.371 136.632C128.987 136.2 128.483 135.984 127.859 135.984C127.235 135.984 126.707 136.128 126.275 136.416C125.867 136.704 125.603 136.848 125.483 136.848H118.319C118.103 136.848 117.911 136.776 117.743 136.632C117.599 136.464 117.527 136.272 117.527 136.056V135.876L118.967 123.024C119.063 122.208 119.531 121.8 120.371 121.8H136.463C136.727 121.8 136.955 121.896 137.147 122.088C137.339 122.28 137.435 122.508 137.435 122.772V127.848C137.435 128.112 137.339 128.34 137.147 128.532C136.955 128.724 136.727 128.82 136.463 128.82H125.951L125.663 131.376C126.863 130.56 128.531 130.152 130.667 130.152C132.827 130.152 134.795 130.956 136.571 132.564C138.371 134.148 139.271 136.164 139.271 138.612C139.271 141.036 138.263 143.112 136.247 144.84C134.231 146.568 131.399 147.432 127.751 147.432C124.103 147.432 121.259 146.664 119.219 145.128C117.203 143.568 116.195 141.648 116.195 139.368C116.195 139.152 116.267 138.972 116.411 138.828C116.579 138.66 116.771 138.576 116.987 138.576H124.259C124.811 138.576 125.255 138.792 125.591 139.224ZM162.598 139.008V142.356C162.598 143.076 162.898 143.436 163.498 143.436C164.122 143.436 164.434 143.076 164.434 142.356V139.008C164.434 138.288 164.122 137.928 163.498 137.928C162.898 137.928 162.598 138.288 162.598 139.008ZM169.33 139.008V142.392C169.33 143.976 168.802 145.2 167.746 146.064C166.714 146.928 165.298 147.36 163.498 147.36C161.698 147.36 160.27 146.928 159.214 146.064C158.182 145.2 157.666 143.964 157.666 142.356V139.044C157.666 137.46 158.206 136.236 159.286 135.372C160.366 134.484 161.77 134.04 163.498 134.04C165.226 134.04 166.63 134.484 167.71 135.372C168.79 136.236 169.33 137.448 169.33 139.008ZM147.622 126.408V129.756C147.622 130.476 147.922 130.836 148.522 130.836C149.146 130.836 149.458 130.476 149.458 129.756V126.408C149.458 125.688 149.146 125.328 148.522 125.328C147.922 125.328 147.622 125.688 147.622 126.408ZM154.354 126.408V129.792C154.354 131.376 153.826 132.6 152.77 133.464C151.738 134.328 150.322 134.76 148.522 134.76C146.722 134.76 145.294 134.328 144.238 133.464C143.206 132.6 142.69 131.364 142.69 129.756V126.444C142.69 124.86 143.23 123.636 144.31 122.772C145.39 121.884 146.794 121.44 148.522 121.44C150.25 121.44 151.654 121.884 152.734 122.772C153.814 123.636 154.354 124.848 154.354 126.408ZM163.786 121.8H166.09C166.666 121.8 166.954 122.04 166.954 122.52C166.954 122.664 166.906 122.796 166.81 122.916L149.386 146.316C149.05 146.772 148.618 147 148.09 147H145.786C145.21 147 144.922 146.76 144.922 146.28C144.922 146.136 144.97 146.004 145.066 145.884L162.49 122.484C162.826 122.028 163.258 121.8 163.786 121.8Z" fill="white"/>
<path d="M266.001 133C266.001 206.454 206.454 266 133.001 266C59.5467 266 0.000549316 206.454 0.000549316 133C0.000549316 59.5461 59.5467 0 133.001 0C206.454 0 266.001 59.5461 266.001 133ZM60.1683 133C60.1683 173.224 92.7764 205.832 133.001 205.832C173.225 205.832 205.833 173.224 205.833 133C205.833 92.7759 173.225 60.1678 133.001 60.1678C92.7764 60.1678 60.1683 92.7759 60.1683 133Z" fill="#1D8CCA" fill-opacity="0.13"/>
<path d="M249.325 197.48C239.149 215.837 224.774 231.525 207.373 243.262C189.973 254.999 170.042 262.451 149.209 265.009L142.038 206.608C153.655 205.182 164.768 201.027 174.471 194.482C184.173 187.938 192.189 179.19 197.863 168.954L249.325 197.48Z" fill="#37FB63"/>
</svg>
