<svg width="266" height="266" viewBox="0 0 266 266" fill="none" xmlns="http://www.w3.org/2000/svg">
<path d="M93.8799 129.928C93.8799 127.816 94.7319 126.04 96.4359 124.6C98.1399 123.16 100.804 122.44 104.428 122.44C108.076 122.44 110.74 123.16 112.42 124.6C114.1 126.016 114.94 127.78 114.94 129.892C114.94 131.98 114.232 133.576 112.816 134.68C113.8 135.16 114.58 135.904 115.156 136.912C115.732 137.92 116.02 138.988 116.02 140.116C116.02 141.244 115.804 142.276 115.372 143.212C114.94 144.148 114.28 145.012 113.392 145.804C112.528 146.596 111.328 147.22 109.792 147.676C108.256 148.132 106.48 148.36 104.464 148.36C100.552 148.36 97.6599 147.568 95.7879 145.984C93.9159 144.4 92.9799 142.456 92.9799 140.152C92.9799 139 93.2679 137.932 93.8439 136.948C94.4199 135.964 95.1759 135.208 96.1119 134.68C94.6239 133.6 93.8799 132.016 93.8799 129.928ZM106.264 141.736C106.744 141.352 106.984 140.836 106.984 140.188C106.984 139.54 106.744 139.024 106.264 138.64C105.808 138.256 105.208 138.064 104.464 138.064C103.72 138.064 103.108 138.256 102.628 138.64C102.172 139.024 101.944 139.54 101.944 140.188C101.944 140.836 102.172 141.352 102.628 141.736C103.108 142.12 103.72 142.312 104.464 142.312C105.208 142.312 105.808 142.12 106.264 141.736ZM106.12 131.872C106.552 131.488 106.768 131.02 106.768 130.468C106.768 129.916 106.552 129.46 106.12 129.1C105.712 128.716 105.16 128.524 104.464 128.524C103.768 128.524 103.216 128.716 102.808 129.1C102.4 129.46 102.196 129.916 102.196 130.468C102.196 131.02 102.4 131.488 102.808 131.872C103.216 132.232 103.768 132.412 104.464 132.412C105.16 132.412 105.712 132.232 106.12 131.872ZM129.16 131.728V138.964C129.16 139.66 129.328 140.224 129.664 140.656C130 141.088 130.492 141.304 131.14 141.304C131.788 141.304 132.28 141.088 132.616 140.656C132.952 140.224 133.12 139.66 133.12 138.964V131.728C133.12 130.168 132.46 129.388 131.14 129.388C129.82 129.388 129.16 130.168 129.16 131.728ZM142.48 132.088V138.676C142.48 141.772 141.46 144.16 139.42 145.84C137.404 147.52 134.644 148.36 131.14 148.36C127.636 148.36 124.864 147.52 122.824 145.84C120.808 144.136 119.8 141.724 119.8 138.604V132.16C119.8 129.064 120.844 126.676 122.932 124.996C125.044 123.292 127.78 122.44 131.14 122.44C134.5 122.44 137.224 123.292 139.312 124.996C141.424 126.676 142.48 129.04 142.48 132.088ZM165.645 140.008V143.356C165.645 144.076 165.945 144.436 166.545 144.436C167.169 144.436 167.481 144.076 167.481 143.356V140.008C167.481 139.288 167.169 138.928 166.545 138.928C165.945 138.928 165.645 139.288 165.645 140.008ZM172.377 140.008V143.392C172.377 144.976 171.849 146.2 170.793 147.064C169.761 147.928 168.345 148.36 166.545 148.36C164.745 148.36 163.317 147.928 162.261 147.064C161.229 146.2 160.713 144.964 160.713 143.356V140.044C160.713 138.46 161.253 137.236 162.333 136.372C163.413 135.484 164.817 135.04 166.545 135.04C168.273 135.04 169.677 135.484 170.757 136.372C171.837 137.236 172.377 138.448 172.377 140.008ZM150.669 127.408V130.756C150.669 131.476 150.969 131.836 151.569 131.836C152.193 131.836 152.505 131.476 152.505 130.756V127.408C152.505 126.688 152.193 126.328 151.569 126.328C150.969 126.328 150.669 126.688 150.669 127.408ZM157.401 127.408V130.792C157.401 132.376 156.873 133.6 155.817 134.464C154.785 135.328 153.369 135.76 151.569 135.76C149.769 135.76 148.341 135.328 147.285 134.464C146.253 133.6 145.737 132.364 145.737 130.756V127.444C145.737 125.86 146.277 124.636 147.357 123.772C148.437 122.884 149.841 122.44 151.569 122.44C153.297 122.44 154.701 122.884 155.781 123.772C156.861 124.636 157.401 125.848 157.401 127.408ZM166.833 122.8H169.137C169.713 122.8 170.001 123.04 170.001 123.52C170.001 123.664 169.953 123.796 169.857 123.916L152.433 147.316C152.097 147.772 151.665 148 151.137 148H148.833C148.257 148 147.969 147.76 147.969 147.28C147.969 147.136 148.017 147.004 148.113 146.884L165.537 123.484C165.873 123.028 166.305 122.8 166.833 122.8Z" fill="white"/>
<path d="M266 133C266 206.454 206.454 266 133 266C59.546 266 -0.00012207 206.454 -0.00012207 133C-0.00012207 59.5461 59.546 0 133 0C206.454 0 266 59.5461 266 133ZM60.1677 133C60.1677 173.224 92.7758 205.832 133 205.832C173.224 205.832 205.832 173.224 205.832 133C205.832 92.7759 173.224 60.1678 133 60.1678C92.7758 60.1678 60.1677 92.7759 60.1677 133Z" fill="#1D8CCA" fill-opacity="0.13"/>
<path d="M249.324 197.48C235.708 222.045 214.663 241.669 189.208 253.539C163.753 265.409 135.193 268.916 107.622 263.556C80.0515 258.197 54.885 244.247 35.7298 223.706C16.5747 203.164 4.41416 177.086 0.991239 149.209C-2.43168 121.331 3.05869 93.0856 16.6755 68.5203C30.2922 43.955 51.3363 24.3311 76.7917 12.4611C102.247 0.591049 130.807 -2.91564 158.377 2.44359C185.948 7.80281 211.115 21.7528 230.27 42.2942L187.238 82.4225C176.557 70.9686 162.524 63.19 147.15 60.2017C131.777 57.2134 115.852 59.1688 101.658 65.7875C87.4643 72.4062 75.7301 83.3485 68.1374 97.0461C60.5447 110.744 57.4832 126.493 59.3919 142.038C61.3005 157.582 68.0812 172.124 78.7621 183.578C89.443 195.031 103.476 202.81 118.849 205.798C134.223 208.787 150.148 206.831 164.342 200.213C178.535 193.594 190.27 182.651 197.862 168.954L249.324 197.48Z" fill="#37FB63"/>
</svg>
