<svg width="46" height="50" viewBox="0 0 46 50" fill="none" xmlns="http://www.w3.org/2000/svg">
<g filter="url(#filter0_d_669:247)">
<path d="M40.31 15.9575L23.1137 5.93018L5.91753 15.9575L5.91748 34.1239L12.8733 38.18L12.8733 38.184L15.6427 39.8221L15.6432 39.7951L15.7462 39.8552L15.9864 39.9976L15.9864 39.9952L23.1137 44.1513L31.8046 39.0835L33.7407 37.9655V37.9652L33.8695 37.8915V37.8795L40.31 34.1239V15.9575Z" fill="#F7DDC4"/>
</g>
<g filter="url(#filter1_f_669:247)">
<path d="M41 15.4941L23 5L5.00005 15.494L5 34.506L12.2809 38.7508L12.2809 38.755L15.1798 40.4693L15.1803 40.4411L15.2882 40.504L15.5395 40.653L15.5395 40.6505L23 45L32.0971 39.6964L34.1236 38.5264V38.526L34.2585 38.4489V38.4363L41 34.5059V15.4941Z" fill="url(#paint0_linear_669:247)"/>
</g>
<path d="M23.1136 43.6224L6.4281 33.8928V16.266L23.1136 25.9955V43.6224Z" fill="#2764FF"/>
<path d="M21.7511 41.4653L7.71399 33.2686V18.4187L21.7511 26.6154V41.4653Z" fill="#3481DB"/>
<path d="M6.4281 16.266V33.8928L23.1136 43.6224L6.92804 33.6401L6.4281 16.266Z" fill="#F56C5D"/>
<path d="M23.1135 43.6224L39.799 33.8928V16.266L23.1135 25.9955V43.6224Z" fill="#0C45D9"/>
<path d="M23.1135 43.6224L39.799 33.8929V33.577L23.1135 43.3065V43.6224Z" fill="#DB4534"/>
<path d="M34.7192 29.8042L34.7192 29.1821L35.1006 28.9595L35.1006 29.984L34.8399 29.9707C34.7655 29.9669 34.7192 29.903 34.7192 29.8042Z" fill="#516069"/>
<path d="M36.1598 28.9632L36.1598 28.3411L35.7784 28.5637L35.7783 29.5882L36.0391 29.2706C36.1135 29.1799 36.1598 29.062 36.1598 28.9632Z" fill="#516069"/>
<path d="M35.0513 28.8704L35.8659 28.3948L35.8659 29.6025L35.4976 30.036C35.4698 30.0687 35.4369 30.0879 35.4092 30.0875L35.0512 30.0822L35.0513 28.8704Z" fill="#84A0B3"/>
<path d="M35.4261 26.6486L34.7286 27.1411C34.6373 27.2056 34.568 27.3359 34.568 27.443L34.5679 29.6444C34.5679 29.7324 34.6151 29.7835 34.686 29.7721L35.3836 29.6602C35.4231 29.6539 35.4663 29.6286 35.5058 29.5889L36.2034 28.8864C36.2743 28.815 36.3215 28.7088 36.3215 28.6207L36.3216 26.4193C36.3216 26.3122 36.2523 26.2628 36.161 26.305L35.4635 26.6268C35.4511 26.6326 35.4385 26.6399 35.4261 26.6486Z" fill="#49DDFE"/>
<path d="M37.1466 28.7661L37.1466 28.1599C37.1466 28.0972 37.1901 28.021 37.2439 27.9896L37.6137 27.7737C37.6674 27.7424 37.7109 27.7678 37.7109 27.8305L37.7109 28.2635C37.7109 28.3099 37.6867 28.3657 37.6499 28.4045L37.28 28.7936C37.2161 28.8608 37.1466 28.8465 37.1466 28.7661Z" fill="#8C7A79"/>
<path d="M37.1466 28.7661L37.1466 28.1599C37.1466 28.0972 37.1901 28.021 37.2439 27.9896L37.6137 27.7737C37.6674 27.7424 37.7109 27.7678 37.7109 27.8305L37.7109 28.2635C37.7109 28.3099 37.6867 28.3657 37.6499 28.4045L37.28 28.7936C37.2161 28.8608 37.1466 28.8465 37.1466 28.7661Z" fill="#516069"/>
<path d="M38.4345 28.0144L38.4346 27.4082C38.4346 27.3455 38.391 27.3201 38.3373 27.3514L37.9675 27.5673C37.9138 27.5987 37.8702 27.6749 37.8702 27.7376L37.8702 28.1706C37.8702 28.217 37.8944 28.2446 37.9313 28.2404L38.3011 28.1977C38.365 28.1903 38.4345 28.0948 38.4345 28.0144Z" fill="#8C7A79"/>
<path d="M38.4345 28.0144L38.4346 27.4082C38.4346 27.3455 38.391 27.3201 38.3373 27.3514L37.9675 27.5673C37.9138 27.5987 37.8702 27.6749 37.8702 27.7376L37.8702 28.1706C37.8702 28.217 37.8944 28.2446 37.9313 28.2404L38.3011 28.1977C38.365 28.1903 38.4345 28.0948 38.4345 28.0144Z" fill="#8C685C"/>
<path d="M38.4345 28.0144L38.4346 27.4082C38.4346 27.3455 38.391 27.3201 38.3373 27.3514L37.9675 27.5673C37.9138 27.5987 37.8702 27.6749 37.8702 27.7376L37.8702 28.1706C37.8702 28.217 37.8944 28.2446 37.9313 28.2404L38.3011 28.1977C38.365 28.1903 38.4345 28.0948 38.4345 28.0144Z" fill="#516069"/>
<path d="M37.4654 25.1989C37.4039 25.2376 37.3327 25.284 37.2622 25.3308C37.061 25.4643 36.9075 25.7512 36.9075 25.9867L36.9074 28.077C36.9074 28.3098 37.0576 28.4175 37.2558 28.3269L37.7421 28.1045C37.7701 28.0917 37.7983 28.0752 37.8262 28.0554L38.3125 27.71C38.5108 27.5692 38.661 27.2861 38.661 27.0534L38.6611 24.963C38.6611 24.7276 38.5075 24.6199 38.3063 24.7213C38.2359 24.7568 38.1648 24.7934 38.1033 24.8266C37.8544 24.9609 37.7143 25.0426 37.4654 25.1989Z" fill="#49DDFE"/>
<path fill-rule="evenodd" clip-rule="evenodd" d="M37.2969 32.7943L37.2969 32.265L37.108 32.3753L37.1079 32.7862C37.1079 32.7934 37.1114 32.7979 37.117 32.7978L37.2969 32.7943Z" fill="#516069"/>
<path fill-rule="evenodd" clip-rule="evenodd" d="M37.9851 32.3924L37.9851 31.863L38.174 31.7528L38.174 32.1637C38.174 32.1709 38.1705 32.1795 38.165 32.1858L37.9851 32.3924Z" fill="#516069"/>
<path d="M37.2903 31.0408L38.0003 30.6263L38.0003 32.5191C38.0003 32.5364 37.9859 32.5572 37.9717 32.5603L37.6502 32.6309C37.647 32.6316 37.6435 32.6336 37.6403 32.6367L37.3188 32.9414C37.3046 32.9549 37.2902 32.9509 37.2902 32.9336L37.2903 31.0408Z" fill="#84A0B3"/>
<path d="M37.6422 29.2984L36.9965 29.6752C36.8689 29.7498 36.7654 29.931 36.7654 30.08L36.7653 32.483C36.7653 32.6208 36.8542 32.6845 36.9715 32.6309L37.6172 32.3357C37.6337 32.3281 37.6504 32.3183 37.667 32.3066L38.3126 31.848C38.43 31.7647 38.5189 31.5971 38.5189 31.4593L38.519 29.0564C38.519 28.9073 38.4155 28.8469 38.2878 28.9215L37.6422 29.2984Z" fill="url(#paint1_linear_669:247)"/>
<path d="M37.6422 29.2984L36.9965 29.6752C36.8689 29.7498 36.7654 29.931 36.7654 30.08L36.7653 32.483C36.7653 32.6208 36.8542 32.6845 36.9715 32.6309L37.6172 32.3357C37.6337 32.3281 37.6504 32.3183 37.667 32.3066L38.3126 31.848C38.43 31.7647 38.5189 31.5971 38.5189 31.4593L38.519 29.0564C38.519 28.9073 38.4155 28.8469 38.2878 28.9215L37.6422 29.2984Z" fill="#49DDFE"/>
<path d="M34.8943 34.2309L34.8943 33.7142L35.8508 33.1559L35.8508 33.6665C35.8508 33.7452 35.8147 33.839 35.7562 33.9123L35.4604 34.283C35.4022 34.356 35.3307 34.3976 35.2726 34.3923L34.9882 34.3662C34.9301 34.3609 34.8943 34.3093 34.8943 34.2309Z" fill="#84A0B3"/>
<path fill-rule="evenodd" clip-rule="evenodd" d="M35.1723 33.552L35.1723 34.3831L34.9882 34.3662C34.9301 34.3609 34.8943 34.3093 34.8943 34.2309L34.8943 33.7142L35.1723 33.552Z" fill="#516069"/>
<path fill-rule="evenodd" clip-rule="evenodd" d="M35.1627 34.3824L35.1627 33.5579L35.1721 33.5524L35.1721 34.3833L35.1627 34.3824Z" fill="#B0D2DD"/>
<path fill-rule="evenodd" clip-rule="evenodd" d="M35.5728 33.3129L35.5728 34.144L35.7569 33.9123C35.815 33.8391 35.8508 33.7457 35.8508 33.6673L35.8508 33.1506L35.5728 33.3129Z" fill="#516069"/>
<path fill-rule="evenodd" clip-rule="evenodd" d="M35.582 34.1322L35.582 33.3074L35.5726 33.3129L35.5726 34.1441L35.582 34.1322Z" fill="#B0D2DD"/>
<path d="M35.3728 30.8987L34.8865 31.1826C34.6708 31.3085 34.496 31.6146 34.496 31.8664L34.4959 33.8096C34.4959 34.0153 34.6139 34.1266 34.7839 34.0814L35.2702 33.9519C35.3373 33.934 35.408 33.8927 35.4752 33.8322L35.9615 33.394C36.1315 33.2407 36.2495 32.9916 36.2495 32.7859L36.2496 30.8427C36.2496 30.591 36.0747 30.4889 35.8591 30.6148L35.3728 30.8987Z" fill="#49DDFE"/>
<path d="M33.1273 37.7322V20.1053L30.2858 21.8229L30.106 39.4768L33.1273 37.7322Z" fill="#4D6775"/>
<path d="M33.2524 37.6616V20.0435L30.2745 21.8241V39.3645L33.2524 37.6616Z" fill="#49DDFE"/>
<path d="M13.1296 37.6083V20.1454L15.8168 21.6617L15.9004 39.2513L13.1296 37.6083Z" fill="#4D6775"/>
<path d="M12.8799 37.4915L12.9247 19.8943L15.8444 21.5972L15.5671 39.0809L12.8799 37.4915Z" fill="#49DDFE"/>
<defs>
<filter id="filter0_d_669:247" x="1.90776" y="2.39219" width="42.4119" height="46.2405" filterUnits="userSpaceOnUse" color-interpolation-filters="sRGB">
<feFlood flood-opacity="0" result="BackgroundImageFix"/>
<feColorMatrix in="SourceAlpha" type="matrix" values="0 0 0 0 0 0 0 0 0 0 0 0 0 0 0 0 0 0 127 0" result="hardAlpha"/>
<feOffset dy="0.471731"/>
<feGaussianBlur stdDeviation="2.00486"/>
<feComposite in2="hardAlpha" operator="out"/>
<feColorMatrix type="matrix" values="0 0 0 0 1 0 0 0 0 0.568627 0 0 0 0 0.0313726 0 0 0 0.4 0"/>
<feBlend mode="normal" in2="BackgroundImageFix" result="effect1_dropShadow_669:247"/>
<feBlend mode="normal" in="SourceGraphic" in2="effect1_dropShadow_669:247" result="shape"/>
</filter>
<filter id="filter1_f_669:247" x="0.990283" y="0.990283" width="44.0194" height="48.0194" filterUnits="userSpaceOnUse" color-interpolation-filters="sRGB">
<feFlood flood-opacity="0" result="BackgroundImageFix"/>
<feBlend mode="normal" in="SourceGraphic" in2="BackgroundImageFix" result="shape"/>
<feGaussianBlur stdDeviation="2.00486" result="effect1_foregroundBlur_669:247"/>
</filter>
<linearGradient id="paint0_linear_669:247" x1="3.26006" y1="8.89195" x2="40.3085" y2="8.99971" gradientUnits="userSpaceOnUse">
<stop stop-color="#00C5FF"/>
<stop offset="0.208333" stop-color="#3CE457"/>
<stop offset="0.571698" stop-color="#5BD6F1"/>
<stop offset="0.8125" stop-color="#D660E9"/>
<stop offset="1" stop-color="#184ED9"/>
</linearGradient>
<linearGradient id="paint1_linear_669:247" x1="37.2739" y1="29.8981" x2="38.7394" y2="30.9658" gradientUnits="userSpaceOnUse">
<stop stop-color="#D8ECF1"/>
<stop offset="1" stop-color="#82B3BF"/>
</linearGradient>
</defs>
</svg>
