<svg width="332" height="428" viewBox="0 0 332 428" fill="none" xmlns="http://www.w3.org/2000/svg">
<rect x="0.5" y="0.5" width="331" height="427" fill="#202552" stroke="#264B76"/>
<path opacity="0.6" d="M58.3818 119.299V124.899H57.3418V120.171H56.1578V119.299H58.3818ZM61.8286 124.979C61.3806 124.979 60.9806 124.867 60.6286 124.643C60.2766 124.414 59.9993 124.083 59.7966 123.651C59.594 123.214 59.4926 122.696 59.4926 122.099C59.4926 121.502 59.594 120.987 59.7966 120.555C59.9993 120.118 60.2766 119.787 60.6286 119.563C60.9806 119.334 61.3806 119.219 61.8286 119.219C62.2766 119.219 62.6766 119.334 63.0286 119.563C63.386 119.787 63.666 120.118 63.8686 120.555C64.0713 120.987 64.1726 121.502 64.1726 122.099C64.1726 122.696 64.0713 123.214 63.8686 123.651C63.666 124.083 63.386 124.414 63.0286 124.643C62.6766 124.867 62.2766 124.979 61.8286 124.979ZM61.8286 124.075C62.2286 124.075 62.5433 123.91 62.7726 123.579C63.0073 123.248 63.1246 122.755 63.1246 122.099C63.1246 121.443 63.0073 120.95 62.7726 120.619C62.5433 120.288 62.2286 120.123 61.8286 120.123C61.434 120.123 61.1193 120.288 60.8846 120.619C60.6553 120.95 60.5406 121.443 60.5406 122.099C60.5406 122.755 60.6553 123.248 60.8846 123.579C61.1193 123.91 61.434 124.075 61.8286 124.075ZM67.2114 124.979C66.7634 124.979 66.3634 124.867 66.0114 124.643C65.6594 124.414 65.3821 124.083 65.1794 123.651C64.9768 123.214 64.8754 122.696 64.8754 122.099C64.8754 121.502 64.9768 120.987 65.1794 120.555C65.3821 120.118 65.6594 119.787 66.0114 119.563C66.3634 119.334 66.7634 119.219 67.2114 119.219C67.6594 119.219 68.0594 119.334 68.4114 119.563C68.7688 119.787 69.0488 120.118 69.2514 120.555C69.4541 120.987 69.5554 121.502 69.5554 122.099C69.5554 122.696 69.4541 123.214 69.2514 123.651C69.0488 124.083 68.7688 124.414 68.4114 124.643C68.0594 124.867 67.6594 124.979 67.2114 124.979ZM67.2114 124.075C67.6114 124.075 67.9261 123.91 68.1554 123.579C68.3901 123.248 68.5074 122.755 68.5074 122.099C68.5074 121.443 68.3901 120.95 68.1554 120.619C67.9261 120.288 67.6114 120.123 67.2114 120.123C66.8168 120.123 66.5021 120.288 66.2674 120.619C66.0381 120.95 65.9234 121.443 65.9234 122.099C65.9234 122.755 66.0381 123.248 66.2674 123.579C66.5021 123.91 66.8168 124.075 67.2114 124.075Z" fill="white"/>
<path opacity="0.6" d="M129.16 121.955C129.454 122.088 129.678 122.27 129.832 122.499C129.992 122.723 130.072 122.987 130.072 123.291C130.072 123.632 129.976 123.931 129.784 124.187C129.598 124.443 129.331 124.64 128.984 124.779C128.638 124.912 128.235 124.979 127.776 124.979C127.318 124.979 126.915 124.912 126.568 124.779C126.227 124.64 125.963 124.443 125.776 124.187C125.59 123.931 125.496 123.632 125.496 123.291C125.496 122.987 125.574 122.723 125.728 122.499C125.883 122.27 126.104 122.088 126.392 121.955C126.168 121.832 125.995 121.672 125.872 121.475C125.755 121.272 125.696 121.04 125.696 120.779C125.696 120.464 125.782 120.19 125.952 119.955C126.128 119.72 126.374 119.539 126.688 119.411C127.003 119.283 127.366 119.219 127.776 119.219C128.192 119.219 128.558 119.283 128.872 119.411C129.187 119.539 129.432 119.72 129.608 119.955C129.784 120.19 129.872 120.464 129.872 120.779C129.872 121.04 129.811 121.27 129.688 121.467C129.566 121.664 129.39 121.827 129.16 121.955ZM127.776 120.035C127.451 120.035 127.192 120.104 127 120.243C126.814 120.382 126.72 120.576 126.72 120.827C126.72 121.067 126.814 121.259 127 121.403C127.192 121.542 127.451 121.611 127.776 121.611C128.107 121.611 128.368 121.542 128.56 121.403C128.752 121.259 128.848 121.067 128.848 120.827C128.848 120.576 128.75 120.382 128.552 120.243C128.36 120.104 128.102 120.035 127.776 120.035ZM127.776 124.163C128.16 124.163 128.464 124.083 128.688 123.923C128.912 123.763 129.024 123.542 129.024 123.259C129.024 122.982 128.912 122.763 128.688 122.603C128.464 122.443 128.16 122.363 127.776 122.363C127.392 122.363 127.091 122.443 126.872 122.603C126.654 122.763 126.544 122.982 126.544 123.259C126.544 123.542 126.654 123.763 126.872 123.923C127.091 124.083 127.392 124.163 127.776 124.163ZM133.083 124.979C132.635 124.979 132.235 124.867 131.883 124.643C131.531 124.414 131.254 124.083 131.051 123.651C130.848 123.214 130.747 122.696 130.747 122.099C130.747 121.502 130.848 120.987 131.051 120.555C131.254 120.118 131.531 119.787 131.883 119.563C132.235 119.334 132.635 119.219 133.083 119.219C133.531 119.219 133.931 119.334 134.283 119.563C134.64 119.787 134.92 120.118 135.123 120.555C135.326 120.987 135.427 121.502 135.427 122.099C135.427 122.696 135.326 123.214 135.123 123.651C134.92 124.083 134.64 124.414 134.283 124.643C133.931 124.867 133.531 124.979 133.083 124.979ZM133.083 124.075C133.483 124.075 133.798 123.91 134.027 123.579C134.262 123.248 134.379 122.755 134.379 122.099C134.379 121.443 134.262 120.95 134.027 120.619C133.798 120.288 133.483 120.123 133.083 120.123C132.688 120.123 132.374 120.288 132.139 120.619C131.91 120.95 131.795 121.443 131.795 122.099C131.795 122.755 131.91 123.248 132.139 123.579C132.374 123.91 132.688 124.075 133.083 124.075ZM138.466 124.979C138.018 124.979 137.618 124.867 137.266 124.643C136.914 124.414 136.637 124.083 136.434 123.651C136.231 123.214 136.13 122.696 136.13 122.099C136.13 121.502 136.231 120.987 136.434 120.555C136.637 120.118 136.914 119.787 137.266 119.563C137.618 119.334 138.018 119.219 138.466 119.219C138.914 119.219 139.314 119.334 139.666 119.563C140.023 119.787 140.303 120.118 140.506 120.555C140.709 120.987 140.81 121.502 140.81 122.099C140.81 122.696 140.709 123.214 140.506 123.651C140.303 124.083 140.023 124.414 139.666 124.643C139.314 124.867 138.914 124.979 138.466 124.979ZM138.466 124.075C138.866 124.075 139.181 123.91 139.41 123.579C139.645 123.248 139.762 122.755 139.762 122.099C139.762 121.443 139.645 120.95 139.41 120.619C139.181 120.288 138.866 120.123 138.466 120.123C138.071 120.123 137.757 120.288 137.522 120.619C137.293 120.95 137.178 121.443 137.178 122.099C137.178 122.755 137.293 123.248 137.522 123.579C137.757 123.91 138.071 124.075 138.466 124.075Z" fill="white"/>
<path d="M76.5134 47.8H79.1054C79.98 47.8 80.636 48.0347 81.0734 48.504C81.5107 48.9733 81.7294 49.6613 81.7294 50.568V51.672C81.7294 52.5787 81.5107 53.2667 81.0734 53.736C80.636 54.2053 79.98 54.44 79.1054 54.44H78.2734V59H76.5134V47.8ZM79.1054 52.84C79.3934 52.84 79.6067 52.76 79.7454 52.6C79.8947 52.44 79.9694 52.168 79.9694 51.784V50.456C79.9694 50.072 79.8947 49.8 79.7454 49.64C79.6067 49.48 79.3934 49.4 79.1054 49.4H78.2734V52.84H79.1054ZM82.6853 47.8H84.4453V52.36H86.3333V47.8H88.0933V59H86.3333V53.96H84.4453V59H82.6853V47.8ZM91.02 54.232L88.892 47.8H90.764L91.964 51.912H91.996L93.196 47.8H94.908L92.78 54.232V59H91.02V54.232ZM97.7389 59.16C96.8855 59.16 96.2402 58.92 95.8029 58.44C95.3655 57.9493 95.1469 57.2507 95.1469 56.344V55.704H96.8109V56.472C96.8109 57.1973 97.1149 57.56 97.7229 57.56C98.0215 57.56 98.2455 57.4747 98.3949 57.304C98.5549 57.1227 98.6349 56.8347 98.6349 56.44C98.6349 55.9707 98.5282 55.56 98.3149 55.208C98.1015 54.8453 97.7069 54.4133 97.1309 53.912C96.4055 53.272 95.8989 52.696 95.6109 52.184C95.3229 51.6613 95.1789 51.0747 95.1789 50.424C95.1789 49.5387 95.4029 48.856 95.8509 48.376C96.2989 47.8853 96.9495 47.64 97.8029 47.64C98.6455 47.64 99.2802 47.8853 99.7069 48.376C100.144 48.856 100.363 49.5493 100.363 50.456V50.92H98.6989V50.344C98.6989 49.96 98.6242 49.6827 98.4749 49.512C98.3255 49.3307 98.1069 49.24 97.8189 49.24C97.2322 49.24 96.9389 49.5973 96.9389 50.312C96.9389 50.7173 97.0455 51.096 97.2589 51.448C97.4829 51.8 97.8829 52.2267 98.4589 52.728C99.1949 53.368 99.7015 53.9493 99.9789 54.472C100.256 54.9947 100.395 55.608 100.395 56.312C100.395 57.2293 100.166 57.9333 99.7069 58.424C99.2589 58.9147 98.6029 59.16 97.7389 59.16ZM101.404 47.8H103.164V59H101.404V47.8ZM106.962 59.16C106.119 59.16 105.474 58.92 105.026 58.44C104.589 57.96 104.37 57.2827 104.37 56.408V50.392C104.37 49.5173 104.589 48.84 105.026 48.36C105.474 47.88 106.119 47.64 106.962 47.64C107.805 47.64 108.445 47.88 108.882 48.36C109.33 48.84 109.554 49.5173 109.554 50.392V51.576H107.89V50.28C107.89 49.5867 107.597 49.24 107.01 49.24C106.423 49.24 106.13 49.5867 106.13 50.28V56.536C106.13 57.2187 106.423 57.56 107.01 57.56C107.597 57.56 107.89 57.2187 107.89 56.536V54.824H109.554V56.408C109.554 57.2827 109.33 57.96 108.882 58.44C108.445 58.92 107.805 59.16 106.962 59.16ZM111.967 47.8H114.351L116.175 59H114.415L114.095 56.776V56.808H112.095L111.775 59H110.143L111.967 47.8ZM113.887 55.288L113.103 49.752H113.071L112.303 55.288H113.887ZM117.029 47.8H118.789V57.4H121.685V59H117.029V47.8Z" fill="white"/>
<path d="M89.5575 107.423C90.1095 107.423 90.6055 107.531 91.0455 107.747C91.4855 107.955 91.8295 108.255 92.0775 108.647C92.3255 109.039 92.4495 109.491 92.4495 110.003C92.4495 110.547 92.3135 111.027 92.0415 111.443C91.7695 111.851 91.4015 112.167 90.9375 112.391C90.4735 112.615 89.9535 112.727 89.3775 112.727C88.2255 112.727 87.3295 112.367 86.6895 111.647C86.0575 110.927 85.7415 109.895 85.7415 108.551C85.7415 107.607 85.9135 106.803 86.2575 106.139C86.6015 105.467 87.0815 104.959 87.6975 104.615C88.3215 104.263 89.0415 104.087 89.8575 104.087C90.2895 104.087 90.6935 104.135 91.0695 104.231C91.4535 104.319 91.7855 104.451 92.0655 104.627L91.4895 105.803C91.0735 105.531 90.5415 105.395 89.8935 105.395C89.0855 105.395 88.4535 105.643 87.9975 106.139C87.5415 106.635 87.3135 107.351 87.3135 108.287V108.299C87.5615 108.011 87.8775 107.795 88.2615 107.651C88.6455 107.499 89.0775 107.423 89.5575 107.423ZM89.2935 111.503C89.7815 111.503 90.1775 111.375 90.4815 111.119C90.7855 110.855 90.9375 110.507 90.9375 110.075C90.9375 109.635 90.7855 109.287 90.4815 109.031C90.1775 108.775 89.7695 108.647 89.2575 108.647C88.7535 108.647 88.3415 108.783 88.0215 109.055C87.7095 109.327 87.5535 109.671 87.5535 110.087C87.5535 110.495 87.7055 110.835 88.0095 111.107C88.3215 111.371 88.7495 111.503 89.2935 111.503ZM98.7129 108.191C99.1529 108.391 99.4889 108.663 99.7209 109.007C99.9609 109.343 100.081 109.739 100.081 110.195C100.081 110.707 99.9369 111.155 99.6489 111.539C99.3689 111.923 98.9689 112.219 98.4489 112.427C97.9289 112.627 97.3249 112.727 96.6369 112.727C95.9489 112.727 95.3449 112.627 94.8249 112.427C94.3129 112.219 93.9169 111.923 93.6369 111.539C93.3569 111.155 93.2169 110.707 93.2169 110.195C93.2169 109.739 93.3329 109.343 93.5649 109.007C93.7969 108.663 94.1289 108.391 94.5609 108.191C94.2249 108.007 93.9649 107.767 93.7809 107.471C93.6049 107.167 93.5169 106.819 93.5169 106.427C93.5169 105.955 93.6449 105.543 93.9009 105.191C94.1649 104.839 94.5329 104.567 95.0049 104.375C95.4769 104.183 96.0209 104.087 96.6369 104.087C97.2609 104.087 97.8089 104.183 98.2809 104.375C98.7529 104.567 99.1209 104.839 99.3849 105.191C99.6489 105.543 99.7809 105.955 99.7809 106.427C99.7809 106.819 99.6889 107.163 99.5049 107.459C99.3209 107.755 99.0569 107.999 98.7129 108.191ZM96.6369 105.311C96.1489 105.311 95.7609 105.415 95.4729 105.623C95.1929 105.831 95.0529 106.123 95.0529 106.499C95.0529 106.859 95.1929 107.147 95.4729 107.363C95.7609 107.571 96.1489 107.675 96.6369 107.675C97.1329 107.675 97.5249 107.571 97.8129 107.363C98.1009 107.147 98.2449 106.859 98.2449 106.499C98.2449 106.123 98.0969 105.831 97.8009 105.623C97.5129 105.415 97.1249 105.311 96.6369 105.311ZM96.6369 111.503C97.2129 111.503 97.6689 111.383 98.0049 111.143C98.3409 110.903 98.5089 110.571 98.5089 110.147C98.5089 109.731 98.3409 109.403 98.0049 109.163C97.6689 108.923 97.2129 108.803 96.6369 108.803C96.0609 108.803 95.6089 108.923 95.2809 109.163C94.9529 109.403 94.7889 109.731 94.7889 110.147C94.7889 110.571 94.9529 110.903 95.2809 111.143C95.6089 111.383 96.0609 111.503 96.6369 111.503ZM106.541 108.191C106.981 108.391 107.317 108.663 107.549 109.007C107.789 109.343 107.909 109.739 107.909 110.195C107.909 110.707 107.765 111.155 107.477 111.539C107.197 111.923 106.797 112.219 106.277 112.427C105.757 112.627 105.153 112.727 104.465 112.727C103.777 112.727 103.173 112.627 102.653 112.427C102.141 112.219 101.745 111.923 101.465 111.539C101.185 111.155 101.045 110.707 101.045 110.195C101.045 109.739 101.161 109.343 101.393 109.007C101.625 108.663 101.957 108.391 102.389 108.191C102.053 108.007 101.793 107.767 101.609 107.471C101.433 107.167 101.345 106.819 101.345 106.427C101.345 105.955 101.473 105.543 101.729 105.191C101.993 104.839 102.361 104.567 102.833 104.375C103.305 104.183 103.849 104.087 104.465 104.087C105.089 104.087 105.637 104.183 106.109 104.375C106.581 104.567 106.949 104.839 107.213 105.191C107.477 105.543 107.609 105.955 107.609 106.427C107.609 106.819 107.517 107.163 107.333 107.459C107.149 107.755 106.885 107.999 106.541 108.191ZM104.465 105.311C103.977 105.311 103.589 105.415 103.301 105.623C103.021 105.831 102.881 106.123 102.881 106.499C102.881 106.859 103.021 107.147 103.301 107.363C103.589 107.571 103.977 107.675 104.465 107.675C104.961 107.675 105.353 107.571 105.641 107.363C105.929 107.147 106.073 106.859 106.073 106.499C106.073 106.123 105.925 105.831 105.629 105.623C105.341 105.415 104.953 105.311 104.465 105.311ZM104.465 111.503C105.041 111.503 105.497 111.383 105.833 111.143C106.169 110.903 106.337 110.571 106.337 110.147C106.337 109.731 106.169 109.403 105.833 109.163C105.497 108.923 105.041 108.803 104.465 108.803C103.889 108.803 103.437 108.923 103.109 109.163C102.781 109.403 102.617 109.731 102.617 110.147C102.617 110.571 102.781 110.903 103.109 111.143C103.437 111.383 103.889 111.503 104.465 111.503Z" fill="white"/>
<path d="M139.82 112.893C139.82 101.911 135.457 91.3778 127.691 83.6119C119.926 75.846 109.393 71.4832 98.4101 71.4832C87.4275 71.4832 76.8946 75.846 69.1287 83.6119C61.3628 91.3778 57 101.911 57 112.893L68.6579 112.893C68.6579 105.002 71.7925 97.4349 77.3721 91.8553C82.9517 86.2756 90.5193 83.141 98.4101 83.141C106.301 83.141 113.868 86.2756 119.448 91.8553C125.028 97.4349 128.162 105.002 128.162 112.893H139.82Z" fill="#5E5EAA"/>
<g filter="url(#filter0_d)">
<path d="M57 112.893C57 105.184 59.1522 97.6272 63.2143 91.0746C67.2764 84.522 73.087 79.2335 79.9921 75.8045C86.8971 72.3756 94.6222 70.9423 102.298 71.666C109.973 72.3898 117.294 75.2419 123.437 79.9013L116.391 89.1893C111.978 85.8417 106.718 83.7925 101.203 83.2724C95.6886 82.7524 90.1382 83.7822 85.1771 86.2459C80.2161 88.7095 76.0412 92.5092 73.1227 97.2171C70.2042 101.925 68.6579 107.354 68.6579 112.893H57Z" fill="#3CCF5D"/>
</g>
<path opacity="0.6" d="M192.112 119.299V124.899H191.072V120.171H189.888V119.299H192.112ZM195.559 124.979C195.111 124.979 194.711 124.867 194.359 124.643C194.007 124.414 193.73 124.083 193.527 123.651C193.324 123.214 193.223 122.696 193.223 122.099C193.223 121.502 193.324 120.987 193.527 120.555C193.73 120.118 194.007 119.787 194.359 119.563C194.711 119.334 195.111 119.219 195.559 119.219C196.007 119.219 196.407 119.334 196.759 119.563C197.116 119.787 197.396 120.118 197.599 120.555C197.802 120.987 197.903 121.502 197.903 122.099C197.903 122.696 197.802 123.214 197.599 123.651C197.396 124.083 197.116 124.414 196.759 124.643C196.407 124.867 196.007 124.979 195.559 124.979ZM195.559 124.075C195.959 124.075 196.274 123.91 196.503 123.579C196.738 123.248 196.855 122.755 196.855 122.099C196.855 121.443 196.738 120.95 196.503 120.619C196.274 120.288 195.959 120.123 195.559 120.123C195.164 120.123 194.85 120.288 194.615 120.619C194.386 120.95 194.271 121.443 194.271 122.099C194.271 122.755 194.386 123.248 194.615 123.579C194.85 123.91 195.164 124.075 195.559 124.075ZM200.942 124.979C200.494 124.979 200.094 124.867 199.742 124.643C199.39 124.414 199.112 124.083 198.91 123.651C198.707 123.214 198.606 122.696 198.606 122.099C198.606 121.502 198.707 120.987 198.91 120.555C199.112 120.118 199.39 119.787 199.742 119.563C200.094 119.334 200.494 119.219 200.942 119.219C201.39 119.219 201.79 119.334 202.142 119.563C202.499 119.787 202.779 120.118 202.982 120.555C203.184 120.987 203.286 121.502 203.286 122.099C203.286 122.696 203.184 123.214 202.982 123.651C202.779 124.083 202.499 124.414 202.142 124.643C201.79 124.867 201.39 124.979 200.942 124.979ZM200.942 124.075C201.342 124.075 201.656 123.91 201.886 123.579C202.12 123.248 202.238 122.755 202.238 122.099C202.238 121.443 202.12 120.95 201.886 120.619C201.656 120.288 201.342 120.123 200.942 120.123C200.547 120.123 200.232 120.288 199.998 120.619C199.768 120.95 199.654 121.443 199.654 122.099C199.654 122.755 199.768 123.248 199.998 123.579C200.232 123.91 200.547 124.075 200.942 124.075Z" fill="white"/>
<path opacity="0.6" d="M261.284 121.467C262.073 121.467 262.657 121.622 263.036 121.931C263.415 122.235 263.604 122.651 263.604 123.179C263.604 123.515 263.521 123.819 263.356 124.091C263.191 124.363 262.943 124.579 262.612 124.739C262.281 124.899 261.873 124.979 261.388 124.979C260.988 124.979 260.601 124.923 260.228 124.811C259.855 124.694 259.54 124.534 259.284 124.331L259.724 123.523C259.932 123.694 260.18 123.83 260.468 123.931C260.761 124.027 261.063 124.075 261.372 124.075C261.74 124.075 262.028 124 262.236 123.851C262.449 123.696 262.556 123.486 262.556 123.219C262.556 122.931 262.441 122.715 262.212 122.571C261.988 122.422 261.601 122.347 261.052 122.347H259.7L259.988 119.299H263.276V120.171H260.868L260.748 121.467H261.284ZM266.54 124.979C266.092 124.979 265.692 124.867 265.34 124.643C264.988 124.414 264.711 124.083 264.508 123.651C264.305 123.214 264.204 122.696 264.204 122.099C264.204 121.502 264.305 120.987 264.508 120.555C264.711 120.118 264.988 119.787 265.34 119.563C265.692 119.334 266.092 119.219 266.54 119.219C266.988 119.219 267.388 119.334 267.74 119.563C268.097 119.787 268.377 120.118 268.58 120.555C268.783 120.987 268.884 121.502 268.884 122.099C268.884 122.696 268.783 123.214 268.58 123.651C268.377 124.083 268.097 124.414 267.74 124.643C267.388 124.867 266.988 124.979 266.54 124.979ZM266.54 124.075C266.94 124.075 267.255 123.91 267.484 123.579C267.719 123.248 267.836 122.755 267.836 122.099C267.836 121.443 267.719 120.95 267.484 120.619C267.255 120.288 266.94 120.123 266.54 120.123C266.145 120.123 265.831 120.288 265.596 120.619C265.367 120.95 265.252 121.443 265.252 122.099C265.252 122.755 265.367 123.248 265.596 123.579C265.831 123.91 266.145 124.075 266.54 124.075ZM271.923 124.979C271.475 124.979 271.075 124.867 270.723 124.643C270.371 124.414 270.093 124.083 269.891 123.651C269.688 123.214 269.587 122.696 269.587 122.099C269.587 121.502 269.688 120.987 269.891 120.555C270.093 120.118 270.371 119.787 270.723 119.563C271.075 119.334 271.475 119.219 271.923 119.219C272.371 119.219 272.771 119.334 273.123 119.563C273.48 119.787 273.76 120.118 273.963 120.555C274.165 120.987 274.267 121.502 274.267 122.099C274.267 122.696 274.165 123.214 273.963 123.651C273.76 124.083 273.48 124.414 273.123 124.643C272.771 124.867 272.371 124.979 271.923 124.979ZM271.923 124.075C272.323 124.075 272.637 123.91 272.867 123.579C273.101 123.248 273.219 122.755 273.219 122.099C273.219 121.443 273.101 120.95 272.867 120.619C272.637 120.288 272.323 120.123 271.923 120.123C271.528 120.123 271.213 120.288 270.979 120.619C270.749 120.95 270.635 121.443 270.635 122.099C270.635 122.755 270.749 123.248 270.979 123.579C271.213 123.91 271.528 124.075 271.923 124.075Z" fill="white"/>
<path d="M214.574 47.8H217.086L218.206 55.816H218.238L219.358 47.8H221.87V59H220.206V50.52H220.174L218.894 59H217.422L216.142 50.52H216.11V59H214.574V47.8ZM223.183 47.8H227.983V49.4H224.943V52.36H227.359V53.96H224.943V57.4H227.983V59H223.183V47.8ZM228.996 47.8H231.204L232.916 54.504H232.948V47.8H234.516V59H232.708L230.596 50.824H230.564V59H228.996V47.8ZM237.2 49.4H235.36V47.8H240.8V49.4H238.96V59H237.2V49.4ZM242.278 47.8H244.662L246.486 59H244.726L244.406 56.776V56.808H242.406L242.086 59H240.454L242.278 47.8ZM244.198 55.288L243.414 49.752H243.382L242.614 55.288H244.198ZM247.339 47.8H249.099V57.4H251.995V59H247.339V47.8Z" fill="white"/>
<path d="M224.008 107.675C224.784 107.771 225.376 108.035 225.784 108.467C226.192 108.899 226.396 109.439 226.396 110.087C226.396 110.575 226.272 111.019 226.024 111.419C225.776 111.819 225.4 112.139 224.896 112.379C224.4 112.611 223.792 112.727 223.072 112.727C222.472 112.727 221.892 112.643 221.332 112.475C220.78 112.299 220.308 112.059 219.916 111.755L220.588 110.543C220.892 110.799 221.26 111.003 221.692 111.155C222.132 111.299 222.584 111.371 223.048 111.371C223.6 111.371 224.032 111.259 224.344 111.035C224.664 110.803 224.824 110.491 224.824 110.099C224.824 109.707 224.672 109.403 224.368 109.187C224.072 108.963 223.616 108.851 223 108.851H222.232V107.783L224.14 105.515H220.324V104.207H226.048V105.251L224.008 107.675ZM231.233 107.423C231.785 107.423 232.281 107.531 232.721 107.747C233.161 107.955 233.505 108.255 233.753 108.647C234.001 109.039 234.125 109.491 234.125 110.003C234.125 110.547 233.989 111.027 233.717 111.443C233.445 111.851 233.077 112.167 232.613 112.391C232.149 112.615 231.629 112.727 231.053 112.727C229.901 112.727 229.005 112.367 228.365 111.647C227.733 110.927 227.417 109.895 227.417 108.551C227.417 107.607 227.589 106.803 227.933 106.139C228.277 105.467 228.757 104.959 229.373 104.615C229.997 104.263 230.717 104.087 231.533 104.087C231.965 104.087 232.369 104.135 232.745 104.231C233.129 104.319 233.461 104.451 233.741 104.627L233.165 105.803C232.749 105.531 232.217 105.395 231.569 105.395C230.761 105.395 230.129 105.643 229.673 106.139C229.217 106.635 228.989 107.351 228.989 108.287V108.299C229.237 108.011 229.553 107.795 229.937 107.651C230.321 107.499 230.753 107.423 231.233 107.423ZM230.969 111.503C231.457 111.503 231.853 111.375 232.157 111.119C232.461 110.855 232.613 110.507 232.613 110.075C232.613 109.635 232.461 109.287 232.157 109.031C231.853 108.775 231.445 108.647 230.933 108.647C230.429 108.647 230.017 108.783 229.697 109.055C229.385 109.327 229.229 109.671 229.229 110.087C229.229 110.495 229.381 110.835 229.685 111.107C229.997 111.371 230.425 111.503 230.969 111.503ZM242.428 110.699H240.94V112.607H239.428V110.699H234.82V109.619L238.96 104.207H240.628L236.728 109.379H239.476V107.687H240.94V109.379H242.428V110.699Z" fill="white"/>
<path d="M273.551 112.893C273.551 101.911 269.188 91.3778 261.422 83.6119C253.656 75.846 243.123 71.4832 232.14 71.4832C221.158 71.4832 210.625 75.846 202.859 83.6119C195.093 91.3778 190.73 101.911 190.73 112.893L202.388 112.893C202.388 105.002 205.523 97.4349 211.102 91.8553C216.682 86.2756 224.25 83.141 232.14 83.141C240.031 83.141 247.599 86.2756 253.178 91.8553C258.758 97.4349 261.893 105.002 261.893 112.893H273.551Z" fill="#5E5EAA"/>
<g filter="url(#filter1_d)">
<path d="M190.73 112.893C190.73 105.294 192.821 97.8417 196.774 91.3518C200.727 84.8618 206.39 79.5848 213.142 76.0984C219.894 72.6121 227.475 71.0509 235.056 71.5859C242.636 72.1208 249.923 74.7313 256.118 79.1314L249.368 88.6361C244.917 85.4747 239.681 83.5992 234.235 83.2149C228.789 82.8305 223.342 83.9522 218.491 86.457C213.639 88.9619 209.571 92.7533 206.731 97.4162C203.891 102.079 202.388 107.434 202.388 112.893H190.73Z" fill="#3CCF5D"/>
</g>
<rect x="57" y="224" width="211" height="2" fill="#5758A0"/>
<path d="M57 224H152.757C153.309 224 153.757 224.448 153.757 225C153.757 225.552 153.309 226 152.757 226H57V224Z" fill="#E8EC16"/>
<path d="M57.984 195.2H62.016C63.328 195.2 64.312 195.552 64.968 196.256C65.624 196.96 65.952 197.992 65.952 199.352V207.848C65.952 209.208 65.624 210.24 64.968 210.944C64.312 211.648 63.328 212 62.016 212H57.984V195.2ZM61.968 209.6C62.4 209.6 62.728 209.472 62.952 209.216C63.192 208.96 63.312 208.544 63.312 207.968V199.232C63.312 198.656 63.192 198.24 62.952 197.984C62.728 197.728 62.4 197.6 61.968 197.6H60.624V209.6H61.968ZM67.734 195.2H74.934V197.6H70.374V202.04H73.998V204.44H70.374V209.6H74.934V212H67.734V195.2ZM76.4528 195.2H83.4368V197.6H79.0928V202.28H82.5008V204.68H79.0928V212H76.4528V195.2ZM84.7028 195.2H91.9028V197.6H87.3428V202.04H90.9668V204.44H87.3428V209.6H91.9028V212H84.7028V195.2ZM93.4215 195.2H96.7335L99.3015 205.256H99.3495V195.2H101.702V212H98.9895L95.8215 199.736H95.7735V212H93.4215V195.2ZM107.384 212.24C106.12 212.24 105.152 211.88 104.48 211.16C103.824 210.44 103.496 209.424 103.496 208.112V199.088C103.496 197.776 103.824 196.76 104.48 196.04C105.152 195.32 106.12 194.96 107.384 194.96C108.648 194.96 109.608 195.32 110.264 196.04C110.936 196.76 111.272 197.776 111.272 199.088V200.864H108.776V198.92C108.776 197.88 108.336 197.36 107.456 197.36C106.576 197.36 106.136 197.88 106.136 198.92V208.304C106.136 209.328 106.576 209.84 107.456 209.84C108.336 209.84 108.776 209.328 108.776 208.304V205.736H111.272V208.112C111.272 209.424 110.936 210.44 110.264 211.16C109.608 211.88 108.648 212.24 107.384 212.24ZM112.851 195.2H120.051V197.6H115.491V202.04H119.115V204.44H115.491V209.6H120.051V212H112.851V195.2Z" fill="white"/>
<path d="M255.144 197.6H249.816V195.2H257.736V197.504L253.608 212H250.92L255.144 197.6ZM264.009 208.952H258.969V206.552L263.769 195.2H266.649V206.552H267.897V208.952H266.649V212H264.009V208.952ZM264.009 206.552V200H263.961L261.369 206.552H264.009Z" fill="#E8EC16"/>
<path opacity="0.6" d="M62.894 264.112C61.9047 264.112 61.0133 263.897 60.22 263.468C59.4267 263.029 58.8013 262.427 58.344 261.662C57.896 260.897 57.672 260.043 57.672 259.1C57.672 258.157 57.896 257.303 58.344 256.538C58.8013 255.773 59.4267 255.175 60.22 254.746C61.0133 254.307 61.9047 254.088 62.894 254.088C63.874 254.088 64.7607 254.307 65.554 254.746C66.3473 255.175 66.968 255.773 67.416 256.538C67.864 257.294 68.088 258.148 68.088 259.1C68.088 260.052 67.864 260.911 67.416 261.676C66.968 262.432 66.3473 263.029 65.554 263.468C64.7607 263.897 63.874 264.112 62.894 264.112ZM62.894 262.866C63.6127 262.866 64.2567 262.703 64.826 262.376C65.4047 262.049 65.8573 261.601 66.184 261.032C66.52 260.453 66.688 259.809 66.688 259.1C66.688 258.391 66.52 257.751 66.184 257.182C65.8573 256.603 65.4047 256.151 64.826 255.824C64.2567 255.497 63.6127 255.334 62.894 255.334C62.1753 255.334 61.522 255.497 60.934 255.824C60.3553 256.151 59.898 256.603 59.562 257.182C59.2353 257.751 59.072 258.391 59.072 259.1C59.072 259.809 59.2353 260.453 59.562 261.032C59.898 261.601 60.3553 262.049 60.934 262.376C61.522 262.703 62.1753 262.866 62.894 262.866ZM72.7478 254.634C71.9451 254.634 71.5438 255.068 71.5438 255.936V256.58H73.6998V257.686H71.5718V264H70.2278V257.686H68.9678V256.58H70.2278V255.922C70.2278 255.185 70.4425 254.601 70.8718 254.172C71.3011 253.743 71.9031 253.528 72.6778 253.528C72.9765 253.528 73.2565 253.565 73.5178 253.64C73.7791 253.715 74.0031 253.822 74.1898 253.962L73.7838 254.984C73.4758 254.751 73.1305 254.634 72.7478 254.634ZM77.6834 254.634C76.8807 254.634 76.4794 255.068 76.4794 255.936V256.58H78.6354V257.686H76.5074V264H75.1634V257.686H73.9034V256.58H75.1634V255.922C75.1634 255.185 75.378 254.601 75.8074 254.172C76.2367 253.743 76.8387 253.528 77.6134 253.528C77.912 253.528 78.192 253.565 78.4534 253.64C78.7147 253.715 78.9387 253.822 79.1254 253.962L78.7194 254.984C78.4114 254.751 78.066 254.634 77.6834 254.634ZM82.0309 264.084C81.4242 264.084 80.8409 264.005 80.2809 263.846C79.7209 263.678 79.2822 263.468 78.9649 263.216L79.5249 262.152C79.8516 262.385 80.2482 262.572 80.7149 262.712C81.1816 262.852 81.6529 262.922 82.1289 262.922C83.3049 262.922 83.8929 262.586 83.8929 261.914C83.8929 261.69 83.8136 261.513 83.6549 261.382C83.4962 261.251 83.2956 261.158 83.0529 261.102C82.8196 261.037 82.4836 260.967 82.0449 260.892C81.4476 260.799 80.9576 260.691 80.5749 260.57C80.2016 260.449 79.8796 260.243 79.6089 259.954C79.3382 259.665 79.2029 259.259 79.2029 258.736C79.2029 258.064 79.4829 257.527 80.0429 257.126C80.6029 256.715 81.3542 256.51 82.2969 256.51C82.7916 256.51 83.2862 256.571 83.7809 256.692C84.2756 256.813 84.6816 256.977 84.9989 257.182L84.4249 258.246C83.8182 257.854 83.1042 257.658 82.2829 257.658C81.7136 257.658 81.2796 257.751 80.9809 257.938C80.6822 258.125 80.5329 258.372 80.5329 258.68C80.5329 258.923 80.6169 259.114 80.7849 259.254C80.9529 259.394 81.1582 259.497 81.4009 259.562C81.6529 259.627 82.0029 259.702 82.4509 259.786C83.0482 259.889 83.5289 260.001 83.8929 260.122C84.2662 260.234 84.5836 260.43 84.8449 260.71C85.1062 260.99 85.2369 261.382 85.2369 261.886C85.2369 262.558 84.9476 263.095 84.3689 263.496C83.7996 263.888 83.0202 264.084 82.0309 264.084ZM86.9166 256.58H88.2606V264H86.9166V256.58ZM87.5886 255.152C87.3272 255.152 87.1079 255.068 86.9306 254.9C86.7626 254.732 86.6786 254.527 86.6786 254.284C86.6786 254.041 86.7626 253.836 86.9306 253.668C87.1079 253.491 87.3272 253.402 87.5886 253.402C87.8499 253.402 88.0646 253.486 88.2326 253.654C88.4099 253.813 88.4986 254.013 88.4986 254.256C88.4986 254.508 88.4099 254.723 88.2326 254.9C88.0646 255.068 87.8499 255.152 87.5886 255.152ZM97.8267 253.612V264H96.5387V262.824C96.2401 263.235 95.8621 263.547 95.4047 263.762C94.9474 263.977 94.4434 264.084 93.8927 264.084C93.1741 264.084 92.5301 263.925 91.9607 263.608C91.3914 263.291 90.9434 262.847 90.6167 262.278C90.2994 261.699 90.1407 261.037 90.1407 260.29C90.1407 259.543 90.2994 258.885 90.6167 258.316C90.9434 257.747 91.3914 257.303 91.9607 256.986C92.5301 256.669 93.1741 256.51 93.8927 256.51C94.4247 256.51 94.9147 256.613 95.3627 256.818C95.8107 257.014 96.1841 257.308 96.4827 257.7V253.612H97.8267ZM94.0047 262.908C94.4714 262.908 94.8961 262.801 95.2787 262.586C95.6614 262.362 95.9601 262.054 96.1747 261.662C96.3894 261.261 96.4967 260.803 96.4967 260.29C96.4967 259.777 96.3894 259.324 96.1747 258.932C95.9601 258.531 95.6614 258.223 95.2787 258.008C94.8961 257.793 94.4714 257.686 94.0047 257.686C93.5287 257.686 93.0994 257.793 92.7167 258.008C92.3434 258.223 92.0447 258.531 91.8207 258.932C91.6061 259.324 91.4987 259.777 91.4987 260.29C91.4987 260.803 91.6061 261.261 91.8207 261.662C92.0447 262.054 92.3434 262.362 92.7167 262.586C93.0994 262.801 93.5287 262.908 94.0047 262.908ZM107.076 260.332C107.076 260.435 107.066 260.57 107.048 260.738H101.028C101.112 261.391 101.396 261.919 101.882 262.32C102.376 262.712 102.988 262.908 103.716 262.908C104.602 262.908 105.316 262.609 105.858 262.012L106.6 262.88C106.264 263.272 105.844 263.571 105.34 263.776C104.845 263.981 104.29 264.084 103.674 264.084C102.89 264.084 102.194 263.925 101.588 263.608C100.981 263.281 100.51 262.829 100.174 262.25C99.847 261.671 99.6837 261.018 99.6837 260.29C99.6837 259.571 99.8424 258.923 100.16 258.344C100.486 257.765 100.93 257.317 101.49 257C102.059 256.673 102.698 256.51 103.408 256.51C104.117 256.51 104.747 256.673 105.298 257C105.858 257.317 106.292 257.765 106.6 258.344C106.917 258.923 107.076 259.585 107.076 260.332ZM103.408 257.644C102.764 257.644 102.222 257.84 101.784 258.232C101.354 258.624 101.102 259.137 101.028 259.772H105.788C105.713 259.147 105.456 258.638 105.018 258.246C104.588 257.845 104.052 257.644 103.408 257.644ZM116.874 263.566C116.678 263.734 116.435 263.865 116.146 263.958C115.856 264.042 115.558 264.084 115.25 264.084C114.503 264.084 113.924 263.883 113.514 263.482C113.103 263.081 112.898 262.507 112.898 261.76V257.686H111.638V256.58H112.898V254.956H114.242V256.58H116.37V257.686H114.242V261.704C114.242 262.105 114.34 262.413 114.536 262.628C114.741 262.843 115.03 262.95 115.404 262.95C115.814 262.95 116.164 262.833 116.454 262.6L116.874 263.566ZM119.787 257.826C120.02 257.397 120.365 257.07 120.823 256.846C121.28 256.622 121.835 256.51 122.489 256.51V257.812C122.414 257.803 122.311 257.798 122.181 257.798C121.453 257.798 120.879 258.017 120.459 258.456C120.048 258.885 119.843 259.501 119.843 260.304V264H118.499V256.58H119.787V257.826ZM126.833 256.51C127.86 256.51 128.644 256.762 129.185 257.266C129.736 257.77 130.011 258.521 130.011 259.52V264H128.737V263.02C128.513 263.365 128.191 263.631 127.771 263.818C127.361 263.995 126.871 264.084 126.301 264.084C125.471 264.084 124.803 263.883 124.299 263.482C123.805 263.081 123.557 262.553 123.557 261.9C123.557 261.247 123.795 260.724 124.271 260.332C124.747 259.931 125.503 259.73 126.539 259.73H128.667V259.464C128.667 258.885 128.499 258.442 128.163 258.134C127.827 257.826 127.333 257.672 126.679 257.672C126.241 257.672 125.811 257.747 125.391 257.896C124.971 258.036 124.617 258.227 124.327 258.47L123.767 257.462C124.15 257.154 124.607 256.921 125.139 256.762C125.671 256.594 126.236 256.51 126.833 256.51ZM126.525 263.048C127.039 263.048 127.482 262.936 127.855 262.712C128.229 262.479 128.499 262.152 128.667 261.732V260.696H126.595C125.457 260.696 124.887 261.079 124.887 261.844C124.887 262.217 125.032 262.511 125.321 262.726C125.611 262.941 126.012 263.048 126.525 263.048ZM136.433 256.51C137.151 256.51 137.795 256.669 138.365 256.986C138.934 257.303 139.377 257.747 139.695 258.316C140.021 258.885 140.185 259.543 140.185 260.29C140.185 261.037 140.021 261.699 139.695 262.278C139.377 262.847 138.934 263.291 138.365 263.608C137.795 263.925 137.151 264.084 136.433 264.084C135.901 264.084 135.411 263.981 134.963 263.776C134.524 263.571 134.151 263.272 133.843 262.88V266.716H132.499V256.58H133.787V257.756C134.085 257.345 134.463 257.037 134.921 256.832C135.378 256.617 135.882 256.51 136.433 256.51ZM136.321 262.908C136.797 262.908 137.221 262.801 137.595 262.586C137.977 262.362 138.276 262.054 138.491 261.662C138.715 261.261 138.827 260.803 138.827 260.29C138.827 259.777 138.715 259.324 138.491 258.932C138.276 258.531 137.977 258.223 137.595 258.008C137.221 257.793 136.797 257.686 136.321 257.686C135.854 257.686 135.429 257.798 135.047 258.022C134.673 258.237 134.375 258.54 134.151 258.932C133.936 259.324 133.829 259.777 133.829 260.29C133.829 260.803 133.936 261.261 134.151 261.662C134.365 262.054 134.664 262.362 135.047 262.586C135.429 262.801 135.854 262.908 136.321 262.908Z" fill="white"/>
<path d="M258.008 254.2V255.418L254.2 264H252.254L255.936 255.74H252.086V257.406H250.392V254.2H258.008ZM262.948 264.14C262.164 264.14 261.464 263.944 260.848 263.552C260.232 263.151 259.747 262.572 259.392 261.816C259.037 261.051 258.86 260.145 258.86 259.1C258.86 258.055 259.037 257.154 259.392 256.398C259.747 255.633 260.232 255.054 260.848 254.662C261.464 254.261 262.164 254.06 262.948 254.06C263.732 254.06 264.432 254.261 265.048 254.662C265.673 255.054 266.163 255.633 266.518 256.398C266.873 257.154 267.05 258.055 267.05 259.1C267.05 260.145 266.873 261.051 266.518 261.816C266.163 262.572 265.673 263.151 265.048 263.552C264.432 263.944 263.732 264.14 262.948 264.14ZM262.948 262.558C263.648 262.558 264.199 262.269 264.6 261.69C265.011 261.111 265.216 260.248 265.216 259.1C265.216 257.952 265.011 257.089 264.6 256.51C264.199 255.931 263.648 255.642 262.948 255.642C262.257 255.642 261.707 255.931 261.296 256.51C260.895 257.089 260.694 257.952 260.694 259.1C260.694 260.248 260.895 261.111 261.296 261.69C261.707 262.269 262.257 262.558 262.948 262.558Z" fill="white"/>
<path opacity="0.6" d="M60.416 280.418H57.056V279.2H65.162V280.418H61.802V289H60.416V280.418ZM68.7963 281.51C69.823 281.51 70.607 281.762 71.1483 282.266C71.699 282.77 71.9743 283.521 71.9743 284.52V289H70.7003V288.02C70.4763 288.365 70.1543 288.631 69.7343 288.818C69.3236 288.995 68.8336 289.084 68.2643 289.084C67.4336 289.084 66.7663 288.883 66.2623 288.482C65.7676 288.081 65.5203 287.553 65.5203 286.9C65.5203 286.247 65.7583 285.724 66.2343 285.332C66.7103 284.931 67.4663 284.73 68.5023 284.73H70.6303V284.464C70.6303 283.885 70.4623 283.442 70.1263 283.134C69.7903 282.826 69.2956 282.672 68.6423 282.672C68.2036 282.672 67.7743 282.747 67.3543 282.896C66.9343 283.036 66.5796 283.227 66.2903 283.47L65.7303 282.462C66.113 282.154 66.5703 281.921 67.1023 281.762C67.6343 281.594 68.199 281.51 68.7963 281.51ZM68.4883 288.048C69.0016 288.048 69.445 287.936 69.8183 287.712C70.1916 287.479 70.4623 287.152 70.6303 286.732V285.696H68.5583C67.4196 285.696 66.8503 286.079 66.8503 286.844C66.8503 287.217 66.995 287.511 67.2843 287.726C67.5736 287.941 67.975 288.048 68.4883 288.048ZM77.7365 289.084C76.9805 289.084 76.3038 288.921 75.7065 288.594C75.1185 288.267 74.6565 287.819 74.3205 287.25C73.9845 286.671 73.8165 286.018 73.8165 285.29C73.8165 284.562 73.9845 283.913 74.3205 283.344C74.6565 282.765 75.1185 282.317 75.7065 282C76.3038 281.673 76.9805 281.51 77.7365 281.51C78.4085 281.51 79.0058 281.645 79.5285 281.916C80.0605 282.187 80.4712 282.579 80.7605 283.092L79.7385 283.75C79.5052 283.395 79.2158 283.129 78.8705 282.952C78.5252 282.775 78.1425 282.686 77.7225 282.686C77.2372 282.686 76.7985 282.793 76.4065 283.008C76.0238 283.223 75.7205 283.531 75.4965 283.932C75.2818 284.324 75.1745 284.777 75.1745 285.29C75.1745 285.813 75.2818 286.275 75.4965 286.676C75.7205 287.068 76.0238 287.371 76.4065 287.586C76.7985 287.801 77.2372 287.908 77.7225 287.908C78.1425 287.908 78.5252 287.819 78.8705 287.642C79.2158 287.465 79.5052 287.199 79.7385 286.844L80.7605 287.488C80.4712 288.001 80.0605 288.398 79.5285 288.678C79.0058 288.949 78.4085 289.084 77.7365 289.084ZM85.2889 285.542L83.7489 286.97V289H82.4049V278.612H83.7489V285.276L87.7949 281.58H89.4189L86.2969 284.646L89.7269 289H88.0749L85.2889 285.542ZM91.0318 278.612H92.3758V289H91.0318V278.612ZM101.648 285.332C101.648 285.435 101.639 285.57 101.62 285.738H95.6C95.684 286.391 95.9686 286.919 96.454 287.32C96.9486 287.712 97.56 287.908 98.288 287.908C99.1746 287.908 99.8886 287.609 100.43 287.012L101.172 287.88C100.836 288.272 100.416 288.571 99.912 288.776C99.4173 288.981 98.862 289.084 98.246 289.084C97.462 289.084 96.7666 288.925 96.16 288.608C95.5533 288.281 95.082 287.829 94.746 287.25C94.4193 286.671 94.256 286.018 94.256 285.29C94.256 284.571 94.4146 283.923 94.732 283.344C95.0586 282.765 95.502 282.317 96.062 282C96.6313 281.673 97.2706 281.51 97.98 281.51C98.6893 281.51 99.3193 281.673 99.87 282C100.43 282.317 100.864 282.765 101.172 283.344C101.489 283.923 101.648 284.585 101.648 285.332ZM97.98 282.644C97.336 282.644 96.7946 282.84 96.356 283.232C95.9266 283.624 95.6746 284.137 95.6 284.772H100.36C100.285 284.147 100.029 283.638 99.59 283.246C99.1606 282.845 98.624 282.644 97.98 282.644ZM105.642 289.084C105.036 289.084 104.452 289.005 103.892 288.846C103.332 288.678 102.894 288.468 102.576 288.216L103.136 287.152C103.463 287.385 103.86 287.572 104.326 287.712C104.793 287.852 105.264 287.922 105.74 287.922C106.916 287.922 107.504 287.586 107.504 286.914C107.504 286.69 107.425 286.513 107.266 286.382C107.108 286.251 106.907 286.158 106.664 286.102C106.431 286.037 106.095 285.967 105.656 285.892C105.059 285.799 104.569 285.691 104.186 285.57C103.813 285.449 103.491 285.243 103.22 284.954C102.95 284.665 102.814 284.259 102.814 283.736C102.814 283.064 103.094 282.527 103.654 282.126C104.214 281.715 104.966 281.51 105.908 281.51C106.403 281.51 106.898 281.571 107.392 281.692C107.887 281.813 108.293 281.977 108.61 282.182L108.036 283.246C107.43 282.854 106.716 282.658 105.894 282.658C105.325 282.658 104.891 282.751 104.592 282.938C104.294 283.125 104.144 283.372 104.144 283.68C104.144 283.923 104.228 284.114 104.396 284.254C104.564 284.394 104.77 284.497 105.012 284.562C105.264 284.627 105.614 284.702 106.062 284.786C106.66 284.889 107.14 285.001 107.504 285.122C107.878 285.234 108.195 285.43 108.456 285.71C108.718 285.99 108.848 286.382 108.848 286.886C108.848 287.558 108.559 288.095 107.98 288.496C107.411 288.888 106.632 289.084 105.642 289.084Z" fill="white"/>
<path d="M258.008 279.2V280.418L254.2 289H252.254L255.936 280.74H252.086V282.406H250.392V279.2H258.008ZM262.948 289.14C262.164 289.14 261.464 288.944 260.848 288.552C260.232 288.151 259.747 287.572 259.392 286.816C259.037 286.051 258.86 285.145 258.86 284.1C258.86 283.055 259.037 282.154 259.392 281.398C259.747 280.633 260.232 280.054 260.848 279.662C261.464 279.261 262.164 279.06 262.948 279.06C263.732 279.06 264.432 279.261 265.048 279.662C265.673 280.054 266.163 280.633 266.518 281.398C266.873 282.154 267.05 283.055 267.05 284.1C267.05 285.145 266.873 286.051 266.518 286.816C266.163 287.572 265.673 288.151 265.048 288.552C264.432 288.944 263.732 289.14 262.948 289.14ZM262.948 287.558C263.648 287.558 264.199 287.269 264.6 286.69C265.011 286.111 265.216 285.248 265.216 284.1C265.216 282.952 265.011 282.089 264.6 281.51C264.199 280.931 263.648 280.642 262.948 280.642C262.257 280.642 261.707 280.931 261.296 281.51C260.895 282.089 260.694 282.952 260.694 284.1C260.694 285.248 260.895 286.111 261.296 286.69C261.707 287.269 262.257 287.558 262.948 287.558Z" fill="white"/>
<path opacity="0.6" d="M65.064 308.918C65.6333 309.077 66.0813 309.366 66.408 309.786C66.7347 310.197 66.898 310.719 66.898 311.354C66.898 312.203 66.576 312.857 65.932 313.314C65.2973 313.771 64.3687 314 63.146 314H58.47V304.2H62.866C63.986 304.2 64.8493 304.424 65.456 304.872C66.072 305.32 66.38 305.941 66.38 306.734C66.38 307.247 66.2587 307.691 66.016 308.064C65.7827 308.437 65.4653 308.722 65.064 308.918ZM59.87 305.334V308.47H62.74C63.4587 308.47 64.0093 308.339 64.392 308.078C64.784 307.807 64.98 307.415 64.98 306.902C64.98 306.389 64.784 306.001 64.392 305.74C64.0093 305.469 63.4587 305.334 62.74 305.334H59.87ZM63.09 312.866C63.8833 312.866 64.4807 312.735 64.882 312.474C65.2833 312.213 65.484 311.802 65.484 311.242C65.484 310.15 64.686 309.604 63.09 309.604H59.87V312.866H63.09ZM71.5717 306.51C72.5984 306.51 73.3824 306.762 73.9237 307.266C74.4744 307.77 74.7497 308.521 74.7497 309.52V314H73.4757V313.02C73.2517 313.365 72.9297 313.631 72.5097 313.818C72.099 313.995 71.609 314.084 71.0397 314.084C70.209 314.084 69.5417 313.883 69.0377 313.482C68.543 313.081 68.2957 312.553 68.2957 311.9C68.2957 311.247 68.5337 310.724 69.0097 310.332C69.4857 309.931 70.2417 309.73 71.2777 309.73H73.4057V309.464C73.4057 308.885 73.2377 308.442 72.9017 308.134C72.5657 307.826 72.071 307.672 71.4177 307.672C70.979 307.672 70.5497 307.747 70.1297 307.896C69.7097 308.036 69.355 308.227 69.0657 308.47L68.5057 307.462C68.8884 307.154 69.3457 306.921 69.8777 306.762C70.4097 306.594 70.9744 306.51 71.5717 306.51ZM71.2637 313.048C71.777 313.048 72.2204 312.936 72.5937 312.712C72.967 312.479 73.2377 312.152 73.4057 311.732V310.696H71.3337C70.195 310.696 69.6257 311.079 69.6257 311.844C69.6257 312.217 69.7704 312.511 70.0597 312.726C70.349 312.941 70.7504 313.048 71.2637 313.048ZM77.2369 303.612H78.5809V314H77.2369V303.612ZM81.147 303.612H82.491V314H81.147V303.612ZM91.533 304.634C90.7303 304.634 90.329 305.068 90.329 305.936V306.58H92.485V307.686H90.357V314H89.013V307.686H87.753V306.58H89.013V305.922C89.013 305.185 89.2276 304.601 89.657 304.172C90.0863 303.743 90.6883 303.528 91.463 303.528C91.7616 303.528 92.0416 303.565 92.303 303.64C92.5643 303.715 92.7883 303.822 92.975 303.962L92.569 304.984C92.261 304.751 91.9156 304.634 91.533 304.634ZM96.8211 314.084C96.0838 314.084 95.4211 313.921 94.8331 313.594C94.2451 313.267 93.7831 312.819 93.4471 312.25C93.1205 311.671 92.9571 311.018 92.9571 310.29C92.9571 309.562 93.1205 308.913 93.4471 308.344C93.7831 307.765 94.2451 307.317 94.8331 307C95.4211 306.673 96.0838 306.51 96.8211 306.51C97.5585 306.51 98.2165 306.673 98.7951 307C99.3831 307.317 99.8405 307.765 100.167 308.344C100.503 308.913 100.671 309.562 100.671 310.29C100.671 311.018 100.503 311.671 100.167 312.25C99.8405 312.819 99.3831 313.267 98.7951 313.594C98.2165 313.921 97.5585 314.084 96.8211 314.084ZM96.8211 312.908C97.2971 312.908 97.7218 312.801 98.0951 312.586C98.4778 312.362 98.7765 312.054 98.9911 311.662C99.2058 311.261 99.3131 310.803 99.3131 310.29C99.3131 309.777 99.2058 309.324 98.9911 308.932C98.7765 308.531 98.4778 308.223 98.0951 308.008C97.7218 307.793 97.2971 307.686 96.8211 307.686C96.3451 307.686 95.9158 307.793 95.5331 308.008C95.1598 308.223 94.8611 308.531 94.6371 308.932C94.4225 309.324 94.3151 309.777 94.3151 310.29C94.3151 310.803 94.4225 311.261 94.6371 311.662C94.8611 312.054 95.1598 312.362 95.5331 312.586C95.9158 312.801 96.3451 312.908 96.8211 312.908ZM105.764 314.084C105.008 314.084 104.331 313.921 103.734 313.594C103.146 313.267 102.684 312.819 102.348 312.25C102.012 311.671 101.844 311.018 101.844 310.29C101.844 309.562 102.012 308.913 102.348 308.344C102.684 307.765 103.146 307.317 103.734 307C104.331 306.673 105.008 306.51 105.764 306.51C106.436 306.51 107.033 306.645 107.556 306.916C108.088 307.187 108.499 307.579 108.788 308.092L107.766 308.75C107.533 308.395 107.243 308.129 106.898 307.952C106.553 307.775 106.17 307.686 105.75 307.686C105.265 307.686 104.826 307.793 104.434 308.008C104.051 308.223 103.748 308.531 103.524 308.932C103.309 309.324 103.202 309.777 103.202 310.29C103.202 310.813 103.309 311.275 103.524 311.676C103.748 312.068 104.051 312.371 104.434 312.586C104.826 312.801 105.265 312.908 105.75 312.908C106.17 312.908 106.553 312.819 106.898 312.642C107.243 312.465 107.533 312.199 107.766 311.844L108.788 312.488C108.499 313.001 108.088 313.398 107.556 313.678C107.033 313.949 106.436 314.084 105.764 314.084ZM117.444 306.58V314H116.17V312.88C115.899 313.263 115.54 313.561 115.092 313.776C114.653 313.981 114.173 314.084 113.65 314.084C112.661 314.084 111.881 313.813 111.312 313.272C110.743 312.721 110.458 311.914 110.458 310.85V306.58H111.802V310.696C111.802 311.415 111.975 311.961 112.32 312.334C112.665 312.698 113.16 312.88 113.804 312.88C114.513 312.88 115.073 312.665 115.484 312.236C115.895 311.807 116.1 311.2 116.1 310.416V306.58H117.444ZM122.131 314.084C121.524 314.084 120.941 314.005 120.381 313.846C119.821 313.678 119.382 313.468 119.065 313.216L119.625 312.152C119.951 312.385 120.348 312.572 120.815 312.712C121.281 312.852 121.753 312.922 122.229 312.922C123.405 312.922 123.993 312.586 123.993 311.914C123.993 311.69 123.913 311.513 123.755 311.382C123.596 311.251 123.395 311.158 123.153 311.102C122.919 311.037 122.583 310.967 122.145 310.892C121.547 310.799 121.057 310.691 120.675 310.57C120.301 310.449 119.979 310.243 119.709 309.954C119.438 309.665 119.303 309.259 119.303 308.736C119.303 308.064 119.583 307.527 120.143 307.126C120.703 306.715 121.454 306.51 122.397 306.51C122.891 306.51 123.386 306.571 123.881 306.692C124.375 306.813 124.781 306.977 125.099 307.182L124.525 308.246C123.918 307.854 123.204 307.658 122.383 307.658C121.813 307.658 121.379 307.751 121.081 307.938C120.782 308.125 120.633 308.372 120.633 308.68C120.633 308.923 120.717 309.114 120.885 309.254C121.053 309.394 121.258 309.497 121.501 309.562C121.753 309.627 122.103 309.702 122.551 309.786C123.148 309.889 123.629 310.001 123.993 310.122C124.366 310.234 124.683 310.43 124.945 310.71C125.206 310.99 125.337 311.382 125.337 311.886C125.337 312.558 125.047 313.095 124.469 313.496C123.899 313.888 123.12 314.084 122.131 314.084Z" fill="white"/>
<path d="M258.008 304.2V305.418L254.2 314H252.254L255.936 305.74H252.086V307.406H250.392V304.2H258.008ZM262.948 314.14C262.164 314.14 261.464 313.944 260.848 313.552C260.232 313.151 259.747 312.572 259.392 311.816C259.037 311.051 258.86 310.145 258.86 309.1C258.86 308.055 259.037 307.154 259.392 306.398C259.747 305.633 260.232 305.054 260.848 304.662C261.464 304.261 262.164 304.06 262.948 304.06C263.732 304.06 264.432 304.261 265.048 304.662C265.673 305.054 266.163 305.633 266.518 306.398C266.873 307.154 267.05 308.055 267.05 309.1C267.05 310.145 266.873 311.051 266.518 311.816C266.163 312.572 265.673 313.151 265.048 313.552C264.432 313.944 263.732 314.14 262.948 314.14ZM262.948 312.558C263.648 312.558 264.199 312.269 264.6 311.69C265.011 311.111 265.216 310.248 265.216 309.1C265.216 307.952 265.011 307.089 264.6 306.51C264.199 305.931 263.648 305.642 262.948 305.642C262.257 305.642 261.707 305.931 261.296 306.51C260.895 307.089 260.694 307.952 260.694 309.1C260.694 310.248 260.895 311.111 261.296 311.69C261.707 312.269 262.257 312.558 262.948 312.558Z" fill="white"/>
<path opacity="0.6" d="M58.47 329.2H59.87V339H58.47V329.2ZM66.57 331.51C67.5127 331.51 68.2593 331.785 68.81 332.336C69.37 332.877 69.65 333.675 69.65 334.73V339H68.306V334.884C68.306 334.165 68.1333 333.624 67.788 333.26C67.4427 332.896 66.948 332.714 66.304 332.714C65.576 332.714 65.002 332.929 64.582 333.358C64.162 333.778 63.952 334.385 63.952 335.178V339H62.608V331.58H63.896V332.7C64.1667 332.317 64.5307 332.023 64.988 331.818C65.4547 331.613 65.982 331.51 66.57 331.51ZM76.3093 338.566C76.1133 338.734 75.8706 338.865 75.5813 338.958C75.2919 339.042 74.9933 339.084 74.6853 339.084C73.9386 339.084 73.3599 338.883 72.9493 338.482C72.5386 338.081 72.3333 337.507 72.3333 336.76V332.686H71.0733V331.58H72.3333V329.956H73.6773V331.58H75.8053V332.686H73.6773V336.704C73.6773 337.105 73.7753 337.413 73.9713 337.628C74.1766 337.843 74.4659 337.95 74.8393 337.95C75.2499 337.95 75.5999 337.833 75.8893 337.6L76.3093 338.566ZM84.3941 335.332C84.3941 335.435 84.3847 335.57 84.3661 335.738H78.3461C78.4301 336.391 78.7147 336.919 79.2001 337.32C79.6947 337.712 80.3061 337.908 81.0341 337.908C81.9207 337.908 82.6347 337.609 83.1761 337.012L83.9181 337.88C83.5821 338.272 83.1621 338.571 82.6581 338.776C82.1634 338.981 81.6081 339.084 80.9921 339.084C80.2081 339.084 79.5127 338.925 78.9061 338.608C78.2994 338.281 77.8281 337.829 77.4921 337.25C77.1654 336.671 77.0021 336.018 77.0021 335.29C77.0021 334.571 77.1607 333.923 77.4781 333.344C77.8047 332.765 78.2481 332.317 78.8081 332C79.3774 331.673 80.0167 331.51 80.7261 331.51C81.4354 331.51 82.0654 331.673 82.6161 332C83.1761 332.317 83.6101 332.765 83.9181 333.344C84.2354 333.923 84.3941 334.585 84.3941 335.332ZM80.7261 332.644C80.0821 332.644 79.5407 332.84 79.1021 333.232C78.6727 333.624 78.4207 334.137 78.3461 334.772H83.1061C83.0314 334.147 82.7747 333.638 82.3361 333.246C81.9067 332.845 81.3701 332.644 80.7261 332.644ZM87.5483 332.826C87.7817 332.397 88.127 332.07 88.5843 331.846C89.0417 331.622 89.597 331.51 90.2503 331.51V332.812C90.1757 332.803 90.073 332.798 89.9423 332.798C89.2143 332.798 88.6403 333.017 88.2203 333.456C87.8097 333.885 87.6043 334.501 87.6043 335.304V339H86.2603V331.58H87.5483V332.826ZM95.0725 339.084C94.3165 339.084 93.6398 338.921 93.0425 338.594C92.4545 338.267 91.9925 337.819 91.6565 337.25C91.3205 336.671 91.1525 336.018 91.1525 335.29C91.1525 334.562 91.3205 333.913 91.6565 333.344C91.9925 332.765 92.4545 332.317 93.0425 332C93.6398 331.673 94.3165 331.51 95.0725 331.51C95.7445 331.51 96.3418 331.645 96.8645 331.916C97.3965 332.187 97.8071 332.579 98.0965 333.092L97.0745 333.75C96.8411 333.395 96.5518 333.129 96.2065 332.952C95.8611 332.775 95.4785 332.686 95.0585 332.686C94.5731 332.686 94.1345 332.793 93.7425 333.008C93.3598 333.223 93.0565 333.531 92.8325 333.932C92.6178 334.324 92.5105 334.777 92.5105 335.29C92.5105 335.813 92.6178 336.275 92.8325 336.676C93.0565 337.068 93.3598 337.371 93.7425 337.586C94.1345 337.801 94.5731 337.908 95.0585 337.908C95.4785 337.908 95.8611 337.819 96.2065 337.642C96.5518 337.465 96.8411 337.199 97.0745 336.844L98.0965 337.488C97.8071 338.001 97.3965 338.398 96.8645 338.678C96.3418 338.949 95.7445 339.084 95.0725 339.084ZM106.433 335.332C106.433 335.435 106.424 335.57 106.405 335.738H100.385C100.469 336.391 100.754 336.919 101.239 337.32C101.734 337.712 102.345 337.908 103.073 337.908C103.96 337.908 104.674 337.609 105.215 337.012L105.957 337.88C105.621 338.272 105.201 338.571 104.697 338.776C104.202 338.981 103.647 339.084 103.031 339.084C102.247 339.084 101.552 338.925 100.945 338.608C100.338 338.281 99.8671 337.829 99.5311 337.25C99.2045 336.671 99.0411 336.018 99.0411 335.29C99.0411 334.571 99.1998 333.923 99.5171 333.344C99.8438 332.765 100.287 332.317 100.847 332C101.416 331.673 102.056 331.51 102.765 331.51C103.474 331.51 104.104 331.673 104.655 332C105.215 332.317 105.649 332.765 105.957 333.344C106.274 333.923 106.433 334.585 106.433 335.332ZM102.765 332.644C102.121 332.644 101.58 332.84 101.141 333.232C100.712 333.624 100.46 334.137 100.385 334.772H105.145C105.07 334.147 104.814 333.638 104.375 333.246C103.946 332.845 103.409 332.644 102.765 332.644ZM112.233 331.51C112.952 331.51 113.596 331.669 114.165 331.986C114.735 332.303 115.178 332.747 115.495 333.316C115.822 333.885 115.985 334.543 115.985 335.29C115.985 336.037 115.822 336.699 115.495 337.278C115.178 337.847 114.735 338.291 114.165 338.608C113.596 338.925 112.952 339.084 112.233 339.084C111.701 339.084 111.211 338.981 110.763 338.776C110.325 338.571 109.951 338.272 109.643 337.88V341.716H108.299V331.58H109.587V332.756C109.886 332.345 110.264 332.037 110.721 331.832C111.179 331.617 111.683 331.51 112.233 331.51ZM112.121 337.908C112.597 337.908 113.022 337.801 113.395 337.586C113.778 337.362 114.077 337.054 114.291 336.662C114.515 336.261 114.627 335.803 114.627 335.29C114.627 334.777 114.515 334.324 114.291 333.932C114.077 333.531 113.778 333.223 113.395 333.008C113.022 332.793 112.597 332.686 112.121 332.686C111.655 332.686 111.23 332.798 110.847 333.022C110.474 333.237 110.175 333.54 109.951 333.932C109.737 334.324 109.629 334.777 109.629 335.29C109.629 335.803 109.737 336.261 109.951 336.662C110.166 337.054 110.465 337.362 110.847 337.586C111.23 337.801 111.655 337.908 112.121 337.908ZM122.014 338.566C121.818 338.734 121.576 338.865 121.286 338.958C120.997 339.042 120.698 339.084 120.39 339.084C119.644 339.084 119.065 338.883 118.654 338.482C118.244 338.081 118.038 337.507 118.038 336.76V332.686H116.778V331.58H118.038V329.956H119.382V331.58H121.51V332.686H119.382V336.704C119.382 337.105 119.48 337.413 119.676 337.628C119.882 337.843 120.171 337.95 120.544 337.95C120.955 337.95 121.305 337.833 121.594 337.6L122.014 338.566ZM123.639 331.58H124.983V339H123.639V331.58ZM124.311 330.152C124.05 330.152 123.831 330.068 123.653 329.9C123.485 329.732 123.401 329.527 123.401 329.284C123.401 329.041 123.485 328.836 123.653 328.668C123.831 328.491 124.05 328.402 124.311 328.402C124.573 328.402 124.787 328.486 124.955 328.654C125.133 328.813 125.221 329.013 125.221 329.256C125.221 329.508 125.133 329.723 124.955 329.9C124.787 330.068 124.573 330.152 124.311 330.152ZM130.727 339.084C129.99 339.084 129.327 338.921 128.739 338.594C128.151 338.267 127.689 337.819 127.353 337.25C127.027 336.671 126.863 336.018 126.863 335.29C126.863 334.562 127.027 333.913 127.353 333.344C127.689 332.765 128.151 332.317 128.739 332C129.327 331.673 129.99 331.51 130.727 331.51C131.465 331.51 132.123 331.673 132.701 332C133.289 332.317 133.747 332.765 134.073 333.344C134.409 333.913 134.577 334.562 134.577 335.29C134.577 336.018 134.409 336.671 134.073 337.25C133.747 337.819 133.289 338.267 132.701 338.594C132.123 338.921 131.465 339.084 130.727 339.084ZM130.727 337.908C131.203 337.908 131.628 337.801 132.001 337.586C132.384 337.362 132.683 337.054 132.897 336.662C133.112 336.261 133.219 335.803 133.219 335.29C133.219 334.777 133.112 334.324 132.897 333.932C132.683 333.531 132.384 333.223 132.001 333.008C131.628 332.793 131.203 332.686 130.727 332.686C130.251 332.686 129.822 332.793 129.439 333.008C129.066 333.223 128.767 333.531 128.543 333.932C128.329 334.324 128.221 334.777 128.221 335.29C128.221 335.803 128.329 336.261 128.543 336.662C128.767 337.054 129.066 337.362 129.439 337.586C129.822 337.801 130.251 337.908 130.727 337.908ZM140.398 331.51C141.341 331.51 142.087 331.785 142.638 332.336C143.198 332.877 143.478 333.675 143.478 334.73V339H142.134V334.884C142.134 334.165 141.961 333.624 141.616 333.26C141.271 332.896 140.776 332.714 140.132 332.714C139.404 332.714 138.83 332.929 138.41 333.358C137.99 333.778 137.78 334.385 137.78 335.178V339H136.436V331.58H137.724V332.7C137.995 332.317 138.359 332.023 138.816 331.818C139.283 331.613 139.81 331.51 140.398 331.51ZM148.093 339.084C147.487 339.084 146.903 339.005 146.343 338.846C145.783 338.678 145.345 338.468 145.027 338.216L145.587 337.152C145.914 337.385 146.311 337.572 146.777 337.712C147.244 337.852 147.715 337.922 148.191 337.922C149.367 337.922 149.955 337.586 149.955 336.914C149.955 336.69 149.876 336.513 149.717 336.382C149.559 336.251 149.358 336.158 149.115 336.102C148.882 336.037 148.546 335.967 148.107 335.892C147.51 335.799 147.02 335.691 146.637 335.57C146.264 335.449 145.942 335.243 145.671 334.954C145.401 334.665 145.265 334.259 145.265 333.736C145.265 333.064 145.545 332.527 146.105 332.126C146.665 331.715 147.417 331.51 148.359 331.51C148.854 331.51 149.349 331.571 149.843 331.692C150.338 331.813 150.744 331.977 151.061 332.182L150.487 333.246C149.881 332.854 149.167 332.658 148.345 332.658C147.776 332.658 147.342 332.751 147.043 332.938C146.745 333.125 146.595 333.372 146.595 333.68C146.595 333.923 146.679 334.114 146.847 334.254C147.015 334.394 147.221 334.497 147.463 334.562C147.715 334.627 148.065 334.702 148.513 334.786C149.111 334.889 149.591 335.001 149.955 335.122C150.329 335.234 150.646 335.43 150.907 335.71C151.169 335.99 151.299 336.382 151.299 336.886C151.299 337.558 151.01 338.095 150.431 338.496C149.862 338.888 149.083 339.084 148.093 339.084Z" fill="white"/>
<path d="M258.008 329.2V330.418L254.2 339H252.254L255.936 330.74H252.086V332.406H250.392V329.2H258.008ZM262.948 339.14C262.164 339.14 261.464 338.944 260.848 338.552C260.232 338.151 259.747 337.572 259.392 336.816C259.037 336.051 258.86 335.145 258.86 334.1C258.86 333.055 259.037 332.154 259.392 331.398C259.747 330.633 260.232 330.054 260.848 329.662C261.464 329.261 262.164 329.06 262.948 329.06C263.732 329.06 264.432 329.261 265.048 329.662C265.673 330.054 266.163 330.633 266.518 331.398C266.873 332.154 267.05 333.055 267.05 334.1C267.05 335.145 266.873 336.051 266.518 336.816C266.163 337.572 265.673 338.151 265.048 338.552C264.432 338.944 263.732 339.14 262.948 339.14ZM262.948 337.558C263.648 337.558 264.199 337.269 264.6 336.69C265.011 336.111 265.216 335.248 265.216 334.1C265.216 332.952 265.011 332.089 264.6 331.51C264.199 330.931 263.648 330.642 262.948 330.642C262.257 330.642 261.707 330.931 261.296 331.51C260.895 332.089 260.694 332.952 260.694 334.1C260.694 335.248 260.895 336.111 261.296 336.69C261.707 337.269 262.257 337.558 262.948 337.558Z" fill="white"/>
<path opacity="0.6" d="M66.982 354.2L62.684 364H61.298L56.986 354.2H58.498L62.026 362.25L65.582 354.2H66.982ZM68.0494 356.58H69.3934V364H68.0494V356.58ZM68.7214 355.152C68.4601 355.152 68.2407 355.068 68.0634 354.9C67.8954 354.732 67.8114 354.527 67.8114 354.284C67.8114 354.041 67.8954 353.836 68.0634 353.668C68.2407 353.491 68.4601 353.402 68.7214 353.402C68.9827 353.402 69.1974 353.486 69.3654 353.654C69.5427 353.813 69.6314 354.013 69.6314 354.256C69.6314 354.508 69.5427 354.723 69.3654 354.9C69.1974 355.068 68.9827 355.152 68.7214 355.152ZM79.0575 356.58V362.992C79.0575 364.289 78.7355 365.246 78.0915 365.862C77.4475 366.487 76.4862 366.8 75.2075 366.8C74.5075 366.8 73.8402 366.702 73.2055 366.506C72.5709 366.319 72.0575 366.049 71.6655 365.694L72.3095 364.658C72.6549 364.957 73.0795 365.19 73.5835 365.358C74.0969 365.535 74.6242 365.624 75.1655 365.624C76.0335 365.624 76.6729 365.419 77.0835 365.008C77.5035 364.597 77.7135 363.972 77.7135 363.132V362.544C77.3962 362.927 77.0042 363.216 76.5375 363.412C76.0802 363.599 75.5809 363.692 75.0395 363.692C74.3302 363.692 73.6862 363.543 73.1075 363.244C72.5382 362.936 72.0902 362.511 71.7635 361.97C71.4369 361.419 71.2735 360.794 71.2735 360.094C71.2735 359.394 71.4369 358.773 71.7635 358.232C72.0902 357.681 72.5382 357.257 73.1075 356.958C73.6862 356.659 74.3302 356.51 75.0395 356.51C75.5995 356.51 76.1175 356.613 76.5935 356.818C77.0789 357.023 77.4755 357.327 77.7835 357.728V356.58H79.0575ZM75.1935 362.516C75.6789 362.516 76.1129 362.413 76.4955 362.208C76.8875 362.003 77.1909 361.718 77.4055 361.354C77.6295 360.981 77.7415 360.561 77.7415 360.094C77.7415 359.375 77.5035 358.797 77.0275 358.358C76.5515 357.91 75.9402 357.686 75.1935 357.686C74.4375 357.686 73.8215 357.91 73.3455 358.358C72.8695 358.797 72.6315 359.375 72.6315 360.094C72.6315 360.561 72.7389 360.981 72.9535 361.354C73.1775 361.718 73.4809 362.003 73.8635 362.208C74.2555 362.413 74.6989 362.516 75.1935 362.516ZM81.6256 356.58H82.9696V364H81.6256V356.58ZM82.2976 355.152C82.0362 355.152 81.8169 355.068 81.6396 354.9C81.4716 354.732 81.3876 354.527 81.3876 354.284C81.3876 354.041 81.4716 353.836 81.6396 353.668C81.8169 353.491 82.0362 353.402 82.2976 353.402C82.5589 353.402 82.7736 353.486 82.9416 353.654C83.1189 353.813 83.2076 354.013 83.2076 354.256C83.2076 354.508 83.1189 354.723 82.9416 354.9C82.7736 355.068 82.5589 355.152 82.2976 355.152ZM85.5357 353.612H86.8797V364H85.5357V353.612ZM92.1479 356.51C93.1745 356.51 93.9585 356.762 94.4999 357.266C95.0505 357.77 95.3259 358.521 95.3259 359.52V364H94.0519V363.02C93.8279 363.365 93.5059 363.631 93.0859 363.818C92.6752 363.995 92.1852 364.084 91.6159 364.084C90.7852 364.084 90.1179 363.883 89.6139 363.482C89.1192 363.081 88.8719 362.553 88.8719 361.9C88.8719 361.247 89.1099 360.724 89.5859 360.332C90.0619 359.931 90.8179 359.73 91.8539 359.73H93.9819V359.464C93.9819 358.885 93.8139 358.442 93.4779 358.134C93.1419 357.826 92.6472 357.672 91.9939 357.672C91.5552 357.672 91.1259 357.747 90.7059 357.896C90.2859 358.036 89.9312 358.227 89.6419 358.47L89.0819 357.462C89.4645 357.154 89.9219 356.921 90.4539 356.762C90.9859 356.594 91.5505 356.51 92.1479 356.51ZM91.8399 363.048C92.3532 363.048 92.7965 362.936 93.1699 362.712C93.5432 362.479 93.8139 362.152 93.9819 361.732V360.696H91.9099C90.7712 360.696 90.2019 361.079 90.2019 361.844C90.2019 362.217 90.3465 362.511 90.6359 362.726C90.9252 362.941 91.3265 363.048 91.8399 363.048ZM101.775 356.51C102.718 356.51 103.464 356.785 104.015 357.336C104.575 357.877 104.855 358.675 104.855 359.73V364H103.511V359.884C103.511 359.165 103.338 358.624 102.993 358.26C102.648 357.896 102.153 357.714 101.509 357.714C100.781 357.714 100.207 357.929 99.7871 358.358C99.3671 358.778 99.1571 359.385 99.1571 360.178V364H97.8131V356.58H99.1011V357.7C99.3717 357.317 99.7357 357.023 100.193 356.818C100.66 356.613 101.187 356.51 101.775 356.51ZM110.617 364.084C109.861 364.084 109.185 363.921 108.587 363.594C107.999 363.267 107.537 362.819 107.201 362.25C106.865 361.671 106.697 361.018 106.697 360.29C106.697 359.562 106.865 358.913 107.201 358.344C107.537 357.765 107.999 357.317 108.587 357C109.185 356.673 109.861 356.51 110.617 356.51C111.289 356.51 111.887 356.645 112.409 356.916C112.941 357.187 113.352 357.579 113.641 358.092L112.619 358.75C112.386 358.395 112.097 358.129 111.751 357.952C111.406 357.775 111.023 357.686 110.603 357.686C110.118 357.686 109.679 357.793 109.287 358.008C108.905 358.223 108.601 358.531 108.377 358.932C108.163 359.324 108.055 359.777 108.055 360.29C108.055 360.813 108.163 361.275 108.377 361.676C108.601 362.068 108.905 362.371 109.287 362.586C109.679 362.801 110.118 362.908 110.603 362.908C111.023 362.908 111.406 362.819 111.751 362.642C112.097 362.465 112.386 362.199 112.619 361.844L113.641 362.488C113.352 363.001 112.941 363.398 112.409 363.678C111.887 363.949 111.289 364.084 110.617 364.084ZM121.978 360.332C121.978 360.435 121.969 360.57 121.95 360.738H115.93C116.014 361.391 116.299 361.919 116.784 362.32C117.279 362.712 117.89 362.908 118.618 362.908C119.505 362.908 120.219 362.609 120.76 362.012L121.502 362.88C121.166 363.272 120.746 363.571 120.242 363.776C119.747 363.981 119.192 364.084 118.576 364.084C117.792 364.084 117.097 363.925 116.49 363.608C115.883 363.281 115.412 362.829 115.076 362.25C114.749 361.671 114.586 361.018 114.586 360.29C114.586 359.571 114.745 358.923 115.062 358.344C115.389 357.765 115.832 357.317 116.392 357C116.961 356.673 117.601 356.51 118.31 356.51C119.019 356.51 119.649 356.673 120.2 357C120.76 357.317 121.194 357.765 121.502 358.344C121.819 358.923 121.978 359.585 121.978 360.332ZM118.31 357.644C117.666 357.644 117.125 357.84 116.686 358.232C116.257 358.624 116.005 359.137 115.93 359.772H120.69C120.615 359.147 120.359 358.638 119.92 358.246C119.491 357.845 118.954 357.644 118.31 357.644Z" fill="white"/>
<path d="M258.008 354.2V355.418L254.2 364H252.254L255.936 355.74H252.086V357.406H250.392V354.2H258.008ZM262.948 364.14C262.164 364.14 261.464 363.944 260.848 363.552C260.232 363.151 259.747 362.572 259.392 361.816C259.037 361.051 258.86 360.145 258.86 359.1C258.86 358.055 259.037 357.154 259.392 356.398C259.747 355.633 260.232 355.054 260.848 354.662C261.464 354.261 262.164 354.06 262.948 354.06C263.732 354.06 264.432 354.261 265.048 354.662C265.673 355.054 266.163 355.633 266.518 356.398C266.873 357.154 267.05 358.055 267.05 359.1C267.05 360.145 266.873 361.051 266.518 361.816C266.163 362.572 265.673 363.151 265.048 363.552C264.432 363.944 263.732 364.14 262.948 364.14ZM262.948 362.558C263.648 362.558 264.199 362.269 264.6 361.69C265.011 361.111 265.216 360.248 265.216 359.1C265.216 357.952 265.011 357.089 264.6 356.51C264.199 355.931 263.648 355.642 262.948 355.642C262.257 355.642 261.707 355.931 261.296 356.51C260.895 357.089 260.694 357.952 260.694 359.1C260.694 360.248 260.895 361.111 261.296 361.69C261.707 362.269 262.257 362.558 262.948 362.558Z" fill="white"/>
<defs>
<filter id="filter0_d" x="28.7865" y="46.9101" width="122.864" height="97.8371" filterUnits="userSpaceOnUse" color-interpolation-filters="sRGB">
<feFlood flood-opacity="0" result="BackgroundImageFix"/>
<feColorMatrix in="SourceAlpha" type="matrix" values="0 0 0 0 0 0 0 0 0 0 0 0 0 0 0 0 0 0 127 0" result="hardAlpha"/>
<feOffset dy="3.64045"/>
<feGaussianBlur stdDeviation="14.1067"/>
<feColorMatrix type="matrix" values="0 0 0 0 0.235294 0 0 0 0 0.811765 0 0 0 0 0.364706 0 0 0 0.5 0"/>
<feBlend mode="normal" in2="BackgroundImageFix" result="effect1_dropShadow"/>
<feBlend mode="normal" in="SourceGraphic" in2="effect1_dropShadow" result="shape"/>
</filter>
<filter id="filter1_d" x="162.517" y="46.9101" width="121.815" height="97.8371" filterUnits="userSpaceOnUse" color-interpolation-filters="sRGB">
<feFlood flood-opacity="0" result="BackgroundImageFix"/>
<feColorMatrix in="SourceAlpha" type="matrix" values="0 0 0 0 0 0 0 0 0 0 0 0 0 0 0 0 0 0 127 0" result="hardAlpha"/>
<feOffset dy="3.64045"/>
<feGaussianBlur stdDeviation="14.1067"/>
<feColorMatrix type="matrix" values="0 0 0 0 0.235294 0 0 0 0 0.811765 0 0 0 0 0.364706 0 0 0 0.5 0"/>
<feBlend mode="normal" in2="BackgroundImageFix" result="effect1_dropShadow"/>
<feBlend mode="normal" in="SourceGraphic" in2="effect1_dropShadow" result="shape"/>
</filter>
</defs>
</svg>
