<svg xmlns="http://www.w3.org/2000/svg" xmlns:xlink="http://www.w3.org/1999/xlink" viewBox="0 0 72 72"><defs><style>.cls-1{fill:none;}.cls-2{clip-path:url(#clip-path);}.cls-3{fill:url(#linear-gradient);}</style><clipPath id="clip-path" transform="translate(0 0)"><rect class="cls-1" width="72" height="72"/></clipPath><linearGradient id="linear-gradient" x1="51.73" y1="-402.25" x2="-19.36" y2="-354.7" gradientTransform="matrix(1, 0, 0, -1, 0, -356)" gradientUnits="userSpaceOnUse"><stop offset="0" stop-color="#55f3ff"/><stop offset="0.46" stop-color="#366eff"/><stop offset="1" stop-color="#366eff"/></linearGradient></defs><title>ball</title><g id="Layer_2" data-name="Layer 2"><g id="ball"><g class="cls-2"><path class="cls-3" d="M12.88,42.68a34.27,34.27,0,0,1-6.13-9.44c-.31-.71-.57-1.4-.84-2.07-3.21.63-4,.28-4.8-.1A34,34,0,0,0,.05,40.2c0,.88.1,1.68.18,2.46,0-.1-.05-.19-.07-.28l0-.09L0,41.78c0,.26.09.5.14.74l0-.09.09.46.07.35c.08.4.17.8.26,1.2A36,36,0,0,0,8.38,59.57c.23.27.47.54.72.8l.23.26.32.33-.1-.1c.15.15.28.3.43.44a19.06,19.06,0,0,1-3.27-4.57l.1.05-.2-.27a9.6,9.6,0,0,0,4.32.43c1-.09,1.91-.25,2.85-.42A46.82,46.82,0,0,1,12.88,42.68ZM1.46,47.07a30.07,30.07,0,0,0,2,4.62A27.88,27.88,0,0,1,1.46,47.07Zm8.92-36.44c-1.79,2.94-1.51,4.92-.9,7.62A73,73,0,0,0,17.15,15c.62-4.77.22-5.84-.21-7-3-.13-3.75.06-4.9.77A11,11,0,0,0,10.38,10.63Zm.6-.84c.29-.28.59-.57.91-.86A12.33,12.33,0,0,0,11,9.79ZM5.88,30.58c1-4.13,1.73-6.84,3.4-12.06-.93-3.89-.19-5.6,1-7.77a2.63,2.63,0,0,1,.68-1,39.73,39.73,0,0,0-5.92,7.36,28.26,28.26,0,0,0-3.88,13.3c1.34.74,3,.44,4.68.13ZM32.67,69.65a17.67,17.67,0,0,0,2,1.06c1.83.07,3.44.07,4.86,0,1-.06,2-.15,2.87-.26a42.4,42.4,0,0,0,6.91-1.57c1.85-.93,3.07-1.59,5.46-2.94-2.27.32-2.9-.7-3.6-2.28-1.79-.33-3.39-.7-4.83-1.09-2.67-.72-4.83-1.5-6.82-2.23-5.19,2.32-7.7,3.3-9.9,4.11l-1.14.42a11.57,11.57,0,0,0,4.16,4.8Zm2,1.18a12.11,12.11,0,0,1-5,.65,32.39,32.39,0,0,0,3.53.43,37,37,0,0,0,5.57,0A35.32,35.32,0,0,0,44.29,71c1.63-.45,3.79-1.15,5.37-1.73a36.09,36.09,0,0,0,5.11-2.6c.66-.4,1.31-.82,1.95-1.27.39-.28.91-.66,1.3-1-4.33,3.22-6.53,3.85-8.65,4.47a39.57,39.57,0,0,1-14.69,1.94Zm-8-36.25c-.11.94-.22,1.87-.31,2.81l1.78,1.36c4.64,3.49,7.59,5.43,11.22,7.84l.19.12,4.51-2.09c5.14-2.37,5.77-2.65,9.05-4.06a114,114,0,0,0,1.35-15A65.3,65.3,0,0,0,42.63,17l-1.24-.71c-4.61,1.94-7.69,3.33-13.24,5.9C27.73,26.31,27.17,30.45,26.69,34.58ZM39.15,60a60,60,0,0,1,0-12.78c-1.28-.83-2.42-1.59-3.45-2.28-4.45-3-6.86-4.82-9.75-7-6.56,2.81-9.35,3.8-12,4.73l-.62.22c-.35,7.24.22,10.37.87,13.52l.07.34a47.49,47.49,0,0,0,13.75,7.81L29,64.2C32.69,62.83,35.46,61.62,39.15,60Zm-1-54.23a49.91,49.91,0,0,0-8.33-1.28,47.72,47.72,0,0,0-5.48,0c-2,.93-3.11,1.5-5.95,2.92L17.28,8c.86,2,.58,4.45.28,7.07l1.79,1.19c1.73,1.13,3.63,2.33,8.56,5.41L29.26,21C35.53,18.12,38.2,17,41,15.8c-.54-5.07-1.37-7.26-2.3-9Zm20.5,54.32c1.22,1.38,1.34,2.1,1.17,2.59.12-.73-.7-1.66-1.34-2.38-1.43.64-2.66,1.24-6.89,3.31,1,2.49,2.22,2.34,3.54,2.18a15.15,15.15,0,0,0,4.37-2.56A30,30,0,0,0,62.64,60a18.68,18.68,0,0,0,4.09-10.71,19.08,19.08,0,0,0-5.62,1.35C59.09,58.23,59.09,58.23,58.67,60.07Zm4.49-47.64-.08-.1-.49-.53-.07-.07-.25-.29-.34-.35-.27-.28-.34-.35L61,10.18l-.34-.32-.29-.27-.35-.32A3.23,3.23,0,0,0,59.77,9l-.36-.31-.3-.26-.36-.3-.3-.26-.39-.28-.3-.23-.38-.28-.31-.22c-.1-.07-.25-.19-.39-.28l-.3-.21L56,6.11l-.29-.2-.44-.28L55,5.45l-.51-.31L54.25,5c-.25-.14-.48-.29-.73-.42l-.1-.06-.64-.34-.25-.13L52,3.81l-.3-.14-.45-.22L51,3.3l-.44-.2L50.18,3l-.43-.19-.34-.14L49,2.46l-.35-.13-.43-.16L47.85,2l-.43-.14-.36-.12-.43-.14-.36-.12-.44-.12-.36-.09L45,1.2l-.37-.1L44.22,1,43.86.91l-.44-.1L43.07.74,42.6.64,42.26.58,41.75.49l-.29,0L40.83.35l-.19,0c-.28,0-.54-.08-.82-.1L38.94.14A36.17,36.17,0,0,0,31,.31a41.45,41.45,0,0,0-8.4,2.14A40.53,40.53,0,0,0,17.77,5c3.75-1.61,5.22-1.11,6.64-.63A45.19,45.19,0,0,1,38.29,5.49,41.06,41.06,0,0,1,46.86,3l.2.13a37.59,37.59,0,0,1,13.84,8l.29.26.13,0c2.79,4.57,3.2,7.94,3.62,11.51A31.32,31.32,0,0,1,70.26,36.1a2.35,2.35,0,0,1,1.64,2.49,35.75,35.75,0,0,0-8.74-26.16ZM64.8,23.2A48.93,48.93,0,0,0,55,25.68,102.91,102.91,0,0,1,54,38.47c-.09.7-.19,1.43-.3,2.21.45.44.86.86,1.25,1.27a34.25,34.25,0,0,1,6.16,8.16c.84-.3,1.55-.53,2.15-.72a13,13,0,0,1,3.61-.69,66.07,66.07,0,0,0,3.3-12.32A30.88,30.88,0,0,0,65.39,24.1c-.21-.3-.4-.6-.59-.9Z" transform="translate(0 0)"/></g></g></g></svg>