<svg xmlns="http://www.w3.org/2000/svg" xmlns:xlink="http://www.w3.org/1999/xlink" viewBox="0 0 335 547.03"><defs><style>.cls-1{fill:none;}.cls-2{fill:url(#linear-gradient);}.cls-3{fill-opacity:0.77;fill:url(#linear-gradient-2);}.cls-4{fill:#0ce556;}.cls-5{clip-path:url(#clip-path);}.cls-6{opacity:0.88;}.cls-7{fill:url(#linear-gradient-3);}.cls-8{fill:url(#linear-gradient-4);}.cls-9{fill:url(#linear-gradient-5);}.cls-10{fill:url(#linear-gradient-6);}.cls-11{fill:url(#linear-gradient-7);}.cls-12{fill:url(#linear-gradient-8);}.cls-13{fill:url(#linear-gradient-9);}.cls-14{fill:url(#linear-gradient-10);}.cls-15{fill:url(#linear-gradient-11);}.cls-16{fill:url(#linear-gradient-12);}</style><linearGradient id="linear-gradient" x1="167.5" y1="530.03" x2="167.5" y2="3.03" gradientTransform="matrix(1, 0, 0, -1, 0, 530.05)" gradientUnits="userSpaceOnUse"><stop offset="0" stop-color="#137a9b"/><stop offset="1" stop-color="#137a9b" stop-opacity="0"/></linearGradient><linearGradient id="linear-gradient-2" x1="148.18" y1="24.77" x2="177.32" y2="-12.52" gradientTransform="matrix(1, 0, 0, -1, 0, 530.05)" gradientUnits="userSpaceOnUse"><stop offset="0" stop-color="#33f33a" stop-opacity="0.31"/><stop offset="1" stop-color="#75d2f4"/></linearGradient><clipPath id="clip-path"><rect class="cls-1" y="0.03" width="335" height="527"/></clipPath><linearGradient id="linear-gradient-3" x1="178.75" y1="530.03" x2="178.75" y2="512.26" gradientTransform="matrix(1, 0, 0, -1, 0, 530.05)" gradientUnits="userSpaceOnUse"><stop offset="0" stop-color="#00ffa3"/><stop offset="1" stop-color="#00ffa3" stop-opacity="0"/></linearGradient><linearGradient id="linear-gradient-4" x1="275.89" y1="11.91" x2="275.89" y2="3.03" xlink:href="#linear-gradient-3"/><linearGradient id="linear-gradient-5" x1="59.11" y1="12.03" x2="59.11" y2="3.14" xlink:href="#linear-gradient-3"/><linearGradient id="linear-gradient-6" x1="22.85" y1="507.17" x2="29.14" y2="500.89" xlink:href="#linear-gradient-3"/><linearGradient id="linear-gradient-7" x1="29.23" y1="500.92" x2="35.52" y2="494.64" xlink:href="#linear-gradient-3"/><linearGradient id="linear-gradient-8" x1="4.44" y1="484.34" x2="4.44" y2="407.24" xlink:href="#linear-gradient-3"/><linearGradient id="linear-gradient-9" x1="70.04" y1="521.14" x2="70.04" y2="512.26" xlink:href="#linear-gradient-3"/><linearGradient id="linear-gradient-10" x1="8.24" y1="476.09" x2="8.24" y2="422.79" xlink:href="#linear-gradient-3"/><linearGradient id="linear-gradient-11" x1="332.94" y1="377.42" x2="332.94" y2="11.91" xlink:href="#linear-gradient-3"/><linearGradient id="linear-gradient-12" x1="325.33" y1="438.65" x2="325.33" y2="19.84" xlink:href="#linear-gradient-3"/></defs><title>card</title><g id="Layer_2" data-name="Layer 2"><g id="card"><path class="cls-2" d="M0,46,45.5,0H293l19,18,23,20V527H16.5L0,518Z"/><path class="cls-3" d="M162.22,499.47l10.29,6,10.3,5.92,0,11.89,0,11.89-10.3,5.92-10.29,6-10.28-6-10.31-5.92,0-11.89,0-11.89,10.31-5.92Z"/><path class="cls-4" d="M162.22,512.55l4.63,2.68,4.64,2.67v10.7l-4.64,2.66L162.22,534l-4.63-2.69L153,528.6l0-5.35,0-5.35,4.64-2.67Z"/><g class="cls-5"><g class="cls-6"><path class="cls-7" d="M292.85,0l19,17.76H258.62L244,8.91H45.64V0Z"/><path class="cls-8" d="M321.05,527H216.78l12.68-8.89H335Z"/><path class="cls-9" d="M104.27,518H0l12.68,8.88H118.22Z"/><path class="cls-10" d="M45.72,0,0,45.77l6.27,6.28L52,6.28Z"/><path class="cls-11" d="M52.09,6.25,6.38,52l6.27,6.28L58.37,12.53Z"/><path class="cls-12" d="M8.87,45.71v64.41L0,122.81V45.71Z"/><path class="cls-13" d="M79.87,17.79H45.64V8.91H94.45Z"/><path class="cls-14" d="M12.68,91.4V54H3.8v53.31Z"/><path class="cls-15" d="M334.68,152.64H331.2v365.5h3.48Z"/><path class="cls-16" d="M326.13,91.4h-1.59V510.21h1.59Z"/></g></g></g></g></svg>