<svg xmlns="http://www.w3.org/2000/svg" xmlns:xlink="http://www.w3.org/1999/xlink" viewBox="0 0 52.41 40.82"><defs><style>.cls-1{fill:url(#linear-gradient);}.cls-2{fill:url(#linear-gradient-2);}.cls-3{fill:url(#linear-gradient-3);}</style><linearGradient id="linear-gradient" y1="-199.24" x2="23.63" y2="-199.24" gradientTransform="matrix(1, 0, 0, -1, 0, -177.45)" gradientUnits="userSpaceOnUse"><stop offset="0" stop-color="#5cffdc"/><stop offset="1" stop-color="#00b8fc"/></linearGradient><linearGradient id="linear-gradient-2" x1="19.71" y1="-202.08" x2="41.05" y2="-202.08" xlink:href="#linear-gradient"/><linearGradient id="linear-gradient-3" x1="39.55" y1="-196.09" x2="52.38" y2="-196.09" gradientTransform="matrix(1, 0, 0, -1, 0, -177.45)" gradientUnits="userSpaceOnUse"><stop offset="0" stop-color="#5cffdc"/><stop offset="1" stop-color="#0043fc"/></linearGradient></defs><title>left leg</title><g id="Layer_2" data-name="Layer 2"><g id="left_leg" data-name="left leg"><path class="cls-1" d="M.21,4.75s13.43.56,18.47,8.67,7.16,21.17,1.86,25S-2.12,18.07.21,4.75Z"/><path class="cls-2" d="M39.5,8.44s8.81,42.82-15.67,30c0,0,9-12.47-4.12-27.68C19.9,10.9,29.16,14.11,39.5,8.44Z"/><path class="cls-3" d="M43.75,5.68s5.78-2,8.09-5.68c-.19.21,4.91,28-12.26,37.27C39.72,37.17,50.17,23.13,43.75,5.68Z"/></g></g></svg>