<svg xmlns="http://www.w3.org/2000/svg" xmlns:xlink="http://www.w3.org/1999/xlink" viewBox="0 0 161 161.62"><defs><style>.cls-1{fill:url(#linear-gradient);}.cls-2{fill:url(#linear-gradient-2);}.cls-3{fill:url(#linear-gradient-3);}.cls-4{fill:url(#linear-gradient-4);}.cls-5{fill:url(#linear-gradient-5);}.cls-6{fill:url(#linear-gradient-6);}.cls-7{fill:url(#linear-gradient-7);}.cls-8{fill:url(#linear-gradient-8);}.cls-9{fill:url(#linear-gradient-9);}.cls-10{fill:#2d9691;}</style><linearGradient id="linear-gradient" y1="282.5" x2="37.02" y2="282.5" gradientTransform="matrix(1, 0, 0, -1, 0, 330.56)" gradientUnits="userSpaceOnUse"><stop offset="0" stop-color="#5cffdc"/><stop offset="1" stop-color="#0043fc"/></linearGradient><linearGradient id="linear-gradient-2" x1="44.68" y1="234.2" x2="124.33" y2="234.2" gradientTransform="matrix(1, 0, 0, -1, 0, 330.56)" gradientUnits="userSpaceOnUse"><stop offset="0" stop-color="#5cffdc"/><stop offset="1" stop-color="#00b8fc"/></linearGradient><linearGradient id="linear-gradient-3" x1="11.31" y1="286.09" x2="38.01" y2="286.09" xlink:href="#linear-gradient-2"/><linearGradient id="linear-gradient-4" x1="43.83" y1="258.38" x2="82.33" y2="258.38" xlink:href="#linear-gradient-2"/><linearGradient id="linear-gradient-5" x1="16" y1="296.26" x2="45.5" y2="296.26" xlink:href="#linear-gradient-2"/><linearGradient id="linear-gradient-6" x1="38.84" y1="228.88" x2="123.63" y2="228.88" xlink:href="#linear-gradient"/><linearGradient id="linear-gradient-7" x1="117.54" y1="187.56" x2="158.34" y2="187.56" xlink:href="#linear-gradient"/><linearGradient id="linear-gradient-8" x1="45.48" y1="273" x2="62.35" y2="273" xlink:href="#linear-gradient-2"/><linearGradient id="linear-gradient-9" x1="117.56" y1="190.41" x2="161" y2="190.41" xlink:href="#linear-gradient-2"/></defs><title>left arm</title><g id="Layer_2" data-name="Layer 2"><g id="left_arm" data-name="left arm"><path class="cls-1" d="M6.27,22.83s-14,16.45-.11,27.72S37,73.29,37,73.29.94,37.05,6.27,22.83Z"/><path class="cls-2" d="M44.68,71.38s11.28,43.24,79.64,50c.35.22-35.07-22.94-39.82-36.58S44.68,71.38,44.68,71.38Z"/><path class="cls-3" d="M15.5,19.81s26.05,24,22.1,49.31C37.63,69.12-1.24,42.59,15.5,19.81Z"/><path class="cls-4" d="M43.83,69.1s-.24-6.87,20.35-3.93c15,5.41,18.15,14.75,18.15,14.75S76.41,69.28,43.83,69.1Z"/><path class="cls-5" d="M16,19.14c15.23,8.7,26.64,49.45,26.64,49.45C56.49,48.93,15.47-3.65,17.36.2S16,19.14,16,19.14Z"/><path class="cls-6" d="M40.15,65.52s-4,12.86,1.93,21.43,13.67,19.5,39.5,29.26,31.65,21.62,31.65,21.62,2.63-9.36,10.4-14.08C123.66,123.72,53.91,118.42,40.15,65.52Z"/><path class="cls-7" d="M126.42,124.38S109.65,137.7,122.2,145s16.61,8.7,13.32,11,16.08,13.31,22.15-3.32S126.42,124.38,126.42,124.38Z"/><path class="cls-8" d="M45.48,50.34S55.43,62.73,62.35,64a24.4,24.4,0,0,0-16.26.82C46.09,64.83,49.27,59.71,45.48,50.34Z"/><path class="cls-9" d="M127.14,124.12s-7.62,1.09-9.58,13.93c0,0,20.88-3.05,31.57,10.56,0-.11-2.23,3.95-8.44,3.66,0,0,1.51,6.5,11.49,2.73s11-13.32,5.6-22.76C154.94,130.17,140.05,130.06,127.14,124.12Z"/><path class="cls-10" d="M148.86,148.71s3.24-5.76-.82-10.42C148,138.29,157.62,141.79,148.86,148.71Z"/></g></g></svg>