<svg xmlns="http://www.w3.org/2000/svg" xmlns:xlink="http://www.w3.org/1999/xlink" viewBox="0 0 141.72 248.7"><defs><style>.cls-1{fill:url(#linear-gradient);}.cls-2{fill:url(#linear-gradient-2);}.cls-3{fill:url(#linear-gradient-3);}.cls-4{fill:#fff;}.cls-5{fill:url(#linear-gradient-4);}.cls-6{fill:url(#linear-gradient-5);}.cls-7{fill:#22aef4;}</style><linearGradient id="linear-gradient" x1="10.37" y1="-229.38" x2="62.76" y2="-229.38" gradientTransform="matrix(1, 0, 0, -1, 0, -161.35)" gradientUnits="userSpaceOnUse"><stop offset="0" stop-color="#5cffdc"/><stop offset="1" stop-color="#00b8fc"/></linearGradient><linearGradient id="linear-gradient-2" x1="35.6" y1="-305.62" x2="93.76" y2="-305.62" xlink:href="#linear-gradient"/><linearGradient id="linear-gradient-3" x1="40.91" y1="-277.04" x2="111.18" y2="-277.04" gradientTransform="matrix(1, 0, 0, -1, 0, -161.35)" gradientUnits="userSpaceOnUse"><stop offset="0" stop-color="#5cffdc"/><stop offset="1" stop-color="#0043fc"/></linearGradient><linearGradient id="linear-gradient-4" x1="0" y1="-182.81" x2="47.68" y2="-182.81" xlink:href="#linear-gradient"/><linearGradient id="linear-gradient-5" x1="31.81" y1="-195.06" x2="77.17" y2="-195.06" xlink:href="#linear-gradient-3"/></defs><title>right leg</title><g id="Layer_2" data-name="Layer 2"><g id="right_leg" data-name="right leg"><path class="cls-1" d="M10.37,35.72S32.63,59.07,35,92.68c.29.14-.85-11.35,11.09-5.52,5,2.42,16.6,13.19,16.6,13.19.4.4-1.32-34-30.71-49.64C5.41,33.31,18.94,42.14,10.37,35.72Z"/><path class="cls-2" d="M93.76,179.38c0-11-40.46-106.86-58.16-83.62,0,0,5.33,43.72,37.57,70.12A76.45,76.45,0,0,1,89,196.41S93.76,190.31,93.76,179.38Z"/><path class="cls-3" d="M40.91,51s22,13.66,28.25,54.52c6.48,42.5,42,74.81,42,74.81s-7.13-19.84-7.13-60.7C104.07,83.64,40.91,51,40.91,51Z"/><path class="cls-4" d="M133,220.66s4.05,7,6.1,7.32.34,5.76,2,6.1-12.18,9.13-34.81,14.2S60.25,211.67,133,220.66Z"/><path class="cls-5" d="M33.14,1.56C26.21,2.72,8.89,7.15,0,23.2,9.37,35.49,19.61,40,27.86,41.11c7.9,1,14-1.11,15.78-2.65C47.3,35.22,54.12,27.31,33.14,1.56Z"/><path class="cls-6" d="M58.31.63A76.92,76.92,0,0,0,36,1C58.34,27.9,51.31,36,47.59,39.25c-1.77,1.54-7.88,3.69-15.78,2.68A185.33,185.33,0,0,0,54.23,53.87c21.94,9.44,22.94,13.56,22.94,13.56S69.83,18.67,58.31.63Z"/><path class="cls-7" d="M98.56,202.35s-10.38-1-8.55,4.28,8.92,13,8.92,13a50.63,50.63,0,0,1,28.68-3.24C127.68,216.41,118.59,205.3,98.56,202.35Z"/><path class="cls-7" d="M87.1,226.28s14.77-5,27.93,9c0,0,4.32,3,8.25,1.88s16.93-5.75,16.93-5.75,2.7,1.45.87,2.7c-.87,4.25-25.81,14.62-38.81,14.62S74.07,241,87.1,226.28Z"/></g></g></svg>