<svg xmlns="http://www.w3.org/2000/svg" xmlns:xlink="http://www.w3.org/1999/xlink" viewBox="0 0 249.9 41.74"><defs><style>.cls-1{fill:url(#linear-gradient);}.cls-2{fill:url(#linear-gradient-2);}.cls-3{fill:url(#linear-gradient-3);}.cls-4{fill:url(#linear-gradient-4);}.cls-5{fill:url(#linear-gradient-5);}.cls-6{fill:url(#linear-gradient-6);}.cls-7{fill:url(#linear-gradient-7);}</style><linearGradient id="linear-gradient" x1="158.19" y1="329.96" x2="249.9" y2="329.96" gradientTransform="matrix(1, 0, 0, -1, 0, 351.87)" gradientUnits="userSpaceOnUse"><stop offset="0" stop-color="#5cffdc"/><stop offset="1" stop-color="#00b8fc"/></linearGradient><linearGradient id="linear-gradient-2" x1="81.78" y1="332.25" x2="166.15" y2="332.25" xlink:href="#linear-gradient"/><linearGradient id="linear-gradient-3" x1="82.47" y1="322.39" x2="169.54" y2="322.39" gradientTransform="matrix(1, 0, 0, -1, 0, 351.87)" gradientUnits="userSpaceOnUse"><stop offset="0" stop-color="#5cffdc"/><stop offset="1" stop-color="#0043fc"/></linearGradient><linearGradient id="linear-gradient-4" x1="57.22" y1="336.52" x2="89.9" y2="336.52" xlink:href="#linear-gradient"/><linearGradient id="linear-gradient-5" x1="0" y1="341.44" x2="52.39" y2="341.44" xlink:href="#linear-gradient"/><linearGradient id="linear-gradient-6" x1="0.36" y1="327.58" x2="76.74" y2="327.58" xlink:href="#linear-gradient-3"/><linearGradient id="linear-gradient-7" x1="160.74" y1="321.9" x2="249.9" y2="321.9" xlink:href="#linear-gradient-3"/></defs><title>right arm</title><g id="Layer_2" data-name="Layer 2"><g id="right_arm" data-name="right arm"><path class="cls-1" d="M168.8,4.23s25.76-5.73,41.55,1.56,28,17.54,39.55,36c.24-.21-15-10-40.75-9.63S163.44,25,159,15.5,168.8,4.23,168.8,4.23Z"/><path class="cls-2" d="M86.91,11.42S75.13,17,87.28,24s49.31,15.92,78.87,6.4c-.24.37-23.53-18.17-13.37-23.53C152.78,6.85,113-.15,86.91,11.42Z"/><path class="cls-3" d="M82.47,19.83s36.11,34.7,87.07,11.06c0,0-12.17-7.51-14.56-10.85C154.87,19.88,124.74,36.19,82.47,19.83Z"/><path class="cls-4" d="M89.9,8.1A231.7,231.7,0,0,0,57.22,6.4c.53.11-3.61,8.46,21.3,17.94C78.34,24.18,62.58,16.11,89.9,8.1Z"/><path class="cls-5" d="M20.85,9C22.07,8.9,32.6,5.37,52.39,7.89c0,0-17.88-5.55-24.59-7.4s-19.37,1.77-24,9.76S.08,20.86.08,20.86a8.84,8.84,0,0,1,2.86-3.53C5.67,15.34,14.06,10.46,20.85,9Z"/><path class="cls-6" d="M76.74,26.22s-17.77,3.1-22.68,6-14.83,3.35-18.57,3.85-13.26,4.3-16,2.63-1.17-6.08,2.89-7.8c5.52-2.34,10.58-2.28,10.53-3.19s.21-4.48-5-4.93-14.38.42-18.17,1.88-8.12,3.24-8.6,2.82c-1-.85-.9-2.52-.16-4.14A9,9,0,0,1,3.79,19.8c2.73-2,11.11-6.87,17.91-8.28,1.22-.13,11.72-3.66,31.54-1.14C53.24,10.41,52.13,22.32,76.74,26.22Z"/><path class="cls-7" d="M160.74,18.21s7.61,11.7,26.71,13.66,31.28-3.08,62.45,9.87c0,0-28.57-20.08-56.9-19.82C180.31,21.92,163,19.88,160.74,18.21Z"/></g></g></svg>