<svg width="37" height="29" viewBox="0 0 37 29" fill="none" xmlns="http://www.w3.org/2000/svg">
<path d="M31.3221 2.53833C28.9638 1.46402 26.4349 0.672515 23.7908 0.219187C23.7427 0.210438 23.6946 0.232302 23.6698 0.276032C23.3445 0.850342 22.9843 1.59958 22.732 2.18847C19.8881 1.76576 17.0588 1.76576 14.2732 2.18847C14.0209 1.58649 13.6476 0.850342 13.3209 0.276032C13.2961 0.233761 13.248 0.211897 13.1998 0.219187C10.5572 0.671066 8.02832 1.46257 5.66861 2.53833C5.64818 2.54708 5.63067 2.56167 5.61905 2.5806C0.822312 9.69546 -0.491715 16.6354 0.152903 23.4894C0.155819 23.5229 0.174779 23.555 0.20103 23.5754C3.36578 25.8828 6.43138 27.2837 9.44005 28.2122C9.48821 28.2268 9.53923 28.2093 9.56987 28.1699C10.2816 27.205 10.916 26.1875 11.4599 25.1176C11.492 25.0549 11.4614 24.9806 11.3958 24.9558C10.3895 24.5768 9.4313 24.1147 8.50958 23.59C8.43668 23.5477 8.43084 23.4442 8.49791 23.3946C8.69187 23.2503 8.88589 23.1001 9.0711 22.9486C9.10461 22.9209 9.1513 22.915 9.1907 22.9325C15.246 25.6773 21.8015 25.6773 27.7854 22.9325C27.8248 22.9136 27.8715 22.9194 27.9064 22.9471C28.0917 23.0987 28.2857 23.2503 28.4811 23.3946C28.5482 23.4442 28.5438 23.5477 28.4709 23.59C27.5492 24.1249 26.591 24.5768 25.5832 24.9543C25.5176 24.9791 25.4884 25.0549 25.5205 25.1176C26.0761 26.186 26.7106 27.2035 27.4091 28.1685C27.4383 28.2093 27.4908 28.2268 27.5389 28.2122C30.5622 27.2837 33.6278 25.8828 36.7925 23.5754C36.8203 23.555 36.8378 23.5244 36.8407 23.4908C37.6122 15.5669 35.5485 8.68386 31.3702 2.58205C31.3599 2.56167 31.3425 2.54708 31.3221 2.53833ZM12.3642 19.316C10.5411 19.316 9.039 17.6543 9.039 15.6136C9.039 13.5728 10.512 11.9111 12.3642 11.9111C14.2309 11.9111 15.7185 13.5874 15.6894 15.6136C15.6894 17.6543 14.2163 19.316 12.3642 19.316ZM24.6586 19.316C22.8356 19.316 21.3334 17.6543 21.3334 15.6136C21.3334 13.5728 22.8064 11.9111 24.6586 11.9111C26.5254 11.9111 28.0129 13.5874 27.9838 15.6136C27.9838 17.6543 26.5254 19.316 24.6586 19.316Z" fill="white"/>
</svg>
