<svg width="16" height="16" viewBox="0 0 16 16" fill="none" xmlns="http://www.w3.org/2000/svg">
<path d="M7.99742 16C12.4143 16 15.9948 12.4183 15.9948 8.00002C15.9948 3.58173 12.4143 0 7.99742 0C3.58057 0 0 3.58173 0 8.00002C0 12.4183 3.58057 16 7.99742 16Z" fill="#60E077"/>
<path d="M7.99766 0C7.99403 0 7.99044 0.000124985 7.98682 0.000124985V15.9999C7.99044 15.9999 7.99403 16 7.99766 16C12.4145 16 15.9951 12.4183 15.9951 7.99998C15.9951 3.58168 12.4145 0 7.99766 0Z" fill="#60E177"/>
<path d="M3.47642 8.15885L6.71115 11.3936C6.85222 11.5347 7.08098 11.5347 7.22205 11.3936L12.5326 6.08307C12.6736 5.942 12.6736 5.71324 12.5326 5.57217L11.566 4.60556C11.4249 4.46449 11.1961 4.46449 11.0551 4.60556L7.1925 8.46807C7.05142 8.60914 6.82267 8.60914 6.68159 8.46807L4.95065 6.73712C4.81235 6.59882 4.5891 6.5957 4.44699 6.73006L3.48367 7.64085C3.33581 7.78068 3.33253 8.01496 3.47642 8.15885Z" fill="white"/>
<path d="M11.5657 4.60556C11.4246 4.46449 11.1958 4.46449 11.0548 4.60556L7.98682 7.67352V10.6286L12.5323 6.0831C12.6733 5.94202 12.6733 5.71327 12.5323 5.57216L11.5657 4.60556Z" fill="white"/>
</svg>
