<svg width="24" height="24" viewBox="0 0 24 24" fill="none" xmlns="http://www.w3.org/2000/svg">
<circle cx="12" cy="12" r="12" fill="#8c8c8c"/>
<path d="M8.28125 12C8.28125 11.3064 8.47236 10.6566 8.80436 10.1002V7.74023H6.44438C5.50772 8.9567 5 10.4393 5 12C5 13.5607 5.50772 15.0433 6.44438 16.2597H8.80436V13.8997C8.47236 13.3434 8.28125 12.6936 8.28125 12Z" fill="white"/>
<path d="M12 15.7187L10.3594 17.3593L12 19C13.5608 19 15.0433 18.4922 16.2597 17.5556V15.1981H13.9023C13.341 15.5313 12.6885 15.7187 12 15.7187Z" fill="white"/>
<path d="M8.80432 13.8997L6.44434 16.2596C6.62978 16.5005 6.83171 16.7311 7.05022 16.9497C8.37234 18.2718 10.1302 18.9999 12 18.9999V15.7186C10.6431 15.7186 9.45379 14.988 8.80432 13.8997Z" fill="white"/>
<path d="M19 12.0001C19 11.5742 18.9614 11.1475 18.8854 10.7319L18.8238 10.3956H12V13.6769H15.321C14.9985 14.3184 14.5026 14.8418 13.9022 15.1982L16.2597 17.5557C16.5006 17.3703 16.7312 17.1683 16.9497 16.9498C18.2719 15.6277 19 13.8698 19 12.0001Z" fill="white"/>
<path d="M14.6296 9.37043L14.9196 9.66044L17.2398 7.34027L16.9498 7.05026C15.6276 5.72814 13.8698 5 12 5L10.3594 6.64062L12 8.28125C12.9933 8.28125 13.9272 8.66805 14.6296 9.37043Z" fill="white"/>
<path d="M12 8.28125V5C10.1302 5 8.37237 5.72814 7.05022 7.05023C6.83172 7.26874 6.62978 7.49938 6.44434 7.74025L8.80432 10.1002C9.45382 9.01188 10.6431 8.28125 12 8.28125Z" fill="white"/>
</svg>
