<svg width="52" height="52" viewBox="0 0 52 52" fill="none" xmlns="http://www.w3.org/2000/svg">
<path fill-rule="evenodd" clip-rule="evenodd" d="M47.3911 12.349C45.6602 9.61952 43.4631 7.28945 40.9333 5.42539C40.0681 4.75966 39.1358 4.22704 38.2039 3.69446C35.6075 2.22983 32.7448 1.23123 29.6824 0.765241C28.4842 0.565494 27.1526 0.432373 25.8211 0.432373C24.8892 0.432373 24.0236 0.498933 23.1583 0.565494C21.6935 0.698648 20.2956 0.964955 18.9641 1.36438C18.5648 1.49754 18.2318 1.5641 17.8988 1.69725C14.5702 2.76245 11.5744 4.55991 8.97801 6.82342C6.84755 8.68748 5.05005 10.951 3.58552 13.4142C1.45505 17.1422 0.256836 21.4031 0.256836 25.9967C0.256836 30.5903 1.45505 34.8509 3.58552 38.5792C4.98371 41.0423 6.84755 43.3057 8.97801 45.1699C11.5744 47.4333 14.5702 49.1641 17.8988 50.296C18.2318 50.429 18.6311 50.4957 18.9641 50.629C20.2956 51.0283 21.6935 51.2946 23.1583 51.4276C24.0236 51.4942 24.9558 51.5609 25.8211 51.5609C27.1526 51.5609 28.4842 51.4276 29.7491 51.2279C32.8114 50.762 35.6742 49.7634 38.2706 48.2989C39.2025 47.7663 40.1344 47.167 41 46.5677C43.5298 44.7039 45.7266 42.3071 47.4577 39.6441C49.9208 35.7164 51.3854 31.0562 51.3854 25.9967C51.3854 20.9369 49.9208 16.277 47.3911 12.349ZM38.2706 5.3588C39.2025 5.95797 40.1344 6.55712 41 7.28944C41.6656 7.82203 42.2649 8.35461 42.8642 8.95378C43.3968 9.48637 43.9291 10.0189 44.3953 10.6181C44.3287 10.6181 44.262 10.5515 44.1954 10.5515C43.1968 9.35321 42.1319 8.28805 41.0667 7.4226C40.667 7.15629 40.3344 6.82342 39.9348 6.62371C39.4022 6.29084 38.8695 5.95797 38.3369 5.69167C37.2054 5.09252 36.0735 4.6265 34.8752 4.29363C34.4756 3.82761 34.0097 3.42818 33.477 3.09532C35.0749 3.69446 36.7394 4.49335 38.2706 5.3588ZM29.7491 5.89138C30.8143 5.22564 32.6118 4.69306 34.3426 4.6265C35.7405 4.95937 37.0057 5.49195 38.2706 6.15769C38.7365 6.424 39.2025 6.69027 39.6018 6.95658C40.0681 7.28944 40.534 7.62231 40.9333 7.95518C42.1982 9.02035 43.3968 10.2187 44.595 11.7499C45.5269 13.6805 45.8599 16.0107 45.3273 17.6748C43.8627 18.0745 42.4645 18.4738 40.9333 18.8067C40.2011 19.0064 39.4022 19.206 38.6699 19.3393C38.5369 19.206 38.4036 19.0064 38.2039 18.8734C36.1401 16.7429 33.477 15.0784 30.7476 14.08C30.6143 12.6153 30.4147 11.1507 30.082 9.75267C29.9487 9.22006 29.8157 8.75407 29.6824 8.22146C29.4828 7.55572 29.2831 6.95658 29.0168 6.42399C29.2831 6.22425 29.4828 6.02453 29.7491 5.89138ZM23.1583 4.82622C25.2885 5.02593 27.2193 5.55851 28.6838 6.49056C29.1498 7.48916 29.4828 8.62092 29.7491 9.81923V9.8858C30.082 11.2839 30.2817 12.7485 30.4147 14.1465C30.215 14.2797 29.9487 14.3462 29.7491 14.4795C27.3523 15.811 24.7559 17.8082 23.1583 19.539C23.0917 19.6057 23.025 19.7386 22.892 19.8053C21.5605 19.4057 20.2956 19.1397 18.9641 18.8734C18.6978 18.8067 18.4315 18.7401 18.1651 18.7401L17.8988 18.6734C16.3676 18.4071 14.8365 18.2075 13.3053 18.0745C12.3067 15.811 11.9737 13.5473 11.9074 11.0176C12.8393 9.68608 14.0375 8.48776 15.3691 7.4226C16.168 6.82342 16.9669 6.29084 17.8322 5.75826C18.1651 5.55851 18.5648 5.3588 18.8974 5.22565C19.297 5.02593 19.6963 4.89278 20.096 4.69306C21.1609 4.69306 22.1594 4.69306 23.1583 4.82622ZM25.9544 29.2587C25.1555 30.6569 24.1569 32.0548 23.1583 33.3863L23.0917 33.453C22.0931 34.7842 21.0279 36.1157 19.896 37.3806C19.5633 37.3806 19.2304 37.3806 18.8974 37.3806C18.4981 37.3806 18.1651 37.3806 17.8322 37.3143C15.3024 37.1143 12.906 36.5154 10.7088 35.5831C10.0432 34.3849 9.44397 33.12 8.97801 31.8551C8.84469 31.5222 8.7117 31.1229 8.57871 30.7899C8.04609 29.2587 7.71313 27.6609 7.44683 25.9967C7.91279 24.8648 8.37873 23.8662 8.97801 22.9343C10.1762 20.9369 11.6411 19.4057 13.2386 18.2741C14.8365 18.4071 16.3676 18.6071 17.8988 18.8734L18.0985 18.9397C18.3648 19.0064 18.6978 19.073 18.9641 19.073C20.229 19.3393 21.4272 19.6057 22.6921 19.9383C22.8254 20.4046 23.025 20.9369 23.1583 21.4031C24.0236 24.1326 24.9558 26.729 25.9544 29.2587ZM8.77836 8.95378L8.91135 8.82063C11.4411 6.3574 14.4372 4.42679 17.8322 3.29503C18.1651 3.16188 18.5648 3.02872 18.8974 2.96216C19.297 2.82901 19.763 2.69585 20.1623 2.62929C19.6963 3.09532 19.6297 3.76105 19.5633 4.55991C19.3634 4.6265 19.1637 4.75965 18.9641 4.82622C18.5648 5.02593 18.2318 5.15908 17.8988 5.3588C16.9003 5.89138 15.9684 6.49055 15.1694 7.08973C13.7712 8.15489 12.573 9.41981 11.6411 10.7513C10.7089 10.951 9.84359 11.2173 8.97801 11.5501C7.64647 12.0827 6.58125 12.815 5.71599 13.7471C5.71599 13.5473 5.64933 13.3476 5.64933 13.1479C5.64933 13.0814 5.64933 12.9482 5.64933 12.8816C6.51491 11.4836 7.57981 10.1521 8.77836 8.95378ZM3.58552 16.7429C4.05147 15.611 4.65075 14.4795 5.25002 13.4808C5.25002 13.7471 5.31636 13.9468 5.38301 14.2131L5.31636 14.3462C4.65075 15.2784 4.05147 16.4766 3.65217 17.8082C3.11956 19.539 2.7866 21.3365 2.91991 23.0673C2.52029 23.4669 2.18732 23.9329 1.85468 24.5319C1.98767 21.7358 2.58694 19.1397 3.58552 16.7429ZM7.31351 41.2419C7.24718 41.2419 7.18051 41.1752 7.18051 41.1752C5.71598 39.3778 4.51743 37.3806 3.65217 35.2505C2.45363 32.3878 1.78802 29.2587 1.78802 25.9967C1.78802 25.7971 1.78802 25.5307 1.78802 25.3308C1.85467 25.1311 1.98768 24.9315 2.12099 24.7318C2.3873 24.2655 2.71994 23.7996 3.0529 23.4003C3.25255 23.5999 3.45252 23.7996 3.65217 23.9996C4.65075 24.8648 5.78231 25.5307 7.11385 25.9967C7.38016 27.7275 7.77979 29.3917 8.3124 31.0562C8.51205 31.7218 8.77836 32.3878 9.04467 33.0534C9.51062 34.1186 9.97658 35.1172 10.5759 36.1157C9.84359 37.9799 9.37732 39.844 9.51063 41.8412C9.37732 41.8412 9.24432 41.8412 9.11101 41.7745C8.37874 41.6415 7.84613 41.5082 7.31351 41.2419ZM17.8322 48.6982C14.4372 47.5 11.4411 45.6358 8.91135 43.1727L8.77836 43.0394C8.37874 42.6401 8.0461 42.3071 7.71313 41.9078C8.11243 42.0408 8.51205 42.1741 8.97801 42.2405C9.17766 42.2405 9.31098 42.3071 9.51063 42.3071C10.4425 44.3043 14.6368 47.167 17.4329 47.6996C17.4995 47.9659 17.6325 48.3652 17.8322 48.6982ZM36.0735 47.7663C34.0763 48.6982 32.0125 49.3638 29.7491 49.7634C28.4842 49.9631 27.1526 50.0964 25.8211 50.0964C24.8892 50.0964 24.0236 50.0297 23.1583 49.9631C21.6935 49.8301 20.2956 49.4971 18.9641 49.0978C18.8308 49.0311 18.6978 49.0311 18.6311 48.9645C18.2985 48.6315 18.0985 48.2322 17.8988 47.7663V47.6996C18.2985 47.6996 18.6311 47.633 18.9641 47.5666C20.5619 47.3003 21.8935 46.701 23.1583 45.7691C23.4246 45.5692 23.691 45.3695 23.9569 45.1032C25.0888 45.5692 26.7533 45.7691 28.4842 45.7691C28.8835 45.7691 29.2831 45.7691 29.7491 45.7025C31.2803 45.5692 32.8781 45.3028 34.3426 44.9035C34.9419 45.7025 35.6742 46.4347 36.5394 46.9007C36.4064 47.2337 36.2731 47.5 36.0735 47.7663ZM38.2706 46.5677C37.738 46.9007 37.2717 47.167 36.7394 47.4333C36.8057 47.3003 36.8724 47.1003 36.9391 46.9673C37.3384 46.834 37.8043 46.701 38.2706 46.5677C38.3369 46.5014 38.4036 46.5014 38.4702 46.4347L38.2706 46.5677ZM38.2706 40.7093C37.2054 42.2405 36.0068 43.572 34.8752 44.3043C33.344 44.8369 31.4799 45.1699 29.7491 45.3028C29.3494 45.3028 28.8835 45.3695 28.4842 45.3695C26.6867 45.3695 25.0888 45.1699 24.0236 44.7039C23.691 44.3043 23.4246 43.905 23.1583 43.5054C21.9598 41.7745 20.8946 39.844 20.2956 37.7136C21.2942 36.5154 22.2261 35.3835 23.1583 34.1852C23.2913 33.9856 23.4246 33.8523 23.5576 33.6526C24.5562 32.3211 25.4881 30.9896 26.2871 29.5917C27.4189 29.658 28.6172 29.7247 29.8157 29.7247C31.8795 29.7247 33.943 29.658 36.0068 29.4584C36.8724 30.4569 37.6047 31.5888 38.3369 32.7871C38.4036 32.9204 38.4702 32.9867 38.5369 33.12C39.2025 34.3182 39.8018 35.5831 40.2677 36.9813C39.6685 38.3128 39.0028 39.5777 38.2706 40.7093ZM40.9333 36.9813C40.8004 36.9813 40.667 36.9813 40.534 36.9813C40.0014 35.5168 39.4022 34.1852 38.7365 32.9204C38.5369 32.5874 38.4036 32.3211 38.2039 31.9881C37.6047 31.0562 37.0057 30.1243 36.2731 29.3254C37.1387 27.4612 37.738 25.6637 38.2039 23.7996C38.5369 22.4684 38.7365 21.1368 38.8032 19.672C39.5355 19.4723 40.2011 19.3393 40.8667 19.1397C42.3315 18.7401 43.7961 18.4071 45.2606 18.0078C45.9265 18.4738 46.6588 19.3393 47.3244 20.4709C47.9237 21.5361 48.4563 22.8677 48.7893 24.2655C48.9223 26.4627 48.7226 28.4598 48.19 30.3906C47.9237 31.2559 47.6574 32.1214 47.2577 32.9867C46.9251 33.7856 46.4592 34.5179 45.9929 35.2505C44.4617 36.382 42.5979 36.9147 40.9333 36.9813ZM45.8599 39.2448C46.3925 37.9799 46.5921 36.7817 46.4592 35.5831C46.7918 35.0505 47.1248 34.5179 47.3911 33.9856C47.9237 32.9204 48.3896 31.7885 48.7226 30.5903C49.1886 28.7928 49.3882 26.9286 49.3216 24.9315C49.4549 24.7982 49.6545 24.5319 49.7878 24.1992C49.8542 24.7982 49.8542 25.3308 49.8542 25.93C49.8542 29.7247 48.9889 33.3197 47.3911 36.5154C46.9918 37.5139 46.4591 38.3792 45.8599 39.2448Z" fill="#1C1C1C"/>
</svg>
