<svg width="459" height="163" viewBox="0 0 459 163" fill="none" xmlns="http://www.w3.org/2000/svg">
<g filter="url(#filter0_d_2082_77796)">
<path d="M58.744 6.16H45.748V39.068C45.748 42.336 44.76 44.996 42.784 47.124C40.808 49.252 38.072 50.24 34.576 50.24C31.08 50.24 28.42 49.252 26.444 47.124C24.468 44.996 23.48 42.336 23.48 39.068V6.16H10.408V39.068C10.408 46.212 12.536 51.836 16.868 55.788C21.124 59.74 27.052 61.716 34.576 61.716C42.1 61.716 48.028 59.74 52.284 55.788C56.54 51.836 58.744 46.212 58.744 39.068V6.16ZM114.372 60.5V49.328H90.0524V6.16H76.9804V60.5H114.372ZM145.291 60.5V17.18H161.631V6.16H115.879V17.18H132.219V60.5H145.291ZM190.824 60.5V6.16H177.752V60.5H190.824ZM244.776 53.812L257.772 26.756V60.5H270.54V6.16H256.252L240.064 40.056L223.876 6.16H209.284V60.5H221.9V26.148L235.2 53.812H244.776ZM343.1 60.5L321.896 6.16H307.38L286.176 60.5H299.78L303.352 50.62H325.468L329.04 60.5H343.1ZM307.38 39.752L314.448 20.296L321.516 39.752H307.38ZM376.67 60.5V17.18H393.01V6.16H347.258V17.18H363.598V60.5H376.67ZM448.802 60.5V49.632H422.202V38.612H447.358V27.744H422.202V17.028H448.802V6.16H409.13V60.5H448.802Z" fill="#F5FF63"/>
<path d="M10.712 147.5H30.624C36.628 147.5 41.872 146.36 46.356 144.004C50.84 141.724 54.336 138.532 56.844 134.428C59.276 130.324 60.568 125.612 60.568 120.292C60.568 114.972 59.276 110.336 56.844 106.232C54.336 102.128 50.84 98.936 46.356 96.656C41.872 94.376 36.628 93.16 30.624 93.16H10.712V147.5ZM23.784 136.632V104.028H30.624C35.64 104.028 39.592 105.548 42.48 108.436C45.368 111.4 46.812 115.352 46.812 120.292C46.812 125.308 45.368 129.336 42.48 132.224C39.592 135.188 35.64 136.632 30.624 136.632H23.784ZM90.9431 147.5V93.16H77.8711V147.5H90.9431ZM141.247 147.5L162.831 93.16H148.999L134.939 132.148L120.879 93.16H106.667L128.251 147.5H141.247ZM191.64 147.5V93.16H178.568V147.5H191.64ZM207.44 138.532C210.1 141.572 213.596 144.004 217.852 145.904C222.108 147.804 227.048 148.716 232.52 148.716C237.08 148.716 241.184 148.032 244.68 146.664C248.176 145.296 250.988 143.244 253.04 140.66C255.016 138.076 256.08 135.036 256.08 131.464C256.08 126.676 254.256 122.876 250.684 119.988C247.112 117.176 241.792 115.2 234.724 114.06C231.684 113.604 229.252 113.072 227.58 112.616C225.832 112.16 224.616 111.552 223.932 110.868C223.248 110.26 222.944 109.424 222.944 108.512C222.944 106.916 223.78 105.624 225.528 104.56C227.2 103.572 229.48 103.04 232.216 103.04C234.952 103.04 237.688 103.724 240.424 105.092C243.16 106.46 245.364 108.36 247.112 110.716L255.624 102.052C252.964 99.088 249.62 96.656 245.668 94.756C241.716 92.932 237.156 91.944 232.064 91.944C227.732 91.944 223.856 92.704 220.512 94.224C217.168 95.744 214.508 97.796 212.608 100.38C210.632 103.04 209.72 106.08 209.72 109.424C209.72 113.908 211.392 117.556 214.812 120.292C218.232 123.028 223.628 124.928 231 125.916C235.56 126.6 238.676 127.436 240.348 128.5C242.02 129.564 242.856 130.78 242.856 132.3C242.856 133.896 241.944 135.188 240.272 136.1C238.6 137.088 236.092 137.544 232.824 137.544C230.696 137.544 228.644 137.24 226.516 136.632C224.388 136.024 222.336 135.188 220.512 133.972C218.688 132.832 217.168 131.464 216.028 129.868L207.44 138.532ZM286.4 147.5V93.16H273.328V147.5H286.4ZM333.36 148.716C337.616 148.716 341.568 148.032 345.216 146.588C348.788 145.22 351.904 143.244 354.564 140.66C357.224 138.152 359.276 135.188 360.72 131.692C362.164 128.196 362.924 124.396 362.924 120.292C362.924 116.188 362.164 112.464 360.72 108.968C359.276 105.548 357.224 102.584 354.564 100C351.904 97.492 348.788 95.516 345.216 94.072C341.568 92.704 337.616 91.944 333.36 91.944C329.028 91.944 325.076 92.704 321.504 94.072C317.856 95.516 314.74 97.492 312.08 100C309.42 102.584 307.368 105.548 305.924 108.968C304.48 112.464 303.796 116.188 303.796 120.292C303.796 124.396 304.48 128.196 305.924 131.692C307.368 135.188 309.42 138.152 312.08 140.66C314.74 143.244 317.856 145.22 321.504 146.588C325.076 148.032 329.028 148.716 333.36 148.716ZM333.36 137.24C330.244 137.24 327.508 136.556 325.152 135.112C322.72 133.668 320.896 131.692 319.528 129.108C318.16 126.524 317.552 123.636 317.552 120.292C317.552 117.024 318.16 114.136 319.528 111.552C320.896 109.044 322.72 107.068 325.152 105.624C327.508 104.18 330.244 103.42 333.36 103.42C336.476 103.42 339.212 104.18 341.568 105.624C343.924 107.068 345.748 109.044 347.116 111.552C348.484 114.136 349.168 117.024 349.168 120.292C349.168 123.636 348.484 126.524 347.116 129.108C345.748 131.692 343.924 133.668 341.568 135.112C339.212 136.556 336.476 137.24 333.36 137.24ZM393.177 147.5V113.528L415.825 147.5H429.429V93.16H416.585V127.132L393.937 93.16H380.333V147.5H393.177Z" fill="white"/>
</g>
<defs>
<filter id="filter0_d_2082_77796" x="0.407959" y="0.159973" width="458.394" height="162.556" filterUnits="userSpaceOnUse" color-interpolation-filters="sRGB">
<feFlood flood-opacity="0" result="BackgroundImageFix"/>
<feColorMatrix in="SourceAlpha" type="matrix" values="0 0 0 0 0 0 0 0 0 0 0 0 0 0 0 0 0 0 127 0" result="hardAlpha"/>
<feOffset dy="4"/>
<feGaussianBlur stdDeviation="5"/>
<feColorMatrix type="matrix" values="0 0 0 0 0.03125 0 0 0 0 0.14278 0 0 0 0 0.3125 0 0 0 0.36 0"/>
<feBlend mode="normal" in2="BackgroundImageFix" result="effect1_dropShadow_2082_77796"/>
<feBlend mode="normal" in="SourceGraphic" in2="effect1_dropShadow_2082_77796" result="shape"/>
</filter>
</defs>
</svg>
