<svg width="18" height="18" viewBox="0 0 18 18" fill="none" xmlns="http://www.w3.org/2000/svg">
<path d="M10.9978 8.99981L17.0894 2.92231C17.3562 2.65555 17.5061 2.29374 17.5061 1.91648C17.5061 1.53922 17.3562 1.17741 17.0894 0.910648C16.8227 0.643885 16.4609 0.494019 16.0836 0.494019C15.7064 0.494019 15.3445 0.643885 15.0778 0.910648L9.00028 7.00232L2.92278 0.910648C2.65602 0.643885 2.29421 0.494019 1.91695 0.494019C1.53969 0.494019 1.17788 0.643885 0.911113 0.910648C0.644349 1.17741 0.494483 1.53922 0.494483 1.91648C0.494483 2.29374 0.644349 2.65555 0.911113 2.92231L7.00278 8.99981L0.911113 15.0773C0.778331 15.209 0.67294 15.3657 0.601017 15.5383C0.529095 15.711 0.492065 15.8961 0.492065 16.0831C0.492065 16.2702 0.529095 16.4553 0.601017 16.628C0.67294 16.8006 0.778331 16.9573 0.911113 17.089C1.04281 17.2218 1.1995 17.3272 1.37213 17.3991C1.54476 17.471 1.72993 17.508 1.91695 17.508C2.10396 17.508 2.28913 17.471 2.46176 17.3991C2.6344 17.3272 2.79108 17.2218 2.92278 17.089L9.00028 10.9973L15.0778 17.089C15.2095 17.2218 15.3662 17.3272 15.5388 17.3991C15.7114 17.471 15.8966 17.508 16.0836 17.508C16.2706 17.508 16.4558 17.471 16.6284 17.3991C16.8011 17.3272 16.9577 17.2218 17.0894 17.089C17.2222 16.9573 17.3276 16.8006 17.3995 16.628C17.4715 16.4553 17.5085 16.2702 17.5085 16.0831C17.5085 15.8961 17.4715 15.711 17.3995 15.5383C17.3276 15.3657 17.2222 15.209 17.0894 15.0773L10.9978 8.99981Z" fill="black"/>
</svg>
