<svg width="200" height="223" viewBox="0 0 200 223" fill="none" xmlns="http://www.w3.org/2000/svg">
<path d="M100.056 218.729L0.668823 161.405V57.5512L100.056 114.875V218.729Z" fill="#87A2B4"/>
<path d="M0.668823 57.5512V161.405L100.056 218.729L3.64671 159.916L0.668823 57.5512Z" fill="#647D89"/>
<path d="M100.055 218.729L199.442 161.405V57.5513L100.055 114.876V218.729Z" fill="#647D89"/>
<path d="M100.055 218.729L199.442 161.404V159.543L100.055 216.868V218.729Z" fill="#536A76"/>
<path d="M100.056 114.876L0.668884 57.5514L100.056 0.227188L199.443 57.5514L100.056 114.876Z" fill="#A6CADC"/>
<path d="M191.254 57.5515L107.128 106.314L100.056 110.037L93.3557 106.314L9.23053 57.5515L100.056 5.06633L191.254 57.5515Z" fill="#4B6470"/>
<path d="M100.056 5.06633V110.037L9.23053 57.5515L100.056 5.06633Z" fill="#647D89"/>
<path d="M107.128 106.314L100.055 110.036L93.3551 106.314L100.055 102.219L107.128 106.314Z" fill="#587481"/>
<path d="M100 0L0 57.5251L101.003 115.05L200 57.5251L100 0Z" fill="#A6CADC"/>
<path d="M101.003 128.428V115.05L200 57.5251V70.903L101.003 128.428Z" fill="#536A76"/>
<path d="M101.003 128.428V115.05L-4.57764e-05 57.5251V70.903L101.003 128.428Z" fill="#9FBED2"/>
<path d="M192.742 57.9931L100.428 110.851L0 57.5251L101.003 115.05L200 57.5251L100 0L192.742 57.9931Z" fill="#BEDFEF"/>
<path d="M44.1472 32.1071L144.816 89.6322L160.201 80.6021L44.4816 31.7726L44.1472 32.1071Z" fill="#647D89"/>
<path d="M60.5351 22.7425L102.661 46.0817L86.2825 55.7598L44.4816 31.7726L60.5351 22.7425Z" fill="#C5EAFA"/>
<path d="M162.207 79.2642L144.816 89.6321L102.661 65.0658L119.783 55.7599L162.207 79.2642Z" fill="#C5EAFA"/>
<path d="M56.1874 89.6321L159.177 33.9992L159.866 34.4481L58.863 90.9699L56.1874 89.6321Z" fill="#647D89"/>
<path d="M119.784 55.7594L102.661 65.0653L86.2823 55.7594L102.661 46.0813L119.784 55.7594Z" fill="#D8F2FF"/>
<path d="M86.2827 55.7599L102.661 65.0658L58.5285 91.3043L41.1371 80.9364L86.2827 55.7599Z" fill="#C5EAFA"/>
<path d="M159.866 34.4482L119.783 55.7601L102.661 46.082L141.806 24.0803L159.866 34.4482Z" fill="#C5EAFA"/>
<path d="M141.2 184.167L141.199 193.326L107.765 212.631L107.766 203.086C107.766 197.017 110.536 192.273 115.695 189.294L118.417 187.722C121.952 185.681 124.483 185.489 125.581 188.11C126.68 184.772 128.877 182.289 132.316 180.304L133.51 179.614C138.668 176.636 141.2 177.878 141.2 184.167ZM122.811 195.171C122.811 192.413 121.856 191.805 118.751 193.598L115.838 195.28C113.354 196.714 112.542 198.287 112.542 200.328L112.542 203.804L122.811 197.875L122.811 195.171ZM136.423 187.091C136.423 184.939 135.373 184.608 132.985 185.987L131.122 187.062C128.447 188.607 127.587 190.482 127.587 192.744L127.587 195.117L136.423 190.015L136.423 187.091Z" fill="#536A76"/>
<path d="M133.51 169.78C135.899 168.401 136.806 166.663 136.806 164.732C136.806 162.801 135.899 162.111 133.511 163.49L115.457 173.915C113.068 175.294 112.161 177.031 112.161 178.962C112.161 180.894 113.068 181.583 115.456 180.204L133.51 169.78ZM115.79 186.08C110.441 189.169 107.384 187.679 107.385 181.72C107.385 175.762 110.442 170.742 115.791 167.653L133.177 157.614C138.526 154.526 141.583 156.016 141.582 161.974C141.582 167.933 138.525 172.953 133.176 176.042L115.79 186.08Z" fill="#536A76"/>
<path d="M141.201 135.225L128.878 147.03L141.201 144.494L141.201 150.783L124.962 153.815L107.767 170.529L107.767 164.847L120.998 152.187L107.768 154.861L107.768 148.461L124.962 145.319L141.202 129.597L141.201 135.225Z" fill="#536A76"/>
<path d="M161.475 183.366V79.5127L144.352 89.9665L143.478 193.645L161.475 183.366Z" fill="#4D6775"/>
<path d="M162.219 182.943V79.1409L144.482 89.6321V192.977L162.219 182.943Z" fill="#8FBACE"/>
<path d="M42.3592 185.304V82.4154L58.3653 91.3491L58.8629 194.983L42.3592 185.304Z" fill="#4D6775"/>
<path d="M40.8705 184.615L41.1372 80.9364L58.5285 90.9699L56.8766 193.98L40.8705 184.615Z" fill="#AACCE1"/>
</svg>
