<svg width="268" height="288" viewBox="0 0 268 288" fill="none" xmlns="http://www.w3.org/2000/svg">
<g filter="url(#filter0_d)">
<path d="M230.166 94.2142L134.631 39.1118L39.097 94.2141L39.0967 194.042L77.7401 216.331L77.7401 216.353L93.1258 225.355L93.1282 225.207L93.7009 225.537L95.0352 226.319L95.0351 226.306L134.631 249.145L182.914 221.296L193.67 215.153V215.151L194.385 214.746V214.68L230.166 194.042V94.2142Z" fill="#F7DDC4"/>
</g>
<g filter="url(#filter1_f)">
<path d="M234 91.667L134 34L34.0003 91.6668L34 196.141L74.4497 219.467L74.4496 219.491L90.5545 228.911L90.557 228.756L91.1564 229.102L92.553 229.921L92.553 229.907L134 253.808L184.539 224.664L195.798 218.234V218.232L196.547 217.809V217.739L234 196.141V91.667Z" fill="url(#paint0_linear)"/>
</g>
<path d="M134.631 246.237L41.9343 192.772V95.9086L134.631 149.374V246.237Z" fill="#DB4534"/>
<path d="M127.063 234.384L49.0785 189.341V107.738L127.063 152.781V234.384Z" fill="#DB4534"/>
<path d="M41.9343 95.9086V192.772L134.631 246.237L44.7118 191.383L41.9343 95.9086Z" fill="#F56C5D"/>
<path d="M134.631 246.238L227.328 192.772V95.9087L134.631 149.374V246.238Z" fill="#BF1300"/>
<path d="M134.631 246.237L227.328 192.771V191.035L134.631 244.501V246.237Z" fill="#DB4534"/>
<path d="M134.631 149.375L41.9344 95.9089L134.631 42.4432L227.328 95.9089L134.631 149.375Z" fill="#A6CADC"/>
<path d="M219.691 95.9089L141.228 141.389L134.632 144.861L128.382 141.389L49.9197 95.9089L134.632 46.9566L219.691 95.9089Z" fill="#4B6470"/>
<path d="M134.632 46.9566V144.861L49.9197 95.9089L134.632 46.9566Z" fill="#647D89"/>
<path d="M141.228 141.389L134.631 144.861L128.382 141.389L134.631 137.57L141.228 141.389Z" fill="#587481"/>
<path d="M134.579 42.2312L41.3105 95.8842L135.515 149.537L227.848 95.8842L134.579 42.2312Z" fill="#FF8375"/>
<path d="M135.515 174.492V149.537L227.848 95.8842V120.839L135.515 174.492Z" fill="#E3311C"/>
<path d="M135.515 174.492V149.537L41.3105 95.8842V120.839L135.515 174.492Z" fill="#FF5845"/>
<path d="M221.079 96.3208L134.979 145.62L41.3105 95.8842L135.515 149.537L227.848 95.8842L134.579 42.2312L221.079 96.3208Z" fill="#FFA197"/>
<path d="M80.8329 70.3054L174.726 123.958L189.075 115.536L81.1448 69.9935L80.8329 70.3054Z" fill="#647D89"/>
<path d="M96.1177 61.5713L135.408 83.3395L120.132 92.3662L81.1448 69.9936L96.1177 61.5713Z" fill="#C5EAFA"/>
<path d="M190.712 116.559L174.242 126.228L135.173 100.82L151.143 92.1409L190.712 116.559Z" fill="#C5EAFA"/>
<path d="M92.0626 123.958L188.12 72.0701L188.763 72.4889L94.5581 125.206L92.0626 123.958Z" fill="#647D89"/>
<path d="M151.378 92.3659L135.408 101.045L120.132 92.3659L135.408 83.3392L151.378 92.3659Z" fill="#D8F2FF"/>
<path d="M120.132 92.3664L135.408 101.046L94.2461 125.518L78.0254 115.848L120.132 92.3664Z" fill="#C5EAFA"/>
<path d="M188.763 72.4889L151.378 92.3663L135.408 83.3397L171.918 62.8189L188.763 72.4889Z" fill="#C5EAFA"/>
<path d="M156.643 96.1695L139.159 106.052L122.056 96.1695L138.779 86.2873L156.643 96.1695Z" fill="#FFDF31"/>
<path opacity="0.3" d="M113.651 94.3199C113.651 94.3199 95.4254 86.9018 96.0863 95.8661C96.7471 104.83 115.964 102.412 115.964 102.412H121.912C121.912 102.412 113.981 123.869 131.825 123.869C149.668 123.869 151.651 116.233 148.677 112.249C145.703 108.264 144.712 101.624 144.712 101.624C144.712 101.624 155.947 102.563 164.538 102.231C173.129 101.567 186.346 100.571 185.686 96.5871C185.025 92.6029 189.32 86.0195 177.094 89.3397C164.868 92.6598 144.381 90.3357 144.381 90.3357L133.147 76.0591L125.216 77.3872V86.3516L113.651 94.3199Z" fill="black"/>
<path d="M147.521 59.6821C147.521 78.3062 141.44 91.229 141.44 91.229L129.657 89.3286L130.037 86.2879C130.037 86.2879 121.676 59.6821 127.757 53.9808C128.517 53.2207 129.277 52.8406 130.418 52.8406C140.3 52.8406 147.521 52.4605 147.521 59.6821Z" fill="#FFDF52"/>
<path d="M130.798 61.202C130.798 61.202 132.318 74.885 131.938 77.5456C131.558 80.5863 131.938 84.007 131.938 84.007L144.481 81.7265C144.481 81.7265 146.761 72.2244 147.142 66.5232C147.142 60.8219 147.142 60.8219 147.142 60.8219L145.621 71.0842C145.621 72.2244 144.101 72.6045 143.721 71.4642C142.581 70.324 141.44 69.5638 139.92 69.5638C138.4 69.5638 136.879 70.324 135.359 71.0842C133.839 71.8443 132.318 71.0842 131.938 69.5638C131.558 66.9032 131.178 63.1024 130.798 61.202Z" fill="#FAC22A"/>
<path d="M131.178 89.328H130.038L130.418 86.2873C130.418 86.2873 122.056 59.6814 128.138 53.9802C128.898 54.7404 129.658 55.8806 130.038 57.781C131.938 71.8441 131.558 83.6267 131.178 89.328Z" fill="#FAB01B"/>
<path d="M126.997 55.881C126.997 55.881 124.716 57.0212 126.997 70.3242C129.277 84.0072 131.178 87.808 131.178 87.808C131.178 87.808 130.418 49.7996 126.997 55.881Z" fill="#D85E00"/>
<path d="M141.44 90.0893C141.44 90.0893 155.883 93.8901 169.186 90.0893C182.489 86.2884 194.271 78.3067 194.271 78.3067L198.072 88.949C198.072 88.949 182.489 106.433 141.059 97.691L141.44 90.0893Z" fill="#D85E00"/>
<path d="M141.44 90.0887C141.44 90.0887 172.226 61.9625 185.149 66.5235C198.072 71.0845 198.072 87.8082 198.072 88.9485C198.072 88.9485 190.85 73.365 166.525 87.8082C155.883 94.2696 141.059 97.6904 141.059 97.6904L141.44 90.0887Z" fill="url(#paint1_linear)"/>
<path d="M139.54 90.0893C139.54 90.0893 125.097 93.8901 111.794 90.0893C98.4908 86.2884 86.7082 78.3067 86.7082 78.3067L82.9073 88.949C82.9073 88.949 99.631 106.433 141.06 97.691L139.54 90.0893Z" fill="#D85E00"/>
<path d="M141.06 98.0708C141.06 98.0708 125.097 95.0301 114.455 88.1886C98.111 78.3064 89.3691 82.4873 85.5683 85.9081C83.6678 87.4284 82.9077 89.3288 82.9077 89.3288C82.5276 88.1886 82.5276 78.6865 88.2288 71.845C90.1293 69.5645 92.4097 68.0441 95.4504 66.9039C108.373 62.3429 139.16 90.4691 139.16 90.4691L141.06 98.0708Z" fill="url(#paint2_linear)"/>
<path d="M142.58 84.0078C142.58 84.0078 144.861 76.026 138.399 76.4061C131.558 76.4061 130.038 76.4061 130.038 81.3472C130.038 86.2883 135.739 91.6095 135.739 91.6095L142.58 84.0078Z" fill="#FADD4A"/>
<path d="M138.4 80.2063C138.4 80.2063 143.721 74.1249 147.141 79.4461C150.562 85.1473 151.702 86.2876 147.522 88.9482C143.341 91.6088 135.739 90.0884 135.739 90.0884L138.4 80.2063Z" fill="#FEC200"/>
<path d="M133.078 81.3466C133.078 81.3466 127.757 75.2652 124.336 80.5864C120.916 86.2877 119.775 87.4279 123.956 90.0885C128.137 92.7491 135.739 91.2287 135.739 91.2287L133.078 81.3466Z" fill="#FEC200"/>
<path d="M143.72 86.2885C146.001 87.8088 146.381 95.0304 137.259 95.0304C128.137 95.0304 124.336 95.0304 125.856 90.0893C127.757 83.6279 136.499 86.2885 136.499 86.2885C136.499 86.2885 142.2 85.5283 143.72 86.2885Z" fill="#FAB01B"/>
<path d="M130.418 90.469C130.418 90.469 126.997 89.3287 123.196 97.6906C117.115 110.994 122.056 121.256 125.097 122.396C131.178 124.296 145.241 125.057 147.142 118.215C149.042 110.994 142.58 90.8491 142.58 90.8491L137.639 91.6092L130.418 90.469Z" fill="#FADD4A"/>
<path d="M130.418 90.469C130.418 90.469 126.997 89.3287 123.196 97.6906C117.115 110.994 122.056 121.256 125.097 122.396C131.178 124.296 145.241 125.057 147.142 118.215C149.042 110.994 142.58 90.8491 142.58 90.8491L137.639 91.6092L130.418 90.469Z" fill="#FFE45C"/>
<path d="M142.581 90.4689L141.821 90.849C142.961 95.41 146.762 107.953 145.242 113.274C143.341 119.355 131.178 118.595 125.857 117.075C120.536 115.554 118.256 108.333 123.957 95.41C123.957 95.0299 124.337 94.6498 124.337 94.2697C123.577 95.0299 123.197 96.1701 122.437 97.6905C116.355 110.993 121.296 121.256 124.337 122.396C130.418 124.296 144.481 125.056 146.382 118.215C149.042 110.613 142.581 90.4689 142.581 90.4689Z" fill="#FAB01B"/>
<path d="M125.097 109.853C122.816 109.093 122.436 107.572 121.296 105.292C118.635 115.174 120.155 120.875 125.097 122.396C131.178 124.296 145.241 125.056 147.141 118.215C147.902 115.554 147.521 111.373 146.761 106.812C143.721 112.513 130.798 111.753 125.097 109.853Z" fill="#FFD13B"/>
<path d="M147.521 111.753C147.521 112.133 147.521 112.513 147.141 112.893C145.241 120.115 131.178 118.975 125.096 117.074C122.056 115.934 121.295 113.274 120.535 109.093C119.775 115.934 120.915 120.495 125.096 121.635C131.178 123.536 145.241 124.296 147.141 117.454C147.521 116.314 147.521 114.034 147.521 111.753Z" fill="#FAB01B"/>
<path d="M199.107 169.832L199.107 166.887L201.226 165.663L201.226 171.293L200.137 171.239C199.502 171.207 199.107 170.667 199.107 169.832Z" fill="#516069"/>
<path d="M207.109 165.212L207.109 162.266L204.991 163.49L204.99 169.12L206.079 167.808C206.714 167.042 207.109 166.046 207.109 165.212Z" fill="#516069"/>
<path d="M200.951 165.175L205.477 162.562L205.477 169.199L203.431 171.581C203.277 171.761 203.094 171.866 202.94 171.864L200.951 171.835L200.951 165.175Z" fill="#84A0B3"/>
<path d="M203.033 152.966L199.158 155.672C198.651 156.026 198.266 156.742 198.266 157.331L198.265 169.428C198.265 169.912 198.528 170.193 198.922 170.13L202.797 169.515C203.016 169.48 203.257 169.342 203.476 169.123L207.351 165.263C207.745 164.87 208.008 164.287 208.008 163.803L208.008 151.706C208.008 151.117 207.623 150.846 207.116 151.077L203.241 152.846C203.172 152.878 203.102 152.918 203.033 152.966Z" fill="#91B0C5"/>
<path d="M212.591 164.603L212.592 161.272C212.592 160.927 212.833 160.508 213.132 160.336L215.186 159.15C215.485 158.977 215.727 159.117 215.727 159.462L215.727 161.841C215.727 162.096 215.592 162.403 215.387 162.616L213.333 164.754C212.978 165.123 212.591 165.045 212.591 164.603Z" fill="#8C7A79"/>
<path d="M212.591 164.603L212.592 161.272C212.592 160.927 212.833 160.508 213.132 160.336L215.186 159.15C215.485 158.977 215.727 159.117 215.727 159.462L215.727 161.841C215.727 162.096 215.592 162.403 215.387 162.616L213.333 164.754C212.978 165.123 212.591 165.045 212.591 164.603Z" fill="#516069"/>
<path d="M219.747 160.471L219.748 157.14C219.748 156.795 219.506 156.656 219.207 156.828L217.153 158.014C216.854 158.187 216.612 158.606 216.612 158.95L216.612 161.33C216.612 161.584 216.747 161.736 216.951 161.713L219.006 161.478C219.361 161.438 219.747 160.913 219.747 160.471Z" fill="#8C7A79"/>
<path d="M219.747 160.471L219.748 157.14C219.748 156.795 219.506 156.656 219.207 156.828L217.153 158.014C216.854 158.187 216.612 158.606 216.612 158.95L216.612 161.33C216.612 161.584 216.747 161.736 216.951 161.713L219.006 161.478C219.361 161.438 219.747 160.913 219.747 160.471Z" fill="#8C685C"/>
<path d="M219.747 160.471L219.748 157.14C219.748 156.795 219.506 156.656 219.207 156.828L217.153 158.014C216.854 158.187 216.612 158.606 216.612 158.95L216.612 161.33C216.612 161.584 216.747 161.736 216.951 161.713L219.006 161.478C219.361 161.438 219.747 160.913 219.747 160.471Z" fill="#516069"/>
<path d="M214.363 145C214.022 145.213 213.626 145.468 213.235 145.725C212.117 146.459 211.264 148.035 211.264 149.329L211.263 160.816C211.263 162.095 212.098 162.687 213.199 162.189L215.9 160.967C216.056 160.897 216.213 160.806 216.368 160.697L219.07 158.799C220.171 158.026 221.005 156.47 221.005 155.191L221.006 143.704C221.006 142.41 220.153 141.818 219.035 142.376C218.644 142.571 218.249 142.772 217.907 142.954C216.524 143.692 215.746 144.141 214.363 145Z" fill="#91B0C5"/>
<path fill-rule="evenodd" clip-rule="evenodd" d="M213.426 186.736L213.426 183.827L212.377 184.434L212.377 186.692C212.377 186.731 212.396 186.756 212.427 186.755L213.426 186.736Z" fill="#516069"/>
<path fill-rule="evenodd" clip-rule="evenodd" d="M217.251 184.528L217.251 181.619L218.301 181.013L218.301 183.271C218.301 183.31 218.281 183.358 218.251 183.393L217.251 184.528Z" fill="#516069"/>
<path d="M213.392 177.101L217.337 174.823L217.336 185.225C217.336 185.32 217.256 185.434 217.177 185.451L215.391 185.839C215.373 185.843 215.354 185.854 215.336 185.871L213.55 187.546C213.471 187.62 213.391 187.598 213.391 187.502L213.392 177.101Z" fill="#84A0B3"/>
<path d="M215.346 167.524L211.759 169.596C211.05 170.005 210.475 171.001 210.475 171.82L210.474 185.025C210.474 185.782 210.968 186.132 211.62 185.837L215.207 184.215C215.299 184.173 215.391 184.12 215.483 184.055L219.07 181.535C219.722 181.077 220.216 180.157 220.216 179.4L220.217 166.195C220.217 165.376 219.642 165.044 218.933 165.453L215.346 167.524Z" fill="url(#paint3_linear)"/>
<path d="M215.346 167.524L211.759 169.596C211.05 170.005 210.475 171.001 210.475 171.82L210.474 185.025C210.474 185.782 210.968 186.132 211.62 185.837L215.207 184.215C215.299 184.173 215.391 184.12 215.483 184.055L219.07 181.535C219.722 181.077 220.216 180.157 220.216 179.4L220.217 166.195C220.217 165.376 219.642 165.044 218.933 165.453L215.346 167.524Z" fill="#91B0C5"/>
<path d="M200.079 194.257L200.079 191.791L205.393 188.723L205.393 191.154C205.393 191.818 205.085 192.61 204.586 193.229L203.505 194.569C203.008 195.185 202.397 195.537 201.901 195.492L200.881 195.399C200.385 195.354 200.079 194.919 200.079 194.257Z" fill="#84A0B3"/>
<path fill-rule="evenodd" clip-rule="evenodd" d="M201.624 190.899L201.623 195.467L200.881 195.399C200.385 195.354 200.079 194.919 200.079 194.257L200.079 191.791L201.624 190.899Z" fill="#516069"/>
<path fill-rule="evenodd" clip-rule="evenodd" d="M201.571 195.462L201.571 190.93L201.624 190.9L201.623 195.467L201.571 195.462Z" fill="#B0D2DD"/>
<path fill-rule="evenodd" clip-rule="evenodd" d="M203.849 189.584L203.848 194.152L204.591 193.227C205.087 192.609 205.393 191.821 205.393 191.158L205.393 188.693L203.849 189.584Z" fill="#516069"/>
<path fill-rule="evenodd" clip-rule="evenodd" d="M203.901 194.087L203.901 189.554L203.849 189.585L203.848 194.152L203.901 194.087Z" fill="#B0D2DD"/>
<path d="M202.737 176.318L200.035 177.878C198.837 178.57 197.866 180.252 197.866 181.636L197.865 192.314C197.865 193.445 198.521 194.056 199.465 193.808L202.167 193.096C202.54 192.998 202.933 192.771 203.306 192.439L206.007 190.03C206.952 189.188 207.607 187.819 207.607 186.689L207.608 176.011C207.608 174.627 206.637 174.067 205.439 174.758L202.737 176.318Z" fill="#91B0C5"/>
<path d="M190.263 213.879V117.015L174.477 126.454L173.478 223.466L190.263 213.879Z" fill="#4D6775"/>
<path d="M190.957 213.484V116.669L174.414 126.454V222.842L190.957 213.484Z" fill="#8FBACE"/>
<path d="M79.1653 213.19V117.227L94.094 125.56L94.5581 222.218L79.1653 213.19Z" fill="#4D6775"/>
<path d="M77.7769 212.548L78.0256 115.848L94.2463 125.206L92.7056 221.282L77.7769 212.548Z" fill="#AACCE1"/>
<defs>
<filter id="filter0_d" x="5.09668" y="9.11182" width="259.069" height="278.033" filterUnits="userSpaceOnUse" color-interpolation-filters="sRGB">
<feFlood flood-opacity="0" result="BackgroundImageFix"/>
<feColorMatrix in="SourceAlpha" type="matrix" values="0 0 0 0 0 0 0 0 0 0 0 0 0 0 0 0 0 0 127 0" result="hardAlpha"/>
<feOffset dy="4"/>
<feGaussianBlur stdDeviation="17"/>
<feComposite in2="hardAlpha" operator="out"/>
<feColorMatrix type="matrix" values="0 0 0 0 1 0 0 0 0 0.568627 0 0 0 0 0.0313726 0 0 0 0.4 0"/>
<feBlend mode="normal" in2="BackgroundImageFix" result="effect1_dropShadow"/>
<feBlend mode="normal" in="SourceGraphic" in2="effect1_dropShadow" result="shape"/>
</filter>
<filter id="filter1_f" x="0" y="0" width="268" height="287.808" filterUnits="userSpaceOnUse" color-interpolation-filters="sRGB">
<feFlood flood-opacity="0" result="BackgroundImageFix"/>
<feBlend mode="normal" in="SourceGraphic" in2="BackgroundImageFix" result="shape"/>
<feGaussianBlur stdDeviation="17" result="effect1_foregroundBlur"/>
</filter>
<linearGradient id="paint0_linear" x1="24.3337" y1="55.3871" x2="230.158" y2="55.9923" gradientUnits="userSpaceOnUse">
<stop stop-color="#00C5FF"/>
<stop offset="0.208333" stop-color="#3CE457"/>
<stop offset="0.571698" stop-color="#F15B5B"/>
<stop offset="0.8125" stop-color="#D660E9"/>
<stop offset="1" stop-color="#184ED9"/>
</linearGradient>
<linearGradient id="paint1_linear" x1="193.925" y1="76.6748" x2="155.55" y2="84.4764" gradientUnits="userSpaceOnUse">
<stop stop-color="#FEDE31"/>
<stop offset="0.4271" stop-color="#FDD62E"/>
<stop offset="0.4706" stop-color="#FBBC21"/>
<stop offset="0.7882" stop-color="#FAB01B"/>
</linearGradient>
<linearGradient id="paint2_linear" x1="89.9974" y1="77.0415" x2="151.96" y2="94.7663" gradientUnits="userSpaceOnUse">
<stop stop-color="#FEDE31"/>
<stop offset="0.4271" stop-color="#FDD62E"/>
<stop offset="0.4706" stop-color="#FBBC21"/>
<stop offset="0.7882" stop-color="#FAB01B"/>
</linearGradient>
<linearGradient id="paint3_linear" x1="213.3" y1="170.82" x2="221.38" y2="176.771" gradientUnits="userSpaceOnUse">
<stop stop-color="#D8ECF1"/>
<stop offset="1" stop-color="#82B3BF"/>
</linearGradient>
</defs>
</svg>
