<svg width="24" height="24" viewBox="0 0 24 24" fill="none" xmlns="http://www.w3.org/2000/svg">
<path d="M20.4601 15.54C22.4151 10.8676 20.2123 5.49506 15.5399 3.54001C10.8676 1.58496 5.49498 3.78778 3.53993 8.46015C1.58488 13.1325 3.7877 18.5051 8.46007 20.4602C13.1324 22.4152 18.505 20.2124 20.4601 15.54Z" fill="white"/>
<path fill-rule="evenodd" clip-rule="evenodd" d="M17.7081 5C19.9188 6.69486 21.3189 9.34768 21.3189 12.3444C21.3189 17.4535 17.1923 21.5801 12.0832 21.5801C8.96364 21.5801 6.21256 20.0327 4.5177 17.6746C6.06518 18.8782 8.03023 19.5905 10.1427 19.5905C15.2518 19.5905 19.3784 15.4394 19.3784 10.3548C19.403 8.34059 18.7643 6.49835 17.7081 5Z" fill="#DADADA"/>
<path fill-rule="evenodd" clip-rule="evenodd" d="M20.0417 7.39676C19.4031 6.38967 18.5925 5.52996 17.6591 4.84219C17.3398 4.59656 16.9959 4.40005 16.652 4.20355C15.694 3.66316 14.6378 3.29471 13.5079 3.12277C13.0658 3.04908 12.5745 2.99995 12.0833 2.99995C11.7394 2.99995 11.4201 3.02452 11.1007 3.04908C10.5603 3.09821 10.0445 3.19646 9.55325 3.34384C9.40587 3.39296 9.28306 3.41753 9.16024 3.46665C7.93208 3.85966 6.82674 4.52287 5.86878 5.35802C5.08276 6.04579 4.41955 6.88093 3.87916 7.78977C3.09314 9.16531 2.651 10.7374 2.651 12.4322C2.651 14.1271 3.09314 15.6991 3.87916 17.0747C4.39499 17.9835 5.08276 18.8186 5.86878 19.5064C6.82674 20.3416 7.93208 20.9802 9.16024 21.3978C9.28306 21.4469 9.43044 21.4715 9.55325 21.5206C10.0445 21.668 10.5603 21.7662 11.1007 21.8153C11.4201 21.8399 11.7639 21.8645 12.0833 21.8645C12.5745 21.8645 13.0658 21.8153 13.5325 21.7417C14.6624 21.5697 15.7186 21.2013 16.6766 20.6609C17.0205 20.4644 17.3643 20.2433 17.6837 20.0222C18.6171 19.3345 19.4277 18.4502 20.0663 17.4677C20.9751 16.0184 21.5155 14.299 21.5155 12.4322C21.5155 10.5654 20.9751 8.84599 20.0417 7.39676ZM16.6766 4.81763C17.0205 5.0387 17.3643 5.25976 17.6837 5.52996C17.9293 5.72646 18.1504 5.92297 18.3714 6.14404C18.5679 6.34054 18.7644 6.53705 18.9364 6.75812C18.9118 6.75812 18.8873 6.73356 18.8627 6.73356C18.4943 6.29142 18.1012 5.89841 17.7082 5.57909C17.5608 5.48083 17.438 5.35802 17.2907 5.28433C17.0941 5.16151 16.8976 5.0387 16.7011 4.94044C16.2836 4.71937 15.866 4.54743 15.4239 4.42462C15.2765 4.25267 15.1045 4.1053 14.908 3.98248C15.4975 4.20355 16.1116 4.49831 16.6766 4.81763ZM13.5325 5.01413C13.9255 4.7685 14.5887 4.572 15.2273 4.54743C15.7432 4.67025 16.2099 4.86675 16.6766 5.11239C16.8485 5.21064 17.0205 5.30889 17.1678 5.40714C17.3398 5.52996 17.5117 5.65278 17.6591 5.77559C18.1258 6.1686 18.5679 6.61074 19.0101 7.17569C19.354 7.88802 19.4768 8.74774 19.2803 9.36181C18.7399 9.50919 18.2241 9.65657 17.6591 9.77939C17.3889 9.85308 17.0941 9.92677 16.824 9.97589C16.7748 9.92677 16.7257 9.85308 16.652 9.80395C15.8906 9.01793 14.908 8.40385 13.9009 8.0354C13.8518 7.49501 13.7781 6.95462 13.6553 6.4388C13.6062 6.24229 13.5571 6.07035 13.5079 5.87384C13.4342 5.62821 13.3605 5.40714 13.2623 5.21064C13.3605 5.13695 13.4342 5.06326 13.5325 5.01413ZM11.1007 4.62112C11.8868 4.69481 12.5991 4.89132 13.1395 5.2352C13.3114 5.60365 13.4342 6.02122 13.5325 6.46336V6.48792C13.6553 7.00375 13.729 7.54414 13.7781 8.05997C13.7044 8.10909 13.6062 8.13366 13.5325 8.18278C12.6482 8.67405 11.6903 9.41094 11.1007 10.0496C11.0762 10.0741 11.0516 10.1233 11.0025 10.1478C10.5112 10.0005 10.0445 9.9022 9.55325 9.80395C9.455 9.77939 9.35675 9.75483 9.2585 9.75483L9.16024 9.73026C8.59529 9.63201 8.03034 9.55832 7.46538 9.50919C7.09694 8.67405 6.97412 7.8389 6.94956 6.9055C7.29344 6.41423 7.73558 5.9721 8.22684 5.57909C8.5216 5.35802 8.81636 5.16151 9.13568 4.96501C9.2585 4.89132 9.40587 4.81763 9.52869 4.7685C9.67607 4.69481 9.82345 4.64569 9.97083 4.572C10.3638 4.572 10.7323 4.572 11.1007 4.62112ZM12.1324 13.6358C11.8376 14.1516 11.4692 14.6675 11.1007 15.1587L11.0762 15.1833C10.7077 15.6746 10.3147 16.1658 9.89714 16.6325C9.77432 16.6325 9.65151 16.6325 9.52869 16.6325C9.38131 16.6325 9.2585 16.6325 9.13568 16.608C8.20228 16.5343 7.318 16.3132 6.50742 15.9693C6.26179 15.5272 6.04072 15.0605 5.86878 14.5938C5.81965 14.471 5.77052 14.3236 5.7214 14.2008C5.52489 13.6358 5.40208 13.0463 5.30382 12.4322C5.47577 12.0146 5.64771 11.6462 5.86878 11.3023C6.31091 10.5654 6.8513 10.0005 7.44082 9.58288C8.03034 9.63201 8.59529 9.7057 9.16024 9.80395L9.23393 9.82852C9.33218 9.85308 9.455 9.87764 9.55325 9.87764C10.02 9.97589 10.4621 10.0741 10.9288 10.197C10.9779 10.3689 11.0516 10.5654 11.1007 10.7374C11.4201 11.7444 11.7639 12.7024 12.1324 13.6358ZM5.79509 6.14404L5.84421 6.09491C6.77761 5.18608 7.88296 4.47374 9.13568 4.05617C9.2585 4.00704 9.40587 3.95792 9.52869 3.93335C9.67607 3.88423 9.84801 3.8351 9.99539 3.81054C9.82345 3.98248 9.79889 4.22811 9.77432 4.52287C9.70063 4.54743 9.62694 4.59656 9.55325 4.62112C9.40587 4.69481 9.28306 4.74394 9.16024 4.81763C8.7918 5.01413 8.44791 5.2352 8.15315 5.45627C7.63733 5.84928 7.19519 6.31598 6.8513 6.80724C6.50742 6.88093 6.1881 6.97919 5.86878 7.102C5.37751 7.29851 4.9845 7.5687 4.66518 7.91259C4.66518 7.8389 4.64062 7.76521 4.64062 7.69152C4.64062 7.66696 4.64062 7.61783 4.64062 7.59327C4.95994 7.07744 5.35295 6.58618 5.79509 6.14404ZM3.87916 9.01793C4.0511 8.60036 4.27217 8.18278 4.49324 7.81433C4.49324 7.91259 4.5178 7.98628 4.54237 8.08453L4.5178 8.13366C4.27217 8.47754 4.0511 8.91968 3.90372 9.41094C3.70722 10.0496 3.5844 10.7128 3.63353 11.3514C3.48615 11.4988 3.36333 11.6708 3.24052 11.8918C3.28964 10.8602 3.51071 9.9022 3.87916 9.01793ZM5.2547 18.0572C5.23013 18.0572 5.20557 18.0326 5.20557 18.0326C4.66518 17.3694 4.22304 16.6325 3.90372 15.8465C3.46159 14.7903 3.21595 13.6358 3.21595 12.4322C3.21595 12.3585 3.21595 12.2603 3.21595 12.1866C3.24052 12.1129 3.28964 12.0392 3.33877 11.9655C3.43702 11.7936 3.55984 11.6216 3.68265 11.4742C3.75634 11.5479 3.83003 11.6216 3.90372 11.6953C4.27217 12.0146 4.68974 12.2603 5.18101 12.4322C5.27926 13.0709 5.42664 13.6849 5.62315 14.299C5.69684 14.5446 5.79509 14.7903 5.89334 15.0359C6.06528 15.4289 6.23722 15.7974 6.45829 16.1658C6.1881 16.8536 6.01616 17.5414 6.06528 18.2782C6.01616 18.2782 5.96703 18.2782 5.9179 18.2537C5.64771 18.2046 5.4512 18.1554 5.2547 18.0572ZM9.13568 20.8083C7.88296 20.3661 6.77761 19.6783 5.84421 18.7695L5.79509 18.7204C5.64771 18.573 5.52489 18.4502 5.40208 18.3028C5.54946 18.3519 5.69684 18.4011 5.86878 18.4256C5.94247 18.4256 5.99159 18.4502 6.06528 18.4502C6.40917 19.1871 7.95665 20.2433 8.9883 20.4398C9.01286 20.5381 9.06199 20.6854 9.13568 20.8083ZM15.866 20.4644C15.1291 20.8083 14.3676 21.0539 13.5325 21.2013C13.0658 21.275 12.5745 21.3241 12.0833 21.3241C11.7394 21.3241 11.4201 21.2995 11.1007 21.275C10.5603 21.2258 10.0445 21.103 9.55325 20.9556C9.50413 20.9311 9.455 20.9311 9.43044 20.9065C9.30762 20.7837 9.23393 20.6363 9.16024 20.4644V20.4398C9.30762 20.4398 9.43044 20.4152 9.55325 20.3907C10.1428 20.2924 10.634 20.0714 11.1007 19.7275C11.199 19.6538 11.2972 19.5801 11.3955 19.4818C11.8131 19.6538 12.4271 19.7275 13.0658 19.7275C13.2132 19.7275 13.3605 19.7275 13.5325 19.7029C14.0974 19.6538 14.687 19.5555 15.2273 19.4082C15.4484 19.7029 15.7186 19.9731 16.0379 20.1451C15.9888 20.2679 15.9397 20.3661 15.866 20.4644ZM16.6766 20.0222C16.4801 20.1451 16.3081 20.2433 16.1116 20.3416C16.1362 20.2924 16.1607 20.2187 16.1853 20.1696C16.3327 20.1205 16.5046 20.0714 16.6766 20.0222C16.7011 19.9977 16.7257 19.9977 16.7503 19.9731L16.6766 20.0222ZM16.6766 17.8607C16.2836 18.4256 15.8414 18.9169 15.4239 19.1871C14.8589 19.3836 14.1711 19.5064 13.5325 19.5555C13.3851 19.5555 13.2132 19.5801 13.0658 19.5801C12.4026 19.5801 11.8131 19.5064 11.4201 19.3345C11.2972 19.1871 11.199 19.0397 11.1007 18.8923C10.6586 18.2537 10.2656 17.5414 10.0445 16.7553C10.413 16.3132 10.7568 15.8956 11.1007 15.4535C11.1499 15.3798 11.199 15.3307 11.2481 15.257C11.6166 14.7657 11.9604 14.2745 12.2552 13.7586C12.6728 13.7832 13.1149 13.8077 13.5571 13.8077C14.3185 13.8077 15.08 13.7832 15.8414 13.7095C16.1607 14.0779 16.4309 14.4955 16.7011 14.9377C16.7257 14.9868 16.7503 15.0113 16.7748 15.0605C17.0205 15.5026 17.2415 15.9693 17.4135 16.4851C17.1924 16.9764 16.9468 17.4431 16.6766 17.8607ZM17.6591 16.4851C17.61 16.4851 17.5608 16.4851 17.5117 16.4851C17.3152 15.9447 17.0941 15.4535 16.8485 14.9868C16.7748 14.864 16.7257 14.7657 16.652 14.6429C16.4309 14.299 16.2099 13.9551 15.9397 13.6604C16.259 12.9726 16.4801 12.3094 16.652 11.6216C16.7748 11.1304 16.8485 10.6391 16.8731 10.0987C17.1433 10.025 17.3889 9.97589 17.6345 9.9022C18.1749 9.75483 18.7153 9.63201 19.2557 9.48463C19.5013 9.65657 19.7715 9.97589 20.0172 10.3935C20.2382 10.7865 20.4347 11.2777 20.5576 11.7936C20.6067 12.6042 20.533 13.3411 20.3365 14.0534C20.2382 14.3727 20.14 14.692 19.9926 15.0113C19.8698 15.3061 19.6978 15.5763 19.5259 15.8465C18.9609 16.2641 18.2732 16.4606 17.6591 16.4851ZM19.4768 17.3203C19.6733 16.8536 19.747 16.4114 19.6978 15.9693C19.8207 15.7728 19.9435 15.5763 20.0417 15.3798C20.2382 14.9868 20.4102 14.5692 20.533 14.1271C20.7049 13.4639 20.7786 12.7761 20.7541 12.0392C20.8032 11.9901 20.8769 11.8918 20.926 11.769C20.9506 11.9901 20.9506 12.1866 20.9506 12.4076C20.9506 13.8077 20.6312 15.1342 20.0417 16.3132C19.8944 16.6816 19.6978 17.001 19.4768 17.3203Z" fill="url(#paint0_linear)"/>
<defs>
<linearGradient id="paint0_linear" x1="7.76014" y1="2.99995" x2="24.4099" y2="8.96717" gradientUnits="userSpaceOnUse">
<stop stop-color="#D2AB68"/>
<stop offset="1" stop-color="#B67D3F"/>
</linearGradient>
</defs>
</svg>
