<svg width="28" height="28" viewBox="0 0 28 28" fill="none" xmlns="http://www.w3.org/2000/svg">
<g filter="url(#filter0_d)">
<path fill-rule="evenodd" clip-rule="evenodd" d="M22.1301 21.6138C22.1301 21.6138 20.5669 20.6522 20.0354 20.108C19.504 19.5639 21.5034 20.3545 21.5034 20.3545L22.1301 21.6138Z" fill="#535E84"/>
<path fill-rule="evenodd" clip-rule="evenodd" d="M13.6144 24.8572C13.3745 23.9045 13.2342 23.04 13.1934 22.2638C13.193 22.2563 13.255 22.2696 13.2546 22.2622C13.2221 21.7039 13.5103 22.1096 14.1191 23.4794L13.6144 24.8572Z" fill="#535E84"/>
<path fill-rule="evenodd" clip-rule="evenodd" d="M5.3264 21.1155C5.3264 21.1155 6.12592 19.7716 6.82109 19.033C6.82616 19.0276 6.86226 19.0794 6.86695 19.0737C7.39977 18.4279 6.63071 20.4537 6.63071 20.4537L5.3264 21.1155Z" fill="#E4E6EE"/>
<path fill-rule="evenodd" clip-rule="evenodd" d="M2.08484 12.6788C3.15755 12.3881 4.04462 12.2432 4.74605 12.2443C4.75336 12.2443 4.78395 12.3203 4.75298 12.3054C4.49688 12.8262 4.07751 13.0791 3.49487 13.0639L2.08484 12.6788Z" fill="#E4E6EE"/>
<path fill-rule="evenodd" clip-rule="evenodd" d="M5.90015 4.35728C6.89958 4.84498 7.46282 5.40497 7.9915 5.86814C7.99701 5.87297 7.97044 5.95053 7.95681 5.91885C7.42346 6.14311 7.18418 5.93624 6.75436 5.54072L5.90015 4.35728Z" fill="white"/>
<path fill-rule="evenodd" clip-rule="evenodd" d="M14.3858 1.08575C14.7201 2.1895 14.7832 3.01986 14.811 3.76592C14.8112 3.77163 14.0546 3.98757 14.7523 3.78339C14.1973 3.62042 14.4374 3.06994 14.3511 2.49077L14.3858 1.08575Z" fill="#E4E6EE"/>
<path fill-rule="evenodd" clip-rule="evenodd" d="M22.6589 4.91842C22.6589 4.91842 21.9372 6.20507 21.1603 7.02312C20.3834 7.84116 21.4056 5.54818 21.4056 5.54818L22.6589 4.91842Z" fill="#535E84"/>
<path fill-rule="evenodd" clip-rule="evenodd" d="M25.9143 13.4419C24.9481 13.7836 23.9981 13.8654 23.3734 13.8654C22.7488 13.8654 23.2216 13.6085 24.5849 12.9967L25.9143 13.4419Z" fill="#535E84"/>
<path fill-rule="evenodd" clip-rule="evenodd" d="M14.0428 20.9956C18.4296 20.9956 21.9859 17.4224 21.9859 13.0145C21.9859 8.60672 18.4296 5.03348 14.0428 5.03348C9.65596 5.03348 6.09973 8.60672 6.09973 13.0145C6.09973 17.4224 9.65596 20.9956 14.0428 20.9956Z" fill="url(#paint0_linear)"/>
<mask id="mask0" mask-type="alpha" maskUnits="userSpaceOnUse" x="6" y="5" width="16" height="16">
<path fill-rule="evenodd" clip-rule="evenodd" d="M14.0428 20.9956C18.4296 20.9956 21.9859 17.4224 21.9859 13.0145C21.9859 8.60672 18.4296 5.03348 14.0428 5.03348C9.65596 5.03348 6.09973 8.60672 6.09973 13.0145C6.09973 17.4224 9.65596 20.9956 14.0428 20.9956Z" fill="white"/>
</mask>
<g mask="url(#mask0)">
<path fill-rule="evenodd" clip-rule="evenodd" d="M14.0427 20.8238C18.3352 20.8238 21.815 17.3274 21.815 13.0144C21.815 8.70135 18.3352 5.20495 14.0427 5.20495C9.75026 5.20495 6.27051 8.70135 6.27051 13.0144C6.27051 17.3274 9.75026 20.8238 14.0427 20.8238Z" fill="url(#paint1_linear)"/>
<path fill-rule="evenodd" clip-rule="evenodd" d="M14.0427 19.794C17.7692 19.794 20.7901 16.7587 20.7901 13.0144C20.7901 9.27013 17.7692 6.2348 14.0427 6.2348C10.3163 6.2348 7.29541 9.27013 7.29541 13.0144C7.29541 16.7587 10.3163 19.794 14.0427 19.794Z" fill="url(#paint2_linear)"/>
<path d="M20.5763 13.0143C20.5763 16.6403 17.6509 19.5794 14.0427 19.5794C10.4345 19.5794 7.5091 16.6403 7.5091 13.0143C7.5091 9.38836 10.4345 6.44927 14.0427 6.44927C17.6509 6.44927 20.5763 9.38836 20.5763 13.0143Z" fill="url(#paint3_linear)" stroke="url(#paint4_linear)" stroke-width="0.0858179"/>
<g filter="url(#filter1_f)">
<path fill-rule="evenodd" clip-rule="evenodd" d="M14.4792 2.73406L14.3857 1.94398L13.8778 2.55445C12.5366 4.16678 10.8961 5.1339 8.94472 5.46538C8.25068 5.58327 7.66638 5.84699 7.19166 6.25261C6.97877 6.07404 6.75559 5.89242 6.52212 5.7077L5.89997 5.21548L5.97049 6.00797C6.15673 8.10101 5.67735 9.9504 4.53077 11.5712C4.13177 12.1353 3.9053 12.7234 3.84874 13.3331C3.53546 13.36 3.20982 13.3937 2.87177 13.4341L2.08545 13.5281L2.69302 14.0383C4.29767 15.386 5.26018 17.0343 5.59008 18.9951C5.70393 19.6717 5.9544 20.2445 6.33797 20.7136C6.17172 20.9145 6.00283 21.1245 5.83125 21.3434L5.34137 21.9686L6.13009 21.8977C6.87994 21.8303 7.86617 21.8881 8.28594 21.9558C8.7057 22.0235 8.99439 22.0904 9.36333 22.2003C10.1789 22.4433 10.945 22.8288 11.6669 23.3443C12.2305 23.7469 12.8184 23.9746 13.4278 24.0303C13.4533 24.3184 13.4843 24.6168 13.5208 24.9254L13.6144 25.7155L14.1222 25.105C15.4635 23.4927 17.1039 22.5256 19.0553 22.1941C19.7494 22.0762 20.3337 21.8125 20.8084 21.4069C21.0213 21.5854 21.2445 21.7671 21.4779 21.9518L22.1001 22.444L22.0296 21.6515L22.0235 21.5803C21.8543 19.5165 22.3357 17.6907 23.4693 16.0882C23.8303 15.5779 24.0501 15.0478 24.1305 14.4998C24.4502 14.4726 24.7827 14.4383 25.1283 14.397L25.9146 14.3031L25.307 13.7928C23.7024 12.4451 22.7399 10.7968 22.41 8.83607C22.2926 8.1387 22.0302 7.55161 21.6265 7.07462C21.8042 6.86071 21.985 6.63646 22.1688 6.40187L22.6587 5.77675L21.87 5.8476C19.7869 6.03473 17.9463 5.55306 16.3332 4.401C15.7718 4.0001 15.1865 3.77254 14.5797 3.7157C14.5529 3.40093 14.5194 3.07373 14.4792 2.73406ZM14.0445 21.4806L14.0476 21.43C14.746 22.0148 15.5315 22.2802 16.3959 22.2177C15.5661 22.8795 14.7899 23.2493 14.0606 23.3344C14.018 22.6425 14.0128 22.0244 14.0445 21.4806ZM10.3115 18.1657C9.99618 18.2819 9.65424 18.4739 9.2865 18.7417C9.22368 20.148 9.85996 21.0981 11.195 21.6494L12.7643 22.2975L11.3228 22.3082C11.5743 22.4531 11.8209 22.6119 12.0626 22.7846C12.4825 23.0844 12.9195 23.2666 13.3755 23.3291C13.3172 22.3499 13.3318 21.5044 13.4208 20.7908C13.0737 20.3685 12.7527 19.8538 12.4592 19.2482C11.928 18.1522 11.2478 17.8205 10.3115 18.1657ZM14.1412 20.581C14.2127 20.1522 14.3166 19.7901 14.4526 19.4953C14.8717 18.5859 15.5861 18.3372 16.733 18.7348C17.3804 18.9592 17.9813 19.0962 18.5337 19.1457C18.974 19.707 19.5555 20.3077 20.2783 20.9497C19.9067 21.2407 19.461 21.4289 18.9413 21.5172C18.5903 21.5768 18.2483 21.6555 17.9155 21.7533L19.0639 20.5823L17.4981 21.239C16.1843 21.79 15.0782 21.5838 14.1412 20.581ZM8.61676 19.2876L8.6041 19.299C8.1869 19.6739 7.74193 20.1319 7.27016 20.6731C7.58378 20.9271 7.96795 21.1302 8.42433 21.2825C8.78294 21.4021 9.1159 21.4806 9.52716 21.5328L9.59674 21.5419H9.59676H9.59678H9.59679C9.63969 21.5475 9.68297 21.5532 9.72673 21.5583C9.06069 20.9789 8.69073 20.2179 8.61676 19.2876ZM19.4255 19.1454C20.3155 19.0566 21.0463 18.6873 21.6064 18.0372C21.4872 19.0795 21.205 19.8842 20.7604 20.461C20.2352 19.996 19.7903 19.5571 19.4255 19.1454ZM7.26759 14.0702L7.24042 14.0961C6.27732 15.0294 6.085 16.1284 6.62595 17.4306L7.27951 19.0038L6.07091 17.8073C6.04453 17.7812 6.01838 17.7551 5.99246 17.7291C6.10679 18.1014 6.19719 18.4853 6.2637 18.8806C6.34797 19.3815 6.52368 19.8139 6.79344 20.1779C7.44918 19.4293 8.06154 18.8294 8.63294 18.3781C8.68856 17.8489 8.8219 17.2762 9.03285 16.6618C9.4285 15.5094 9.18095 14.7916 8.27597 14.3704C7.9992 14.2416 7.66292 14.1414 7.26759 14.0702ZM14.1673 8.45243C14.2522 8.26841 14.3259 8.0653 14.3887 7.84294C14.5752 8.12417 14.7543 8.44215 14.9264 8.79728C15.603 10.1932 16.6378 10.6978 17.9238 10.2237C18.1455 10.142 18.3748 10.031 18.6121 9.89067C18.546 10.2213 18.4491 10.5726 18.3212 10.9451C17.8173 12.4129 18.1939 13.5049 19.4368 14.0833C19.569 14.1449 19.7112 14.2006 19.8633 14.2506C19.6297 14.3964 19.3733 14.5376 19.0936 14.6745C17.7044 15.3543 17.2022 16.394 17.674 17.6861C17.7554 17.9089 17.8658 18.1393 18.0055 18.3777C17.6764 18.3114 17.3267 18.214 16.956 18.0855C15.4953 17.5791 14.4084 17.9575 13.8327 19.2064C13.7403 19.407 13.661 19.6303 13.5947 19.8765C13.4142 19.6015 13.2406 19.2919 13.0736 18.9474C12.3971 17.5515 11.3622 17.0469 10.0763 17.521C9.86095 17.6004 9.63839 17.7074 9.40831 17.8421C9.47332 17.5401 9.56351 17.2214 9.67887 16.8854C10.1828 15.4176 9.80618 14.3256 8.56323 13.7472C8.38009 13.6619 8.17795 13.5878 7.95664 13.5248C8.23653 13.3373 8.553 13.1574 8.90644 12.9844C10.2957 12.3046 10.7979 11.2648 10.326 9.97271C10.2447 9.75 10.1343 9.51958 9.99462 9.28116C10.3237 9.34749 10.6733 9.4449 11.0441 9.5734C12.5048 10.0797 13.5916 9.70132 14.1673 8.45243ZM20.7585 14.4609L20.743 14.4729C20.36 14.7655 19.9097 15.0387 19.3928 15.2917C18.302 15.8254 17.9719 16.5089 18.3155 17.4496C18.4315 17.7673 18.6232 18.1119 18.8908 18.4825C20.2425 18.5155 21.16 17.8752 21.6972 16.5619L22.3421 14.9852L22.354 16.5845C22.5203 16.2794 22.7064 15.9813 22.9123 15.6902C23.1718 15.3233 23.3428 14.9435 23.4239 14.5493C22.3802 14.6064 21.4925 14.5776 20.7585 14.4609ZM4.53992 13.9714L4.55082 13.9708C5.25664 13.9301 5.88376 13.9297 6.43135 13.9689C5.85247 14.6692 5.58988 15.4566 5.65191 16.3229C4.99172 15.4872 4.62358 14.7056 4.53992 13.9714ZM22.348 11.3363C22.4148 12.2695 22.1049 13.1111 21.4287 13.851C22.0151 13.9015 22.6972 13.9044 23.4742 13.8586C23.4319 13.075 23.0596 12.2371 22.348 11.3363ZM21.1592 7.62092L21.1716 7.60692C21.4612 7.98027 21.6484 8.42812 21.7363 8.95029C21.7885 9.26056 21.8554 9.56378 21.937 9.8599L21.9291 9.85192L20.7205 8.65547L21.374 10.2287L21.3968 10.2844C21.9407 11.6405 21.6816 12.775 20.5764 13.7305C20.2479 13.6621 19.9636 13.572 19.724 13.4605C18.819 13.0393 18.5715 12.3215 18.9671 11.1691C19.1905 10.5186 19.3268 9.91478 19.3761 9.35979C19.9312 8.9202 20.5249 8.34059 21.1592 7.62092ZM6.30267 11.0971L5.65768 12.6738L5.64597 11.0743C5.47963 11.3795 5.29348 11.6777 5.08752 11.9688C4.79017 12.3892 4.60906 12.8267 4.54625 13.2831C5.51812 13.2285 6.35554 13.248 7.06022 13.3432C7.4827 12.9907 7.99882 12.665 8.60708 12.3673C9.69783 11.8336 10.0279 11.1501 9.6844 10.2093C9.5684 9.89167 9.37659 9.54709 9.10901 9.17645C7.75736 9.14349 6.83986 9.78383 6.30267 11.0971ZM14.6314 4.45321L14.6294 4.41661C15.0836 4.47973 15.519 4.6617 15.9373 4.96046C16.2271 5.1674 16.5239 5.35445 16.8276 5.52158L15.2357 5.53334L16.8049 6.18142C18.1119 6.72118 18.7492 7.64307 18.7164 9.00121C18.3475 9.27006 18.0046 9.46278 17.6884 9.57933C16.7521 9.9245 16.0719 9.59282 15.5407 8.49686C15.2445 7.88564 14.9203 7.36703 14.5695 6.94251C14.6631 6.24331 14.6832 5.41406 14.6314 4.45321ZM7.23958 7.19794C6.79494 7.77487 6.51283 8.57951 6.39359 9.62173C6.95372 8.97167 7.68442 8.60231 8.57437 8.51357C8.20973 8.10184 7.76477 7.66295 7.23958 7.19794ZM10.1749 5.87895L10.2046 5.86973C10.1786 5.89578 10.1527 5.92205 10.1267 5.94855L8.93594 7.16294L10.5017 6.50625C11.8096 5.95766 12.9118 6.15962 13.8461 7.15097C13.7752 7.54818 13.6754 7.88607 13.5472 8.16417C13.1281 9.07348 12.4137 9.32222 11.2668 8.92467C10.6193 8.70024 10.0184 8.56325 9.46609 8.51375C9.02577 7.95241 8.44429 7.35177 7.72156 6.70968C8.09313 6.41869 8.53885 6.23055 9.05854 6.14228C9.44148 6.07723 9.81363 5.98943 10.1749 5.87895ZM18.2732 6.27239C18.9202 6.83519 19.2878 7.56939 19.3761 8.4636C19.7859 8.0972 20.2227 7.65008 20.6856 7.12234C20.1116 6.67574 19.3107 6.39222 18.2732 6.27239ZM13.9076 4.41454L13.9443 4.41016C13.9854 5.12375 13.9861 5.75747 13.9468 6.31056C13.2498 5.7289 12.4661 5.46506 11.604 5.52738C12.4218 4.87514 13.1875 4.50661 13.9076 4.41454Z" fill="#535E84"/>
</g>
</g>
<path fill-rule="evenodd" clip-rule="evenodd" d="M14.4476 3.36004L14.6527 3.38854C15.1338 3.4554 15.595 3.64739 16.0362 3.96251C16.2889 4.14302 16.5471 4.30806 16.8096 4.45709L17.4773 4.83037L16.0853 4.84065L16.8698 5.16462C18.2474 5.73355 18.9215 6.72317 18.887 8.14733L18.885 8.23223L18.8166 8.2821C18.4361 8.5594 18.0796 8.75984 17.7472 8.88241C16.7178 9.26191 15.9516 8.87878 15.3871 7.71396C15.0967 7.11492 14.7798 6.60773 14.438 6.1941L14.3902 6.13619L14.4002 6.0616C14.4593 5.61908 14.4888 5.12153 14.4884 4.56831L14.4882 4.55215L14.4884 4.5349L14.4881 4.48491C14.4866 4.23346 14.4791 3.97072 14.4655 3.69665L14.4607 3.60441L14.4476 3.36004ZM7.35235 6.21107L7.2158 6.09016L7.10436 6.23475C6.63772 6.84024 6.34604 7.67496 6.22373 8.74403L6.16057 9.29611L6.52257 8.87597C7.05255 8.2609 7.74222 7.91091 8.59108 7.82627L8.92467 7.793L8.70182 7.54137C8.33149 7.12321 7.88131 6.67942 7.35235 6.21107ZM21.3062 6.64348L21.1798 6.48051L21.0312 6.64927L20.9702 6.71813C20.8085 6.90002 20.6497 7.07245 20.4937 7.23546L20.3594 7.37414L20.3194 7.41487C19.9539 7.78524 19.6043 8.10251 19.2703 8.36706L19.2124 8.41289L19.2058 8.48662C19.1579 9.0273 19.0244 9.61766 18.8055 10.2552C18.385 11.48 18.6572 12.2953 19.6521 12.7583C19.9046 12.8758 20.2012 12.9698 20.5417 13.0406L20.624 13.0578L20.6878 13.0027C21.8436 12.0034 22.1289 10.7927 21.5551 9.36227L21.532 9.3056L21.2048 8.51803L21.8091 9.11625L21.816 9.12324L22.2688 9.57894L22.0719 8.84588C22.0053 8.59125 21.9494 8.33017 21.9046 8.06375C21.8119 7.51287 21.613 7.03896 21.3062 6.64348ZM22.1381 9.93637L22.4819 10.3716C23.2123 11.2961 23.6004 12.1664 23.6449 12.9913L23.6541 13.162L23.4844 13.172C22.7015 13.2181 22.0109 13.2154 21.4143 13.164L21.068 13.1342L21.3031 12.877C21.9495 12.1696 22.241 11.3737 22.1778 10.4906L22.1381 9.93637ZM6.77513 12.9631L6.44337 12.9394C5.88689 12.8995 5.25223 12.9001 4.54091 12.9411L4.53013 12.9417L4.34814 12.9521L4.3756 13.178C4.47351 13.9364 4.85442 14.7313 5.51799 15.5713L5.86185 16.0066L5.82216 15.4523C5.76348 14.6326 6.01034 13.8884 6.56263 13.2202L6.77513 12.9631ZM7.29759 13.0429L7.21241 13.0275L7.12253 13.1134L7.09057 13.1447C6.10689 14.1181 5.90409 15.2806 6.46816 16.6384L6.79494 17.425L6.19064 16.8267L6.15148 16.7878L6.11291 16.7492L5.62666 16.2621L5.82908 16.9213C5.94115 17.2863 6.02984 17.6629 6.09512 18.0509C6.184 18.5791 6.37057 19.0366 6.65629 19.4221L6.78222 19.5919L6.92151 19.4329C7.1453 19.1775 7.36363 18.9398 7.5766 18.72L7.66533 18.6291L7.69224 18.6019C8.05673 18.2333 8.40527 17.9178 8.73835 17.6547L8.79508 17.6099L8.80266 17.5378C8.85689 17.0219 8.98738 16.4617 9.19417 15.8594C9.61469 14.6346 9.34256 13.8194 8.34761 13.3563C8.05633 13.2208 7.70614 13.1165 7.29759 13.0429ZM21.8392 16.6471L21.7761 17.1992C21.6537 18.2683 21.362 19.1031 20.8954 19.7085L20.784 19.853L20.6474 19.7321C20.1186 19.2639 19.6684 18.8201 19.2979 18.4019L19.075 18.1502L19.4086 18.117C20.2575 18.0323 20.9472 17.6823 21.4772 17.0672L21.8392 16.6471ZM13.5525 19.8236C13.2143 19.412 12.9005 18.9086 12.6128 18.315C12.0482 17.1502 11.2821 16.7671 10.2527 17.1466C9.92107 17.2688 9.5656 17.4685 9.18628 17.7447L9.11956 17.7933L9.11586 17.876C9.05006 19.3491 9.72286 20.369 11.1301 20.9502L11.9146 21.2742L10.6976 21.2833L11.331 21.6536C11.5449 21.7804 11.7561 21.9182 11.9636 22.0665C12.4065 22.3828 12.8694 22.575 13.3525 22.6412L13.5585 22.6694L13.5461 22.4609C13.5298 22.1876 13.5127 21.563 13.5127 21.563L13.5121 21.5073C13.5069 20.9312 13.533 20.4138 13.5903 19.9542L13.5995 19.8807L13.5525 19.8236ZM14.157 20.44L13.8978 20.223L13.874 20.6119L13.8699 20.6876C13.8424 21.2217 13.8492 21.8216 13.8901 22.4868L13.9013 22.6676L14.0803 22.6467C14.8462 22.5573 15.6509 22.1729 16.5021 21.494L16.9353 21.1485L16.3836 21.1884C15.5657 21.2475 14.8233 20.998 14.157 20.44ZM14.2024 20.9075C14.1892 21.2965 14.1935 21.7209 14.2154 22.1799L14.2204 22.2788C14.7444 22.1833 15.2975 21.9347 15.8817 21.5295C15.2817 21.4819 14.72 21.2736 14.2024 20.9075ZM11.9165 21.6173L13.1715 21.608C13.1747 21.8193 13.1819 22.0379 13.1931 22.2638C12.8395 22.1844 12.4962 22.0256 12.1615 21.7866C12.0803 21.7286 11.9987 21.6722 11.9165 21.6173ZM10.3703 17.4688C10.0898 17.5722 9.78389 17.7406 9.45427 17.9741C9.42277 19.2544 10.0106 20.1167 11.2599 20.6326L13.1699 21.4214C13.168 20.8958 13.1921 20.4172 13.2425 19.9846C12.904 19.5622 12.5915 19.0552 12.3056 18.4653C11.8132 17.4493 11.2233 17.1543 10.3703 17.4688ZM18.5489 18.1166C18.0108 18.0684 17.4232 17.9343 16.7887 17.7144C15.5698 17.2919 14.7584 17.5653 14.2976 18.565C14.1546 18.8752 14.0466 19.252 13.9728 19.6946L13.9588 19.7784L14.0167 19.8404C14.9989 20.8916 16.1792 21.1201 17.564 20.5393L18.3467 20.211L17.3386 21.2391L18.0737 21.0284C18.3646 20.9471 18.6636 20.8803 18.9698 20.8283C19.5181 20.7351 19.9898 20.5352 20.3834 20.227L20.5456 20.0999L20.3915 19.963C20.1601 19.7575 19.9436 19.5565 19.742 19.3601L19.6661 19.2856L19.6229 19.2427C19.2511 18.8729 18.9329 18.5192 18.6679 18.1813L18.6223 18.1232L18.5489 18.1166ZM8.75957 18.0709L8.787 18.4159C8.8576 19.3039 9.20829 20.0223 9.8385 20.5706L10.2566 20.9343L9.70718 20.8708C9.63792 20.8628 9.56999 20.8542 9.50342 20.8448L9.49071 20.843L9.47841 20.8393C9.12619 20.734 8.76597 20.6523 8.39774 20.594L8.38383 20.5918L8.37046 20.5874C7.89607 20.4291 7.49363 20.2166 7.16294 19.9488L7.02436 19.8366L7.14162 19.7021C7.59601 19.1808 8.02737 18.7342 8.43519 18.3628L8.49017 18.3131L8.75957 18.0709ZM18.4681 20.5764L19.4609 19.5639C19.632 19.7318 19.8135 19.9027 20.0055 20.0767C19.6934 20.2814 19.33 20.4189 18.913 20.4897C18.7631 20.5152 18.6148 20.5441 18.4681 20.5764ZM14.6076 18.7092C14.4874 18.97 14.3926 19.2895 14.3244 19.6667C15.194 20.5584 16.2043 20.7375 17.4324 20.2224L19.3247 19.4287C18.9886 19.0908 18.6956 18.7652 18.4452 18.4514C17.8984 18.3953 17.3085 18.2576 16.6774 18.0388C15.6142 17.6703 14.9895 17.8808 14.6076 18.7092ZM7.52029 19.7898C7.85669 19.4105 8.17918 19.0744 8.48715 18.7821C8.58815 19.4043 8.82787 19.9483 9.20442 20.4083C8.97288 20.3855 8.70418 20.3377 8.46497 20.2571C8.10102 20.1345 7.78652 19.9787 7.52029 19.7898ZM21.3625 17.665C20.913 18.0505 20.3805 18.3003 19.7708 18.4122C20.0323 18.6911 20.3292 18.9819 20.6612 19.2841L20.7329 19.349C21.0269 18.9128 21.2371 18.3527 21.3625 17.665ZM6.43211 17.9938C6.40053 17.806 6.36364 17.6208 6.32146 17.4381L7.1596 18.2678L7.35285 18.4591L7.27674 18.5379C7.1241 18.697 6.96897 18.8647 6.81129 19.0411C6.62512 18.739 6.49887 18.3905 6.43211 17.9938ZM7.32291 13.3968C6.44777 14.2671 6.27336 15.2778 6.78362 16.5061L7.52322 18.2864C7.85073 17.9597 8.16651 17.6742 8.47112 17.4297C8.53237 16.9069 8.66602 16.3457 8.87141 15.7474C9.23817 14.6792 9.02864 14.0515 8.20422 13.6678C7.96133 13.5548 7.66731 13.4641 7.32291 13.3968ZM20.7852 13.4336L20.7124 13.422L20.6386 13.4792L20.5794 13.5239C20.2193 13.7922 19.7983 14.0446 19.318 14.2796C18.1587 14.8469 17.7774 15.6167 18.1551 16.651C18.2771 16.9851 18.4766 17.3432 18.7526 17.7255L18.8022 17.7942L18.8867 17.7963C20.304 17.8309 21.289 17.1536 21.8552 15.7694L22.1776 14.9811L22.188 16.3795L22.5594 15.7087C22.7077 15.445 22.872 15.1857 23.0516 14.9318C23.325 14.5452 23.5053 14.1435 23.5912 13.7263L23.636 13.508L23.4146 13.5202C23.1188 13.5363 22.8361 13.5455 22.5663 13.5477L22.5335 13.5478H22.3271C21.7508 13.5435 21.2371 13.5054 20.7852 13.4336ZM20.8038 13.7836L20.7835 13.7989C20.4049 14.081 19.9659 14.3442 19.4674 14.5881C18.4563 15.0829 18.1627 15.6756 18.4756 16.5326C18.5787 16.8148 18.7466 17.1226 18.9793 17.4542C20.2057 17.4575 21.037 16.8661 21.539 15.6388L22.2562 13.8914C21.7215 13.8849 21.2364 13.8483 20.8038 13.7836ZM23.2016 13.8741C22.963 13.8845 22.7329 13.8902 22.5112 13.8912L22.5202 15.109C22.601 14.9823 22.6853 14.8569 22.7731 14.7328C22.9711 14.4528 23.1138 14.1668 23.2016 13.8741ZM5.4827 14.9483C5.07836 14.3597 4.83068 13.8025 4.73615 13.2747C5.23149 13.2505 5.68622 13.247 6.0996 13.2641C5.73658 13.7833 5.53 14.3466 5.4827 14.9483ZM22.5172 10.995C22.4648 11.6616 22.217 12.2808 21.7778 12.8451C22.2037 12.8674 22.6753 12.867 23.1916 12.8436L23.289 12.839C23.2209 12.2609 22.9653 11.6473 22.5172 10.995ZM19.5391 8.59075C19.8483 8.34174 20.1691 8.05063 20.5018 7.71707L21.2163 9.43678L21.2386 9.49149C21.7469 10.7587 21.519 11.7961 20.5283 12.6865C20.2471 12.6232 20.0028 12.5431 19.7957 12.4467C18.9712 12.063 18.7617 11.4353 19.1285 10.3671C19.3462 9.73287 19.4833 9.14018 19.5391 8.59075ZM9.11326 8.14688L9.19775 8.14894L9.24738 8.21769C9.52338 8.59998 9.72288 8.95817 9.84487 9.29225C10.2226 10.3266 9.84126 11.0964 8.68198 11.6637C8.08576 11.9554 7.58105 12.2738 7.16945 12.6172L7.11182 12.6653L7.03757 12.6553C6.60548 12.5969 6.12069 12.5674 5.58249 12.5667L5.53523 12.5667L5.41943 12.5673C5.14499 12.5698 4.85717 12.5795 4.5559 12.5965L4.34873 12.6081L4.37715 12.4016C4.44367 11.9181 4.63475 11.4548 4.9484 11.0114C5.12804 10.7575 5.2923 10.4981 5.44062 10.2343L5.81212 9.56337L5.82236 10.962L6.14478 10.1738C6.71099 8.78965 7.6959 8.11232 9.11326 8.14688ZM6.46069 10.3043C6.96274 9.07699 7.79402 8.48563 9.02036 8.48888C9.25314 8.82051 9.42101 9.12825 9.52406 9.41046C9.83702 10.2675 9.54342 10.8602 8.53232 11.355C7.93999 11.6449 7.43167 11.9619 7.00907 12.3054C6.60597 12.2546 6.16171 12.2274 5.67553 12.2238L6.46069 10.3043ZM5.47979 10.834C5.399 10.9607 5.31469 11.0862 5.22687 11.2103C4.98984 11.5454 4.83219 11.8889 4.75279 12.2428C4.9716 12.2327 5.18337 12.2266 5.38815 12.2244L5.48996 12.2236L5.47979 10.834ZM14.7483 6.03301C14.7989 5.628 14.8259 5.18163 14.8295 4.69316L16.7398 5.48208C17.9613 5.98654 18.5499 6.82179 18.5466 8.05402C18.2166 8.2879 17.9103 8.45657 17.6294 8.56011C16.7765 8.87456 16.1866 8.57956 15.6942 7.56363C15.4057 6.96848 15.0902 6.45769 14.7483 6.03301ZM21.1566 7.02332C20.9983 7.19968 20.8426 7.36722 20.6894 7.52599L20.8402 7.6753L21.6306 8.45773C21.6077 8.34639 21.5867 8.23414 21.5677 8.12099C21.4972 7.70203 21.3604 7.33689 21.1566 7.02332ZM10.3256 5.13277L10.811 4.64359L10.1245 4.85683L10.0274 4.88588C9.70442 4.98043 9.37166 5.05687 9.03006 5.1149C8.4818 5.20803 8.01014 5.40792 7.61655 5.71616L7.45432 5.84321L7.60841 5.98011C7.86295 6.20625 8.09942 6.42684 8.31791 6.64198L8.39446 6.71785L8.4353 6.75878C8.78214 7.10758 9.08088 7.4418 9.33194 7.76185L9.37754 7.81999L9.45092 7.82656C9.98901 7.87478 10.5766 8.00883 11.2111 8.22878C12.43 8.6513 13.2414 8.37788 13.7022 7.37816C13.8371 7.08549 13.9409 6.73362 14.0142 6.32312L14.0294 6.23777L13.9701 6.17481C12.9905 5.13541 11.8145 4.91149 10.4358 5.48972L9.65299 5.81806L10.2484 5.21087L10.2871 5.17153L10.3256 5.13277ZM7.26688 6.59418C6.97288 7.03044 6.76268 7.59052 6.63729 8.27818C7.08681 7.89264 7.61926 7.64291 8.22889 7.53097C7.94886 7.23221 7.62804 6.91975 7.26688 6.59418ZM8.73506 6.57497L10.5673 5.80648C11.7893 5.29399 12.7954 5.46867 13.6618 6.34844C13.5948 6.69446 13.5046 6.98985 13.3921 7.23388C13.0103 8.06224 12.3855 8.27278 11.3224 7.90426C10.6912 7.68546 10.1013 7.54768 9.55453 7.49168C9.31925 7.19667 9.0462 6.89126 8.73506 6.57497ZM17.7431 5.18066L18.2926 5.24413C19.3566 5.36703 20.1875 5.66013 20.79 6.12888L20.9339 6.24085L20.8136 6.37807C20.3474 6.90959 19.9057 7.36195 19.4895 7.73407L19.2391 7.95799L19.206 7.6228C19.1217 6.76988 18.7734 6.07692 18.1613 5.5444L17.7431 5.18066ZM19.5 7.25895C19.3886 6.6464 19.1401 6.1114 18.7563 5.65973C19.4408 5.78572 19.9983 5.99693 20.4324 6.29226C20.1084 6.65518 19.7974 6.97756 19.5 7.25895ZM9.63999 5.34215C9.45813 5.38453 9.2738 5.42158 9.087 5.45331C8.68816 5.52106 8.33833 5.6498 8.03555 5.84L7.99455 5.86631C8.20264 6.05489 8.39839 6.23984 8.58187 6.42127L8.81424 6.18428L9.63999 5.34215ZM14.1149 3.54225L14.1044 3.36027L13.8875 3.38611C13.1302 3.48292 12.3366 3.86598 11.4978 4.53496L11.0646 4.88046L11.6163 4.84059C12.432 4.78162 13.1727 5.02966 13.8377 5.5846L14.0936 5.79813L14.1172 5.46477C14.1571 4.90269 14.1563 4.26137 14.1149 3.54225ZM13.7837 3.7491C13.2584 3.84409 12.7039 4.09294 12.1181 4.49922C12.7169 4.54675 13.2775 4.75431 13.7943 5.11907C13.8113 4.70365 13.8078 4.24675 13.7837 3.7491ZM14.8299 4.50666C14.8289 4.26933 14.8225 4.02247 14.8109 3.76598C15.163 3.84575 15.5049 4.00416 15.8383 4.24231C15.9619 4.33056 16.0867 4.41527 16.2129 4.49644L14.8299 4.50666Z" fill="url(#paint5_linear)"/>
<mask id="mask1" mask-type="alpha" maskUnits="userSpaceOnUse" x="4" y="3" width="20" height="20">
<path fill-rule="evenodd" clip-rule="evenodd" d="M14.4476 3.36004L14.6527 3.38854C15.1338 3.4554 15.595 3.64739 16.0362 3.96251C16.2889 4.14302 16.5471 4.30806 16.8096 4.45709L17.4773 4.83037L16.0853 4.84065L16.8698 5.16462C18.2474 5.73355 18.9215 6.72317 18.887 8.14733L18.885 8.23223L18.8166 8.2821C18.4361 8.5594 18.0796 8.75984 17.7472 8.88241C16.7178 9.26191 15.9516 8.87878 15.3871 7.71396C15.0967 7.11492 14.7798 6.60773 14.438 6.1941L14.3902 6.13619L14.4002 6.0616C14.4593 5.61908 14.4888 5.12153 14.4884 4.56831L14.4882 4.55215L14.4884 4.5349L14.4881 4.48491C14.4866 4.23346 14.4791 3.97072 14.4655 3.69665L14.4607 3.60441L14.4476 3.36004ZM7.35235 6.21107L7.2158 6.09016L7.10436 6.23475C6.63772 6.84024 6.34604 7.67496 6.22373 8.74403L6.16057 9.29611L6.52257 8.87597C7.05255 8.2609 7.74222 7.91091 8.59108 7.82627L8.92467 7.793L8.70182 7.54137C8.33149 7.12321 7.88131 6.67942 7.35235 6.21107ZM21.3062 6.64348L21.1798 6.48051L21.0312 6.64927L20.9702 6.71813C20.8085 6.90002 20.6497 7.07245 20.4937 7.23546L20.3594 7.37414L20.3194 7.41487C19.9539 7.78524 19.6043 8.10251 19.2703 8.36706L19.2124 8.41289L19.2058 8.48662C19.1579 9.0273 19.0244 9.61766 18.8055 10.2552C18.385 11.48 18.6572 12.2953 19.6521 12.7583C19.9046 12.8758 20.2012 12.9698 20.5417 13.0406L20.624 13.0578L20.6878 13.0027C21.8436 12.0034 22.1289 10.7927 21.5551 9.36227L21.532 9.3056L21.2048 8.51803L21.8091 9.11625L21.816 9.12324L22.2688 9.57894L22.0719 8.84588C22.0053 8.59125 21.9494 8.33017 21.9046 8.06375C21.8119 7.51287 21.613 7.03896 21.3062 6.64348ZM22.1381 9.93637L22.4819 10.3716C23.2123 11.2961 23.6004 12.1664 23.6449 12.9913L23.6541 13.162L23.4844 13.172C22.7015 13.2181 22.0109 13.2154 21.4143 13.164L21.068 13.1342L21.3031 12.877C21.9495 12.1696 22.241 11.3737 22.1778 10.4906L22.1381 9.93637ZM6.77513 12.9631L6.44337 12.9394C5.88689 12.8995 5.25223 12.9001 4.54091 12.9411L4.53013 12.9417L4.34814 12.9521L4.3756 13.178C4.47351 13.9364 4.85442 14.7313 5.51799 15.5713L5.86185 16.0066L5.82216 15.4523C5.76348 14.6326 6.01034 13.8884 6.56263 13.2202L6.77513 12.9631ZM7.29759 13.0429L7.21241 13.0275L7.12253 13.1134L7.09057 13.1447C6.10689 14.1181 5.90409 15.2806 6.46816 16.6384L6.79494 17.425L6.19064 16.8267L6.15148 16.7878L6.11291 16.7492L5.62666 16.2621L5.82908 16.9213C5.94115 17.2863 6.02984 17.6629 6.09512 18.0509C6.184 18.5791 6.37057 19.0366 6.65629 19.4221L6.78222 19.5919L6.92151 19.4329C7.1453 19.1775 7.36363 18.9398 7.5766 18.72L7.66533 18.6291L7.69224 18.6019C8.05673 18.2333 8.40527 17.9178 8.73835 17.6547L8.79508 17.6099L8.80266 17.5378C8.85689 17.0219 8.98738 16.4617 9.19417 15.8594C9.61469 14.6346 9.34256 13.8194 8.34761 13.3563C8.05633 13.2208 7.70614 13.1165 7.29759 13.0429ZM21.8392 16.6471L21.7761 17.1992C21.6537 18.2683 21.362 19.1031 20.8954 19.7085L20.784 19.853L20.6474 19.7321C20.1186 19.2639 19.6684 18.8201 19.2979 18.4019L19.075 18.1502L19.4086 18.117C20.2575 18.0323 20.9472 17.6823 21.4772 17.0672L21.8392 16.6471ZM13.5525 19.8236C13.2143 19.412 12.9005 18.9086 12.6128 18.315C12.0482 17.1502 11.2821 16.7671 10.2527 17.1466C9.92107 17.2688 9.5656 17.4685 9.18628 17.7447L9.11956 17.7933L9.11586 17.876C9.05006 19.3491 9.72286 20.369 11.1301 20.9502L11.9146 21.2742L10.6976 21.2833L11.331 21.6536C11.5449 21.7804 11.7561 21.9182 11.9636 22.0665C12.4065 22.3828 12.8694 22.575 13.3525 22.6412L13.5585 22.6694L13.5461 22.4609C13.5298 22.1876 13.5127 21.563 13.5127 21.563L13.5121 21.5073C13.5069 20.9312 13.533 20.4138 13.5903 19.9542L13.5995 19.8807L13.5525 19.8236ZM14.157 20.44L13.8978 20.223L13.874 20.6119L13.8699 20.6876C13.8424 21.2217 13.8492 21.8216 13.8901 22.4868L13.9013 22.6676L14.0803 22.6467C14.8462 22.5573 15.6509 22.1729 16.5021 21.494L16.9353 21.1485L16.3836 21.1884C15.5657 21.2475 14.8233 20.998 14.157 20.44ZM14.2024 20.9075C14.1892 21.2965 14.1935 21.7209 14.2154 22.1799L14.2204 22.2788C14.7444 22.1833 15.2975 21.9347 15.8817 21.5295C15.2817 21.4819 14.72 21.2736 14.2024 20.9075ZM11.9165 21.6173L13.1715 21.608C13.1747 21.8193 13.1819 22.0379 13.1931 22.2638C12.8395 22.1844 12.4962 22.0256 12.1615 21.7866C12.0803 21.7286 11.9987 21.6722 11.9165 21.6173ZM10.3703 17.4688C10.0898 17.5722 9.78389 17.7406 9.45427 17.9741C9.42277 19.2544 10.0106 20.1167 11.2599 20.6326L13.1699 21.4214C13.168 20.8958 13.1921 20.4172 13.2425 19.9846C12.904 19.5622 12.5915 19.0552 12.3056 18.4653C11.8132 17.4493 11.2233 17.1543 10.3703 17.4688ZM18.5489 18.1166C18.0108 18.0684 17.4232 17.9343 16.7887 17.7144C15.5698 17.2919 14.7584 17.5653 14.2976 18.565C14.1546 18.8752 14.0466 19.252 13.9728 19.6946L13.9588 19.7784L14.0167 19.8404C14.9989 20.8916 16.1792 21.1201 17.564 20.5393L18.3467 20.211L17.3386 21.2391L18.0737 21.0284C18.3646 20.9471 18.6636 20.8803 18.9698 20.8283C19.5181 20.7351 19.9898 20.5352 20.3834 20.227L20.5456 20.0999L20.3915 19.963C20.1601 19.7575 19.9436 19.5565 19.742 19.3601L19.6661 19.2856L19.6229 19.2427C19.2511 18.8729 18.9329 18.5192 18.6679 18.1813L18.6223 18.1232L18.5489 18.1166ZM8.75957 18.0709L8.787 18.4159C8.8576 19.3039 9.20829 20.0223 9.8385 20.5706L10.2566 20.9343L9.70718 20.8708C9.63792 20.8628 9.56999 20.8542 9.50342 20.8448L9.49071 20.843L9.47841 20.8393C9.12619 20.734 8.76597 20.6523 8.39774 20.594L8.38383 20.5918L8.37046 20.5874C7.89607 20.4291 7.49363 20.2166 7.16294 19.9488L7.02436 19.8366L7.14162 19.7021C7.59601 19.1808 8.02737 18.7342 8.43519 18.3628L8.49017 18.3131L8.75957 18.0709ZM18.4681 20.5764L19.4609 19.5639C19.632 19.7318 19.8135 19.9027 20.0055 20.0767C19.6934 20.2814 19.33 20.4189 18.913 20.4897C18.7631 20.5152 18.6148 20.5441 18.4681 20.5764ZM14.6076 18.7092C14.4874 18.97 14.3926 19.2895 14.3244 19.6667C15.194 20.5584 16.2043 20.7375 17.4324 20.2224L19.3247 19.4287C18.9886 19.0908 18.6956 18.7652 18.4452 18.4514C17.8984 18.3953 17.3085 18.2576 16.6774 18.0388C15.6142 17.6703 14.9895 17.8808 14.6076 18.7092ZM7.52029 19.7898C7.85669 19.4105 8.17918 19.0744 8.48715 18.7821C8.58815 19.4043 8.82787 19.9483 9.20442 20.4083C8.97288 20.3855 8.70418 20.3377 8.46497 20.2571C8.10102 20.1345 7.78652 19.9787 7.52029 19.7898ZM21.3625 17.665C20.913 18.0505 20.3805 18.3003 19.7708 18.4122C20.0323 18.6911 20.3292 18.9819 20.6612 19.2841L20.7329 19.349C21.0269 18.9128 21.2371 18.3527 21.3625 17.665ZM6.43211 17.9938C6.40053 17.806 6.36364 17.6208 6.32146 17.4381L7.1596 18.2678L7.35285 18.4591L7.27674 18.5379C7.1241 18.697 6.96897 18.8647 6.81129 19.0411C6.62512 18.739 6.49887 18.3905 6.43211 17.9938ZM7.32291 13.3968C6.44777 14.2671 6.27336 15.2778 6.78362 16.5061L7.52322 18.2864C7.85073 17.9597 8.16651 17.6742 8.47112 17.4297C8.53237 16.9069 8.66602 16.3457 8.87141 15.7474C9.23817 14.6792 9.02864 14.0515 8.20422 13.6678C7.96133 13.5548 7.66731 13.4641 7.32291 13.3968ZM20.7852 13.4336L20.7124 13.422L20.6386 13.4792L20.5794 13.5239C20.2193 13.7922 19.7983 14.0446 19.318 14.2796C18.1587 14.8469 17.7774 15.6167 18.1551 16.651C18.2771 16.9851 18.4766 17.3432 18.7526 17.7255L18.8022 17.7942L18.8867 17.7963C20.304 17.8309 21.289 17.1536 21.8552 15.7694L22.1776 14.9811L22.188 16.3795L22.5594 15.7087C22.7077 15.445 22.872 15.1857 23.0516 14.9318C23.325 14.5452 23.5053 14.1435 23.5912 13.7263L23.636 13.508L23.4146 13.5202C23.1188 13.5363 22.8361 13.5455 22.5663 13.5477L22.5335 13.5478H22.3271C21.7508 13.5435 21.2371 13.5054 20.7852 13.4336ZM20.8038 13.7836L20.7835 13.7989C20.4049 14.081 19.9659 14.3442 19.4674 14.5881C18.4563 15.0829 18.1627 15.6756 18.4756 16.5326C18.5787 16.8148 18.7466 17.1226 18.9793 17.4542C20.2057 17.4575 21.037 16.8661 21.539 15.6388L22.2562 13.8914C21.7215 13.8849 21.2364 13.8483 20.8038 13.7836ZM23.2016 13.8741C22.963 13.8845 22.7329 13.8902 22.5112 13.8912L22.5202 15.109C22.601 14.9823 22.6853 14.8569 22.7731 14.7328C22.9711 14.4528 23.1138 14.1668 23.2016 13.8741ZM5.4827 14.9483C5.07836 14.3597 4.83068 13.8025 4.73615 13.2747C5.23149 13.2505 5.68622 13.247 6.0996 13.2641C5.73658 13.7833 5.53 14.3466 5.4827 14.9483ZM22.5172 10.995C22.4648 11.6616 22.217 12.2808 21.7778 12.8451C22.2037 12.8674 22.6753 12.867 23.1916 12.8436L23.289 12.839C23.2209 12.2609 22.9653 11.6473 22.5172 10.995ZM19.5391 8.59075C19.8483 8.34174 20.1691 8.05063 20.5018 7.71707L21.2163 9.43678L21.2386 9.49149C21.7469 10.7587 21.519 11.7961 20.5283 12.6865C20.2471 12.6232 20.0028 12.5431 19.7957 12.4467C18.9712 12.063 18.7617 11.4353 19.1285 10.3671C19.3462 9.73287 19.4833 9.14018 19.5391 8.59075ZM9.11326 8.14688L9.19775 8.14894L9.24738 8.21769C9.52338 8.59998 9.72288 8.95817 9.84487 9.29225C10.2226 10.3266 9.84126 11.0964 8.68198 11.6637C8.08576 11.9554 7.58105 12.2738 7.16945 12.6172L7.11182 12.6653L7.03757 12.6553C6.60548 12.5969 6.12069 12.5674 5.58249 12.5667L5.53523 12.5667L5.41943 12.5673C5.14499 12.5698 4.85717 12.5795 4.5559 12.5965L4.34873 12.6081L4.37715 12.4016C4.44367 11.9181 4.63475 11.4548 4.9484 11.0114C5.12804 10.7575 5.2923 10.4981 5.44062 10.2343L5.81212 9.56337L5.82236 10.962L6.14478 10.1738C6.71099 8.78965 7.6959 8.11232 9.11326 8.14688ZM6.46069 10.3043C6.96274 9.07699 7.79402 8.48563 9.02036 8.48888C9.25314 8.82051 9.42101 9.12825 9.52406 9.41046C9.83702 10.2675 9.54342 10.8602 8.53232 11.355C7.93999 11.6449 7.43167 11.9619 7.00907 12.3054C6.60597 12.2546 6.16171 12.2274 5.67553 12.2238L6.46069 10.3043ZM5.47979 10.834C5.399 10.9607 5.31469 11.0862 5.22687 11.2103C4.98984 11.5454 4.83219 11.8889 4.75279 12.2428C4.9716 12.2327 5.18337 12.2266 5.38815 12.2244L5.48996 12.2236L5.47979 10.834ZM14.7483 6.03301C14.7989 5.628 14.8259 5.18163 14.8295 4.69316L16.7398 5.48208C17.9613 5.98654 18.5499 6.82179 18.5466 8.05402C18.2166 8.2879 17.9103 8.45657 17.6294 8.56011C16.7765 8.87456 16.1866 8.57956 15.6942 7.56363C15.4057 6.96848 15.0902 6.45769 14.7483 6.03301ZM21.1566 7.02332C20.9983 7.19968 20.8426 7.36722 20.6894 7.52599L20.8402 7.6753L21.6306 8.45773C21.6077 8.34639 21.5867 8.23414 21.5677 8.12099C21.4972 7.70203 21.3604 7.33689 21.1566 7.02332ZM10.3256 5.13277L10.811 4.64359L10.1245 4.85683L10.0274 4.88588C9.70442 4.98043 9.37166 5.05687 9.03006 5.1149C8.4818 5.20803 8.01014 5.40792 7.61655 5.71616L7.45432 5.84321L7.60841 5.98011C7.86295 6.20625 8.09942 6.42684 8.31791 6.64198L8.39446 6.71785L8.4353 6.75878C8.78214 7.10758 9.08088 7.4418 9.33194 7.76185L9.37754 7.81999L9.45092 7.82656C9.98901 7.87478 10.5766 8.00883 11.2111 8.22878C12.43 8.6513 13.2414 8.37788 13.7022 7.37816C13.8371 7.08549 13.9409 6.73362 14.0142 6.32312L14.0294 6.23777L13.9701 6.17481C12.9905 5.13541 11.8145 4.91149 10.4358 5.48972L9.65299 5.81806L10.2484 5.21087L10.2871 5.17153L10.3256 5.13277ZM7.26688 6.59418C6.97288 7.03044 6.76268 7.59052 6.63729 8.27818C7.08681 7.89264 7.61926 7.64291 8.22889 7.53097C7.94886 7.23221 7.62804 6.91975 7.26688 6.59418ZM8.73506 6.57497L10.5673 5.80648C11.7893 5.29399 12.7954 5.46867 13.6618 6.34844C13.5948 6.69446 13.5046 6.98985 13.3921 7.23388C13.0103 8.06224 12.3855 8.27278 11.3224 7.90426C10.6912 7.68546 10.1013 7.54768 9.55453 7.49168C9.31925 7.19667 9.0462 6.89126 8.73506 6.57497ZM17.7431 5.18066L18.2926 5.24413C19.3566 5.36703 20.1875 5.66013 20.79 6.12888L20.9339 6.24085L20.8136 6.37807C20.3474 6.90959 19.9057 7.36195 19.4895 7.73407L19.2391 7.95799L19.206 7.6228C19.1217 6.76988 18.7734 6.07692 18.1613 5.5444L17.7431 5.18066ZM19.5 7.25895C19.3886 6.6464 19.1401 6.1114 18.7563 5.65973C19.4408 5.78572 19.9983 5.99693 20.4324 6.29226C20.1084 6.65518 19.7974 6.97756 19.5 7.25895ZM9.63999 5.34215C9.45813 5.38453 9.2738 5.42158 9.087 5.45331C8.68816 5.52106 8.33833 5.6498 8.03555 5.84L7.99455 5.86631C8.20264 6.05489 8.39839 6.23984 8.58187 6.42127L8.81424 6.18428L9.63999 5.34215ZM14.1149 3.54225L14.1044 3.36027L13.8875 3.38611C13.1302 3.48292 12.3366 3.86598 11.4978 4.53496L11.0646 4.88046L11.6163 4.84059C12.432 4.78162 13.1727 5.02966 13.8377 5.5846L14.0936 5.79813L14.1172 5.46477C14.1571 4.90269 14.1563 4.26137 14.1149 3.54225ZM13.7837 3.7491C13.2584 3.84409 12.7039 4.09294 12.1181 4.49922C12.7169 4.54675 13.2775 4.75431 13.7943 5.11907C13.8113 4.70365 13.8078 4.24675 13.7837 3.7491ZM14.8299 4.50666C14.8289 4.26933 14.8225 4.02247 14.8109 3.76598C15.163 3.84575 15.5049 4.00416 15.8383 4.24231C15.9619 4.33056 16.0867 4.41527 16.2129 4.49644L14.8299 4.50666Z" fill="white"/>
</mask>
<g mask="url(#mask1)">
<path fill-rule="evenodd" clip-rule="evenodd" d="M13.6903 4.83272L14.0955 5.28611L14.0426 5.73175L11.4526 4.87028L11.5105 4.61871L11.9237 4.4047L12.9616 4.50236L13.6903 4.83272Z" fill="white"/>
<path fill-rule="evenodd" clip-rule="evenodd" d="M13.6618 3.83189L13.9317 3.40041L14.0954 3.60557V5.32641L13.9467 5.45251L13.7942 5.11919L13.5496 4.43421L13.6618 3.83189Z" fill="url(#paint6_linear)"/>
<path fill-rule="evenodd" clip-rule="evenodd" d="M13.7836 3.74919L13.9442 3.55208L14.1464 3.29904L13.3649 3.36001L11.4795 4.18573V4.61863L11.6039 4.6693L12.118 4.50228L12.7897 4.29062L13.7836 3.74919Z" fill="url(#paint7_linear)"/>
<path fill-rule="evenodd" clip-rule="evenodd" d="M13.9098 6.09021L12.8792 6.4213L9.19482 7.43616L9.47076 7.92611L10.7837 8.20663L12.4225 8.48883L13.6018 8.11206L14.1465 6.53194L13.9098 6.09021Z" fill="url(#paint8_linear)"/>
<path fill-rule="evenodd" clip-rule="evenodd" d="M8.58447 6.59419L8.84889 6.268L9.21989 6.13129L10.935 5.22517H11.7167L12.64 5.18189L13.058 5.48707L13.805 5.9359L13.8461 6.29283L13.662 6.34847H13.0865L9.81452 6.53197L8.58447 6.59419Z" fill="url(#paint9_linear)"/>
<path fill-rule="evenodd" clip-rule="evenodd" d="M8.93591 6.30484L8.60652 6.65084L8.48218 6.30484L9.12101 5.71042L9.84776 4.97976L10.3275 4.85751L10.352 5.20667L8.93591 6.30484Z" fill="url(#paint10_linear)"/>
<path fill-rule="evenodd" clip-rule="evenodd" d="M8.08261 5.86636L7.82331 5.69353L7.61426 5.82461L7.70522 6.06381L8.90419 7.38605L9.46389 7.65554L9.55468 7.49168L9.53543 7.15103L8.73521 6.57498L8.58447 6.42131L8.43914 6.17729L8.08261 5.86636Z" fill="url(#paint11_linear)"/>
<path fill-rule="evenodd" clip-rule="evenodd" d="M8.67236 7.73144L8.40444 7.23759L7.72148 7.38694L6.3298 7.97281C6.3298 7.97281 6.16052 8.67263 6.16052 8.67263C6.16052 8.67263 6.28947 8.98653 6.28947 8.98653L7.18033 8.67263L8.67236 7.73144Z" fill="url(#paint12_linear)"/>
<path fill-rule="evenodd" clip-rule="evenodd" d="M7.37053 6.30103L7.31715 7.05053L6.63741 8.27816L6.39346 8.76368H6.28955C6.28955 8.76368 6.28955 7.38871 6.28955 7.38871L6.70436 6.37535L7.31715 6.17728L7.37053 6.30103Z" fill="url(#paint13_linear)"/>
<path fill-rule="evenodd" clip-rule="evenodd" d="M9.19481 8.27821L9.06002 8.90854L5.71453 12.5454L5.36877 12.3926L5.86525 10.727L6.76282 8.79194L8.08253 8.03693H8.87938L9.19481 8.27821Z" fill="url(#paint14_linear)"/>
<path fill-rule="evenodd" clip-rule="evenodd" d="M5.67547 10.1486L5.71453 10.5062L5.41771 11.3035L4.66666 12.5454H4.30457L4.57539 11.4559L5.51941 10.101L5.67547 10.1486Z" fill="url(#paint15_linear)"/>
<path fill-rule="evenodd" clip-rule="evenodd" d="M5.65655 11.8022V12.2232L5.63289 12.2428L5.42445 12.265L5.39321 12.1909L5.36877 11.3657L5.47964 10.834L5.64595 10.2164L5.75385 10.1486L5.78081 10.7599L5.65655 11.8022Z" fill="url(#paint16_linear)"/>
<path fill-rule="evenodd" clip-rule="evenodd" d="M7.05755 12.2085L7.19464 12.5447L7.1261 12.6477L4.61339 12.5662L4.54626 12.4281L4.75269 12.2427L5.09235 12.1373L5.48985 12.2235H5.67551L6.3306 12.1898L7.05755 12.2085Z" fill="white"/>
<path fill-rule="evenodd" clip-rule="evenodd" d="M4.47519 13.0276L4.73597 13.0816L5.19372 13.5163L5.56156 14.948L5.86523 15.4258L5.48544 15.7885L4.2146 13.7016L4.47519 13.0276Z" fill="url(#paint17_linear)"/>
<path fill-rule="evenodd" clip-rule="evenodd" d="M6.45555 13.0576L5.79845 13.3171L5.48546 14.3624L5.48254 14.9482L5.65173 15.4649L5.86886 15.3545L6.24982 13.7847C6.24982 13.7847 6.56426 13.2182 6.56426 13.2023C6.56426 13.1864 6.45555 13.0576 6.45555 13.0576Z" fill="url(#paint18_linear)"/>
<path fill-rule="evenodd" clip-rule="evenodd" d="M6.09937 13.2641L6.4311 13.1108L6.49903 13.0278L5.99229 12.888L4.79156 12.9102L4.53967 13.1133L4.73592 13.2747L5.19367 13.5166L5.71884 13.379L6.09937 13.2641Z" fill="url(#paint19_linear)"/>
<path fill-rule="evenodd" clip-rule="evenodd" d="M7.31189 13.0816C7.31189 13.1233 7.50577 13.7461 7.50577 13.7461L7.52306 18.2866L7.47295 18.3325H7.22368L6.81119 17.7669L6.04535 15.5858L5.96008 14.6075L6.64657 13.3969C6.64657 13.3969 7.31189 13.04 7.31189 13.0816Z" fill="url(#paint20_linear)"/>
<path fill-rule="evenodd" clip-rule="evenodd" d="M6.41162 17.5949L6.35637 17.0851L5.89087 16.7389V17.8388L6.35637 19.2565L6.79335 19.32L6.81122 19.0415L6.65893 18.0712L6.41162 17.5949Z" fill="url(#paint21_linear)"/>
<path fill-rule="evenodd" clip-rule="evenodd" d="M5.99243 16.871L6.32146 17.4383L6.54518 17.858L7.35284 18.4593L7.47304 18.3327L7.27011 18.1341L6.65586 17.3221L6.06104 16.8402L5.99243 16.871Z" fill="url(#paint22_linear)"/>
<path fill-rule="evenodd" clip-rule="evenodd" d="M12.4344 21.4216L13.0252 21.7588L13.4209 21.5242L13.0252 20.8953L9.63149 17.8643L9.28661 17.6938L9.11597 17.8761L9.28661 19.3854L10.7143 20.988L12.4344 21.4216Z" fill="url(#paint23_linear)"/>
<path fill-rule="evenodd" clip-rule="evenodd" d="M13.4801 19.9578L13.2004 20.0982H13.0628L9.45319 17.9701L9.28662 17.8837V17.581L10.0088 17.1772L11.1025 16.8402L11.5415 17.0769L11.969 17.3975L12.2946 17.7664L12.8737 19.0187L13.3312 19.6931L13.4801 19.9578Z" fill="url(#paint24_linear)"/>
<path fill-rule="evenodd" clip-rule="evenodd" d="M11.9164 21.6177L11.3065 21.4456L11.8007 21.3386L12.7641 21.4397L13.1715 21.4217L13.2424 21.7018L13.025 21.7589L11.9164 21.6177Z" fill="url(#paint25_linear)"/>
<path fill-rule="evenodd" clip-rule="evenodd" d="M14.3243 21.0481L14.2228 20.4147L13.9097 20.3827L13.7664 21.1791L13.8059 22.5892L14.1412 22.7551L14.0604 22.4765L14.2228 22.2791L14.5318 21.727L14.3243 21.0481Z" fill="url(#paint26_linear)"/>
<path fill-rule="evenodd" clip-rule="evenodd" d="M18.468 20.119L19.4818 19.8374L19.664 19.2033L18.8238 19.1274L14.4256 19.4408L13.9589 19.5641L13.9099 19.9658L14.8604 20.6524L15.951 20.7882H16.9353L18.468 20.119Z" fill="url(#paint27_linear)"/>
<path fill-rule="evenodd" clip-rule="evenodd" d="M18.6307 18.25L18.5153 18.6243L18.2846 18.7487L15.0712 19.0187L14.3243 19.6669L14.1412 19.723L13.9587 19.2945L14.6197 17.6625L15.1113 17.5229L16.222 17.3777C16.222 17.3777 17.5528 17.6937 17.592 17.6937C17.6311 17.6937 18.6307 18.25 18.6307 18.25Z" fill="url(#paint28_linear)"/>
<path fill-rule="evenodd" clip-rule="evenodd" d="M19.8633 20.1192H20.2785L20.4572 20.077L19.4256 18.8691L18.5339 18.2878L18.4453 18.4517L18.5339 18.8691L19.3403 19.4409L19.503 19.8531L19.8633 20.1192Z" fill="url(#paint29_linear)"/>
<path fill-rule="evenodd" clip-rule="evenodd" d="M18.5675 20.5236L18.4294 20.8764C18.4294 20.8764 17.9942 21.0793 17.9391 21.0575C17.884 21.0356 17.6948 20.8764 17.6948 20.8764L19.0639 19.7242L19.3402 19.4407L19.4608 19.564L19.5029 19.7242L18.5675 20.5236Z" fill="url(#paint30_linear)"/>
<path fill-rule="evenodd" clip-rule="evenodd" d="M18.4678 20.5766L17.9154 20.8953L17.8838 21.013C17.8838 21.013 18.6076 21.0972 18.631 21.0972C18.6544 21.0972 19.8417 20.7186 19.8558 20.7186C19.8698 20.7186 20.415 20.3138 20.415 20.2885C20.415 20.2632 20.2782 20.0917 20.2782 20.0917L20.0052 20.0769L19.8683 20.0829L19.0231 20.3197L18.4678 20.5766Z" fill="white"/>
<path fill-rule="evenodd" clip-rule="evenodd" d="M20.79 19.1863L20.8629 19.658L20.6691 19.8066L19.5463 18.7402L19.3247 18.1393L19.6296 18.0388L20.4571 18.7402L20.79 19.1863Z" fill="url(#paint31_linear)"/>
<path fill-rule="evenodd" clip-rule="evenodd" d="M21.2229 17.8432L21.3961 17.0966L21.8393 17.0317L21.5311 19.1239L20.7605 19.6033L20.7329 19.349L20.7605 18.4438L21.2229 17.8432Z" fill="url(#paint32_linear)"/>
<path fill-rule="evenodd" clip-rule="evenodd" d="M21.3623 17.6649L21.6063 17.1794L21.1141 17.2743L19.6779 17.8984L19.4254 18.2876L19.7707 18.4122L20.3062 18.507L20.7899 18.2499L21.3623 17.6649Z" fill="#556086"/>
<path fill-rule="evenodd" clip-rule="evenodd" d="M20.9492 13.8743L20.8252 13.422L20.2278 13.6031L18.5471 14.5546L18.0832 15.2463L18.0144 16.1041L18.2885 17.0753C18.2885 17.0753 18.5528 17.509 18.7227 17.6651C18.8926 17.8211 19.0751 17.7976 19.0751 17.7976L19.4818 17.0753L20.2278 14.9243L20.9492 13.8743Z" fill="url(#paint33_linear)"/>
<path fill-rule="evenodd" clip-rule="evenodd" d="M22.332 14.3392L22.4515 13.9421L22.4354 13.7837L22.1514 13.8282L21.7778 14.4271L20.2784 16.647L18.9794 17.4543L18.8866 17.6259C18.8866 17.6259 19.0954 17.7975 19.1387 17.7975C19.1819 17.7975 19.7171 17.7975 19.7708 17.7975C19.8245 17.7975 21.1959 17.2866 21.1959 17.2866C21.1959 17.2866 21.6064 16.9645 21.6064 16.9131C21.6064 16.8617 22.332 14.3392 22.332 14.3392Z" fill="url(#paint34_linear)"/>
<path fill-rule="evenodd" clip-rule="evenodd" d="M22.4513 15.7469L22.6619 14.7007L22.6 13.603L22.3418 13.6596V14.1273L22.256 14.5798L22.2085 15.6189L22.3317 15.9049L22.4513 15.7469Z" fill="url(#paint35_linear)"/>
<path fill-rule="evenodd" clip-rule="evenodd" d="M23.5039 13.6916L23.1092 14.01L22.511 13.8914L22.2562 13.8916L21.6117 13.9451H21.0482L20.7899 13.7838L20.7358 13.6031L21.0964 13.422L23.1092 13.5297L23.5039 13.6916Z" fill="#556086"/>
<path fill-rule="evenodd" clip-rule="evenodd" d="M23.2889 12.8391L23.4742 13.002V13.1863L21.1896 13.0579L21.358 12.7494L22.0144 12.6867L23.2889 12.8391Z" fill="#F0F1F5"/>
<path fill-rule="evenodd" clip-rule="evenodd" d="M22.5333 10.9948L22.3609 10.5105H22.2687L21.4287 12.9929L21.7777 12.8449L22.2256 12.6079L22.511 11.9848L22.6002 11.3287L22.5333 10.9948Z" fill="url(#paint36_linear)"/>
<path fill-rule="evenodd" clip-rule="evenodd" d="M20.5307 12.6303L20.7359 12.931L20.6333 13.0579L19.7325 12.931L18.9175 12.2881L18.4509 11.3317L18.8323 9.59868L19.376 8.45787L19.6287 8.5112L19.787 8.68017L20.5307 12.6303Z" fill="url(#paint37_linear)"/>
<path fill-rule="evenodd" clip-rule="evenodd" d="M21.2289 6.68645L21.1974 7.35074L20.6854 7.5258L20.5024 7.74034L19.9581 8.42804L19.5391 8.59066L19.376 8.50169L20.1094 7.2587L21.1974 6.50998L21.2289 6.68645Z" fill="url(#paint38_linear)"/>
<path fill-rule="evenodd" clip-rule="evenodd" d="M21.5416 8.27938C21.5416 8.27938 21.9557 8.648 21.986 8.67992C22.0163 8.71184 22.0945 9.18229 22.0945 9.18229L21.6922 9.09553L20.7204 7.79745L20.5607 7.64995L20.6894 7.52587H20.8429L21.5416 8.27938Z" fill="url(#paint39_linear)"/>
<path fill-rule="evenodd" clip-rule="evenodd" d="M19.5609 7.10339V7.66867L19.3089 7.89385L18.9547 7.16899L18.1423 5.31291L18.7564 5.25877L19.3386 6.20513L19.5609 7.10339Z" fill="url(#paint40_linear)"/>
<path fill-rule="evenodd" clip-rule="evenodd" d="M20.7182 6.20529C20.6894 6.20529 20.2765 6.20529 20.2765 6.20529L19.5 7.2589L19.376 7.60579L19.4507 7.74054L20.8428 6.33527C20.8428 6.33527 20.7471 6.20529 20.7182 6.20529Z" fill="url(#paint41_linear)"/>
<path fill-rule="evenodd" clip-rule="evenodd" d="M18.7564 5.65968L18.2732 5.41457L18.1423 5.14943L18.9954 5.18059C18.9954 5.18059 20.1296 5.78024 20.1787 5.78024C20.2277 5.78024 20.6855 6.26452 20.6855 6.26452L20.4324 6.29221L20.0705 6.26452L18.7564 5.65968Z" fill="#535E84"/>
<path fill-rule="evenodd" clip-rule="evenodd" d="M14.5383 6.20549L14.92 6.19216L14.9738 4.40492L14.92 3.47145L14.5986 3.42841L14.4661 4.02697L14.5383 6.20549Z" fill="url(#paint42_linear)"/>
<path fill-rule="evenodd" clip-rule="evenodd" d="M14.8298 4.61869V4.77543L15.0128 4.90755L16.9177 5.83958L17.8697 7.09337L18.5466 8.05408L18.7175 8.14361H18.8323V7.40677C18.8323 7.40677 18.5863 6.27185 18.2006 5.89632C17.8149 5.52078 16.6475 5.01162 16.6475 5.01162L15.2442 4.61869H14.8298Z" fill="url(#paint43_linear)"/>
<path fill-rule="evenodd" clip-rule="evenodd" d="M16.046 4.42897H16.5157C16.5157 4.42897 16.9506 4.53082 16.9506 4.54922C16.9506 4.56761 16.9506 4.83272 16.9506 4.83272L15.2355 4.67534L14.8298 4.69325V4.5067L15.0515 4.4047L16.046 4.42897Z" fill="white"/>
<path fill-rule="evenodd" clip-rule="evenodd" d="M14.8106 3.76608L14.5381 3.46633L14.8489 3.36033L15.7861 3.82096L16.767 4.08051L17.3001 4.69332L16.8273 4.66364L16.2126 4.50243L15.5116 4.33402L14.8106 3.76608Z" fill="#535E84"/>
<path fill-rule="evenodd" clip-rule="evenodd" d="M18.5466 8.05393L18.7174 8.14345L18.7848 8.31396L18.1436 8.62473L17.3985 9.09545H16.2759L15.696 8.57469L15.123 7.35456L14.5693 6.08433L14.7482 6.03291H15.2208L18.5466 8.05393Z" fill="white"/>
<path fill-rule="evenodd" clip-rule="evenodd" d="M21.1565 7.02323L21.1713 6.74892L21.7798 6.97281L22.016 8.4247L21.9367 9.0019L21.6304 8.45764L21.2983 7.82799L21.1565 7.02323Z" fill="url(#paint44_linear)"/>
<path fill-rule="evenodd" clip-rule="evenodd" d="M20.5606 7.65009L20.5018 7.71721L20.4711 7.83641L20.8428 9.9365L20.5282 12.6866L20.5763 12.8726L20.6906 13.0146L21.251 12.6866L21.8788 11.373L21.9081 10.2019L21.644 9.26414L20.7203 7.79759L20.5606 7.65009Z" fill="url(#paint45_linear)"/>
<path fill-rule="evenodd" clip-rule="evenodd" d="M23.2016 13.8742L23.4238 13.6915H23.588L22.9017 15.6556L22.361 15.71L22.5201 15.1091L22.7819 14.3845L23.2016 13.8742Z" fill="url(#paint46_linear)"/>
<path fill-rule="evenodd" clip-rule="evenodd" d="M15.8815 21.5298L16.3957 21.3598L16.6538 21.2392L15.7567 20.9555L14.1411 20.3827L14.0425 20.5721L14.1947 20.8954L14.5175 21.2682L15.0652 21.5934L15.8815 21.5298Z" fill="url(#paint47_linear)"/>
<path fill-rule="evenodd" clip-rule="evenodd" d="M13.3755 22.471L13.1931 22.2639L13.1373 21.7621L13.1716 21.608V21.4214L13.0626 20.4421L13.2424 19.9846L13.4208 19.9327L13.5994 19.9577V21.9957L13.3755 22.471Z" fill="url(#paint48_linear)"/>
<path fill-rule="evenodd" clip-rule="evenodd" d="M8.71604 18.3327L8.43838 19.1863L7.52029 19.7899L7.27014 19.8152V19.415L8.43838 18.3327H8.71604Z" fill="url(#paint49_linear)"/>
<path fill-rule="evenodd" clip-rule="evenodd" d="M8.6166 18.4296L8.487 18.7822L8.43823 18.8858L8.6166 19.9929L9.20427 20.4083C9.20427 20.4083 9.28044 20.4663 9.72656 20.7003C10.1727 20.9343 9.45296 20.0981 9.45296 20.0981L8.84923 18.5134L8.6166 18.4296Z" fill="#5C668B"/>
<path fill-rule="evenodd" clip-rule="evenodd" d="M8.63301 17.52L8.47115 17.4299L7.95661 15.8998L7.32294 13.3971L7.26766 13.2121L7.22388 13.1235L7.59215 13.1364L8.34217 13.1235L9.21504 13.7253L9.45318 14.5294L9.2866 16.1142L8.85129 17.3491L8.63301 17.52Z" fill="url(#paint50_linear)"/>
<path fill-rule="evenodd" clip-rule="evenodd" d="M9.109 8.31839L9.02033 8.48881L8.95499 8.99819L7.06064 12.1549L7.00903 12.3053L7.06022 12.4851L7.36282 12.6477L8.47016 11.8552L9.62561 11.2595L9.85375 10.8709L10.1297 10.0081L10.0116 9.16778L9.54666 8.56567L9.18035 8.20662L9.109 8.31839Z" fill="url(#paint51_linear)"/>
<path fill-rule="evenodd" clip-rule="evenodd" d="M7.2395 6.33989L7.26705 6.59416L7.30773 6.85023L8.0687 7.47088L8.22906 7.53095L8.57429 7.65552L8.63371 7.47088C8.63371 7.47088 7.99349 6.48359 7.97505 6.48359C7.9566 6.48359 7.2395 6.17728 7.2395 6.17728V6.33989Z" fill="url(#paint52_linear)"/>
<path fill-rule="evenodd" clip-rule="evenodd" d="M9.63983 5.34226L10.2044 5.01165L10.2942 4.7865L9.05161 4.95826L7.90392 5.20298L7.54248 5.54838L7.72139 5.85159L7.99439 5.86642L8.63349 5.72948L9.63983 5.34226Z" fill="url(#paint53_linear)"/>
</g>
<path fill-rule="evenodd" clip-rule="evenodd" d="M14.4791 1.87598L14.3856 1.0859L13.8777 1.69638C12.5365 3.3087 10.896 4.27582 8.9446 4.6073C8.25056 4.72519 7.66625 4.98891 7.19154 5.39453C6.97865 5.21596 6.75547 5.03434 6.52199 4.84963L5.89985 4.3574L5.97036 5.14989C6.1566 7.24294 5.67722 9.09232 4.53065 10.7132C4.13165 11.2772 3.90518 11.8653 3.84862 12.475C3.53534 12.5019 3.2097 12.5356 2.87165 12.576L2.08533 12.67L2.6929 13.1802C4.29755 14.5279 5.26006 16.1762 5.58996 18.137C5.7038 18.8136 5.95428 19.3864 6.33784 19.8555C6.1716 20.0565 6.00271 20.2664 5.83113 20.4854L5.34125 21.1105L6.12997 21.0396C6.87982 20.9723 7.86605 21.03 8.28581 21.0977C8.70558 21.1654 8.99427 21.2323 9.36321 21.3422C10.1788 21.5852 10.9449 21.9707 11.6667 22.4862C12.2304 22.8888 12.8183 23.1166 13.4277 23.1723C13.4532 23.4604 13.4842 23.7587 13.5207 24.0673L13.6142 24.8574L14.1221 24.247C15.4633 22.6346 17.1038 21.6675 19.0552 21.336C19.7492 21.2181 20.3335 20.9544 20.8083 20.5488C21.0212 20.7274 21.2443 20.909 21.4778 21.0937L22.1 21.5859L22.0294 20.7934L22.0234 20.7222C21.8542 18.6584 22.3356 16.8326 23.4692 15.2302C23.8302 14.7198 24.05 14.1897 24.1304 13.6417C24.4501 13.6145 24.7826 13.5803 25.1282 13.539L25.9145 13.445L25.3069 12.9347C23.7023 11.587 22.7397 9.93873 22.4099 7.97799C22.2925 7.28063 22.0301 6.69353 21.6264 6.21654C21.8041 6.00263 21.9848 5.77838 22.1687 5.54379L22.6586 4.91867L21.8698 4.98952C19.7868 5.17666 17.9462 4.69498 16.3331 3.54292C15.7717 3.14202 15.1864 2.91447 14.5796 2.85763C14.5528 2.54285 14.5193 2.21565 14.4791 1.87598ZM14.0445 20.6227L14.0476 20.572C14.746 21.1569 15.5315 21.4222 16.3959 21.3598C15.5661 22.0216 14.7899 22.3913 14.0606 22.4764C14.018 21.7845 14.0128 21.1664 14.0445 20.6227ZM10.3115 17.3077C9.99619 17.424 9.65424 17.616 9.2865 17.8837C9.22368 19.2901 9.85996 20.2401 11.195 20.7914L12.7643 21.4395L11.3228 21.4502C11.5743 21.5952 11.8209 21.754 12.0626 21.9266C12.4825 22.2264 12.9195 22.4087 13.3755 22.4711C13.3172 21.4919 13.3318 20.6464 13.4208 19.9329C13.0737 19.5105 12.7527 18.9958 12.4592 18.3902C11.928 17.2942 11.2478 16.9625 10.3115 17.3077ZM14.1412 19.723C14.2127 19.2943 14.3166 18.9322 14.4526 18.6373C14.8717 17.728 15.5861 17.4792 16.733 17.8768C17.3804 18.1012 17.9813 18.2382 18.5337 18.2877C18.974 18.849 19.5555 19.4497 20.2783 20.0917C19.9067 20.3827 19.461 20.5709 18.9413 20.6592C18.5903 20.7188 18.2483 20.7975 17.9155 20.8953L19.0639 19.7243L17.4981 20.381C16.1843 20.9321 15.0782 20.7258 14.1412 19.723ZM8.61676 18.4296L8.6041 18.441C8.1869 18.8159 7.74193 19.2739 7.27016 19.8152C7.58378 20.0691 7.96795 20.2722 8.42433 20.4245C8.78294 20.5441 9.1159 20.6226 9.52715 20.6748L9.59674 20.6839H9.59676H9.59678H9.59679C9.63969 20.6896 9.68297 20.6953 9.72673 20.7003C9.06069 20.1209 8.69073 19.3599 8.61676 18.4296ZM19.4255 18.2876C20.3155 18.1989 21.0463 17.8295 21.6064 17.1795C21.4872 18.2218 21.205 19.0265 20.7604 19.6032C20.2352 19.1382 19.7903 18.6993 19.4255 18.2876ZM7.26759 13.2122L7.24042 13.2382C6.27733 14.1714 6.085 15.2705 6.62595 16.5726L7.27951 18.1458L6.07091 16.9494C6.04453 16.9233 6.01838 16.8972 5.99246 16.8711C6.10679 17.2434 6.19719 17.6273 6.2637 18.0226C6.34797 18.5235 6.52368 18.956 6.79344 19.3199C7.44918 18.5713 8.06155 17.9714 8.63294 17.5201C8.68857 16.9909 8.8219 16.4182 9.03285 15.8038C9.4285 14.6514 9.18095 13.9336 8.27597 13.5125C7.9992 13.3836 7.66292 13.2834 7.26759 13.2122ZM14.1673 7.59469C14.2522 7.41067 14.3259 7.20756 14.3887 6.9852C14.5752 7.26642 14.7543 7.58441 14.9264 7.93954C15.603 9.33541 16.6378 9.84002 17.9238 9.36593C18.1455 9.28421 18.3748 9.17324 18.6121 9.03292C18.546 9.36359 18.4491 9.7149 18.3212 10.0874C17.8173 11.5551 18.1939 12.6472 19.4368 13.2256C19.569 13.2871 19.7112 13.3429 19.8633 13.3928C19.6297 13.5386 19.3733 13.6799 19.0936 13.8167C17.7044 14.4965 17.2022 15.5363 17.674 16.8284C17.7554 17.0511 17.8658 17.2816 18.0055 17.52C17.6764 17.4536 17.3267 17.3562 16.956 17.2277C15.4953 16.7214 14.4084 17.0998 13.8327 18.3487C13.7403 18.5493 13.661 18.7725 13.5947 19.0187C13.4142 18.7438 13.2406 18.4342 13.0736 18.0897C12.3971 16.6938 11.3622 16.1892 10.0763 16.6633C9.86095 16.7426 9.63838 16.8496 9.40831 16.9843C9.47332 16.6824 9.56351 16.3636 9.67887 16.0276C10.1828 14.5599 9.80618 13.4679 8.56323 12.8894C8.38009 12.8042 8.17795 12.7301 7.95664 12.667C8.23653 12.4796 8.553 12.2996 8.90644 12.1267C10.2957 11.4469 10.7979 10.4071 10.326 9.11497C10.2447 8.89226 10.1343 8.66184 9.99462 8.42342C10.3237 8.48975 10.6733 8.58716 11.0441 8.71566C12.5048 9.222 13.5916 8.84358 14.1673 7.59469ZM20.7584 13.603L20.7429 13.615C20.3599 13.9077 19.9096 14.1809 19.3927 14.4338C18.3019 14.9676 17.9718 15.651 18.3153 16.5918C18.4313 16.9095 18.6231 17.254 18.8907 17.6246C20.2423 17.6577 21.1599 17.0173 21.6971 15.7041L22.342 14.1274L22.3539 15.7267C22.5202 15.4215 22.7063 15.1234 22.9122 14.8323C23.1717 14.4655 23.3427 14.0856 23.4237 13.6915C22.3801 13.7485 21.4923 13.7197 20.7584 13.603ZM4.53992 13.1134L4.55082 13.1128C5.25664 13.0721 5.88376 13.0717 6.43135 13.1109C5.85247 13.8112 5.58988 14.5987 5.65191 15.4649C4.99172 14.6293 4.62358 13.8477 4.53992 13.1134ZM22.348 10.4783C22.4148 11.4115 22.1049 12.2532 21.4287 12.993C22.0151 13.0435 22.6972 13.0464 23.4742 13.0006C23.4319 12.217 23.0596 11.3791 22.348 10.4783ZM21.1592 6.76294L21.1716 6.74895C21.4612 7.12229 21.6484 7.57014 21.7363 8.09232C21.7885 8.40259 21.8554 8.7058 21.937 9.00193L21.9291 8.99394L20.7205 7.7975L21.374 9.3707L21.3968 9.42638C21.9407 10.7825 21.6816 11.917 20.5764 12.8725C20.2479 12.8041 19.9636 12.714 19.724 12.6025C18.819 12.1813 18.5715 11.4635 18.9671 10.3112C19.1905 9.6606 19.3268 9.0568 19.3761 8.50182C19.9312 8.06222 20.5249 7.48261 21.1592 6.76294ZM6.30267 10.2391L5.65768 11.8159L5.64597 10.2163C5.47963 10.5215 5.29348 10.8197 5.08752 11.1109C4.79017 11.5312 4.60906 11.9687 4.54625 12.4251C5.51812 12.3705 6.35554 12.39 7.06022 12.4852C7.4827 12.1327 7.99882 11.807 8.60708 11.5093C9.69783 10.9756 10.0279 10.2922 9.6844 9.35137C9.5684 9.0337 9.37659 8.68911 9.10901 8.31848C7.75736 8.28551 6.83986 8.92585 6.30267 10.2391ZM14.6314 3.59524L14.6294 3.55863C15.0836 3.62175 15.519 3.80373 15.9373 4.10248C16.2271 4.30943 16.5239 4.49647 16.8276 4.6636L15.2357 4.67537L16.8049 5.32344C18.1119 5.86321 18.7492 6.7851 18.7164 8.14324C18.3475 8.41209 18.0046 8.6048 17.6884 8.72135C16.7521 9.06653 16.0719 8.73485 15.5407 7.63889C15.2445 7.02767 14.9203 6.50905 14.5695 6.08454C14.6631 5.38534 14.6832 4.55609 14.6314 3.59524ZM7.23958 6.33996C6.79494 6.91689 6.51283 7.72153 6.39359 8.76376C6.95372 8.1137 7.68442 7.74433 8.57437 7.6556C8.20973 7.24387 7.76477 6.80498 7.23958 6.33996ZM10.1749 5.02109L10.2046 5.01188C10.1786 5.03792 10.1527 5.06419 10.1267 5.0907L8.93594 6.30508L10.5016 5.64839C11.8096 5.0998 12.9118 5.30176 13.8461 6.29311C13.7752 6.69032 13.6754 7.02821 13.5472 7.30631C13.1281 8.21562 12.4137 8.46436 11.2668 8.06681C10.6193 7.84238 10.0184 7.70539 9.46609 7.65589C9.02577 7.09455 8.44429 6.49391 7.72156 5.85182C8.09313 5.56083 8.53885 5.37269 9.05854 5.28442C9.44148 5.21937 9.81363 5.13157 10.1749 5.02109ZM18.2732 5.41453C18.9202 5.97734 19.2878 6.71154 19.3761 7.60574C19.7859 7.23934 20.2227 6.79222 20.6856 6.26448C20.1115 5.81789 19.3107 5.53436 18.2732 5.41453ZM13.9076 3.55656L13.9443 3.55219C13.9854 4.26578 13.986 4.8995 13.9468 5.45258C13.2498 4.87093 12.4661 4.60709 11.604 4.66941C12.4218 4.01716 13.1875 3.64863 13.9076 3.55656Z" fill="url(#paint54_linear)"/>
<mask id="mask2" mask-type="alpha" maskUnits="userSpaceOnUse" x="2" y="1" width="24" height="24">
<path fill-rule="evenodd" clip-rule="evenodd" d="M14.4791 1.87598L14.3856 1.0859L13.8777 1.69638C12.5365 3.3087 10.896 4.27582 8.9446 4.6073C8.25056 4.72519 7.66625 4.98891 7.19154 5.39453C6.97865 5.21596 6.75547 5.03434 6.52199 4.84963L5.89985 4.3574L5.97036 5.14989C6.1566 7.24294 5.67722 9.09232 4.53065 10.7132C4.13165 11.2772 3.90518 11.8653 3.84862 12.475C3.53534 12.5019 3.2097 12.5356 2.87165 12.576L2.08533 12.67L2.6929 13.1802C4.29755 14.5279 5.26006 16.1762 5.58996 18.137C5.7038 18.8136 5.95428 19.3864 6.33784 19.8555C6.1716 20.0565 6.00271 20.2664 5.83113 20.4854L5.34125 21.1105L6.12997 21.0396C6.87982 20.9723 7.86605 21.03 8.28581 21.0977C8.70558 21.1654 8.99427 21.2323 9.36321 21.3422C10.1788 21.5852 10.9449 21.9707 11.6667 22.4862C12.2304 22.8888 12.8183 23.1166 13.4277 23.1723C13.4532 23.4604 13.4842 23.7587 13.5207 24.0673L13.6142 24.8574L14.1221 24.247C15.4633 22.6346 17.1038 21.6675 19.0552 21.336C19.7492 21.2181 20.3335 20.9544 20.8083 20.5488C21.0212 20.7274 21.2443 20.909 21.4778 21.0937L22.1 21.5859L22.0294 20.7934L22.0234 20.7222C21.8542 18.6584 22.3356 16.8326 23.4692 15.2302C23.8302 14.7198 24.05 14.1897 24.1304 13.6417C24.4501 13.6145 24.7826 13.5803 25.1282 13.539L25.9145 13.445L25.3069 12.9347C23.7023 11.587 22.7397 9.93873 22.4099 7.97799C22.2925 7.28063 22.0301 6.69353 21.6264 6.21654C21.8041 6.00263 21.9848 5.77838 22.1687 5.54379L22.6586 4.91867L21.8698 4.98952C19.7868 5.17666 17.9462 4.69498 16.3331 3.54292C15.7717 3.14202 15.1864 2.91447 14.5796 2.85763C14.5528 2.54285 14.5193 2.21565 14.4791 1.87598ZM14.0445 20.6227L14.0476 20.572C14.746 21.1569 15.5315 21.4222 16.3959 21.3598C15.5661 22.0216 14.7899 22.3913 14.0606 22.4764C14.018 21.7845 14.0128 21.1664 14.0445 20.6227ZM10.3115 17.3077C9.99619 17.424 9.65424 17.616 9.2865 17.8837C9.22368 19.2901 9.85996 20.2401 11.195 20.7914L12.7643 21.4395L11.3228 21.4502C11.5743 21.5952 11.8209 21.754 12.0626 21.9266C12.4825 22.2264 12.9195 22.4087 13.3755 22.4711C13.3172 21.4919 13.3318 20.6464 13.4208 19.9329C13.0737 19.5105 12.7527 18.9958 12.4592 18.3902C11.928 17.2942 11.2478 16.9625 10.3115 17.3077ZM14.1412 19.723C14.2127 19.2943 14.3166 18.9322 14.4526 18.6373C14.8717 17.728 15.5861 17.4792 16.733 17.8768C17.3804 18.1012 17.9813 18.2382 18.5337 18.2877C18.974 18.849 19.5555 19.4497 20.2783 20.0917C19.9067 20.3827 19.461 20.5709 18.9413 20.6592C18.5903 20.7188 18.2483 20.7975 17.9155 20.8953L19.0639 19.7243L17.4981 20.381C16.1843 20.9321 15.0782 20.7258 14.1412 19.723ZM8.61676 18.4296L8.6041 18.441C8.1869 18.8159 7.74193 19.2739 7.27016 19.8152C7.58378 20.0691 7.96795 20.2722 8.42433 20.4245C8.78294 20.5441 9.1159 20.6226 9.52715 20.6748L9.59674 20.6839H9.59676H9.59678H9.59679C9.63969 20.6896 9.68297 20.6953 9.72673 20.7003C9.06069 20.1209 8.69073 19.3599 8.61676 18.4296ZM19.4255 18.2876C20.3155 18.1989 21.0463 17.8295 21.6064 17.1795C21.4872 18.2218 21.205 19.0265 20.7604 19.6032C20.2352 19.1382 19.7903 18.6993 19.4255 18.2876ZM7.26759 13.2122L7.24042 13.2382C6.27733 14.1714 6.085 15.2705 6.62595 16.5726L7.27951 18.1458L6.07091 16.9494C6.04453 16.9233 6.01838 16.8972 5.99246 16.8711C6.10679 17.2434 6.19719 17.6273 6.2637 18.0226C6.34797 18.5235 6.52368 18.956 6.79344 19.3199C7.44918 18.5713 8.06155 17.9714 8.63294 17.5201C8.68857 16.9909 8.8219 16.4182 9.03285 15.8038C9.4285 14.6514 9.18095 13.9336 8.27597 13.5125C7.9992 13.3836 7.66292 13.2834 7.26759 13.2122ZM14.1673 7.59469C14.2522 7.41067 14.3259 7.20756 14.3887 6.9852C14.5752 7.26642 14.7543 7.58441 14.9264 7.93954C15.603 9.33541 16.6378 9.84002 17.9238 9.36593C18.1455 9.28421 18.3748 9.17324 18.6121 9.03292C18.546 9.36359 18.4491 9.7149 18.3212 10.0874C17.8173 11.5551 18.1939 12.6472 19.4368 13.2256C19.569 13.2871 19.7112 13.3429 19.8633 13.3928C19.6297 13.5386 19.3733 13.6799 19.0936 13.8167C17.7044 14.4965 17.2022 15.5363 17.674 16.8284C17.7554 17.0511 17.8658 17.2816 18.0055 17.52C17.6764 17.4536 17.3267 17.3562 16.956 17.2277C15.4953 16.7214 14.4084 17.0998 13.8327 18.3487C13.7403 18.5493 13.661 18.7725 13.5947 19.0187C13.4142 18.7438 13.2406 18.4342 13.0736 18.0897C12.3971 16.6938 11.3622 16.1892 10.0763 16.6633C9.86095 16.7426 9.63838 16.8496 9.40831 16.9843C9.47332 16.6824 9.56351 16.3636 9.67887 16.0276C10.1828 14.5599 9.80618 13.4679 8.56323 12.8894C8.38009 12.8042 8.17795 12.7301 7.95664 12.667C8.23653 12.4796 8.553 12.2996 8.90644 12.1267C10.2957 11.4469 10.7979 10.4071 10.326 9.11497C10.2447 8.89226 10.1343 8.66184 9.99462 8.42342C10.3237 8.48975 10.6733 8.58716 11.0441 8.71566C12.5048 9.222 13.5916 8.84358 14.1673 7.59469ZM20.7584 13.603L20.7429 13.615C20.3599 13.9077 19.9096 14.1809 19.3927 14.4338C18.3019 14.9676 17.9718 15.651 18.3153 16.5918C18.4313 16.9095 18.6231 17.254 18.8907 17.6246C20.2423 17.6577 21.1599 17.0173 21.6971 15.7041L22.342 14.1274L22.3539 15.7267C22.5202 15.4215 22.7063 15.1234 22.9122 14.8323C23.1717 14.4655 23.3427 14.0856 23.4237 13.6915C22.3801 13.7485 21.4923 13.7197 20.7584 13.603ZM4.53992 13.1134L4.55082 13.1128C5.25664 13.0721 5.88376 13.0717 6.43135 13.1109C5.85247 13.8112 5.58988 14.5987 5.65191 15.4649C4.99172 14.6293 4.62358 13.8477 4.53992 13.1134ZM22.348 10.4783C22.4148 11.4115 22.1049 12.2532 21.4287 12.993C22.0151 13.0435 22.6972 13.0464 23.4742 13.0006C23.4319 12.217 23.0596 11.3791 22.348 10.4783ZM21.1592 6.76294L21.1716 6.74895C21.4612 7.12229 21.6484 7.57014 21.7363 8.09232C21.7885 8.40259 21.8554 8.7058 21.937 9.00193L21.9291 8.99394L20.7205 7.7975L21.374 9.3707L21.3968 9.42638C21.9407 10.7825 21.6816 11.917 20.5764 12.8725C20.2479 12.8041 19.9636 12.714 19.724 12.6025C18.819 12.1813 18.5715 11.4635 18.9671 10.3112C19.1905 9.6606 19.3268 9.0568 19.3761 8.50182C19.9312 8.06222 20.5249 7.48261 21.1592 6.76294ZM6.30267 10.2391L5.65768 11.8159L5.64597 10.2163C5.47963 10.5215 5.29348 10.8197 5.08752 11.1109C4.79017 11.5312 4.60906 11.9687 4.54625 12.4251C5.51812 12.3705 6.35554 12.39 7.06022 12.4852C7.4827 12.1327 7.99882 11.807 8.60708 11.5093C9.69783 10.9756 10.0279 10.2922 9.6844 9.35137C9.5684 9.0337 9.37659 8.68911 9.10901 8.31848C7.75736 8.28551 6.83986 8.92585 6.30267 10.2391ZM14.6314 3.59524L14.6294 3.55863C15.0836 3.62175 15.519 3.80373 15.9373 4.10248C16.2271 4.30943 16.5239 4.49647 16.8276 4.6636L15.2357 4.67537L16.8049 5.32344C18.1119 5.86321 18.7492 6.7851 18.7164 8.14324C18.3475 8.41209 18.0046 8.6048 17.6884 8.72135C16.7521 9.06653 16.0719 8.73485 15.5407 7.63889C15.2445 7.02767 14.9203 6.50905 14.5695 6.08454C14.6631 5.38534 14.6832 4.55609 14.6314 3.59524ZM7.23958 6.33996C6.79494 6.91689 6.51283 7.72153 6.39359 8.76376C6.95372 8.1137 7.68442 7.74433 8.57437 7.6556C8.20973 7.24387 7.76477 6.80498 7.23958 6.33996ZM10.1749 5.02109L10.2046 5.01188C10.1786 5.03792 10.1527 5.06419 10.1267 5.0907L8.93594 6.30508L10.5016 5.64839C11.8096 5.0998 12.9118 5.30176 13.8461 6.29311C13.7752 6.69032 13.6754 7.02821 13.5472 7.30631C13.1281 8.21562 12.4137 8.46436 11.2668 8.06681C10.6193 7.84238 10.0184 7.70539 9.46609 7.65589C9.02577 7.09455 8.44429 6.49391 7.72156 5.85182C8.09313 5.56083 8.53885 5.37269 9.05854 5.28442C9.44148 5.21937 9.81363 5.13157 10.1749 5.02109ZM18.2732 5.41453C18.9202 5.97734 19.2878 6.71154 19.3761 7.60574C19.7859 7.23934 20.2227 6.79222 20.6856 6.26448C20.1115 5.81789 19.3107 5.53436 18.2732 5.41453ZM13.9076 3.55656L13.9443 3.55219C13.9854 4.26578 13.986 4.8995 13.9468 5.45258C13.2498 4.87093 12.4661 4.60709 11.604 4.66941C12.4218 4.01716 13.1875 3.64863 13.9076 3.55656Z" fill="white"/>
</mask>
<g mask="url(#mask2)">
<g filter="url(#filter2_f)">
<path fill-rule="evenodd" clip-rule="evenodd" d="M2.63904 19.6501C4.61726 18.1535 6.45356 17.7264 8.14794 18.369C9.84232 19.0116 11.6786 19.4387 13.6568 19.6501C11.4193 22.8672 9.58295 23.5505 8.14794 21.7001C6.71292 19.8498 4.87662 19.1664 2.63904 19.6501ZM24.7173 19.6485C22.4797 19.1648 20.6434 19.8481 19.2084 21.6985C17.7734 23.5489 15.9371 22.8655 13.6995 19.6485C15.6777 19.437 17.514 19.01 19.2084 18.3674C20.9028 17.7248 22.7391 18.1518 24.7173 19.6485Z" fill="#626F8F"/>
</g>
<g filter="url(#filter3_f)">
<path fill-rule="evenodd" clip-rule="evenodd" d="M14.0428 19.7941C17.5334 19.7941 20.3631 16.9508 20.3631 13.4435C20.3631 9.93624 17.5334 7.09301 14.0428 7.09301C10.5522 7.09301 7.72253 9.93624 7.72253 13.4435C7.72253 16.9508 10.5522 19.7941 14.0428 19.7941Z" fill="#556086"/>
</g>
</g>
<path fill-rule="evenodd" clip-rule="evenodd" d="M13.9902 19.398C17.4808 19.398 20.3105 16.5548 20.3105 13.0475C20.3105 9.54018 17.4808 6.69695 13.9902 6.69695C10.4996 6.69695 7.66992 9.54018 7.66992 13.0475C7.66992 16.5548 10.4996 19.398 13.9902 19.398Z" fill="url(#paint55_linear)"/>
<path fill-rule="evenodd" clip-rule="evenodd" d="M13.99 19.2265C17.3863 19.2265 20.1395 16.4601 20.1395 13.0476C20.1395 9.63507 17.3863 6.86869 13.99 6.86869C10.5938 6.86869 7.84058 9.63507 7.84058 13.0476C7.84058 16.4601 10.5938 19.2265 13.99 19.2265Z" fill="url(#paint56_linear)"/>
<path fill-rule="evenodd" clip-rule="evenodd" d="M13.9901 18.5399C17.009 18.5399 19.4563 16.0809 19.4563 13.0475C19.4563 10.0142 17.009 7.55517 13.9901 7.55517C10.9712 7.55517 8.52393 10.0142 8.52393 13.0475C8.52393 16.0809 10.9712 18.5399 13.9901 18.5399Z" fill="url(#paint57_linear)"/>
<g filter="url(#filter4_d)">
<path d="M14.0152 12.9849H9.19446L14.0152 17.8056V12.9849Z" fill="url(#paint58_linear)"/>
<path d="M14.0151 12.9852V8.16454L18.8358 12.9852H14.0151Z" fill="url(#paint59_linear)"/>
<path d="M14.0151 12.9851V17.8058L18.8358 12.9851H14.0151Z" fill="url(#paint60_linear)"/>
<path d="M14.015 13.0454V8.22465L9.19432 13.0454H14.015Z" fill="url(#paint61_linear)"/>
<rect x="11.6047" y="12.9852" width="3.40875" height="3.40875" transform="rotate(-45 11.6047 12.9852)" fill="url(#paint62_radial)"/>
<g filter="url(#filter5_f)">
<rect x="11.6047" y="12.9852" width="3.40875" height="3.40875" transform="rotate(-45 11.6047 12.9852)" stroke="white" stroke-width="0.0385471"/>
</g>
</g>
</g>
<defs>
<filter id="filter0_d" x="0.416422" y="0.0498532" width="27.1672" height="27.1672" filterUnits="userSpaceOnUse" color-interpolation-filters="sRGB">
<feFlood flood-opacity="0" result="BackgroundImageFix"/>
<feColorMatrix in="SourceAlpha" type="matrix" values="0 0 0 0 0 0 0 0 0 0 0 0 0 0 0 0 0 0 127 0" result="hardAlpha"/>
<feOffset dy="0.633431"/>
<feGaussianBlur stdDeviation="0.791789"/>
<feColorMatrix type="matrix" values="0 0 0 0 0.327691 0 0 0 0 0.416536 0 0 0 0 0.520833 0 0 0 0.4 0"/>
<feBlend mode="normal" in2="BackgroundImageFix" result="effect1_dropShadow"/>
<feBlend mode="normal" in="SourceGraphic" in2="effect1_dropShadow" result="shape"/>
</filter>
<filter id="filter1_f" x="1.15234" y="1.01087" width="25.6954" height="25.6378" filterUnits="userSpaceOnUse" color-interpolation-filters="sRGB">
<feFlood flood-opacity="0" result="BackgroundImageFix"/>
<feBlend mode="normal" in="SourceGraphic" in2="BackgroundImageFix" result="shape"/>
<feGaussianBlur stdDeviation="0.466555" result="effect1_foregroundBlur"/>
</filter>
<filter id="filter2_f" x="1.47265" y="16.9114" width="24.4111" height="6.96861" filterUnits="userSpaceOnUse" color-interpolation-filters="sRGB">
<feFlood flood-opacity="0" result="BackgroundImageFix"/>
<feBlend mode="normal" in="SourceGraphic" in2="BackgroundImageFix" result="shape"/>
<feGaussianBlur stdDeviation="0.583193" result="effect1_foregroundBlur"/>
</filter>
<filter id="filter3_f" x="5.38976" y="4.76024" width="17.3061" height="17.3666" filterUnits="userSpaceOnUse" color-interpolation-filters="sRGB">
<feFlood flood-opacity="0" result="BackgroundImageFix"/>
<feBlend mode="normal" in="SourceGraphic" in2="BackgroundImageFix" result="shape"/>
<feGaussianBlur stdDeviation="1.16639" result="effect1_foregroundBlur"/>
</filter>
<filter id="filter4_d" x="7.76717" y="6.9944" width="12.4657" height="12.4657" filterUnits="userSpaceOnUse" color-interpolation-filters="sRGB">
<feFlood flood-opacity="0" result="BackgroundImageFix"/>
<feColorMatrix in="SourceAlpha" type="matrix" values="0 0 0 0 0 0 0 0 0 0 0 0 0 0 0 0 0 0 127 0" result="hardAlpha"/>
<feOffset dy="0.227273"/>
<feGaussianBlur stdDeviation="0.698507"/>
<feColorMatrix type="matrix" values="0 0 0 0 0 0 0 0 0 0 0 0 0 0 0 0 0 0 0.19 0"/>
<feBlend mode="normal" in2="BackgroundImageFix" result="effect1_dropShadow"/>
<feBlend mode="normal" in="SourceGraphic" in2="effect1_dropShadow" result="shape"/>
</filter>
<filter id="filter5_f" x="11.3205" y="10.2906" width="5.38918" height="5.38918" filterUnits="userSpaceOnUse" color-interpolation-filters="sRGB">
<feFlood flood-opacity="0" result="BackgroundImageFix"/>
<feBlend mode="normal" in="SourceGraphic" in2="BackgroundImageFix" result="shape"/>
<feGaussianBlur stdDeviation="0.12849" result="effect1_foregroundBlur"/>
</filter>
<linearGradient id="paint0_linear" x1="8.28863" y1="9.41496" x2="8.28863" y2="20.9784" gradientUnits="userSpaceOnUse">
<stop stop-color="white"/>
<stop offset="0.99971" stop-color="#8790B1"/>
</linearGradient>
<linearGradient id="paint1_linear" x1="6.27051" y1="5.20495" x2="6.27051" y2="20.8238" gradientUnits="userSpaceOnUse">
<stop stop-color="#E2E4EF"/>
<stop offset="1" stop-color="#687591"/>
</linearGradient>
<linearGradient id="paint2_linear" x1="8.47114" y1="6.2348" x2="8.47114" y2="17.4313" gradientUnits="userSpaceOnUse">
<stop stop-color="#5A658A"/>
<stop offset="0.907306" stop-color="white"/>
<stop offset="1" stop-color="white"/>
</linearGradient>
<linearGradient id="paint3_linear" x1="7.46619" y1="6.40636" x2="7.46619" y2="19.6223" gradientUnits="userSpaceOnUse">
<stop stop-color="#E2E4EF"/>
<stop offset="1" stop-color="#6C7796"/>
</linearGradient>
<linearGradient id="paint4_linear" x1="7.46619" y1="6.40636" x2="7.46619" y2="19.6223" gradientUnits="userSpaceOnUse">
<stop stop-color="#FAE8C3"/>
<stop offset="1" stop-color="#F3CD90"/>
</linearGradient>
<linearGradient id="paint5_linear" x1="4.34814" y1="3.36004" x2="4.34814" y2="22.6694" gradientUnits="userSpaceOnUse">
<stop stop-color="#8992B3"/>
<stop offset="1" stop-color="#F9F9FB"/>
</linearGradient>
<linearGradient id="paint6_linear" x1="13.9312" y1="3.80169" x2="13.7566" y2="3.80169" gradientUnits="userSpaceOnUse">
<stop stop-color="#BFC7DD"/>
<stop offset="1" stop-color="#8B96B9"/>
</linearGradient>
<linearGradient id="paint7_linear" x1="12.9079" y1="4.89979" x2="13.3988" y2="3.66434" gradientUnits="userSpaceOnUse">
<stop stop-color="#8B97BA"/>
<stop offset="1" stop-color="#535E84"/>
</linearGradient>
<linearGradient id="paint8_linear" x1="10.8684" y1="8.58682" x2="13.1113" y2="5.7715" gradientUnits="userSpaceOnUse">
<stop stop-color="#D8DDEA"/>
<stop offset="0.276023" stop-color="white"/>
<stop offset="0.80021" stop-color="white"/>
<stop offset="1" stop-color="#D8DDEA"/>
</linearGradient>
<linearGradient id="paint9_linear" x1="12.9713" y1="5.50725" x2="10.4966" y2="7.98973" gradientUnits="userSpaceOnUse">
<stop stop-color="#818DB0"/>
<stop offset="0.379434" stop-color="#535E84"/>
<stop offset="1" stop-color="#818DB0"/>
</linearGradient>
<linearGradient id="paint10_linear" x1="9.28234" y1="4.49607" x2="8.04879" y2="5.82752" gradientUnits="userSpaceOnUse">
<stop stop-color="#D3D9E8"/>
<stop offset="1" stop-color="#F0F2F7"/>
</linearGradient>
<linearGradient id="paint11_linear" x1="6.86358" y1="6.6163" x2="8.48091" y2="8.23878" gradientUnits="userSpaceOnUse">
<stop stop-color="#BBC4DB"/>
<stop offset="1" stop-color="white"/>
</linearGradient>
<linearGradient id="paint12_linear" x1="6.73956" y1="7.44619" x2="6.34958" y2="8.44452" gradientUnits="userSpaceOnUse">
<stop stop-color="white"/>
<stop offset="1" stop-color="#DCE2F5"/>
</linearGradient>
<linearGradient id="paint13_linear" x1="6.97278" y1="5.77765" x2="5.8638" y2="6.15093" gradientUnits="userSpaceOnUse">
<stop stop-color="#535E84"/>
<stop offset="1" stop-color="#C2C9DF"/>
</linearGradient>
<linearGradient id="paint14_linear" x1="7.43053" y1="6.35959" x2="3.48054" y2="9.55624" gradientUnits="userSpaceOnUse">
<stop offset="0.000263936" stop-color="#757FA0"/>
<stop offset="0.286529" stop-color="#535E84"/>
<stop offset="1" stop-color="#D2D9ED"/>
</linearGradient>
<linearGradient id="paint15_linear" x1="4.51052" y1="10.5907" x2="3.71086" y2="11.6324" gradientUnits="userSpaceOnUse">
<stop stop-color="#B9C2D9"/>
<stop offset="1" stop-color="#838FB2"/>
</linearGradient>
<linearGradient id="paint16_linear" x1="5.65606" y1="10.8188" x2="5.47367" y2="10.8188" gradientUnits="userSpaceOnUse">
<stop stop-color="#8B97BA"/>
<stop offset="1" stop-color="#535E84"/>
</linearGradient>
<linearGradient id="paint17_linear" x1="3.91331" y1="14.1146" x2="5.65576" y2="15.3889" gradientUnits="userSpaceOnUse">
<stop stop-color="#A2ABC9"/>
<stop offset="0.571106" stop-color="white"/>
<stop offset="1" stop-color="#DEE1EB"/>
</linearGradient>
<linearGradient id="paint18_linear" x1="5.77809" y1="12.5229" x2="4.28674" y2="13.573" gradientUnits="userSpaceOnUse">
<stop stop-color="white"/>
<stop offset="1" stop-color="#929CBC"/>
</linearGradient>
<linearGradient id="paint19_linear" x1="5.25098" y1="13.0835" x2="5.25098" y2="13.2557" gradientUnits="userSpaceOnUse">
<stop stop-color="#959FBF"/>
<stop offset="1" stop-color="#5C668B"/>
</linearGradient>
<linearGradient id="paint20_linear" x1="6.00692" y1="14.0668" x2="8.75087" y2="16.104" gradientUnits="userSpaceOnUse">
<stop stop-color="#9198B4"/>
<stop offset="1" stop-color="#D9DDEC"/>
</linearGradient>
<linearGradient id="paint21_linear" x1="6.35105" y1="19.0432" x2="6.66735" y2="19.0432" gradientUnits="userSpaceOnUse">
<stop stop-color="#D8DCEA"/>
<stop offset="1" stop-color="#95A0BF"/>
</linearGradient>
<linearGradient id="paint22_linear" x1="5.99243" y1="16.8402" x2="5.99243" y2="18.4593" gradientUnits="userSpaceOnUse">
<stop stop-color="#959FBF"/>
<stop offset="1" stop-color="#5C668B"/>
</linearGradient>
<linearGradient id="paint23_linear" x1="8.11634" y1="20.188" x2="11.0545" y2="22.8715" gradientUnits="userSpaceOnUse">
<stop stop-color="#D9DCE6"/>
<stop offset="1" stop-color="white"/>
</linearGradient>
<linearGradient id="paint24_linear" x1="8.98281" y1="18.633" x2="11.0185" y2="21.5298" gradientUnits="userSpaceOnUse">
<stop stop-color="#5C668B"/>
<stop offset="1" stop-color="#959DB7"/>
</linearGradient>
<linearGradient id="paint25_linear" x1="11.8528" y1="21.4301" x2="11.8528" y2="21.6132" gradientUnits="userSpaceOnUse">
<stop stop-color="#919CBE"/>
<stop offset="1" stop-color="#586389"/>
</linearGradient>
<linearGradient id="paint26_linear" x1="14.4783" y1="22.1976" x2="13.9243" y2="20.7466" gradientUnits="userSpaceOnUse">
<stop stop-color="#B2BBD4"/>
<stop offset="1" stop-color="#7A86A9"/>
<stop offset="1" stop-color="#7A86A9"/>
</linearGradient>
<linearGradient id="paint27_linear" x1="16.6411" y1="21.1984" x2="16.8636" y2="19.7625" gradientUnits="userSpaceOnUse">
<stop stop-color="#D3D9E7"/>
<stop offset="1" stop-color="white"/>
</linearGradient>
<linearGradient id="paint28_linear" x1="15.2872" y1="20.9077" x2="18.4521" y2="18.0995" gradientUnits="userSpaceOnUse">
<stop stop-color="#CDD4E5"/>
<stop offset="0.226881" stop-color="#556086"/>
<stop offset="0.637102" stop-color="#697395"/>
<stop offset="1" stop-color="#CCD3E4"/>
</linearGradient>
<linearGradient id="paint29_linear" x1="17.8451" y1="19.1393" x2="19.0606" y2="20.6128" gradientUnits="userSpaceOnUse">
<stop stop-color="#848FB2"/>
<stop offset="1" stop-color="#556086"/>
</linearGradient>
<linearGradient id="paint30_linear" x1="17.6948" y1="19.4407" x2="17.6948" y2="21.0596" gradientUnits="userSpaceOnUse">
<stop stop-color="#8E99BB"/>
<stop offset="1" stop-color="#556086"/>
</linearGradient>
<linearGradient id="paint31_linear" x1="19.6657" y1="19.1521" x2="20.5016" y2="19.7326" gradientUnits="userSpaceOnUse">
<stop stop-color="#E8ECF3"/>
<stop offset="1" stop-color="#CDD4E4"/>
</linearGradient>
<linearGradient id="paint32_linear" x1="21.5257" y1="19.0687" x2="22.2792" y2="18.2627" gradientUnits="userSpaceOnUse">
<stop stop-color="#F3F4F7"/>
<stop offset="1" stop-color="#E4E5ED"/>
</linearGradient>
<linearGradient id="paint33_linear" x1="18.574" y1="13.6432" x2="17.0352" y2="16.2655" gradientUnits="userSpaceOnUse">
<stop stop-color="#9EA9C6"/>
<stop offset="1" stop-color="#CDD4E5"/>
</linearGradient>
<linearGradient id="paint34_linear" x1="20.3834" y1="13.0669" x2="18.1296" y2="16.1652" gradientUnits="userSpaceOnUse">
<stop stop-color="#9EA9C6"/>
<stop offset="1" stop-color="white"/>
</linearGradient>
<linearGradient id="paint35_linear" x1="22.2085" y1="13.603" x2="22.2085" y2="15.9049" gradientUnits="userSpaceOnUse">
<stop stop-color="#7480A4"/>
<stop offset="1" stop-color="#ACB7D1"/>
</linearGradient>
<linearGradient id="paint36_linear" x1="21.9805" y1="10.6445" x2="20.8662" y2="11.4238" gradientUnits="userSpaceOnUse">
<stop stop-color="#8B97BA"/>
<stop offset="1" stop-color="#535E84"/>
</linearGradient>
<linearGradient id="paint37_linear" x1="18.5653" y1="9.02348" x2="19.5189" y2="11.9085" gradientUnits="userSpaceOnUse">
<stop stop-color="white"/>
<stop offset="0.661584" stop-color="#BDC2D8"/>
<stop offset="1" stop-color="#F0F2F6"/>
</linearGradient>
<linearGradient id="paint38_linear" x1="19.9989" y1="6.92907" x2="18.9669" y2="7.87815" gradientUnits="userSpaceOnUse">
<stop stop-color="#535E84"/>
<stop offset="1" stop-color="#98A0BD"/>
</linearGradient>
<linearGradient id="paint39_linear" x1="20.5186" y1="8.27657" x2="21.4064" y2="9.11695" gradientUnits="userSpaceOnUse">
<stop stop-color="white"/>
<stop offset="1" stop-color="#9FA6C1"/>
</linearGradient>
<linearGradient id="paint40_linear" x1="18.3503" y1="6.39088" x2="19.5599" y2="7.23363" gradientUnits="userSpaceOnUse">
<stop stop-color="white"/>
<stop offset="1" stop-color="#979FBC"/>
</linearGradient>
<linearGradient id="paint41_linear" x1="19.5662" y1="6.05276" x2="19.0483" y2="7.05665" gradientUnits="userSpaceOnUse">
<stop stop-color="#979FBC"/>
<stop offset="1" stop-color="white"/>
</linearGradient>
<linearGradient id="paint42_linear" x1="14.4661" y1="3.42841" x2="14.4661" y2="6.20549" gradientUnits="userSpaceOnUse">
<stop stop-color="#C6CBDE"/>
<stop offset="1" stop-color="#949CBA"/>
</linearGradient>
<linearGradient id="paint43_linear" x1="16.0434" y1="5.90202" x2="16.9167" y2="8.62445" gradientUnits="userSpaceOnUse">
<stop stop-color="#535E84"/>
<stop offset="1" stop-color="#A6ADC6"/>
</linearGradient>
<linearGradient id="paint44_linear" x1="21.1565" y1="6.74892" x2="21.1565" y2="9.0019" gradientUnits="userSpaceOnUse">
<stop stop-color="#B5BACF"/>
<stop offset="1" stop-color="#C0C5D6"/>
</linearGradient>
<linearGradient id="paint45_linear" x1="20.6591" y1="8.16261" x2="22.7708" y2="10.3483" gradientUnits="userSpaceOnUse">
<stop stop-color="#7780A2"/>
<stop offset="1" stop-color="#F0F1F5"/>
</linearGradient>
<linearGradient id="paint46_linear" x1="23.0885" y1="15.9021" x2="24.3253" y2="14.9935" gradientUnits="userSpaceOnUse">
<stop stop-color="white"/>
<stop offset="1" stop-color="#BDC2D5"/>
</linearGradient>
<linearGradient id="paint47_linear" x1="16.2316" y1="21.1135" x2="15.7049" y2="20.2876" gradientUnits="userSpaceOnUse">
<stop stop-color="#919CBE"/>
<stop offset="1" stop-color="#586389"/>
</linearGradient>
<linearGradient id="paint48_linear" x1="13.0677" y1="19.9811" x2="13.0677" y2="22.471" gradientUnits="userSpaceOnUse">
<stop stop-color="#E1E3EC"/>
<stop offset="1" stop-color="#8890AE"/>
</linearGradient>
<linearGradient id="paint49_linear" x1="7.80736" y1="19.1786" x2="8.0171" y2="19.399" gradientUnits="userSpaceOnUse">
<stop stop-color="#959FBF"/>
<stop offset="1" stop-color="#5C668B"/>
</linearGradient>
<linearGradient id="paint50_linear" x1="9.49652" y1="16.9143" x2="7.84526" y2="13.6908" gradientUnits="userSpaceOnUse">
<stop stop-color="#959FBF"/>
<stop offset="0.45128" stop-color="#DBDFED"/>
<stop offset="1" stop-color="#5C668B"/>
</linearGradient>
<linearGradient id="paint51_linear" x1="7.75899" y1="7.04281" x2="4.70846" y2="9.8947" gradientUnits="userSpaceOnUse">
<stop stop-color="#535E84"/>
<stop offset="0.544632" stop-color="#E9EEFF"/>
<stop offset="0.763276" stop-color="white"/>
<stop offset="1" stop-color="#BFC8E0"/>
</linearGradient>
<linearGradient id="paint52_linear" x1="7.91028" y1="6.9088" x2="7.77457" y2="7.03045" gradientUnits="userSpaceOnUse">
<stop stop-color="#8B97BA"/>
<stop offset="1" stop-color="#535E84"/>
</linearGradient>
<linearGradient id="paint53_linear" x1="8.6182" y1="6.15294" x2="9.21986" y2="4.92203" gradientUnits="userSpaceOnUse">
<stop stop-color="#8B97BA"/>
<stop offset="1" stop-color="#535E84"/>
</linearGradient>
<linearGradient id="paint54_linear" x1="3.01237" y1="2.93551" x2="3.01237" y2="24.8574" gradientUnits="userSpaceOnUse">
<stop stop-color="#FDFDFE"/>
<stop offset="1" stop-color="#A4ABC3"/>
</linearGradient>
<linearGradient id="paint55_linear" x1="7.92356" y1="7.20666" x2="7.92356" y2="19.398" gradientUnits="userSpaceOnUse">
<stop stop-color="#FBFBFC"/>
<stop offset="1" stop-color="#EBBA68"/>
</linearGradient>
<linearGradient id="paint56_linear" x1="7.84058" y1="6.86869" x2="7.84058" y2="19.2265" gradientUnits="userSpaceOnUse">
<stop stop-color="#FFFCF0"/>
<stop offset="1" stop-color="#F6DDB1"/>
</linearGradient>
<linearGradient id="paint57_linear" x1="8.52393" y1="7.55517" x2="8.52393" y2="18.5399" gradientUnits="userSpaceOnUse">
<stop stop-color="#EEEEEE"/>
<stop offset="1" stop-color="#A7AEC5"/>
</linearGradient>
<linearGradient id="paint58_linear" x1="14.8862" y1="17.8737" x2="7.73814" y2="16.1423" gradientUnits="userSpaceOnUse">
<stop stop-color="#F9F9F9"/>
<stop offset="1" stop-color="#D4D6DC"/>
</linearGradient>
<linearGradient id="paint59_linear" x1="18.9039" y1="13.8563" x2="17.1725" y2="6.70822" gradientUnits="userSpaceOnUse">
<stop stop-color="#E9EAED"/>
<stop offset="1" stop-color="#C5C7CF"/>
</linearGradient>
<linearGradient id="paint60_linear" x1="18.4561" y1="12.6173" x2="16.8105" y2="19.2065" gradientUnits="userSpaceOnUse">
<stop stop-color="#C5C7D0"/>
<stop offset="1" stop-color="#CFD0D7"/>
</linearGradient>
<linearGradient id="paint61_linear" x1="9.57401" y1="13.4132" x2="11.2197" y2="6.82393" gradientUnits="userSpaceOnUse">
<stop stop-color="#E6E7EA"/>
<stop offset="1" stop-color="#F3F3F4"/>
</linearGradient>
<radialGradient id="paint62_radial" cx="0" cy="0" r="1" gradientUnits="userSpaceOnUse" gradientTransform="translate(13.024 13.7749) rotate(67.9223) scale(2.28849 2.69955)">
<stop stop-color="#D7D8DE"/>
<stop offset="1" stop-color="#F4F4FA"/>
</radialGradient>
</defs>
</svg>
