<svg width="24" height="24" viewBox="0 0 24 24" fill="none" xmlns="http://www.w3.org/2000/svg">
<path d="M17.5772 1.65835C16.8019 1.56281 16.3459 0.655179 15.525 0.535753C14.5217 0.368557 13.4727 0.273016 12.4922 0.153591C10.5996 -0.0613755 7.56684 -0.300227 6.15307 1.32396C5.94785 1.56281 5.62861 2.0644 5.26377 2.0644C5.08135 2.0644 5.05854 1.84944 4.85331 1.84944C4.7165 1.82555 4.30605 2.01663 4.19204 2.08829C3.27993 2.68542 2.45904 3.85579 1.72935 4.69177C1.45572 5.00227 1.06807 5.40832 1.3645 5.71883C1.52412 5.86214 1.70654 5.62329 1.77495 6.00545C1.79775 6.19653 1.54693 6.48315 1.45571 6.65035C1.06807 7.3669 0.634817 7.94015 0.429593 8.72835C0.178763 9.70764 -0.0720638 10.663 0.019147 11.714C0.13316 12.9321 0.81724 14.2458 0.56641 15.4878C0.429594 16.085 0.292777 16.1089 0.65762 16.6104C1.02246 17.1359 1.2733 17.6614 1.50132 18.2585C1.86617 19.2139 2.27661 19.7872 3.07471 20.3365C3.43955 20.5993 3.73599 20.5276 4.10083 20.7187C4.46567 20.8859 4.7165 21.3397 4.99013 21.6263C5.583 22.2473 6.13027 22.6534 6.85996 23.0594C8.70697 24.0626 10.8048 23.9193 12.8343 23.9193C13.7692 23.9193 15.5478 24.2298 16.3003 23.6327C16.6423 23.3699 16.8475 23.0594 17.3264 22.9878C17.8053 22.8922 18.2385 22.8684 18.7174 22.7012C17.9421 22.1996 19.8347 21.9607 20.1539 21.8174C21.0204 21.4352 21.8641 20.5993 22.4798 19.8588C23.1411 19.0706 23.1183 18.3541 23.2095 17.3748C23.2551 16.9448 23.2551 16.5866 23.4603 16.2044C23.734 15.7028 23.9392 15.7506 23.7568 15.1773C23.5515 14.4847 23.3919 14.0309 23.5743 13.3143C23.734 12.7649 24.076 12.1439 23.9848 11.5468C23.7796 11.5946 23.4147 11.8573 23.2323 11.714C23.0499 11.5707 23.1639 11.0691 23.1867 10.878C23.2551 10.257 23.4375 9.39714 23.3007 8.77612C23.1639 8.08346 22.5482 7.70129 22.343 7.03251C22.229 6.67423 22.1606 6.05322 21.8869 5.79048C21.5905 5.47998 21.5905 5.7666 21.3397 6.02933C21.0204 5.79048 21.066 5.36055 21.0204 5.00227C20.9748 4.45291 20.8152 4.54846 20.4504 4.23795C19.5155 3.44974 19.5155 1.73001 18.2157 1.27619C18.1017 1.4195 17.7368 1.46727 17.5772 1.65835Z" fill="#8A4825"/>
<path d="M18.9454 3.97466C18.9226 3.95078 18.8998 3.90301 18.8542 3.83135C18.8314 3.7597 18.763 3.73581 18.7174 3.66415C18.6718 3.61638 18.5806 3.54473 18.4894 3.47307C18.307 3.32976 18.0333 3.18645 17.7141 3.01926C17.5545 2.9476 17.372 2.85206 17.1896 2.75652C17.0072 2.66098 16.802 2.56544 16.5967 2.44601C16.1863 2.25493 15.7074 2.03997 15.183 1.89665C14.6357 1.75334 14.0428 1.61003 13.4044 1.44284C12.7659 1.27564 12.1046 1.15622 11.3749 1.08456C11.0329 1.06067 10.6681 1.03679 10.3032 1.0129C10.1208 1.03679 9.91556 1.03679 9.73314 1.06067C9.55072 1.08456 9.36829 1.13233 9.18587 1.15622C8.43338 1.3473 7.7037 1.70557 6.95121 2.13551C6.56356 2.35047 6.17591 2.58932 5.78827 2.80429C5.60585 2.89983 5.40062 3.04314 5.2182 3.13868C5.03578 3.25811 4.85336 3.37753 4.67094 3.52084C4.30609 3.78358 3.98686 4.11797 3.69042 4.45236C3.57641 4.64345 3.41679 4.81064 3.32558 5.02561C3.27997 5.12115 3.21156 5.21669 3.16596 5.33611L3.05194 5.64662C2.73271 6.60203 2.41347 7.58132 2.09424 8.58449C1.93462 9.08608 1.775 9.58767 1.61538 10.0893C1.54697 10.352 1.45576 10.6147 1.38735 10.8536C1.36455 10.973 1.31894 11.1163 1.29614 11.2357L1.22773 11.594C1.20493 11.7134 1.20492 11.8329 1.20492 11.9523V12.1434V12.2389C1.20492 12.1911 1.20492 12.2389 1.20492 12.2389V12.2628V12.3106L1.25053 12.7166C1.27334 12.8599 1.31894 12.9555 1.34174 13.0749C1.47856 13.5526 1.70659 14.0781 1.8434 14.6274C1.91181 14.9379 1.93462 15.2246 1.98022 15.4873C2.02583 15.75 2.04863 16.0128 2.13984 16.2277C2.16264 16.3472 2.23105 16.4427 2.27665 16.5382C2.34506 16.6577 2.41347 16.7771 2.48188 16.8965L2.91513 17.6131L3.32558 18.3535L3.508 18.7118L3.59921 18.9029C3.62201 18.9506 3.66762 18.9984 3.69042 19.0462C3.96406 19.4283 4.39731 19.7388 4.83056 20.121L5.42342 20.6704C5.62865 20.8376 5.81107 21.0048 6.0391 21.1481C6.24432 21.2914 6.47235 21.4586 6.70038 21.578L6.86 21.6735L6.9056 21.6974L6.9284 21.7213C6.9056 21.6974 6.9284 21.7213 6.9284 21.7213L7.01961 21.7691L7.38446 21.9363C7.49847 22.0079 7.61248 22.0318 7.7265 22.0557C7.84051 22.0796 7.95452 22.1512 8.06854 22.1512C8.31937 22.199 8.5702 22.2707 8.82103 22.2946C9.34549 22.3662 9.86996 22.4379 10.3944 22.5334C10.9189 22.629 11.4205 22.7006 11.9222 22.7006C11.9678 22.7006 12.059 22.7006 12.1046 22.7006H12.3098L12.6975 22.6767C12.9483 22.6528 13.1991 22.6051 13.4272 22.5812C14.4077 22.414 15.3882 22.1274 16.3231 21.793C16.802 21.6258 17.258 21.4586 17.7369 21.2914C18.1929 21.1242 18.649 20.957 19.0822 20.7659C19.9487 20.3837 20.7468 19.8822 21.2713 19.1895C21.3397 19.094 21.4081 19.0223 21.4537 18.9268L21.6133 18.6401C21.6589 18.5446 21.7046 18.4252 21.7502 18.3535L21.8642 18.0191C21.9554 17.8042 22.001 17.5892 22.0466 17.3742C22.115 17.1831 22.115 16.9443 22.1606 16.7293C22.2746 15.8695 22.2746 14.9857 22.2746 14.1497C22.2746 13.9348 22.2746 13.7198 22.2746 13.5287C22.2746 13.3376 22.2746 13.1227 22.2518 12.9316C22.229 12.7405 22.229 12.5494 22.2062 12.3583C22.1834 12.1673 22.1606 11.9762 22.1378 11.7851C22.0238 11.0447 21.8642 10.3281 21.7274 9.65932C21.6589 9.32493 21.5905 8.99054 21.5221 8.70392C21.4993 8.53672 21.4309 8.4173 21.3853 8.29787C21.3397 8.17844 21.2713 8.03513 21.2029 7.91571C20.9521 7.41412 20.6556 6.93642 20.496 6.45872C20.3136 5.98101 20.1996 5.57497 20.04 5.24057C19.9031 4.90618 19.7207 4.66733 19.5839 4.52402C19.4471 4.40459 19.2191 4.35682 19.0822 4.2374C18.9682 4.0702 18.9454 3.95078 18.9454 3.97466ZM19.3103 3.83135C19.3103 3.85524 19.3331 3.85524 19.3559 3.87912C19.4015 3.90301 19.4471 3.92689 19.5383 3.97466C19.5839 3.99855 19.6295 4.02243 19.6979 4.04632C19.7207 4.0702 19.7663 4.09409 19.8119 4.11797C19.8347 4.14186 19.8575 4.16574 19.8803 4.16574C20.1084 4.40459 20.2908 4.66733 20.4504 5.02561C20.61 5.38388 20.7468 5.81382 20.9293 6.24375C21.1117 6.67368 21.3853 7.1275 21.6589 7.65297C21.7274 7.79628 21.7958 7.93959 21.8642 8.0829C21.9326 8.2501 21.9782 8.4173 22.0238 8.56061C22.115 8.895 22.1606 9.20551 22.2518 9.5399C22.3886 10.2087 22.5711 10.9013 22.7079 11.6896C22.7307 11.8806 22.7763 12.0717 22.7991 12.2867C22.8219 12.5017 22.8447 12.6927 22.8675 12.9077C22.8675 13.1227 22.8903 13.3137 22.8903 13.5287C22.8903 13.7437 22.8903 13.9348 22.8903 14.1497C22.8903 14.9857 22.9131 15.8933 22.7763 16.801C22.7307 17.0398 22.7079 17.2548 22.6395 17.4936C22.5711 17.7325 22.5254 17.9713 22.4342 18.1863L22.3202 18.5207C22.2746 18.664 22.2062 18.7596 22.1606 18.879C22.0922 18.9984 22.0466 19.094 21.9782 19.2134C21.9098 19.3089 21.8414 19.4283 21.7502 19.5239C21.1345 20.336 20.2452 20.8853 19.3559 21.2914C18.8998 21.5063 18.4438 21.6735 17.9649 21.8407C17.5089 22.0079 17.03 22.199 16.5511 22.3662C15.5934 22.7006 14.6129 23.035 13.5412 23.2022C13.2676 23.2261 12.9939 23.2977 12.7431 23.2977L12.3554 23.3216L12.1502 23.3455C12.059 23.3455 12.0134 23.3455 11.9222 23.3455C11.3749 23.3455 10.8277 23.25 10.3032 23.1783C9.80155 23.0828 9.25428 23.0111 8.72982 22.9633C8.45618 22.9395 8.18256 22.8678 7.90892 22.82C7.77211 22.7961 7.63529 22.7245 7.49847 22.7006C7.36165 22.6528 7.20204 22.6051 7.08803 22.5573L6.72318 22.3901L6.63197 22.3423L6.58636 22.3184L6.56356 22.2946L6.51796 22.2707L6.33553 22.1512C6.0847 22.0079 5.85668 21.8407 5.62865 21.6735C5.40063 21.5063 5.17259 21.3153 4.96737 21.1481L4.37451 20.5987C4.00966 20.2404 3.5308 19.9299 3.14315 19.4045C3.09755 19.3328 3.05195 19.2611 3.00634 19.2134L2.91513 19.0223L2.7099 18.6401L2.32226 17.9236L1.88901 17.2309C1.8206 17.1115 1.75219 16.9921 1.68378 16.8726C1.61537 16.7293 1.52417 16.586 1.47856 16.4427C1.27334 15.8456 1.25053 15.2484 1.15932 14.7707C1.04531 14.2692 0.81728 13.7915 0.657662 13.2182C0.612056 13.0749 0.566451 12.9077 0.543648 12.7883L0.498047 12.3822V12.3345V12.3106C0.498047 12.2867 0.498047 12.3345 0.498047 12.2628V12.1434V11.9284C0.498047 11.7851 0.498043 11.6179 0.543648 11.4746L0.634858 11.0447C0.65766 10.9014 0.703266 10.7819 0.748871 10.6386C0.817279 10.3759 0.90849 10.1131 0.976898 9.87429C1.13652 9.3727 1.31894 8.87111 1.47856 8.36953C1.8206 7.36635 2.13984 6.41094 2.45907 5.45554C2.61869 4.93007 2.91513 4.45236 3.23437 4.04632C3.57641 3.66415 3.94125 3.30588 4.3289 3.01926C4.51132 2.87595 4.73935 2.75652 4.92177 2.61321C5.12699 2.49378 5.30942 2.39824 5.51464 2.27882C5.90229 2.06385 6.28993 1.84888 6.67757 1.63392C7.45286 1.20399 8.22816 0.821824 9.07186 0.654628C9.27708 0.630743 9.50511 0.559087 9.68753 0.559087C9.89276 0.559087 10.0752 0.535202 10.2804 0.535202C10.668 0.559087 11.0557 0.582972 11.4433 0.630743C12.173 0.750168 12.8799 0.869594 13.5184 1.03679C14.1569 1.20399 14.7497 1.3473 15.297 1.49061C15.8671 1.63392 16.3459 1.87277 16.7792 2.08774C16.9844 2.20716 17.1896 2.3027 17.372 2.39824C17.5545 2.49378 17.7369 2.58932 17.8965 2.66098C18.2385 2.82817 18.5122 2.99537 18.7174 3.16257C18.9226 3.30588 19.105 3.52084 19.1735 3.64027C19.2419 3.7597 19.2647 3.80747 19.2647 3.80747L19.3103 3.83135Z" fill="#190000"/>
<path d="M20.61 6.7932C20.4732 6.21996 19.9031 5.14513 19.4471 4.73908C19.105 4.45246 18.649 4.33303 18.2841 4.0703C17.8965 3.80756 17.5316 3.49705 17.1212 3.28209C15.4566 2.35057 13.7008 1.80121 11.8538 1.61013C10.212 1.44293 8.22814 1.56236 6.72316 2.27891C5.30939 2.94769 4.03244 4.40469 3.23435 5.76614C2.86951 6.41104 2.57307 7.29479 2.34504 8.01134C2.11701 8.82344 1.84338 9.53999 1.54694 10.3521C1.27331 11.1164 1.27332 11.9524 1.27332 12.7884C1.27332 13.5527 1.63816 14.1259 1.82058 14.8425C1.91179 15.2247 1.84338 15.6307 2.04861 15.9651C2.25383 16.2995 2.55027 16.395 2.66428 16.8011C2.89231 17.5893 2.96071 18.3058 3.50798 18.9985C3.91843 19.524 4.69372 20.0972 5.26379 20.4555C5.65143 20.6943 6.03908 20.9571 6.42673 21.2437C6.83718 21.5303 7.24762 22.0319 7.70367 22.223C8.52457 22.5813 9.71031 22.3663 10.5996 22.438C11.6257 22.5335 12.6747 22.7724 13.7008 22.6768C15.411 22.5335 17.0072 21.4109 18.6034 20.7182C20.1996 20.0494 21.2941 19.0702 21.6361 17.3027C21.9098 15.8934 22.1378 14.1498 21.8641 12.6689C21.6589 11.5463 21.3853 10.4954 21.1117 9.39668C20.9748 8.87121 21.1573 8.34573 21.0205 7.86803C20.9064 7.48587 20.8836 7.07982 20.61 6.7932Z" fill="#DCAA79"/>
<path d="M20.2451 5.07334C19.6751 5.38385 19.2418 5.86155 18.6489 6.14817C18.2385 6.33925 17.8052 6.55422 17.4176 6.81696C18.3981 6.67365 19.5611 6.38702 20.4732 5.98098C20.3363 5.69436 20.3363 5.40773 20.2451 5.07334Z" fill="#190000"/>
<path d="M9.3228 0.821846C9.11758 1.22789 9.14039 1.84891 9.16319 2.32661C9.18599 2.73266 9.39121 3.09093 9.34561 3.4731C8.82114 3.3059 8.54751 2.20718 8.38789 1.68171C8.27388 1.29955 8.20547 1.20401 8.54751 0.965157C8.84395 0.797961 9.00356 0.917387 9.3228 0.821846Z" fill="#190000"/>
<path d="M2.98356 18.3772C3.91847 17.9473 4.73937 17.1591 5.69708 16.8247C5.08141 17.3024 4.44293 17.9234 3.91847 18.4966C3.80446 18.6399 3.53083 19.0937 3.3484 19.0937C3.05197 19.0699 2.96076 18.5922 2.98356 18.3772Z" fill="#190000"/>
<path d="M12.6519 22.8678C13.1763 22.0557 13.8832 20.8136 13.906 19.8105C13.906 20.4076 13.7236 20.9808 13.7464 21.578C13.7692 21.984 13.906 22.39 13.9972 22.7722C13.7464 22.7483 12.7659 23.0588 12.6519 22.8678Z" fill="#190000"/>
<path d="M19.2191 20.8615C18.8543 20.5749 18.4438 20.2644 18.1018 19.9061C17.851 19.6433 17.6001 19.0462 17.2809 18.9029C17.4177 19.3089 17.5773 19.7389 17.7369 20.121C17.8738 20.4793 18.1246 20.8615 18.193 21.2198C18.4666 21.2914 19.1735 21.0526 19.2191 20.8615Z" fill="#190000"/>
<path d="M22.571 13.0032C21.8642 13.2898 21.0661 13.4809 20.2908 13.457C20.2908 13.4809 20.2908 13.5525 20.2908 13.5525C20.952 13.7197 21.8414 13.9108 22.5254 13.863C22.5938 13.5048 22.5254 13.3615 22.571 13.0032Z" fill="#190000"/>
<path d="M2.0258 8.15453C2.39065 8.56057 2.80109 8.75165 3.27995 8.99051C3.53078 9.10993 3.96404 9.18159 4.14646 9.34878C3.32556 9.46821 2.43625 9.22936 1.61536 9.22936C1.63816 8.84719 1.88899 8.48892 2.0258 8.15453Z" fill="#190000"/>
<path d="M18.3527 6.81691C18.079 6.62583 17.7826 6.43475 17.4634 6.31532C17.0073 5.81374 16.3232 5.47934 15.7304 5.16884C15.1375 4.85833 14.4762 4.30897 13.8377 4.2612C13.1993 3.73573 11.6943 3.47299 10.8734 3.42522C9.50522 3.35357 7.88623 3.64019 6.65489 4.28509C5.69717 4.78668 4.42022 5.98093 4.32901 7.12742C4.2834 7.67678 4.53423 8.15448 4.48863 8.70384C4.44302 9.30096 4.16939 9.80255 3.87295 10.3041C3.12046 11.6178 3.14326 12.9076 3.82735 14.2691C4.16939 14.9617 4.69385 15.4872 4.99028 16.1799C5.24111 16.8009 5.49195 17.398 5.81118 17.9952C6.42686 19.0939 7.68101 19.6671 8.79834 20.0732C10.5541 20.7181 12.8116 21.0763 14.613 20.527C15.5251 20.2404 16.1408 19.5716 16.9845 19.1178C17.737 18.7117 18.3299 18.1146 18.9683 17.5652C20.2225 16.4904 20.7926 14.8662 20.4733 13.1942C20.2225 11.8328 19.8805 10.3997 19.2876 9.15765C18.8999 8.32167 18.5579 7.24684 18.0106 6.62583C18.0106 6.57806 18.3527 6.81691 18.3527 6.81691Z" fill="#D39456"/>
<path d="M15.8215 6.8646C13.3588 5.38372 9.61914 3.40125 7.06523 6.00473C6.58638 6.48244 6.47237 7.24676 6.17593 7.84389C5.8795 8.44102 5.62867 8.96649 5.51465 9.63527C5.33223 10.7818 5.37783 11.7372 5.67427 12.8837C5.9479 14.0063 6.13032 15.2961 6.58638 16.3231C7.08804 17.4696 8.70703 18.0428 9.73315 18.5205C12.5151 19.8103 15.5934 18.2817 17.7597 16.3948C18.7858 15.511 19.2875 14.6512 19.2875 13.2419C19.2875 12.2149 18.8314 11.2117 18.421 10.3041C18.0561 9.49196 17.6685 8.67987 17.0528 8.05885C16.5055 7.55727 16.4599 7.24676 15.8215 6.8646Z" fill="#DCAA79"/>
<path d="M15.9354 8.60831C14.8865 7.89176 13.7236 7.53348 12.5378 7.12744C11.5117 6.76916 10.3944 6.2198 9.29984 6.48254C8.34212 6.72139 7.68085 7.93953 7.2932 8.79939C7.04237 9.37264 7.01957 9.7548 7.11078 10.3758C7.20199 11.0446 7.17919 11.7134 7.17919 12.406C7.17919 13.3615 7.06518 14.3885 7.68085 15.1767C8.00009 15.5828 8.41054 16.0366 8.82099 16.3232C9.73309 16.992 10.8048 17.6608 11.9678 17.7085C13.1991 17.7802 14.4533 17.2547 15.411 16.4904C15.8442 16.156 16.2775 15.7739 16.6195 15.32C17.0072 14.8184 17.5772 14.2452 17.714 13.6003C17.8965 12.7643 17.9421 11.1401 17.4632 10.4714C17.1896 10.0892 16.8019 9.82646 16.4827 9.49206C16.2091 9.25321 16.2319 8.82328 15.9354 8.60831Z" fill="#D39456"/>
<path d="M16.4372 11.5223C16.5968 10.4475 15.0463 9.27712 14.2482 8.94273C13.0396 8.41726 11.3978 8.01121 10.0981 8.29783C8.88953 8.56057 7.95462 10.4714 7.8178 11.6895C7.68099 13.0271 8.22825 14.0303 9.18596 14.8424C9.84724 15.3917 10.3945 16.1322 11.261 16.3949C12.3099 16.7054 13.4045 16.2755 14.3166 15.75C15.1831 15.2245 16.118 14.4363 16.5512 13.4809C16.9617 12.5255 16.3004 12.43 16.4372 11.5223Z" fill="#DCAA79"/>
<path d="M14.6128 10.3519C12.8114 9.301 9.52781 9.18157 8.88933 11.7373C8.31926 14.0064 11.3292 15.4872 13.1078 14.7468C13.9515 14.3885 14.7268 13.7197 15.0233 12.7882C15.2741 11.9522 15.4793 10.8535 14.6128 10.3519Z" fill="#D39456"/>
<path d="M12.7203 11.3074C12.994 9.75488 13.222 8.15458 13.4272 6.57816C13.5184 5.86161 13.7921 5.14505 13.8377 4.4285C13.8605 4.02245 13.7693 2.54157 14.4077 2.75654C14.4077 3.09093 14.2481 3.42532 14.1797 3.7836C14.1341 4.16576 14.1341 4.52404 14.0429 4.9062C13.8605 5.64664 13.8833 6.45874 13.6781 7.19917C13.4728 7.89184 13.2904 8.58451 13.1536 9.2533C13.0852 9.58769 13.0852 9.94596 13.0168 10.2804C12.994 10.6386 12.7203 10.9491 12.7203 11.3074Z" fill="#592611"/>
<path d="M10.3943 12.1912C8.22807 12.7644 6.06181 13.5049 3.87275 13.9348C3.50791 14.0064 3.14306 14.0542 2.80102 14.1498C2.52739 14.2453 2.16255 14.508 2.64141 14.5797C2.96064 14.6275 3.3939 14.3647 3.69033 14.2692C4.03237 14.1498 4.35161 14.0542 4.69365 13.9826C5.71977 13.7198 6.74589 13.5287 7.74921 13.2421C8.22807 13.0988 8.70693 12.9316 9.16298 12.7405C9.45941 12.6211 10.2119 12.4539 10.3943 12.1912Z" fill="#592611"/>
<path d="M12.4466 13.2899C12.0133 13.8392 11.9677 14.9857 11.7169 15.6784C11.466 16.4427 11.1468 17.1831 10.8504 17.9236C10.5767 18.6163 10.3259 19.3328 10.1207 20.0016C10.0067 20.3838 9.66463 21.3392 9.80145 21.6736C10.3259 21.4108 10.5995 20.3121 10.782 19.7627C10.9872 19.1417 11.2608 18.4968 11.352 17.8519C11.466 17.1354 11.6713 16.4427 11.8081 15.75C11.9449 15.1529 12.2413 13.8631 12.4466 13.2899Z" fill="#592611"/>
<path d="M13.6552 13.5525C14.7953 14.078 15.7302 15.2006 16.7791 15.8933C17.372 16.2754 17.9421 16.5859 18.5349 16.9442C18.9454 17.1831 19.3558 17.6369 19.8347 17.5413C19.333 16.4904 17.9193 15.941 16.9387 15.4156C16.3687 15.105 15.7986 14.9617 15.2513 14.5557C14.8409 14.1974 14.1568 13.7675 13.6552 13.5525Z" fill="#592611"/>
<path d="M13.9745 11.594C15.069 10.9969 16.232 10.4236 17.4177 10.0415C17.8281 9.89814 19.7892 9.03828 20.0856 9.4921C19.1051 10.137 17.7141 10.5908 16.5968 10.9491C15.8215 11.2118 14.7954 11.6895 13.9745 11.594Z" fill="#592611"/>
<path d="M10.7136 10.4713C9.43665 10.4713 8.2281 9.85031 7.13357 9.15764C6.83714 8.96656 3.69037 7.27072 3.84999 8.13058C5.01292 8.32166 6.26707 9.01433 7.316 9.5398C7.84046 9.80254 8.36492 10.0892 8.91219 10.328C9.61907 10.6385 10.0067 10.543 10.7136 10.4713Z" fill="#592611"/>
<path d="M11.8765 9.61128C11.9449 10.3517 12.0362 10.495 11.3065 10.7817C10.7364 11.0205 10.0751 11.1399 9.55066 11.4027C10.0751 11.4504 10.6224 11.4504 11.1468 11.4743C11.5117 11.4982 11.9906 11.3071 11.8765 11.8565C11.8081 12.167 11.2381 12.6208 11.0556 12.8597C10.8276 13.1463 10.5996 13.4568 10.3716 13.7434C11.3749 13.3374 11.9677 12.4775 13.0851 12.9074C13.7692 13.1702 14.4304 13.4568 15.2057 13.4568C14.8409 13.3612 14.5444 12.9313 14.2024 12.7163C13.906 12.5253 13.4271 12.4058 13.2219 12.0953C12.6746 11.2355 14.2024 10.1368 14.6357 9.61128C14.0428 9.8979 13.5639 10.6622 12.8799 10.71C12.173 10.71 12.3782 9.8979 11.8765 9.61128Z" fill="#592611"/>
</svg>
