<svg width="133" height="226" viewBox="0 0 133 226" fill="none" xmlns="http://www.w3.org/2000/svg">
<g filter="url(#filter0_f)">
<path d="M17.6645 1H114.864C124.474 1 132.264 8.81003 132.264 18.4442L132.264 173.779C132.264 182.685 125.571 190.162 116.739 191.121L109.476 191.91V206.313C109.476 206.776 109.211 207.199 108.795 207.401L95.2547 213.966V193.455L93.2425 193.674V222.887C93.2425 224.013 92.149 224.812 91.0795 224.469L78.3262 220.372V225H54.709V220.373L41.9564 224.469C40.8868 224.812 39.7934 224.013 39.7934 222.887V222.784C39.793 222.77 39.7928 222.756 39.7928 222.741V193.729L37.897 193.523V213.966L24.3568 207.401C23.9405 207.199 23.676 206.777 23.676 206.313V191.978L15.7901 191.121C6.95754 190.162 0.264465 182.685 0.264465 173.779L0.264482 18.4442C0.264483 8.81003 8.05473 1 17.6645 1Z" fill="url(#paint0_linear)" fill-opacity="0.3"/>
<path d="M109.368 190.916L108.476 191.013V191.91V195.511H109.476V202.712H108.476V206.313C108.476 206.333 108.473 206.353 108.468 206.371L109.429 206.647C109.366 206.865 109.243 207.061 109.075 207.213L108.406 206.469C108.392 206.482 108.376 206.493 108.359 206.501L104.974 208.142L105.41 209.042L98.6397 212.325L98.2034 211.425L96.2547 212.37V208.838H95.2547V198.583H96.2547V193.455V192.34L95.1467 192.461L94.6436 192.515L94.7457 193.455H94.2547V193.564L93.7455 193.619L93.6375 192.625L93.1345 192.679L92.2425 192.776V193.674V200.977H93.2425V215.583H92.2425V222.887C92.2425 223.001 92.216 223.101 92.1724 223.187L93.0642 223.639C92.8253 224.11 92.3705 224.443 91.8504 224.528L91.6891 223.541C91.595 223.557 91.4928 223.551 91.3853 223.517L88.197 222.493L87.8911 223.445L81.5145 221.396L81.8203 220.444L78.632 219.42L77.3262 219.001V220.372V221.529H78.3262V223.843H77.3262V224H72.4219V225H60.6133V224H55.709V223.843H54.709V221.529H55.709V220.373V219.001L54.4032 219.42L51.215 220.445L51.5209 221.397L45.1445 223.445L44.8387 222.493L41.6506 223.517C41.5431 223.551 41.4409 223.557 41.3467 223.541L41.1854 224.528C40.6653 224.443 40.2106 224.11 39.9716 223.639L40.8634 223.187C40.8198 223.101 40.7934 223.001 40.7934 222.887V222.861H39.7934V222.81H40.7934V222.784V222.772L40.793 222.76L40.793 222.755L39.7931 222.773C39.793 222.766 39.7929 222.759 39.7929 222.752L40.7928 222.746L40.7928 222.741V215.488H39.7928V200.982H40.7928V193.729V192.831L39.9008 192.734L39.4269 192.683L39.3189 193.677L38.897 193.631V193.523H38.3766L38.479 192.58L38.005 192.528L36.897 192.408V193.523V198.633H37.897V208.855H36.897V212.37L34.9482 211.425L34.512 212.325L27.7419 209.042L28.1782 208.143L24.7931 206.501C24.7753 206.493 24.7594 206.482 24.7454 206.469L24.077 207.213C23.9083 207.062 23.7855 206.865 23.7229 206.647L24.6842 206.371C24.6789 206.353 24.676 206.333 24.676 206.313V202.729H23.676V195.562H24.676V191.978V191.081L23.784 190.984L21.8125 190.77L21.7045 191.764L17.7616 191.335L17.8696 190.341L15.8981 190.127C13.8463 189.904 11.9185 189.309 10.1776 188.413L9.71991 189.302C5.91004 187.341 2.94127 184.022 1.41001 180.012L2.34422 179.655C1.64585 177.826 1.26447 175.844 1.26447 173.779L1.26447 168.231H0.264466L0.264467 157.136H1.26447L1.26447 146.04H0.264468L0.26447 134.945H1.26447L1.26447 123.85H0.264471L0.264472 112.754H1.26447L1.26447 101.659H0.264473L0.264475 90.5637H1.26447L1.26448 79.4684H0.264476L0.264477 68.3731H1.26448L1.26448 57.2778H0.264478L0.264479 46.1825H1.26448L1.26448 35.0872H0.264481L0.264482 23.9919H1.26448L1.26448 18.4442C1.26448 16.2149 1.70635 14.0917 2.50607 12.1558L1.58183 11.774C3.34373 7.50896 6.74447 4.09676 10.9968 2.32667L11.3811 3.24988C13.315 2.44484 15.4367 2 17.6645 2H23.7395V1H35.8895V2H48.0395V1H60.1895V2H72.3395V1H84.4895V2H96.6395V1H108.789V2H114.864C117.092 2 119.214 2.44484 121.148 3.24988L121.532 2.32667C125.784 4.09676 129.185 7.50896 130.947 11.774L130.023 12.1558C130.823 14.0916 131.264 16.2149 131.264 18.4442V23.9918H132.264V35.0872H131.264V46.1825H132.264V57.2778H131.264V68.3731H132.264V79.4684H131.264V90.5637H132.264L132.264 101.659H131.264V112.754H132.264V123.85H131.264V134.945H132.264V146.04H131.264V157.136H132.264V168.231H131.264V173.779C131.264 175.844 130.883 177.826 130.185 179.655L131.119 180.012C129.588 184.022 126.619 187.341 122.809 189.302L122.351 188.413C120.61 189.309 118.683 189.904 116.631 190.127L114.815 190.324L114.923 191.318L111.291 191.713L111.183 190.719L109.368 190.916Z" stroke="white" stroke-width="2" stroke-dasharray="11 11"/>
</g>
<defs>
<filter id="filter0_f" x="0.0835396" y="0.819074" width="132.362" height="224.362" filterUnits="userSpaceOnUse" color-interpolation-filters="sRGB">
<feFlood flood-opacity="0" result="BackgroundImageFix"/>
<feBlend mode="normal" in="SourceGraphic" in2="BackgroundImageFix" result="shape"/>
<feGaussianBlur stdDeviation="0.0904629" result="effect1_foregroundBlur"/>
</filter>
<linearGradient id="paint0_linear" x1="132.425" y1="1.00001" x2="-27.2143" y2="220.313" gradientUnits="userSpaceOnUse">
<stop stop-color="#35355E"/>
<stop offset="0.5" stop-color="#181829"/>
<stop offset="0.958333" stop-color="#181829"/>
</linearGradient>
</defs>
</svg>
