<svg width="133" height="223" viewBox="0 0 133 223" fill="none" xmlns="http://www.w3.org/2000/svg">
<mask id="path-1-inside-1" fill="white">
<path fill-rule="evenodd" clip-rule="evenodd" d="M9.36073 5.89963L65.1523 0.055783C65.8624 -0.0185946 66.5783 -0.0185942 67.2884 0.0557834L123.08 5.89964C128.3 6.44643 132.264 10.8475 132.264 16.0963L132.264 163.338C132.264 167.652 129.563 171.505 125.507 172.976L120.085 174.942V186.42C120.085 187.034 119.749 187.599 119.21 187.892L97.9542 199.448V207.262L67.6146 222.685C67.1546 222.918 66.6104 222.918 66.1512 222.682L36.591 207.53V201.012L12.4591 187.892C11.9198 187.599 11.584 187.034 11.584 186.42V174.662L6.93386 172.976C2.87763 171.505 0.1763 167.652 0.1763 163.338L0.176318 16.0963C0.176319 10.8475 4.1405 6.44642 9.36073 5.89963Z"/>
</mask>
<path fill-rule="evenodd" clip-rule="evenodd" d="M9.36073 5.89963L65.1523 0.055783C65.8624 -0.0185946 66.5783 -0.0185942 67.2884 0.0557834L123.08 5.89964C128.3 6.44643 132.264 10.8475 132.264 16.0963L132.264 163.338C132.264 167.652 129.563 171.505 125.507 172.976L120.085 174.942V186.42C120.085 187.034 119.749 187.599 119.21 187.892L97.9542 199.448V207.262L67.6146 222.685C67.1546 222.918 66.6104 222.918 66.1512 222.682L36.591 207.53V201.012L12.4591 187.892C11.9198 187.599 11.584 187.034 11.584 186.42V174.662L6.93386 172.976C2.87763 171.505 0.1763 167.652 0.1763 163.338L0.176318 16.0963C0.176319 10.8475 4.1405 6.44642 9.36073 5.89963Z" fill="url(#paint0_linear)" fill-opacity="0.3"/>
<path d="M65.1523 0.055783L65.2565 1.05034L65.1523 0.055783ZM9.36073 5.89963L9.25656 4.90507L9.36073 5.89963ZM67.2884 0.0557834L67.3926 -0.938776V-0.938776L67.2884 0.0557834ZM123.08 5.89964L122.976 6.8942V6.8942L123.08 5.89964ZM132.264 16.0963H133.264H132.264ZM132.264 163.338H131.264H132.264ZM125.507 172.976L125.166 172.036H125.166L125.507 172.976ZM120.085 174.942L119.744 174.002L119.085 174.241V174.942H120.085ZM119.21 187.892L118.732 187.013V187.013L119.21 187.892ZM97.9542 199.448L97.4766 198.57L96.9542 198.854V199.448H97.9542ZM97.9542 207.262L98.4074 208.153L98.9542 207.875V207.262H97.9542ZM67.6146 222.685L68.0677 223.576H68.0677L67.6146 222.685ZM66.1512 222.682L65.6951 223.572H65.6951L66.1512 222.682ZM36.591 207.53H35.591V208.141L36.1348 208.419L36.591 207.53ZM36.591 201.012H37.591V200.417L37.0687 200.133L36.591 201.012ZM12.4591 187.892L12.9367 187.013L12.9367 187.013L12.4591 187.892ZM11.584 174.662H12.584V173.961L11.9249 173.722L11.584 174.662ZM6.93386 172.976L7.27474 172.036H7.27474L6.93386 172.976ZM0.1763 163.338H-0.8237H0.1763ZM0.176318 16.0963H1.17632H0.176318ZM65.0482 -0.938776L60.3989 -0.451789L60.6072 1.53733L65.2565 1.05034L65.0482 -0.938776ZM51.1003 0.522187L41.8017 1.49616L42.01 3.48528L51.3086 2.5113L51.1003 0.522187ZM32.5031 2.47014L23.2045 3.44411L23.4128 5.43323L32.7114 4.45925L32.5031 2.47014ZM13.9059 4.41809L9.25656 4.90507L9.46491 6.89419L14.1142 6.40721L13.9059 4.41809ZM9.25656 4.90507C7.84813 5.0526 6.52133 5.4563 5.32184 6.0675L6.22986 7.8495C7.21442 7.34781 8.30444 7.01575 9.46491 6.89419L9.25656 4.90507ZM-0.0774732 12.0619C-0.560394 13.3185 -0.823682 14.6802 -0.823682 16.0963H1.17632C1.17632 14.9295 1.39303 13.8108 1.78942 12.7793L-0.0774732 12.0619ZM-0.823682 16.0963L-0.823683 21.3549H1.17632L1.17632 16.0963H-0.823682ZM-0.823684 31.8722L-0.823685 42.3894H1.17631L1.17632 31.8722H-0.823684ZM-0.823687 52.9067L-0.823688 63.4239H1.17631L1.17631 52.9067H-0.823687ZM-0.823689 73.9412L-0.82369 84.4584H1.17631L1.17631 73.9412H-0.823689ZM-0.823692 94.9757L-0.823693 105.493H1.17631L1.17631 94.9757H-0.823692ZM-0.823694 116.01L-0.823695 126.527H1.1763L1.17631 116.01H-0.823694ZM-0.823697 137.045L-0.823698 147.562H1.1763L1.1763 137.045H-0.823697ZM-0.823699 158.079L-0.8237 163.338H1.1763L1.1763 158.079H-0.823699ZM-0.8237 163.338C-0.8237 164.508 -0.642561 165.648 -0.302399 166.725L1.60478 166.123C1.32532 165.238 1.1763 164.301 1.1763 163.338H-0.8237ZM3.58631 172.272C4.4831 172.959 5.49295 173.517 6.59297 173.916L7.27474 172.036C6.36933 171.708 5.53935 171.248 4.80258 170.684L3.58631 172.272ZM6.59297 173.916L7.75551 174.338L8.43728 172.458L7.27474 172.036L6.59297 173.916ZM10.0806 175.181L11.2431 175.603L11.9249 173.722L10.7624 173.301L10.0806 175.181ZM10.584 174.662V177.602H12.584V174.662H10.584ZM10.584 183.481V186.42H12.584V183.481H10.584ZM10.584 186.42C10.584 186.663 10.6169 186.901 10.6796 187.129L12.6081 186.599C12.5923 186.542 12.584 186.482 12.584 186.42H10.584ZM11.4042 188.348C11.5746 188.512 11.7682 188.654 11.9814 188.77L12.9367 187.013C12.8826 186.984 12.8339 186.948 12.7911 186.907L11.4042 188.348ZM11.9814 188.77L18.0144 192.05L18.9697 190.293L12.9367 187.013L11.9814 188.77ZM30.0804 198.611L36.1134 201.891L37.0687 200.133L31.0357 196.853L30.0804 198.611ZM35.591 201.012V202.641H37.591V201.012H35.591ZM35.591 205.9V207.53H37.591V205.9H35.591ZM36.1348 208.419L39.8299 210.314L40.7422 208.534L37.0472 206.64L36.1348 208.419ZM47.2199 214.102L54.61 217.89L55.5223 216.11L48.1323 212.322L47.2199 214.102ZM62.0001 221.678L65.6951 223.572L66.6074 221.792L62.9124 219.898L62.0001 221.678ZM65.6951 223.572C65.8798 223.667 66.0732 223.738 66.271 223.786L66.7418 221.842C66.6958 221.831 66.6507 221.814 66.6074 221.792L65.6951 223.572ZM67.4911 223.788C67.689 223.741 67.8827 223.67 68.0677 223.576L67.1614 221.793C67.118 221.815 67.0729 221.832 67.0268 221.843L67.4911 223.788ZM68.0677 223.576L71.8602 221.648L70.9539 219.865L67.1614 221.793L68.0677 223.576ZM79.4451 217.792L87.03 213.937L86.1237 212.154L78.5388 216.01L79.4451 217.792ZM94.6149 210.081L98.4074 208.153L97.5011 206.37L93.7086 208.298L94.6149 210.081ZM98.9542 207.262V205.308H96.9542V207.262H98.9542ZM98.9542 201.402V199.448H96.9542V201.402H98.9542ZM98.4319 200.327L103.746 197.438L102.791 195.681L97.4766 198.57L98.4319 200.327ZM114.374 191.659L119.688 188.77L118.732 187.013L113.418 189.902L114.374 191.659ZM119.688 188.77C119.901 188.654 120.094 188.512 120.265 188.348L118.878 186.907C118.835 186.948 118.786 186.984 118.732 187.013L119.688 188.77ZM120.989 187.129C121.052 186.901 121.085 186.663 121.085 186.42H119.085C119.085 186.482 119.077 186.542 119.061 186.599L120.989 187.129ZM121.085 186.42V183.551H119.085V186.42H121.085ZM121.085 177.812V174.942H119.085V177.812H121.085ZM120.426 175.882L121.781 175.391L121.1 173.511L119.744 174.002L120.426 175.882ZM124.492 174.408L125.848 173.916L125.166 172.036L123.811 172.528L124.492 174.408ZM125.848 173.916C126.948 173.517 127.958 172.959 128.854 172.272L127.638 170.684C126.901 171.248 126.071 171.708 125.166 172.036L125.848 173.916ZM132.743 166.725C133.083 165.648 133.264 164.508 133.264 163.338H131.264C131.264 164.301 131.115 165.238 130.836 166.123L132.743 166.725ZM133.264 163.338V158.079H131.264V163.338H133.264ZM133.264 147.562V137.045H131.264V147.562H133.264ZM133.264 126.527V116.01H131.264V126.527H133.264ZM133.264 105.493V94.9757H131.264V105.493H133.264ZM133.264 84.4585V73.9412H131.264V84.4585H133.264ZM133.264 63.424V52.9067H131.264V63.424H133.264ZM133.264 42.3895V31.8722H131.264V42.3895H133.264ZM133.264 21.355V16.0963H131.264V21.355H133.264ZM133.264 16.0963C133.264 14.6802 133.001 13.3186 132.518 12.0619L130.651 12.7794C131.048 13.8108 131.264 14.9295 131.264 16.0963H133.264ZM127.119 6.06751C125.919 5.45631 124.593 5.05261 123.184 4.90508L122.976 6.8942C124.136 7.01575 125.226 7.34782 126.211 7.84951L127.119 6.06751ZM123.184 4.90508L118.535 4.41809L118.327 6.40721L122.976 6.8942L123.184 4.90508ZM109.236 3.44412L99.9377 2.47014L99.7294 4.45926L109.028 5.43324L109.236 3.44412ZM90.6391 1.49616L81.3405 0.522189L81.1321 2.51131L90.4308 3.48528L90.6391 1.49616ZM72.0419 -0.451788L67.3926 -0.938776L67.1842 1.05034L71.8335 1.53733L72.0419 -0.451788ZM67.3926 -0.938776C67.1978 -0.959177 67.0027 -0.974479 66.8073 -0.984683L66.703 1.01259C66.8636 1.02098 67.0241 1.03357 67.1842 1.05034L67.3926 -0.938776ZM65.6335 -0.984684C65.4381 -0.97448 65.2429 -0.959177 65.0482 -0.938776L65.2565 1.05034C65.4167 1.03357 65.5771 1.02098 65.7378 1.01259L65.6335 -0.984684ZM65.1523 0.055783L65.3607 2.0449V2.0449L65.1523 0.055783ZM9.36073 5.89963L9.15239 3.91052H9.15238L9.36073 5.89963ZM67.2884 0.0557834L67.4968 -1.93333V-1.93333L67.2884 0.0557834ZM123.08 5.89964L122.872 7.88876L123.08 5.89964ZM132.264 16.0963H134.264H132.264ZM132.264 163.338H130.264H132.264ZM125.507 172.976L124.825 171.096V171.096L125.507 172.976ZM120.085 174.942L119.403 173.062L118.085 173.54V174.942H120.085ZM119.21 187.892L118.255 186.135H118.255L119.21 187.892ZM97.9542 199.448L96.9989 197.691L95.9542 198.259V199.448H97.9542ZM97.9542 207.262L98.8605 209.045L99.9542 208.489V207.262H97.9542ZM67.6146 222.685L68.5208 224.467L68.5209 224.467L67.6146 222.685ZM66.1512 222.682L65.2389 224.462H65.2389L66.1512 222.682ZM36.591 207.53H34.591V208.752L35.6787 209.309L36.591 207.53ZM36.591 201.012H38.591V199.823L37.5463 199.255L36.591 201.012ZM12.4591 187.892L13.4144 186.135H13.4144L12.4591 187.892ZM11.584 174.662H13.584V173.26L12.2658 172.782L11.584 174.662ZM6.93386 172.976L7.61563 171.096L7.61562 171.096L6.93386 172.976ZM0.1763 163.338H-1.8237H0.1763ZM0.176318 16.0963H2.17632H0.176318ZM64.944 -1.93334L60.2947 -1.44635L60.7114 2.53189L65.3607 2.0449L64.944 -1.93334ZM50.9961 -0.472373L41.6975 0.501603L42.1142 4.47984L51.4128 3.50586L50.9961 -0.472373ZM32.3989 1.47558L23.1003 2.44955L23.517 6.42779L32.8156 5.45381L32.3989 1.47558ZM13.8017 3.42353L9.15239 3.91052L9.56908 7.88875L14.2184 7.40176L13.8017 3.42353ZM9.15238 3.91052C7.61997 4.07103 6.17478 4.51055 4.86783 5.17651L6.68387 8.74049C7.56097 8.29357 8.53259 7.99732 9.56908 7.88875L9.15238 3.91052ZM-1.01092 11.7032C-1.5371 13.0724 -1.82368 14.5555 -1.82368 16.0963H2.17632C2.17632 15.0541 2.36974 14.0569 2.72286 13.1381L-1.01092 11.7032ZM-1.82368 16.0963L-1.82368 21.3549H2.17632L2.17632 16.0963H-1.82368ZM-1.82368 31.8722L-1.82369 42.3894H2.17631L2.17632 31.8722H-1.82368ZM-1.82369 52.9067L-1.82369 63.4239H2.17631L2.17631 52.9067H-1.82369ZM-1.82369 73.9412L-1.82369 84.4584H2.17631L2.17631 73.9412H-1.82369ZM-1.82369 94.9757L-1.82369 105.493H2.17631L2.17631 94.9757H-1.82369ZM-1.82369 116.01L-1.8237 126.527H2.1763L2.17631 116.01H-1.82369ZM-1.8237 137.045L-1.8237 147.562H2.1763L2.1763 137.045H-1.8237ZM-1.8237 158.079L-1.8237 163.338H2.1763L2.1763 158.079H-1.8237ZM-1.8237 163.338C-1.8237 164.611 -1.6265 165.853 -1.25599 167.026L2.55837 165.822C2.30925 165.033 2.1763 164.197 2.1763 163.338H-1.8237ZM2.97817 173.065C3.95497 173.814 5.05476 174.422 6.25209 174.856L7.61562 171.096C6.80752 170.803 6.06748 170.393 5.41072 169.89L2.97817 173.065ZM6.25208 174.856L7.41462 175.278L8.77817 171.518L7.61563 171.096L6.25208 174.856ZM9.73971 176.121L10.9022 176.543L12.2658 172.782L11.1033 172.361L9.73971 176.121ZM9.58402 174.662V177.602H13.584V174.662H9.58402ZM9.58402 183.481V186.42H13.584V183.481H9.58402ZM9.58402 186.42C9.58402 186.753 9.62922 187.081 9.71541 187.394L13.5723 186.334C13.5801 186.362 13.584 186.391 13.584 186.42H9.58402ZM10.7107 189.068C10.945 189.294 11.211 189.49 11.5038 189.649L13.4144 186.135C13.4398 186.148 13.4635 186.166 13.4845 186.186L10.7107 189.068ZM11.5038 189.649L17.5367 192.929L19.4474 189.415L13.4144 186.135L11.5038 189.649ZM29.6027 199.489L35.6357 202.769L37.5463 199.255L31.5133 195.975L29.6027 199.489ZM34.591 201.012V202.641H38.591V201.012H34.591ZM34.591 205.9V207.53H38.591V205.9H34.591ZM35.6787 209.309L39.3737 211.203L41.1984 207.644L37.5033 205.75L35.6787 209.309ZM46.7638 214.992L54.1538 218.78L55.9785 215.22L48.5884 211.432L46.7638 214.992ZM61.5439 222.568L65.2389 224.462L67.0636 220.902L63.3685 219.008L61.5439 222.568ZM65.2389 224.462C65.4944 224.593 65.762 224.692 66.0356 224.758L66.9772 220.87C67.0071 220.878 67.0361 220.888 67.0636 220.902L65.2389 224.462ZM67.7232 224.761C67.9971 224.695 68.265 224.598 68.5208 224.467L66.7083 220.902C66.7357 220.888 66.7648 220.877 66.7947 220.87L67.7232 224.761ZM68.5209 224.467L72.3133 222.54L70.5007 218.974L66.7083 220.902L68.5209 224.467ZM79.8982 218.684L87.4832 214.828L85.6706 211.262L78.0856 215.118L79.8982 218.684ZM95.0681 210.973L98.8605 209.045L97.0479 205.479L93.2555 207.407L95.0681 210.973ZM99.9542 207.262V205.308H95.9542V207.262H99.9542ZM99.9542 201.402V199.448H95.9542V201.402H99.9542ZM98.9095 201.205L104.223 198.316L102.313 194.802L96.9989 197.691L98.9095 201.205ZM114.851 192.538L120.165 189.649L118.255 186.135L112.941 189.024L114.851 192.538ZM120.165 189.649C120.458 189.49 120.724 189.294 120.958 189.068L118.185 186.186C118.206 186.166 118.229 186.148 118.255 186.135L120.165 189.649ZM121.954 187.394C122.04 187.081 122.085 186.753 122.085 186.42H118.085C118.085 186.391 118.089 186.362 118.097 186.334L121.954 187.394ZM122.085 186.42V183.551H118.085V186.42H122.085ZM122.085 177.812V174.942H118.085V177.812H122.085ZM120.767 176.822L122.122 176.331L120.759 172.571L119.403 173.062L120.767 176.822ZM124.833 175.348L126.189 174.856L124.825 171.096L123.47 171.588L124.833 175.348ZM126.189 174.856C127.386 174.422 128.486 173.814 129.463 173.065L127.03 169.89C126.373 170.393 125.633 170.803 124.825 171.096L126.189 174.856ZM133.697 167.026C134.067 165.853 134.264 164.611 134.264 163.338H130.264C130.264 164.197 130.131 165.033 129.882 165.822L133.697 167.026ZM134.264 163.338V158.079H130.264V163.338H134.264ZM134.264 147.562V137.045H130.264V147.562H134.264ZM134.264 126.527V116.01H130.264V126.527H134.264ZM134.264 105.493V94.9757H130.264V105.493H134.264ZM134.264 84.4585V73.9412H130.264V84.4585H134.264ZM134.264 63.424V52.9067H130.264V63.424H134.264ZM134.264 42.3895V31.8722L130.264 31.8722V42.3895H134.264ZM134.264 21.355V16.0963H130.264V21.355H134.264ZM134.264 16.0963C134.264 14.5555 133.978 13.0724 133.452 11.7032L129.718 13.1381C130.071 14.057 130.264 15.0542 130.264 16.0963H134.264ZM127.573 5.17652C126.266 4.51056 124.821 4.07103 123.288 3.91052L122.872 7.88876C123.908 7.99732 124.88 8.29358 125.757 8.7405L127.573 5.17652ZM123.288 3.91052L118.639 3.42353L118.222 7.40177L122.872 7.88876L123.288 3.91052ZM109.34 2.44956L100.042 1.47558L99.6252 5.45382L108.924 6.42779L109.34 2.44956ZM90.7433 0.501606L81.4447 -0.47237L81.028 3.50587L90.3266 4.47984L90.7433 0.501606ZM72.1461 -1.44635L67.4968 -1.93333L67.0801 2.0449L71.7294 2.53189L72.1461 -1.44635ZM67.4968 -1.93333C67.2847 -1.95555 67.0722 -1.97221 66.8594 -1.98332L66.6508 2.01123C66.7941 2.01872 66.9372 2.02994 67.0801 2.0449L67.4968 -1.93333ZM65.5813 -1.98332C65.3686 -1.97221 65.1561 -1.95555 64.944 -1.93334L65.3607 2.0449C65.5035 2.02994 65.6467 2.01872 65.7899 2.01123L65.5813 -1.98332Z" fill="white" mask="url(#path-1-inside-1)"/>
<defs>
<linearGradient id="paint0_linear" x1="132.425" y1="8.15331e-06" x2="-26.1174" y2="219.067" gradientUnits="userSpaceOnUse">
<stop stop-color="#35355E"/>
<stop offset="0.5" stop-color="#181829"/>
<stop offset="0.958333" stop-color="#181829"/>
</linearGradient>
</defs>
</svg>
