<svg width="183" height="289" viewBox="0 0 183 289" fill="none" xmlns="http://www.w3.org/2000/svg">
<path d="M22.4554 241.711V179.225H58.7845V262.817L23.6452 243.712C22.9119 243.313 22.4554 242.545 22.4554 241.711Z" fill="#ECD8BA" stroke="url(#paint0_linear)" stroke-width="0.759228"/>
<path fill-rule="evenodd" clip-rule="evenodd" d="M26.4544 239.989V210.969H25.9824V240.382L26.1796 240.415C26.832 240.524 27.5575 240.91 28.15 241.474C28.7419 242.038 29.18 242.759 29.2886 243.519L29.3066 243.645L48.4006 252.588V220.651H47.9286V251.846L29.7349 243.325C29.5797 242.484 29.0916 241.719 28.4755 241.132C27.8845 240.569 27.1581 240.153 26.4544 239.989Z" fill="url(#paint1_linear)"/>
<path fill-rule="evenodd" clip-rule="evenodd" d="M47.9021 250.119C48.4111 249.259 48.4401 248.038 48.4007 247.25L47.9294 247.273C47.9686 248.058 47.9269 249.15 47.4959 249.879C47.287 250.232 46.9912 250.492 46.5657 250.599C46.1326 250.708 45.5343 250.665 44.711 250.345L44.5399 250.785C45.4157 251.126 46.1191 251.198 46.6806 251.057C47.2496 250.914 47.6411 250.56 47.9021 250.119Z" fill="#D4B195"/>
<path d="M159.659 241.711V179.225H123.33V262.817L158.469 243.712C159.203 243.313 159.659 242.545 159.659 241.711Z" fill="#ECD8BA" stroke="url(#paint2_linear)" stroke-width="0.759228"/>
<path fill-rule="evenodd" clip-rule="evenodd" d="M155.66 239.989V210.969H156.132V240.382L155.935 240.415C155.282 240.524 154.557 240.91 153.964 241.474C153.373 242.038 152.935 242.759 152.826 243.519L152.808 243.645L133.714 252.588V220.651H134.186V251.846L152.38 243.325C152.535 242.484 153.023 241.719 153.639 241.132C154.23 240.569 154.956 240.153 155.66 239.989Z" fill="url(#paint3_linear)"/>
<path fill-rule="evenodd" clip-rule="evenodd" d="M134.212 250.119C133.703 249.259 133.674 248.038 133.714 247.25L134.185 247.273C134.146 248.058 134.187 249.15 134.618 249.879C134.827 250.232 135.123 250.492 135.549 250.599C135.982 250.708 136.58 250.665 137.403 250.345L137.574 250.785C136.699 251.126 135.995 251.198 135.434 251.057C134.865 250.914 134.473 250.56 134.212 250.119Z" fill="#D4B195"/>
<path d="M54.0775 169.624H131.673V268.161L93.3775 287.628C92.7521 287.946 92.0122 287.945 91.3879 287.625L54.0775 268.499V169.624Z" fill="url(#paint4_linear)" stroke="url(#paint5_linear)" stroke-width="1.51846"/>
<path fill-rule="evenodd" clip-rule="evenodd" d="M104.007 281.44L93.2221 286.923C92.5967 287.241 91.8568 287.239 91.2325 286.919L80.0226 281.173V209.127H104.007V281.44Z" fill="url(#paint6_linear)"/>
<path fill-rule="evenodd" clip-rule="evenodd" d="M58.31 222.53H59.4341V266.633L92.5969 283.775L126.317 266.631V222.53H127.441V267.031L92.592 284.607L58.31 267.029V222.53Z" fill="url(#paint7_linear)"/>
<path d="M99.3544 273.622C99.1475 273.341 99.0335 272.992 99.0335 272.64V271.254C99.0335 270.838 98.7011 270.499 98.2928 270.499H97.799C97.7054 270.499 97.62 270.553 97.578 270.638C97.1632 271.484 96.3295 272.01 95.4021 272.01H95.2056C94.5558 272.01 93.9449 271.752 93.4852 271.283L92.7887 270.572C92.7213 270.503 92.6196 270.48 92.529 270.514L86.4852 272.776C85.5729 273.116 84.9604 274.012 84.9604 275.003C84.9604 275.415 85.1177 275.802 85.4031 276.093C85.6885 276.385 86.068 276.545 86.4716 276.545H86.743L86.9432 277.362C86.9706 277.474 87.0691 277.553 87.1825 277.553H88.17C88.2834 277.553 88.3819 277.474 88.4095 277.362L88.6095 276.545H89.2117L89.4119 277.362C89.4396 277.474 89.5381 277.553 89.6514 277.553H90.639C90.7523 277.553 90.8508 277.474 90.8785 277.362L91.0785 276.545H94.6437L94.8439 277.362C94.8713 277.474 94.9698 277.553 95.0831 277.553H96.0707C96.184 277.553 96.2826 277.474 96.3102 277.362L96.5102 276.545H97.1124L97.3126 277.362C97.3403 277.474 97.4388 277.553 97.5521 277.553H98.5397C98.653 277.553 98.7515 277.474 98.7792 277.362L98.9792 276.545H99.0335C99.4418 276.545 99.7742 276.206 99.7742 275.789V274.907C99.7742 274.447 99.625 273.991 99.3544 273.622ZM97.9471 271.003H98.2928C98.4291 271.003 98.5397 271.115 98.5397 271.254V272.64C98.5397 273.041 98.6584 273.435 98.8661 273.774H97.6104C97.4489 273.774 97.2869 273.735 97.1425 273.661C96.786 273.479 96.5645 273.113 96.5645 272.707V272.269C97.1395 272.016 97.6274 271.579 97.9471 271.003ZM86.6551 273.248L87.3163 273.001C87.9925 273.661 88.8749 274.026 89.8136 274.026H90.6832C90.1842 274.354 89.603 274.53 88.9952 274.53C88.3355 274.53 87.6822 274.357 87.1054 274.03L86.1882 273.51C86.3289 273.402 86.4847 273.312 86.6551 273.248ZM85.7522 275.737C85.5628 275.544 85.4542 275.276 85.4542 275.003C85.4542 274.589 85.5927 274.199 85.827 273.881L86.8657 274.47C87.5155 274.839 88.252 275.033 88.9954 275.033C89.962 275.033 90.8708 274.649 91.5542 273.952C91.6249 273.88 91.6461 273.771 91.6078 273.677C91.5698 273.583 91.4794 273.522 91.3797 273.522H89.8136C89.0858 273.522 88.3959 273.269 87.8397 272.805L88.9379 272.394L89.7235 273.196L90.0726 272.84L89.449 272.203L90.022 271.989L90.7113 272.692L91.0605 272.336L90.5328 271.798L91.1059 271.583L91.6989 272.188L92.048 271.832L91.617 271.392L92.5512 271.043L93.1364 271.64C93.6889 272.204 94.4239 272.514 95.2056 272.514H95.4021C95.6315 272.514 95.8544 272.482 96.0707 272.431V272.706C96.0707 273.305 96.3969 273.844 96.9218 274.112C97.1346 274.22 97.3726 274.278 97.6104 274.278H99.1507C99.2325 274.477 99.2804 274.691 99.2804 274.907V275.033H93.2702C92.3396 275.033 91.4649 275.392 90.7911 276.041H86.4716C86.2038 276.041 85.9418 275.93 85.7522 275.737ZM87.9772 277.049H87.3753L87.2516 276.545H88.1007L87.9772 277.049ZM90.4462 277.049H89.8442L89.7205 276.545H90.5696L90.4462 277.049ZM95.8779 277.049H95.276L95.1523 276.545H96.0013L95.8779 277.049ZM98.3469 277.049H97.7449L97.6212 276.545H98.4703L98.3469 277.049ZM99.0335 276.041H91.5863C92.0846 275.714 92.6638 275.537 93.2702 275.537H99.2804V275.789C99.2804 275.928 99.1698 276.041 99.0335 276.041Z" fill="black"/>
<path d="M99.3544 273.622C99.1475 273.341 99.0335 272.992 99.0335 272.64V271.254C99.0335 270.838 98.7011 270.499 98.2928 270.499H97.799C97.7054 270.499 97.62 270.553 97.578 270.638C97.1632 271.484 96.3295 272.01 95.4021 272.01H95.2056C94.5558 272.01 93.9449 271.752 93.4852 271.283L92.7887 270.572C92.7213 270.503 92.6196 270.48 92.529 270.514L86.4852 272.776C85.5729 273.116 84.9604 274.012 84.9604 275.003C84.9604 275.415 85.1177 275.802 85.4031 276.093C85.6885 276.385 86.068 276.545 86.4716 276.545H86.743L86.9432 277.362C86.9706 277.474 87.0691 277.553 87.1825 277.553H88.17C88.2834 277.553 88.3819 277.474 88.4095 277.362L88.6095 276.545H89.2117L89.4119 277.362C89.4396 277.474 89.5381 277.553 89.6514 277.553H90.639C90.7523 277.553 90.8508 277.474 90.8785 277.362L91.0785 276.545H94.6437L94.8439 277.362C94.8713 277.474 94.9698 277.553 95.0831 277.553H96.0707C96.184 277.553 96.2826 277.474 96.3102 277.362L96.5102 276.545H97.1124L97.3126 277.362C97.3403 277.474 97.4388 277.553 97.5521 277.553H98.5397C98.653 277.553 98.7515 277.474 98.7792 277.362L98.9792 276.545H99.0335C99.4418 276.545 99.7742 276.206 99.7742 275.789V274.907C99.7742 274.447 99.625 273.991 99.3544 273.622ZM97.9471 271.003H98.2928C98.4291 271.003 98.5397 271.115 98.5397 271.254V272.64C98.5397 273.041 98.6584 273.435 98.8661 273.774H97.6104C97.4489 273.774 97.2869 273.735 97.1425 273.661C96.786 273.479 96.5645 273.113 96.5645 272.707V272.269C97.1395 272.016 97.6274 271.579 97.9471 271.003ZM86.6551 273.248L87.3163 273.001C87.9925 273.661 88.8749 274.026 89.8136 274.026H90.6832C90.1842 274.354 89.603 274.53 88.9952 274.53C88.3355 274.53 87.6822 274.357 87.1054 274.03L86.1882 273.51C86.3289 273.402 86.4847 273.312 86.6551 273.248ZM85.7522 275.737C85.5628 275.544 85.4542 275.276 85.4542 275.003C85.4542 274.589 85.5927 274.199 85.827 273.881L86.8657 274.47C87.5155 274.839 88.252 275.033 88.9954 275.033C89.962 275.033 90.8708 274.649 91.5542 273.952C91.6249 273.88 91.6461 273.771 91.6078 273.677C91.5698 273.583 91.4794 273.522 91.3797 273.522H89.8136C89.0858 273.522 88.3959 273.269 87.8397 272.805L88.9379 272.394L89.7235 273.196L90.0726 272.84L89.449 272.203L90.022 271.989L90.7113 272.692L91.0605 272.336L90.5328 271.798L91.1059 271.583L91.6989 272.188L92.048 271.832L91.617 271.392L92.5512 271.043L93.1364 271.64C93.6889 272.204 94.4239 272.514 95.2056 272.514H95.4021C95.6315 272.514 95.8544 272.482 96.0707 272.431V272.706C96.0707 273.305 96.3969 273.844 96.9218 274.112C97.1346 274.22 97.3726 274.278 97.6104 274.278H99.1507C99.2325 274.477 99.2804 274.691 99.2804 274.907V275.033H93.2702C92.3396 275.033 91.4649 275.392 90.7911 276.041H86.4716C86.2038 276.041 85.9418 275.93 85.7522 275.737ZM87.9772 277.049H87.3753L87.2516 276.545H88.1007L87.9772 277.049ZM90.4462 277.049H89.8442L89.7205 276.545H90.5696L90.4462 277.049ZM95.8779 277.049H95.276L95.1523 276.545H96.0013L95.8779 277.049ZM98.3469 277.049H97.7449L97.6212 276.545H98.4703L98.3469 277.049ZM99.0335 276.041H91.5863C92.0846 275.714 92.6638 275.537 93.2702 275.537H99.2804V275.789C99.2804 275.928 99.1698 276.041 99.0335 276.041Z" fill="url(#paint8_linear)"/>
<g filter="url(#filter0_d)">
<path d="M90.0931 6.1521L20.5175 13.4397C13.4199 14.1832 8.03017 20.167 8.03017 27.3033L8.03015 211.934C8.03015 217.8 11.7029 223.039 17.2178 225.038L86.7935 250.267C89.8635 251.38 93.2269 251.38 96.297 250.267L165.873 225.038C171.387 223.039 175.06 217.8 175.06 211.934L175.06 27.3033C175.06 20.167 169.67 14.1832 162.573 13.4398L92.9973 6.1521C92.0319 6.05098 91.0585 6.05098 90.0931 6.1521Z" fill="url(#paint9_linear)"/>
<path d="M89.8854 15.3106L33.1642 22.1393C26.1871 22.9793 20.9372 28.8992 20.9372 35.9267L20.9371 202.68C20.9371 208.729 24.8521 214.082 30.6163 215.914L87.3375 233.949C90.0752 234.819 93.0154 234.819 95.7531 233.949L152.474 215.914C158.239 214.082 162.153 208.729 162.153 202.68L162.153 35.9267C162.153 28.8992 156.904 22.9793 149.926 22.1393L93.2052 15.3106C92.1026 15.1778 90.988 15.1778 89.8854 15.3106Z" fill="url(#paint10_linear)"/>
<g filter="url(#filter1_f)">
<path d="M89.8854 15.3106L33.1642 22.1393C26.1871 22.9793 20.9372 28.8992 20.9372 35.9267L20.9371 202.68C20.9371 208.729 24.8521 214.082 30.6163 215.914L87.3375 233.949C90.0752 234.819 93.0154 234.819 95.7531 233.949L152.474 215.914C158.239 214.082 162.153 208.729 162.153 202.68L162.153 35.9267C162.153 28.8992 156.904 22.9793 149.926 22.1393L93.2052 15.3106C92.1026 15.1778 90.988 15.1778 89.8854 15.3106Z" stroke="url(#paint11_linear)" stroke-width="0.819966"/>
</g>
<g opacity="0.5">
<mask id="mask0" style="mask-type:alpha" maskUnits="userSpaceOnUse" x="27" y="22" width="131" height="206">
<path d="M91.1946 22.58L39.2624 26.5985C32.3828 27.1309 27.072 32.8686 27.072 39.7687L27.072 198.917C27.072 204.789 30.9482 209.956 36.5857 211.599L88.5179 226.733C90.9316 227.437 93.4958 227.437 95.9095 226.733L147.842 211.599C153.479 209.956 157.355 204.789 157.355 198.917L157.355 39.7687C157.355 32.8686 152.045 27.1309 145.165 26.5985L93.2328 22.58C92.5544 22.5275 91.873 22.5275 91.1946 22.58Z" fill="#A6D3DE"/>
</mask>
<g mask="url(#mask0)">
<path d="M91.1946 22.58L39.2624 26.5985C32.3828 27.1309 27.072 32.8686 27.072 39.7687L27.072 198.917C27.072 204.789 30.9482 209.956 36.5857 211.599L88.5179 226.733C90.9316 227.437 93.4958 227.437 95.9095 226.733L147.842 211.599C153.479 209.956 157.355 204.789 157.355 198.917L157.355 39.7687C157.355 32.8686 152.045 27.1309 145.165 26.5985L93.2328 22.58C92.5544 22.5275 91.873 22.5275 91.1946 22.58Z" fill="url(#paint12_radial)"/>
<path opacity="0.5" d="M81.442 228.158L78.8883 9.95239H105.489L102.936 228.158H81.442Z" fill="url(#paint13_linear)"/>
<path opacity="0.5" d="M111.824 220.1L0.116638 7.89465L23.4605 -7.29341L130.686 207.829L111.824 220.1Z" fill="url(#paint14_linear)"/>
<path opacity="0.5" d="M50.2427 203.078L155.109 -7.29346L178.458 7.88754L69.1089 215.345L50.2427 203.078Z" fill="url(#paint15_linear)"/>
<rect x="26.9234" y="62.9352" width="130.531" height="172.194" fill="url(#paint16_linear)"/>
<g filter="url(#filter2_i)">
<path d="M91.1946 22.58L39.2624 26.5985C32.3828 27.1309 27.072 32.8686 27.072 39.7687L27.072 198.917C27.072 204.789 30.9482 209.956 36.5857 211.599L88.5179 226.733C90.9316 227.437 93.4958 227.437 95.9095 226.733L147.842 211.599C153.479 209.956 157.355 204.789 157.355 198.917L157.355 39.7687C157.355 32.8686 152.045 27.1309 145.165 26.5985L93.2328 22.58C92.5544 22.5275 91.873 22.5275 91.1946 22.58Z" fill="#6052B4" fill-opacity="0.01"/>
</g>
</g>
</g>
<path d="M27.4059 146.574H157.318V198.694C157.318 204.738 153.349 210.064 147.557 211.791L93.8807 227.796C92.8898 228.091 91.8343 228.091 90.8434 227.796L37.1669 211.791C31.3754 210.064 27.4059 204.738 27.4059 198.694L27.4059 146.574Z" fill="url(#paint17_linear)"/>
<g opacity="0.4" clip-path="url(#clip0)">
<g filter="url(#filter3_i)">
<path d="M91.1036 5.77794L39.1714 10.1575C32.3306 10.7344 27.0719 16.4552 27.0719 23.3203L27.0719 198.937C27.0719 204.761 30.8861 209.898 36.4611 211.582L88.4787 227.298C90.9733 228.052 93.635 228.051 96.1291 227.295L147.976 211.587C153.546 209.9 157.355 204.765 157.355 198.945L157.355 23.3203C157.355 16.4552 152.097 10.7344 145.256 10.1575L93.3237 5.77794C92.585 5.71564 91.8423 5.71564 91.1036 5.77794Z" fill="#6052B4" fill-opacity="0.01"/>
</g>
</g>
</g>
<g filter="url(#filter4_d)">
<path d="M34.3786 230.167C31.9388 229.973 29.4966 228.027 26.4914 226.127C26.5184 225.629 30.0242 223.926 41.3818 228.322L44.8001 230.2C47.0476 230.901 44.3611 230.983 42.3132 231.375C37.6619 230.878 37.4284 230.409 34.3786 230.167Z" fill="url(#paint18_linear)"/>
<path d="M29.6676 217.598C29.3459 216.788 27.9786 213.346 28.1118 208.37L28.1118 208.371C28.6932 208.89 30.3645 210.382 32.9254 215.413C33.0369 216.166 32.9636 219.758 32.3041 221.52C32.549 221.948 31.9779 221.447 31.6007 221.284C29.9588 219.905 29.9893 218.408 29.6676 217.598Z" fill="url(#paint19_linear)"/>
<path fill-rule="evenodd" clip-rule="evenodd" d="M67.7051 241.673C47.0035 234.916 30.2521 221.788 20.7653 211.999L21.0898 211.636C30.4333 221.277 47.7698 233.526 68.1888 240.191C74.4424 242.233 81.4176 243.708 88.1977 244.36C88.1977 244.463 88.018 245.47 88.018 245.946C80.9828 245.301 74.1691 243.783 67.7051 241.673Z" fill="url(#paint20_linear)"/>
<path d="M23.9078 217.026L14.3741 218.047L15.9001 219.41C19.7852 222.227 22.8222 221.021 26.2509 221.862C28.9938 222.535 31.1652 221.723 31.5278 221.219L28.7171 219.101L23.9078 217.026Z" fill="url(#paint21_linear)"/>
<path fill-rule="evenodd" clip-rule="evenodd" d="M14.5396 218.03C18.6878 218.869 23.6835 219.819 25.0186 219.585C26.2332 219.373 28.8873 220.151 31.2453 221.006L31.5278 221.219C31.1652 221.723 28.9938 222.535 26.2509 221.862C25.0936 221.578 23.981 221.527 22.8653 221.477C20.6755 221.377 18.4739 221.276 15.9001 219.41L14.3741 218.047L14.5396 218.03Z" fill="url(#paint22_linear)"/>
<path d="M75.6557 235.29C74.738 234.679 68.7796 232.458 65.9151 231.423L66.1071 232.378C70.5835 238.336 74.4897 239.082 77.3991 240.504C80.3085 241.927 84.4322 246.525 83.6773 244.152C82.9223 241.78 76.8029 236.053 75.6557 235.29Z" fill="url(#paint23_linear)"/>
<path fill-rule="evenodd" clip-rule="evenodd" d="M66.317 231.569C69.212 233.77 73.5243 236.881 76.094 238.163C78.4986 239.362 81.5865 241.937 83.6173 243.985C83.64 244.042 83.66 244.098 83.6773 244.152C84.1155 245.53 82.9098 244.558 81.2519 243.222C80.0538 242.257 78.6196 241.101 77.3991 240.504C76.8733 240.247 76.3149 240.012 75.7265 239.765C73.0591 238.642 69.7744 237.259 66.1071 232.378L65.9151 231.423C66.0432 231.469 66.1774 231.518 66.317 231.569Z" fill="url(#paint24_linear)"/>
<path d="M53.0682 237.323C51.0416 237.603 47.2469 238.917 45.603 239.539C47.8817 240.79 49.0965 240.308 52.3382 241.505C54.9316 242.462 59.6363 240.403 61.6645 239.253C59.6435 238.493 55.0949 237.043 53.0682 237.323Z" fill="url(#paint25_linear)"/>
<path fill-rule="evenodd" clip-rule="evenodd" d="M52.8649 237.353C52.9344 237.342 53.0022 237.331 53.0682 237.322C55.0948 237.042 59.6434 238.492 61.6644 239.252C60.946 239.659 59.8917 240.181 58.7144 240.642C56.4272 239.857 54.2984 238.473 52.8649 237.353Z" fill="url(#paint26_linear)"/>
<path d="M34.2232 231.073C32.9545 231.089 30.0398 232.344 28.741 232.969C31.0908 233.849 33.7267 235.724 37.8276 236.252C39.5231 236.47 45.7021 234.358 48.6206 233.09L46.9959 232.422C42.7546 233.076 35.8091 231.052 34.2232 231.073Z" fill="url(#paint27_linear)"/>
<path d="M46.8902 225.665C45.5243 222.982 41.615 221.041 39.831 220.405C42.3039 225.096 41.3459 226.461 45.8512 230.485L48.6957 231.981C48.663 230.993 48.2561 228.348 46.8902 225.665Z" fill="url(#paint28_linear)"/>
<path d="M78.053 244.745C72.9821 245.859 68.9838 251.145 67.8612 253.67C77.1149 251.353 75.2672 249.181 78.2083 247.496C80.5611 246.149 81.6963 244.908 81.7751 244.673L78.053 244.745Z" fill="url(#paint29_linear)"/>
<path d="M67.5478 245.683C66.5241 246.127 60.687 250.05 57.8964 251.955C64.2168 251.46 68.7981 250.719 70.9942 249.284C72.7511 248.136 78.233 245.908 80.7543 244.938C80.2854 244.78 79.0839 244.439 78.029 244.333C76.7105 244.2 68.8276 245.128 67.5478 245.683Z" fill="url(#paint30_linear)"/>
<path d="M11.1625 207.602C10.1161 206.667 9.02473 201.512 8.60984 199.051L14.1458 201.775C14.8724 202.424 16.5754 204.233 17.5738 206.274C18.5723 208.315 20.5207 211.214 21.4195 212.06L21.0301 212.496C17.1888 211.678 12.4705 208.77 11.1625 207.602Z" fill="url(#paint31_linear)"/>
<path fill-rule="evenodd" clip-rule="evenodd" d="M20.9986 211.947C18.215 210.429 12.0652 203.47 8.65205 199.301C8.63714 199.215 8.62292 199.132 8.60941 199.052L14.1453 201.776C14.872 202.425 16.5749 204.233 17.5734 206.275C18.5718 208.316 20.6578 211.207 21.5566 212.053L20.9986 211.947Z" fill="url(#paint32_linear)"/>
<g filter="url(#filter5_d)">
<path d="M25.6778 216.068C25.381 215.698 22.6 212.201 22.3752 206.456C23.5016 206.853 26.226 208.96 27.7499 210.53C29.2738 212.101 30.6066 217.814 31.1278 220.936C28.7324 218.84 25.9747 216.438 25.6778 216.068Z" fill="url(#paint33_linear)"/>
<path fill-rule="evenodd" clip-rule="evenodd" d="M22.6005 206.548C22.5198 206.511 22.4445 206.481 22.3752 206.456C22.6 212.201 25.3809 215.698 25.6778 216.068C25.9503 216.408 28.2968 218.46 30.533 220.415C30.7326 220.59 30.9314 220.764 31.1278 220.936C31.0885 220.701 31.0447 220.451 30.9965 220.189C28.8741 215.963 24.9548 209.971 22.6005 206.548Z" fill="url(#paint34_linear)"/>
</g>
<path fill-rule="evenodd" clip-rule="evenodd" d="M26.6072 226.2C27.1452 226.183 27.779 226.2 28.4322 226.293C30.1712 226.54 44.1608 229.89 45.3079 230.654C45.3839 230.704 45.4457 230.753 45.4949 230.8C45.2012 230.932 44.5292 231.03 43.7671 231.141C43.2945 231.21 42.7872 231.284 42.3139 231.375C39.8851 231.116 38.6609 230.864 37.6113 230.648C36.6509 230.45 35.8366 230.282 34.3794 230.167C31.959 229.758 30.3169 228.661 28.2534 227.281C27.7373 226.936 27.1948 226.574 26.6072 226.2Z" fill="url(#paint35_linear)"/>
<path fill-rule="evenodd" clip-rule="evenodd" d="M48.0942 232.873C45.5445 233.857 42.116 234.46 37.8327 233.906C33.1431 233.3 30.4993 233.11 29.0993 233.11C28.9791 233.061 28.8597 233.014 28.741 232.969C30.0398 232.344 32.9545 231.089 34.2232 231.073C34.7307 231.066 35.7868 231.269 37.1275 231.526C39.9769 232.073 44.1117 232.867 46.9959 232.422L48.0942 232.873Z" fill="url(#paint36_linear)"/>
<path fill-rule="evenodd" clip-rule="evenodd" d="M39.846 220.436C40.648 221.962 41.0868 223.135 41.4714 224.163C42.2626 226.279 42.8247 227.782 45.8495 230.484L48.6941 231.979C48.6925 231.933 48.6902 231.883 48.6869 231.83C46.7458 227.733 42.2712 222.799 39.846 220.436Z" fill="url(#paint37_linear)"/>
<g filter="url(#filter6_d)">
<path d="M51.3621 233.968C51.5248 233.591 51.4007 233.59 51.762 232.496C53.0756 228.517 50.1649 222.918 47.2191 220.47L46.6838 224.433C46.0868 230.484 49.3895 233.251 51.3621 233.968Z" fill="url(#paint38_linear)"/>
<path fill-rule="evenodd" clip-rule="evenodd" d="M47.3504 220.581C47.3067 220.543 47.2629 220.506 47.2191 220.47L46.6838 224.433C46.0868 230.484 49.3895 233.251 51.3621 233.968C51.3681 233.954 51.3738 233.94 51.3791 233.927C49.5841 231.085 48.014 224.224 47.3504 220.581Z" fill="url(#paint39_linear)"/>
</g>
<g filter="url(#filter7_d)">
<path d="M54.2256 240.708C53.3181 241.256 48.3458 245.341 45.9731 247.315C55.4858 248.365 58.6427 244.392 60.3273 243.676C63.1231 241.862 65.5129 240.6 65.9915 240.113L63.8969 239.679C61.0513 239.794 55.1331 240.16 54.2256 240.708Z" fill="url(#paint40_linear)"/>
<path fill-rule="evenodd" clip-rule="evenodd" d="M46.1218 247.33C53.6892 248.129 57.1941 245.732 59.1473 244.397C59.6195 244.074 60.0009 243.813 60.3272 243.674C61.6018 242.847 62.7921 242.135 63.7553 241.559C64.7326 240.974 65.4761 240.529 65.837 240.246C61.184 240.205 51.4776 244.588 46.1218 247.33Z" fill="url(#paint41_linear)"/>
</g>
<path fill-rule="evenodd" clip-rule="evenodd" d="M78.9158 244.464C73.9284 246.013 64.0225 249.645 57.9281 251.932C60.7313 250.018 66.5271 246.125 67.5469 245.682C68.8266 245.127 76.7095 244.199 78.0281 244.332C78.319 244.361 78.621 244.408 78.9158 244.464Z" fill="url(#paint42_linear)"/>
<g filter="url(#filter8_d)">
<path d="M76.048 243.477C71.8163 242.833 68.7411 240.348 67.7324 239.186L70.1515 239.256C76.5888 237.899 81.5422 242.201 83.2142 244.522C82.5887 244.442 80.2798 244.122 76.048 243.477Z" fill="url(#paint43_linear)"/>
<path fill-rule="evenodd" clip-rule="evenodd" d="M67.7585 239.215C69.8839 240.535 73.8905 241.927 81.1152 242.778C81.9007 243.407 82.5734 243.952 83.1426 244.424C83.1667 244.457 83.1903 244.489 83.2133 244.521C82.5877 244.441 80.2788 244.121 76.047 243.476C71.8524 242.837 68.7942 240.39 67.7585 239.215Z" fill="url(#paint44_linear)"/>
</g>
<path fill-rule="evenodd" clip-rule="evenodd" d="M81.7193 244.771C77.4027 245.793 71.0775 250.812 67.9575 253.644C74.1684 252.077 75.3187 250.576 76.3362 249.248C76.8166 248.622 77.2674 248.033 78.2075 247.495C80.3266 246.282 81.4579 245.154 81.7193 244.771Z" fill="url(#paint45_linear)"/>
<path d="M20.9343 212.018C23.705 215.059 32.2856 223.149 42.698 229.627C50.1714 234.277 52.9021 236.339 67.5903 241.54C71.0639 242.77 80.0189 245.351 88.0506 245.836" stroke="#FADA81" stroke-width="0.641307"/>
</g>
<g filter="url(#filter9_d)">
<path d="M148.8 230.167C151.24 229.973 153.682 228.027 156.688 226.127C156.661 225.629 153.155 223.926 141.797 228.322L138.379 230.2C136.131 230.901 138.818 230.983 140.866 231.375C145.517 230.878 145.751 230.409 148.8 230.167Z" fill="url(#paint46_linear)"/>
<path d="M153.511 217.598C153.833 216.788 155.201 213.346 155.067 208.371L155.067 208.371C154.486 208.89 152.815 210.383 150.254 215.413C150.142 216.166 150.215 219.758 150.875 221.521C150.63 221.948 151.201 221.447 151.578 221.284C153.22 219.905 153.19 218.408 153.511 217.598Z" fill="url(#paint47_linear)"/>
<path fill-rule="evenodd" clip-rule="evenodd" d="M115.474 241.673C136.175 234.916 152.927 221.789 162.414 211.999L162.089 211.636C152.746 221.277 135.409 233.527 114.99 240.191C108.736 242.233 101.761 243.708 94.9811 244.361C94.9811 244.463 95.1609 245.47 95.1609 245.946C102.196 245.301 109.01 243.783 115.474 241.673Z" fill="url(#paint48_linear)"/>
<path d="M159.271 217.026L168.805 218.047L167.279 219.41C163.394 222.227 160.357 221.021 156.928 221.862C154.185 222.536 152.014 221.723 151.651 221.219L154.462 219.101L159.271 217.026Z" fill="url(#paint49_linear)"/>
<path fill-rule="evenodd" clip-rule="evenodd" d="M168.639 218.03C164.491 218.869 159.495 219.819 158.16 219.586C156.946 219.373 154.292 220.151 151.934 221.006L151.651 221.219C152.014 221.723 154.185 222.536 156.928 221.862C158.085 221.578 159.198 221.528 160.314 221.477C162.504 221.377 164.705 221.277 167.279 219.41L168.805 218.047L168.639 218.03Z" fill="url(#paint50_linear)"/>
<path d="M107.523 235.29C108.441 234.679 114.399 232.458 117.264 231.423L117.072 232.379C112.595 238.336 108.689 239.082 105.78 240.505C102.87 241.927 98.7468 246.525 99.5017 244.152C100.257 241.78 106.376 236.053 107.523 235.29Z" fill="url(#paint51_linear)"/>
<path fill-rule="evenodd" clip-rule="evenodd" d="M116.862 231.569C113.967 233.77 109.655 236.881 107.085 238.163C104.68 239.363 101.592 241.937 99.5615 243.985C99.5388 244.043 99.5189 244.098 99.5017 244.152C99.0635 245.53 100.269 244.558 101.927 243.222C103.125 242.257 104.559 241.101 105.78 240.505C106.306 240.247 106.864 240.012 107.452 239.765C110.12 238.642 113.405 237.259 117.072 232.379L117.264 231.423C117.136 231.47 117.002 231.518 116.862 231.569Z" fill="url(#paint52_linear)"/>
<path d="M130.111 237.323C132.137 237.603 135.932 238.917 137.576 239.539C135.297 240.79 134.082 240.308 130.841 241.505C128.247 242.462 123.543 240.403 121.514 239.253C123.535 238.493 128.084 237.043 130.111 237.323Z" fill="url(#paint53_linear)"/>
<path fill-rule="evenodd" clip-rule="evenodd" d="M130.314 237.353C130.245 237.342 130.177 237.332 130.111 237.322C128.084 237.042 123.536 238.492 121.515 239.252C122.233 239.66 123.287 240.181 124.465 240.642C126.752 239.857 128.881 238.473 130.314 237.353Z" fill="url(#paint54_linear)"/>
<path d="M148.956 231.073C150.224 231.09 153.139 232.344 154.438 232.97C152.088 233.849 149.452 235.724 145.351 236.252C143.656 236.47 137.477 234.358 134.558 233.09L136.183 232.422C140.424 233.076 147.37 231.053 148.956 231.073Z" fill="url(#paint55_linear)"/>
<path d="M136.289 225.665C137.655 222.982 141.564 221.041 143.348 220.406C140.875 225.096 141.833 226.461 137.328 230.485L134.483 231.981C134.516 230.993 134.923 228.348 136.289 225.665Z" fill="url(#paint56_linear)"/>
<path d="M105.126 244.745C110.197 245.86 114.195 251.145 115.318 253.67C106.064 251.353 107.912 249.181 104.971 247.497C102.618 246.149 101.483 244.908 101.404 244.673L105.126 244.745Z" fill="url(#paint57_linear)"/>
<path d="M115.631 245.683C116.655 246.127 122.492 250.05 125.283 251.955C118.962 251.46 114.381 250.719 112.185 249.284C110.428 248.136 104.946 245.908 102.425 244.938C102.894 244.78 104.095 244.439 105.15 244.333C106.469 244.2 114.352 245.128 115.631 245.683Z" fill="url(#paint58_linear)"/>
<path d="M172.017 207.602C173.063 206.667 174.154 201.512 174.569 199.052L169.033 201.775C168.307 202.424 166.604 204.233 165.605 206.274C164.607 208.315 162.658 211.214 161.76 212.06L162.149 212.496C165.99 211.678 170.709 208.77 172.017 207.602Z" fill="url(#paint59_linear)"/>
<path fill-rule="evenodd" clip-rule="evenodd" d="M162.18 211.947C164.964 210.429 171.114 203.47 174.527 199.301C174.542 199.215 174.556 199.132 174.569 199.052L169.034 201.776C168.307 202.425 166.604 204.233 165.606 206.275C164.607 208.316 162.521 211.207 161.622 212.053L162.18 211.947Z" fill="url(#paint60_linear)"/>
<g filter="url(#filter10_d)">
<path d="M157.501 216.068C157.798 215.699 160.579 212.201 160.804 206.456C159.677 206.853 156.953 208.961 155.429 210.531C153.905 212.101 152.572 217.814 152.051 220.936C154.447 218.84 157.204 216.438 157.501 216.068Z" fill="url(#paint61_linear)"/>
<path fill-rule="evenodd" clip-rule="evenodd" d="M160.578 206.549C160.659 206.512 160.735 206.481 160.804 206.456C160.579 212.201 157.798 215.699 157.501 216.068C157.229 216.408 154.882 218.46 152.646 220.416C152.446 220.59 152.248 220.764 152.051 220.936C152.091 220.701 152.134 220.451 152.183 220.189C154.305 215.963 158.224 209.971 160.578 206.549Z" fill="url(#paint62_linear)"/>
</g>
<path fill-rule="evenodd" clip-rule="evenodd" d="M156.572 226.2C156.034 226.183 155.4 226.201 154.747 226.293C153.008 226.54 139.018 229.891 137.871 230.654C137.795 230.705 137.733 230.753 137.684 230.8C137.978 230.933 138.65 231.031 139.412 231.142C139.884 231.211 140.392 231.285 140.865 231.375C143.294 231.116 144.518 230.864 145.568 230.648C146.528 230.45 147.342 230.282 148.799 230.167C151.22 229.759 152.862 228.661 154.926 227.281C155.442 226.936 155.984 226.574 156.572 226.2Z" fill="url(#paint63_linear)"/>
<path fill-rule="evenodd" clip-rule="evenodd" d="M135.085 232.873C137.634 233.857 141.063 234.46 145.346 233.906C150.036 233.3 152.679 233.111 154.079 233.11C154.2 233.061 154.319 233.014 154.438 232.97C153.139 232.344 150.224 231.09 148.956 231.073C148.448 231.067 147.392 231.269 146.051 231.526C143.202 232.073 139.067 232.867 136.183 232.422L135.085 232.873Z" fill="url(#paint64_linear)"/>
<path fill-rule="evenodd" clip-rule="evenodd" d="M143.333 220.436C142.531 221.962 142.092 223.135 141.708 224.163C140.917 226.279 140.354 227.782 137.33 230.484L134.485 231.98C134.487 231.933 134.489 231.883 134.492 231.83C136.433 227.733 140.908 222.799 143.333 220.436Z" fill="url(#paint65_linear)"/>
<g filter="url(#filter11_d)">
<path d="M131.817 233.968C131.654 233.591 131.778 233.591 131.417 232.496C130.103 228.518 133.014 222.918 135.96 220.47L136.495 224.434C137.092 230.484 133.789 233.251 131.817 233.968Z" fill="url(#paint66_linear)"/>
<path fill-rule="evenodd" clip-rule="evenodd" d="M135.828 220.582C135.872 220.544 135.916 220.507 135.96 220.47L136.495 224.434C137.092 230.484 133.789 233.251 131.817 233.968C131.811 233.954 131.805 233.94 131.8 233.927C133.595 231.085 135.165 224.225 135.828 220.582Z" fill="url(#paint67_linear)"/>
</g>
<g filter="url(#filter12_d)">
<path d="M128.953 240.708C129.861 241.256 134.833 245.341 137.206 247.315C127.693 248.365 124.536 244.392 122.852 243.676C120.056 241.862 117.666 240.6 117.188 240.113L119.282 239.679C122.128 239.794 128.046 240.16 128.953 240.708Z" fill="url(#paint68_linear)"/>
<path fill-rule="evenodd" clip-rule="evenodd" d="M137.057 247.33C129.49 248.129 125.985 245.732 124.032 244.397C123.56 244.074 123.178 243.813 122.852 243.674C121.578 242.847 120.387 242.135 119.424 241.559C118.447 240.974 117.703 240.529 117.342 240.246C121.996 240.205 131.702 244.588 137.057 247.33Z" fill="url(#paint69_linear)"/>
</g>
<path fill-rule="evenodd" clip-rule="evenodd" d="M104.264 244.465C109.251 246.013 119.156 249.645 125.251 251.932C122.447 250.018 116.652 246.125 115.632 245.683C114.353 245.127 106.47 244.199 105.151 244.332C104.86 244.361 104.559 244.408 104.264 244.465Z" fill="url(#paint70_linear)"/>
<g filter="url(#filter13_d)">
<path d="M107.131 243.478C111.363 242.833 114.438 240.348 115.447 239.186L113.028 239.256C106.59 237.899 101.637 242.202 99.9648 244.522C100.59 244.443 102.899 244.122 107.131 243.478Z" fill="url(#paint71_linear)"/>
<path fill-rule="evenodd" clip-rule="evenodd" d="M115.421 239.215C113.296 240.535 109.289 241.927 102.064 242.778C101.279 243.406 100.606 243.952 100.037 244.424C100.013 244.456 99.9889 244.489 99.9658 244.521C100.591 244.441 102.9 244.121 107.132 243.476C111.327 242.837 114.386 240.389 115.421 239.215Z" fill="url(#paint72_linear)"/>
</g>
<path fill-rule="evenodd" clip-rule="evenodd" d="M101.46 244.771C105.776 245.793 112.101 250.812 115.221 253.644C109.011 252.077 107.86 250.576 106.843 249.249C106.362 248.622 105.912 248.034 104.972 247.495C102.852 246.282 101.721 245.154 101.46 244.771Z" fill="url(#paint73_linear)"/>
<path d="M162.245 212.018C159.474 215.059 150.893 223.149 140.481 229.628C133.008 234.277 130.277 236.339 115.589 241.54C112.115 242.77 103.16 245.351 95.1284 245.837" stroke="#FADA81" stroke-width="0.641307"/>
</g>
<g filter="url(#filter14_d)">
<path d="M109.617 244.359C113.825 234.302 109.083 222.738 99.026 218.53C88.9689 214.321 77.4046 219.063 73.1964 229.12C68.9882 239.177 73.7297 250.742 83.7868 254.95C93.844 259.158 105.408 254.416 109.617 244.359Z" fill="white"/>
<path fill-rule="evenodd" clip-rule="evenodd" d="M103.693 220.875C108.451 224.524 111.465 230.234 111.465 236.684C111.465 247.681 102.583 256.564 91.5855 256.564C84.8708 256.564 78.9492 253.233 75.301 248.157C78.6319 250.748 82.8617 252.281 87.4086 252.281C98.4059 252.281 107.288 243.346 107.288 232.401C107.341 228.066 105.967 224.101 103.693 220.875Z" fill="#DADADA"/>
<path fill-rule="evenodd" clip-rule="evenodd" d="M108.716 225.845C107.341 223.678 105.597 221.827 103.587 220.347C102.9 219.818 102.16 219.395 101.42 218.972C99.3577 217.809 97.0842 217.016 94.6521 216.646C93.7004 216.487 92.643 216.381 91.5856 216.381C90.8454 216.381 90.158 216.434 89.4707 216.487C88.3075 216.593 87.1972 216.804 86.1398 217.122C85.8226 217.227 85.5582 217.28 85.2939 217.386C82.6503 218.232 80.2711 219.659 78.2091 221.457C76.5172 222.937 75.0896 224.735 73.9265 226.691C72.2346 229.652 71.2829 233.036 71.2829 236.684C71.2829 240.332 72.2346 243.716 73.9265 246.677C75.0368 248.633 76.5172 250.431 78.2091 251.911C80.2711 253.709 82.6503 255.083 85.2939 255.982C85.5582 256.088 85.8754 256.141 86.1398 256.246C87.1972 256.564 88.3075 256.775 89.4707 256.881C90.158 256.934 90.8982 256.987 91.5856 256.987C92.643 256.987 93.7004 256.881 94.705 256.722C97.1371 256.352 99.4106 255.559 101.473 254.396C102.213 253.973 102.953 253.497 103.64 253.021C105.649 251.541 107.394 249.638 108.769 247.523C110.725 244.403 111.888 240.702 111.888 236.684C111.888 232.666 110.725 228.965 108.716 225.845ZM101.473 220.294C102.213 220.77 102.953 221.246 103.64 221.827C104.169 222.25 104.645 222.673 105.121 223.149C105.544 223.572 105.967 223.995 106.337 224.471C106.284 224.471 106.231 224.418 106.178 224.418C105.385 223.466 104.539 222.62 103.693 221.933C103.376 221.721 103.112 221.457 102.794 221.298C102.371 221.034 101.948 220.77 101.525 220.558C100.627 220.082 99.7278 219.712 98.7761 219.448C98.4589 219.078 98.0888 218.761 97.6658 218.496C98.9347 218.972 100.256 219.607 101.473 220.294ZM94.705 220.717C95.5509 220.188 96.9785 219.765 98.3531 219.712C99.4634 219.977 100.468 220.4 101.473 220.928C101.843 221.14 102.213 221.351 102.53 221.563C102.9 221.827 103.27 222.091 103.587 222.356C104.592 223.202 105.544 224.153 106.495 225.37C107.236 226.903 107.5 228.753 107.077 230.075C105.914 230.392 104.803 230.71 103.587 230.974C103.006 231.133 102.371 231.291 101.79 231.397C101.684 231.291 101.578 231.133 101.42 231.027C99.7807 229.335 97.6658 228.013 95.4981 227.22C95.3923 226.057 95.2337 224.894 94.9693 223.783C94.8636 223.36 94.7579 222.99 94.6521 222.567C94.4935 222.039 94.3349 221.563 94.1234 221.14C94.3349 220.981 94.4935 220.823 94.705 220.717ZM89.4707 219.871C91.1626 220.029 92.6959 220.452 93.859 221.193C94.2291 221.986 94.4935 222.885 94.705 223.836V223.889C94.9693 224.999 95.128 226.163 95.2337 227.273C95.0751 227.379 94.8636 227.431 94.705 227.537C92.8016 228.595 90.7396 230.181 89.4707 231.555C89.4178 231.608 89.365 231.714 89.2592 231.767C88.2018 231.45 87.1972 231.238 86.1398 231.027C85.9283 230.974 85.7168 230.921 85.5053 230.921L85.2939 230.868C84.0778 230.657 82.8618 230.498 81.6457 230.392C80.8526 228.595 80.5883 226.797 80.5354 224.788C81.2756 223.73 82.2273 222.779 83.2847 221.933C83.9192 221.457 84.5537 221.034 85.241 220.611C85.5053 220.452 85.8226 220.294 86.0869 220.188C86.4042 220.029 86.7214 219.924 87.0386 219.765C87.8846 219.765 88.6776 219.765 89.4707 219.871ZM91.6913 239.275C91.0569 240.385 90.2638 241.495 89.4707 242.553L89.4178 242.606C88.6248 243.663 87.7788 244.72 86.88 245.725C86.6156 245.725 86.3513 245.725 86.0869 245.725C85.7697 245.725 85.5053 245.725 85.241 245.672C83.2319 245.514 81.3285 245.038 79.5837 244.298C79.055 243.346 78.5792 242.341 78.2091 241.337C78.1033 241.072 77.9976 240.755 77.8918 240.491C77.4689 239.275 77.2045 238.006 76.993 236.684C77.3631 235.785 77.7332 234.992 78.2091 234.252C79.1608 232.666 80.3239 231.45 81.5928 230.551C82.8618 230.657 84.0778 230.815 85.2939 231.027L85.4525 231.08C85.664 231.133 85.9283 231.185 86.1398 231.185C87.1444 231.397 88.096 231.608 89.1006 231.873C89.2063 232.243 89.365 232.666 89.4707 233.036C90.158 235.204 90.8982 237.266 91.6913 239.275ZM78.0505 223.149L78.1562 223.043C80.1653 221.087 82.5445 219.554 85.241 218.655C85.5053 218.549 85.8226 218.443 86.0869 218.39C86.4042 218.285 86.7743 218.179 87.0915 218.126C86.7214 218.496 86.6685 219.025 86.6156 219.659C86.457 219.712 86.2984 219.818 86.1398 219.871C85.8226 220.029 85.5582 220.135 85.2939 220.294C84.5008 220.717 83.7606 221.193 83.1261 221.669C82.0158 222.514 81.0641 223.519 80.3239 224.576C79.5837 224.735 78.8964 224.947 78.2091 225.211C77.1516 225.634 76.3057 226.215 75.6184 226.956C75.6184 226.797 75.5655 226.638 75.5655 226.48C75.5655 226.427 75.5655 226.321 75.5655 226.268C76.2528 225.158 77.0988 224.101 78.0505 223.149ZM73.9265 229.335C74.2966 228.436 74.7724 227.537 75.2483 226.744C75.2483 226.956 75.3011 227.114 75.354 227.326L75.3011 227.431C74.7724 228.172 74.2966 229.123 73.9793 230.181C73.5564 231.555 73.292 232.983 73.3978 234.358C73.0805 234.675 72.8162 235.045 72.5518 235.521C72.6576 233.3 73.1334 231.238 73.9265 229.335ZM76.8873 248.792C76.8344 248.792 76.7815 248.739 76.7815 248.739C75.6184 247.311 74.6667 245.725 73.9793 244.033C73.0277 241.76 72.4989 239.275 72.4989 236.684C72.4989 236.525 72.4989 236.314 72.4989 236.155C72.5518 235.997 72.6576 235.838 72.7633 235.679C72.9748 235.309 73.2391 234.939 73.5035 234.622C73.6621 234.781 73.8207 234.939 73.9793 235.098C74.7724 235.785 75.6712 236.314 76.7287 236.684C76.9402 238.059 77.2574 239.38 77.6804 240.702C77.839 241.231 78.0505 241.76 78.2619 242.288C78.632 243.134 79.0021 243.927 79.478 244.72C78.8964 246.201 78.5263 247.681 78.632 249.267C78.5263 249.267 78.4206 249.267 78.3148 249.215C77.7332 249.109 77.3103 249.003 76.8873 248.792ZM85.241 254.713C82.5445 253.762 80.1653 252.281 78.1562 250.325L78.0505 250.219C77.7332 249.902 77.4689 249.638 77.2045 249.32C77.5217 249.426 77.839 249.532 78.2091 249.585C78.3677 249.585 78.4734 249.638 78.632 249.638C79.3722 251.224 82.7031 253.497 84.9238 253.92C84.9766 254.132 85.0824 254.449 85.241 254.713ZM99.7278 253.973C98.1416 254.713 96.5026 255.242 94.705 255.559C93.7004 255.718 92.643 255.824 91.5856 255.824C90.8454 255.824 90.158 255.771 89.4707 255.718C88.3075 255.612 87.1972 255.348 86.1398 255.03C86.0341 254.978 85.9283 254.978 85.8754 254.925C85.6111 254.66 85.4525 254.343 85.2939 253.973V253.92C85.6111 253.92 85.8754 253.867 86.1398 253.814C87.4087 253.603 88.4661 253.127 89.4707 252.387C89.6822 252.228 89.8937 252.07 90.1052 251.858C91.004 252.228 92.3258 252.387 93.7004 252.387C94.0177 252.387 94.3349 252.387 94.705 252.334C95.921 252.228 97.1899 252.017 98.3531 251.7C98.829 252.334 99.4106 252.916 100.098 253.286C99.9921 253.55 99.8864 253.762 99.7278 253.973ZM101.473 253.021C101.05 253.286 100.679 253.497 100.256 253.709C100.309 253.603 100.362 253.444 100.415 253.339C100.732 253.233 101.102 253.127 101.473 253.021C101.525 252.968 101.578 252.968 101.631 252.916L101.473 253.021ZM101.473 248.369C100.627 249.585 99.6749 250.642 98.7761 251.224C97.56 251.647 96.0796 251.911 94.705 252.017C94.3878 252.017 94.0177 252.07 93.7004 252.07C92.2729 252.07 91.004 251.911 90.158 251.541C89.8937 251.224 89.6822 250.906 89.4707 250.589C88.519 249.215 87.6731 247.681 87.1972 245.989C87.9903 245.038 88.7305 244.139 89.4707 243.187C89.5764 243.029 89.6822 242.923 89.7879 242.764C90.581 241.707 91.3212 240.649 91.9557 239.539C92.8545 239.592 93.8062 239.645 94.7579 239.645C96.3969 239.645 98.0359 239.592 99.6749 239.433C100.362 240.226 100.944 241.125 101.525 242.077C101.578 242.183 101.631 242.236 101.684 242.341C102.213 243.293 102.689 244.298 103.059 245.408C102.583 246.465 102.054 247.47 101.473 248.369ZM103.587 245.408C103.482 245.408 103.376 245.408 103.27 245.408C102.847 244.245 102.371 243.187 101.843 242.183C101.684 241.918 101.578 241.707 101.42 241.442C100.944 240.702 100.468 239.962 99.8864 239.328C100.574 237.847 101.05 236.42 101.42 234.939C101.684 233.882 101.843 232.824 101.896 231.661C102.477 231.503 103.006 231.397 103.535 231.238C104.698 230.921 105.861 230.657 107.024 230.339C107.553 230.71 108.134 231.397 108.663 232.296C109.139 233.142 109.562 234.199 109.826 235.309C109.932 237.054 109.773 238.64 109.35 240.174C109.139 240.861 108.927 241.548 108.61 242.236C108.346 242.87 107.976 243.452 107.606 244.033C106.39 244.932 104.909 245.355 103.587 245.408ZM107.5 247.205C107.923 246.201 108.081 245.249 107.976 244.298C108.24 243.875 108.504 243.452 108.716 243.029C109.139 242.183 109.509 241.284 109.773 240.332C110.143 238.905 110.302 237.424 110.249 235.838C110.355 235.732 110.514 235.521 110.619 235.256C110.672 235.732 110.672 236.155 110.672 236.631C110.672 239.645 109.985 242.5 108.716 245.038C108.399 245.831 107.976 246.518 107.5 247.205Z" fill="#AA754B"/>
<path fill-rule="evenodd" clip-rule="evenodd" d="M108.716 225.845C107.341 223.678 105.597 221.827 103.587 220.347C102.9 219.818 102.16 219.395 101.42 218.972C99.3577 217.809 97.0842 217.016 94.6521 216.646C93.7004 216.487 92.643 216.381 91.5856 216.381C90.8454 216.381 90.158 216.434 89.4707 216.487C88.3075 216.593 87.1972 216.804 86.1398 217.122C85.8226 217.227 85.5582 217.28 85.2939 217.386C82.6503 218.232 80.2711 219.659 78.2091 221.457C76.5172 222.937 75.0896 224.735 73.9265 226.691C72.2346 229.652 71.2829 233.036 71.2829 236.684C71.2829 240.332 72.2346 243.716 73.9265 246.677C75.0368 248.633 76.5172 250.431 78.2091 251.911C80.2711 253.709 82.6503 255.083 85.2939 255.982C85.5582 256.088 85.8754 256.141 86.1398 256.246C87.1972 256.564 88.3075 256.775 89.4707 256.881C90.158 256.934 90.8982 256.987 91.5856 256.987C92.643 256.987 93.7004 256.881 94.705 256.722C97.1371 256.352 99.4106 255.559 101.473 254.396C102.213 253.973 102.953 253.497 103.64 253.021C105.649 251.541 107.394 249.638 108.769 247.523C110.725 244.403 111.888 240.702 111.888 236.684C111.888 232.666 110.725 228.965 108.716 225.845ZM101.473 220.294C102.213 220.77 102.953 221.246 103.64 221.827C104.169 222.25 104.645 222.673 105.121 223.149C105.544 223.572 105.967 223.995 106.337 224.471C106.284 224.471 106.231 224.418 106.178 224.418C105.385 223.466 104.539 222.62 103.693 221.933C103.376 221.721 103.112 221.457 102.794 221.298C102.371 221.034 101.948 220.77 101.525 220.558C100.627 220.082 99.7278 219.712 98.7761 219.448C98.4589 219.078 98.0888 218.761 97.6658 218.496C98.9347 218.972 100.256 219.607 101.473 220.294ZM94.705 220.717C95.5509 220.188 96.9785 219.765 98.3531 219.712C99.4634 219.977 100.468 220.4 101.473 220.928C101.843 221.14 102.213 221.351 102.53 221.563C102.9 221.827 103.27 222.091 103.587 222.356C104.592 223.202 105.544 224.153 106.495 225.37C107.236 226.903 107.5 228.753 107.077 230.075C105.914 230.392 104.803 230.71 103.587 230.974C103.006 231.133 102.371 231.291 101.79 231.397C101.684 231.291 101.578 231.133 101.42 231.027C99.7807 229.335 97.6658 228.013 95.4981 227.22C95.3923 226.057 95.2337 224.894 94.9693 223.783C94.8636 223.36 94.7579 222.99 94.6521 222.567C94.4935 222.039 94.3349 221.563 94.1234 221.14C94.3349 220.981 94.4935 220.823 94.705 220.717ZM89.4707 219.871C91.1626 220.029 92.6959 220.452 93.859 221.193C94.2291 221.986 94.4935 222.885 94.705 223.836V223.889C94.9693 224.999 95.128 226.163 95.2337 227.273C95.0751 227.379 94.8636 227.431 94.705 227.537C92.8016 228.595 90.7396 230.181 89.4707 231.555C89.4178 231.608 89.365 231.714 89.2592 231.767C88.2018 231.45 87.1972 231.238 86.1398 231.027C85.9283 230.974 85.7168 230.921 85.5053 230.921L85.2939 230.868C84.0778 230.657 82.8618 230.498 81.6457 230.392C80.8526 228.595 80.5883 226.797 80.5354 224.788C81.2756 223.73 82.2273 222.779 83.2847 221.933C83.9192 221.457 84.5537 221.034 85.241 220.611C85.5053 220.452 85.8226 220.294 86.0869 220.188C86.4042 220.029 86.7214 219.924 87.0386 219.765C87.8846 219.765 88.6776 219.765 89.4707 219.871ZM91.6913 239.275C91.0569 240.385 90.2638 241.495 89.4707 242.553L89.4178 242.606C88.6248 243.663 87.7788 244.72 86.88 245.725C86.6156 245.725 86.3513 245.725 86.0869 245.725C85.7697 245.725 85.5053 245.725 85.241 245.672C83.2319 245.514 81.3285 245.038 79.5837 244.298C79.055 243.346 78.5792 242.341 78.2091 241.337C78.1033 241.072 77.9976 240.755 77.8918 240.491C77.4689 239.275 77.2045 238.006 76.993 236.684C77.3631 235.785 77.7332 234.992 78.2091 234.252C79.1608 232.666 80.3239 231.45 81.5928 230.551C82.8618 230.657 84.0778 230.815 85.2939 231.027L85.4525 231.08C85.664 231.133 85.9283 231.185 86.1398 231.185C87.1444 231.397 88.096 231.608 89.1006 231.873C89.2063 232.243 89.365 232.666 89.4707 233.036C90.158 235.204 90.8982 237.266 91.6913 239.275ZM78.0505 223.149L78.1562 223.043C80.1653 221.087 82.5445 219.554 85.241 218.655C85.5053 218.549 85.8226 218.443 86.0869 218.39C86.4042 218.285 86.7743 218.179 87.0915 218.126C86.7214 218.496 86.6685 219.025 86.6156 219.659C86.457 219.712 86.2984 219.818 86.1398 219.871C85.8226 220.029 85.5582 220.135 85.2939 220.294C84.5008 220.717 83.7606 221.193 83.1261 221.669C82.0158 222.514 81.0641 223.519 80.3239 224.576C79.5837 224.735 78.8964 224.947 78.2091 225.211C77.1516 225.634 76.3057 226.215 75.6184 226.956C75.6184 226.797 75.5655 226.638 75.5655 226.48C75.5655 226.427 75.5655 226.321 75.5655 226.268C76.2528 225.158 77.0988 224.101 78.0505 223.149ZM73.9265 229.335C74.2966 228.436 74.7724 227.537 75.2483 226.744C75.2483 226.956 75.3011 227.114 75.354 227.326L75.3011 227.431C74.7724 228.172 74.2966 229.123 73.9793 230.181C73.5564 231.555 73.292 232.983 73.3978 234.358C73.0805 234.675 72.8162 235.045 72.5518 235.521C72.6576 233.3 73.1334 231.238 73.9265 229.335ZM76.8873 248.792C76.8344 248.792 76.7815 248.739 76.7815 248.739C75.6184 247.311 74.6667 245.725 73.9793 244.033C73.0277 241.76 72.4989 239.275 72.4989 236.684C72.4989 236.525 72.4989 236.314 72.4989 236.155C72.5518 235.997 72.6576 235.838 72.7633 235.679C72.9748 235.309 73.2391 234.939 73.5035 234.622C73.6621 234.781 73.8207 234.939 73.9793 235.098C74.7724 235.785 75.6712 236.314 76.7287 236.684C76.9402 238.059 77.2574 239.38 77.6804 240.702C77.839 241.231 78.0505 241.76 78.2619 242.288C78.632 243.134 79.0021 243.927 79.478 244.72C78.8964 246.201 78.5263 247.681 78.632 249.267C78.5263 249.267 78.4206 249.267 78.3148 249.215C77.7332 249.109 77.3103 249.003 76.8873 248.792ZM85.241 254.713C82.5445 253.762 80.1653 252.281 78.1562 250.325L78.0505 250.219C77.7332 249.902 77.4689 249.638 77.2045 249.32C77.5217 249.426 77.839 249.532 78.2091 249.585C78.3677 249.585 78.4734 249.638 78.632 249.638C79.3722 251.224 82.7031 253.497 84.9238 253.92C84.9766 254.132 85.0824 254.449 85.241 254.713ZM99.7278 253.973C98.1416 254.713 96.5026 255.242 94.705 255.559C93.7004 255.718 92.643 255.824 91.5856 255.824C90.8454 255.824 90.158 255.771 89.4707 255.718C88.3075 255.612 87.1972 255.348 86.1398 255.03C86.0341 254.978 85.9283 254.978 85.8754 254.925C85.6111 254.66 85.4525 254.343 85.2939 253.973V253.92C85.6111 253.92 85.8754 253.867 86.1398 253.814C87.4087 253.603 88.4661 253.127 89.4707 252.387C89.6822 252.228 89.8937 252.07 90.1052 251.858C91.004 252.228 92.3258 252.387 93.7004 252.387C94.0177 252.387 94.3349 252.387 94.705 252.334C95.921 252.228 97.1899 252.017 98.3531 251.7C98.829 252.334 99.4106 252.916 100.098 253.286C99.9921 253.55 99.8864 253.762 99.7278 253.973ZM101.473 253.021C101.05 253.286 100.679 253.497 100.256 253.709C100.309 253.603 100.362 253.444 100.415 253.339C100.732 253.233 101.102 253.127 101.473 253.021C101.525 252.968 101.578 252.968 101.631 252.916L101.473 253.021ZM101.473 248.369C100.627 249.585 99.6749 250.642 98.7761 251.224C97.56 251.647 96.0796 251.911 94.705 252.017C94.3878 252.017 94.0177 252.07 93.7004 252.07C92.2729 252.07 91.004 251.911 90.158 251.541C89.8937 251.224 89.6822 250.906 89.4707 250.589C88.519 249.215 87.6731 247.681 87.1972 245.989C87.9903 245.038 88.7305 244.139 89.4707 243.187C89.5764 243.029 89.6822 242.923 89.7879 242.764C90.581 241.707 91.3212 240.649 91.9557 239.539C92.8545 239.592 93.8062 239.645 94.7579 239.645C96.3969 239.645 98.0359 239.592 99.6749 239.433C100.362 240.226 100.944 241.125 101.525 242.077C101.578 242.183 101.631 242.236 101.684 242.341C102.213 243.293 102.689 244.298 103.059 245.408C102.583 246.465 102.054 247.47 101.473 248.369ZM103.587 245.408C103.482 245.408 103.376 245.408 103.27 245.408C102.847 244.245 102.371 243.187 101.843 242.183C101.684 241.918 101.578 241.707 101.42 241.442C100.944 240.702 100.468 239.962 99.8864 239.328C100.574 237.847 101.05 236.42 101.42 234.939C101.684 233.882 101.843 232.824 101.896 231.661C102.477 231.503 103.006 231.397 103.535 231.238C104.698 230.921 105.861 230.657 107.024 230.339C107.553 230.71 108.134 231.397 108.663 232.296C109.139 233.142 109.562 234.199 109.826 235.309C109.932 237.054 109.773 238.64 109.35 240.174C109.139 240.861 108.927 241.548 108.61 242.236C108.346 242.87 107.976 243.452 107.606 244.033C106.39 244.932 104.909 245.355 103.587 245.408ZM107.5 247.205C107.923 246.201 108.081 245.249 107.976 244.298C108.24 243.875 108.504 243.452 108.716 243.029C109.139 242.183 109.509 241.284 109.773 240.332C110.143 238.905 110.302 237.424 110.249 235.838C110.355 235.732 110.514 235.521 110.619 235.256C110.672 235.732 110.672 236.155 110.672 236.631C110.672 239.645 109.985 242.5 108.716 245.038C108.399 245.831 107.976 246.518 107.5 247.205Z" fill="url(#paint74_linear)"/>
<path fill-rule="evenodd" clip-rule="evenodd" d="M108.716 225.845C107.341 223.678 105.597 221.827 103.587 220.347C102.9 219.818 102.16 219.395 101.42 218.972C99.3577 217.809 97.0842 217.016 94.6521 216.646C93.7004 216.487 92.643 216.381 91.5856 216.381C90.8454 216.381 90.158 216.434 89.4707 216.487C88.3075 216.593 87.1972 216.804 86.1398 217.122C85.8226 217.227 85.5582 217.28 85.2939 217.386C82.6503 218.232 80.2711 219.659 78.2091 221.457C76.5172 222.937 75.0896 224.735 73.9265 226.691C72.2346 229.652 71.2829 233.036 71.2829 236.684C71.2829 240.332 72.2346 243.716 73.9265 246.677C75.0368 248.633 76.5172 250.431 78.2091 251.911C80.2711 253.709 82.6503 255.083 85.2939 255.982C85.5582 256.088 85.8754 256.141 86.1398 256.246C87.1972 256.564 88.3075 256.775 89.4707 256.881C90.158 256.934 90.8982 256.987 91.5856 256.987C92.643 256.987 93.7004 256.881 94.705 256.722C97.1371 256.352 99.4106 255.559 101.473 254.396C102.213 253.973 102.953 253.497 103.64 253.021C105.649 251.541 107.394 249.638 108.769 247.523C110.725 244.403 111.888 240.702 111.888 236.684C111.888 232.666 110.725 228.965 108.716 225.845ZM101.473 220.294C102.213 220.77 102.953 221.246 103.64 221.827C104.169 222.25 104.645 222.673 105.121 223.149C105.544 223.572 105.967 223.995 106.337 224.471C106.284 224.471 106.231 224.418 106.178 224.418C105.385 223.466 104.539 222.62 103.693 221.933C103.376 221.721 103.112 221.457 102.794 221.298C102.371 221.034 101.948 220.77 101.525 220.558C100.627 220.082 99.7278 219.712 98.7761 219.448C98.4589 219.078 98.0888 218.761 97.6658 218.496C98.9347 218.972 100.256 219.607 101.473 220.294ZM94.705 220.717C95.5509 220.188 96.9785 219.765 98.3531 219.712C99.4634 219.977 100.468 220.4 101.473 220.928C101.843 221.14 102.213 221.351 102.53 221.563C102.9 221.827 103.27 222.091 103.587 222.356C104.592 223.202 105.544 224.153 106.495 225.37C107.236 226.903 107.5 228.753 107.077 230.075C105.914 230.392 104.803 230.71 103.587 230.974C103.006 231.133 102.371 231.291 101.79 231.397C101.684 231.291 101.578 231.133 101.42 231.027C99.7807 229.335 97.6658 228.013 95.4981 227.22C95.3923 226.057 95.2337 224.894 94.9693 223.783C94.8636 223.36 94.7579 222.99 94.6521 222.567C94.4935 222.039 94.3349 221.563 94.1234 221.14C94.3349 220.981 94.4935 220.823 94.705 220.717ZM89.4707 219.871C91.1626 220.029 92.6959 220.452 93.859 221.193C94.2291 221.986 94.4935 222.885 94.705 223.836V223.889C94.9693 224.999 95.128 226.163 95.2337 227.273C95.0751 227.379 94.8636 227.431 94.705 227.537C92.8016 228.595 90.7396 230.181 89.4707 231.555C89.4178 231.608 89.365 231.714 89.2592 231.767C88.2018 231.45 87.1972 231.238 86.1398 231.027C85.9283 230.974 85.7168 230.921 85.5053 230.921L85.2939 230.868C84.0778 230.657 82.8618 230.498 81.6457 230.392C80.8526 228.595 80.5883 226.797 80.5354 224.788C81.2756 223.73 82.2273 222.779 83.2847 221.933C83.9192 221.457 84.5537 221.034 85.241 220.611C85.5053 220.452 85.8226 220.294 86.0869 220.188C86.4042 220.029 86.7214 219.924 87.0386 219.765C87.8846 219.765 88.6776 219.765 89.4707 219.871ZM91.6913 239.275C91.0569 240.385 90.2638 241.495 89.4707 242.553L89.4178 242.606C88.6248 243.663 87.7788 244.72 86.88 245.725C86.6156 245.725 86.3513 245.725 86.0869 245.725C85.7697 245.725 85.5053 245.725 85.241 245.672C83.2319 245.514 81.3285 245.038 79.5837 244.298C79.055 243.346 78.5792 242.341 78.2091 241.337C78.1033 241.072 77.9976 240.755 77.8918 240.491C77.4689 239.275 77.2045 238.006 76.993 236.684C77.3631 235.785 77.7332 234.992 78.2091 234.252C79.1608 232.666 80.3239 231.45 81.5928 230.551C82.8618 230.657 84.0778 230.815 85.2939 231.027L85.4525 231.08C85.664 231.133 85.9283 231.185 86.1398 231.185C87.1444 231.397 88.096 231.608 89.1006 231.873C89.2063 232.243 89.365 232.666 89.4707 233.036C90.158 235.204 90.8982 237.266 91.6913 239.275ZM78.0505 223.149L78.1562 223.043C80.1653 221.087 82.5445 219.554 85.241 218.655C85.5053 218.549 85.8226 218.443 86.0869 218.39C86.4042 218.285 86.7743 218.179 87.0915 218.126C86.7214 218.496 86.6685 219.025 86.6156 219.659C86.457 219.712 86.2984 219.818 86.1398 219.871C85.8226 220.029 85.5582 220.135 85.2939 220.294C84.5008 220.717 83.7606 221.193 83.1261 221.669C82.0158 222.514 81.0641 223.519 80.3239 224.576C79.5837 224.735 78.8964 224.947 78.2091 225.211C77.1516 225.634 76.3057 226.215 75.6184 226.956C75.6184 226.797 75.5655 226.638 75.5655 226.48C75.5655 226.427 75.5655 226.321 75.5655 226.268C76.2528 225.158 77.0988 224.101 78.0505 223.149ZM73.9265 229.335C74.2966 228.436 74.7724 227.537 75.2483 226.744C75.2483 226.956 75.3011 227.114 75.354 227.326L75.3011 227.431C74.7724 228.172 74.2966 229.123 73.9793 230.181C73.5564 231.555 73.292 232.983 73.3978 234.358C73.0805 234.675 72.8162 235.045 72.5518 235.521C72.6576 233.3 73.1334 231.238 73.9265 229.335ZM76.8873 248.792C76.8344 248.792 76.7815 248.739 76.7815 248.739C75.6184 247.311 74.6667 245.725 73.9793 244.033C73.0277 241.76 72.4989 239.275 72.4989 236.684C72.4989 236.525 72.4989 236.314 72.4989 236.155C72.5518 235.997 72.6576 235.838 72.7633 235.679C72.9748 235.309 73.2391 234.939 73.5035 234.622C73.6621 234.781 73.8207 234.939 73.9793 235.098C74.7724 235.785 75.6712 236.314 76.7287 236.684C76.9402 238.059 77.2574 239.38 77.6804 240.702C77.839 241.231 78.0505 241.76 78.2619 242.288C78.632 243.134 79.0021 243.927 79.478 244.72C78.8964 246.201 78.5263 247.681 78.632 249.267C78.5263 249.267 78.4206 249.267 78.3148 249.215C77.7332 249.109 77.3103 249.003 76.8873 248.792ZM85.241 254.713C82.5445 253.762 80.1653 252.281 78.1562 250.325L78.0505 250.219C77.7332 249.902 77.4689 249.638 77.2045 249.32C77.5217 249.426 77.839 249.532 78.2091 249.585C78.3677 249.585 78.4734 249.638 78.632 249.638C79.3722 251.224 82.7031 253.497 84.9238 253.92C84.9766 254.132 85.0824 254.449 85.241 254.713ZM99.7278 253.973C98.1416 254.713 96.5026 255.242 94.705 255.559C93.7004 255.718 92.643 255.824 91.5856 255.824C90.8454 255.824 90.158 255.771 89.4707 255.718C88.3075 255.612 87.1972 255.348 86.1398 255.03C86.0341 254.978 85.9283 254.978 85.8754 254.925C85.6111 254.66 85.4525 254.343 85.2939 253.973V253.92C85.6111 253.92 85.8754 253.867 86.1398 253.814C87.4087 253.603 88.4661 253.127 89.4707 252.387C89.6822 252.228 89.8937 252.07 90.1052 251.858C91.004 252.228 92.3258 252.387 93.7004 252.387C94.0177 252.387 94.3349 252.387 94.705 252.334C95.921 252.228 97.1899 252.017 98.3531 251.7C98.829 252.334 99.4106 252.916 100.098 253.286C99.9921 253.55 99.8864 253.762 99.7278 253.973ZM101.473 253.021C101.05 253.286 100.679 253.497 100.256 253.709C100.309 253.603 100.362 253.444 100.415 253.339C100.732 253.233 101.102 253.127 101.473 253.021C101.525 252.968 101.578 252.968 101.631 252.916L101.473 253.021ZM101.473 248.369C100.627 249.585 99.6749 250.642 98.7761 251.224C97.56 251.647 96.0796 251.911 94.705 252.017C94.3878 252.017 94.0177 252.07 93.7004 252.07C92.2729 252.07 91.004 251.911 90.158 251.541C89.8937 251.224 89.6822 250.906 89.4707 250.589C88.519 249.215 87.6731 247.681 87.1972 245.989C87.9903 245.038 88.7305 244.139 89.4707 243.187C89.5764 243.029 89.6822 242.923 89.7879 242.764C90.581 241.707 91.3212 240.649 91.9557 239.539C92.8545 239.592 93.8062 239.645 94.7579 239.645C96.3969 239.645 98.0359 239.592 99.6749 239.433C100.362 240.226 100.944 241.125 101.525 242.077C101.578 242.183 101.631 242.236 101.684 242.341C102.213 243.293 102.689 244.298 103.059 245.408C102.583 246.465 102.054 247.47 101.473 248.369ZM103.587 245.408C103.482 245.408 103.376 245.408 103.27 245.408C102.847 244.245 102.371 243.187 101.843 242.183C101.684 241.918 101.578 241.707 101.42 241.442C100.944 240.702 100.468 239.962 99.8864 239.328C100.574 237.847 101.05 236.42 101.42 234.939C101.684 233.882 101.843 232.824 101.896 231.661C102.477 231.503 103.006 231.397 103.535 231.238C104.698 230.921 105.861 230.657 107.024 230.339C107.553 230.71 108.134 231.397 108.663 232.296C109.139 233.142 109.562 234.199 109.826 235.309C109.932 237.054 109.773 238.64 109.35 240.174C109.139 240.861 108.927 241.548 108.61 242.236C108.346 242.87 107.976 243.452 107.606 244.033C106.39 244.932 104.909 245.355 103.587 245.408ZM107.5 247.205C107.923 246.201 108.081 245.249 107.976 244.298C108.24 243.875 108.504 243.452 108.716 243.029C109.139 242.183 109.509 241.284 109.773 240.332C110.143 238.905 110.302 237.424 110.249 235.838C110.355 235.732 110.514 235.521 110.619 235.256C110.672 235.732 110.672 236.155 110.672 236.631C110.672 239.645 109.985 242.5 108.716 245.038C108.399 245.831 107.976 246.518 107.5 247.205Z" fill="url(#paint75_linear)"/>
</g>
<path d="M157.37 146.457H27.0107" stroke="#9A6A31" stroke-width="1.13884"/>
<defs>
<filter id="filter0_d" x="0.832672" y="0.883176" width="181.425" height="259.42" filterUnits="userSpaceOnUse" color-interpolation-filters="sRGB">
<feFlood flood-opacity="0" result="BackgroundImageFix"/>
<feColorMatrix in="SourceAlpha" type="matrix" values="0 0 0 0 0 0 0 0 0 0 0 0 0 0 0 0 0 0 127 0" result="hardAlpha"/>
<feOffset dy="2.00436"/>
<feGaussianBlur stdDeviation="3.59874"/>
<feColorMatrix type="matrix" values="0 0 0 0 0 0 0 0 0 0 0 0 0 0 0 0 0 0 0.3 0"/>
<feBlend mode="normal" in2="BackgroundImageFix" result="effect1_dropShadow"/>
<feBlend mode="normal" in="SourceGraphic" in2="effect1_dropShadow" result="shape"/>
</filter>
<filter id="filter1_f" x="20.2812" y="14.555" width="142.528" height="220.703" filterUnits="userSpaceOnUse" color-interpolation-filters="sRGB">
<feFlood flood-opacity="0" result="BackgroundImageFix"/>
<feBlend mode="normal" in="SourceGraphic" in2="BackgroundImageFix" result="shape"/>
<feGaussianBlur stdDeviation="0.122995" result="effect1_foregroundBlur"/>
</filter>
<filter id="filter2_i" x="27.072" y="22.5405" width="130.284" height="204.72" filterUnits="userSpaceOnUse" color-interpolation-filters="sRGB">
<feFlood flood-opacity="0" result="BackgroundImageFix"/>
<feBlend mode="normal" in="SourceGraphic" in2="BackgroundImageFix" result="shape"/>
<feColorMatrix in="SourceAlpha" type="matrix" values="0 0 0 0 0 0 0 0 0 0 0 0 0 0 0 0 0 0 127 0" result="hardAlpha"/>
<feOffset/>
<feGaussianBlur stdDeviation="5.51356"/>
<feComposite in2="hardAlpha" operator="arithmetic" k2="-1" k3="1"/>
<feColorMatrix type="matrix" values="0 0 0 0 0.458333 0 0 0 0 0.256743 0 0 0 0 0.0706597 0 0 0 1 0"/>
<feBlend mode="normal" in2="shape" result="effect1_innerShadow"/>
</filter>
<filter id="filter3_i" x="27.0719" y="5.7312" width="130.283" height="222.131" filterUnits="userSpaceOnUse" color-interpolation-filters="sRGB">
<feFlood flood-opacity="0" result="BackgroundImageFix"/>
<feBlend mode="normal" in="SourceGraphic" in2="BackgroundImageFix" result="shape"/>
<feColorMatrix in="SourceAlpha" type="matrix" values="0 0 0 0 0 0 0 0 0 0 0 0 0 0 0 0 0 0 127 0" result="hardAlpha"/>
<feOffset/>
<feGaussianBlur stdDeviation="5.51356"/>
<feComposite in2="hardAlpha" operator="arithmetic" k2="-1" k3="1"/>
<feColorMatrix type="matrix" values="0 0 0 0 0.458333 0 0 0 0 0.256743 0 0 0 0 0.0706597 0 0 0 1 0"/>
<feBlend mode="normal" in2="shape" result="effect1_innerShadow"/>
</filter>
<filter id="filter4_d" x="5.57252" y="199.052" width="85.6621" height="60.692" filterUnits="userSpaceOnUse" color-interpolation-filters="sRGB">
<feFlood flood-opacity="0" result="BackgroundImageFix"/>
<feColorMatrix in="SourceAlpha" type="matrix" values="0 0 0 0 0 0 0 0 0 0 0 0 0 0 0 0 0 0 127 0" result="hardAlpha"/>
<feOffset dy="3.03691"/>
<feGaussianBlur stdDeviation="1.51846"/>
<feColorMatrix type="matrix" values="0 0 0 0 0 0 0 0 0 0 0 0 0 0 0 0 0 0 0.25 0"/>
<feBlend mode="normal" in2="BackgroundImageFix" result="effect1_dropShadow"/>
<feBlend mode="normal" in="SourceGraphic" in2="effect1_dropShadow" result="shape"/>
</filter>
<filter id="filter5_d" x="21.5282" y="206.456" width="10.4466" height="17.0206" filterUnits="userSpaceOnUse" color-interpolation-filters="sRGB">
<feFlood flood-opacity="0" result="BackgroundImageFix"/>
<feColorMatrix in="SourceAlpha" type="matrix" values="0 0 0 0 0 0 0 0 0 0 0 0 0 0 0 0 0 0 127 0" result="hardAlpha"/>
<feOffset dy="1.69402"/>
<feGaussianBlur stdDeviation="0.423506"/>
<feColorMatrix type="matrix" values="0 0 0 0 0.541667 0 0 0 0 0.336104 0 0 0 0 0.0947917 0 0 0 0.25 0"/>
<feBlend mode="normal" in2="BackgroundImageFix" result="effect1_dropShadow"/>
<feBlend mode="normal" in="SourceGraphic" in2="effect1_dropShadow" result="shape"/>
</filter>
<filter id="filter6_d" x="45.7657" y="220.47" width="7.16766" height="16.0388" filterUnits="userSpaceOnUse" color-interpolation-filters="sRGB">
<feFlood flood-opacity="0" result="BackgroundImageFix"/>
<feColorMatrix in="SourceAlpha" type="matrix" values="0 0 0 0 0 0 0 0 0 0 0 0 0 0 0 0 0 0 127 0" result="hardAlpha"/>
<feOffset dy="1.69402"/>
<feGaussianBlur stdDeviation="0.423506"/>
<feColorMatrix type="matrix" values="0 0 0 0 0.541667 0 0 0 0 0.336104 0 0 0 0 0.0947917 0 0 0 0.25 0"/>
<feBlend mode="normal" in2="BackgroundImageFix" result="effect1_dropShadow"/>
<feBlend mode="normal" in="SourceGraphic" in2="effect1_dropShadow" result="shape"/>
</filter>
<filter id="filter7_d" x="45.9731" y="239.679" width="22.5593" height="10.3526" filterUnits="userSpaceOnUse" color-interpolation-filters="sRGB">
<feFlood flood-opacity="0" result="BackgroundImageFix"/>
<feColorMatrix in="SourceAlpha" type="matrix" values="0 0 0 0 0 0 0 0 0 0 0 0 0 0 0 0 0 0 127 0" result="hardAlpha"/>
<feOffset dx="1.69402" dy="1.69402"/>
<feGaussianBlur stdDeviation="0.423506"/>
<feColorMatrix type="matrix" values="0 0 0 0 0.541667 0 0 0 0 0.336104 0 0 0 0 0.0947917 0 0 0 0.25 0"/>
<feBlend mode="normal" in2="BackgroundImageFix" result="effect1_dropShadow"/>
<feBlend mode="normal" in="SourceGraphic" in2="effect1_dropShadow" result="shape"/>
</filter>
<filter id="filter8_d" x="66.8854" y="238.997" width="17.1758" height="8.06606" filterUnits="userSpaceOnUse" color-interpolation-filters="sRGB">
<feFlood flood-opacity="0" result="BackgroundImageFix"/>
<feColorMatrix in="SourceAlpha" type="matrix" values="0 0 0 0 0 0 0 0 0 0 0 0 0 0 0 0 0 0 127 0" result="hardAlpha"/>
<feOffset dy="1.69402"/>
<feGaussianBlur stdDeviation="0.423506"/>
<feColorMatrix type="matrix" values="0 0 0 0 0.541667 0 0 0 0 0.336104 0 0 0 0 0.0947917 0 0 0 0.25 0"/>
<feBlend mode="normal" in2="BackgroundImageFix" result="effect1_dropShadow"/>
<feBlend mode="normal" in="SourceGraphic" in2="effect1_dropShadow" result="shape"/>
</filter>
<filter id="filter9_d" x="91.9442" y="199.052" width="85.6621" height="60.692" filterUnits="userSpaceOnUse" color-interpolation-filters="sRGB">
<feFlood flood-opacity="0" result="BackgroundImageFix"/>
<feColorMatrix in="SourceAlpha" type="matrix" values="0 0 0 0 0 0 0 0 0 0 0 0 0 0 0 0 0 0 127 0" result="hardAlpha"/>
<feOffset dy="3.03691"/>
<feGaussianBlur stdDeviation="1.51846"/>
<feColorMatrix type="matrix" values="0 0 0 0 0 0 0 0 0 0 0 0 0 0 0 0 0 0 0.25 0"/>
<feBlend mode="normal" in2="BackgroundImageFix" result="effect1_dropShadow"/>
<feBlend mode="normal" in="SourceGraphic" in2="effect1_dropShadow" result="shape"/>
</filter>
<filter id="filter10_d" x="151.204" y="206.456" width="10.4466" height="17.0206" filterUnits="userSpaceOnUse" color-interpolation-filters="sRGB">
<feFlood flood-opacity="0" result="BackgroundImageFix"/>
<feColorMatrix in="SourceAlpha" type="matrix" values="0 0 0 0 0 0 0 0 0 0 0 0 0 0 0 0 0 0 127 0" result="hardAlpha"/>
<feOffset dy="1.69402"/>
<feGaussianBlur stdDeviation="0.423506"/>
<feColorMatrix type="matrix" values="0 0 0 0 0.541667 0 0 0 0 0.336104 0 0 0 0 0.0947917 0 0 0 0.25 0"/>
<feBlend mode="normal" in2="BackgroundImageFix" result="effect1_dropShadow"/>
<feBlend mode="normal" in="SourceGraphic" in2="effect1_dropShadow" result="shape"/>
</filter>
<filter id="filter11_d" x="130.246" y="220.47" width="7.16766" height="16.0388" filterUnits="userSpaceOnUse" color-interpolation-filters="sRGB">
<feFlood flood-opacity="0" result="BackgroundImageFix"/>
<feColorMatrix in="SourceAlpha" type="matrix" values="0 0 0 0 0 0 0 0 0 0 0 0 0 0 0 0 0 0 127 0" result="hardAlpha"/>
<feOffset dy="1.69402"/>
<feGaussianBlur stdDeviation="0.423506"/>
<feColorMatrix type="matrix" values="0 0 0 0 0.541667 0 0 0 0 0.336104 0 0 0 0 0.0947917 0 0 0 0.25 0"/>
<feBlend mode="normal" in2="BackgroundImageFix" result="effect1_dropShadow"/>
<feBlend mode="normal" in="SourceGraphic" in2="effect1_dropShadow" result="shape"/>
</filter>
<filter id="filter12_d" x="117.188" y="239.679" width="22.5593" height="10.3526" filterUnits="userSpaceOnUse" color-interpolation-filters="sRGB">
<feFlood flood-opacity="0" result="BackgroundImageFix"/>
<feColorMatrix in="SourceAlpha" type="matrix" values="0 0 0 0 0 0 0 0 0 0 0 0 0 0 0 0 0 0 127 0" result="hardAlpha"/>
<feOffset dx="1.69402" dy="1.69402"/>
<feGaussianBlur stdDeviation="0.423506"/>
<feColorMatrix type="matrix" values="0 0 0 0 0.541667 0 0 0 0 0.336104 0 0 0 0 0.0947917 0 0 0 0.25 0"/>
<feBlend mode="normal" in2="BackgroundImageFix" result="effect1_dropShadow"/>
<feBlend mode="normal" in="SourceGraphic" in2="effect1_dropShadow" result="shape"/>
</filter>
<filter id="filter13_d" x="99.1178" y="238.997" width="17.1758" height="8.06606" filterUnits="userSpaceOnUse" color-interpolation-filters="sRGB">
<feFlood flood-opacity="0" result="BackgroundImageFix"/>
<feColorMatrix in="SourceAlpha" type="matrix" values="0 0 0 0 0 0 0 0 0 0 0 0 0 0 0 0 0 0 127 0" result="hardAlpha"/>
<feOffset dy="1.69402"/>
<feGaussianBlur stdDeviation="0.423506"/>
<feColorMatrix type="matrix" values="0 0 0 0 0.541667 0 0 0 0 0.336104 0 0 0 0 0.0947917 0 0 0 0.25 0"/>
<feBlend mode="normal" in2="BackgroundImageFix" result="effect1_dropShadow"/>
<feBlend mode="normal" in="SourceGraphic" in2="effect1_dropShadow" result="shape"/>
</filter>
<filter id="filter14_d" x="63.6906" y="214.104" width="55.7899" height="55.7899" filterUnits="userSpaceOnUse" color-interpolation-filters="sRGB">
<feFlood flood-opacity="0" result="BackgroundImageFix"/>
<feColorMatrix in="SourceAlpha" type="matrix" values="0 0 0 0 0 0 0 0 0 0 0 0 0 0 0 0 0 0 127 0" result="hardAlpha"/>
<feOffset dy="5.31459"/>
<feGaussianBlur stdDeviation="3.79614"/>
<feColorMatrix type="matrix" values="0 0 0 0 0 0 0 0 0 0 0 0 0 0 0 0 0 0 0.25 0"/>
<feBlend mode="normal" in2="BackgroundImageFix" result="effect1_dropShadow"/>
<feBlend mode="normal" in="SourceGraphic" in2="effect1_dropShadow" result="shape"/>
</filter>
<linearGradient id="paint0_linear" x1="22.4554" y1="236.197" x2="59.7533" y2="244.624" gradientUnits="userSpaceOnUse">
<stop stop-color="#8D664F"/>
<stop offset="0.208702" stop-color="#C49F7D"/>
<stop offset="0.648432" stop-color="#FFF1DC"/>
<stop offset="0.827985" stop-color="#B38368"/>
<stop offset="0.971703" stop-color="#8C5F4C"/>
</linearGradient>
<linearGradient id="paint1_linear" x1="27.0403" y1="234.953" x2="40.5319" y2="230.931" gradientUnits="userSpaceOnUse">
<stop stop-color="#C7A383"/>
<stop offset="0.309893" stop-color="#D5B198"/>
<stop offset="0.523799" stop-color="#CBA68C"/>
<stop offset="0.77229" stop-color="#BB9478"/>
<stop offset="1" stop-color="#D7B49B"/>
</linearGradient>
<linearGradient id="paint2_linear" x1="159.659" y1="236.197" x2="122.361" y2="244.624" gradientUnits="userSpaceOnUse">
<stop stop-color="#8D664F"/>
<stop offset="0.208702" stop-color="#C49F7D"/>
<stop offset="0.648432" stop-color="#FFF1DC"/>
<stop offset="0.827985" stop-color="#B38368"/>
<stop offset="0.971703" stop-color="#8C5F4C"/>
</linearGradient>
<linearGradient id="paint3_linear" x1="155.074" y1="234.953" x2="141.583" y2="230.931" gradientUnits="userSpaceOnUse">
<stop stop-color="#C7A383"/>
<stop offset="0.309893" stop-color="#D5B198"/>
<stop offset="0.523799" stop-color="#CBA68C"/>
<stop offset="0.77229" stop-color="#BB9478"/>
<stop offset="1" stop-color="#D7B49B"/>
</linearGradient>
<linearGradient id="paint4_linear" x1="92.8755" y1="221.825" x2="92.8755" y2="288.134" gradientUnits="userSpaceOnUse">
<stop stop-color="#B58D70"/>
<stop offset="0.2286" stop-color="#B58D70"/>
<stop offset="0.47675" stop-color="#D8B59B"/>
<stop offset="0.88344" stop-color="#B58D70"/>
<stop offset="1" stop-color="#B58D70"/>
</linearGradient>
<linearGradient id="paint5_linear" x1="54.0775" y1="250.394" x2="129.115" y2="275.937" gradientUnits="userSpaceOnUse">
<stop stop-color="#8D664F"/>
<stop offset="0.208702" stop-color="#FFF5E6"/>
<stop offset="0.648432" stop-color="#ECD8BA"/>
<stop offset="0.780206" stop-color="#D0A568"/>
<stop offset="0.971703" stop-color="#8C5F4C"/>
</linearGradient>
<linearGradient id="paint6_linear" x1="92.0147" y1="209.127" x2="92.0147" y2="287.16" gradientUnits="userSpaceOnUse">
<stop stop-color="#DDBFA9"/>
<stop offset="0.22229" stop-color="#DDBFA9"/>
<stop offset="0.669825" stop-color="#EBD4C4"/>
<stop offset="0.898796" stop-color="#DDBFA9"/>
<stop offset="1" stop-color="#DDBFA9"/>
</linearGradient>
<linearGradient id="paint7_linear" x1="124.179" y1="259.451" x2="95.8718" y2="237.518" gradientUnits="userSpaceOnUse">
<stop stop-color="#ECD8BA"/>
<stop offset="0.309893" stop-color="#EBD3AE"/>
<stop offset="0.523799" stop-color="#E2C69C"/>
<stop offset="0.77229" stop-color="#E3C8A0"/>
<stop offset="1" stop-color="#ECD8BA"/>
</linearGradient>
<linearGradient id="paint8_linear" x1="102.949" y1="275.084" x2="83.1939" y2="275.958" gradientUnits="userSpaceOnUse">
<stop stop-color="#E5CBA6"/>
<stop offset="0.309893" stop-color="white"/>
<stop offset="0.523799" stop-color="#F3E2C9"/>
<stop offset="0.730152" stop-color="#FFF0D9"/>
<stop offset="1" stop-color="#EFDCC0"/>
</linearGradient>
<linearGradient id="paint9_linear" x1="56.4689" y1="-10.0974" x2="146.982" y2="149.472" gradientUnits="userSpaceOnUse">
<stop stop-color="#FFF5DE"/>
<stop offset="1" stop-color="#CFA365"/>
</linearGradient>
<linearGradient id="paint10_linear" x1="55.9577" y1="3.96522" x2="133.616" y2="130.873" gradientUnits="userSpaceOnUse">
<stop stop-color="#D2A86C"/>
<stop offset="1" stop-color="#F8E6C0"/>
</linearGradient>
<linearGradient id="paint11_linear" x1="62.9618" y1="-0.930992" x2="146.429" y2="132.046" gradientUnits="userSpaceOnUse">
<stop stop-color="#FFF6E7"/>
<stop offset="1" stop-color="#FFF8EC"/>
</linearGradient>
<radialGradient id="paint12_radial" cx="0" cy="0" r="1" gradientUnits="userSpaceOnUse" gradientTransform="translate(92.2137 72.8701) rotate(90) scale(85.2261 65.1417)">
<stop stop-color="#FFE4BA"/>
<stop offset="1" stop-color="#DEA44D"/>
</radialGradient>
<linearGradient id="paint13_linear" x1="92.1889" y1="9.95239" x2="92.1889" y2="228.158" gradientUnits="userSpaceOnUse">
<stop stop-color="white"/>
<stop offset="1" stop-color="#F2EDED" stop-opacity="0"/>
</linearGradient>
<linearGradient id="paint14_linear" x1="11.7886" y1="0.300619" x2="142.015" y2="200.457" gradientUnits="userSpaceOnUse">
<stop stop-color="white"/>
<stop offset="1" stop-color="#F2EDED" stop-opacity="0"/>
</linearGradient>
<linearGradient id="paint15_linear" x1="166.784" y1="0.297041" x2="39.488" y2="196.086" gradientUnits="userSpaceOnUse">
<stop stop-color="white"/>
<stop offset="1" stop-color="#F2EDED" stop-opacity="0"/>
</linearGradient>
<linearGradient id="paint16_linear" x1="92.1889" y1="137.603" x2="90.5645" y2="224.437" gradientUnits="userSpaceOnUse">
<stop stop-color="white" stop-opacity="0"/>
<stop offset="1" stop-color="#FFF1E3"/>
</linearGradient>
<linearGradient id="paint17_linear" x1="92.362" y1="146.574" x2="92.362" y2="228.249" gradientUnits="userSpaceOnUse">
<stop stop-color="#E2B36F"/>
<stop offset="1" stop-color="#DDA555"/>
</linearGradient>
<linearGradient id="paint18_linear" x1="29.596" y1="222.631" x2="43.1471" y2="234.734" gradientUnits="userSpaceOnUse">
<stop stop-color="#D2AB68"/>
<stop offset="1" stop-color="#B67D3F"/>
</linearGradient>
<linearGradient id="paint19_linear" x1="25.9399" y1="211.095" x2="35.3611" y2="219.509" gradientUnits="userSpaceOnUse">
<stop stop-color="#D2AB68"/>
<stop offset="1" stop-color="#B67D3F"/>
</linearGradient>
<linearGradient id="paint20_linear" x1="66.1152" y1="242.314" x2="68.1067" y2="238.475" gradientUnits="userSpaceOnUse">
<stop stop-color="#D2AB68"/>
<stop offset="1" stop-color="#B67D3F"/>
</linearGradient>
<linearGradient id="paint21_linear" x1="32.5646" y1="213.916" x2="19.6715" y2="218.99" gradientUnits="userSpaceOnUse">
<stop stop-color="#D2AB68"/>
<stop offset="1" stop-color="#B67D3F"/>
</linearGradient>
<linearGradient id="paint22_linear" x1="18.1747" y1="217.262" x2="30.9934" y2="221.79" gradientUnits="userSpaceOnUse">
<stop stop-color="#F7E6B3"/>
<stop offset="1" stop-color="#F7E6B3" stop-opacity="0"/>
</linearGradient>
<linearGradient id="paint23_linear" x1="66.7724" y1="230.463" x2="83.3084" y2="245.233" gradientUnits="userSpaceOnUse">
<stop stop-color="#D2AB68"/>
<stop offset="1" stop-color="#B67D3F"/>
</linearGradient>
<linearGradient id="paint24_linear" x1="68.5707" y1="233.609" x2="80.0461" y2="230.48" gradientUnits="userSpaceOnUse">
<stop stop-color="#F7E6B3"/>
<stop offset="1" stop-color="#F7E6B3" stop-opacity="0"/>
</linearGradient>
<linearGradient id="paint25_linear" x1="49.2375" y1="235.469" x2="58.03" y2="243.323" gradientUnits="userSpaceOnUse">
<stop stop-color="#D2AB68"/>
<stop offset="1" stop-color="#B67D3F"/>
</linearGradient>
<linearGradient id="paint26_linear" x1="54.5812" y1="237.237" x2="60.1839" y2="240.91" gradientUnits="userSpaceOnUse">
<stop stop-color="#C18E42"/>
<stop offset="1" stop-color="#D2AB68"/>
</linearGradient>
<linearGradient id="paint27_linear" x1="33.1219" y1="228.065" x2="44.2397" y2="237.994" gradientUnits="userSpaceOnUse">
<stop stop-color="#D2AB68"/>
<stop offset="1" stop-color="#8E573C"/>
</linearGradient>
<linearGradient id="paint28_linear" x1="38.8769" y1="221.474" x2="49.5588" y2="231.014" gradientUnits="userSpaceOnUse">
<stop stop-color="#D2AB68"/>
<stop offset="1" stop-color="#B67D3F"/>
</linearGradient>
<linearGradient id="paint29_linear" x1="72.3724" y1="247.379" x2="76.2883" y2="250.876" gradientUnits="userSpaceOnUse">
<stop stop-color="#D2AB68"/>
<stop offset="1" stop-color="#B67D3F"/>
</linearGradient>
<linearGradient id="paint30_linear" x1="64.7111" y1="244.325" x2="73.9396" y2="252.568" gradientUnits="userSpaceOnUse">
<stop stop-color="#C28766"/>
<stop offset="1" stop-color="#8E573C"/>
</linearGradient>
<linearGradient id="paint31_linear" x1="7.60387" y1="200.178" x2="20.9017" y2="212.055" gradientUnits="userSpaceOnUse">
<stop stop-color="#FCF1D5"/>
<stop offset="1" stop-color="#EBCE6A"/>
</linearGradient>
<linearGradient id="paint32_linear" x1="8.61384" y1="199.047" x2="21.9117" y2="210.924" gradientUnits="userSpaceOnUse">
<stop stop-color="#D2AB68"/>
<stop offset="1" stop-color="#B67D3F"/>
</linearGradient>
<linearGradient id="paint33_linear" x1="21.1014" y1="207.882" x2="33.1639" y2="218.656" gradientUnits="userSpaceOnUse">
<stop stop-color="#D2AB68"/>
<stop offset="1" stop-color="#B67D3F"/>
</linearGradient>
<linearGradient id="paint34_linear" x1="22.0739" y1="210.557" x2="34.5486" y2="211.296" gradientUnits="userSpaceOnUse">
<stop stop-color="#F7E6B3"/>
<stop offset="1" stop-color="#F7E6B3" stop-opacity="0"/>
</linearGradient>
<linearGradient id="paint35_linear" x1="30.6878" y1="225.622" x2="45.3551" y2="230.027" gradientUnits="userSpaceOnUse">
<stop stop-color="#F7E6B3"/>
<stop offset="1" stop-color="#F7E6B3" stop-opacity="0"/>
</linearGradient>
<linearGradient id="paint36_linear" x1="33.3738" y1="231.127" x2="45.6108" y2="237.178" gradientUnits="userSpaceOnUse">
<stop stop-color="#F7E6B3"/>
<stop offset="1" stop-color="#F7E6B3" stop-opacity="0"/>
</linearGradient>
<linearGradient id="paint37_linear" x1="39.971" y1="223.621" x2="48.4566" y2="224.154" gradientUnits="userSpaceOnUse">
<stop stop-color="#FFDD78"/>
<stop offset="1" stop-color="#FFF1C8" stop-opacity="0.38"/>
</linearGradient>
<linearGradient id="paint38_linear" x1="44.7019" y1="223.288" x2="54.0757" y2="231.661" gradientUnits="userSpaceOnUse">
<stop stop-color="#D2AB68"/>
<stop offset="1" stop-color="#B67D3F"/>
</linearGradient>
<linearGradient id="paint39_linear" x1="44.5625" y1="223.152" x2="52.9663" y2="233.049" gradientUnits="userSpaceOnUse">
<stop stop-color="#FFDA92"/>
<stop offset="1" stop-color="#DCBA84"/>
</linearGradient>
<linearGradient id="paint40_linear" x1="48.2447" y1="244.772" x2="63.214" y2="241.029" gradientUnits="userSpaceOnUse">
<stop stop-color="#F7E6B3"/>
<stop offset="1" stop-color="#BC8647"/>
</linearGradient>
<linearGradient id="paint41_linear" x1="52.2557" y1="240.462" x2="59.7032" y2="247.114" gradientUnits="userSpaceOnUse">
<stop stop-color="#D2AB68"/>
<stop offset="1" stop-color="#8E573C"/>
</linearGradient>
<linearGradient id="paint42_linear" x1="63.6438" y1="248.017" x2="72.2888" y2="253.851" gradientUnits="userSpaceOnUse">
<stop stop-color="#F7E6B3"/>
<stop offset="1" stop-color="#F7E6B3" stop-opacity="0"/>
</linearGradient>
<linearGradient id="paint43_linear" x1="69.9093" y1="236.748" x2="81.1724" y2="246.808" gradientUnits="userSpaceOnUse">
<stop stop-color="#D2AB68"/>
<stop offset="1" stop-color="#B67D3F"/>
</linearGradient>
<linearGradient id="paint44_linear" x1="67.5529" y1="239.154" x2="82.3832" y2="244.538" gradientUnits="userSpaceOnUse">
<stop stop-color="#E0C087"/>
<stop offset="0.28125" stop-color="#FFE49E"/>
<stop offset="1" stop-color="#753C1D"/>
</linearGradient>
<linearGradient id="paint45_linear" x1="72.2718" y1="250.178" x2="75.3067" y2="253.852" gradientUnits="userSpaceOnUse">
<stop stop-color="#B18253"/>
<stop offset="1" stop-color="#F7E6B3" stop-opacity="0"/>
</linearGradient>
<linearGradient id="paint46_linear" x1="153.583" y1="222.631" x2="140.032" y2="234.734" gradientUnits="userSpaceOnUse">
<stop stop-color="#D2AB68"/>
<stop offset="1" stop-color="#B67D3F"/>
</linearGradient>
<linearGradient id="paint47_linear" x1="157.239" y1="211.095" x2="147.818" y2="219.509" gradientUnits="userSpaceOnUse">
<stop stop-color="#D2AB68"/>
<stop offset="1" stop-color="#B67D3F"/>
</linearGradient>
<linearGradient id="paint48_linear" x1="117.064" y1="242.314" x2="115.072" y2="238.476" gradientUnits="userSpaceOnUse">
<stop stop-color="#D2AB68"/>
<stop offset="1" stop-color="#B67D3F"/>
</linearGradient>
<linearGradient id="paint49_linear" x1="150.614" y1="213.916" x2="163.508" y2="218.991" gradientUnits="userSpaceOnUse">
<stop stop-color="#D2AB68"/>
<stop offset="1" stop-color="#B67D3F"/>
</linearGradient>
<linearGradient id="paint50_linear" x1="165.004" y1="217.262" x2="152.186" y2="221.79" gradientUnits="userSpaceOnUse">
<stop stop-color="#F7E6B3"/>
<stop offset="1" stop-color="#F7E6B3" stop-opacity="0"/>
</linearGradient>
<linearGradient id="paint51_linear" x1="116.407" y1="230.464" x2="99.8706" y2="245.233" gradientUnits="userSpaceOnUse">
<stop stop-color="#D2AB68"/>
<stop offset="1" stop-color="#B67D3F"/>
</linearGradient>
<linearGradient id="paint52_linear" x1="114.608" y1="233.61" x2="103.133" y2="230.48" gradientUnits="userSpaceOnUse">
<stop stop-color="#F7E6B3"/>
<stop offset="1" stop-color="#F7E6B3" stop-opacity="0"/>
</linearGradient>
<linearGradient id="paint53_linear" x1="133.941" y1="235.47" x2="125.149" y2="243.323" gradientUnits="userSpaceOnUse">
<stop stop-color="#D2AB68"/>
<stop offset="1" stop-color="#B67D3F"/>
</linearGradient>
<linearGradient id="paint54_linear" x1="128.598" y1="237.237" x2="122.995" y2="240.91" gradientUnits="userSpaceOnUse">
<stop stop-color="#C18E42"/>
<stop offset="1" stop-color="#D2AB68"/>
</linearGradient>
<linearGradient id="paint55_linear" x1="150.057" y1="228.065" x2="138.939" y2="237.995" gradientUnits="userSpaceOnUse">
<stop stop-color="#D2AB68"/>
<stop offset="1" stop-color="#8E573C"/>
</linearGradient>
<linearGradient id="paint56_linear" x1="144.302" y1="221.474" x2="133.62" y2="231.014" gradientUnits="userSpaceOnUse">
<stop stop-color="#D2AB68"/>
<stop offset="1" stop-color="#B67D3F"/>
</linearGradient>
<linearGradient id="paint57_linear" x1="110.807" y1="247.379" x2="106.891" y2="250.876" gradientUnits="userSpaceOnUse">
<stop stop-color="#D2AB68"/>
<stop offset="1" stop-color="#B67D3F"/>
</linearGradient>
<linearGradient id="paint58_linear" x1="118.468" y1="244.325" x2="109.239" y2="252.568" gradientUnits="userSpaceOnUse">
<stop stop-color="#C28766"/>
<stop offset="1" stop-color="#8E573C"/>
</linearGradient>
<linearGradient id="paint59_linear" x1="175.575" y1="200.178" x2="162.277" y2="212.055" gradientUnits="userSpaceOnUse">
<stop stop-color="#FCF1D5"/>
<stop offset="1" stop-color="#EBCE6A"/>
</linearGradient>
<linearGradient id="paint60_linear" x1="174.565" y1="199.047" x2="161.267" y2="210.924" gradientUnits="userSpaceOnUse">
<stop stop-color="#D2AB68"/>
<stop offset="1" stop-color="#B67D3F"/>
</linearGradient>
<linearGradient id="paint61_linear" x1="162.078" y1="207.883" x2="150.015" y2="218.656" gradientUnits="userSpaceOnUse">
<stop stop-color="#D2AB68"/>
<stop offset="1" stop-color="#B67D3F"/>
</linearGradient>
<linearGradient id="paint62_linear" x1="161.105" y1="210.557" x2="148.63" y2="211.297" gradientUnits="userSpaceOnUse">
<stop stop-color="#F7E6B3"/>
<stop offset="1" stop-color="#F7E6B3" stop-opacity="0"/>
</linearGradient>
<linearGradient id="paint63_linear" x1="152.491" y1="225.622" x2="137.824" y2="230.027" gradientUnits="userSpaceOnUse">
<stop stop-color="#F7E6B3"/>
<stop offset="1" stop-color="#F7E6B3" stop-opacity="0"/>
</linearGradient>
<linearGradient id="paint64_linear" x1="149.805" y1="231.127" x2="137.568" y2="237.179" gradientUnits="userSpaceOnUse">
<stop stop-color="#F7E6B3"/>
<stop offset="1" stop-color="#F7E6B3" stop-opacity="0"/>
</linearGradient>
<linearGradient id="paint65_linear" x1="143.208" y1="223.621" x2="134.723" y2="224.154" gradientUnits="userSpaceOnUse">
<stop stop-color="#FFDD78"/>
<stop offset="1" stop-color="#FFF1C8" stop-opacity="0.38"/>
</linearGradient>
<linearGradient id="paint66_linear" x1="138.477" y1="223.289" x2="129.103" y2="231.661" gradientUnits="userSpaceOnUse">
<stop stop-color="#D2AB68"/>
<stop offset="1" stop-color="#B67D3F"/>
</linearGradient>
<linearGradient id="paint67_linear" x1="138.617" y1="223.152" x2="130.213" y2="233.049" gradientUnits="userSpaceOnUse">
<stop stop-color="#FFDA92"/>
<stop offset="1" stop-color="#DCBA84"/>
</linearGradient>
<linearGradient id="paint68_linear" x1="134.934" y1="244.772" x2="119.965" y2="241.029" gradientUnits="userSpaceOnUse">
<stop stop-color="#F7E6B3"/>
<stop offset="1" stop-color="#BC8647"/>
</linearGradient>
<linearGradient id="paint69_linear" x1="130.924" y1="240.462" x2="123.476" y2="247.114" gradientUnits="userSpaceOnUse">
<stop stop-color="#D2AB68"/>
<stop offset="1" stop-color="#8E573C"/>
</linearGradient>
<linearGradient id="paint70_linear" x1="119.535" y1="248.018" x2="110.891" y2="253.851" gradientUnits="userSpaceOnUse">
<stop stop-color="#F7E6B3"/>
<stop offset="1" stop-color="#F7E6B3" stop-opacity="0"/>
</linearGradient>
<linearGradient id="paint71_linear" x1="113.27" y1="236.749" x2="102.007" y2="246.808" gradientUnits="userSpaceOnUse">
<stop stop-color="#D2AB68"/>
<stop offset="1" stop-color="#B67D3F"/>
</linearGradient>
<linearGradient id="paint72_linear" x1="115.627" y1="239.153" x2="100.796" y2="244.538" gradientUnits="userSpaceOnUse">
<stop stop-color="#E0C087"/>
<stop offset="0.28125" stop-color="#FFE49E"/>
<stop offset="1" stop-color="#753C1D"/>
</linearGradient>
<linearGradient id="paint73_linear" x1="110.907" y1="250.178" x2="107.872" y2="253.852" gradientUnits="userSpaceOnUse">
<stop stop-color="#B18253"/>
<stop offset="1" stop-color="#F7E6B3" stop-opacity="0"/>
</linearGradient>
<linearGradient id="paint74_linear" x1="60.3744" y1="182.364" x2="86.5622" y2="268.155" gradientUnits="userSpaceOnUse">
<stop stop-color="#F9E9D5"/>
<stop offset="1" stop-color="#C59570"/>
</linearGradient>
<linearGradient id="paint75_linear" x1="82.2802" y1="216.381" x2="118.118" y2="229.226" gradientUnits="userSpaceOnUse">
<stop stop-color="#D2AB68"/>
<stop offset="1" stop-color="#B67D3F"/>
</linearGradient>
<clipPath id="clip0">
<rect width="130.587" height="82.7558" fill="white" transform="translate(27.0108 146.457)"/>
</clipPath>
</defs>
</svg>
