<svg width="183" height="289" fill="none" xmlns="http://www.w3.org/2000/svg"><path d="M22.455 241.711v-62.486h36.33v83.592l-35.14-19.105a2.279 2.279 0 0 1-1.19-2.001z" fill="#ECD8BA" stroke="url(#a)" stroke-width=".759"/><path fill-rule="evenodd" clip-rule="evenodd" d="M26.454 239.989v-29.02h-.472v29.413l.198.033c.652.109 1.378.495 1.97 1.059.592.564 1.03 1.285 1.139 2.045l.018.126 19.094 8.943v-31.937h-.472v31.195l-18.194-8.521c-.155-.841-.643-1.606-1.26-2.193-.59-.563-1.317-.979-2.02-1.143z" fill="url(#b)"/><path fill-rule="evenodd" clip-rule="evenodd" d="M47.902 250.119c.51-.86.538-2.081.499-2.869l-.472.023c.04.785-.002 1.877-.433 2.606-.209.353-.505.613-.93.72-.433.109-1.032.066-1.855-.254l-.171.44c.876.341 1.58.413 2.14.272.57-.143.961-.497 1.222-.938z" fill="#D4B195"/><path d="M159.659 241.711v-62.486H123.33v83.592l35.139-19.105a2.277 2.277 0 0 0 1.19-2.001z" fill="#ECD8BA" stroke="url(#c)" stroke-width=".759"/><path fill-rule="evenodd" clip-rule="evenodd" d="M155.66 239.989v-29.02h.472v29.413l-.197.033c-.653.109-1.378.495-1.971 1.059-.591.564-1.029 1.285-1.138 2.045l-.018.126-19.094 8.943v-31.937h.472v31.195l18.194-8.521c.155-.841.643-1.606 1.259-2.193.591-.563 1.317-.979 2.021-1.143z" fill="url(#d)"/><path fill-rule="evenodd" clip-rule="evenodd" d="M134.212 250.119c-.509-.86-.538-2.081-.498-2.869l.471.023c-.039.785.002 1.877.433 2.606.209.353.505.613.931.72.433.109 1.031.066 1.854-.254l.171.44c-.875.341-1.579.413-2.14.272-.569-.143-.961-.497-1.222-.938z" fill="#D4B195"/><path d="M54.078 169.624h77.595v98.537l-38.296 19.467a2.188 2.188 0 0 1-1.99-.003l-37.31-19.126v-98.875z" fill="url(#e)" stroke="url(#f)" stroke-width="1.518"/><path fill-rule="evenodd" clip-rule="evenodd" d="m104.007 281.44-10.785 5.483a2.188 2.188 0 0 1-1.99-.004l-11.21-5.746v-72.046h23.985v72.313z" fill="url(#g)"/><path fill-rule="evenodd" clip-rule="evenodd" d="M58.31 222.53h1.124v44.103l33.163 17.142 33.72-17.144V222.53h1.124v44.501l-34.849 17.576-34.282-17.578V222.53z" fill="url(#h)"/><path d="M99.355 273.622a1.668 1.668 0 0 1-.322-.982v-1.386a.749.749 0 0 0-.74-.755h-.494a.247.247 0 0 0-.221.139 2.414 2.414 0 0 1-2.176 1.372h-.196c-.65 0-1.261-.258-1.72-.727l-.697-.71a.242.242 0 0 0-.26-.059l-6.044 2.262a2.378 2.378 0 0 0-1.525 2.227c0 .412.158.799.443 1.09.285.292.665.452 1.069.452h.271l.2.817a.248.248 0 0 0 .24.191h.987a.248.248 0 0 0 .24-.191l.2-.817h.602l.2.817a.248.248 0 0 0 .24.191h.987a.248.248 0 0 0 .24-.191l.2-.817h3.565l.2.817a.248.248 0 0 0 .24.191h.987a.248.248 0 0 0 .24-.191l.2-.817h.601l.2.817a.248.248 0 0 0 .24.191h.988a.248.248 0 0 0 .24-.191l.2-.817h.053a.75.75 0 0 0 .741-.756v-.882c0-.46-.149-.916-.42-1.285zm-1.408-2.619h.346c.136 0 .247.112.247.251v1.386c0 .401.118.795.326 1.134H97.61c-.161 0-.323-.039-.468-.113a1.064 1.064 0 0 1-.578-.954v-.438a2.93 2.93 0 0 0 1.383-1.266zm-11.292 2.246.661-.248a3.554 3.554 0 0 0 2.498 1.025h.87a3.06 3.06 0 0 1-1.689.504c-.66 0-1.313-.173-1.89-.5l-.917-.52c.141-.108.297-.198.467-.261zm-.903 2.488a1.056 1.056 0 0 1-.298-.734c0-.414.139-.804.373-1.122l1.039.589a4.32 4.32 0 0 0 2.13.563 3.56 3.56 0 0 0 2.558-1.081.256.256 0 0 0 .054-.275.247.247 0 0 0-.228-.155h-1.566a3.065 3.065 0 0 1-1.974-.717l1.098-.411.785.802.35-.356-.624-.637.573-.214.69.703.349-.356-.528-.538.573-.215.593.605.35-.356-.432-.44.934-.349.585.597a2.877 2.877 0 0 0 2.07.874h.196c.23 0 .453-.032.669-.083v.275c0 .599.326 1.138.85 1.406.214.108.452.166.69.166h1.54c.082.199.13.413.13.629v.126h-6.01c-.931 0-1.806.359-2.48 1.008h-4.32c-.267 0-.53-.111-.719-.304zm2.225 1.312h-.602l-.123-.504h.849l-.124.504zm2.47 0h-.603l-.123-.504h.849l-.124.504zm5.43 0h-.601l-.124-.504h.85l-.124.504zm2.47 0h-.602l-.124-.504h.85l-.124.504zm.687-1.008h-7.448a3.055 3.055 0 0 1 1.684-.504h6.01v.252a.25.25 0 0 1-.246.252z" fill="url(#i)"/><g filter="url(#j)"><path d="M90.093 6.152 20.517 13.44A13.94 13.94 0 0 0 8.03 27.303v184.631a13.938 13.938 0 0 0 9.188 13.104l69.576 25.229a13.942 13.942 0 0 0 9.503 0l69.576-25.229a13.939 13.939 0 0 0 9.187-13.104V27.304a13.94 13.94 0 0 0-12.487-13.864L92.997 6.152a13.94 13.94 0 0 0-2.904 0z" fill="url(#k)"/><path d="m89.885 15.31-56.72 6.83a13.887 13.887 0 0 0-12.228 13.787V202.68a13.886 13.886 0 0 0 9.68 13.234l56.72 18.035c2.738.87 5.678.87 8.416 0l56.721-18.035a13.886 13.886 0 0 0 9.679-13.234V35.927a13.886 13.886 0 0 0-12.227-13.788l-56.72-6.828a13.881 13.881 0 0 0-3.32 0z" fill="url(#l)"/><g filter="url(#m)"><path d="m89.885 15.31-56.72 6.83a13.887 13.887 0 0 0-12.228 13.787V202.68a13.886 13.886 0 0 0 9.68 13.234l56.72 18.035c2.738.87 5.678.87 8.416 0l56.721-18.035a13.886 13.886 0 0 0 9.679-13.234V35.927a13.886 13.886 0 0 0-12.227-13.788l-56.72-6.828a13.881 13.881 0 0 0-3.32 0z" stroke="url(#n)"/></g><g opacity=".5"><mask id="o" mask-type="alpha" maskUnits="userSpaceOnUse" x="27" y="22" width="131" height="206"><path d="m91.195 22.58-51.933 4.019c-6.88.532-12.19 6.27-12.19 13.17v159.148a13.21 13.21 0 0 0 9.514 12.682l51.932 15.134c2.414.704 4.978.704 7.391 0l51.933-15.134a13.21 13.21 0 0 0 9.513-12.682V39.769c0-6.9-5.31-12.638-12.19-13.17l-51.932-4.02a13.208 13.208 0 0 0-2.038 0z" fill="#A6D3DE"/></mask><g mask="url(#o)"><path d="m91.195 22.58-51.933 4.019c-6.88.532-12.19 6.27-12.19 13.17v159.148a13.21 13.21 0 0 0 9.514 12.682l51.932 15.134c2.414.704 4.978.704 7.391 0l51.933-15.134a13.21 13.21 0 0 0 9.513-12.682V39.769c0-6.9-5.31-12.638-12.19-13.17l-51.932-4.02a13.208 13.208 0 0 0-2.038 0z" fill="url(#p)"/><path opacity=".5" d="m111.824 223.206-8.741-16.605-.147 12.604H81.442l-.183-15.618-12.15 23.051-18.866-12.266 27.69-55.548L.117 11 23.46-4.188l56.698 113.752L78.889 1h26.6l-1.229 105.007L155.109 4l23.35 15.181-73.678 139.781 25.905 51.972-18.862 12.272z" fill="url(#q)"/><g filter="url(#r)"><path d="m91.195 22.58-51.933 4.019c-6.88.532-12.19 6.27-12.19 13.17v159.148a13.21 13.21 0 0 0 9.514 12.682l51.932 15.134c2.414.704 4.978.704 7.391 0l51.933-15.134a13.21 13.21 0 0 0 9.513-12.682V39.769c0-6.9-5.31-12.638-12.19-13.17l-51.932-4.02a13.208 13.208 0 0 0-2.038 0z" fill="#6052B4" fill-opacity=".01"/></g></g></g><path d="M27.406 146.574h129.912v52.12c0 6.044-3.969 11.37-9.761 13.097l-53.676 16.005a5.323 5.323 0 0 1-3.038 0l-53.676-16.005a13.667 13.667 0 0 1-9.761-13.097v-52.12z" fill="url(#s)"/><g filter="url(#u)" opacity=".4" clip-path="url(#t)"><path d="m91.104 5.778-51.932 4.38a13.21 13.21 0 0 0-12.1 13.162v175.617a13.21 13.21 0 0 0 9.39 12.645l52.017 15.716c2.494.754 5.156.753 7.65-.003l51.847-15.708a13.208 13.208 0 0 0 9.379-12.642V23.32a13.209 13.209 0 0 0-12.099-13.162l-51.932-4.38a13.21 13.21 0 0 0-2.22 0z" fill="#6052B4" fill-opacity=".01"/></g></g><g filter="url(#v)"><path d="M34.379 230.167c-2.44-.194-4.882-2.14-7.888-4.04.027-.499 3.533-2.201 14.89 2.195l3.42 1.878c2.247.701-.44.783-2.488 1.175-4.651-.497-4.885-.967-7.934-1.208z" fill="url(#w)"/><path d="M29.668 217.598c-.322-.81-1.69-4.252-1.556-9.228v.001c.581.519 2.253 2.012 4.813 7.042.112.753.039 4.345-.62 6.107.244.428-.327-.073-.704-.236-1.642-1.379-1.612-2.876-1.933-3.686z" fill="url(#x)"/><path fill-rule="evenodd" clip-rule="evenodd" d="M67.705 241.673c-20.701-6.757-37.453-19.885-46.94-29.674l.325-.363c9.343 9.641 26.68 21.89 47.099 28.555 6.253 2.042 13.229 3.517 20.009 4.169 0 .103-.18 1.11-.18 1.586-7.035-.645-13.849-2.163-20.313-4.273z" fill="url(#y)"/><path d="m23.908 217.026-9.534 1.021 1.526 1.363c3.885 2.817 6.922 1.611 10.35 2.452 2.744.673 4.915-.139 5.278-.643l-2.81-2.118-4.81-2.075z" fill="url(#z)"/><path fill-rule="evenodd" clip-rule="evenodd" d="M14.54 218.03c4.148.839 9.144 1.789 10.479 1.555 1.214-.212 3.868.566 6.226 1.421l.283.213c-.363.504-2.534 1.316-5.277.643-1.157-.284-2.27-.335-3.386-.385-2.19-.1-4.391-.201-6.965-2.067l-1.526-1.363.166-.017z" fill="url(#A)"/><path d="M75.656 235.29c-.918-.611-6.876-2.832-9.74-3.867l.191.955c4.477 5.958 8.383 6.704 11.292 8.126 2.91 1.423 7.033 6.021 6.278 3.648-.755-2.372-6.874-8.099-8.021-8.862z" fill="url(#B)"/><path fill-rule="evenodd" clip-rule="evenodd" d="M66.317 231.569c2.895 2.201 7.207 5.312 9.777 6.594 2.405 1.199 5.493 3.774 7.523 5.822.023.057.043.113.06.167.438 1.378-.767.406-2.425-.93-1.198-.965-2.632-2.121-3.853-2.718a32.39 32.39 0 0 0-1.672-.739c-2.668-1.123-5.953-2.506-9.62-7.387l-.192-.955.402.146z" fill="url(#C)"/><path d="M53.068 237.323c-2.026.28-5.821 1.594-7.465 2.216 2.279 1.251 3.493.769 6.735 1.966 2.594.957 7.298-1.102 9.326-2.252-2.02-.76-6.569-2.21-8.596-1.93z" fill="url(#D)"/><path fill-rule="evenodd" clip-rule="evenodd" d="M52.865 237.353c.07-.011.137-.022.203-.031 2.027-.28 6.576 1.17 8.596 1.93-.718.407-1.772.929-2.95 1.39-2.287-.785-4.416-2.169-5.85-3.289z" fill="url(#E)"/><path d="M34.223 231.073c-1.268.016-4.183 1.271-5.482 1.897 2.35.879 4.986 2.754 9.087 3.282 1.695.218 7.874-1.894 10.793-3.162l-1.625-.668c-4.241.654-11.187-1.369-12.773-1.349z" fill="url(#F)"/><path d="M46.89 225.665c-1.366-2.683-5.275-4.624-7.059-5.26 2.473 4.691 1.515 6.056 6.02 10.08l2.845 1.495c-.033-.987-.44-3.632-1.806-6.315z" fill="url(#G)"/><path d="M78.053 244.745c-5.07 1.114-9.07 6.4-10.192 8.925 9.254-2.317 7.406-4.489 10.347-6.174 2.353-1.347 3.488-2.588 3.567-2.823l-3.722.072z" fill="url(#H)"/><path d="M67.548 245.683c-1.024.444-6.861 4.367-9.652 6.272 6.32-.495 10.902-1.236 13.098-2.671 1.757-1.148 7.239-3.376 9.76-4.346-.469-.158-1.67-.499-2.725-.605-1.319-.133-9.201.795-10.481 1.35z" fill="url(#I)"/><path d="M11.163 207.602c-1.047-.935-2.138-6.09-2.553-8.551l5.536 2.724c.726.649 2.43 2.457 3.428 4.499.998 2.041 2.947 4.94 3.846 5.786l-.39.436c-3.841-.818-8.56-3.726-9.867-4.894z" fill="url(#J)"/><path fill-rule="evenodd" clip-rule="evenodd" d="M20.999 211.947c-2.784-1.518-8.934-8.477-12.347-12.646l-.043-.249 5.536 2.724c.727.649 2.43 2.457 3.428 4.499.999 2.041 3.085 4.932 3.984 5.778l-.558-.106z" fill="url(#K)"/><g filter="url(#L)"><path d="M25.678 216.068c-.297-.37-3.078-3.867-3.303-9.612 1.127.397 3.851 2.504 5.375 4.074 1.524 1.571 2.857 7.284 3.378 10.406-2.396-2.096-5.153-4.498-5.45-4.868z" fill="url(#M)"/><path fill-rule="evenodd" clip-rule="evenodd" d="M22.6 206.548a2.898 2.898 0 0 0-.225-.092c.225 5.745 3.006 9.242 3.303 9.612.272.34 2.619 2.392 4.855 4.347l.595.521a46.83 46.83 0 0 0-.131-.747c-2.123-4.226-6.042-10.218-8.396-13.641z" fill="url(#N)"/></g><path fill-rule="evenodd" clip-rule="evenodd" d="M26.607 226.2c.538-.017 1.172 0 1.825.093 1.74.247 15.729 3.598 16.876 4.361.076.05.138.099.187.146-.294.132-.966.23-1.728.342-.473.068-.98.142-1.453.233-2.429-.259-3.653-.511-4.703-.727-.96-.198-1.774-.366-3.231-.481-2.421-.409-4.063-1.506-6.127-2.886a86.11 86.11 0 0 0-1.646-1.081z" fill="url(#O)"/><path fill-rule="evenodd" clip-rule="evenodd" d="M48.094 232.873c-2.55.984-5.978 1.587-10.261 1.033-4.69-.606-7.334-.795-8.734-.796a12.1 12.1 0 0 0-.358-.14c1.299-.626 4.214-1.881 5.482-1.897.508-.006 1.564.196 2.904.453 2.85.547 6.985 1.341 9.869.896l1.098.451z" fill="url(#P)"/><path fill-rule="evenodd" clip-rule="evenodd" d="M39.846 220.436c.802 1.526 1.24 2.699 1.625 3.727.792 2.116 1.354 3.619 4.379 6.321l2.844 1.495a5.447 5.447 0 0 0-.007-.149c-1.941-4.097-6.416-9.031-8.84-11.394z" fill="url(#Q)"/><g filter="url(#R)"><path d="M51.362 233.968c.163-.377.039-.378.4-1.472 1.314-3.979-1.597-9.578-4.543-12.026l-.535 3.963c-.597 6.051 2.706 8.818 4.678 9.535z" fill="url(#S)"/><path fill-rule="evenodd" clip-rule="evenodd" d="M47.35 220.581a6.736 6.736 0 0 0-.13-.111l-.536 3.963c-.597 6.051 2.706 8.818 4.678 9.535l.017-.041c-1.795-2.842-3.365-9.703-4.029-13.346z" fill="url(#T)"/></g><g filter="url(#U)"><path d="M54.226 240.708c-.908.548-5.88 4.633-8.253 6.607 9.513 1.05 12.67-2.923 14.354-3.639 2.796-1.814 5.186-3.076 5.665-3.563l-2.095-.434c-2.846.115-8.764.481-9.671 1.029z" fill="url(#V)"/><path fill-rule="evenodd" clip-rule="evenodd" d="M46.122 247.33c7.567.799 11.072-1.598 13.025-2.933.473-.323.854-.584 1.18-.723a107.464 107.464 0 0 1 3.428-2.115c.978-.585 1.721-1.03 2.082-1.313-4.653-.042-14.36 4.342-19.715 7.084z" fill="url(#W)"/></g><path fill-rule="evenodd" clip-rule="evenodd" d="M78.916 244.464c-4.988 1.549-14.894 5.181-20.988 7.468 2.803-1.914 8.6-5.807 9.619-6.25 1.28-.555 9.163-1.483 10.481-1.35.291.029.593.076.888.132z" fill="url(#X)"/><g filter="url(#Y)"><path d="M76.048 243.477c-4.232-.644-7.307-3.129-8.316-4.291l2.42.07c6.437-1.357 11.39 2.945 13.062 5.266-.625-.08-2.934-.4-7.166-1.045z" fill="url(#Z)"/><path fill-rule="evenodd" clip-rule="evenodd" d="M67.759 239.215c2.125 1.32 6.132 2.712 13.356 3.563.786.629 1.458 1.174 2.028 1.646l.07.097c-.625-.08-2.934-.401-7.166-1.045-4.194-.639-7.253-3.086-8.288-4.261z" fill="url(#aa)"/></g><path fill-rule="evenodd" clip-rule="evenodd" d="M81.72 244.771c-4.317 1.022-10.642 6.041-13.763 8.873 6.211-1.567 7.362-3.068 8.38-4.396.48-.626.93-1.215 1.87-1.753 2.12-1.213 3.251-2.341 3.512-2.724z" fill="url(#ab)"/><path d="M20.934 212.018c2.771 3.041 11.352 11.131 21.764 17.609 7.474 4.65 10.204 6.712 24.892 11.913 3.474 1.23 12.429 3.811 20.46 4.296" stroke="#FADA81" stroke-width=".641"/></g><g filter="url(#ac)"><path d="M148.8 230.167c2.44-.194 4.882-2.14 7.888-4.04-.027-.498-3.533-2.201-14.891 2.195l-3.418 1.878c-2.248.701.439.783 2.487 1.175 4.651-.497 4.885-.966 7.934-1.208z" fill="url(#ad)"/><path d="M153.512 217.598c.321-.81 1.689-4.252 1.555-9.227-.581.519-2.252 2.012-4.813 7.042-.112.753-.039 4.345.621 6.107-.245.428.326-.073.703-.236 1.642-1.379 1.612-2.876 1.934-3.686z" fill="url(#ae)"/><path fill-rule="evenodd" clip-rule="evenodd" d="M115.474 241.673c20.701-6.757 37.453-19.884 46.94-29.674l-.325-.363c-9.343 9.641-26.68 21.891-47.099 28.555-6.253 2.042-13.229 3.517-20.009 4.169 0 .103.18 1.11.18 1.586 7.035-.645 13.849-2.163 20.313-4.273z" fill="url(#af)"/><path d="m159.271 217.026 9.534 1.021-1.526 1.363c-3.885 2.817-6.922 1.611-10.351 2.452-2.743.674-4.914-.139-5.277-.643l2.811-2.118 4.809-2.075z" fill="url(#ag)"/><path fill-rule="evenodd" clip-rule="evenodd" d="M168.639 218.03c-4.148.839-9.144 1.789-10.479 1.556-1.214-.213-3.868.565-6.226 1.42l-.283.213c.363.504 2.534 1.317 5.277.643 1.158-.284 2.27-.334 3.386-.385 2.19-.1 4.391-.2 6.965-2.067l1.526-1.363-.166-.017z" fill="url(#ah)"/><path d="M107.523 235.29c.918-.611 6.876-2.832 9.741-3.867l-.192.956c-4.476 5.957-8.383 6.703-11.292 8.126-2.91 1.422-7.033 6.02-6.278 3.647.755-2.372 6.874-8.099 8.021-8.862z" fill="url(#ai)"/><path fill-rule="evenodd" clip-rule="evenodd" d="M116.863 231.569c-2.895 2.2-7.208 5.312-9.778 6.594-2.405 1.2-5.493 3.774-7.523 5.822a2.807 2.807 0 0 0-.06.167c-.438 1.378.767.406 2.425-.93 1.198-.965 2.632-2.121 3.853-2.717a31.375 31.375 0 0 1 1.673-.74c2.667-1.123 5.952-2.506 9.619-7.386l.192-.956-.401.146z" fill="url(#aj)"/><path d="M130.111 237.323c2.026.28 5.821 1.594 7.465 2.216-2.279 1.251-3.493.769-6.735 1.966-2.594.957-7.298-1.102-9.326-2.252 2.02-.76 6.569-2.21 8.596-1.93z" fill="url(#ak)"/><path fill-rule="evenodd" clip-rule="evenodd" d="m130.314 237.353-.203-.031c-2.027-.28-6.575 1.17-8.596 1.93.718.408 1.772.929 2.95 1.39 2.287-.785 4.416-2.169 5.849-3.289z" fill="url(#al)"/><path d="M148.956 231.073c1.269.016 4.183 1.271 5.482 1.897-2.35.879-4.986 2.754-9.087 3.282-1.695.218-7.874-1.894-10.793-3.162l1.625-.668c4.241.654 11.187-1.369 12.773-1.349z" fill="url(#am)"/><path d="M136.289 225.665c1.366-2.683 5.275-4.624 7.059-5.26-2.473 4.691-1.515 6.056-6.02 10.08l-2.845 1.496c.033-.988.44-3.633 1.806-6.316z" fill="url(#an)"/><path d="M105.126 244.745c5.071 1.115 9.069 6.4 10.192 8.925-9.254-2.317-7.406-4.489-10.347-6.173-2.353-1.348-3.488-2.589-3.567-2.824l3.722.072z" fill="url(#ao)"/><path d="M115.631 245.683c1.024.444 6.861 4.367 9.652 6.272-6.321-.495-10.902-1.236-13.098-2.671-1.757-1.148-7.239-3.376-9.76-4.346.469-.158 1.67-.499 2.725-.605 1.319-.133 9.202.795 10.481 1.35z" fill="url(#ap)"/><path d="M172.017 207.602c1.046-.935 2.137-6.09 2.552-8.55l-5.536 2.723c-.726.649-2.429 2.458-3.428 4.499-.998 2.041-2.947 4.94-3.845 5.786l.389.436c3.841-.818 8.56-3.726 9.868-4.894z" fill="url(#aq)"/><path fill-rule="evenodd" clip-rule="evenodd" d="M162.18 211.947c2.784-1.518 8.934-8.477 12.347-12.646l.043-.249-5.536 2.724c-.727.649-2.43 2.457-3.428 4.499-.999 2.041-3.085 4.932-3.984 5.778l.558-.106z" fill="url(#ar)"/><g filter="url(#as)"><path d="M157.501 216.068c.297-.369 3.078-3.867 3.303-9.612-1.127.397-3.851 2.505-5.375 4.075-1.524 1.57-2.856 7.283-3.378 10.405 2.396-2.096 5.153-4.498 5.45-4.868z" fill="url(#at)"/><path fill-rule="evenodd" clip-rule="evenodd" d="M160.579 206.548c.08-.036.156-.067.225-.092-.225 5.745-3.006 9.243-3.303 9.612-.272.34-2.619 2.392-4.855 4.348l-.595.52c.04-.235.083-.485.132-.747 2.122-4.226 6.041-10.218 8.396-13.641z" fill="url(#au)"/></g><path fill-rule="evenodd" clip-rule="evenodd" d="M156.572 226.2c-.538-.017-1.172 0-1.825.093-1.739.247-15.729 3.598-16.876 4.361-.076.05-.138.099-.187.146.294.132.966.23 1.728.342.472.069.98.143 1.453.233 2.429-.259 3.653-.511 4.703-.727.96-.198 1.774-.366 3.232-.481 2.42-.409 4.062-1.506 6.126-2.886a84.505 84.505 0 0 1 1.646-1.081z" fill="url(#av)"/><path fill-rule="evenodd" clip-rule="evenodd" d="M135.085 232.873c2.549.984 5.978 1.587 10.261 1.033 4.69-.606 7.333-.795 8.733-.796.121-.049.24-.096.359-.14-1.299-.626-4.213-1.881-5.482-1.897-.508-.006-1.564.196-2.904.453-2.85.547-6.985 1.341-9.869.896l-1.098.451z" fill="url(#aw)"/><path fill-rule="evenodd" clip-rule="evenodd" d="M143.333 220.436c-.802 1.526-1.241 2.699-1.625 3.727-.791 2.116-1.353 3.619-4.378 6.321l-2.845 1.496.007-.15c1.941-4.097 6.416-9.031 8.841-11.394z" fill="url(#ax)"/><g filter="url(#ay)"><path d="M131.817 233.968c-.163-.377-.039-.377-.4-1.472-1.314-3.978 1.597-9.578 4.543-12.026l.535 3.964c.597 6.05-2.705 8.817-4.678 9.534z" fill="url(#az)"/><path fill-rule="evenodd" clip-rule="evenodd" d="M135.828 220.582a13.1 13.1 0 0 1 .132-.112l.535 3.964c.597 6.05-2.705 8.817-4.678 9.534a1.214 1.214 0 0 1-.017-.041c1.795-2.842 3.365-9.703 4.028-13.345z" fill="url(#aA)"/></g><g filter="url(#aB)"><path d="M128.953 240.708c.908.548 5.88 4.633 8.253 6.607-9.513 1.05-12.67-2.923-14.354-3.639-2.796-1.814-5.186-3.076-5.664-3.563l2.094-.434c2.846.115 8.764.481 9.671 1.029z" fill="url(#aC)"/><path fill-rule="evenodd" clip-rule="evenodd" d="M137.057 247.33c-7.567.799-11.072-1.598-13.025-2.933-.472-.323-.854-.584-1.18-.723-1.274-.827-2.465-1.539-3.428-2.115-.977-.585-1.721-1.03-2.082-1.313 4.654-.041 14.36 4.342 19.715 7.084z" fill="url(#aD)"/></g><path fill-rule="evenodd" clip-rule="evenodd" d="M104.264 244.465c4.987 1.548 14.892 5.18 20.987 7.467-2.804-1.914-8.599-5.807-9.618-6.249-1.28-.556-9.163-1.484-10.482-1.351-.29.029-.592.076-.887.133z" fill="url(#aE)"/><g filter="url(#aF)"><path d="M107.131 243.477c4.232-.644 7.307-3.129 8.316-4.291l-2.419.07c-6.438-1.357-11.391 2.945-13.063 5.266.625-.08 2.934-.4 7.166-1.045z" fill="url(#aG)"/><path fill-rule="evenodd" clip-rule="evenodd" d="M115.421 239.215c-2.125 1.32-6.132 2.712-13.357 3.563a150.03 150.03 0 0 0-2.027 1.646 6.642 6.642 0 0 0-.071.097c.625-.08 2.934-.401 7.166-1.045 4.195-.639 7.254-3.087 8.289-4.261z" fill="url(#aH)"/></g><path fill-rule="evenodd" clip-rule="evenodd" d="M101.46 244.771c4.316 1.022 10.641 6.041 13.761 8.873-6.21-1.567-7.361-3.068-8.378-4.395-.481-.627-.931-1.216-1.871-1.754-2.119-1.213-3.251-2.341-3.512-2.724z" fill="url(#aI)"/><path d="M162.245 212.018c-2.771 3.041-11.351 11.131-21.764 17.61-7.473 4.649-10.204 6.711-24.892 11.912-3.474 1.23-12.429 3.811-20.46 4.297" stroke="#FADA81" stroke-width=".641"/></g><g filter="url(#aJ)"><path d="M109.617 244.359c4.208-10.057-.534-21.621-10.59-25.829-10.058-4.209-21.622.533-25.83 10.59-4.209 10.057.533 21.621 10.59 25.83 10.057 4.208 21.621-.534 25.83-10.591z" fill="#fff"/><path fill-rule="evenodd" clip-rule="evenodd" d="M103.693 220.875c4.758 3.648 7.772 9.359 7.772 15.809 0 10.997-8.882 19.88-19.88 19.88-6.714 0-12.636-3.331-16.284-8.407 3.33 2.591 7.56 4.124 12.108 4.124 10.997 0 19.879-8.935 19.879-19.88.053-4.335-1.321-8.301-3.595-11.526z" fill="#DADADA"/><path fill-rule="evenodd" clip-rule="evenodd" d="M108.716 225.845a20.373 20.373 0 0 0-5.129-5.498c-.687-.529-1.427-.952-2.167-1.375a19.78 19.78 0 0 0-6.768-2.326 18.874 18.874 0 0 0-3.066-.265c-.74 0-1.428.053-2.115.106a16.917 16.917 0 0 0-3.331.634c-.317.106-.582.159-.846.265-2.644.846-5.023 2.273-7.085 4.071-1.692 1.48-3.12 3.278-4.282 5.234a19.997 19.997 0 0 0-2.644 9.993c0 3.648.952 7.032 2.644 9.993a20.426 20.426 0 0 0 4.282 5.234 21.014 21.014 0 0 0 7.085 4.071c.264.106.582.159.846.264 1.057.318 2.168.529 3.33.635a28.25 28.25 0 0 0 2.116.106c1.057 0 2.114-.106 3.119-.265a19.782 19.782 0 0 0 6.768-2.326c.74-.423 1.48-.899 2.167-1.375 2.009-1.48 3.754-3.384 5.129-5.498a20.316 20.316 0 0 0 3.119-10.839 19.9 19.9 0 0 0-3.172-10.839zm-7.243-5.551c.74.476 1.48.951 2.167 1.533.529.423 1.005.846 1.481 1.322.423.423.846.846 1.216 1.322-.053 0-.106-.053-.159-.053a18.332 18.332 0 0 0-2.485-2.485c-.317-.212-.581-.476-.899-.635a16.019 16.019 0 0 0-1.269-.74 13.56 13.56 0 0 0-2.749-1.11 4.802 4.802 0 0 0-1.11-.952 27.615 27.615 0 0 1 3.807 1.798zm-6.768.423c.846-.529 2.273-.952 3.648-1.005 1.11.265 2.115.687 3.12 1.216.37.212.74.423 1.057.635.37.264.74.528 1.057.793a19.782 19.782 0 0 1 2.908 3.013c.741 1.534 1.005 3.384.582 4.706-1.163.317-2.274.634-3.49.899-.581.158-1.216.317-1.797.423-.106-.106-.212-.265-.37-.37-1.64-1.692-3.754-3.014-5.922-3.807-.106-1.163-.264-2.326-.529-3.437-.105-.423-.211-.793-.317-1.216-.159-.528-.317-1.004-.529-1.427.212-.159.37-.318.582-.423zm-5.234-.846c1.692.158 3.225.581 4.388 1.322.37.793.635 1.691.846 2.643v.053c.264 1.11.423 2.273.529 3.384-.159.106-.37.158-.529.264-1.903 1.058-3.965 2.644-5.234 4.018-.053.053-.106.159-.212.212-1.057-.317-2.062-.529-3.12-.74-.21-.053-.422-.106-.634-.106l-.211-.053a43.355 43.355 0 0 0-3.648-.476c-.793-1.797-1.058-3.595-1.11-5.604.74-1.058 1.691-2.009 2.749-2.855a25.283 25.283 0 0 1 1.956-1.322c.264-.159.582-.317.846-.423.317-.159.634-.264.952-.423.846 0 1.639 0 2.432.106zm2.22 19.404c-.634 1.11-1.427 2.22-2.22 3.278l-.053.053a46.933 46.933 0 0 1-2.538 3.119h-.793c-.317 0-.582 0-.846-.053a18.106 18.106 0 0 1-5.657-1.375 21.397 21.397 0 0 1-1.375-2.96c-.106-.265-.211-.582-.317-.846-.423-1.216-.688-2.485-.899-3.807.37-.899.74-1.692 1.216-2.432.952-1.586 2.115-2.802 3.384-3.701 1.269.106 2.485.264 3.7.476l.16.053c.211.052.475.105.687.105 1.004.212 1.956.423 2.96.688.106.37.265.793.37 1.163a95.684 95.684 0 0 0 2.221 6.239zm-13.64-16.126.105-.106c2.01-1.956 4.388-3.489 7.085-4.388a5.19 5.19 0 0 1 .846-.265 7.163 7.163 0 0 1 1.004-.264c-.37.37-.422.899-.475 1.533-.159.053-.318.159-.476.212-.317.158-.582.264-.846.423-.793.423-1.533.899-2.168 1.374a13.238 13.238 0 0 0-2.802 2.908c-.74.159-1.428.37-2.115.635-1.057.423-1.903 1.004-2.59 1.745 0-.159-.053-.318-.053-.476v-.212a17.388 17.388 0 0 1 2.484-3.119zm-4.124 6.186c.37-.899.845-1.798 1.321-2.591 0 .212.053.37.106.582l-.053.105a9.503 9.503 0 0 0-1.322 2.75c-.423 1.374-.687 2.802-.581 4.177-.317.317-.582.687-.846 1.163a18.223 18.223 0 0 1 1.374-6.186zm2.96 19.457c-.053 0-.105-.053-.105-.053a18.485 18.485 0 0 1-2.803-4.706 18.997 18.997 0 0 1-1.48-7.349v-.529c.053-.158.159-.317.264-.476.212-.37.476-.74.74-1.057l.476.476a8.33 8.33 0 0 0 2.75 1.586c.211 1.375.528 2.696.951 4.018.159.529.37 1.058.582 1.586.37.846.74 1.639 1.216 2.432-.582 1.481-.952 2.961-.846 4.547-.106 0-.211 0-.317-.053-.582-.105-1.005-.211-1.428-.422zm8.354 5.921a19.273 19.273 0 0 1-7.085-4.388l-.106-.106a13.187 13.187 0 0 1-.846-.899c.318.106.635.212 1.005.265.159 0 .264.052.423.052.74 1.587 4.071 3.86 6.292 4.283.053.212.158.529.317.793zm14.487-.74a19.886 19.886 0 0 1-5.023 1.586 20.084 20.084 0 0 1-3.12.264c-.74 0-1.427-.052-2.114-.105-1.163-.106-2.274-.37-3.331-.688-.106-.053-.212-.053-.264-.105-.265-.265-.424-.582-.582-.952v-.053c.317 0 .582-.053.846-.106 1.269-.211 2.326-.687 3.33-1.427.212-.159.424-.317.635-.529.899.37 2.22.529 3.595.529.318 0 .635 0 1.005-.053a21.013 21.013 0 0 0 3.648-.635c.476.635 1.058 1.216 1.745 1.587a2.865 2.865 0 0 1-.37.687zm1.745-.952c-.423.265-.794.476-1.216.688.052-.106.105-.265.158-.371.317-.105.687-.211 1.058-.317.052-.053.105-.053.158-.106l-.158.106zm0-4.652c-.846 1.216-1.798 2.273-2.697 2.855-1.216.423-2.696.687-4.071.793-.317 0-.687.053-1.005.053-1.427 0-2.696-.159-3.542-.529-.264-.317-.476-.635-.687-.952-.952-1.375-1.798-2.908-2.274-4.6.793-.951 1.534-1.85 2.274-2.802.105-.158.211-.264.317-.423.793-1.057 1.533-2.115 2.168-3.225.898.053 1.85.106 2.802.106 1.639 0 3.278-.053 4.917-.212.687.793 1.269 1.692 1.85 2.644.053.106.106.158.159.264a17.954 17.954 0 0 1 1.375 3.067 22.522 22.522 0 0 1-1.586 2.961zm2.114-2.961h-.317a25.87 25.87 0 0 0-1.427-3.225c-.159-.265-.265-.476-.423-.741-.476-.74-.952-1.48-1.534-2.114a24.08 24.08 0 0 0 1.534-4.389c.264-1.057.423-2.115.476-3.278.581-.158 1.11-.264 1.639-.423 1.163-.317 2.326-.581 3.489-.899.529.37 1.11 1.058 1.639 1.957a11.91 11.91 0 0 1 1.163 3.013c.106 1.745-.053 3.331-.476 4.864-.211.688-.423 1.375-.74 2.062-.264.635-.634 1.216-1.004 1.798-1.216.899-2.697 1.322-4.019 1.375zm3.913 1.797c.423-1.004.581-1.956.476-2.908.264-.423.528-.846.74-1.268.423-.846.793-1.745 1.057-2.697a15.64 15.64 0 0 0 .476-4.494c.106-.106.265-.317.37-.582.053.476.053.899.053 1.375 0 3.014-.687 5.869-1.956 8.407-.317.793-.74 1.48-1.216 2.167z" fill="url(#aK)"/></g><path d="M157.37 146.457H27.01" stroke="#9A6A31" stroke-width="1.139"/><defs><linearGradient id="S" x1="44.702" y1="223.288" x2="54.076" y2="231.661" gradientUnits="userSpaceOnUse"><stop stop-color="#D2AB68"/><stop offset="1" stop-color="#B67D3F"/></linearGradient><linearGradient id="K" x1="8.614" y1="199.047" x2="21.912" y2="210.924" gradientUnits="userSpaceOnUse"><stop stop-color="#D2AB68"/><stop offset="1" stop-color="#B67D3F"/></linearGradient><linearGradient id="b" x1="27.04" y1="234.953" x2="40.532" y2="230.931" gradientUnits="userSpaceOnUse"><stop stop-color="#C7A383"/><stop offset=".31" stop-color="#D5B198"/><stop offset=".524" stop-color="#CBA68C"/><stop offset=".772" stop-color="#BB9478"/><stop offset="1" stop-color="#D7B49B"/></linearGradient><linearGradient id="c" x1="159.659" y1="236.197" x2="122.361" y2="244.624" gradientUnits="userSpaceOnUse"><stop stop-color="#8D664F"/><stop offset=".209" stop-color="#C49F7D"/><stop offset=".648" stop-color="#FFF1DC"/><stop offset=".828" stop-color="#B38368"/><stop offset=".972" stop-color="#8C5F4C"/></linearGradient><linearGradient id="d" x1="155.074" y1="234.953" x2="141.583" y2="230.931" gradientUnits="userSpaceOnUse"><stop stop-color="#C7A383"/><stop offset=".31" stop-color="#D5B198"/><stop offset=".524" stop-color="#CBA68C"/><stop offset=".772" stop-color="#BB9478"/><stop offset="1" stop-color="#D7B49B"/></linearGradient><linearGradient id="e" x1="92.876" y1="221.825" x2="92.876" y2="288.134" gradientUnits="userSpaceOnUse"><stop stop-color="#B58D70"/><stop offset=".229" stop-color="#B58D70"/><stop offset=".477" stop-color="#D8B59B"/><stop offset=".883" stop-color="#B58D70"/><stop offset="1" stop-color="#B58D70"/></linearGradient><linearGradient id="f" x1="54.078" y1="250.394" x2="129.115" y2="275.937" gradientUnits="userSpaceOnUse"><stop stop-color="#8D664F"/><stop offset=".209" stop-color="#FFF5E6"/><stop offset=".648" stop-color="#ECD8BA"/><stop offset=".78" stop-color="#D0A568"/><stop offset=".972" stop-color="#8C5F4C"/></linearGradient><linearGradient id="g" x1="92.015" y1="209.127" x2="92.015" y2="287.16" gradientUnits="userSpaceOnUse"><stop stop-color="#DDBFA9"/><stop offset=".222" stop-color="#DDBFA9"/><stop offset=".67" stop-color="#EBD4C4"/><stop offset=".899" stop-color="#DDBFA9"/><stop offset="1" stop-color="#DDBFA9"/></linearGradient><linearGradient id="h" x1="124.179" y1="259.451" x2="95.872" y2="237.518" gradientUnits="userSpaceOnUse"><stop stop-color="#ECD8BA"/><stop offset=".31" stop-color="#EBD3AE"/><stop offset=".524" stop-color="#E2C69C"/><stop offset=".772" stop-color="#E3C8A0"/><stop offset="1" stop-color="#ECD8BA"/></linearGradient><linearGradient id="i" x1="102.949" y1="275.084" x2="83.194" y2="275.958" gradientUnits="userSpaceOnUse"><stop stop-color="#E5CBA6"/><stop offset=".31" stop-color="#fff"/><stop offset=".524" stop-color="#F3E2C9"/><stop offset=".73" stop-color="#FFF0D9"/><stop offset="1" stop-color="#EFDCC0"/></linearGradient><linearGradient id="k" x1="56.469" y1="-10.097" x2="146.982" y2="149.472" gradientUnits="userSpaceOnUse"><stop stop-color="#FFF5DE"/><stop offset="1" stop-color="#CFA365"/></linearGradient><linearGradient id="l" x1="55.958" y1="3.965" x2="133.616" y2="130.873" gradientUnits="userSpaceOnUse"><stop stop-color="#D2A86C"/><stop offset="1" stop-color="#F8E6C0"/></linearGradient><linearGradient id="n" x1="62.962" y1="-.931" x2="146.429" y2="132.046" gradientUnits="userSpaceOnUse"><stop stop-color="#FFF6E7"/><stop offset="1" stop-color="#FFF8EC"/></linearGradient><linearGradient id="aK" x1="82.28" y1="216.381" x2="118.118" y2="229.226" gradientUnits="userSpaceOnUse"><stop stop-color="#D2AB68"/><stop offset="1" stop-color="#B67D3F"/></linearGradient><linearGradient id="q" x1="166.784" y1="5.591" x2="39.488" y2="201.38" gradientUnits="userSpaceOnUse"><stop stop-color="#fff"/><stop offset="1" stop-color="#F2EDED" stop-opacity="0"/></linearGradient><linearGradient id="s" x1="92.362" y1="146.574" x2="92.362" y2="228.249" gradientUnits="userSpaceOnUse"><stop stop-color="#E2B36F"/><stop offset="1" stop-color="#DDA555"/></linearGradient><linearGradient id="w" x1="29.596" y1="222.631" x2="43.147" y2="234.734" gradientUnits="userSpaceOnUse"><stop stop-color="#D2AB68"/><stop offset="1" stop-color="#B67D3F"/></linearGradient><linearGradient id="x" x1="25.94" y1="211.095" x2="35.361" y2="219.509" gradientUnits="userSpaceOnUse"><stop stop-color="#D2AB68"/><stop offset="1" stop-color="#B67D3F"/></linearGradient><linearGradient id="y" x1="66.115" y1="242.314" x2="68.107" y2="238.475" gradientUnits="userSpaceOnUse"><stop stop-color="#D2AB68"/><stop offset="1" stop-color="#B67D3F"/></linearGradient><linearGradient id="z" x1="32.565" y1="213.916" x2="19.672" y2="218.99" gradientUnits="userSpaceOnUse"><stop stop-color="#D2AB68"/><stop offset="1" stop-color="#B67D3F"/></linearGradient><linearGradient id="A" x1="18.175" y1="217.262" x2="30.994" y2="221.79" gradientUnits="userSpaceOnUse"><stop stop-color="#F7E6B3"/><stop offset="1" stop-color="#F7E6B3" stop-opacity="0"/></linearGradient><linearGradient id="B" x1="66.772" y1="230.463" x2="83.308" y2="245.233" gradientUnits="userSpaceOnUse"><stop stop-color="#D2AB68"/><stop offset="1" stop-color="#B67D3F"/></linearGradient><linearGradient id="C" x1="68.571" y1="233.609" x2="80.046" y2="230.48" gradientUnits="userSpaceOnUse"><stop stop-color="#F7E6B3"/><stop offset="1" stop-color="#F7E6B3" stop-opacity="0"/></linearGradient><linearGradient id="D" x1="49.237" y1="235.469" x2="58.03" y2="243.322" gradientUnits="userSpaceOnUse"><stop stop-color="#D2AB68"/><stop offset="1" stop-color="#B67D3F"/></linearGradient><linearGradient id="E" x1="54.581" y1="237.237" x2="60.184" y2="240.91" gradientUnits="userSpaceOnUse"><stop stop-color="#C18E42"/><stop offset="1" stop-color="#D2AB68"/></linearGradient><linearGradient id="F" x1="33.122" y1="228.065" x2="44.24" y2="237.995" gradientUnits="userSpaceOnUse"><stop stop-color="#D2AB68"/><stop offset="1" stop-color="#8E573C"/></linearGradient><linearGradient id="G" x1="38.877" y1="221.474" x2="49.559" y2="231.014" gradientUnits="userSpaceOnUse"><stop stop-color="#D2AB68"/><stop offset="1" stop-color="#B67D3F"/></linearGradient><linearGradient id="H" x1="72.373" y1="247.379" x2="76.288" y2="250.876" gradientUnits="userSpaceOnUse"><stop stop-color="#D2AB68"/><stop offset="1" stop-color="#B67D3F"/></linearGradient><linearGradient id="I" x1="64.711" y1="244.325" x2="73.94" y2="252.568" gradientUnits="userSpaceOnUse"><stop stop-color="#C28766"/><stop offset="1" stop-color="#8E573C"/></linearGradient><linearGradient id="J" x1="7.604" y1="200.178" x2="20.902" y2="212.055" gradientUnits="userSpaceOnUse"><stop stop-color="#FCF1D5"/><stop offset="1" stop-color="#EBCE6A"/></linearGradient><linearGradient id="M" x1="21.102" y1="207.882" x2="33.164" y2="218.656" gradientUnits="userSpaceOnUse"><stop stop-color="#D2AB68"/><stop offset="1" stop-color="#B67D3F"/></linearGradient><linearGradient id="N" x1="22.074" y1="210.557" x2="34.549" y2="211.296" gradientUnits="userSpaceOnUse"><stop stop-color="#F7E6B3"/><stop offset="1" stop-color="#F7E6B3" stop-opacity="0"/></linearGradient><linearGradient id="O" x1="30.688" y1="225.622" x2="45.355" y2="230.027" gradientUnits="userSpaceOnUse"><stop stop-color="#F7E6B3"/><stop offset="1" stop-color="#F7E6B3" stop-opacity="0"/></linearGradient><linearGradient id="P" x1="33.374" y1="231.127" x2="45.611" y2="237.178" gradientUnits="userSpaceOnUse"><stop stop-color="#F7E6B3"/><stop offset="1" stop-color="#F7E6B3" stop-opacity="0"/></linearGradient><linearGradient id="Q" x1="39.971" y1="223.621" x2="48.457" y2="224.154" gradientUnits="userSpaceOnUse"><stop stop-color="#FFDD78"/><stop offset="1" stop-color="#FFF1C8" stop-opacity=".38"/></linearGradient><linearGradient id="a" x1="22.455" y1="236.197" x2="59.753" y2="244.624" gradientUnits="userSpaceOnUse"><stop stop-color="#8D664F"/><stop offset=".209" stop-color="#C49F7D"/><stop offset=".648" stop-color="#FFF1DC"/><stop offset=".828" stop-color="#B38368"/><stop offset=".972" stop-color="#8C5F4C"/></linearGradient><linearGradient id="T" x1="44.563" y1="223.152" x2="52.966" y2="233.049" gradientUnits="userSpaceOnUse"><stop stop-color="#FFDA92"/><stop offset="1" stop-color="#DCBA84"/></linearGradient><linearGradient id="V" x1="48.245" y1="244.772" x2="63.214" y2="241.029" gradientUnits="userSpaceOnUse"><stop stop-color="#F7E6B3"/><stop offset="1" stop-color="#BC8647"/></linearGradient><linearGradient id="W" x1="52.256" y1="240.462" x2="59.703" y2="247.114" gradientUnits="userSpaceOnUse"><stop stop-color="#D2AB68"/><stop offset="1" stop-color="#8E573C"/></linearGradient><linearGradient id="X" x1="63.644" y1="248.017" x2="72.289" y2="253.851" gradientUnits="userSpaceOnUse"><stop stop-color="#F7E6B3"/><stop offset="1" stop-color="#F7E6B3" stop-opacity="0"/></linearGradient><linearGradient id="Z" x1="69.909" y1="236.748" x2="81.172" y2="246.808" gradientUnits="userSpaceOnUse"><stop stop-color="#D2AB68"/><stop offset="1" stop-color="#B67D3F"/></linearGradient><linearGradient id="aa" x1="67.553" y1="239.154" x2="82.383" y2="244.538" gradientUnits="userSpaceOnUse"><stop stop-color="#E0C087"/><stop offset=".281" stop-color="#FFE49E"/><stop offset="1" stop-color="#753C1D"/></linearGradient><linearGradient id="ab" x1="72.272" y1="250.178" x2="75.307" y2="253.852" gradientUnits="userSpaceOnUse"><stop stop-color="#B18253"/><stop offset="1" stop-color="#F7E6B3" stop-opacity="0"/></linearGradient><linearGradient id="ad" x1="153.583" y1="222.631" x2="140.032" y2="234.734" gradientUnits="userSpaceOnUse"><stop stop-color="#D2AB68"/><stop offset="1" stop-color="#B67D3F"/></linearGradient><linearGradient id="ae" x1="157.239" y1="211.095" x2="147.818" y2="219.509" gradientUnits="userSpaceOnUse"><stop stop-color="#D2AB68"/><stop offset="1" stop-color="#B67D3F"/></linearGradient><linearGradient id="af" x1="117.064" y1="242.314" x2="115.072" y2="238.475" gradientUnits="userSpaceOnUse"><stop stop-color="#D2AB68"/><stop offset="1" stop-color="#B67D3F"/></linearGradient><linearGradient id="ag" x1="150.615" y1="213.916" x2="163.508" y2="218.991" gradientUnits="userSpaceOnUse"><stop stop-color="#D2AB68"/><stop offset="1" stop-color="#B67D3F"/></linearGradient><linearGradient id="ah" x1="165.004" y1="217.262" x2="152.186" y2="221.79" gradientUnits="userSpaceOnUse"><stop stop-color="#F7E6B3"/><stop offset="1" stop-color="#F7E6B3" stop-opacity="0"/></linearGradient><linearGradient id="ai" x1="116.407" y1="230.464" x2="99.871" y2="245.233" gradientUnits="userSpaceOnUse"><stop stop-color="#D2AB68"/><stop offset="1" stop-color="#B67D3F"/></linearGradient><linearGradient id="aj" x1="114.608" y1="233.61" x2="103.133" y2="230.48" gradientUnits="userSpaceOnUse"><stop stop-color="#F7E6B3"/><stop offset="1" stop-color="#F7E6B3" stop-opacity="0"/></linearGradient><linearGradient id="ak" x1="133.942" y1="235.469" x2="125.149" y2="243.323" gradientUnits="userSpaceOnUse"><stop stop-color="#D2AB68"/><stop offset="1" stop-color="#B67D3F"/></linearGradient><linearGradient id="al" x1="128.598" y1="237.237" x2="122.995" y2="240.91" gradientUnits="userSpaceOnUse"><stop stop-color="#C18E42"/><stop offset="1" stop-color="#D2AB68"/></linearGradient><linearGradient id="am" x1="150.057" y1="228.065" x2="138.939" y2="237.995" gradientUnits="userSpaceOnUse"><stop stop-color="#D2AB68"/><stop offset="1" stop-color="#8E573C"/></linearGradient><linearGradient id="an" x1="144.302" y1="221.474" x2="133.62" y2="231.014" gradientUnits="userSpaceOnUse"><stop stop-color="#D2AB68"/><stop offset="1" stop-color="#B67D3F"/></linearGradient><linearGradient id="ao" x1="110.807" y1="247.379" x2="106.891" y2="250.876" gradientUnits="userSpaceOnUse"><stop stop-color="#D2AB68"/><stop offset="1" stop-color="#B67D3F"/></linearGradient><linearGradient id="ap" x1="118.468" y1="244.325" x2="109.239" y2="252.568" gradientUnits="userSpaceOnUse"><stop stop-color="#C28766"/><stop offset="1" stop-color="#8E573C"/></linearGradient><linearGradient id="aq" x1="175.575" y1="200.178" x2="162.277" y2="212.055" gradientUnits="userSpaceOnUse"><stop stop-color="#FCF1D5"/><stop offset="1" stop-color="#EBCE6A"/></linearGradient><linearGradient id="ar" x1="174.565" y1="199.047" x2="161.267" y2="210.924" gradientUnits="userSpaceOnUse"><stop stop-color="#D2AB68"/><stop offset="1" stop-color="#B67D3F"/></linearGradient><linearGradient id="at" x1="162.078" y1="207.882" x2="150.015" y2="218.656" gradientUnits="userSpaceOnUse"><stop stop-color="#D2AB68"/><stop offset="1" stop-color="#B67D3F"/></linearGradient><linearGradient id="au" x1="161.105" y1="210.557" x2="148.63" y2="211.297" gradientUnits="userSpaceOnUse"><stop stop-color="#F7E6B3"/><stop offset="1" stop-color="#F7E6B3" stop-opacity="0"/></linearGradient><linearGradient id="av" x1="152.491" y1="225.622" x2="137.824" y2="230.027" gradientUnits="userSpaceOnUse"><stop stop-color="#F7E6B3"/><stop offset="1" stop-color="#F7E6B3" stop-opacity="0"/></linearGradient><linearGradient id="aw" x1="149.805" y1="231.127" x2="137.568" y2="237.178" gradientUnits="userSpaceOnUse"><stop stop-color="#F7E6B3"/><stop offset="1" stop-color="#F7E6B3" stop-opacity="0"/></linearGradient><linearGradient id="ax" x1="143.208" y1="223.621" x2="134.723" y2="224.154" gradientUnits="userSpaceOnUse"><stop stop-color="#FFDD78"/><stop offset="1" stop-color="#FFF1C8" stop-opacity=".38"/></linearGradient><linearGradient id="az" x1="138.477" y1="223.289" x2="129.103" y2="231.661" gradientUnits="userSpaceOnUse"><stop stop-color="#D2AB68"/><stop offset="1" stop-color="#B67D3F"/></linearGradient><linearGradient id="aA" x1="138.617" y1="223.152" x2="130.213" y2="233.049" gradientUnits="userSpaceOnUse"><stop stop-color="#FFDA92"/><stop offset="1" stop-color="#DCBA84"/></linearGradient><linearGradient id="aC" x1="134.934" y1="244.772" x2="119.965" y2="241.029" gradientUnits="userSpaceOnUse"><stop stop-color="#F7E6B3"/><stop offset="1" stop-color="#BC8647"/></linearGradient><linearGradient id="aD" x1="130.924" y1="240.462" x2="123.476" y2="247.114" gradientUnits="userSpaceOnUse"><stop stop-color="#D2AB68"/><stop offset="1" stop-color="#8E573C"/></linearGradient><linearGradient id="aE" x1="119.535" y1="248.018" x2="110.891" y2="253.851" gradientUnits="userSpaceOnUse"><stop stop-color="#F7E6B3"/><stop offset="1" stop-color="#F7E6B3" stop-opacity="0"/></linearGradient><linearGradient id="aG" x1="113.27" y1="236.748" x2="102.007" y2="246.808" gradientUnits="userSpaceOnUse"><stop stop-color="#D2AB68"/><stop offset="1" stop-color="#B67D3F"/></linearGradient><linearGradient id="aH" x1="115.627" y1="239.153" x2="100.796" y2="244.538" gradientUnits="userSpaceOnUse"><stop stop-color="#E0C087"/><stop offset=".281" stop-color="#FFE49E"/><stop offset="1" stop-color="#753C1D"/></linearGradient><linearGradient id="aI" x1="110.907" y1="250.178" x2="107.872" y2="253.852" gradientUnits="userSpaceOnUse"><stop stop-color="#B18253"/><stop offset="1" stop-color="#F7E6B3" stop-opacity="0"/></linearGradient><filter id="aF" x="99.102" y="234.469" width="17.201" height="17.358" filterUnits="userSpaceOnUse" color-interpolation-filters="sRGB"><feFlood flood-opacity="0" result="BackgroundImageFix"/><feColorMatrix in="SourceAlpha" values="0 0 0 0 0 0 0 0 0 0 0 0 0 0 0 0 0 0 127 0" result="hardAlpha"/><feOffset dy="1.694"/><feGaussianBlur stdDeviation=".424"/><feColorMatrix values="0 0 0 0 0.541667 0 0 0 0 0.336104 0 0 0 0 0.0947917 0 0 0 0.25 0"/><feBlend in2="BackgroundImageFix" result="effect1_dropShadow"/><feBlend in="SourceGraphic" in2="effect1_dropShadow" result="shape"/></filter><filter id="aJ" x="57.985" y="208.632" width="66.844" height="66.844" filterUnits="userSpaceOnUse" color-interpolation-filters="sRGB"><feFlood flood-opacity="0" result="BackgroundImageFix"/><feColorMatrix in="SourceAlpha" values="0 0 0 0 0 0 0 0 0 0 0 0 0 0 0 0 0 0 127 0" result="hardAlpha"/><feOffset dy="5.315"/><feGaussianBlur stdDeviation="3.796"/><feColorMatrix values="0 0 0 0 0 0 0 0 0 0 0 0 0 0 0 0 0 0 0.25 0"/><feBlend in2="BackgroundImageFix" result="effect1_dropShadow"/><feBlend in="SourceGraphic" in2="effect1_dropShadow" result="shape"/></filter><filter id="j" x=".833" y=".883" width="181.425" height="259.42" filterUnits="userSpaceOnUse" color-interpolation-filters="sRGB"><feFlood flood-opacity="0" result="BackgroundImageFix"/><feColorMatrix in="SourceAlpha" values="0 0 0 0 0 0 0 0 0 0 0 0 0 0 0 0 0 0 127 0" result="hardAlpha"/><feOffset dy="2.004"/><feGaussianBlur stdDeviation="3.599"/><feColorMatrix values="0 0 0 0 0 0 0 0 0 0 0 0 0 0 0 0 0 0 0.3 0"/><feBlend in2="BackgroundImageFix" result="effect1_dropShadow"/><feBlend in="SourceGraphic" in2="effect1_dropShadow" result="shape"/></filter><filter id="m" x="20.191" y="14.465" width="142.708" height="220.883" filterUnits="userSpaceOnUse" color-interpolation-filters="sRGB"><feFlood flood-opacity="0" result="BackgroundImageFix"/><feBlend in="SourceGraphic" in2="BackgroundImageFix" result="shape"/><feGaussianBlur stdDeviation=".123" result="effect1_foregroundBlur"/></filter><filter id="r" x="27.072" y="22.541" width="130.283" height="204.72" filterUnits="userSpaceOnUse" color-interpolation-filters="sRGB"><feFlood flood-opacity="0" result="BackgroundImageFix"/><feBlend in="SourceGraphic" in2="BackgroundImageFix" result="shape"/><feColorMatrix in="SourceAlpha" values="0 0 0 0 0 0 0 0 0 0 0 0 0 0 0 0 0 0 127 0" result="hardAlpha"/><feOffset/><feGaussianBlur stdDeviation="5.514"/><feComposite in2="hardAlpha" operator="arithmetic" k2="-1" k3="1"/><feColorMatrix values="0 0 0 0 0.458333 0 0 0 0 0.256743 0 0 0 0 0.0706597 0 0 0 1 0"/><feBlend in2="shape" result="effect1_innerShadow"/></filter><filter id="u" x="27.072" y="5.731" width="130.283" height="222.131" filterUnits="userSpaceOnUse" color-interpolation-filters="sRGB"><feFlood flood-opacity="0" result="BackgroundImageFix"/><feBlend in="SourceGraphic" in2="BackgroundImageFix" result="shape"/><feColorMatrix in="SourceAlpha" values="0 0 0 0 0 0 0 0 0 0 0 0 0 0 0 0 0 0 127 0" result="hardAlpha"/><feOffset/><feGaussianBlur stdDeviation="5.514"/><feComposite in2="hardAlpha" operator="arithmetic" k2="-1" k3="1"/><feColorMatrix values="0 0 0 0 0.458333 0 0 0 0 0.256743 0 0 0 0 0.0706597 0 0 0 1 0"/><feBlend in2="shape" result="effect1_innerShadow"/></filter><filter id="v" x="5.573" y="199.051" width="85.662" height="66.068" filterUnits="userSpaceOnUse" color-interpolation-filters="sRGB"><feFlood flood-opacity="0" result="BackgroundImageFix"/><feColorMatrix in="SourceAlpha" values="0 0 0 0 0 0 0 0 0 0 0 0 0 0 0 0 0 0 127 0" result="hardAlpha"/><feOffset dy="3.037"/><feGaussianBlur stdDeviation="1.518"/><feColorMatrix values="0 0 0 0 0 0 0 0 0 0 0 0 0 0 0 0 0 0 0.25 0"/><feBlend in2="BackgroundImageFix" result="effect1_dropShadow"/><feBlend in="SourceGraphic" in2="effect1_dropShadow" result="shape"/></filter><filter id="L" x="18.19" y="206.395" width="17.149" height="17.113" filterUnits="userSpaceOnUse" color-interpolation-filters="sRGB"><feFlood flood-opacity="0" result="BackgroundImageFix"/><feColorMatrix in="SourceAlpha" values="0 0 0 0 0 0 0 0 0 0 0 0 0 0 0 0 0 0 127 0" result="hardAlpha"/><feOffset dy="1.694"/><feGaussianBlur stdDeviation=".424"/><feColorMatrix values="0 0 0 0 0.541667 0 0 0 0 0.336104 0 0 0 0 0.0947917 0 0 0 0.25 0"/><feBlend in2="BackgroundImageFix" result="effect1_dropShadow"/><feBlend in="SourceGraphic" in2="effect1_dropShadow" result="shape"/></filter><filter id="R" x="41.232" y="220.467" width="15.848" height="16.347" filterUnits="userSpaceOnUse" color-interpolation-filters="sRGB"><feFlood flood-opacity="0" result="BackgroundImageFix"/><feColorMatrix in="SourceAlpha" values="0 0 0 0 0 0 0 0 0 0 0 0 0 0 0 0 0 0 127 0" result="hardAlpha"/><feOffset dy="1.694"/><feGaussianBlur stdDeviation=".424"/><feColorMatrix values="0 0 0 0 0.541667 0 0 0 0 0.336104 0 0 0 0 0.0947917 0 0 0 0.25 0"/><feBlend in2="BackgroundImageFix" result="effect1_dropShadow"/><feBlend in="SourceGraphic" in2="effect1_dropShadow" result="shape"/></filter><filter id="U" x="45.973" y="233.594" width="22.559" height="22.928" filterUnits="userSpaceOnUse" color-interpolation-filters="sRGB"><feFlood flood-opacity="0" result="BackgroundImageFix"/><feColorMatrix in="SourceAlpha" values="0 0 0 0 0 0 0 0 0 0 0 0 0 0 0 0 0 0 127 0" result="hardAlpha"/><feOffset dx="1.694" dy="1.694"/><feGaussianBlur stdDeviation=".424"/><feColorMatrix values="0 0 0 0 0.541667 0 0 0 0 0.336104 0 0 0 0 0.0947917 0 0 0 0.25 0"/><feBlend in2="BackgroundImageFix" result="effect1_dropShadow"/><feBlend in="SourceGraphic" in2="effect1_dropShadow" result="shape"/></filter><filter id="Y" x="66.877" y="234.469" width="17.2" height="17.358" filterUnits="userSpaceOnUse" color-interpolation-filters="sRGB"><feFlood flood-opacity="0" result="BackgroundImageFix"/><feColorMatrix in="SourceAlpha" values="0 0 0 0 0 0 0 0 0 0 0 0 0 0 0 0 0 0 127 0" result="hardAlpha"/><feOffset dy="1.694"/><feGaussianBlur stdDeviation=".424"/><feColorMatrix values="0 0 0 0 0.541667 0 0 0 0 0.336104 0 0 0 0 0.0947917 0 0 0 0.25 0"/><feBlend in2="BackgroundImageFix" result="effect1_dropShadow"/><feBlend in="SourceGraphic" in2="effect1_dropShadow" result="shape"/></filter><filter id="ac" x="91.944" y="199.052" width="85.662" height="66.067" filterUnits="userSpaceOnUse" color-interpolation-filters="sRGB"><feFlood flood-opacity="0" result="BackgroundImageFix"/><feColorMatrix in="SourceAlpha" values="0 0 0 0 0 0 0 0 0 0 0 0 0 0 0 0 0 0 127 0" result="hardAlpha"/><feOffset dy="3.037"/><feGaussianBlur stdDeviation="1.518"/><feColorMatrix values="0 0 0 0 0 0 0 0 0 0 0 0 0 0 0 0 0 0 0.25 0"/><feBlend in2="BackgroundImageFix" result="effect1_dropShadow"/><feBlend in="SourceGraphic" in2="effect1_dropShadow" result="shape"/></filter><filter id="as" x="147.84" y="206.396" width="17.149" height="17.113" filterUnits="userSpaceOnUse" color-interpolation-filters="sRGB"><feFlood flood-opacity="0" result="BackgroundImageFix"/><feColorMatrix in="SourceAlpha" values="0 0 0 0 0 0 0 0 0 0 0 0 0 0 0 0 0 0 127 0" result="hardAlpha"/><feOffset dy="1.694"/><feGaussianBlur stdDeviation=".424"/><feColorMatrix values="0 0 0 0 0.541667 0 0 0 0 0.336104 0 0 0 0 0.0947917 0 0 0 0.25 0"/><feBlend in2="BackgroundImageFix" result="effect1_dropShadow"/><feBlend in="SourceGraphic" in2="effect1_dropShadow" result="shape"/></filter><filter id="ay" x="126.099" y="220.467" width="15.848" height="16.347" filterUnits="userSpaceOnUse" color-interpolation-filters="sRGB"><feFlood flood-opacity="0" result="BackgroundImageFix"/><feColorMatrix in="SourceAlpha" values="0 0 0 0 0 0 0 0 0 0 0 0 0 0 0 0 0 0 127 0" result="hardAlpha"/><feOffset dy="1.694"/><feGaussianBlur stdDeviation=".424"/><feColorMatrix values="0 0 0 0 0.541667 0 0 0 0 0.336104 0 0 0 0 0.0947917 0 0 0 0.25 0"/><feBlend in2="BackgroundImageFix" result="effect1_dropShadow"/><feBlend in="SourceGraphic" in2="effect1_dropShadow" result="shape"/></filter><filter id="aB" x="117.188" y="233.594" width="22.559" height="22.928" filterUnits="userSpaceOnUse" color-interpolation-filters="sRGB"><feFlood flood-opacity="0" result="BackgroundImageFix"/><feColorMatrix in="SourceAlpha" values="0 0 0 0 0 0 0 0 0 0 0 0 0 0 0 0 0 0 127 0" result="hardAlpha"/><feOffset dx="1.694" dy="1.694"/><feGaussianBlur stdDeviation=".424"/><feColorMatrix values="0 0 0 0 0.541667 0 0 0 0 0.336104 0 0 0 0 0.0947917 0 0 0 0.25 0"/><feBlend in2="BackgroundImageFix" result="effect1_dropShadow"/><feBlend in="SourceGraphic" in2="effect1_dropShadow" result="shape"/></filter><radialGradient id="p" cx="0" cy="0" r="1" gradientUnits="userSpaceOnUse" gradientTransform="matrix(0 85.2261 -65.1417 0 92.214 72.87)"><stop stop-color="#FFE4BA"/><stop offset="1" stop-color="#DEA44D"/></radialGradient><clipPath id="t"><path fill="#fff" transform="translate(27.01 146.457)" d="M0 0h130.587v82.756H0z"/></clipPath></defs></svg>