<svg width="133" height="226" viewBox="0 0 133 226" fill="none" xmlns="http://www.w3.org/2000/svg">
<mask id="path-1-inside-1" fill="white">
<path fill-rule="evenodd" clip-rule="evenodd" d="M22.3365 0H66.0441H109.752C122.088 0 132.088 10.0004 132.088 22.3365L132.088 160.203C132.088 170.281 125.339 179.111 115.614 181.756L102.068 185.441V204.031C102.068 204.05 102.067 204.069 102.067 204.087C102.066 204.097 102.066 204.106 102.065 204.116C102.038 204.572 101.785 204.986 101.386 205.217L81.8374 216.525V216.525L81.1276 216.936L81.1275 216.935V216.834L66.2673 225.358C65.8453 225.6 65.3263 225.6 64.9052 225.356L50.9599 217.289L50.9596 217.289V217.291L50.2498 216.881V216.878L30.701 205.57C30.2794 205.327 30.0198 204.876 30.0198 204.389V185.441L16.4742 181.756C6.74915 179.111 0 170.281 0 160.203L1.65371e-05 22.3365C1.78538e-05 10.0004 10.0004 0 22.3365 0Z"/>
</mask>
<path fill-rule="evenodd" clip-rule="evenodd" d="M22.3365 0H66.0441H109.752C122.088 0 132.088 10.0004 132.088 22.3365L132.088 160.203C132.088 170.281 125.339 179.111 115.614 181.756L102.068 185.441V204.031C102.068 204.05 102.067 204.069 102.067 204.087C102.066 204.097 102.066 204.106 102.065 204.116C102.038 204.572 101.785 204.986 101.386 205.217L81.8374 216.525V216.525L81.1276 216.936L81.1275 216.935V216.834L66.2673 225.358C65.8453 225.6 65.3263 225.6 64.9052 225.356L50.9599 217.289L50.9596 217.289V217.291L50.2498 216.881V216.878L30.701 205.57C30.2794 205.327 30.0198 204.876 30.0198 204.389V185.441L16.4742 181.756C6.74915 179.111 0 170.281 0 160.203L1.65371e-05 22.3365C1.78538e-05 10.0004 10.0004 0 22.3365 0Z" fill="url(#paint0_linear)" fill-opacity="0.3"/>
<path d="M132.088 22.3365H133.088H132.088ZM132.088 160.203H131.088H132.088ZM115.614 181.756L115.876 182.721L115.614 181.756ZM102.068 185.441L101.805 184.476L101.068 184.676V185.441H102.068ZM102.067 204.087L101.068 204.046L101.068 204.047L102.067 204.087ZM102.065 204.116L101.067 204.054L101.067 204.057L102.065 204.116ZM101.386 205.217L101.887 206.082H101.887L101.386 205.217ZM81.8374 216.525L81.3367 215.659L80.8374 215.948V216.525H81.8374ZM81.8374 216.525L82.3381 217.391L82.8374 217.102V216.525H81.8374ZM81.1276 216.936L80.1292 216.993L80.2219 218.615L81.6283 217.801L81.1276 216.936ZM81.1275 216.935H80.1275V216.964L80.1292 216.992L81.1275 216.935ZM81.1275 216.834H82.1275V215.107L80.63 215.966L81.1275 216.834ZM66.2673 225.358L65.7697 224.491L66.2673 225.358ZM64.9052 225.356L65.4059 224.49L65.4059 224.49L64.9052 225.356ZM50.9599 217.289L51.4606 216.424L51.4507 216.418L50.9599 217.289ZM50.9596 217.289L51.4504 216.418L49.9596 215.578V217.289H50.9596ZM50.9596 217.291L50.4589 218.157L51.9596 219.025V217.291H50.9596ZM50.2498 216.881H49.2498V217.457L49.749 217.746L50.2498 216.881ZM50.2498 216.878H51.2498V216.302L50.7505 216.013L50.2498 216.878ZM30.701 205.57L31.2017 204.705L31.2017 204.705L30.701 205.57ZM30.0198 185.441H31.0198V184.676L30.2822 184.476L30.0198 185.441ZM16.4742 181.756L16.2118 182.721L16.4742 181.756ZM0 160.203H-1H0ZM1.65371e-05 22.3365H1.00002H1.65371e-05ZM66.0441 -1H63.3124V1H66.0441V-1ZM57.8489 -1H52.3855V1H57.8489V-1ZM46.922 -1H41.4586V1H46.922V-1ZM35.9951 -1H30.5317V1H35.9951V-1ZM25.0683 -1H22.3365V1H25.0683V-1ZM22.3365 -1C21.5651 -1 20.8022 -0.962538 20.0495 -0.889281L20.2432 1.10131C20.9316 1.03431 21.6299 1 22.3365 1V-1ZM15.5604 -0.000741595C14.084 0.446575 12.6696 1.03617 11.3331 1.75198L12.2775 3.51501C13.499 2.86072 14.7915 2.322 16.1403 1.91334L15.5604 -0.000741595ZM7.53135 4.29684C6.35066 5.26692 5.26694 6.35064 4.29686 7.53133L5.84217 8.80099C6.72956 7.72094 7.72095 6.72954 8.80101 5.84215L7.53135 4.29684ZM1.752 11.3331C1.03619 12.6695 0.446593 14.084 -0.000723684 15.5604L1.91336 16.1403C2.32202 14.7915 2.86074 13.499 3.51503 12.2774L1.752 11.3331ZM-0.889265 20.0494C-0.962521 20.8022 -0.999983 21.5651 -0.999983 22.3365H1.00002C1.00002 21.6299 1.03433 20.9316 1.10133 20.2432L-0.889265 20.0494ZM-0.999983 22.3365L-0.999984 24.7984H1.00002L1.00002 22.3365H-0.999983ZM-0.999984 29.7222L-0.999985 34.646H1.00002L1.00002 29.7222H-0.999984ZM-0.999986 39.5698L-0.999986 44.4936H1.00001L1.00001 39.5698H-0.999986ZM-0.999987 49.4174L-0.999987 54.3412H1.00001L1.00001 49.4174H-0.999987ZM-0.999988 59.265L-0.999988 64.1888H1.00001L1.00001 59.265H-0.999988ZM-0.999989 69.1126L-0.99999 74.0364H1.00001L1.00001 69.1126H-0.999989ZM-0.99999 78.9602L-0.999991 83.884H1.00001L1.00001 78.9602H-0.99999ZM-0.999991 88.8078L-0.999992 93.7316H1.00001L1.00001 88.8078H-0.999991ZM-0.999993 98.6554L-0.999993 103.579H1.00001L1.00001 98.6554H-0.999993ZM-0.999994 108.503L-0.999994 113.427H1.00001L1.00001 108.503H-0.999994ZM-0.999995 118.351L-0.999996 123.274H1L1.00001 118.351H-0.999995ZM-0.999996 128.198L-0.999997 133.122H1L1 128.198H-0.999996ZM-0.999997 138.046L-0.999998 142.97H1L1 138.046H-0.999997ZM-0.999999 147.893L-0.999999 152.817H1L1 147.893H-0.999999ZM-1 157.741L-1 160.203H1L1 157.741H-1ZM-1 160.203C-1 161.057 -0.953611 161.902 -0.862898 162.737L1.12538 162.52C1.04245 161.758 1 160.984 1 160.203H-1ZM0.229684 167.684C0.775816 169.297 1.49447 170.837 2.36672 172.278L4.07788 171.243C3.28023 169.925 2.62323 168.517 2.12404 167.043L0.229684 167.684ZM5.44322 176.303C6.60535 177.523 7.90236 178.621 9.31544 179.571L10.4316 177.912C9.13994 177.043 7.95411 176.04 6.89137 174.924L5.44322 176.303ZM13.8029 181.924C14.5842 182.231 15.3878 182.497 16.2118 182.721L16.7367 180.791C15.9827 180.586 15.2476 180.342 14.5333 180.062L13.8029 181.924ZM16.2118 182.721L19.5982 183.642L20.1231 181.713L16.7367 180.791L16.2118 182.721ZM26.3709 185.485L29.7573 186.406L30.2822 184.476L26.8958 183.555L26.3709 185.485ZM29.0198 185.441V187.809H31.0198V185.441H29.0198ZM29.0198 192.546V197.284H31.0198V192.546H29.0198ZM29.0198 202.021V204.389H31.0198V202.021H29.0198ZM29.0198 204.389C29.0198 204.598 29.0474 204.804 29.1002 205.001L31.0321 204.484C31.0241 204.453 31.0198 204.422 31.0198 204.389H29.0198ZM29.7112 206.06C29.8554 206.205 30.0194 206.331 30.2003 206.436L31.2017 204.705C31.1736 204.689 31.1484 204.669 31.1264 204.647L29.7112 206.06ZM30.2003 206.436L32.6439 207.85L33.6453 206.118L31.2017 204.705L30.2003 206.436ZM37.5311 210.677L42.4183 213.504L43.4197 211.772L38.5325 208.945L37.5311 210.677ZM47.3054 216.331L49.749 217.744L50.7505 216.013L48.3069 214.599L47.3054 216.331ZM49.2498 216.878V216.879H51.2498V216.878H49.2498ZM49.2498 216.88V216.881H51.2498V216.88H49.2498ZM49.749 217.746L49.9265 217.849L50.9279 216.118L50.7505 216.015L49.749 217.746ZM50.2814 218.054L50.4589 218.157L51.4603 216.425L51.2828 216.323L50.2814 218.054ZM51.9596 217.291V217.291H49.9596V217.291H51.9596ZM51.9596 217.29V217.289H49.9596V217.29H51.9596ZM50.4687 218.16L50.4688 218.16L51.4505 216.418L51.4504 216.418L50.4687 218.16ZM50.469 218.16L50.469 218.16L51.4507 216.418L51.4506 216.418L50.469 218.16ZM50.4591 218.155L52.2023 219.163L53.2037 217.432L51.4606 216.424L50.4591 218.155ZM55.6886 221.18L59.175 223.197L60.1764 221.465L56.6901 219.449L55.6886 221.18ZM62.6613 225.213L64.4044 226.222L65.4059 224.49L63.6627 223.482L62.6613 225.213ZM64.4044 226.222C64.5852 226.326 64.7766 226.405 64.9734 226.458L65.4935 224.527C65.4634 224.519 65.434 224.507 65.4059 224.49L64.4044 226.222ZM66.195 226.46C66.392 226.408 66.5838 226.33 66.7649 226.226L65.7697 224.491C65.7415 224.507 65.7121 224.519 65.6819 224.527L66.195 226.46ZM66.7649 226.226L68.6224 225.16L67.6272 223.425L65.7697 224.491L66.7649 226.226ZM72.3375 223.029L76.0525 220.898L75.0574 219.163L71.3423 221.294L72.3375 223.029ZM79.7676 218.767L81.6251 217.701L80.63 215.966L78.7724 217.032L79.7676 218.767ZM80.1275 216.834V216.859H82.1275V216.834H80.1275ZM80.1275 216.91V216.935H82.1275V216.91H80.1275ZM80.1292 216.992L80.1292 216.993L82.1259 216.878L82.1259 216.878L80.1292 216.992ZM80.1292 216.993L80.1292 216.993L82.1259 216.879L82.1259 216.879L80.1292 216.993ZM81.6283 217.801L81.8057 217.699L80.8043 215.968L80.6269 216.07L81.6283 217.801ZM82.1607 217.494L82.3381 217.391L81.3367 215.66L81.1592 215.762L82.1607 217.494ZM82.8374 216.525V216.525H80.8374V216.525H82.8374ZM82.8374 216.525V216.525H80.8374V216.525H82.8374ZM82.3381 217.39L84.7817 215.977L83.7803 214.246L81.3367 215.659L82.3381 217.39ZM89.669 213.15L94.5562 210.323L93.5548 208.592L88.6676 211.419L89.669 213.15ZM99.4435 207.496L101.887 206.082L100.886 204.351L98.442 205.764L99.4435 207.496ZM101.887 206.082C102.058 205.983 102.213 205.865 102.351 205.731L100.957 204.297C100.936 204.317 100.912 204.336 100.886 204.351L101.887 206.082ZM102.958 204.748C103.016 204.564 103.052 204.371 103.064 204.175L101.067 204.057C101.065 204.087 101.06 204.117 101.051 204.145L102.958 204.748ZM103.063 204.178C103.064 204.174 103.064 204.169 103.064 204.165L101.067 204.052C101.067 204.053 101.067 204.054 101.067 204.054L103.063 204.178ZM103.065 204.141C103.066 204.136 103.066 204.132 103.066 204.128L101.068 204.047C101.068 204.047 101.068 204.048 101.067 204.049L103.065 204.141ZM103.066 204.129C103.066 204.121 103.067 204.112 103.067 204.104L101.068 204.043C101.068 204.044 101.068 204.045 101.068 204.046L103.066 204.129ZM103.068 204.056C103.068 204.047 103.068 204.039 103.068 204.031H101.068C101.068 204.033 101.068 204.034 101.068 204.035L103.068 204.056ZM103.068 204.031V201.708H101.068V204.031H103.068ZM103.068 197.06V192.412H101.068V197.06H103.068ZM103.068 187.765V185.441H101.068V187.765H103.068ZM102.33 186.406L105.717 185.485L105.192 183.555L101.805 184.476L102.33 186.406ZM112.49 183.642L115.876 182.721L115.351 180.791L111.965 181.713L112.49 183.642ZM115.876 182.721C116.7 182.497 117.504 182.231 118.285 181.924L117.555 180.062C116.841 180.342 116.105 180.586 115.351 180.791L115.876 182.721ZM122.773 179.571C124.186 178.621 125.483 177.523 126.645 176.303L125.197 174.924C124.134 176.04 122.948 177.043 121.657 177.912L122.773 179.571ZM129.721 172.278C130.594 170.837 131.312 169.297 131.858 167.684L129.964 167.043C129.465 168.517 128.808 169.925 128.01 171.243L129.721 172.278ZM132.951 162.737C133.042 161.902 133.088 161.057 133.088 160.203H131.088C131.088 160.984 131.046 161.758 130.963 162.52L132.951 162.737ZM133.088 160.203V157.741H131.088V160.203H133.088ZM133.088 152.817V147.893H131.088V152.817H133.088ZM133.088 142.97V138.046H131.088V142.97H133.088ZM133.088 133.122V128.198H131.088V133.122H133.088ZM133.088 123.274V118.351H131.088V123.274H133.088ZM133.088 113.427V108.503H131.088V113.427H133.088ZM133.088 103.579V98.6554H131.088V103.579H133.088ZM133.088 93.7316L133.088 88.8078H131.088L131.088 93.7316H133.088ZM133.088 83.884V78.9602H131.088V83.884H133.088ZM133.088 74.0364V69.1126H131.088V74.0364H133.088ZM133.088 64.1888V59.265H131.088V64.1888H133.088ZM133.088 54.3412V49.4174H131.088V54.3412H133.088ZM133.088 44.4936V39.5698H131.088V44.4936H133.088ZM133.088 34.646V29.7222H131.088V34.646L133.088 34.646ZM133.088 24.7984V22.3365H131.088V24.7984L133.088 24.7984ZM133.088 22.3365C133.088 21.5651 133.051 20.8022 132.977 20.0495L130.987 20.2432C131.054 20.9316 131.088 21.6299 131.088 22.3365H133.088ZM132.089 15.5604C131.642 14.084 131.052 12.6696 130.336 11.3331L128.573 12.2775C129.227 13.499 129.766 14.7915 130.175 16.1404L132.089 15.5604ZM127.791 7.53135C126.821 6.35066 125.738 5.26693 124.557 4.29685L123.287 5.84216C124.367 6.72955 125.359 7.72095 126.246 8.80101L127.791 7.53135ZM120.755 1.75199C119.419 1.03618 118.004 0.44658 116.528 -0.000738141L115.948 1.91334C117.297 2.322 118.589 2.86072 119.811 3.51502L120.755 1.75199ZM112.039 -0.889281C111.286 -0.962538 110.523 -1 109.752 -1V1C110.458 1 111.157 1.03431 111.845 1.10131L112.039 -0.889281ZM109.752 -1H107.02V1H109.752V-1ZM101.556 -1H96.093V1H101.556V-1ZM90.6296 -1H85.1661V1H90.6296V-1ZM79.7027 -1H74.2392V1H79.7027V-1ZM68.7758 -1H66.0441V1H68.7758V-1ZM132.088 22.3365H134.088H132.088ZM132.088 160.203H130.088H132.088ZM115.614 181.756L116.139 183.686L115.614 181.756ZM102.068 185.441L101.543 183.511L100.068 183.912V185.441H102.068ZM102.067 204.087L100.068 204.005L100.068 204.006L102.067 204.087ZM102.065 204.116L100.069 203.992L100.069 203.998L102.065 204.116ZM101.386 205.217L102.388 206.948H102.388L101.386 205.217ZM81.8374 216.525L80.836 214.794L79.8374 215.371V216.525H81.8374ZM81.8374 216.525L82.8388 218.257L83.8374 217.679V216.525H81.8374ZM81.1276 216.936L79.1308 217.05L79.3162 220.294L82.129 218.667L81.1276 216.936ZM81.1275 216.935H79.1275V216.992L79.1308 217.049L81.1275 216.935ZM81.1275 216.834H83.1275V213.381L80.1324 215.099L81.1275 216.834ZM66.2673 225.358L65.2721 223.624H65.2721L66.2673 225.358ZM64.9052 225.356L65.9066 223.625H65.9066L64.9052 225.356ZM50.9599 217.289L51.9613 215.558L51.9515 215.552L51.9415 215.547L50.9599 217.289ZM50.9596 217.289L51.9413 215.547L48.9596 213.867V217.289H50.9596ZM50.9596 217.291L49.9582 219.022L52.9596 220.758V217.291H50.9596ZM50.2498 216.881H48.2498V218.034L49.2483 218.612L50.2498 216.881ZM50.2498 216.878H52.2498V215.725L51.2512 215.147L50.2498 216.878ZM30.701 205.57L31.7024 203.839L31.7024 203.839L30.701 205.57ZM30.0198 185.441H32.0198V183.912L30.5447 183.511L30.0198 185.441ZM16.4742 181.756L15.9493 183.686H15.9493L16.4742 181.756ZM0 160.203H-2H0ZM1.65371e-05 22.3365H2.00002H1.65371e-05ZM66.0441 -2H63.3124V2H66.0441V-2ZM57.8489 -2H52.3855V2H57.8489V-2ZM46.922 -2H41.4586V2H46.922V-2ZM35.9951 -2H30.5317V2H35.9951V-2ZM25.0683 -2H22.3365V2H25.0683V-2ZM22.3365 -2C21.5327 -2 20.7375 -1.96096 19.9526 -1.88458L20.3401 2.09661C20.9964 2.03274 21.6623 2 22.3365 2V-2ZM15.2705 -0.957782C13.7302 -0.491137 12.2548 0.123896 10.861 0.870468L12.7496 4.39653C13.9138 3.77299 15.1453 3.25971 16.4303 2.87038L15.2705 -0.957782ZM6.89652 3.52419C5.66551 4.53561 4.53563 5.66549 3.5242 6.8965L6.61482 9.43581C7.46087 8.40609 8.4061 7.46085 9.43583 6.6148L6.89652 3.52419ZM0.870485 10.861C0.123914 12.2548 -0.491119 13.7302 -0.957764 15.2705L2.8704 16.4303C3.25973 15.1452 3.77301 13.9137 4.39655 12.7496L0.870485 10.861ZM-1.88456 19.9526C-1.96095 20.7375 -1.99998 21.5327 -1.99998 22.3365H2.00002C2.00002 21.6623 2.03276 20.9963 2.09663 20.34L-1.88456 19.9526ZM-1.99998 22.3365L-1.99998 24.7984H2.00002L2.00002 22.3365H-1.99998ZM-1.99998 29.7222L-1.99998 34.646H2.00002L2.00002 29.7222H-1.99998ZM-1.99999 39.5698L-1.99999 44.4936H2.00001L2.00001 39.5698H-1.99999ZM-1.99999 49.4174L-1.99999 54.3412H2.00001L2.00001 49.4174H-1.99999ZM-1.99999 59.265L-1.99999 64.1888H2.00001L2.00001 59.265H-1.99999ZM-1.99999 69.1126L-1.99999 74.0364H2.00001L2.00001 69.1126H-1.99999ZM-1.99999 78.9602L-1.99999 83.884H2.00001L2.00001 78.9602H-1.99999ZM-1.99999 88.8078L-1.99999 93.7316H2.00001L2.00001 88.8078H-1.99999ZM-1.99999 98.6554L-1.99999 103.579H2.00001L2.00001 98.6554H-1.99999ZM-1.99999 108.503L-1.99999 113.427H2.00001L2.00001 108.503H-1.99999ZM-1.99999 118.351L-2 123.274H2L2.00001 118.351H-1.99999ZM-2 128.198L-2 133.122H2L2 128.198H-2ZM-2 138.046L-2 142.97H2L2 138.046H-2ZM-2 147.893L-2 152.817H2L2 147.893H-2ZM-2 157.741L-2 160.203H2L2 157.741H-2ZM-2 160.203C-2 161.093 -1.95164 161.975 -1.85704 162.845L2.11953 162.412C2.04048 161.685 2 160.948 2 160.203H-2ZM-0.717495 168.005C-0.14789 169.687 0.601593 171.293 1.51114 172.796L4.93345 170.725C4.17311 169.469 3.54693 168.127 3.07122 166.722L-0.717495 168.005ZM4.71914 176.993C5.93097 178.265 7.28357 179.41 8.75739 180.401L10.9896 177.082C9.75873 176.254 8.62849 175.298 7.61544 174.234L4.71914 176.993ZM13.4377 182.855C14.2524 183.175 15.0904 183.453 15.9493 183.686L16.9991 179.827C16.2801 179.631 15.5793 179.398 14.8986 179.131L13.4377 182.855ZM15.9493 183.686L19.3357 184.607L20.3855 180.748L16.9991 179.827L15.9493 183.686ZM26.1085 186.449L29.4949 187.371L30.5447 183.511L27.1583 182.59L26.1085 186.449ZM28.0198 185.441V187.809H32.0198V185.441H28.0198ZM28.0198 192.546V197.284H32.0198V192.546H28.0198ZM28.0198 202.021V204.389H32.0198V202.021H28.0198ZM28.0198 204.389C28.0198 204.687 28.0591 204.979 28.1342 205.26L31.9981 204.225C32.0124 204.278 32.0198 204.334 32.0198 204.389H28.0198ZM29.0036 206.767C29.2089 206.972 29.4423 207.153 29.6996 207.302L31.7024 203.839C31.7507 203.867 31.7949 203.901 31.8339 203.94L29.0036 206.767ZM29.6996 207.302L32.1432 208.715L34.146 205.253L31.7024 203.839L29.6996 207.302ZM37.0304 211.542L41.9175 214.369L43.9204 210.907L39.0332 208.08L37.0304 211.542ZM46.8047 217.196L49.2483 218.61L51.2512 215.147L48.8076 213.734L46.8047 217.196ZM48.2498 216.878V216.879H52.2498V216.878H48.2498ZM48.2498 216.88V216.881H52.2498V216.88H48.2498ZM49.2483 218.612L49.4258 218.714L51.4286 215.252L51.2512 215.149L49.2483 218.612ZM49.7807 218.92L49.9582 219.022L51.961 215.56L51.7836 215.457L49.7807 218.92ZM52.9596 217.291V217.291H48.9596V217.291H52.9596ZM52.9596 217.29V217.289H48.9596V217.29H52.9596ZM49.9779 219.032L49.978 219.032L51.9413 215.547L51.9413 215.547L49.9779 219.032ZM49.9781 219.032L49.9782 219.032L51.9415 215.547L51.9415 215.547L49.9781 219.032ZM49.9584 219.02L51.7016 220.029L53.7045 216.566L51.9613 215.558L49.9584 219.02ZM55.1879 222.045L58.6742 224.062L60.6771 220.6L57.1908 218.583L55.1879 222.045ZM62.1606 226.079L63.9037 227.087L65.9066 223.625L64.1634 222.616L62.1606 226.079ZM63.9037 227.087C64.1608 227.236 64.4332 227.348 64.7134 227.424L65.7535 223.561C65.8068 223.576 65.8584 223.597 65.9066 223.625L63.9037 227.087ZM66.4516 227.427C66.732 227.352 67.0049 227.241 67.2625 227.093L65.2721 223.624C65.3204 223.596 65.3721 223.575 65.4254 223.561L66.4516 227.427ZM67.2624 227.093L69.12 226.028L67.1296 222.558L65.2721 223.624L67.2624 227.093ZM72.835 223.897L76.5501 221.765L74.5598 218.296L70.8447 220.427L72.835 223.897ZM80.2652 219.634L82.1227 218.569L80.1324 215.099L78.2748 216.165L80.2652 219.634ZM79.1275 216.834V216.859H83.1275V216.834H79.1275ZM79.1275 216.91V216.935H83.1275V216.91H79.1275ZM79.1308 217.049L79.1308 217.05L83.1243 216.821L83.1243 216.821L79.1308 217.049ZM79.1308 217.05L79.1308 217.05L83.1243 216.822L83.1243 216.822L79.1308 217.05ZM82.129 218.667L82.3064 218.564L80.3036 215.102L80.1262 215.205L82.129 218.667ZM82.6614 218.359L82.8388 218.257L80.836 214.794L80.6585 214.897L82.6614 218.359ZM83.8374 216.525V216.525H79.8374V216.525H83.8374ZM83.8374 216.525V216.525H79.8374V216.525H83.8374ZM82.8388 218.256L85.2825 216.842L83.2796 213.38L80.836 214.794L82.8388 218.256ZM90.1697 214.015L95.0569 211.188L93.0541 207.726L88.1668 210.553L90.1697 214.015ZM99.9442 208.361L102.388 206.948L100.385 203.485L97.9413 204.899L99.9442 208.361ZM102.388 206.948C102.63 206.807 102.852 206.639 103.048 206.448L100.26 203.58C100.298 203.544 100.339 203.512 100.385 203.485L102.388 206.948ZM103.911 205.049C103.994 204.787 104.045 204.513 104.062 204.234L100.069 203.998C100.072 203.945 100.082 203.894 100.097 203.844L103.911 205.049ZM104.061 204.239C104.062 204.234 104.062 204.228 104.062 204.222L100.069 203.996C100.069 203.995 100.069 203.994 100.069 203.992L104.061 204.239ZM104.064 204.187C104.065 204.181 104.065 204.175 104.065 204.169L100.068 204.006C100.068 204.005 100.068 204.004 100.069 204.002L104.064 204.187ZM104.065 204.17C104.065 204.158 104.066 204.147 104.066 204.135L100.068 204.012C100.068 204.009 100.068 204.007 100.068 204.005L104.065 204.17ZM104.068 204.066C104.068 204.054 104.068 204.043 104.068 204.031H100.068C100.068 204.029 100.068 204.027 100.068 204.025L104.068 204.066ZM104.068 204.031V201.708H100.068V204.031H104.068ZM104.068 197.06V192.412H100.068V197.06H104.068ZM104.068 187.765V185.441H100.068V187.765H104.068ZM102.593 187.371L105.979 186.45L104.929 182.59L101.543 183.511L102.593 187.371ZM112.752 184.607L116.139 183.686L115.089 179.827L111.702 180.748L112.752 184.607ZM116.139 183.686C116.998 183.453 117.836 183.175 118.65 182.855L117.19 179.131C116.509 179.398 115.808 179.631 115.089 179.827L116.139 183.686ZM123.331 180.401C124.805 179.41 126.157 178.265 127.369 176.993L124.473 174.234C123.46 175.298 122.329 176.254 121.099 177.082L123.331 180.401ZM130.577 172.796C131.487 171.293 132.236 169.687 132.806 168.005L129.017 166.722C128.541 168.127 127.915 169.469 127.155 170.725L130.577 172.796ZM133.945 162.845C134.04 161.975 134.088 161.093 134.088 160.203H130.088C130.088 160.948 130.048 161.685 129.969 162.412L133.945 162.845ZM134.088 160.203V157.741H130.088V160.203H134.088ZM134.088 152.817V147.893H130.088V152.817H134.088ZM134.088 142.97V138.046H130.088V142.97H134.088ZM134.088 133.122V128.198H130.088V133.122H134.088ZM134.088 123.274V118.351H130.088V123.274H134.088ZM134.088 113.427V108.503H130.088V113.427H134.088ZM134.088 103.579V98.6554H130.088V103.579H134.088ZM134.088 93.7316L134.088 88.8078H130.088L130.088 93.7316H134.088ZM134.088 83.884V78.9602H130.088V83.884H134.088ZM134.088 74.0364V69.1126H130.088V74.0364H134.088ZM134.088 64.1888V59.265L130.088 59.265V64.1888H134.088ZM134.088 54.3412V49.4174H130.088V54.3412H134.088ZM134.088 44.4936V39.5698H130.088V44.4936H134.088ZM134.088 34.646V29.7222H130.088V34.646L134.088 34.646ZM134.088 24.7984V22.3365H130.088V24.7984L134.088 24.7984ZM134.088 22.3365C134.088 21.5328 134.049 20.7375 133.973 19.9526L129.992 20.3401C130.055 20.9964 130.088 21.6623 130.088 22.3365H134.088ZM133.046 15.2705C132.579 13.7303 131.964 12.2548 131.218 10.861L127.692 12.7496C128.315 13.9138 128.828 15.1453 129.218 16.4303L133.046 15.2705ZM128.564 6.89653C127.553 5.66551 126.423 4.53563 125.192 3.5242L122.652 6.61481C123.682 7.46086 124.627 8.4061 125.473 9.43583L128.564 6.89653ZM121.227 0.870477C119.833 0.123904 118.358 -0.491131 116.818 -0.957778L115.658 2.87038C116.943 3.25971 118.174 3.773 119.339 4.39654L121.227 0.870477ZM112.136 -1.88458C111.351 -1.96096 110.555 -2 109.752 -2V2C110.426 2 111.092 2.03274 111.748 2.09661L112.136 -1.88458ZM109.752 -2H107.02V2H109.752V-2ZM101.556 -2H96.093V2H101.556V-2ZM90.6296 -2H85.1661V2H90.6296V-2ZM79.7027 -2H74.2392V2H79.7027V-2ZM68.7758 -2H66.0441V2H68.7758V-2Z" fill="white" mask="url(#path-1-inside-1)"/>
<defs>
<linearGradient id="paint0_linear" x1="132.249" y1="8.25136e-06" x2="-28.7904" y2="219.873" gradientUnits="userSpaceOnUse">
<stop stop-color="#35355E"/>
<stop offset="0.5" stop-color="#181829"/>
<stop offset="0.958333" stop-color="#181829"/>
</linearGradient>
</defs>
</svg>
