<svg width="133" height="229" viewBox="0 0 133 229" fill="none" xmlns="http://www.w3.org/2000/svg">
<mask id="path-1-inside-1" fill="white">
<path fill-rule="evenodd" clip-rule="evenodd" d="M20.3727 1.84974C27.6121 1.30744 35.5853 0.782807 42.1162 0.534574C60.8649 -0.178047 71.4112 -0.178335 90.1599 0.534574C96.6874 0.782781 104.656 1.30723 111.892 1.84939C123.395 2.71127 132.176 12.3582 132.176 23.8936L132.176 171.572C132.176 181.991 125.007 190.88 115.123 193.277V227.42C115.123 228.425 114.107 229.112 113.174 228.738L72.6156 212.466V198.073L68.5383 198.515C66.9389 198.688 65.3255 198.688 63.7261 198.515L60.6079 198.177V212.466L20.0496 228.738C19.1164 229.112 18.1003 228.425 18.1003 227.419V193.487C7.72499 191.449 0.0881329 182.325 0.0881348 171.572L0.0881496 23.8941C0.0881508 12.3585 8.86939 2.71146 20.3727 1.84974Z"/>
</mask>
<path fill-rule="evenodd" clip-rule="evenodd" d="M20.3727 1.84974C27.6121 1.30744 35.5853 0.782807 42.1162 0.534574C60.8649 -0.178047 71.4112 -0.178335 90.1599 0.534574C96.6874 0.782781 104.656 1.30723 111.892 1.84939C123.395 2.71127 132.176 12.3582 132.176 23.8936L132.176 171.572C132.176 181.991 125.007 190.88 115.123 193.277V227.42C115.123 228.425 114.107 229.112 113.174 228.738L72.6156 212.466V198.073L68.5383 198.515C66.9389 198.688 65.3255 198.688 63.7261 198.515L60.6079 198.177V212.466L20.0496 228.738C19.1164 229.112 18.1003 228.425 18.1003 227.419V193.487C7.72499 191.449 0.0881329 182.325 0.0881348 171.572L0.0881496 23.8941C0.0881508 12.3585 8.86939 2.71146 20.3727 1.84974Z" fill="url(#paint0_linear)" fill-opacity="0.3"/>
<path d="M42.1162 0.534574L42.1542 1.53385L42.1162 0.534574ZM20.3727 1.84974L20.4474 2.84695L20.3727 1.84974ZM90.1599 0.534574L90.1219 1.53385L90.1599 0.534574ZM111.892 1.84939L111.817 2.8466L111.892 1.84939ZM132.176 23.8936H133.176H132.176ZM132.176 171.572H131.176H132.176ZM115.123 193.277L114.887 192.305L114.123 192.49V193.277H115.123ZM113.174 228.738L112.801 229.666V229.666L113.174 228.738ZM72.6156 212.466H71.6156V213.142L72.2432 213.394L72.6156 212.466ZM72.6156 198.073H73.6156V196.959L72.5079 197.079L72.6156 198.073ZM68.5383 198.515L68.646 199.509L68.5383 198.515ZM63.7261 198.515L63.6184 199.509L63.7261 198.515ZM60.6079 198.177L60.7156 197.183L59.6079 197.063V198.177H60.6079ZM60.6079 212.466L60.9802 213.394L61.6079 213.142V212.466H60.6079ZM20.0496 228.738L20.422 229.666L20.422 229.666L20.0496 228.738ZM18.1003 193.487H19.1003V192.665L18.2931 192.506L18.1003 193.487ZM0.0881348 171.572H1.08813H0.0881348ZM0.0881496 23.8941H1.08815H0.0881496ZM42.0782 -0.464705C40.3465 -0.398884 38.5149 -0.313743 36.6239 -0.21411L36.7291 1.78312C38.6124 1.68389 40.4341 1.59923 42.1542 1.53385L42.0782 -0.464705ZM25.7354 0.459788C23.9 0.587097 22.0768 0.719292 20.298 0.852537L20.4474 2.84695C22.2229 2.71394 24.0424 2.58202 25.8738 2.45499L25.7354 0.459788ZM20.298 0.852537C17.3391 1.07419 14.5502 1.85227 12.0276 3.08001L12.9028 4.87833C15.2018 3.75946 17.7447 3.04941 20.4474 2.84695L20.298 0.852537ZM0.654043 15.4797C-0.358942 18.0957 -0.91185 20.9365 -0.91185 23.8941H1.08815C1.08815 21.1871 1.59398 18.591 2.5191 16.2019L0.654043 15.4797ZM-0.91185 23.8941L-0.911851 29.1683H1.08815L1.08815 23.8941H-0.91185ZM-0.911852 39.7168L-0.911853 50.2652H1.08815L1.08815 39.7168H-0.911852ZM-0.911854 60.8137L-0.911855 71.3621H1.08814L1.08815 60.8137H-0.911854ZM-0.911856 81.9106L-0.911857 92.459H1.08814L1.08814 81.9106H-0.911856ZM-0.911858 103.007L-0.911859 113.556H1.08814L1.08814 103.007H-0.911858ZM-0.91186 124.104L-0.911862 134.653H1.08814L1.08814 124.104H-0.91186ZM-0.911863 145.201L-0.911864 155.75H1.08814L1.08814 145.201H-0.911863ZM-0.911865 166.298L-0.911865 171.572H1.08813L1.08814 166.298H-0.911865ZM-0.911865 171.572C-0.911866 174.325 -0.432388 176.978 0.451743 179.444L2.33445 178.769C1.52676 176.516 1.08813 174.092 1.08813 171.572H-0.911865ZM10.4484 191.605C12.7069 192.957 15.2196 193.94 17.9076 194.469L18.2931 192.506C15.8356 192.023 13.5396 191.124 11.4755 189.889L10.4484 191.605ZM17.1003 193.487V197.729H19.1003V193.487H17.1003ZM17.1003 206.212V214.695H19.1003V206.212H17.1003ZM17.1003 223.178V227.419H19.1003V223.178H17.1003ZM17.1003 227.419C17.1003 227.831 17.2022 228.218 17.3823 228.556L19.1477 227.616C19.1188 227.562 19.1003 227.497 19.1003 227.419H17.1003ZM19.2621 229.827C19.6432 229.869 20.0401 229.819 20.422 229.666L19.6773 227.81C19.605 227.839 19.538 227.846 19.477 227.839L19.2621 229.827ZM20.422 229.666L25.4918 227.632L24.7471 225.776L19.6773 227.81L20.422 229.666ZM35.6313 223.564L45.7709 219.496L45.0262 217.64L34.8866 221.708L35.6313 223.564ZM55.9104 215.428L60.9802 213.394L60.2355 211.538L55.1657 213.572L55.9104 215.428ZM61.6079 212.466V208.894H59.6079V212.466H61.6079ZM61.6079 201.749V198.177H59.6079V201.749H61.6079ZM60.5002 199.171L61.2797 199.255L61.4951 197.267L60.7156 197.183L60.5002 199.171ZM62.8388 199.424L63.6184 199.509L63.8338 197.521L63.0543 197.436L62.8388 199.424ZM63.6184 199.509C64.036 199.554 64.4545 199.588 64.8735 199.611L64.9813 197.614C64.5983 197.593 64.2156 197.562 63.8338 197.521L63.6184 199.509ZM67.391 199.611C67.8099 199.588 68.2284 199.554 68.646 199.509L68.4306 197.521C68.0488 197.562 67.6661 197.593 67.2831 197.614L67.391 199.611ZM68.646 199.509L69.6654 199.398L69.4499 197.41L68.4306 197.521L68.646 199.509ZM71.704 199.178L72.7233 199.067L72.5079 197.079L71.4885 197.189L71.704 199.178ZM71.6156 198.073V201.671H73.6156V198.073H71.6156ZM71.6156 208.868V212.466H73.6156V208.868H71.6156ZM72.2432 213.394L77.313 215.428L78.0577 213.572L72.9879 211.538L72.2432 213.394ZM87.4526 219.496L97.5921 223.564L98.3368 221.708L88.1973 217.64L87.4526 219.496ZM107.732 227.632L112.801 229.666L113.546 227.81L108.476 225.776L107.732 227.632ZM112.801 229.666C113.183 229.819 113.58 229.869 113.961 229.827L113.746 227.839C113.685 227.846 113.618 227.839 113.546 227.81L112.801 229.666ZM115.841 228.556C116.021 228.218 116.123 227.831 116.123 227.42H114.123C114.123 227.497 114.105 227.562 114.076 227.616L115.841 228.556ZM116.123 227.42V223.152H114.123V227.42H116.123ZM116.123 214.616V206.08H114.123V214.616H116.123ZM116.123 197.545V193.277H114.123V197.545H116.123ZM115.359 194.249C117.928 193.626 120.323 192.582 122.47 191.199L121.386 189.518C119.424 190.782 117.236 191.736 114.887 192.305L115.359 194.249ZM131.898 179.202C132.728 176.804 133.176 174.235 133.176 171.572H131.176C131.176 174.01 130.766 176.358 130.008 178.548L131.898 179.202ZM133.176 171.572V166.298H131.176V171.572H133.176ZM133.176 155.75V145.201H131.176V155.75H133.176ZM133.176 134.653V124.104H131.176V134.653H133.176ZM133.176 113.556V103.007H131.176V113.556H133.176ZM133.176 92.4587V81.9102H131.176V92.4587H133.176ZM133.176 71.3618V60.8133H131.176V71.3618H133.176ZM133.176 50.2648V39.7163H131.176V50.2648H133.176ZM133.176 29.1678V23.8936H131.176V29.1678L133.176 29.1678ZM133.176 23.8936C133.176 20.936 132.623 18.0953 131.61 15.4794L129.745 16.2015C130.67 18.5906 131.176 21.1867 131.176 23.8936H133.176ZM120.237 3.07974C117.715 1.85199 114.926 1.07388 111.967 0.852189L111.817 2.8466C114.52 3.04909 117.063 3.75917 119.362 4.87806L120.237 3.07974ZM111.967 0.852189C110.189 0.718982 108.367 0.586827 106.532 0.459557L106.394 2.45476C108.224 2.58175 110.043 2.71363 111.817 2.8466L111.967 0.852189ZM95.6494 -0.214157C93.7594 -0.313765 91.9287 -0.39889 90.1979 -0.464704L90.1219 1.53385C91.8411 1.59922 93.6618 1.68387 95.5441 1.78307L95.6494 -0.214157ZM90.1979 -0.464704C88.0986 -0.544529 86.1016 -0.615436 84.1841 -0.677416L84.1194 1.32154C86.0326 1.38338 88.0257 1.45415 90.1219 1.53385L90.1979 -0.464704ZM72.1566 -0.960547C68.0895 -1.01317 64.1865 -1.01315 60.1194 -0.960492L60.1453 1.03934C64.1952 0.986908 68.0809 0.986884 72.1307 1.03929L72.1566 -0.960547ZM48.092 -0.67735C46.1745 -0.615382 44.1775 -0.544497 42.0782 -0.464705L42.1542 1.53385C44.2503 1.45418 46.2435 1.38343 48.1566 1.32161L48.092 -0.67735ZM42.1162 0.534574L42.1921 2.53313L42.1162 0.534574ZM20.3727 1.84974L20.5221 3.84416L20.3727 1.84974ZM90.1599 0.534574L90.0839 2.53313L90.1599 0.534574ZM111.892 1.84939L111.743 3.8438L111.892 1.84939ZM132.176 23.8936H134.176H132.176ZM132.176 171.572H130.176H132.176ZM115.123 193.277L114.652 191.333L113.123 191.704V193.277H115.123ZM113.174 228.738L112.429 230.594L113.174 228.738ZM72.6156 212.466H70.6156V213.818L71.8709 214.322L72.6156 212.466ZM72.6156 198.073H74.6156V195.845L72.4001 196.085L72.6156 198.073ZM68.5383 198.515L68.7538 200.503L68.5383 198.515ZM63.7261 198.515L63.5107 200.503L63.7261 198.515ZM60.6079 198.177L60.8233 196.188L58.6079 195.948V198.177H60.6079ZM60.6079 212.466L61.3526 214.322L62.6079 213.818V212.466H60.6079ZM20.0496 228.738L20.7943 230.594L20.7943 230.594L20.0496 228.738ZM18.1003 193.487H20.1003V191.842L18.4859 191.525L18.1003 193.487ZM0.0881348 171.572H2.08813H0.0881348ZM0.0881496 23.8941H2.08815H0.0881496ZM42.0402 -1.46398C40.3027 -1.39794 38.4662 -1.31256 36.5713 -1.21273L36.7817 2.78173C38.6612 2.68271 40.4779 2.59829 42.1921 2.53313L42.0402 -1.46398ZM25.6662 -0.537815C23.8287 -0.410364 22.0037 -0.278035 20.2233 -0.144669L20.5221 3.84416C22.296 3.71127 24.1137 3.57948 25.943 3.4526L25.6662 -0.537815ZM20.2233 -0.144669C17.1363 0.0865772 14.2245 0.898669 11.59 2.18084L13.3404 5.7775C15.5275 4.71306 17.9476 4.03702 20.5221 3.84416L20.2233 -0.144669ZM-0.278484 15.1186C-1.3354 17.848 -1.91185 20.8111 -1.91185 23.8941H2.08815C2.08815 21.3124 2.57044 18.8386 3.45162 16.563L-0.278484 15.1186ZM-1.91185 23.8941L-1.91185 29.1683H2.08815L2.08815 23.8941H-1.91185ZM-1.91185 39.7168L-1.91185 50.2652L2.08815 50.2652L2.08815 39.7168H-1.91185ZM-1.91185 60.8137L-1.91186 71.3621H2.08814L2.08815 60.8137H-1.91185ZM-1.91186 81.9106L-1.91186 92.459H2.08814L2.08814 81.9106H-1.91186ZM-1.91186 103.007L-1.91186 113.556H2.08814L2.08814 103.007H-1.91186ZM-1.91186 124.104L-1.91186 134.653H2.08814L2.08814 124.104H-1.91186ZM-1.91186 145.201L-1.91186 155.75H2.08814L2.08814 145.201H-1.91186ZM-1.91186 166.298L-1.91187 171.572H2.08813L2.08814 166.298H-1.91186ZM-1.91187 171.572C-1.91187 174.442 -1.41196 177.208 -0.489613 179.782L3.27581 178.432C2.50633 176.285 2.08813 173.975 2.08813 171.572H-1.91187ZM9.9348 192.463C12.2906 193.873 14.9116 194.899 17.7148 195.45L18.4859 191.525C16.1436 191.065 13.9559 190.208 11.9891 189.031L9.9348 192.463ZM16.1003 193.487V197.729H20.1003V193.487H16.1003ZM16.1003 206.212V214.695H20.1003V206.212H16.1003ZM16.1003 223.178V227.419H20.1003V223.178H16.1003ZM16.1003 227.419C16.1003 227.998 16.2438 228.546 16.4996 229.026L20.0304 227.146C20.0772 227.234 20.1003 227.331 20.1003 227.419H16.1003ZM19.1547 230.822C19.6957 230.88 20.2577 230.809 20.7943 230.594L19.305 226.882C19.3875 226.848 19.4855 226.834 19.5845 226.845L19.1547 230.822ZM20.7943 230.594L25.8641 228.56L24.3747 224.848L19.305 226.882L20.7943 230.594ZM36.0037 224.492L46.1432 220.424L44.6538 216.712L34.5143 220.78L36.0037 224.492ZM56.2828 216.356L61.3526 214.322L59.8632 210.61L54.7934 212.644L56.2828 216.356ZM62.6079 212.466V208.894H58.6079V212.466H62.6079ZM62.6079 201.749V198.177H58.6079V201.749H62.6079ZM60.3924 200.165L61.172 200.25L61.6029 196.273L60.8233 196.188L60.3924 200.165ZM62.7311 200.419L63.5107 200.503L63.9415 196.526L63.162 196.442L62.7311 200.419ZM63.5107 200.503C63.9461 200.55 64.3826 200.586 64.8195 200.609L65.0353 196.615C64.6702 196.595 64.3055 196.566 63.9415 196.526L63.5107 200.503ZM67.4449 200.609C67.8818 200.586 68.3183 200.55 68.7538 200.503L68.3229 196.526C67.959 196.566 67.5943 196.595 67.2291 196.615L67.4449 200.609ZM68.7538 200.503L69.7731 200.393L69.3422 196.416L68.3229 196.526L68.7538 200.503ZM71.8117 200.172L72.831 200.061L72.4001 196.085L71.3808 196.195L71.8117 200.172ZM70.6156 198.073V201.671H74.6156V198.073H70.6156ZM70.6156 208.868V212.466H74.6156V208.868H70.6156ZM71.8709 214.322L76.9407 216.356L78.43 212.644L73.3603 210.61L71.8709 214.322ZM87.0802 220.424L97.2198 224.492L98.7092 220.78L88.5696 216.712L87.0802 220.424ZM107.359 228.56L112.429 230.594L113.918 226.882L108.849 224.848L107.359 228.56ZM112.429 230.594C112.966 230.809 113.528 230.88 114.069 230.822L113.639 226.845C113.738 226.834 113.836 226.849 113.918 226.882L112.429 230.594ZM116.724 229.026C116.98 228.546 117.123 227.998 117.123 227.42H113.123C113.123 227.331 113.146 227.234 113.193 227.146L116.724 229.026ZM117.123 227.42V223.152H113.123V227.42H117.123ZM117.123 214.616V206.08H113.123V214.616H117.123ZM117.123 197.545V193.277H113.123V197.545H117.123ZM115.594 195.221C118.275 194.571 120.772 193.482 123.011 192.04L120.845 188.677C118.975 189.882 116.89 190.791 114.652 191.333L115.594 195.221ZM132.843 179.529C133.708 177.028 134.176 174.348 134.176 171.572H130.176C130.176 173.897 129.785 176.134 129.063 178.221L132.843 179.529ZM134.176 171.572V166.298H130.176V171.572H134.176ZM134.176 155.75V145.201H130.176V155.75H134.176ZM134.176 134.653V124.104H130.176V134.653H134.176ZM134.176 113.556V103.007H130.176V113.556H134.176ZM134.176 92.4587V81.9102H130.176V92.4587H134.176ZM134.176 71.3618V60.8133H130.176V71.3618H134.176ZM134.176 50.2648V39.7163H130.176V50.2648H134.176ZM134.176 29.1678V23.8936H130.176V29.1678L134.176 29.1678ZM134.176 23.8936C134.176 20.8107 133.6 17.8477 132.543 15.1183L128.813 16.5626C129.694 18.8382 130.176 21.312 130.176 23.8936H134.176ZM120.675 2.18058C118.04 0.898394 115.129 0.0862745 112.042 -0.145016L111.743 3.8438C114.317 4.0367 116.737 4.71277 118.924 5.77721L120.675 2.18058ZM112.042 -0.145016C110.262 -0.278344 108.438 -0.410633 106.602 -0.538045L106.325 3.45236C108.153 3.57921 109.97 3.71096 111.743 3.8438L112.042 -0.145016ZM95.702 -1.21277C93.8081 -1.31258 91.9725 -1.39795 90.2359 -1.46398L90.0839 2.53313C91.7973 2.59828 93.613 2.68269 95.4915 2.78169L95.702 -1.21277ZM90.2359 -1.46398C88.135 -1.54387 86.1361 -1.61484 84.2164 -1.67689L84.0871 2.32102C85.9981 2.38279 87.9893 2.45348 90.0839 2.53313L90.2359 -1.46398ZM72.1696 -1.96046C68.0938 -2.0132 64.1822 -2.01318 60.1065 -1.96041L60.1583 2.03926C64.1995 1.98694 68.0766 1.98691 72.1178 2.0392L72.1696 -1.96046ZM48.0597 -1.67683C46.14 -1.61479 44.1411 -1.54384 42.0402 -1.46398L42.1921 2.53313C44.2867 2.45352 46.278 2.38284 48.1889 2.32108L48.0597 -1.67683Z" fill="white" mask="url(#path-1-inside-1)"/>
<defs>
<linearGradient id="paint0_linear" x1="132.337" y1="8.37216e-06" x2="-31.7622" y2="220.818" gradientUnits="userSpaceOnUse">
<stop stop-color="#35355E"/>
<stop offset="0.5" stop-color="#181829"/>
<stop offset="0.958333" stop-color="#181829"/>
</linearGradient>
</defs>
</svg>
