<svg width="160" height="253" viewBox="0 0 160 253" fill="none" xmlns="http://www.w3.org/2000/svg">
<g filter="url(#filter0_d_1192_61241)">
<path d="M80 0.961365H29.2397C13.0911 0.961365 2.15512e-05 14.0524 1.98634e-05 30.2011L2.32293e-06 198.024C0 211.159 8.75869 222.682 21.4145 226.197L72.1748 240.296C77.2947 241.718 82.7053 241.718 87.8252 240.296L138.585 226.197C151.241 222.682 160 211.159 160 198.024L160 30.2011C160 14.0524 146.909 0.961365 130.76 0.961365H80Z" fill="#5C80EA"/>
<path d="M29.2397 5.96136H80H130.76C144.148 5.96136 155 16.8138 155 30.2011L155 198.024C155 208.913 147.739 218.465 137.247 221.38L86.4871 235.478C82.2427 236.657 77.7573 236.657 73.5129 235.478L22.7526 221.38C12.2609 218.465 5 208.913 5 198.024L5.00002 30.2011C5.00002 16.8139 15.8525 5.96136 29.2397 5.96136Z" stroke="url(#paint0_linear_1192_61241)" stroke-width="10"/>
</g>
<path d="M79.499 120.563C86.2353 120.563 91.6961 115.103 91.6961 108.366C91.6961 101.63 86.2353 96.1693 79.499 96.1693C72.7628 96.1693 67.302 101.63 67.302 108.366C67.302 115.103 72.7628 120.563 79.499 120.563Z" stroke="#F5FF63" stroke-width="2.47323" stroke-linecap="round" stroke-linejoin="round"/>
<path d="M79.5 103.488V113.245" stroke="#F5FF63" stroke-width="2.47323" stroke-linecap="round" stroke-linejoin="round"/>
<path d="M74.6202 108.365H84.3779" stroke="#F5FF63" stroke-width="2.47323" stroke-linecap="round" stroke-linejoin="round"/>
<path d="M35.4294 147.808V135.875H44.9064C45.3601 135.875 45.7695 135.985 46.1346 136.207C46.5108 136.428 46.8096 136.727 47.0309 137.103C47.2633 137.479 47.3794 137.888 47.3794 138.331V141.418C47.3794 141.861 47.2633 142.27 47.0309 142.646C46.8096 143.023 46.5108 143.321 46.1346 143.543C45.7695 143.764 45.3601 143.875 44.9064 143.875L38.002 143.891V147.808H35.4294ZM38.002 141.285H44.7737V138.447H38.002V141.285ZM50.5664 147.808V135.841H53.1389V145.219H62.5163V147.808H50.5664ZM65.5088 147.808V138.314C65.5088 137.861 65.6194 137.451 65.8407 137.086C66.062 136.71 66.3608 136.411 66.737 136.19C67.1132 135.969 67.5226 135.858 67.9652 135.858H74.9858C75.4394 135.858 75.8488 135.969 76.214 136.19C76.5902 136.411 76.8889 136.71 77.1102 137.086C77.3426 137.451 77.4588 137.861 77.4588 138.314V147.808H74.853V143.957H68.0813V147.808H65.5088ZM68.0813 141.368H74.853V138.447H68.0813V141.368ZM85.4491 147.808V143.343L79.9223 135.858H82.9928L86.7437 140.572L90.4781 135.858H93.5818L88.0383 143.36V147.808H85.4491ZM96.3977 147.808V135.858H107.435V138.447H99.0035V140.538H105.792V143.128H99.0035V145.219H107.435V147.808H96.3977ZM120.341 147.808L116.872 143.675H120.242L122.997 146.928V147.808H120.341ZM111.063 147.808V135.875H120.54C120.994 135.875 121.403 135.985 121.769 136.207C122.145 136.428 122.444 136.727 122.665 137.103C122.897 137.479 123.013 137.888 123.013 138.331V141.418C123.013 141.861 122.897 142.27 122.665 142.646C122.444 143.023 122.145 143.321 121.769 143.543C121.403 143.764 120.994 143.875 120.54 143.875L113.636 143.891V147.808H111.063ZM113.636 141.285H120.408V138.447H113.636V141.285Z" fill="#F5FF63"/>
<defs>
<filter id="filter0_d_1192_61241" x="-44" y="-21.0386" width="248" height="328.401" filterUnits="userSpaceOnUse" color-interpolation-filters="sRGB">
<feFlood flood-opacity="0" result="BackgroundImageFix"/>
<feColorMatrix in="SourceAlpha" type="matrix" values="0 0 0 0 0 0 0 0 0 0 0 0 0 0 0 0 0 0 127 0" result="hardAlpha"/>
<feOffset dy="22"/>
<feGaussianBlur stdDeviation="22"/>
<feComposite in2="hardAlpha" operator="out"/>
<feColorMatrix type="matrix" values="0 0 0 0 0 0 0 0 0 0 0 0 0 0 0 0 0 0 0 0"/>
<feBlend mode="normal" in="SourceGraphic" result="shape"/>
</filter>
<linearGradient id="paint0_linear_1192_61241" x1="80" y1="-3.92535" x2="80" y2="267.075" gradientUnits="userSpaceOnUse">
<stop stop-color="#A8CBFF"/>
<stop offset="0.416613" stop-color="#7298EC"/>
<stop offset="1" stop-color="#6F93FF"/>
</linearGradient>
</defs>
</svg>
