<svg width="25" height="24" viewBox="0 0 25 24" fill="none" xmlns="http://www.w3.org/2000/svg">
<path d="M12.73 24C19.3574 24 24.73 18.6274 24.73 12C24.73 5.37258 19.3574 0 12.73 0C6.10256 0 0.72998 5.37258 0.72998 12C0.72998 18.6274 6.10256 24 12.73 24Z" fill="url(#paint0_linear)"/>
<path d="M12.73 23.5724C19.1212 23.5724 24.3023 18.3913 24.3023 12.0001C24.3023 5.60884 19.1212 0.427734 12.73 0.427734C6.33876 0.427734 1.15765 5.60884 1.15765 12.0001C1.15765 18.3913 6.33876 23.5724 12.73 23.5724Z" fill="url(#paint1_linear)"/>
<path d="M12.73 21.2831C17.8568 21.2831 22.013 17.1269 22.013 12.0001C22.013 6.87319 17.8568 2.71704 12.73 2.71704C7.60311 2.71704 3.44696 6.87319 3.44696 12.0001C3.44696 17.1269 7.60311 21.2831 12.73 21.2831Z" fill="url(#paint2_linear)"/>
<path d="M12.73 21.1069C17.7596 21.1069 21.8369 17.0296 21.8369 12C21.8369 6.97037 17.7596 2.89307 12.73 2.89307C7.70035 2.89307 3.62305 6.97037 3.62305 12C3.62305 17.0296 7.70035 21.1069 12.73 21.1069Z" fill="url(#paint3_linear)"/>
<path d="M12.73 20.1007C17.2038 20.1007 20.8306 16.4739 20.8306 12C20.8306 7.52619 17.2038 3.89941 12.73 3.89941C8.25611 3.89941 4.62933 7.52619 4.62933 12C4.62933 16.4739 8.25611 20.1007 12.73 20.1007Z" fill="url(#paint4_linear)"/>
<g filter="url(#filter0_d)">
<path d="M10.6517 6.97681V14.4907C10.6517 16.0696 11.4552 16.9719 13.0048 16.9719C14.5544 16.9719 15.3578 16.0696 15.3578 14.4907V6.97681H13.8656V14.5894C13.8656 15.2943 13.55 15.548 13.0478 15.548C12.5456 15.548 12.23 15.2943 12.23 14.5894V6.97681H10.6517Z" fill="#A9803D"/>
<path d="M10.0788 6.97681V14.4907C10.0788 16.0696 10.8823 16.9719 12.4319 16.9719C13.9815 16.9719 14.785 16.0696 14.785 14.4907V6.97681H13.2928V14.5894C13.2928 15.2943 12.9771 15.548 12.4749 15.548C11.9727 15.548 11.6571 15.2943 11.6571 14.5894V6.97681H10.0788Z" fill="white"/>
</g>
<defs>
<filter id="filter0_d" x="9.65155" y="6.47835" width="6.7032" height="11.4192" filterUnits="userSpaceOnUse" color-interpolation-filters="sRGB">
<feFlood flood-opacity="0" result="BackgroundImageFix"/>
<feColorMatrix in="SourceAlpha" type="matrix" values="0 0 0 0 0 0 0 0 0 0 0 0 0 0 0 0 0 0 127 0"/>
<feOffset dx="0.28483" dy="0.213622"/>
<feGaussianBlur stdDeviation="0.356037"/>
<feColorMatrix type="matrix" values="0 0 0 0 0.404167 0 0 0 0 0.283338 0 0 0 0 0.0858854 0 0 0 0.55 0"/>
<feBlend mode="normal" in2="BackgroundImageFix" result="effect1_dropShadow"/>
<feBlend mode="normal" in="SourceGraphic" in2="effect1_dropShadow" result="shape"/>
</filter>
<linearGradient id="paint0_linear" x1="12.7382" y1="23.0115" x2="12.7382" y2="-1.00106" gradientUnits="userSpaceOnUse">
<stop stop-color="#C99B14"/>
<stop offset="0.2137" stop-color="#B78817"/>
<stop offset="0.2223" stop-color="#B98B1B"/>
<stop offset="0.3396" stop-color="#D6B74E"/>
<stop offset="0.4418" stop-color="#EBD774"/>
<stop offset="0.524" stop-color="#F8EA8B"/>
<stop offset="0.5758" stop-color="#FDF193"/>
<stop offset="0.5784" stop-color="#F9EB8A"/>
<stop offset="0.589" stop-color="#ECD66B"/>
<stop offset="0.6011" stop-color="#E1C34F"/>
<stop offset="0.6146" stop-color="#D8B439"/>
<stop offset="0.6305" stop-color="#D1A928"/>
<stop offset="0.6501" stop-color="#CDA11D"/>
<stop offset="0.6776" stop-color="#CA9C16"/>
<stop offset="0.754" stop-color="#C99B14"/>
<stop offset="0.7571" stop-color="#C79814"/>
<stop offset="0.7907" stop-color="#AF7E15"/>
<stop offset="0.8275" stop-color="#9E6A16"/>
<stop offset="0.8692" stop-color="#915B17"/>
<stop offset="0.9192" stop-color="#895317"/>
<stop offset="1" stop-color="#875017"/>
</linearGradient>
<linearGradient id="paint1_linear" x1="12.7382" y1="22.6088" x2="12.7382" y2="-0.525146" gradientUnits="userSpaceOnUse">
<stop stop-color="#875017"/>
<stop offset="0.0808151" stop-color="#895317"/>
<stop offset="0.1308" stop-color="#915B17"/>
<stop offset="0.1725" stop-color="#9E6A16"/>
<stop offset="0.2093" stop-color="#AF7E15"/>
<stop offset="0.2429" stop-color="#C79814"/>
<stop offset="0.246" stop-color="#C99B14"/>
<stop offset="0.3224" stop-color="#CA9C16"/>
<stop offset="0.3499" stop-color="#CDA11D"/>
<stop offset="0.3695" stop-color="#D1A928"/>
<stop offset="0.3854" stop-color="#D8B439"/>
<stop offset="0.3989" stop-color="#E1C34F"/>
<stop offset="0.411" stop-color="#ECD66B"/>
<stop offset="0.4216" stop-color="#F9EB8A"/>
<stop offset="0.4242" stop-color="#FDF193"/>
<stop offset="0.476" stop-color="#F8EA8B"/>
<stop offset="0.5582" stop-color="#EBD774"/>
<stop offset="0.6604" stop-color="#D6B74E"/>
<stop offset="0.7777" stop-color="#B98B1B"/>
<stop offset="0.7863" stop-color="#B78817"/>
<stop offset="1" stop-color="#C99B14"/>
</linearGradient>
<linearGradient id="paint2_linear" x1="12.7382" y1="20.8463" x2="12.7382" y2="3.22798" gradientUnits="userSpaceOnUse">
<stop stop-color="#C99B14"/>
<stop offset="0.037458" stop-color="#CFA523"/>
<stop offset="0.11" stop-color="#E0C14C"/>
<stop offset="0.2095" stop-color="#FAEC8C"/>
<stop offset="0.2195" stop-color="#FDF193"/>
<stop offset="0.2511" stop-color="#FAEC8B"/>
<stop offset="0.2989" stop-color="#F1DE77"/>
<stop offset="0.357" stop-color="#E3C754"/>
<stop offset="0.4227" stop-color="#D0A725"/>
<stop offset="0.4445" stop-color="#C99B14"/>
<stop offset="0.61" stop-color="#EDD66C"/>
<stop offset="0.6933" stop-color="#FDF193"/>
<stop offset="0.9055" stop-color="#B78817"/>
<stop offset="1" stop-color="#C99B14"/>
</linearGradient>
<linearGradient id="paint3_linear" x1="12.7381" y1="3.65855" x2="12.7381" y2="21.8698" gradientUnits="userSpaceOnUse">
<stop stop-color="#875017"/>
<stop offset="0.1072" stop-color="#9D6A17"/>
<stop offset="0.2475" stop-color="#B78817"/>
<stop offset="0.6677" stop-color="#FDF193"/>
<stop offset="0.7431" stop-color="#FCEF90"/>
<stop offset="0.8008" stop-color="#F8E886"/>
<stop offset="0.8526" stop-color="#F1DD76"/>
<stop offset="0.9009" stop-color="#E8CE5F"/>
<stop offset="0.9469" stop-color="#DBB941"/>
<stop offset="0.9905" stop-color="#CDA11D"/>
<stop offset="1" stop-color="#C99B14"/>
</linearGradient>
<linearGradient id="paint4_linear" x1="12.7381" y1="19.4352" x2="12.7381" y2="3.22535" gradientUnits="userSpaceOnUse">
<stop stop-color="#875017"/>
<stop offset="0.1072" stop-color="#9D6A17"/>
<stop offset="0.2475" stop-color="#B78817"/>
<stop offset="0.6677" stop-color="#FDF193"/>
<stop offset="0.7431" stop-color="#FCEF90"/>
<stop offset="0.8008" stop-color="#F8E886"/>
<stop offset="0.8526" stop-color="#F1DD76"/>
<stop offset="0.9009" stop-color="#E8CE5F"/>
<stop offset="0.9469" stop-color="#DBB941"/>
<stop offset="0.9905" stop-color="#CDA11D"/>
<stop offset="1" stop-color="#C99B14"/>
</linearGradient>
</defs>
</svg>
