<svg width="172" height="49" viewBox="0 0 172 49" fill="none" xmlns="http://www.w3.org/2000/svg">
<mask id="mask0_2082_77643" style="mask-type:alpha" maskUnits="userSpaceOnUse" x="0" y="0" width="27" height="38">
<path fill-rule="evenodd" clip-rule="evenodd" d="M0.25 0.762207H26.9724V37.7849H0.25V0.762207Z" fill="white"/>
</mask>
<g mask="url(#mask0_2082_77643)">
<path fill-rule="evenodd" clip-rule="evenodd" d="M17.1569 11.9267C17.1569 10.005 15.9474 8.70361 13.9871 8.70361H9.25V15.1495H13.9876C15.9479 15.1495 17.1574 13.8481 17.1574 11.9267H17.1569ZM17.6994 26.0289C17.6994 24.0623 16.3725 22.6777 14.3425 22.6777H9.25V29.4106H14.3425C16.3725 29.4106 17.6994 28.0259 17.6994 26.0289ZM21.7542 18.2359C24.9606 19.8897 26.9724 23.2023 26.9724 27.2425C26.9724 33.241 22.2146 37.7849 15.9337 37.7849H0.25V0.762207H15.6196C21.653 0.762207 26.0558 4.76767 26.0558 10.2375C26.0558 13.5456 24.353 16.5219 21.7532 18.2355L21.7542 18.2359Z" fill="#E5EEFF"/>
</g>
<path fill-rule="evenodd" clip-rule="evenodd" d="M45.0193 30.1805C48.362 30.1805 50.7595 27.628 50.7595 23.9247C50.7595 20.2438 48.362 17.6689 45.0193 17.6689C41.6765 17.6689 39.2791 20.2214 39.2791 23.9244C39.2791 27.6273 41.6765 30.1798 45.0193 30.1798V30.1805ZM30.0955 23.9234C30.0955 15.2411 36.3403 9.00098 45.0182 9.00098C53.668 9.00098 59.9411 15.2411 59.9411 23.9234C59.9411 32.5766 53.668 38.8466 45.0182 38.8466C36.3403 38.8466 30.0955 32.5766 30.0955 23.9234Z" fill="#E5EEFF"/>
<path fill-rule="evenodd" clip-rule="evenodd" d="M76.5234 30.1805C79.8661 30.1805 82.2636 27.628 82.2636 23.9247C82.2636 20.2438 79.8661 17.6689 76.5234 17.6689C73.1807 17.6689 70.7832 20.2214 70.7832 23.9244C70.7832 27.6273 73.1807 30.1798 76.5234 30.1798V30.1805ZM61.5996 23.9234C61.5996 15.2411 67.8444 9.00098 76.5224 9.00098C85.1721 9.00098 91.4453 15.2411 91.4453 23.9234C91.4453 32.5766 85.1721 38.8466 76.5224 38.8466C67.8444 38.8466 61.5996 32.5766 61.5996 23.9234Z" fill="#E5EEFF"/>
<path fill-rule="evenodd" clip-rule="evenodd" d="M106.358 38.8463C99.1966 38.8463 94.8441 34.8145 94.7615 28.7457H103.473C103.473 30.7938 104.811 31.7369 106.527 31.7369C107.851 31.7369 109.106 31.017 109.106 29.5694C109.106 27.9536 107.116 27.493 104.592 27.048C100.518 26.3438 95.1166 25.0334 95.1166 18.2398C95.1166 12.6253 99.605 9.00098 106.337 9.00098C113.029 9.00098 117.365 12.7953 117.468 18.4707H108.993C108.993 16.6823 107.865 15.8506 106.225 15.8506C104.774 15.8506 103.799 16.6164 103.799 17.9147C103.799 19.5085 105.809 19.8795 108.305 20.3543C112.456 21.1399 117.975 22.0595 117.975 29.1628C117.975 35.0161 113.34 38.8466 106.357 38.8466L106.358 38.8463Z" fill="#E5EEFF"/>
<path fill-rule="evenodd" clip-rule="evenodd" d="M139.53 28.673V37.1885H133.45C127.777 37.1885 124.329 33.3727 124.329 27.1004V16.4498H119.633V14.1771L131.127 0.710449H132.942V8.96268H139.387V16.4498H133.165V25.4324C133.165 27.4536 134.274 28.673 136.138 28.673H139.53Z" fill="#E5EEFF"/>
<mask id="mask1_2082_77643" style="mask-type:alpha" maskUnits="userSpaceOnUse" x="141" y="9" width="31" height="40">
<path fill-rule="evenodd" clip-rule="evenodd" d="M141.272 9.13965H171.75V48.3276H141.272V9.13965Z" fill="white"/>
</mask>
<g mask="url(#mask1_2082_77643)">
<path fill-rule="evenodd" clip-rule="evenodd" d="M172.129 9.13965L161.062 36.4294C157.503 45.1702 154.232 48.3276 147.414 48.3276H144.3V39.875H146.801C150.28 39.875 151.33 38.8951 152.562 35.3408L141.651 9.13965H151.534L157.137 24.8727L162.359 9.13965H172.129Z" fill="#E5EEFF"/>
</g>
</svg>
