<svg width="194" height="53" viewBox="0 0 194 53" fill="none" xmlns="http://www.w3.org/2000/svg">
<path d="M67.4809 43.8854C57.3368 43.8854 50.978 36.7062 50.978 27.0655C50.978 17.5181 57.3927 10.2456 67.5369 10.2456C75.723 10.2456 80.4968 14.4786 82.492 20.8H77.0284C75.2942 16.8841 72.4784 14.8888 67.5182 14.8888C60.6001 14.8888 56.4603 20.2965 56.4603 27.0842C56.4603 33.8718 60.6001 39.2795 67.5182 39.2795C72.8327 39.2795 75.7044 36.9113 77.0284 33.3683H82.492C80.9816 39.3914 75.6298 43.8854 67.4809 43.8854Z" fill="#E6EEFF"/>
<path d="M105.596 43.3073H100.225C100.057 42.263 99.9828 41.2188 100.001 40.1745V39.4846H99.9642C99.1437 41.629 97.0179 43.904 92.5052 43.904C87.2281 43.904 84.2258 40.6221 84.2258 36.8926C84.2258 30.0677 92.2255 29.8812 95.6007 29.3404C98.6962 28.8369 99.9642 28.3894 99.9642 26.4314C99.9642 24.4735 98.2859 23.2054 95.4142 23.2054C92.8595 23.2054 91.0508 24.6226 90.9202 26.9722H85.7736C85.9973 23.1122 89.0555 19.103 95.321 19.103C103.134 19.103 105.148 23.7835 105.148 28.8369V37.8809C105.148 39.671 105.223 42.0766 105.596 43.3073ZM100.095 30.0117C99.5539 31.4289 98.23 32.5105 94.37 33.2004C91.144 33.7971 89.4657 34.6922 89.4657 36.7994C89.4657 38.6641 91.1067 40.0253 93.8292 40.0253C97.0552 40.0253 100.113 37.7131 100.113 32.4732V30.0117H100.095Z" fill="#E6EEFF"/>
<path d="M117.139 23.1494C115.087 23.1494 113.316 24.3801 113.316 26.0584C113.316 28.3334 116.038 28.9674 119.992 29.8811C124.131 30.7948 127.134 32.7528 127.134 36.5196C127.134 41.2 122.621 43.9412 117.437 43.9412C112.607 43.9412 108.076 41.7595 107.517 36.1093H112.738C113.185 38.7013 114.789 39.8761 117.512 39.8761C119.749 39.8761 121.838 38.9624 121.838 36.7806C121.838 34.4683 119.525 34.0954 115.74 33.1817C111.973 32.3239 108.188 30.5524 108.188 26.2635C108.188 21.9746 112.365 19.1216 117.195 19.1216C122.285 19.1216 126.108 21.7136 126.649 26.8043H121.67C121.334 24.2496 119.283 23.1494 117.139 23.1494Z" fill="#E6EEFF"/>
<path d="M153.575 31.4664C153.575 38.7948 149.119 43.9788 142.89 43.9788C138.844 43.9788 136.196 41.8343 135.245 39.0186H135.208V52.3514H129.8V19.7932H135.264V24.0634C136.121 21.5087 138.863 19.1592 142.909 19.1592C149.119 19.1592 153.575 24.194 153.575 31.4664ZM148.261 31.4664C148.261 27.0097 145.706 23.4667 141.585 23.4667C137.539 23.4667 135.04 26.5995 134.853 30.9629V31.4664C134.853 36.1096 136.998 39.6153 141.585 39.6153C145.799 39.6153 148.261 36.0164 148.261 31.4664Z" fill="#E6EEFF"/>
<path d="M178.321 32.9769H160.214C160.587 37.2471 163.31 39.7086 166.983 39.7086C169.668 39.7086 171.887 38.7016 172.764 36.352H177.985C176.568 41.1258 172.521 43.9415 166.983 43.9415C159.934 43.9415 155.105 38.8881 155.105 31.4851C155.105 24.3431 160.102 19.1592 166.983 19.1592C174.983 19.1592 178.265 25.3501 178.302 31.9886V32.9769H178.321ZM173.099 29.1542C172.726 25.462 170.601 23.2429 166.964 23.2429C163.328 23.2429 160.867 25.5552 160.326 29.1542H173.099Z" fill="#E6EEFF"/>
<path d="M186.414 32.1565V43.3076H181.136V19.7933H186.32V24.7908H186.414C187.327 21.6021 189.602 19.5136 193.332 19.3271V24.6043C188.875 24.6603 186.414 27.5133 186.414 32.1565Z" fill="#E6EEFF"/>
<path d="M42.8477 40.6221C41.617 40.6221 40.5727 41.4799 40.3116 42.6733L30.5218 42.2071C30.5591 42.0207 30.5777 41.8342 30.5777 41.6477C30.5777 41.3121 30.5218 40.9764 30.4286 40.6408L33.9902 38.5896C34.8666 39.6711 36.4516 39.8949 37.5891 39.0744C38.7266 38.2539 39.025 36.6875 38.2604 35.5127C37.4959 34.338 35.9482 33.965 34.7361 34.655C33.524 35.3449 33.0578 36.874 33.6918 38.1234L30.2421 40.1186C29.4216 38.3844 27.389 37.6012 25.6175 38.3285C23.846 39.0557 22.951 41.051 23.585 42.8598L17.1703 44.4075C17.133 43.5311 16.7601 42.7106 16.1447 42.0766L17.3008 40.4729C18.6061 40.9205 20.042 40.2678 20.5641 38.9811C21.0862 37.6945 20.5082 36.2213 19.2588 35.6433C18.0094 35.0466 16.499 35.55 15.8463 36.7621C15.1937 37.9742 15.6039 39.5033 16.7787 40.2305L15.7158 41.7037C14.9699 41.1442 14.0189 40.9018 13.0865 41.0137L11.9863 34.7295C13.3662 34.4312 14.4291 33.3496 14.7275 31.9884C15.0259 30.6085 14.5037 29.1913 13.3849 28.3522C12.266 27.4944 10.7556 27.3825 9.52489 28.0352L6.74643 22.6088C7.34315 22.3104 7.82798 21.8442 8.18228 21.2848L10.4945 21.9002C10.4759 22.0307 10.4573 22.1426 10.4573 22.2731C10.4573 23.6157 11.4829 24.7532 12.8255 24.8838C14.1681 25.0143 15.3988 24.1006 15.6412 22.758C15.8836 21.4153 15.0818 20.1287 13.7765 19.7744C12.4712 19.4014 11.1099 20.0914 10.6251 21.3594L8.44334 20.7813C8.7417 20.0727 8.79764 19.2896 8.61117 18.5437L15.0445 15.5787C16.2379 17.0705 18.401 17.3875 19.9674 16.2687C21.5338 15.1498 21.944 13.0054 20.8998 11.4017L25.0022 7.39255C25.5057 7.70955 26.0837 7.91467 26.6618 7.95197V9.72346C25.3005 9.87264 24.2749 11.0661 24.3495 12.446C24.4241 13.8259 25.5616 14.9074 26.9415 14.9074C28.3214 14.9074 29.4589 13.8259 29.5335 12.446C29.6081 11.0661 28.6011 9.87264 27.2212 9.72346V7.95197C27.7433 7.91467 28.2282 7.76549 28.6757 7.52308L33.1697 12.6511C32.1255 14.031 32.2001 15.9517 33.3375 17.2383C34.4937 18.525 36.3957 18.8234 37.8875 17.9283C39.3793 17.0332 40.0133 15.2244 39.4352 13.6021L40.8338 12.8189C41.7288 13.8632 43.2766 14.0496 44.3768 13.2105C45.477 12.39 45.738 10.8423 44.9735 9.70482C44.2089 8.56733 42.6799 8.21303 41.5051 8.92163C40.3303 9.63023 39.9014 11.122 40.5354 12.3527L39.2115 13.0986C38.6707 12.1103 37.701 11.439 36.6008 11.2712C35.5006 11.1034 34.3631 11.4577 33.5613 12.2409L29.1605 7.22472C29.5894 6.88907 29.9437 6.44153 30.1861 5.9567L34.0461 6.59071C34.3445 7.93332 35.6498 8.80974 36.9924 8.56733C38.3537 8.34356 39.286 7.09419 39.1369 5.73293C38.9877 4.37168 37.7943 3.34607 36.433 3.42066C35.0531 3.49525 33.9902 4.61409 33.9716 5.99399L30.3913 5.39728C30.8947 3.68172 30.0743 1.85428 28.4519 1.08974C26.8296 0.325203 24.9089 0.884623 23.9206 2.37641C22.9323 3.8682 23.1934 5.86346 24.536 7.05689L20.5455 10.9542C19.9301 10.2456 19.0537 9.79805 18.1213 9.72346V7.00095C19.4826 6.85177 20.5082 5.65834 20.4336 4.27844C20.359 2.89854 19.2402 1.83564 17.8602 1.83564C16.4803 1.83564 15.3429 2.91718 15.2683 4.29709C15.1937 5.67699 16.2006 6.87042 17.5805 7.0196V9.72346C16.3498 9.8167 15.2496 10.5439 14.6716 11.6255C14.0935 12.7257 14.1121 14.031 14.7275 15.1125L8.46199 17.9842C8.23822 17.4435 7.88392 16.9773 7.43638 16.6043L9.87919 12.2036C10.103 12.2595 10.3081 12.2968 10.5318 12.2968C11.8558 12.2968 12.956 11.3085 13.1238 10.0032C13.2916 8.69786 12.4339 7.48578 11.1659 7.16878C9.87919 6.85177 8.57387 7.54173 8.10769 8.77245C7.64151 10.0032 8.18228 11.3831 9.33841 11.9984L6.9702 16.2873C5.53436 15.4296 3.72556 15.672 2.55078 16.8654C1.39465 18.0588 1.18952 19.8676 2.06595 21.2848C2.94237 22.702 4.65793 23.336 6.24295 22.8325L9.0587 28.3335C8.3501 28.8556 7.84663 29.6388 7.6788 30.4966L5.62759 29.8999C5.68353 29.6948 5.70218 29.471 5.70218 29.2659C5.70218 27.9419 4.71387 26.8417 3.40856 26.6925C2.10324 26.5434 0.891167 27.3825 0.574162 28.6692C0.257157 29.9558 0.965757 31.2611 2.21513 31.7087C3.44585 32.1562 4.82576 31.6154 5.42247 30.4407L7.60421 31.0747C7.60421 31.1306 7.60421 31.1866 7.60421 31.2425C7.60421 32.4732 8.21957 33.6107 9.26382 34.2634L7.86527 36.0908C6.83967 35.1771 5.27329 35.233 4.30363 36.2213C3.33397 37.2096 3.29667 38.7574 4.22904 39.783C5.16141 40.8086 6.70914 40.9205 7.79068 40.044C8.87223 39.1676 9.0587 37.6199 8.25687 36.501L9.7673 34.5244C10.2148 34.7295 10.7183 34.8228 11.2218 34.8228C11.2964 34.8228 11.371 34.8228 11.4456 34.8041L12.5644 41.1256C11.0726 41.5731 10.0284 42.9344 9.97242 44.4821C9.93513 46.0485 10.9048 47.447 12.3779 47.9692C13.8511 48.4913 15.492 48.0065 16.4431 46.7571L21.6643 49.088C21.627 49.2745 21.5897 49.4796 21.5897 49.6661C21.5897 50.99 22.578 52.1089 23.902 52.2581C25.226 52.4072 26.438 51.5494 26.7364 50.2628C27.0347 48.9761 26.3075 47.6708 25.0581 47.2233C23.8088 46.7757 22.4288 47.3538 21.8508 48.5472L16.7601 46.2723C16.9838 45.862 17.133 45.4145 17.1703 44.9483L23.8088 43.326C24.3122 44.2583 25.2073 44.911 26.2516 45.1348C27.2958 45.3399 28.3773 45.0788 29.1978 44.4262L31.6779 46.5706C31.0999 47.8386 31.6033 49.3304 32.8341 49.9644C34.0648 50.6171 35.5752 50.1882 36.2838 48.9948C36.9924 47.8013 36.6568 46.2723 35.5193 45.4891C34.3631 44.7059 32.8154 44.9669 31.9763 46.0671L29.6081 44.0346C29.9624 43.6616 30.2234 43.1954 30.3913 42.7106L40.2557 43.1954C40.2744 44.6313 41.4305 45.7688 42.8663 45.7688C44.3022 45.7688 45.4583 44.594 45.4397 43.1768C45.4397 41.7782 44.2835 40.6221 42.8477 40.6221Z" fill="#E6EEFF"/>
</svg>
