<svg width="216" height="55" viewBox="0 0 216 55" fill="none" xmlns="http://www.w3.org/2000/svg">
<path d="M90.333 28.3409C90.333 27.7718 90.2718 27.3212 90.1483 26.9893C90.0249 26.6573 89.8213 26.4061 89.5364 26.2355C89.2521 26.0644 88.8774 25.9555 88.4128 25.9084C87.953 25.8608 87.3817 25.8369 86.6989 25.8369H83.505C82.898 25.8369 82.3857 25.8559 81.9687 25.8938C81.5561 25.9274 81.2149 25.9983 80.9447 26.1072C80.674 26.2166 80.4655 26.3731 80.3187 26.5767C80.1714 26.7808 80.0647 27.051 79.9987 27.3879C79.9321 27.7241 79.8942 28.1389 79.8844 28.6323C79.8752 29.1207 79.8703 29.7061 79.8703 30.3889C79.8703 31.0718 79.8752 31.6599 79.8844 32.1532C79.899 32.6416 79.9391 33.0543 80.0057 33.3906C80.0718 33.7274 80.1763 33.9976 80.3187 34.2018C80.4655 34.4054 80.674 34.5619 80.9447 34.6712C81.2149 34.7801 81.5561 34.8537 81.9687 34.8916C82.3857 34.9247 82.898 34.9415 83.505 34.9415H86.6989C87.2295 34.9415 87.6871 34.9268 88.0716 34.8987C88.4555 34.87 88.7826 34.818 89.0528 34.7422C89.3231 34.6664 89.5413 34.5619 89.7075 34.4292C89.8732 34.2965 90.001 34.1303 90.0915 33.9315C90.1862 33.7274 90.2501 33.4853 90.2837 33.2059C90.3167 32.9211 90.333 32.5891 90.333 32.2101H91.6987C91.6987 32.6655 91.6705 33.0776 91.6137 33.4474C91.5568 33.8129 91.4545 34.14 91.3077 34.4292C91.1653 34.7135 90.9736 34.9604 90.7315 35.1689C90.4895 35.3774 90.1841 35.5507 89.8142 35.6882C89.4444 35.8209 89.003 35.9184 88.4913 35.9796C87.979 36.0462 87.3817 36.0792 86.6989 36.0792H83.505C82.6705 36.0792 81.9666 36.0272 81.3925 35.9227C80.8234 35.823 80.3539 35.6714 79.9841 35.4678C79.6142 35.2588 79.3277 34.9983 79.1236 34.6853C78.9243 34.3723 78.7776 34.0046 78.6828 33.5828C78.5924 33.161 78.5404 32.6844 78.5263 32.1532C78.5117 31.622 78.5046 31.0339 78.5046 30.3889C78.5046 29.7445 78.5117 29.1564 78.5263 28.6252C78.5404 28.094 78.5924 27.6175 78.6828 27.1956C78.7776 26.7738 78.9243 26.4061 79.1236 26.0931C79.3277 25.7801 79.6142 25.5218 79.9841 25.3176C80.3539 25.1091 80.8234 24.9548 81.3925 24.8557C81.9666 24.7512 82.6705 24.6992 83.505 24.6992H86.6989C87.3817 24.6992 87.979 24.7323 88.4913 24.7983C89.003 24.86 89.4444 24.9575 89.8142 25.0902C90.1841 25.218 90.4895 25.3821 90.7315 25.5808C90.9736 25.7801 91.1653 26.0151 91.3077 26.2853C91.4545 26.5555 91.5568 26.8615 91.6137 27.2026C91.6705 27.5443 91.6987 27.9234 91.6987 28.3409H90.333Z" fill="#E5EEFF"/>
<path d="M105.363 24.9268H106.729V35.8519H105.363V30.8445H95.3483V35.8519H93.9832V24.9268H95.3483V29.7062H105.363V24.9268Z" fill="#E5EEFF"/>
<path d="M109.459 24.9268H110.824V35.8519H109.459V24.9268Z" fill="#E5EEFF"/>
<path d="M124.93 28.3409C124.93 27.7718 124.868 27.3212 124.745 26.9893C124.622 26.6573 124.417 26.4061 124.133 26.2355C123.849 26.0644 123.474 25.9555 123.009 25.9084C122.549 25.8608 121.978 25.8369 121.295 25.8369H118.102C117.495 25.8369 116.982 25.8559 116.565 25.8938C116.153 25.9274 115.811 25.9983 115.541 26.1072C115.271 26.2166 115.062 26.3731 114.915 26.5767C114.768 26.7808 114.661 27.051 114.595 27.3879C114.529 27.7241 114.491 28.1389 114.481 28.6323C114.472 29.1207 114.467 29.7061 114.467 30.3889C114.467 31.0718 114.472 31.6599 114.481 32.1532C114.495 32.6416 114.536 33.0543 114.602 33.3906C114.668 33.7274 114.773 33.9976 114.915 34.2018C115.062 34.4054 115.271 34.5619 115.541 34.6712C115.811 34.7801 116.153 34.8537 116.565 34.8916C116.982 34.9247 117.495 34.9415 118.102 34.9415H121.295C121.826 34.9415 122.284 34.9268 122.668 34.8987C123.052 34.87 123.379 34.818 123.65 34.7422C123.92 34.6664 124.138 34.5619 124.304 34.4292C124.47 34.2965 124.598 34.1303 124.688 33.9315C124.783 33.7274 124.847 33.4853 124.88 33.2059C124.913 32.9211 124.93 32.5891 124.93 32.2101H126.295C126.295 32.6655 126.267 33.0776 126.21 33.4474C126.153 33.8129 126.051 34.14 125.904 34.4292C125.762 34.7135 125.57 34.9604 125.328 35.1689C125.086 35.3774 124.78 35.5507 124.41 35.6882C124.04 35.8209 123.6 35.9184 123.087 35.9796C122.576 36.0462 121.978 36.0792 121.295 36.0792H118.102C117.267 36.0792 116.563 36.0272 115.989 35.9227C115.42 35.823 114.951 35.6714 114.581 35.4678C114.211 35.2588 113.924 34.9983 113.72 34.6853C113.521 34.3723 113.374 34.0046 113.279 33.5828C113.189 33.161 113.137 32.6844 113.122 32.1532C113.108 31.622 113.101 31.0339 113.101 30.3889C113.101 29.7445 113.108 29.1564 113.122 28.6252C113.137 28.094 113.189 27.6175 113.279 27.1956C113.374 26.7738 113.521 26.4061 113.72 26.0931C113.924 25.7801 114.211 25.5218 114.581 25.3176C114.951 25.1091 115.42 24.9548 115.989 24.8557C116.563 24.7512 117.267 24.6992 118.102 24.6992H121.295C121.978 24.6992 122.576 24.7323 123.087 24.7983C123.6 24.86 124.04 24.9575 124.41 25.0902C124.78 25.218 125.086 25.3821 125.328 25.5808C125.57 25.7801 125.762 26.0151 125.904 26.2853C126.051 26.5555 126.153 26.8615 126.21 27.2026C126.267 27.5443 126.295 27.9234 126.295 28.3409H124.93Z" fill="#E5EEFF"/>
<path d="M138.82 24.9268H140.869L133.13 30.2753L141.097 35.8519H139.048L131.765 30.8445H129.944V35.8519H128.578V24.9268H129.944V29.7062H131.765L138.82 24.9268Z" fill="#E5EEFF"/>
<path d="M142.918 35.8519V24.9268H153.843V26.0645H144.283V29.7062H153.387V30.8445H144.283V34.7136H153.843V35.8519H142.918Z" fill="#E5EEFF"/>
<path d="M157.029 35.8519H155.664V24.9268H158.061L168.075 34.4861V24.9268H169.441V35.8519H167.62L157.029 26.0645V35.8519Z" fill="#E5EEFF"/>
<path d="M172.179 35.8519V24.9268H182.649V26.0645H173.545V29.7062H182.194V30.8445H173.545V35.8519H172.179Z" fill="#E5EEFF"/>
<path d="M184.469 24.9268H185.834V35.8519H184.469V24.9268Z" fill="#E5EEFF"/>
<path d="M195.453 29.7066C196.202 29.7066 196.845 29.7374 197.381 29.7992C197.917 29.8609 198.367 29.9535 198.732 30.0764C199.102 30.195 199.396 30.3445 199.614 30.5248C199.832 30.7051 200 30.9114 200.119 31.1438C200.238 31.3712 200.313 31.6273 200.346 31.9116C200.384 32.1965 200.404 32.5046 200.404 32.8365C200.404 33.1685 200.373 33.4815 200.311 33.7755C200.254 34.0647 200.15 34.33 199.998 34.5721C199.847 34.8136 199.64 35.0297 199.379 35.2192C199.118 35.4087 198.787 35.5701 198.383 35.7028C197.981 35.8354 197.494 35.9351 196.926 36.0017C196.361 36.0726 195.7 36.1084 194.941 36.1084H193.12C192.438 36.1084 191.84 36.0824 191.327 36.0299C190.816 35.9779 190.374 35.8999 190.005 35.7954C189.635 35.686 189.329 35.5512 189.087 35.3898C188.845 35.2241 188.651 35.0318 188.504 34.8136C188.362 34.591 188.262 34.3398 188.205 34.0598C188.148 33.7755 188.12 33.4625 188.12 33.1208H189.486C189.486 33.5475 189.547 33.8822 189.67 34.1237C189.794 34.3658 189.998 34.5483 190.282 34.6717C190.567 34.7898 190.939 34.8661 191.399 34.8992C191.864 34.9273 192.438 34.9419 193.12 34.9419H194.941C195.738 34.9419 196.399 34.904 196.926 34.8282C197.452 34.7519 197.872 34.6311 198.184 34.4654C198.497 34.2992 198.718 34.0836 198.846 33.8178C198.974 33.5475 199.038 33.2205 199.038 32.8365C199.038 32.4526 198.993 32.132 198.903 31.8764C198.817 31.6203 198.644 31.4161 198.383 31.2645C198.127 31.1129 197.764 31.0062 197.296 30.9445C196.826 30.8779 196.212 30.8448 195.453 30.8448H193.575C192.741 30.8448 192.025 30.814 191.427 30.7522C190.835 30.6905 190.337 30.6028 189.934 30.4891C189.531 30.3705 189.208 30.2259 188.966 30.0553C188.724 29.8799 188.54 29.6806 188.411 29.458C188.289 29.2349 188.208 28.9885 188.17 28.7183C188.132 28.4432 188.113 28.147 188.113 27.8291C188.113 27.4972 188.141 27.1891 188.198 26.9042C188.26 26.6199 188.371 26.3638 188.533 26.1363C188.694 25.904 188.914 25.6977 189.194 25.5174C189.474 25.3371 189.832 25.1882 190.268 25.0696C190.709 24.9461 191.238 24.8535 191.854 24.7918C192.471 24.7306 193.196 24.6997 194.031 24.6997H195.396C196.079 24.6997 196.677 24.7257 197.189 24.7777C197.701 24.8253 198.142 24.9033 198.512 25.0127C198.882 25.1167 199.187 25.2493 199.429 25.4107C199.675 25.5672 199.87 25.7567 200.012 25.9799C200.16 26.1981 200.261 26.4466 200.318 26.7266C200.375 27.0066 200.404 27.3169 200.404 27.6586H199.038C199.038 27.2318 198.976 26.8972 198.853 26.6557C198.729 26.4136 198.526 26.2333 198.242 26.1147C197.957 25.9918 197.582 25.916 197.117 25.8873C196.653 25.8542 196.079 25.8374 195.396 25.8374H194.031C193.12 25.8374 192.371 25.8705 191.783 25.9371C191.195 25.9988 190.73 26.1055 190.389 26.2571C190.047 26.4087 189.81 26.6129 189.677 26.869C189.545 27.1252 189.478 27.4452 189.478 27.8291C189.478 28.0663 189.495 28.277 189.528 28.4622C189.562 28.6468 189.628 28.8109 189.727 28.9528C189.832 29.0903 189.976 29.2067 190.161 29.3015C190.346 29.3963 190.59 29.4743 190.894 29.536C191.198 29.5977 191.567 29.6427 192.003 29.6714C192.445 29.6952 192.968 29.7066 193.575 29.7066H195.453Z" fill="#E5EEFF"/>
<path d="M214.059 24.9268H215.425V35.8519H214.059V30.8445H204.045V35.8519H202.679V24.9268H204.045V29.7062H214.059V24.9268Z" fill="#E5EEFF"/>
<path d="M27.4596 52.5251C26.2677 47.9103 26.963 44.032 27.4596 40.0264L29.943 40.9886V43.8728C30.1082 45.1545 30.3399 47.8145 29.943 48.1989C29.5455 48.5834 28.7841 47.0775 28.4527 46.276C28.6184 50.2816 28.6515 57.1399 27.4596 52.5251Z" fill="#E5EEFF"/>
<path fill-rule="evenodd" clip-rule="evenodd" d="M56.8774 4.73242L56.0034 6.59036C55.2025 8.29127 54.9063 9.50535 54.8332 10.4573C54.7601 11.4077 54.9019 12.1626 55.0828 13.0144C55.0936 13.0669 55.105 13.1194 55.1164 13.173C55.2891 13.9821 55.4879 14.9118 55.4527 16.0409C55.424 16.9647 55.2425 17.9887 54.8175 19.205C55.7191 19.5256 56.4832 20.1223 57.1297 20.8084C58.0888 21.8254 58.9037 23.1581 59.6359 24.4128C59.7658 24.6353 59.8931 24.8557 60.0182 25.0723C60.6241 26.1202 61.1835 27.0884 61.777 27.886C62.507 28.8678 63.1259 29.3595 63.6826 29.483L67.3839 30.3055L63.7866 31.5044C60.1102 32.7299 56.9927 31.0777 54.5332 28.9999C53.2963 27.9559 52.1678 26.757 51.1628 25.6669C51.0431 25.5369 50.9256 25.4091 50.8102 25.2835C49.9341 24.3304 49.1749 23.5046 48.4801 22.897L48.2153 22.6653L48.1438 22.3209C47.7653 20.5057 47.5525 16.6831 48.3014 13.1211C49.0373 9.62177 50.8281 5.8669 54.8592 5.11094L56.8774 4.73242ZM50.1382 21.5638C50.846 22.218 51.5954 23.0335 52.3563 23.8615C52.4732 23.9887 52.5902 24.116 52.7072 24.2433C53.7111 25.3322 54.7617 26.444 55.888 27.3954C57.4043 28.6756 58.9557 29.5821 60.6025 29.7797C60.4227 29.5712 60.2527 29.3562 60.0913 29.1396C59.4187 28.2348 58.7846 27.1371 58.1797 26.0887C58.059 25.8803 57.9398 25.6739 57.8218 25.4714C57.0832 24.2054 56.3754 23.0698 55.6016 22.2494C54.8359 21.4371 54.1221 21.0564 53.3727 21.0564H51.7665L52.4104 19.5851C53.1036 18.0007 53.3256 16.8727 53.3532 15.9759C53.3803 15.1073 53.2308 14.4034 53.0532 13.5683C53.0445 13.5294 53.0364 13.4898 53.0277 13.4498C52.8409 12.5687 52.6416 11.5647 52.7391 10.296C52.7895 9.63802 52.9184 8.92647 53.1534 8.1326C51.7357 9.26166 50.8487 11.2149 50.357 13.5532C49.7158 16.6035 49.8545 19.8851 50.1382 21.5638Z" fill="#E5EEFF"/>
<path fill-rule="evenodd" clip-rule="evenodd" d="M20.4421 40.8506L20.7112 41.188C21.3155 41.9434 22.7998 43.901 23.9256 45.7177C24.296 46.315 24.3605 46.9313 24.1753 47.5085C23.9998 48.0544 23.6186 48.5087 23.2033 48.8704C22.4034 49.5668 21.2993 50.0726 20.5038 50.3423C20.3256 50.4522 20.1231 50.5085 19.9634 50.5421C19.743 50.5876 19.4928 50.6103 19.2383 50.613C18.7352 50.6185 18.1433 50.547 17.6392 50.3661C16.6596 50.0152 16.026 49.4071 15.7049 48.6251C15.3951 47.8708 15.4065 47.0271 15.5538 46.2327C15.8462 44.6515 16.7284 43.0053 17.3072 42.0094L17.4296 41.7982L20.4421 40.8506ZM20.3078 49.0746C20.9852 48.8233 21.8056 48.4161 22.3758 47.9201C22.7013 47.6363 22.8978 47.3645 22.9753 47.1224C23.0435 46.9112 23.0376 46.6773 22.8545 46.3816C21.9047 44.8491 20.6803 43.1975 19.9931 42.3127L18.2755 42.8531C17.7172 43.8354 17.0251 45.2065 16.7928 46.4623C16.6688 47.1322 16.6888 47.7035 16.8708 48.1464C17.0413 48.5623 17.3825 48.9354 18.0648 49.1796C18.25 49.2463 18.4699 49.2939 18.6968 49.3226C18.1536 48.7145 17.8493 48.0463 17.7329 47.3569C17.5552 46.2977 17.8368 45.2759 18.2132 44.4663C18.3599 44.1506 18.7347 44.0136 19.0504 44.1603C19.3655 44.3071 19.5025 44.6818 19.3558 44.9975C19.0401 45.6771 18.8554 46.4309 18.9756 47.1479C19.0823 47.7798 19.4375 48.4562 20.3078 49.0746Z" fill="#E5EEFF"/>
<path fill-rule="evenodd" clip-rule="evenodd" d="M10.0387 36.015C13.0549 36.015 15.4999 33.5701 15.4999 30.5538C15.4999 27.5376 13.0549 25.0926 10.0387 25.0926C7.02298 25.0926 4.57749 27.5376 4.57749 30.5538C4.57749 33.5701 7.02298 36.015 10.0387 36.015ZM10.0387 37.2751C13.7513 37.2751 16.7605 34.2659 16.7605 30.5538C16.7605 26.8417 13.7513 23.8325 10.0387 23.8325C6.32659 23.8325 3.31738 26.8417 3.31738 30.5538C3.31738 34.2659 6.32659 37.2751 10.0387 37.2751Z" fill="#E5EEFF"/>
<path d="M8.8394 27.7272C8.8394 28.2985 8.37586 28.7621 7.80456 28.7621C7.23326 28.7621 6.77026 28.2985 6.77026 27.7272C6.77026 27.1559 7.23326 26.6924 7.80456 26.6924C8.37586 26.6924 8.8394 27.1559 8.8394 27.7272Z" fill="#E5EEFF"/>
<path d="M36.7018 50.8442C35.5099 46.2299 36.2052 37.0647 36.7018 33.0586L38.5641 35.9996L39.1852 42.1918C39.3503 43.4736 39.5821 46.1335 39.1852 46.518C38.7877 46.9025 38.0263 45.3965 37.6949 44.5956C37.8606 48.6012 37.8937 55.459 36.7018 50.8442Z" fill="#E5EEFF"/>
<path fill-rule="evenodd" clip-rule="evenodd" d="M18.7588 37.2649L11.6779 35.6436L10.9636 43.8979L21.9819 41.643V41.6425L22.0663 41.6251L21.3786 40.8237L18.7588 37.2649ZM17.3925 38.245L12.8086 37.195L12.41 41.8038L17.3925 38.245ZM19.7156 40.8199L14.4456 41.8981L18.2871 39.1542L19.7156 40.8199Z" fill="#E5EEFF"/>
<path fill-rule="evenodd" clip-rule="evenodd" d="M12.1234 7.88509C16.2632 7.78329 20.3035 9.0656 22.3261 10.1118L21.9865 11.5398C21.9681 11.5398 21.9497 11.5403 21.9313 11.5403C21.2419 11.5474 19.9369 11.5604 18.6746 11.9432C17.3874 12.3342 16.2746 13.0658 15.8387 14.458C14.727 18.0093 13.4468 20.0389 12.0984 21.2768C10.8817 22.3939 9.65241 22.8152 8.67823 23.1494C8.57101 23.1862 8.46704 23.2219 8.36686 23.2571C6.02155 24.0829 3.64429 22.7806 2.19844 20.9633C0.745555 19.1362 -0.0233966 16.4827 1.14195 14.217M12.1234 7.88509C7.95963 7.98744 3.56307 9.50531 1.14195 14.217L12.1234 7.88509ZM12.1607 9.39701C8.32949 9.49123 4.56812 10.8586 2.48707 14.908L2.48653 14.9086C1.68725 16.4633 2.15188 18.4755 3.3822 20.0216C4.61957 21.5773 6.3757 22.355 7.86433 21.8308C7.97047 21.7934 8.07606 21.7571 8.18166 21.7203C9.15477 21.3846 10.1013 21.0575 11.0761 20.1624C12.1591 19.1681 13.3293 17.412 14.3956 14.0064C15.0394 11.9497 16.6932 10.9642 18.2355 10.4963C18.4212 10.44 18.6075 10.3901 18.7927 10.3468C16.9071 9.77878 14.5461 9.33798 12.1607 9.39701Z" fill="#E5EEFF"/>
<path fill-rule="evenodd" clip-rule="evenodd" d="M5.43855 9.51202C7.71888 7.75588 11.0893 7.6048 14.0822 7.92538C16.6149 8.19668 19.0469 8.82646 20.6741 9.30354C20.6562 8.90552 20.6535 8.4669 20.6606 8.01419C20.6757 6.96473 20.7429 5.73224 20.8241 4.50949C20.8664 3.87375 20.7386 3.44758 20.5658 3.16708C20.3931 2.88711 20.1451 2.70083 19.8564 2.59361C19.2261 2.35913 18.5367 2.53783 18.2541 2.82051C17.6941 3.38043 17.4418 4.327 17.9102 5.7317L18.6521 7.95733L16.7503 6.58404C14.2988 4.81383 12.8205 4.51599 12.253 4.40173C12.2189 4.39469 12.1875 4.38873 12.1599 4.38278C11.4911 4.24144 10.2456 4.04596 8.97411 4.17592C7.69776 4.30697 6.51725 4.74993 5.78945 5.76419C4.80822 7.13206 4.67935 8.09704 4.8066 8.66509C4.89866 9.0761 5.14018 9.35769 5.43855 9.51202ZM3.33097 8.99542C3.07429 7.85065 3.43981 6.44487 4.56075 4.8826C5.64595 3.37014 7.33169 2.82375 8.82032 2.67159C10.3144 2.51888 11.7337 2.74686 12.4729 2.90336C12.5016 2.90931 12.5324 2.91581 12.566 2.92231C13.1102 3.0344 14.3091 3.28133 16.1546 4.38007C16.1535 3.35769 16.4876 2.44848 17.1846 1.75101C17.9552 0.980646 19.297 0.772436 20.3833 1.1763C20.9535 1.38825 21.4858 1.77754 21.853 2.37429C22.2207 2.96996 22.3923 3.72213 22.3333 4.61021C22.2521 5.82538 22.1876 7.027 22.1725 8.03639C22.1573 9.07827 22.1985 9.81852 22.2905 10.1716L22.6349 11.4918L21.3331 11.0846C19.8911 10.633 16.9674 9.7557 13.9214 9.42917C10.8201 9.09668 7.85317 9.36581 6.09866 10.9275L5.81328 11.1821L5.43909 11.103C4.46545 10.8967 3.59198 10.1602 3.33097 8.99542Z" fill="#E5EEFF"/>
<path fill-rule="evenodd" clip-rule="evenodd" d="M24.9899 35.1596C28.311 35.1596 30.8713 32.6437 30.8713 29.6984C30.8713 26.7531 28.311 24.2372 24.9899 24.2372C21.6688 24.2372 19.1085 26.7531 19.1085 29.6984C19.1085 32.6437 21.6688 35.1596 24.9899 35.1596ZM24.9899 36.4197C28.9338 36.4197 32.1314 33.4105 32.1314 29.6984C32.1314 25.9863 28.9338 22.9766 24.9899 22.9766C21.0455 22.9766 17.8484 25.9863 17.8484 29.6984C17.8484 33.4105 21.0455 36.4197 24.9899 36.4197Z" fill="#E5EEFF"/>
<path d="M28.9517 32.2804C28.9517 33.1257 28.2667 33.8113 27.4208 33.8113C26.575 33.8113 25.8894 33.1257 25.8894 32.2804C25.8894 31.4346 26.575 30.749 27.4208 30.749C28.2667 30.749 28.9517 31.4346 28.9517 32.2804Z" fill="#E5EEFF"/>
<path fill-rule="evenodd" clip-rule="evenodd" d="M35.3458 17.5188C34.5297 16.6312 33.5338 16.2728 32.7898 16.0767L33.1537 14.6953C34.0039 14.9195 35.31 15.37 36.3968 16.5516C37.4436 17.6894 38.2142 19.4238 38.284 22.067C40.293 23.3823 41.1557 24.9695 41.4817 26.4711C41.7291 27.6132 41.6571 28.7558 41.6089 29.5128C41.5943 29.7451 41.5819 29.9412 41.5813 30.0901L40.1533 30.0879C40.1533 29.8166 40.1712 29.535 40.1896 29.2415C40.2356 28.5094 40.2865 27.7004 40.0856 26.7744C39.8241 25.5679 39.118 24.2255 37.2075 23.0769L36.8615 22.869V22.465C36.8615 19.8722 36.151 18.3939 35.3458 17.5188Z" fill="#E5EEFF"/>
<path fill-rule="evenodd" clip-rule="evenodd" d="M40.2484 21.0141C40.6393 19.6062 40.0854 18.7176 39.6863 18.4089L40.5603 17.2793C41.3569 17.895 42.024 19.1795 41.7451 20.8555C42.4643 21.3466 42.9473 21.9954 43.2581 22.6138C43.628 23.3508 43.7769 24.0889 43.778 24.5638L42.3495 24.5676C42.3489 24.3331 42.2612 23.8111 41.9818 23.2549C41.7078 22.7107 41.2735 22.1773 40.6133 21.8416L40.0924 21.5768L40.2484 21.0141Z" fill="#E5EEFF"/>
<path fill-rule="evenodd" clip-rule="evenodd" d="M28.729 1.96924L32.1026 6.30679L36.7353 5.88549L39.3839 9.41672L42.9124 10.2988L45.209 16.2696L43.5221 17.4236C42.1348 16.1624 38.8667 14.338 34.8925 13.0384C30.9297 11.7431 26.4622 11.0358 22.6841 11.8227L19.6396 12.4573L28.729 1.96924ZM25.0532 9.4178C28.579 9.24505 32.2922 9.97827 35.5451 11.0418C37.9927 11.8422 40.2492 12.8526 42.033 13.8636L41.3436 12.0718L38.1508 11.2736L35.7584 8.0835L31.1496 8.50209L28.6413 5.2779L25.0532 9.4178Z" fill="#E5EEFF"/>
<path fill-rule="evenodd" clip-rule="evenodd" d="M10.8507 22.8619C11.2888 19.9437 12.2841 17.1418 14.1539 14.8263C16.0612 12.4648 18.8223 10.681 22.6471 9.77072L22.6936 9.75989L22.7418 9.75285C28.8946 8.87451 34.7402 10.4904 39.4558 12.8433C44.1615 15.1913 47.8368 18.3207 49.6693 20.6103L50.0521 21.0884L49.8247 21.6565C48.0697 26.0422 45.0041 31.9594 39.3252 36.2211C38.5303 36.8178 37.6866 37.3799 36.7909 37.9003C36.1752 38.5994 35.4047 39.1312 34.5025 39.4799C32.6121 40.4498 29.2655 41.5133 25.7565 41.9763C23.4317 42.2834 20.9207 42.3424 18.6675 41.868C18.5603 41.8453 18.4536 41.8214 18.3474 41.7965L20.3191 41.4023L19.1803 39.4502C19.3779 39.4637 19.5734 39.4756 19.7684 39.4864C26.3792 39.8411 31.4673 38.4765 35.4106 36.2693C35.8141 35.7251 36.1059 35.027 36.2565 34.152C36.583 32.2534 36.2326 29.522 34.7787 25.8868C33.1438 21.8005 31.372 19.6214 29.3381 18.4193C27.283 17.2052 24.7942 16.8852 21.4704 16.8852C20.4106 16.8852 19.1413 16.8879 17.8882 17.1288C16.6796 17.3612 15.5738 17.8003 14.735 18.5964C13.874 20.0103 13.281 21.5936 12.9171 23.2442L12.9106 23.2897C12.8213 23.9086 12.7584 24.5373 12.7189 25.1725C12.1671 24.9868 11.5758 24.8861 10.9612 24.8861C10.8106 24.8861 10.6617 24.892 10.5144 24.9039C10.5929 24.2205 10.7045 23.5377 10.8507 22.8619ZM11.6045 35.8588C11.6462 36.0565 11.689 36.2525 11.7317 36.4469C11.9473 37.4151 12.1779 38.3417 12.4108 39.2108L12.6122 36.9982L15.1189 37.4758C14.7101 36.9354 14.3137 36.2953 13.9882 35.6211C13.9032 35.4451 13.8334 35.2826 13.7733 35.1245C13.1245 35.5106 12.3897 35.7673 11.6045 35.8588ZM16.5588 15.2861C18.0962 13.739 20.2059 12.5189 23.0863 11.8258C28.6785 11.04 34.0698 12.5032 38.5178 14.7229C42.6556 16.7877 45.896 19.466 47.6381 21.4561C45.9485 25.5234 43.1716 30.5882 38.357 34.3177C38.7193 31.9101 38.2162 28.8251 36.7287 25.107C35.0029 20.7917 32.9938 18.1399 30.4065 16.6112C27.8408 15.0949 24.8684 14.7846 21.4704 14.7846H21.4417C20.403 14.7846 18.9556 14.7846 17.4913 15.0662C17.1837 15.1252 16.8718 15.1978 16.5588 15.2861Z" fill="#E5EEFF"/>
</svg>
