<svg width="212" height="45" viewBox="0 0 212 45" fill="none" xmlns="http://www.w3.org/2000/svg">
<g clip-path="url(#clip0_2082_77610)">
<path d="M37.6657 13.9122C36.7548 13.3517 35.5709 13.3517 34.5688 13.9122L27.4646 18.2092L22.6374 21.0117L15.5332 25.309C14.6224 25.8693 13.4385 25.8693 12.4366 25.309L6.78964 21.9459C5.87885 21.3854 5.24129 20.3579 5.24129 19.2368V12.6043C5.24129 11.4834 5.78776 10.4558 6.78964 9.89528L12.3455 6.62573C13.2563 6.06524 14.4404 6.06524 15.4422 6.62573L20.9981 9.89528C21.909 10.4558 22.5464 11.4834 22.5464 12.6043V16.9015L27.3737 14.0056V9.70844C27.3737 8.58745 26.8272 7.55989 25.8254 6.9994L15.5332 0.833946C14.6224 0.27345 13.4385 0.27345 12.4366 0.833946L1.96241 6.9994C0.960541 7.55989 0.414062 8.58745 0.414062 9.70844V22.1328C0.414062 23.2536 0.960541 24.2813 1.96241 24.8418L12.4366 31.0073C13.3474 31.5678 14.5314 31.5678 15.5332 31.0073L22.6374 26.8034L27.4646 23.9077L34.5688 19.7039C35.4797 19.1435 36.6637 19.1435 37.6657 19.7039L43.2214 22.9736C44.1323 23.5341 44.7699 24.5616 44.7699 25.6826V32.315C44.7699 33.4361 44.2232 34.4635 43.2214 35.024L37.6657 38.3871C36.7548 38.9476 35.5709 38.9476 34.5688 38.3871L29.0132 35.1176C28.1023 34.5571 27.4646 33.5296 27.4646 32.4084V28.1114L22.6374 31.0073V35.3043C22.6374 36.4253 23.1841 37.453 24.1859 38.0133L34.66 44.179C35.5709 44.7395 36.7548 44.7395 37.7567 44.179L48.2308 38.0133C49.1416 37.453 49.7793 36.4253 49.7793 35.3043V22.88C49.7793 21.7592 49.2328 20.7315 48.2308 20.1711L37.6657 13.9122Z" fill="#E6EEFF"/>
<path d="M69.0121 40.6207V30.3059C70.1228 31.7144 72.1385 32.5015 74.4834 32.5015C80.4485 32.5015 84.4799 28.2348 84.4799 21.7312C84.4799 15.2276 80.7774 10.9609 74.9771 10.9609C72.303 10.9609 70.2462 11.9551 69.0121 13.5707V11.2923H63.2939V40.6207H69.0121ZM73.7841 27.5305C70.6988 27.5305 68.683 25.2108 68.683 21.7312C68.683 18.2102 70.6988 15.8904 73.7841 15.8904C76.7872 15.8904 78.844 18.2102 78.844 21.7312C78.844 25.2108 76.7872 27.5305 73.7841 27.5305Z" fill="#E6EEFF"/>
<path d="M97.4644 32.5015C103.841 32.5015 108.407 27.9448 108.407 21.7312C108.407 15.5176 103.841 10.9609 97.4644 10.9609C91.0881 10.9609 86.5217 15.5176 86.5217 21.7312C86.5217 27.9448 91.0881 32.5015 97.4644 32.5015ZM97.4644 27.5305C94.3791 27.5305 92.2811 25.1694 92.2811 21.7312C92.2811 18.2516 94.3791 15.8904 97.4644 15.8904C100.55 15.8904 102.648 18.2516 102.648 21.7312C102.648 25.1694 100.55 27.5305 97.4644 27.5305Z" fill="#E6EEFF"/>
<path d="M117.581 32.1702V2.2207H111.864V32.1702H117.581Z" fill="#E6EEFF"/>
<path d="M134.77 11.2925L130.451 24.7552L126.09 11.2925H120.249L127.777 32.0046L124.732 40.6208H130.204L133.125 32.0874L140.652 11.2925H134.77Z" fill="#E6EEFF"/>
<path d="M156.712 13.3635C155.56 11.9137 153.504 10.9609 150.994 10.9609C144.947 10.9609 141.286 15.2276 141.286 21.7312C141.286 28.2348 144.947 32.5015 151.076 32.5015C153.504 32.5015 155.684 31.5902 156.753 30.0574V32.7915C156.753 34.7384 155.478 36.1054 153.75 36.1054H144.206V40.6207H154.655C159.345 40.6207 162.471 37.7623 162.471 33.4128V11.2923H156.712V13.3635ZM151.981 27.5305C148.937 27.5305 146.922 25.2523 146.922 21.7312C146.922 18.2102 148.937 15.8904 151.981 15.8904C155.067 15.8904 157.083 18.2102 157.083 21.7312C157.083 25.2523 155.067 27.5305 151.981 27.5305Z" fill="#E6EEFF"/>
<path d="M176.886 32.5015C183.263 32.5015 187.829 27.9448 187.829 21.7312C187.829 15.5176 183.263 10.9609 176.886 10.9609C170.51 10.9609 165.944 15.5176 165.944 21.7312C165.944 27.9448 170.51 32.5015 176.886 32.5015ZM176.886 27.5305C173.801 27.5305 171.703 25.1694 171.703 21.7312C171.703 18.2516 173.801 15.8904 176.886 15.8904C179.972 15.8904 182.07 18.2516 182.07 21.7312C182.07 25.1694 179.972 27.5305 176.886 27.5305Z" fill="#E6EEFF"/>
<path d="M196.717 32.17V20.737C196.717 18.0445 198.485 16.0975 200.995 16.0975C203.381 16.0975 204.985 17.9202 204.985 20.4471V32.17H210.744V19.1629C210.744 14.3577 207.701 10.9609 203.011 10.9609C200.172 10.9609 197.868 12.1622 196.717 14.192V11.2923H190.957V32.17H196.717Z" fill="#E6EEFF"/>
</g>
<defs>
<clipPath id="clip0_2082_77610">
<rect width="211.173" height="44.1857" fill="white" transform="translate(0.413452 0.413574)"/>
</clipPath>
</defs>
</svg>
