<svg width="70" height="79" viewBox="0 0 70 79" fill="none" xmlns="http://www.w3.org/2000/svg">
<path d="M7.30289 53.4709C6.88378 53.4709 6.47409 53.5952 6.12561 53.8281C5.77713 54.0609 5.50553 54.3919 5.34515 54.7791C5.18476 55.1663 5.1428 55.5923 5.22456 56.0034C5.30632 56.4145 5.50814 56.792 5.8045 57.0884C6.10085 57.3847 6.47843 57.5866 6.88949 57.6683C7.30054 57.7501 7.72661 57.7081 8.11382 57.5477C8.50102 57.3874 8.83197 57.1158 9.06482 56.7673C9.29766 56.4188 9.42194 56.0091 9.42194 55.59C9.42194 55.2142 9.31926 54.8724 9.14839 54.5307C8.95895 54.2093 8.68924 53.9427 8.36571 53.757C8.04217 53.5713 7.67593 53.4728 7.30289 53.4713M37.2408 7.36758C37.2408 6.94848 37.1165 6.53878 36.8837 6.1903C36.6508 5.84183 36.3199 5.57022 35.9327 5.40984C35.5455 5.24945 35.1194 5.20749 34.7083 5.28925C34.2973 5.37102 33.9197 5.57284 33.6234 5.86919C33.327 6.16555 33.1252 6.54312 33.0434 6.95418C32.9616 7.36523 33.0036 7.7913 33.164 8.17851C33.3244 8.56572 33.596 8.89667 33.9445 9.12951C34.2929 9.36235 34.7026 9.48663 35.1217 9.48663C35.6828 9.48348 36.2199 9.25921 36.6167 8.86249C37.0134 8.46578 37.2376 7.92862 37.2408 7.36758ZM63.0797 25.7544C63.4988 25.7544 63.9085 25.6301 64.257 25.3972C64.6055 25.1644 64.8771 24.8335 65.0374 24.4462C65.1978 24.059 65.2398 23.633 65.158 23.2219C65.0763 22.8109 64.8744 22.4333 64.5781 22.1369C64.2817 21.8406 63.9042 21.6388 63.4931 21.557C63.0821 21.4752 62.656 21.5172 62.2688 21.6776C61.8816 21.838 61.5506 22.1096 61.3178 22.458C61.0849 22.8065 60.9607 23.2162 60.9607 23.6353C60.962 23.9949 61.0562 24.3481 61.2342 24.6606C61.4162 24.991 61.6833 25.2667 62.0079 25.459C62.3324 25.6514 62.7025 25.7533 63.0797 25.7544ZM8.29209 21.6871C7.26686 21.1059 6.00217 21.4481 5.42136 22.4733C4.84055 23.4986 5.18229 24.7632 6.20753 25.344C7.23276 25.9249 8.49745 25.5831 9.07826 24.5579C9.65946 23.5667 9.31732 22.268 8.29209 21.6871ZM63.9321 53.8809C63.6245 53.6759 63.2486 53.6073 62.8728 53.5732C62.5921 53.5694 62.3135 53.6214 62.0531 53.7262C61.7927 53.831 61.5557 53.9865 61.3559 54.1836C61.1561 54.3807 60.9974 54.6156 60.8891 54.8745C60.7809 55.1335 60.7251 55.4114 60.7251 55.6921C60.7251 55.9728 60.7809 56.2507 60.8891 56.5096C60.9974 56.7686 61.1561 57.0035 61.3559 57.2006C61.5557 57.3977 61.7927 57.5532 62.0531 57.658C62.3135 57.7627 62.5921 57.8147 62.8728 57.8109C63.6245 57.8109 64.3064 57.401 64.7183 56.7516C65.2995 55.7605 64.9574 54.4617 63.9321 53.8809ZM33.0027 71.5493C32.9 72.5064 33.4812 73.4289 34.3697 73.7707C34.5746 73.8388 34.8141 73.9074 35.0191 73.9074C35.5373 73.9066 36.0391 73.7253 36.4382 73.3948C36.8373 73.0642 37.1089 72.605 37.2063 72.096C37.2824 71.5457 37.138 70.9876 36.8047 70.5431C36.4713 70.0987 35.976 69.8038 35.4264 69.7227C34.8768 69.6416 34.3174 69.7808 33.8699 70.11C33.4224 70.4393 33.123 70.9319 33.0368 71.4807C33.0183 71.4991 33.0063 71.5231 33.0027 71.5489" fill="#E5EEFF"/>
<path d="M66.0176 49.9851C65.7658 49.8395 65.5029 49.7138 65.2314 49.6093V29.8214C65.5391 29.7187 65.8467 29.5479 66.1544 29.4115C69.3316 27.6342 70.494 23.6014 68.7174 20.4223C66.9409 17.2431 62.9074 16.0827 59.7282 17.8592C59.4547 17.996 59.2156 18.1668 58.9766 18.3377L41.5468 8.25587C41.5809 7.94822 41.615 7.67467 41.615 7.36741C41.6146 3.7109 38.6428 0.771973 35.02 0.771973C31.3972 0.771973 28.3556 3.77948 28.3556 7.40189C28.3556 7.70954 28.3897 7.98309 28.4237 8.29035L11.1308 18.304C10.4429 17.7651 9.65487 17.368 8.81242 17.1357C7.96998 16.9034 7.08982 16.8406 6.22291 16.9508C5.35601 17.0611 4.51959 17.3422 3.7621 17.778C3.0046 18.2137 2.34108 18.7954 1.80996 19.4893C1.27883 20.1833 0.890661 20.9757 0.667919 21.8208C0.445178 22.6658 0.392294 23.5466 0.512329 24.4122C0.632365 25.2778 0.922934 26.111 1.36721 26.8635C1.81149 27.616 2.40064 28.2729 3.10056 28.7962C3.33963 28.9671 3.57908 29.1379 3.85225 29.3088C4.13139 29.4796 4.42957 29.6172 4.7407 29.7187V49.4725C1.35697 50.8395 -0.283948 54.6684 1.08303 58.0506C2.45001 61.4328 6.27778 63.0745 9.66151 61.7075C9.96916 61.6048 10.2427 61.4339 10.5159 61.2976C10.7894 61.1267 11.0626 60.9558 11.3361 60.7508L28.4582 70.6277C27.877 74.216 30.3378 77.5994 33.9265 78.1806C37.5152 78.7618 40.8986 76.301 41.4794 72.7123C41.5476 72.3364 41.5476 71.9947 41.5476 71.6185C41.5431 71.2984 41.5203 70.9789 41.4794 70.6614L58.4992 60.8531C58.7728 61.0581 59.0459 61.2631 59.3536 61.4343C62.5308 63.2116 66.5647 62.0837 68.3428 58.9053C70.0503 55.7266 69.0251 51.8306 66.0176 49.9851ZM67.2137 58.2556C65.8126 60.6478 62.7024 61.468 60.3102 60.067C58.3965 58.9391 57.4395 56.7177 57.9521 54.565L49.9548 49.8828C48.7206 51.1344 47.1441 51.9933 45.4233 52.3518C43.7025 52.7103 41.9142 52.5523 40.2829 51.8976C39.0868 52.2735 36.5245 52.5129 36.5245 52.5129V66.5934C39.327 67.4478 40.8641 70.4212 40.0117 73.2234C39.1593 76.0255 36.1839 77.563 33.3814 76.7105C33.3473 76.7105 33.3132 76.6765 33.2787 76.6765C33.0396 76.6083 32.8343 76.5056 32.6293 76.4029C29.9976 75.1041 28.9724 71.8916 30.2712 69.2945C30.9206 67.9957 32.0826 67.039 33.4484 66.5946V52.2406C32.4447 51.9303 31.4627 51.5535 30.5091 51.1126C28.9821 51.4178 27.4067 51.3831 25.8947 51.0109C24.3827 50.6388 22.9711 49.9384 21.7601 48.9595L12.225 54.4615C12.458 55.4379 12.3963 56.4614 12.0476 57.4027C11.6989 58.344 11.079 59.1608 10.2662 59.7498C9.45336 60.3388 8.48415 60.6736 7.48108 60.7118C6.47801 60.75 5.48614 60.49 4.63085 59.9645C3.77557 59.4391 3.09528 58.6718 2.67601 57.7598C2.25673 56.8478 2.11729 55.8319 2.27532 54.8406C2.43335 53.8493 2.88175 52.9272 3.56382 52.1907C4.2459 51.4542 5.13103 50.9366 6.10729 50.7031C7.74782 50.2932 9.49064 50.7713 10.7569 51.9333L19.6767 46.7726C16.6692 42.5349 17.1477 36.7249 20.8391 33.0339L10.6875 27.2239C8.6727 29.1375 5.49277 29.0353 3.57908 26.9848C3.12375 26.5011 2.76858 25.9322 2.53402 25.3107C2.29946 24.6892 2.19014 24.0275 2.21236 23.3636C2.23458 22.6997 2.3879 22.0467 2.66349 21.4423C2.93908 20.8379 3.33149 20.294 3.81815 19.8419C5.86862 17.9282 9.0129 18.0305 10.9266 20.0809C12.089 21.3111 12.533 23.0199 12.1568 24.6604L23.4006 31.1194C24.8738 30.327 26.5132 29.8937 28.1855 29.8547C29.7582 28.5567 33.7878 27.2239 33.7878 27.2239V11.845C31.2929 11.0933 29.8919 8.46161 30.6435 5.96672C31.3952 3.47183 34.0288 2.10485 36.5237 2.85654C39.0186 3.60822 40.4197 6.23988 39.668 8.73477C39.4458 9.47853 39.0421 10.1553 38.4932 10.7042C37.9443 11.2531 37.2675 11.6568 36.5237 11.8791V26.9515C36.5237 26.9515 43.9057 28.797 46.2297 31.565L58.1912 24.7642C57.5759 22.0303 59.2505 19.2959 61.9848 18.681C64.7192 18.0661 67.4531 19.7403 68.068 22.4747C68.683 25.209 67.0087 27.943 64.2744 28.5579C63.4605 28.7412 62.6141 28.7218 61.8096 28.5012C61.0051 28.2807 60.267 27.8659 59.6604 27.2932L47.8358 33.9909C48.1775 34.7085 48.4852 35.4246 48.6901 36.1782C52.347 38.6731 53.6458 43.4575 51.6976 47.4561L59.5244 52.0015C60.313 51.2665 61.3181 50.8061 62.3898 50.6891C63.4614 50.572 64.5422 50.8046 65.4709 51.3521C67.829 52.7532 68.6481 55.8293 67.2145 58.2556H67.2137Z" fill="#E5EEFF"/>
<path d="M45.1711 38.8438C45.137 38.5703 45.1029 38.3312 45.0684 38.0577C45.035 37.8726 44.9893 37.69 44.9317 37.511C44.9317 37.4428 44.8976 37.3742 44.8976 37.306C44.8294 37.101 44.7608 36.8616 44.6926 36.6566V36.6225C44.258 35.476 43.5953 34.4296 42.7444 33.5468C42.5395 33.3418 42.3686 33.171 42.1291 32.9656L42.095 32.9315C41.8901 32.7606 41.6851 32.5898 41.4456 32.453L41.4115 32.4189C41.2066 32.2821 40.9671 32.1112 40.7621 32.009L40.7281 31.9749C40.5073 31.8474 40.279 31.7333 40.0446 31.6331L39.9764 31.599C39.7373 31.4963 39.4978 31.394 39.2247 31.2914L39.1906 31.2573C38.917 31.1891 38.678 31.0864 38.4044 31.0523H38.3703C38.0999 30.9901 37.826 30.9445 37.5501 30.9155H37.516C36.0604 30.7087 34.576 30.8854 33.2097 31.4281L33.0388 31.5649C32.8338 31.6331 32.4921 31.804 32.2871 31.9067C32.1805 31.9771 32.0657 32.0345 31.9454 32.0775C31.8427 32.1116 31.6718 32.2484 31.5695 32.3166C31.4672 32.3848 31.2278 32.5557 31.091 32.6584L30.9883 32.7265C30.7834 32.8633 30.6125 33.0342 30.4071 33.2051L30.2363 33.3759C30.0313 33.5809 29.8604 33.7518 29.6896 33.9571C29.283 33.889 28.8715 33.8547 28.4593 33.8545C28.3226 33.8545 28.2203 33.8545 28.1176 33.8886C26.5457 33.9567 25.0419 34.6061 23.8799 35.6659C23.2987 36.1785 22.8206 36.8283 22.4463 37.5114L22.4099 37.5811C22.3045 37.7796 22.2131 37.9852 22.1363 38.1964C22.1022 38.2646 22.1022 38.2991 22.0681 38.3673C21.9957 38.5443 21.9385 38.7272 21.8972 38.914C21.8631 38.9822 21.8631 39.0849 21.829 39.153C21.7949 39.3239 21.7608 39.4948 21.7264 39.6998C21.7264 39.768 21.6923 39.8365 21.6923 39.9388C21.6639 40.1999 21.6525 40.4625 21.6582 40.725C21.6525 40.942 21.6639 41.1592 21.6923 41.3744C21.6923 41.4426 21.7264 41.5112 21.7264 41.6134C21.7605 41.7502 21.7605 41.887 21.7946 42.0234C21.8287 42.1598 21.8287 42.1943 21.8628 42.2969C21.9016 42.3952 21.9247 42.4991 21.9309 42.6046C21.9309 42.7073 21.9991 42.8096 22.0336 42.9122C22.0616 42.9945 22.0959 43.0744 22.1363 43.1513C22.1878 43.2628 22.2334 43.3768 22.2731 43.493C22.3072 43.5612 22.3413 43.5957 22.3413 43.6639C22.8216 44.7896 23.6322 45.7429 24.6661 46.3979C25.1787 46.7055 25.6913 46.9791 26.238 47.1496C26.45 47.2224 26.667 47.2795 26.8874 47.3204L26.9556 47.3545L27.5709 47.4572L27.7077 47.4913C27.9467 47.5254 28.1862 47.5254 28.4593 47.5254C29.3823 47.5254 30.2707 47.3545 31.091 46.9787C31.296 47.1155 31.4669 47.2522 31.6722 47.3886L31.7404 47.4227C31.9113 47.5254 32.1162 47.6277 32.3216 47.7304H32.3549C34.3083 48.7258 36.5626 48.9574 38.6776 48.3798H38.7117C39.0191 48.3134 39.3175 48.2101 39.6001 48.0721L40.5231 47.6622C41.4018 48.3478 42.4842 48.7205 43.5988 48.7215C43.8378 48.7215 44.0432 48.6874 44.2823 48.6874L44.4531 48.6533C44.6721 48.6207 44.889 48.575 45.1025 48.5165C45.3131 48.4518 45.5188 48.3719 45.7178 48.2775L45.8205 48.2434C46.0255 48.1407 46.1964 48.0384 46.4017 47.9357C47.2561 47.389 47.9055 46.5687 48.2813 45.6458C48.4181 45.3382 48.4863 45.0305 48.5549 44.7232V44.6206C48.5889 44.4838 48.5889 44.347 48.623 44.2106C48.623 44.0398 48.6571 43.8689 48.6571 43.698C48.6571 41.4426 47.2561 39.4944 45.17 38.845" fill="#E5EEFF"/>
</svg>
