<svg width="23" height="31" viewBox="0 0 23 31" fill="none" xmlns="http://www.w3.org/2000/svg">
<path d="M0.0748291 0.235596H22.5748V22.1433C22.5748 22.8352 22.2172 23.478 21.6292 23.8428L12.3792 29.5815C11.7334 29.9821 10.9163 29.9821 10.2705 29.5815L1.02046 23.8428C0.432485 23.478 0.0748291 22.8352 0.0748291 22.1433V0.235596Z" fill="url(#paint0_linear)"/>
<g clip-path="url(#clip0)">
<path d="M10.8811 21.656C10.7784 21.7753 10.6008 21.7844 10.4865 21.6762L6.1639 17.585C6.04955 17.4768 6.04458 17.2947 6.15273 17.1803L7.52993 15.7251C7.63815 15.6107 7.82022 15.6058 7.93457 15.7139L10.2958 17.9486C10.4102 18.0568 10.5877 18.0477 10.6904 17.9284L15.3035 12.5684C15.4061 12.4491 15.5878 12.4355 15.7071 12.5382L17.2256 13.8452C17.3449 13.9478 17.3585 14.1295 17.2558 14.2488L10.8811 21.656Z" fill="white"/>
</g>
<defs>
<linearGradient id="paint0_linear" x1="-7.25625" y1="0.4141" x2="22.062" y2="28.5807" gradientUnits="userSpaceOnUse">
<stop stop-color="#4D5168"/>
<stop offset="0.287328" stop-color="#53566D"/>
<stop offset="0.479231" stop-color="#6E7189"/>
<stop offset="0.702708" stop-color="#404353"/>
<stop offset="1" stop-color="#414458"/>
</linearGradient>
<clipPath id="clip0">
<rect width="11.25" height="11.25" fill="white" transform="translate(6.07483 11.4856)"/>
</clipPath>
</defs>
</svg>
