<svg width="27" height="21" viewBox="0 0 27 21" fill="none" xmlns="http://www.w3.org/2000/svg">
<g clip-path="url(#clip0_921:110)">
<path d="M22.8566 1.83798C21.1358 1.06003 19.2904 0.486876 17.3609 0.158604C17.3257 0.152268 17.2906 0.168101 17.2725 0.199767C17.0352 0.615647 16.7723 1.1582 16.5882 1.58464C14.513 1.27854 12.4483 1.27854 10.4156 1.58464C10.2315 1.14872 9.95905 0.615647 9.72065 0.199767C9.70255 0.169158 9.66744 0.153325 9.63231 0.158604C7.7039 0.485827 5.85851 1.05899 4.13655 1.83798C4.12164 1.84432 4.10887 1.85488 4.10039 1.86859C0.600066 7.02073 -0.358819 12.0462 0.111578 17.0094C0.113706 17.0337 0.127541 17.0569 0.146698 17.0717C2.45611 18.7426 4.69317 19.757 6.88869 20.4294C6.92383 20.44 6.96106 20.4273 6.98342 20.3988C7.50277 19.7 7.96572 18.9633 8.36266 18.1885C8.38609 18.1431 8.36372 18.0892 8.31585 18.0713C7.58152 17.7969 6.8823 17.4622 6.2097 17.0823C6.15649 17.0517 6.15224 16.9767 6.20118 16.9408C6.34272 16.8363 6.4843 16.7276 6.61945 16.6178C6.6439 16.5978 6.67797 16.5935 6.70672 16.6062C11.1254 18.5938 15.9092 18.5938 20.2758 16.6062C20.3046 16.5925 20.3386 16.5967 20.3642 16.6167C20.4994 16.7265 20.6409 16.8363 20.7835 16.9408C20.8324 16.9767 20.8292 17.0517 20.776 17.0823C20.1034 17.4696 19.4042 17.7969 18.6688 18.0703C18.6209 18.0882 18.5997 18.1431 18.6231 18.1885C19.0285 18.9622 19.4915 19.6989 20.0013 20.3977C20.0226 20.4273 20.0608 20.44 20.096 20.4294C22.3022 19.757 24.5392 18.7426 26.8486 17.0717C26.8688 17.0569 26.8816 17.0348 26.8837 17.0105C27.4467 11.2725 25.9408 6.28819 22.8917 1.86964C22.8843 1.85488 22.8715 1.84432 22.8566 1.83798ZM9.02253 13.9874C7.69219 13.9874 6.59602 12.7841 6.59602 11.3063C6.59602 9.82849 7.67093 8.62519 9.02253 8.62519C10.3847 8.62519 11.4703 9.83906 11.449 11.3063C11.449 12.7841 10.3741 13.9874 9.02253 13.9874ZM17.9941 13.9874C16.6638 13.9874 15.5676 12.7841 15.5676 11.3063C15.5676 9.82849 16.6425 8.62519 17.9941 8.62519C19.3563 8.62519 20.4419 9.83906 20.4206 11.3063C20.4206 12.7841 19.3563 13.9874 17.9941 13.9874Z" fill="#00FCA3"/>
</g>
<defs>
<clipPath id="clip0_921:110">
<rect width="27" height="21" fill="white"/>
</clipPath>
</defs>
</svg>
