<svg width="31" height="25" viewBox="0 0 31 25" fill="none" xmlns="http://www.w3.org/2000/svg">
<path fill-rule="evenodd" clip-rule="evenodd" d="M30.9189 2.89376C29.8152 3.38072 28.631 3.71132 27.3887 3.85875C28.6578 3.09927 29.632 1.89304 30.0878 0.45896C28.8991 1.16483 27.5853 1.67413 26.1867 1.95111C25.065 0.758284 23.4697 0.012207 21.7002 0.012207C18.3085 0.012207 15.5558 2.7642 15.5558 6.15506C15.5558 6.63755 15.6094 7.10664 15.7167 7.55339C10.609 7.29874 6.08228 4.85054 3.05255 1.13356C2.52525 2.04046 2.22138 3.0948 2.22138 4.22062C2.22138 6.35163 3.30726 8.23246 4.95619 9.33147C3.95075 9.3002 3.00339 9.02321 2.17223 8.56305C2.17223 8.58986 2.17223 8.6122 2.17223 8.639C2.17223 11.6144 4.29036 14.0983 7.10113 14.6612C6.58724 14.7997 6.04207 14.8757 5.48349 14.8757C5.08578 14.8757 4.70148 14.8355 4.32611 14.764C5.10812 17.2033 7.37819 18.9813 10.0638 19.0305C7.95911 20.679 5.31368 21.6618 2.43141 21.6618C1.93539 21.6618 1.44831 21.6306 0.965698 21.577C3.68263 23.3193 6.91345 24.3379 10.3856 24.3379C21.6867 24.3379 27.8669 14.9784 27.8669 6.86093C27.8669 6.59287 27.8624 6.32929 27.849 6.06571C29.0511 5.19901 30.0922 4.11786 30.9145 2.88483L30.9189 2.89376Z" fill="#00FFA3"/>
</svg>
