<svg width="25" height="20" viewBox="0 0 25 20" fill="none" xmlns="http://www.w3.org/2000/svg">
<path fill-rule="evenodd" clip-rule="evenodd" d="M25 2.36915C24.0788 2.76951 23.0904 3.04132 22.0536 3.16253C23.1128 2.53811 23.9259 1.54637 24.3063 0.367309C23.3142 0.947658 22.2177 1.36639 21.0503 1.59412C20.1141 0.613407 18.7826 0 17.3057 0C14.4749 0 12.1774 2.26263 12.1774 5.05051C12.1774 5.4472 12.2221 5.83287 12.3117 6.20018C8.04864 5.99082 4.27048 3.97796 1.74176 0.921947C1.30166 1.66758 1.04804 2.53444 1.04804 3.46006C1.04804 5.21212 1.95435 6.75849 3.3306 7.66208C2.49142 7.63636 1.70073 7.40863 1.00701 7.0303C1.00701 7.05234 1.00701 7.07071 1.00701 7.09275C1.00701 9.53903 2.77488 11.5813 5.12084 12.0441C4.69193 12.1579 4.23691 12.2204 3.7707 12.2204C3.43876 12.2204 3.11801 12.1873 2.80471 12.1286C3.45741 14.1341 5.35208 15.596 7.59362 15.6364C5.83694 16.9917 3.62897 17.7998 1.22333 17.7998C0.809339 17.7998 0.402805 17.7741 0 17.73C2.26764 19.1625 4.9642 20 7.86215 20C17.2945 20 22.4526 12.3049 22.4526 5.63085C22.4526 5.41047 22.4489 5.19376 22.4377 4.97704C23.441 4.26446 24.31 3.37557 24.9963 2.3618L25 2.36915Z" fill="#00FCA3"/>
</svg>
