<svg width="125" height="32" viewBox="0 0 125 32" fill="none" xmlns="http://www.w3.org/2000/svg">
<path d="M12.6172 21.0806H24.7822L18.6997 31.2807L12.6172 21.0806Z" fill="white" fill-opacity="0.7"/>
<path d="M0.451782 21.0806H12.6168L6.53427 31.2807L0.451782 21.0806Z" fill="white"/>
<path d="M6.53394 10.8816H18.699L12.6165 21.0817L6.53394 10.8816Z" fill="white" fill-opacity="0.7"/>
<path d="M12.6172 0.681152H24.7822L18.6997 10.8813L12.6172 0.681152Z" fill="white" fill-opacity="0.7"/>
<path d="M18.6993 10.8816H30.8644L24.7818 21.0817L18.6993 10.8816Z" fill="white"/>
<path d="M30.8644 31.2807H18.6993L24.7818 21.0806L30.8644 31.2807Z" fill="white" fill-opacity="0.7"/>
<path d="M36.9465 21.0817H24.7815L30.864 10.8816L36.9465 21.0817Z" fill="white"/>
<path d="M30.8644 10.8813H18.6993L24.7818 0.681152L30.8644 10.8813Z" fill="white"/>
<path d="M12.6168 21.0817H0.451782L6.53427 10.8816L12.6168 21.0817Z" fill="white" fill-opacity="0.4"/>
<path d="M24.7815 21.0806H36.9465L30.864 31.2807L24.7815 21.0806Z" fill="white" fill-opacity="0.4"/>
<path fill-rule="evenodd" clip-rule="evenodd" d="M44.0863 24.9208H40.0891L47.531 5.65503H49.2364H50.9418L58.3838 24.9208H54.3866L53.0566 21.5707H49.2364H45.4162L44.0863 24.9208ZM49.2364 18.0986H51.8502L49.2364 10.635L46.6227 18.0986H49.2364Z" fill="white"/>
<path fill-rule="evenodd" clip-rule="evenodd" d="M73.0594 24.9177L69.3871 27.2928V27.2211L69.2757 27.2911V14.5589H63.5126V24.8932L59.8019 27.2928V14.5589H57.5467V11.3904H59.8019V9.42104C59.8019 9.42104 59.6469 5.99154 62.5057 4.74343C65.3642 3.49516 68.4135 5.24861 68.4135 5.24861L67.7178 8.37766C67.7178 8.37766 66.7962 7.66976 65.1087 7.77297C63.4212 7.87624 63.5126 10.1045 63.5126 10.1045V11.3904H67.1316H69.3871V9.42104C69.3871 9.42104 69.2321 5.99154 72.0906 4.74343C74.9498 3.49516 77.9984 5.24861 77.9984 5.24861L77.3027 8.37766C77.3027 8.37766 76.3812 7.66976 74.6936 7.77297C73.2913 7.85882 73.1175 9.41278 73.0988 9.9349V11.3904H75.9791H76.9515V14.5589H73.0988V24.8932L73.0594 24.9177Z" fill="white"/>
<path fill-rule="evenodd" clip-rule="evenodd" d="M82.3573 7.3999H78.5536L77.9832 10.6311H81.8711L82.3573 7.3999ZM81.865 11.3983H78.1425V25.0655H81.865V11.3983Z" fill="white"/>
<path fill-rule="evenodd" clip-rule="evenodd" d="M102.827 7.3999H99.023L98.4532 10.6311H102.341L102.827 7.3999ZM102.335 11.3983H98.6125V25.0655H102.335V11.3983Z" fill="white" fill-opacity="0.7"/>
<path fill-rule="evenodd" clip-rule="evenodd" d="M124.584 7.3999H120.781L120.21 10.6311H124.099L124.584 7.3999ZM124.092 11.3983H120.37V25.0655H124.092V11.3983Z" fill="white"/>
<path fill-rule="evenodd" clip-rule="evenodd" d="M118.119 4.66577L114.391 6.9087V12.432C113.273 11.4736 111.864 10.9023 110.334 10.9023C106.696 10.9023 103.748 14.1298 103.748 18.1112C103.748 22.0927 106.696 25.3204 110.334 25.3204C112.126 25.3204 113.752 24.5367 114.939 23.2651V24.8706H118.119V4.66577ZM114.538 18.1223C114.538 20.1871 112.999 21.8609 111.101 21.8609C109.203 21.8609 107.664 20.1871 107.664 18.1223C107.664 16.0574 109.203 14.3836 111.101 14.3836C112.999 14.3836 114.538 16.0574 114.538 18.1223Z" fill="white" fill-opacity="0.7"/>
<path fill-rule="evenodd" clip-rule="evenodd" d="M96.6833 16.0327C96.6833 16.0339 96.6833 16.035 96.6833 16.0361V25.0594H92.8045V17.1214V16.9555C92.8045 15.5095 91.6347 14.3372 90.1918 14.3372C88.7489 14.3372 87.5791 15.5095 87.5791 16.9555V19.5364V25.0582H83.8232V11.3793H86.8925L86.9821 13.1406L86.9954 13.2359C87.9394 11.8569 89.5621 10.9468 91.4046 10.9468C94.2583 10.9468 96.5834 13.1287 96.6803 15.8556L96.6833 15.8545V16.0293C96.6833 16.0304 96.6833 16.0316 96.6833 16.0327Z" fill="white"/>
</svg>
