<svg width="151" height="47" viewBox="0 0 151 47" fill="none" xmlns="http://www.w3.org/2000/svg">
<g clip-path="url(#clip0)">
<path fill-rule="evenodd" clip-rule="evenodd" d="M28.4955 11.8026C28.4845 15.5201 25.4704 18.5304 21.7539 18.5304C18.0375 18.5304 15.0234 15.5201 15.0124 11.8026C15.0124 11.8026 14.7694 10.5463 16.0652 7.74973C18.2802 2.969 21.6661 0.900391 21.6661 0.900391C21.6661 0.900391 25.3373 3.21052 27.5237 7.74973C28.6708 10.1311 28.4955 11.8026 28.4955 11.8026Z" fill="white"/>
<path fill-rule="evenodd" clip-rule="evenodd" d="M28.4955 34.6394C28.4845 30.9219 25.4704 27.9116 21.7539 27.9116C18.0375 27.9116 15.0234 30.9219 15.0124 34.6394C15.0124 34.6394 14.7694 35.8958 16.0652 38.6923C18.2802 43.473 21.6661 45.5416 21.6661 45.5416C21.6661 45.5416 25.3373 43.2315 27.5237 38.6923C28.6708 36.3109 28.4955 34.6394 28.4955 34.6394Z" fill="white"/>
<path fill-rule="evenodd" clip-rule="evenodd" d="M31.9237 16.4853C28.2139 16.4962 25.2099 19.5166 25.2099 23.2409C25.2099 26.9651 28.2139 29.9855 31.9237 29.9964C31.9237 29.9965 33.1774 30.2398 35.9681 28.9415C40.7389 26.7219 42.8032 23.3288 42.8032 23.3288C42.8032 23.3288 40.4979 19.65 35.9681 17.459C33.5917 16.3096 31.9237 16.4852 31.9237 16.4852V16.4853Z" fill="white"/>
<path fill-rule="evenodd" clip-rule="evenodd" d="M11.2831 16.4159C14.9929 16.4269 17.9969 19.4472 17.9969 23.1715C17.9969 26.8957 14.9929 29.9161 11.2831 29.927C11.2831 29.927 10.0294 30.1705 7.23869 28.8722C2.4679 26.6525 0.403595 23.2594 0.403595 23.2594C0.403595 23.2594 2.70893 19.5806 7.23869 17.3896C9.61508 16.2402 11.2831 16.4159 11.2831 16.4159Z" fill="white"/>
<path fill-rule="evenodd" clip-rule="evenodd" d="M70.293 16.1123C70.293 17.8326 69.4154 20.0116 66.7065 21.0437C70.1785 21.9229 71.6665 24.9047 71.6665 27.0455C71.6665 31.4034 68.4997 35.1115 63.2726 35.1115H51.979V8.7726H62.5095C67.2406 8.7726 70.293 11.6015 70.293 16.1123ZM57.5876 19.1705H61.9754C63.4252 19.1705 64.4172 18.0237 64.4172 16.4564C64.4172 14.8126 63.5778 13.704 61.9372 13.704H57.5876V19.1705ZM62.8529 23.7961H57.5876V30.1801H62.9673C64.8369 30.1801 65.7908 28.4981 65.7908 26.9307C65.7908 25.4399 64.8369 23.7961 62.8529 23.7961ZM74.2471 7.54932V35.1115H79.5505V7.54932H74.2471ZM91.2116 30.2184C93.4247 30.2184 95.2565 28.6128 95.2565 26.128C95.2565 23.7196 93.4247 22.0759 91.2116 22.0759C89.0372 22.0759 87.2055 23.7196 87.2055 26.128C87.2055 28.6128 89.0372 30.2184 91.2116 30.2184ZM91.2116 35.4173C86.1751 35.4173 81.9785 31.7475 81.9785 26.128C81.9785 20.5085 86.1751 16.8769 91.2116 16.8769C96.2481 16.8769 100.483 20.5085 100.483 26.128C100.483 31.7475 96.2481 35.4173 91.2116 35.4173ZM111.076 30.2184C113.289 30.2184 115.121 28.6128 115.121 26.128C115.121 23.7196 113.289 22.0759 111.076 22.0759C108.902 22.0759 107.07 23.7196 107.07 26.128C107.07 28.6128 108.902 30.2184 111.076 30.2184ZM111.076 35.4173C106.039 35.4173 101.843 31.7475 101.843 26.128C101.843 20.5085 106.039 16.8769 111.076 16.8769C116.113 16.8769 120.348 20.5085 120.348 26.128C120.348 31.7475 116.113 35.4173 111.076 35.4173ZM142.463 22.0376C144.027 22.0376 145.401 23.2609 145.401 25.5928V35.1115H150.666V24.9812C150.666 19.5911 148.033 16.8769 143.799 16.8769C142.54 16.8769 140.174 17.2592 138.457 20.0498C137.465 17.9855 135.558 16.9151 132.734 16.9151C130.826 16.9151 128.918 17.9855 128.079 19.8586V17.2592H122.776V35.1115H128.079V25.6693C128.079 22.9551 129.567 22.0376 131.169 22.0376C132.696 22.0376 134.069 23.2227 134.107 25.4781V35.1115H139.411V25.6693C139.411 23.0697 140.784 22.0376 142.463 22.0376Z" fill="white"/>
</g>
<defs>
<clipPath id="clip0">
<rect width="150.725" height="45.3943" fill="white" transform="translate(0 0.722168)"/>
</clipPath>
</defs>
</svg>
