<svg width="159" height="38" viewBox="0 0 159 38" fill="none" xmlns="http://www.w3.org/2000/svg">
<path d="M16.3638 37.2742C16.3374 37.2742 16.311 37.3011 16.311 37.3281C16.311 37.355 16.3374 37.382 16.3638 37.382C16.3902 37.382 16.4165 37.355 16.4165 37.3281C16.4165 37.3011 16.3902 37.2742 16.3638 37.2742Z" fill="white"/>
<path d="M14.6666 36.6816C14.587 36.6816 14.5341 36.7356 14.5341 36.8164C14.5341 36.8973 14.587 36.9512 14.6666 36.9512C14.7461 36.9512 14.7992 36.8973 14.7992 36.8164C14.7992 36.7356 14.7461 36.6816 14.6666 36.6816Z" fill="white"/>
<path d="M13.0224 35.8997C12.9163 35.8997 12.8368 35.9806 12.8368 36.0884C12.8368 36.1963 12.9163 36.2771 13.0224 36.2771C13.1285 36.2771 13.2081 36.1963 13.2081 36.0884C13.2081 35.9806 13.1285 35.8997 13.0224 35.8997Z" fill="white"/>
<path d="M11.4842 34.9565C11.3516 34.9565 11.2455 35.0644 11.2455 35.1992C11.2455 35.334 11.3516 35.4419 11.4842 35.4419C11.6168 35.4419 11.7229 35.334 11.7229 35.1992C11.7229 35.0644 11.6168 34.9565 11.4842 34.9565Z" fill="white"/>
<path d="M10.0253 33.8242C9.86618 33.8242 9.70703 33.9591 9.70703 34.1478C9.70703 34.3095 9.83965 34.4713 10.0253 34.4713C10.1844 34.4713 10.3436 34.3365 10.3436 34.1478C10.3436 33.986 10.211 33.8242 10.0253 33.8242Z" fill="white"/>
<path d="M8.6992 32.5845C8.48703 32.5845 8.32788 32.7462 8.32788 32.9619C8.32788 33.1776 8.48703 33.3394 8.6992 33.3394C8.91136 33.3394 9.07051 33.1776 9.07051 32.9619C9.07051 32.7462 8.91136 32.5845 8.6992 32.5845Z" fill="white"/>
<path d="M7.47907 31.1812C7.24037 31.1812 7.05469 31.3699 7.05469 31.6125C7.05469 31.8552 7.24037 32.0439 7.47907 32.0439C7.71777 32.0439 7.9034 31.8552 7.9034 31.6125C7.92993 31.3699 7.71777 31.1812 7.47907 31.1812Z" fill="white"/>
<path d="M6.44485 29.6448C6.17962 29.6448 5.94092 29.8605 5.94092 30.157C5.94092 30.4266 6.15313 30.6693 6.44485 30.6693C6.71008 30.6693 6.94878 30.4536 6.94878 30.157C6.92225 29.8874 6.71008 29.6448 6.44485 29.6448Z" fill="white"/>
<path d="M6.12659 28.5664C6.12659 28.2699 5.88789 28.0002 5.56964 28.0002C5.25139 28.0002 5.0127 28.2429 5.0127 28.5664C5.0127 28.863 5.25139 29.1326 5.56964 29.1326C5.88789 29.1326 6.12659 28.89 6.12659 28.5664Z" fill="white"/>
<path d="M5.51665 26.8943C5.51665 26.5438 5.25142 26.2742 4.90664 26.2742C4.56185 26.2742 4.29663 26.5438 4.29663 26.8943C4.29663 27.2447 4.56185 27.5144 4.90664 27.5144C5.25142 27.5144 5.51665 27.2447 5.51665 26.8943Z" fill="white"/>
<path d="M5.14521 25.1428C5.14521 24.7654 4.85345 24.4688 4.48214 24.4688C4.11084 24.4688 3.81909 24.7654 3.81909 25.1428C3.81909 25.5202 4.11084 25.8168 4.48214 25.8168C4.85345 25.8168 5.14521 25.5202 5.14521 25.1428Z" fill="white"/>
<path d="M5.01244 23.3359C5.01244 22.9315 4.69419 22.5811 4.26984 22.5811C3.87201 22.5811 3.52722 22.9045 3.52722 23.3359C3.52722 23.7403 3.84549 24.0908 4.26984 24.0908C4.69419 24.0908 5.01244 23.7403 5.01244 23.3359Z" fill="white"/>
<path d="M4.32288 22.3386C4.77376 22.3386 5.11852 21.9881 5.11852 21.5298C5.11852 21.0714 4.77376 20.7209 4.32288 20.7209C3.87201 20.7209 3.52722 21.0714 3.52722 21.5298C3.52722 21.9611 3.87201 22.3386 4.32288 22.3386Z" fill="white"/>
<path d="M3.71313 19.7236C3.71313 20.2089 4.08444 20.5864 4.56184 20.5864C5.03924 20.5864 5.41056 20.2089 5.41056 19.7236C5.41056 19.2383 5.03924 18.8608 4.56184 18.8608C4.11097 18.8608 3.71313 19.2383 3.71313 19.7236Z" fill="white"/>
<path d="M29.4921 33.0957C29.4657 33.0957 29.4393 33.1226 29.4393 33.1496C29.4393 33.1766 29.4657 33.2035 29.4921 33.2035C29.5184 33.2035 29.5448 33.1766 29.5448 33.1496C29.5448 33.1226 29.5184 33.0957 29.4921 33.0957Z" fill="white"/>
<path d="M27.9276 33.8777C27.8747 33.8777 27.8217 33.9316 27.8217 33.9855C27.8217 34.0395 27.8747 34.0934 27.9276 34.0934C27.9806 34.0934 28.0336 34.0395 28.0336 33.9855C28.0336 33.9316 27.9806 33.8777 27.9276 33.8777Z" fill="white"/>
<path d="M26.2569 34.4973C26.1773 34.4973 26.0978 34.5782 26.0978 34.6591C26.0978 34.7399 26.1773 34.8208 26.2569 34.8208C26.3365 34.8208 26.416 34.7399 26.416 34.6591C26.416 34.5782 26.363 34.4973 26.2569 34.4973Z" fill="white"/>
<path d="M24.5592 34.929C24.4266 34.929 24.347 35.0368 24.347 35.1446C24.347 35.2524 24.4531 35.3603 24.5592 35.3603C24.6653 35.3603 24.7714 35.2524 24.7714 35.1446C24.7714 35.0368 24.6653 34.929 24.5592 34.929Z" fill="white"/>
<path d="M22.7824 35.1719C22.6233 35.1719 22.5172 35.3067 22.5172 35.4414C22.5172 35.6032 22.6498 35.7111 22.7824 35.7111C22.9416 35.7111 23.0477 35.5763 23.0477 35.4414C23.0742 35.3067 22.9416 35.1719 22.7824 35.1719Z" fill="white"/>
<path d="M21.0055 35.2524C20.8199 35.2524 20.6873 35.3872 20.6873 35.5759C20.6873 35.7647 20.8199 35.8995 21.0055 35.8995C21.1911 35.8995 21.3238 35.7377 21.3238 35.5759C21.3503 35.3872 21.1911 35.2524 21.0055 35.2524Z" fill="white"/>
<path d="M19.2282 35.1174C19.016 35.1174 18.8569 35.2792 18.8569 35.4949C18.8569 35.7106 19.016 35.8723 19.2282 35.8723C19.4404 35.8723 19.5995 35.7106 19.5995 35.4949C19.626 35.2792 19.4404 35.1174 19.2282 35.1174Z" fill="white"/>
<path d="M17.4781 34.7947C17.2394 34.7947 17.0537 34.9834 17.0537 35.226C17.0537 35.4687 17.2394 35.6574 17.4781 35.6574C17.7168 35.6574 17.9024 35.4687 17.9024 35.226C17.9024 34.9834 17.7168 34.7947 17.4781 34.7947Z" fill="white"/>
<path d="M15.7543 34.228C15.4891 34.228 15.2769 34.4437 15.2769 34.7133C15.2769 34.9829 15.4891 35.1986 15.7543 35.1986C16.0195 35.1986 16.2317 34.9829 16.2317 34.7133C16.2582 34.4437 16.0195 34.228 15.7543 34.228Z" fill="white"/>
<path d="M14.1363 33.446C13.8445 33.446 13.6058 33.6887 13.6058 33.9853C13.6058 34.2818 13.8445 34.5245 14.1363 34.5245C14.428 34.5245 14.6667 34.2818 14.6667 33.9853C14.6667 33.7157 14.428 33.446 14.1363 33.446Z" fill="white"/>
<path d="M13.2079 33.0685C13.2079 32.745 12.9427 32.4753 12.6244 32.4753C12.3062 32.4753 12.0144 32.745 12.0144 33.0685C12.0144 33.392 12.2796 33.6616 12.6244 33.6616C12.9427 33.6886 13.2079 33.419 13.2079 33.0685Z" fill="white"/>
<path d="M11.2187 31.2893C10.8474 31.2893 10.5557 31.5859 10.5557 31.9633C10.5557 32.3407 10.8474 32.6373 11.2187 32.6373C11.5635 32.6373 11.8818 32.3407 11.8818 31.9633C11.8818 31.5859 11.5635 31.2893 11.2187 31.2893Z" fill="white"/>
<path d="M9.97232 29.9146C9.57447 29.9146 9.25623 30.2381 9.25623 30.6425C9.25623 31.0469 9.57447 31.3704 9.97232 31.3704C10.3702 31.3704 10.6884 31.0469 10.6884 30.6425C10.6884 30.2381 10.3702 29.9146 9.97232 29.9146Z" fill="white"/>
<path d="M8.91132 29.9687C9.33571 29.9687 9.68049 29.6182 9.68049 29.1869C9.68049 28.7555 9.33571 28.405 8.91132 28.405C8.48699 28.405 8.14221 28.7555 8.14221 29.1869C8.1687 29.6182 8.48699 29.9687 8.91132 29.9687Z" fill="white"/>
<path d="M8.85835 27.5962C8.85835 27.1379 8.48703 26.7605 8.03617 26.7605C7.5853 26.7605 7.21399 27.1379 7.21399 27.5962C7.21399 28.0546 7.5853 28.432 8.03617 28.432C8.51357 28.432 8.85835 28.0546 8.85835 27.5962Z" fill="white"/>
<path d="M35.8842 20.7209C35.8578 20.7209 35.8314 20.7479 35.8314 20.7749C35.8314 20.8018 35.8578 20.8288 35.8842 20.8288C35.9105 20.8288 35.9369 20.8018 35.9369 20.7749C35.9105 20.7479 35.9105 20.7209 35.8842 20.7209Z" fill="white"/>
<path d="M35.3537 22.3923C35.3007 22.3923 35.2477 22.4463 35.2477 22.5002C35.2477 22.5541 35.3007 22.608 35.3537 22.608C35.4067 22.608 35.4596 22.5541 35.4596 22.5002C35.4596 22.4463 35.4067 22.3923 35.3537 22.3923Z" fill="white"/>
<path d="M34.6379 24.0103C34.5583 24.0103 34.5052 24.0642 34.5052 24.1451C34.5052 24.2259 34.5583 24.3068 34.6379 24.3068C34.7174 24.3068 34.797 24.2529 34.797 24.1451C34.7705 24.0912 34.7174 24.0103 34.6379 24.0103Z" fill="white"/>
<path d="M33.7625 25.5466C33.6565 25.5466 33.5769 25.6275 33.5769 25.7353C33.5769 25.8432 33.6565 25.924 33.7625 25.924C33.8686 25.924 33.9482 25.8432 33.9482 25.7353C33.9482 25.6275 33.8686 25.5466 33.7625 25.5466Z" fill="white"/>
<path d="M32.7281 26.9758C32.5955 26.9758 32.4894 27.0837 32.4894 27.2185C32.4894 27.3533 32.5955 27.4611 32.7281 27.4611C32.8606 27.4611 32.9668 27.3533 32.9668 27.2185C32.9668 27.0837 32.8606 26.9758 32.7281 26.9758Z" fill="white"/>
<path d="M31.5612 28.27C31.4021 28.27 31.2695 28.4048 31.2695 28.5666C31.2695 28.7283 31.4021 28.8632 31.5612 28.8632C31.7204 28.8632 31.853 28.7283 31.853 28.5666C31.853 28.4048 31.7204 28.27 31.5612 28.27Z" fill="white"/>
<path d="M30.2353 29.4561C30.0497 29.4561 29.8905 29.6178 29.8905 29.8065C29.8905 29.9952 30.0497 30.157 30.2353 30.157C30.4209 30.157 30.5801 29.9952 30.5801 29.8065C30.5801 29.6178 30.4209 29.4561 30.2353 29.4561Z" fill="white"/>
<path d="M28.8029 30.4805C28.5907 30.4805 28.405 30.6692 28.405 30.8849C28.405 31.1006 28.5907 31.2893 28.8029 31.2893C29.015 31.2893 29.2007 31.1006 29.2007 30.8849C29.2007 30.6692 29.015 30.4805 28.8029 30.4805Z" fill="white"/>
<path d="M27.2646 31.3162C27.0259 31.3162 26.8137 31.5049 26.8137 31.7475C26.8137 31.9901 26.9994 32.2058 27.2646 32.2058C27.5033 32.2058 27.689 32.0171 27.689 31.7475C27.689 31.5049 27.5033 31.3162 27.2646 31.3162Z" fill="white"/>
<path d="M25.5939 31.9097C25.3287 31.9097 25.1165 32.1253 25.1165 32.3949C25.1165 32.6646 25.3287 32.8802 25.5939 32.8802C25.8591 32.8802 26.0713 32.6646 26.0713 32.3949C26.0713 32.1523 25.8591 31.9097 25.5939 31.9097Z" fill="white"/>
<path d="M23.87 32.3137C23.5783 32.3137 23.3396 32.5564 23.3396 32.853C23.3396 33.1495 23.5783 33.3921 23.87 33.3921C24.1618 33.3921 24.4005 33.1495 24.4005 32.853C24.4005 32.5564 24.1618 32.3137 23.87 32.3137Z" fill="white"/>
<path d="M22.0928 32.4753C21.7745 32.4753 21.5093 32.745 21.5093 33.0685C21.5093 33.392 21.7745 33.6616 22.0928 33.6616C22.411 33.6616 22.6762 33.392 22.6762 33.0685C22.6762 32.745 22.411 32.4753 22.0928 32.4753Z" fill="white"/>
<path d="M20.9524 33.0152C20.9524 32.6647 20.6606 32.3682 20.3159 32.3682C19.9711 32.3682 19.6793 32.6647 19.6793 33.0152C19.6793 33.3657 19.9711 33.6622 20.3159 33.6622C20.6606 33.6622 20.9524 33.3657 20.9524 33.0152Z" fill="white"/>
<path d="M19.2287 32.7456C19.2287 32.3682 18.9369 32.0447 18.5391 32.0447C18.1678 32.0447 17.8495 32.3412 17.8495 32.7456C17.8495 33.1231 18.1413 33.4466 18.5391 33.4466C18.9369 33.4466 19.2287 33.1501 19.2287 32.7456Z" fill="white"/>
<path d="M17.5841 32.2594C17.5841 31.855 17.2658 31.5315 16.8415 31.5315C16.4437 31.5315 16.1254 31.855 16.1254 32.2594C16.1254 32.6638 16.4437 33.0143 16.8415 33.0143C17.2393 32.9874 17.5841 32.6638 17.5841 32.2594Z" fill="white"/>
<path d="M15.9927 31.5321C15.9927 31.1008 15.648 30.7502 15.2236 30.7502C14.7992 30.7502 14.4545 31.1008 14.4545 31.5321C14.4545 31.9635 14.7992 32.314 15.2236 32.314C15.648 32.314 15.9927 31.9635 15.9927 31.5321Z" fill="white"/>
<path d="M31.7732 7.4826C31.7996 7.4826 31.826 7.45562 31.826 7.42868C31.826 7.40169 31.7996 7.37476 31.7732 7.37476C31.7468 7.37476 31.7205 7.40169 31.7205 7.42868C31.7205 7.45562 31.7468 7.4826 31.7732 7.4826Z" fill="white"/>
<path d="M32.5954 9.12775C32.6483 9.12775 32.7013 9.07388 32.7013 9.01996C32.7013 8.96603 32.6483 8.91211 32.5954 8.91211C32.5423 8.91211 32.4894 8.96603 32.4894 9.01996C32.4894 9.07388 32.5423 9.12775 32.5954 9.12775Z" fill="white"/>
<path d="M33.2586 10.8531C33.3381 10.8531 33.3911 10.7992 33.3911 10.7183C33.3911 10.6374 33.3381 10.5835 33.2586 10.5835C33.1791 10.5835 33.1261 10.6374 33.1261 10.7183C33.0995 10.7992 33.1791 10.8531 33.2586 10.8531Z" fill="white"/>
<path d="M33.736 12.6592C33.8422 12.6592 33.9217 12.5783 33.9217 12.4705C33.9217 12.3626 33.8422 12.2817 33.736 12.2817C33.6299 12.2817 33.5504 12.3626 33.5504 12.4705C33.5239 12.5783 33.6299 12.6592 33.736 12.6592Z" fill="white"/>
<path d="M33.7889 14.2505C33.7889 14.3853 33.895 14.4931 34.0276 14.4931C34.1603 14.4931 34.2663 14.3853 34.2663 14.2505C34.2663 14.1157 34.1603 14.0079 34.0276 14.0079C33.895 13.9809 33.7889 14.1157 33.7889 14.2505Z" fill="white"/>
<path d="M34.1339 15.7603C33.9748 15.7603 33.8422 15.8951 33.8422 16.0569C33.8422 16.2186 33.9748 16.3534 34.1339 16.3534C34.293 16.3534 34.4256 16.2186 34.4256 16.0569C34.4256 15.8951 34.293 15.7603 34.1339 15.7603Z" fill="white"/>
<path d="M34.0544 17.5122C33.8687 17.5122 33.7096 17.674 33.7096 17.8627C33.7096 18.0514 33.8687 18.2132 34.0544 18.2132C34.24 18.2132 34.3992 18.0514 34.3992 17.8627C34.3992 17.674 34.24 17.5122 34.0544 17.5122Z" fill="white"/>
<path d="M33.789 19.2649C33.5768 19.2649 33.3911 19.4536 33.3911 19.6693C33.3911 19.885 33.5768 20.0737 33.789 20.0737C34.0011 20.0737 34.1868 19.9119 34.1868 19.6693C34.1868 19.4267 34.0011 19.2649 33.789 19.2649Z" fill="white"/>
<path d="M33.7362 21.3945C33.7362 21.1518 33.5505 20.9631 33.3118 20.9631C33.0731 20.9631 32.861 21.1518 32.861 21.3945C32.861 21.6372 33.0466 21.8259 33.3118 21.8259C33.5505 21.8259 33.7362 21.6372 33.7362 21.3945Z" fill="white"/>
<path d="M32.5957 22.5542C32.3305 22.5542 32.1183 22.7698 32.1183 23.0395C32.1183 23.3091 32.3305 23.5248 32.5957 23.5248C32.8609 23.5248 33.0731 23.3091 33.0731 23.0395C33.0731 22.7698 32.8609 22.5542 32.5957 22.5542Z" fill="white"/>
<path d="M31.6939 24.0637C31.4022 24.0637 31.1635 24.3064 31.1635 24.6029C31.1635 24.8995 31.4022 25.1421 31.6939 25.1421C31.9856 25.1421 32.2243 24.8995 32.2243 24.6029C32.2243 24.3064 31.9856 24.0637 31.6939 24.0637Z" fill="white"/>
<path d="M30.5798 25.4126C30.2616 25.4126 29.9963 25.6822 29.9963 26.0057C29.9963 26.3293 30.2616 26.5989 30.5798 26.5989C30.8981 26.5989 31.1633 26.3293 31.1633 26.0057C31.1633 25.6822 30.8981 25.4126 30.5798 25.4126Z" fill="white"/>
<path d="M29.2802 26.6245C28.9354 26.6245 28.6437 26.9211 28.6437 27.2716C28.6437 27.6221 28.9354 27.9186 29.2802 27.9186C29.625 27.9186 29.9167 27.6221 29.9167 27.2716C29.9167 26.9211 29.625 26.6245 29.2802 26.6245Z" fill="white"/>
<path d="M27.8481 27.6497C27.4768 27.6497 27.1586 27.9463 27.1586 28.3507C27.1586 28.7281 27.4503 29.0516 27.8481 29.0516C28.2194 29.0516 28.5377 28.7551 28.5377 28.3507C28.5377 27.9732 28.2194 27.6497 27.8481 27.6497Z" fill="white"/>
<path d="M26.31 28.4863C25.9121 28.4863 25.5939 28.8098 25.5939 29.2412C25.5939 29.6456 25.9121 29.9692 26.31 29.9692C26.7078 29.9692 27.0261 29.6456 27.0261 29.2412C27.0261 28.8098 26.7078 28.4863 26.31 28.4863Z" fill="white"/>
<path d="M24.6391 29.1057C24.2148 29.1057 23.87 29.4562 23.87 29.8875C23.87 30.3189 24.2148 30.6694 24.6391 30.6694C25.0635 30.6694 25.4083 30.3189 25.4083 29.8875C25.4083 29.4562 25.0635 29.1057 24.6391 29.1057Z" fill="white"/>
<path d="M19.5728 0.985527C19.5991 0.985527 19.6255 0.958563 19.6255 0.931602C19.6255 0.904641 19.5991 0.877686 19.5728 0.877686C19.5464 0.877686 19.52 0.904641 19.52 0.931602C19.52 0.958563 19.5464 0.985527 19.5728 0.985527Z" fill="white"/>
<path d="M21.2708 1.57872C21.3238 1.57872 21.3767 1.5248 21.3767 1.47087C21.3767 1.41696 21.3238 1.36304 21.2708 1.36304C21.2178 1.36304 21.1648 1.41696 21.1648 1.47087C21.1913 1.55176 21.2178 1.57872 21.2708 1.57872Z" fill="white"/>
<path d="M22.9153 2.36127C22.9948 2.36127 23.0479 2.30734 23.0479 2.22646C23.0479 2.14558 22.9948 2.0647 22.9153 2.0647C22.8357 2.0647 22.7561 2.11862 22.7561 2.22646C22.7561 2.28039 22.8357 2.36127 22.9153 2.36127Z" fill="white"/>
<path d="M24.4535 3.27686C24.5596 3.27686 24.6391 3.19598 24.6391 3.08813C24.6391 2.98029 24.5596 2.89941 24.4535 2.89941C24.3474 2.89941 24.2678 2.98029 24.2678 3.08813C24.2678 3.19598 24.3474 3.27686 24.4535 3.27686Z" fill="white"/>
<path d="M25.9119 4.38227C26.0445 4.38227 26.1506 4.27442 26.1506 4.13961C26.1506 4.00481 26.0445 3.89697 25.9119 3.89697C25.7793 3.89697 25.6732 4.00481 25.6732 4.13961C25.6732 4.27442 25.7793 4.38227 25.9119 4.38227Z" fill="white"/>
<path d="M27.2647 5.62341C27.4239 5.62341 27.5565 5.48861 27.5565 5.32684C27.5565 5.16508 27.4239 5.03027 27.2647 5.03027C27.1056 5.03027 26.973 5.16508 26.973 5.32684C26.973 5.48861 27.0791 5.62341 27.2647 5.62341Z" fill="white"/>
<path d="M28.4581 7.02469C28.6437 7.02469 28.8028 6.86292 28.8028 6.67421C28.8028 6.4855 28.6437 6.32373 28.4581 6.32373C28.2724 6.32373 28.1133 6.4855 28.1133 6.67421C28.1133 6.86292 28.2724 7.02469 28.4581 7.02469Z" fill="white"/>
<path d="M29.5191 8.50803C29.7312 8.50803 29.9169 8.31932 29.9169 8.10362C29.9169 7.88793 29.7312 7.69922 29.5191 7.69922C29.3069 7.69922 29.1212 7.88793 29.1212 8.10362C29.1212 8.31932 29.3069 8.50803 29.5191 8.50803Z" fill="white"/>
<path d="M30.3677 10.152C30.6064 10.152 30.7921 9.96333 30.7921 9.72065C30.7921 9.47801 30.6064 9.28931 30.3677 9.28931C30.129 9.28931 29.9169 9.47801 29.9169 9.72065C29.9434 9.96333 30.129 10.152 30.3677 10.152Z" fill="white"/>
<path d="M30.5532 11.3922C30.5532 11.6619 30.7654 11.8776 31.0306 11.8776C31.2959 11.8776 31.508 11.6619 31.508 11.3922C31.508 11.1226 31.2959 10.907 31.0306 10.907C30.7654 10.907 30.5532 11.1226 30.5532 11.3922Z" fill="white"/>
<path d="M30.9248 13.1444C30.9248 13.441 31.1635 13.6837 31.4553 13.6837C31.747 13.6837 31.9857 13.441 31.9857 13.1444C31.9857 12.8479 31.747 12.6052 31.4553 12.6052C31.1635 12.6052 30.9248 12.8479 30.9248 13.1444Z" fill="white"/>
<path d="M31.0836 14.951C31.0836 15.2746 31.3488 15.5441 31.6671 15.5441C31.9854 15.5441 32.2506 15.2746 32.2506 14.951C32.2506 14.6275 31.9854 14.3579 31.6671 14.3579C31.3488 14.3579 31.0836 14.6275 31.0836 14.951Z" fill="white"/>
<path d="M32.2508 16.7579C32.2508 16.4074 31.9591 16.1108 31.6143 16.1108C31.2695 16.1108 30.9778 16.4074 30.9778 16.7579C30.9778 17.1084 31.2695 17.405 31.6143 17.405C31.9856 17.405 32.2508 17.1084 32.2508 16.7579Z" fill="white"/>
<path d="M32.0387 18.5369C32.0387 18.1594 31.747 17.8359 31.3491 17.8359C30.9778 17.8359 30.6595 18.1325 30.6595 18.5369C30.6595 18.9144 30.9778 19.2379 31.3491 19.2379C31.747 19.2379 32.0387 18.9144 32.0387 18.5369Z" fill="white"/>
<path d="M31.6142 20.2891C31.6142 19.8847 31.2959 19.5342 30.8981 19.5342C30.5003 19.5342 30.182 19.8577 30.182 20.2891C30.182 20.6935 30.5003 21.017 30.8981 21.017C31.2694 21.017 31.6142 20.6935 31.6142 20.2891Z" fill="white"/>
<path d="M30.1555 21.1526C29.7311 21.1526 29.3864 21.5031 29.3864 21.9345C29.3864 22.3658 29.7311 22.7163 30.1555 22.7163C30.5798 22.7163 30.9246 22.3658 30.9246 21.9345C30.9512 21.5031 30.6064 21.1526 30.1555 21.1526Z" fill="white"/>
<path d="M6.44445 5.16497C6.47084 5.16497 6.49718 5.138 6.49718 5.11105C6.49718 5.08409 6.47084 5.05713 6.44445 5.05713C6.41806 5.05713 6.39172 5.08409 6.39172 5.11105C6.39172 5.138 6.41806 5.16497 6.44445 5.16497Z" fill="white"/>
<path d="M8.03615 4.38268C8.08911 4.38268 8.14212 4.32875 8.14212 4.27483C8.14212 4.22091 8.08911 4.16699 8.03615 4.16699C7.98314 4.16699 7.93018 4.22091 7.93018 4.27483C7.93018 4.32875 7.98314 4.38268 8.03615 4.38268Z" fill="white"/>
<path d="M9.68047 3.76263C9.76002 3.76263 9.83962 3.70871 9.83962 3.62783C9.83962 3.54694 9.78655 3.46606 9.68047 3.46606C9.60092 3.46606 9.54785 3.54694 9.54785 3.62783C9.54785 3.68175 9.60092 3.76263 9.68047 3.76263Z" fill="white"/>
<path d="M11.4045 3.3313C11.5106 3.3313 11.5901 3.25043 11.5901 3.14259C11.5901 3.03474 11.5106 2.95386 11.4045 2.95386C11.2984 2.95386 11.2188 3.03474 11.2188 3.14259C11.1923 3.22347 11.2984 3.3313 11.4045 3.3313Z" fill="white"/>
<path d="M13.1547 3.06194C13.2873 3.06194 13.3934 2.95411 13.3934 2.8193C13.3934 2.6845 13.2873 2.57666 13.1547 2.57666C13.0221 2.57666 12.916 2.6845 12.916 2.8193C12.916 2.95411 13.0221 3.06194 13.1547 3.06194Z" fill="white"/>
<path d="M14.9319 3.00817C15.091 3.00817 15.2236 2.87337 15.2236 2.7116C15.2236 2.54984 15.091 2.41504 14.9319 2.41504C14.7727 2.41504 14.6401 2.54984 14.6401 2.7116C14.6401 2.87337 14.7727 3.00817 14.9319 3.00817Z" fill="white"/>
<path d="M16.7088 3.14287C16.8945 3.14287 17.0536 2.9811 17.0536 2.79238C17.0536 2.60366 16.8945 2.44189 16.7088 2.44189C16.5232 2.44189 16.364 2.60366 16.364 2.79238C16.364 2.9811 16.5232 3.14287 16.7088 3.14287Z" fill="white"/>
<path d="M18.4591 3.43919C18.6712 3.43919 18.8569 3.27743 18.8569 3.03478C18.8569 2.81909 18.6712 2.63037 18.4591 2.63037C18.2469 2.63037 18.0613 2.81909 18.0613 3.03478C18.0878 3.27743 18.2469 3.43919 18.4591 3.43919Z" fill="white"/>
<path d="M20.1832 4.00531C20.4219 4.00531 20.6341 3.8166 20.6341 3.57395C20.6341 3.3313 20.4485 3.14258 20.1832 3.14258C19.9445 3.14258 19.7589 3.3313 19.7589 3.57395C19.7589 3.78963 19.9445 4.00531 20.1832 4.00531Z" fill="white"/>
<path d="M21.8277 4.76013C22.0929 4.76013 22.3051 4.54444 22.3051 4.27484C22.3051 4.00523 22.0929 3.78955 21.8277 3.78955C21.5625 3.78955 21.3503 4.00523 21.3503 4.27484C21.3238 4.54444 21.5625 4.76013 21.8277 4.76013Z" fill="white"/>
<path d="M22.8091 5.19131C22.8091 5.48787 23.0478 5.73053 23.3395 5.73053C23.6313 5.73053 23.87 5.48787 23.87 5.19131C23.87 4.89474 23.6313 4.6521 23.3395 4.6521C23.0478 4.6521 22.8091 4.89474 22.8091 5.19131Z" fill="white"/>
<path d="M24.745 6.91723C25.0632 6.91723 25.3285 6.64761 25.3285 6.32407C25.3285 6.00058 25.0632 5.73096 24.745 5.73096C24.4267 5.73096 24.1615 6.00058 24.1615 6.32407C24.1615 6.6746 24.4267 6.91723 24.745 6.91723Z" fill="white"/>
<path d="M25.9652 8.29168C26.3101 8.29168 26.6018 7.99512 26.6018 7.64464C26.6018 7.29416 26.3101 6.99756 25.9652 6.99756C25.6204 6.99756 25.3287 7.29416 25.3287 7.64464C25.3287 7.99512 25.6204 8.29168 25.9652 8.29168Z" fill="white"/>
<path d="M27.0259 8.3999C26.6546 8.3999 26.3363 8.69646 26.3363 9.10086C26.3363 9.47833 26.6281 9.80187 27.0259 9.80187C27.3972 9.80187 27.7155 9.50527 27.7155 9.10086C27.7155 8.72344 27.3972 8.3999 27.0259 8.3999Z" fill="white"/>
<path d="M27.1586 10.6652C27.1586 11.0696 27.4768 11.3931 27.8747 11.3931C28.2725 11.3931 28.5908 11.0696 28.5908 10.6652C28.5908 10.2608 28.2725 9.93726 27.8747 9.93726C27.5034 9.93726 27.1586 10.2608 27.1586 10.6652Z" fill="white"/>
<path d="M27.7688 12.3637C27.7688 12.795 28.1136 13.1455 28.538 13.1455C28.9623 13.1455 29.3071 12.795 29.3071 12.3637C29.3071 11.9323 28.9623 11.5818 28.538 11.5818C28.1136 11.5818 27.7688 11.9323 27.7688 12.3637Z" fill="white"/>
<path d="M28.9621 13.28C28.5112 13.28 28.1399 13.6575 28.1399 14.1158C28.1399 14.5742 28.5112 14.9516 28.9621 14.9516C29.4129 14.9516 29.7842 14.5742 29.7842 14.1158C29.8108 13.6575 29.4395 13.28 28.9621 13.28Z" fill="white"/>
<path d="M0.0797325 17.405C0.0265777 17.405 0 17.459 0 17.4859C0 17.5398 0.053155 17.5668 0.0797325 17.5668C0.132888 17.5668 0.159465 17.5129 0.159465 17.4859C0.159465 17.459 0.132888 17.405 0.0797325 17.405Z" fill="white"/>
<path d="M0.609847 15.5977C0.503759 15.5977 0.424194 15.6785 0.424194 15.7864C0.424194 15.8942 0.503759 15.9751 0.609847 15.9751C0.715939 15.9751 0.795504 15.8942 0.795504 15.7864C0.795504 15.6785 0.715939 15.5977 0.609847 15.5977Z" fill="white"/>
<path d="M1.59123 14.1156C1.59123 13.9538 1.45862 13.8459 1.32601 13.8459C1.16688 13.8459 1.06079 13.9807 1.06079 14.1156C1.06079 14.2773 1.1934 14.3852 1.32601 14.3852C1.45862 14.3852 1.59123 14.2773 1.59123 14.1156Z" fill="white"/>
<path d="M2.1749 12.9026C2.38708 12.9026 2.54621 12.7408 2.54621 12.5251C2.54621 12.3095 2.38708 12.1477 2.1749 12.1477C1.96272 12.1477 1.80359 12.3095 1.80359 12.5251C1.80359 12.7408 1.98925 12.9026 2.1749 12.9026Z" fill="white"/>
<path d="M3.20905 11.5271C3.47428 11.5271 3.65993 11.3114 3.65993 11.0687C3.65993 10.826 3.44775 10.6104 3.20905 10.6104C2.94383 10.6104 2.75818 10.826 2.75818 11.0687C2.75818 11.3114 2.97035 11.5271 3.20905 11.5271Z" fill="white"/>
<path d="M4.40279 10.2598C4.69453 10.2598 4.95975 10.0172 4.95975 9.69362C4.95975 9.39706 4.72106 9.12744 4.40279 9.12744C4.11105 9.12744 3.84583 9.37007 3.84583 9.69362C3.84583 10.0172 4.08452 10.2598 4.40279 10.2598Z" fill="white"/>
<path d="M5.70217 9.12811C6.04695 9.12811 6.33872 8.8315 6.33872 8.48102C6.33872 8.13054 6.04695 7.83398 5.70217 7.83398C5.35739 7.83398 5.06567 8.13054 5.06567 8.48102C5.06567 8.8315 5.35739 9.12811 5.70217 9.12811Z" fill="white"/>
<path d="M7.1343 8.15698C7.53215 8.15698 7.87693 7.83349 7.87693 7.4021C7.87693 6.9977 7.55868 6.64722 7.1343 6.64722C6.73651 6.64722 6.39172 6.97071 6.39172 7.4021C6.39172 7.8065 6.73651 8.15698 7.1343 8.15698Z" fill="white"/>
<path d="M8.67264 7.3488C9.12351 7.3488 9.49482 6.97134 9.49482 6.51301C9.49482 6.05468 9.12351 5.67725 8.67264 5.67725C8.22173 5.67725 7.85046 6.05468 7.85046 6.51301C7.85046 6.97134 8.22173 7.3488 8.67264 7.3488Z" fill="white"/>
<path d="M10.3434 6.75511C10.7943 6.75511 11.1656 6.40463 11.2452 5.97324C11.4308 6.24286 11.7226 6.40463 12.0674 6.40463C12.4652 6.40463 12.7835 6.18894 12.9691 5.83846C13.1813 6.10808 13.4996 6.29679 13.8444 6.29679C14.1626 6.29679 14.4544 6.16195 14.6665 5.91932C14.8787 6.21588 15.2235 6.43157 15.6479 6.43157C15.8866 6.43157 16.1253 6.35071 16.3374 6.21588C16.3905 6.29679 16.4435 6.35071 16.4966 6.40463C16.2048 6.43157 15.9131 6.56641 15.7274 6.78205C15.4887 6.56641 15.197 6.43157 14.8787 6.43157C14.4544 6.43157 14.0831 6.64727 13.8444 6.97081C13.6322 6.80904 13.3935 6.70119 13.1017 6.70119C12.6243 6.70119 12.2 6.99775 12.0143 7.40215C11.8287 7.26736 11.6165 7.21344 11.3778 7.21344C10.8474 7.21344 10.3965 7.59091 10.2639 8.10316C10.1047 7.99531 9.9191 7.94139 9.70689 7.94139C9.12341 7.94139 8.64601 8.42665 8.64601 9.01981C8.48691 8.9389 8.32776 8.88498 8.14208 8.88498C7.58513 8.88498 7.1608 9.34331 7.1608 9.88254C7.1608 9.99039 7.18728 10.0713 7.21382 10.1522C7.0812 10.0713 6.9221 10.0173 6.73642 10.0173C6.23249 10.0173 5.80816 10.4487 5.80816 10.961C5.80816 11.4732 6.23249 11.9046 6.73642 11.9046C7.24035 11.9046 7.66468 11.4732 7.66468 10.961C7.66468 10.8801 7.66468 10.7992 7.6382 10.7183C7.7973 10.8261 7.98298 10.8801 8.16861 10.8801C8.69908 10.8801 9.14994 10.4487 9.14994 9.90948C9.30909 10.0173 9.52125 10.0713 9.70689 10.0713C9.73342 10.0713 9.73342 10.0713 9.75995 10.0713C9.54779 10.2869 9.38864 10.5566 9.36211 10.8801C9.28256 10.8801 9.22949 10.8531 9.14994 10.8531C8.51339 10.8531 7.98298 11.3923 7.98298 12.0394C7.98298 12.0933 7.98298 12.1203 7.98298 12.1742C7.92991 12.1742 7.90338 12.1742 7.85036 12.1742C7.24035 12.1742 6.73642 12.6864 6.73642 13.3065C6.73642 13.4413 6.76295 13.5492 6.78949 13.657C6.76295 13.657 6.73642 13.657 6.73642 13.657C6.15294 13.657 5.70207 14.1423 5.70207 14.7085C5.70207 14.9241 5.75509 15.1129 5.86122 15.2747H5.83469C5.30423 15.2747 4.85336 15.733 4.85336 16.2722C4.85336 16.5687 4.98598 16.8114 5.17161 17.0001C5.14513 17.0001 5.14513 17.0001 5.11859 17.0001C4.61466 17.0001 4.19031 17.4315 4.19031 17.9437C4.19031 18.456 4.61466 18.8874 5.11859 18.8874C5.62253 18.8874 6.04686 18.483 6.04686 17.9437C6.04686 17.6742 5.94077 17.4585 5.78162 17.2698C5.80816 17.2698 5.83469 17.2698 5.83469 17.2698C6.12641 17.2698 6.3651 17.1349 6.55079 16.9462V16.9731C6.55079 17.2428 6.63034 17.4585 6.76295 17.6472C6.33862 17.8089 6.04686 18.2133 6.04686 18.6717C6.04686 18.9952 6.20601 19.2918 6.41817 19.5075C6.07339 19.6692 5.80816 20.0467 5.80816 20.4511C5.80816 20.8555 6.02032 21.206 6.3651 21.3678C6.04686 21.5295 5.83469 21.853 5.83469 22.2574C5.83469 22.7158 6.15294 23.1202 6.6038 23.228C6.31209 23.3898 6.09992 23.6863 6.09992 24.0638C6.09992 24.5761 6.52425 25.0074 7.02818 25.0074C7.0812 25.0074 7.13427 25.0074 7.18728 24.9805C6.8425 25.0883 6.57732 25.4118 6.57732 25.8163C6.57732 26.3015 6.97512 26.7059 7.45252 26.7059C7.92991 26.7059 8.32776 26.3015 8.32776 25.8163C8.32776 25.3309 7.92991 24.9265 7.45252 24.9265C7.3995 24.9265 7.34643 24.9265 7.29342 24.9535C7.66468 24.8457 7.95645 24.4951 7.95645 24.0638C7.95645 24.0368 7.95645 24.0099 7.95645 24.0099C8.08906 24.1716 8.27469 24.2795 8.51339 24.3334C8.35429 24.5221 8.27469 24.7378 8.27469 25.0074C8.27469 25.5736 8.72561 26.0319 9.30909 26.0319H9.33557C9.22949 26.1937 9.14994 26.3824 9.14994 26.5981C9.14994 27.1373 9.57427 27.5956 10.1313 27.5956C10.2374 27.5956 10.3169 27.5686 10.423 27.5417C10.3169 27.7035 10.2639 27.8653 10.2639 28.054C10.2639 28.5662 10.6882 28.9976 11.1921 28.9976C11.4043 28.9976 11.6165 28.9167 11.7756 28.7819C11.643 28.9437 11.5635 29.1324 11.5635 29.3481C11.5635 29.8334 11.9613 30.2378 12.4387 30.2378C12.9161 30.2378 13.3139 29.8334 13.3139 29.3481C13.3139 29.1054 13.2078 28.8898 13.0752 28.728C13.1813 28.728 13.3139 28.701 13.42 28.6741C13.42 29.1054 13.6587 29.4559 14.0035 29.6446C13.9504 29.6446 13.8974 29.6177 13.8444 29.6177C13.3935 29.6177 13.0222 29.9951 13.0222 30.4534C13.0222 30.9118 13.3935 31.2892 13.8444 31.2892C14.2952 31.2892 14.6665 30.9118 14.6665 30.4534C14.6665 30.1299 14.4809 29.8603 14.2422 29.7255C14.3218 29.7525 14.4013 29.7525 14.5074 29.7525C14.7196 29.7525 14.9052 29.6986 15.0644 29.5907C15.1174 30.1299 15.5418 30.5344 16.0722 30.5344C16.364 30.5344 16.6292 30.3995 16.8148 30.2108C16.8944 30.6691 17.2922 31.0466 17.7696 31.0466C18.1409 31.0466 18.4592 30.8309 18.6183 30.5344C18.6979 30.9657 19.0692 31.2892 19.5201 31.2892C19.9975 31.2892 20.3953 30.9118 20.4218 30.4534C20.4484 30.9118 20.8196 31.2892 21.297 31.2892C21.7744 31.2892 22.1723 30.8848 22.1723 30.3995C22.1723 29.9143 21.801 29.5368 21.3236 29.5098C21.4031 29.4289 21.4562 29.3211 21.5093 29.2133C21.6949 29.4289 21.9867 29.5368 22.2784 29.5368C22.3845 29.5368 22.4905 29.5098 22.5967 29.4829C22.3845 29.6446 22.2254 29.8873 22.2254 30.1838C22.2254 30.6422 22.5967 31.0196 23.0475 31.0196C23.4984 31.0196 23.8697 30.6422 23.8697 30.1838C23.8697 29.7255 23.4984 29.3481 23.0475 29.3481C22.9679 29.3481 22.8884 29.375 22.8088 29.375C23.0475 29.2133 23.2332 28.9706 23.2862 28.701C23.4719 28.8628 23.684 28.9436 23.9493 28.9436C24.5063 28.9436 24.9837 28.4853 24.9837 27.9192V27.8922C25.1428 28 25.3284 28.0809 25.5406 28.0809C26.071 28.0809 26.5219 27.6496 26.5219 27.0834C26.5219 26.9755 26.5219 26.8946 26.4689 26.7868C26.628 26.8946 26.7871 26.9486 26.9728 26.9486C27.4767 26.9486 27.9011 26.5172 27.9011 26.005C27.9011 25.7893 27.8215 25.5736 27.6889 25.4118C27.848 25.5466 28.0337 25.6275 28.2458 25.6275C28.7232 25.6275 29.1211 25.2231 29.1211 24.7378C29.1211 24.2525 28.7232 23.8481 28.2458 23.8481C28.0071 23.8481 27.795 23.929 27.6358 24.0907C27.6358 23.9829 27.6093 23.8481 27.5828 23.7403C28.0071 23.7403 28.3519 23.4976 28.5376 23.1471C28.5376 23.2011 28.5111 23.255 28.5111 23.3089C28.5111 23.7672 28.8824 24.1447 29.3333 24.1447C29.7841 24.1447 30.1554 23.7672 30.1554 23.3089C30.1554 22.8505 29.7841 22.4731 29.3333 22.4731C29.015 22.4731 28.7498 22.6618 28.6172 22.9045C28.6437 22.8236 28.6437 22.7427 28.6437 22.6349C28.6437 22.4192 28.5906 22.2305 28.4845 22.0687C29.015 22.0148 29.4128 21.5834 29.4128 21.0442C29.4128 20.7477 29.2802 20.478 29.0946 20.2893C29.5454 20.2084 29.9167 19.804 29.9167 19.3188C29.9167 18.9413 29.7046 18.6177 29.4128 18.456C29.8372 18.3751 30.1554 17.9977 30.1554 17.5393C30.1554 17.0541 29.7841 16.6497 29.3333 16.6227C29.7841 16.5957 30.1554 16.2183 30.1554 15.733C30.1554 15.2477 29.7576 14.8433 29.2802 14.8433C28.8028 14.8433 28.405 15.2477 28.405 15.733C28.405 16.1913 28.7498 16.5687 29.1742 16.6227C28.6968 16.6497 28.3254 17.0541 28.3254 17.5663C28.3254 17.9168 28.5111 18.2133 28.8028 18.3751C28.3519 18.456 28.0071 18.8604 28.0071 19.3457C28.0071 19.6153 28.1132 19.8579 28.2989 20.0467C27.795 20.1276 27.4237 20.5589 27.4237 21.0712C27.4237 21.2599 27.4767 21.4486 27.5563 21.5834C26.9993 21.6104 26.5484 22.0957 26.5484 22.6618C26.5484 22.7697 26.5749 22.8775 26.6015 22.9854C26.5749 22.9854 26.5749 22.9854 26.5484 22.9854C25.9385 22.9854 25.4345 23.4976 25.4345 24.1177C25.4345 24.1447 25.4345 24.1717 25.4345 24.1986C25.3815 24.1986 25.3284 24.1717 25.2488 24.1717C24.6654 24.1717 24.188 24.603 24.1084 25.1962C24.0023 25.1692 23.8962 25.1422 23.7902 25.1422C23.3128 25.1422 22.8884 25.4388 22.7028 25.8432C22.4641 25.6545 22.1458 25.5466 21.8275 25.6275C21.4827 25.7084 21.191 25.924 21.0583 26.2476C20.8196 26.005 20.4749 25.8702 20.1301 25.8971C19.7853 25.951 19.4935 26.1667 19.3344 26.4633C19.1488 26.2207 18.8305 26.0589 18.5123 26.0589C18.194 26.0589 17.9288 26.1937 17.7166 26.4094C17.5839 26.1397 17.3452 25.8971 17.0535 25.8163C16.7353 25.7084 16.3905 25.7893 16.1253 25.978C16.0457 25.6545 15.86 25.3849 15.5418 25.2231C15.25 25.0883 14.9052 25.0883 14.64 25.2231C14.64 24.9265 14.5074 24.603 14.2422 24.4143C14.0035 24.2256 13.6852 24.1447 13.3935 24.1986C13.4731 23.902 13.3935 23.5785 13.2078 23.3089C12.9957 23.0393 12.6774 22.8775 12.3591 22.8775C12.4917 22.581 12.4917 22.2305 12.3326 21.9339C12.2 21.6643 11.9348 21.4756 11.6695 21.3947C11.8552 21.179 11.9348 20.8555 11.8817 20.5589C11.8287 20.2354 11.6165 19.9388 11.3513 19.777C11.6165 19.5614 11.7756 19.2648 11.7756 18.8874C11.7756 18.5638 11.643 18.2673 11.4043 18.0786C11.6695 17.9437 11.8817 17.7011 11.9613 17.3776C12.0409 17.0541 11.9613 16.7305 11.8022 16.4879C12.0939 16.434 12.3326 16.2453 12.4917 15.9756C12.6509 15.6791 12.6774 15.3555 12.5713 15.059C12.8896 15.0859 13.2078 14.9511 13.42 14.7085C13.6322 14.4658 13.7383 14.1423 13.6852 13.8188C13.977 13.8996 14.2952 13.8457 14.5605 13.657C14.8257 13.4683 14.9848 13.1717 15.0113 12.8751C15.2766 13.01 15.6213 13.0369 15.9131 12.9291C16.2048 12.7943 16.417 12.5786 16.4966 12.309C16.7087 12.4977 17.0005 12.6056 17.3188 12.5786C17.6635 12.5516 17.9553 12.3629 18.1144 12.0663C18.3 12.336 18.5653 12.4977 18.9101 12.5247C19.2284 12.5516 19.5201 12.4168 19.7322 12.2281C19.8384 12.5247 20.0771 12.7404 20.3953 12.8482C20.7136 12.956 21.0583 12.9021 21.3236 12.7134C21.3766 13.0369 21.5623 13.3065 21.854 13.4683C22.0927 13.6031 22.358 13.6301 22.6232 13.5761C22.6497 13.6301 22.6762 13.657 22.7028 13.684C22.7292 13.9266 22.8088 14.1423 22.9679 14.331L22.9945 14.358C23.5515 14.9511 24.798 16.3531 24.5593 18.2403C24.5063 18.6987 24.7714 18.9413 25.0897 18.5908C27.1054 16.38 26.7871 13.684 26.7341 13.3605C26.7341 13.1448 26.681 12.9561 26.6015 12.7673C26.628 12.6594 26.628 12.5247 26.628 12.4168C26.628 11.8506 26.3628 11.3384 25.9385 11.0149C25.9649 10.907 25.9649 10.7992 25.9649 10.6914C25.9649 9.99039 25.5406 9.39723 24.9306 9.12761C24.9041 8.34579 24.3471 7.6987 23.6045 7.56392C23.4719 6.86296 22.8619 6.32372 22.1193 6.32372C22.0927 6.32372 22.0662 6.32372 22.0397 6.32372C21.854 5.75755 21.3236 5.3262 20.6871 5.3262C20.5545 5.3262 20.4483 5.35315 20.3422 5.38012C20.1301 4.89483 19.6527 4.5713 19.1223 4.5713C18.9101 4.5713 18.6979 4.62522 18.5387 4.7061C18.3266 4.32865 17.9022 4.05905 17.4514 4.05905C17.1596 4.05905 16.8679 4.16689 16.6557 4.32866C16.4435 4.03209 16.0987 3.81641 15.7009 3.81641C15.3296 3.81641 14.9848 4.00512 14.7726 4.27473C14.5605 4.03209 14.2687 3.87032 13.9239 3.87032C13.4731 3.87032 13.1017 4.13993 12.9161 4.51738C12.7304 4.3017 12.4652 4.16689 12.1469 4.16689C11.6165 4.16689 11.1921 4.57129 11.1391 5.08355C10.98 4.86787 10.7147 4.7061 10.423 4.7061C9.9191 4.7061 9.52125 5.11051 9.52125 5.62276C9.41517 6.35071 9.8395 6.75511 10.3434 6.75511Z" fill="white"/>
<path d="M4.19069 30.7771C4.16412 30.7771 4.11096 30.804 4.11096 30.858C4.11096 30.8849 4.13754 30.9389 4.19069 30.9389C4.24385 30.9389 4.27043 30.9119 4.27043 30.858C4.24385 30.804 4.21727 30.7771 4.19069 30.7771Z" fill="white"/>
<path d="M3.36814 29.1057C3.28861 29.1057 3.2356 29.1596 3.2356 29.2405C3.2356 29.3214 3.28861 29.3753 3.36814 29.3753C3.44767 29.3753 3.50068 29.3214 3.50068 29.2405C3.50068 29.1596 3.42116 29.1057 3.36814 29.1057Z" fill="white"/>
<path d="M2.70522 27.353C2.59913 27.353 2.49304 27.4609 2.49304 27.5687C2.49304 27.6766 2.59913 27.7844 2.70522 27.7844C2.81131 27.7844 2.9174 27.6766 2.9174 27.5687C2.9174 27.4609 2.81131 27.353 2.70522 27.353Z" fill="white"/>
<path d="M2.2279 25.5466C2.06877 25.5466 1.93616 25.6814 1.93616 25.8432C1.93616 26.0049 2.06877 26.1397 2.2279 26.1397C2.38703 26.1397 2.51964 26.0049 2.51964 25.8432C2.49312 25.6544 2.36051 25.5466 2.2279 25.5466Z" fill="white"/>
<path d="M2.28101 24.037C2.28101 23.8483 2.12187 23.6865 1.93622 23.6865C1.75056 23.6865 1.59143 23.8483 1.59143 24.037C1.59143 24.2258 1.75056 24.3875 1.93622 24.3875C2.12187 24.3875 2.28101 24.2258 2.28101 24.037Z" fill="white"/>
<path d="M2.22786 22.2305C2.22786 21.9878 2.04221 21.7991 1.80351 21.7991C1.56481 21.7991 1.37915 21.9878 1.37915 22.2305C1.37915 22.4731 1.56481 22.6619 1.80351 22.6619C2.04221 22.6619 2.22786 22.4731 2.22786 22.2305Z" fill="white"/>
<path d="M1.37915 20.4244C1.37915 20.694 1.59133 20.9366 1.88307 20.9366C2.14829 20.9366 2.38699 20.7209 2.38699 20.4244C2.38699 20.1547 2.17482 19.9121 1.88307 19.9121C1.61785 19.9121 1.37915 20.1547 1.37915 20.4244Z" fill="white"/>
<path d="M2.1484 19.2112C2.46666 19.2112 2.70536 18.9416 2.70536 18.645C2.70536 18.3215 2.44014 18.0789 2.1484 18.0789C1.83013 18.0789 1.59143 18.3485 1.59143 18.645C1.59143 18.9416 1.83013 19.2112 2.1484 19.2112Z" fill="white"/>
<path d="M2.65203 16.2456C2.30724 16.2456 2.0155 16.5422 2.0155 16.8927C2.0155 17.2432 2.30724 17.5397 2.65203 17.5397C2.99682 17.5397 3.28856 17.2432 3.28856 16.8927C3.28856 16.5422 2.99682 16.2456 2.65203 16.2456Z" fill="white"/>
<path d="M3.34171 15.9488C3.73954 15.9488 4.0578 15.6253 4.0578 15.2209C4.0578 14.8165 3.73954 14.4929 3.34171 14.4929C2.94387 14.4929 2.62561 14.8165 2.62561 15.2209C2.65213 15.6253 2.9704 15.9488 3.34171 15.9488Z" fill="white"/>
<path d="M4.27012 14.4658C4.69447 14.4658 5.03925 14.1154 5.03925 13.684C5.03925 13.2526 4.69447 12.9021 4.27012 12.9021C3.84576 12.9021 3.50098 13.2526 3.50098 13.684C3.50098 14.1154 3.84576 14.4658 4.27012 14.4658Z" fill="white"/>
<path d="M6.23256 12.2551C6.23256 11.7698 5.86125 11.3923 5.38385 11.3923C4.90647 11.3923 4.53516 11.7698 4.53516 12.2551C4.53516 12.7403 4.90647 13.1178 5.38385 13.1178C5.83476 13.1178 6.23256 12.7403 6.23256 12.2551Z" fill="white"/>
<path d="M49.9409 26.0586C49.0127 26.0586 48.1375 25.8699 47.3153 25.5194C46.4931 25.1689 45.777 24.6567 45.167 24.0366C44.557 23.4165 44.0796 22.6885 43.7348 21.8527C43.39 21.017 43.2043 20.1273 43.2043 19.1836C43.2043 18.24 43.39 17.3234 43.7348 16.4876C44.0796 15.6518 44.557 14.9239 45.167 14.3038C45.777 13.6837 46.4931 13.1715 47.3153 12.821C48.1375 12.4435 49.0127 12.2817 49.9409 12.2817C50.8691 12.2817 51.7709 12.4705 52.5932 12.8479C53.4156 13.2254 54.1316 13.7376 54.7681 14.3847C54.9007 14.5195 55.0066 14.6812 55.0597 14.8969C55.1392 15.1396 55.1129 15.3552 54.9802 15.5709C54.8212 15.8136 54.6091 15.9214 54.3169 15.9484C53.9989 15.9484 53.7867 15.8675 53.6009 15.6788C53.1502 15.2744 52.5669 14.8969 51.9299 14.5464C51.3203 14.2229 50.6306 14.0612 49.9409 14.0612C49.2514 14.0612 48.5884 14.196 47.9784 14.4656C47.3684 14.7351 46.8379 15.1126 46.387 15.5709C45.9362 16.0563 45.5914 16.5954 45.3261 17.2155C45.0609 17.8356 44.9283 18.5097 44.9283 19.2106C44.9283 19.9116 45.0609 20.5856 45.3261 21.2057C45.5914 21.8258 45.9362 22.365 46.387 22.8233C46.8379 23.2816 47.3684 23.6591 47.9784 23.9287C48.5884 24.1983 49.2514 24.3331 49.9409 24.3331C50.6569 24.3331 51.3466 24.1983 51.9831 23.9017C52.6196 23.6322 53.1502 23.2278 53.6277 22.7155C53.7604 22.5537 53.9457 22.4459 54.1579 22.392C54.2374 22.365 54.2906 22.365 54.3701 22.365C54.5291 22.365 54.6886 22.4189 54.8212 22.4998C55.0334 22.6885 55.1392 22.9312 55.1392 23.2008C55.1392 23.4704 55.0597 23.713 54.9007 23.9017C54.2906 24.6028 53.5482 25.1419 52.6991 25.5194C51.8504 25.8429 50.9223 26.0586 49.9409 26.0586Z" fill="white"/>
<path d="M64.0512 26.0323C63.1226 26.0323 62.2476 25.8435 61.4252 25.493C60.6029 25.1425 59.8869 24.6303 59.2772 24.0372C58.6671 23.4171 58.1896 22.6891 57.8447 21.8533C57.4999 21.0176 57.3146 20.1279 57.3146 19.1843C57.3146 18.2406 57.4999 17.3509 57.8447 16.5152C58.1896 15.6794 58.6934 14.9514 59.2772 14.3313C59.8869 13.7112 60.6029 13.226 61.4252 12.8485C62.2476 12.498 63.1226 12.3093 64.0512 12.3093C64.9794 12.3093 65.8544 12.498 66.6767 12.8485C67.499 13.199 68.215 13.7112 68.8252 14.3313C69.4349 14.9514 69.9123 15.6794 70.2835 16.5152C70.6283 17.3509 70.8142 18.2406 70.8142 19.1843C70.8142 20.1279 70.6283 21.0176 70.2835 21.8533C69.9387 22.6891 69.4349 23.4171 68.8252 24.0372C68.215 24.6573 67.499 25.1425 66.6767 25.493C65.8544 25.8435 64.9794 26.0323 64.0512 26.0323ZM64.0512 14.0618C63.3615 14.0618 62.6982 14.1966 62.0886 14.4662C61.4784 14.7357 60.9477 15.0863 60.4971 15.5446C60.0464 16.0029 59.6747 16.5691 59.4362 17.1892C59.1709 17.8093 59.0382 18.4833 59.0382 19.1843C59.0382 19.8852 59.1709 20.5593 59.4362 21.1794C59.7016 21.7994 60.0464 22.3387 60.4971 22.797C60.9477 23.2553 61.4784 23.6058 62.0886 23.8754C62.6982 24.145 63.3615 24.2798 64.0512 24.2798C64.7404 24.2798 65.4037 24.145 66.0139 23.8754C66.6235 23.6058 67.1542 23.2553 67.6049 22.797C68.056 22.3387 68.4272 21.7994 68.6925 21.1794C68.9573 20.5593 69.09 19.8852 69.09 19.1843C69.09 18.4833 68.9573 17.8093 68.6925 17.1892C68.4272 16.5691 68.0824 16.0299 67.6049 15.5446C67.1542 15.0863 66.6235 14.7088 66.0139 14.4662C65.4037 14.1966 64.7404 14.0618 64.0512 14.0618Z" fill="white"/>
<path d="M82.749 26.0588C82.51 26.0588 82.2978 25.9779 82.1388 25.7892C81.9798 25.6275 81.8735 25.4118 81.8735 25.1691V17.3236C81.8735 16.8653 81.794 16.4609 81.6082 16.0565C81.4492 15.652 81.2107 15.3015 80.8922 15.005C80.6005 14.7084 80.2293 14.4658 79.8582 14.277C79.4602 14.1153 79.0358 14.0075 78.6115 14.0075C78.1603 14.0075 77.736 14.0883 77.3649 14.277C76.9669 14.4388 76.622 14.6814 76.3304 15.005C76.0387 15.3015 75.8002 15.679 75.6407 16.0565C75.4817 16.4609 75.3759 16.8922 75.3759 17.3236V25.1691C75.3759 25.4118 75.2964 25.6275 75.1105 25.7892C74.9515 25.951 74.7394 26.0319 74.5004 26.0319C74.2619 26.0319 74.0497 25.951 73.8907 25.7623C73.7312 25.6005 73.6254 25.3848 73.6254 25.1422V17.2966C73.6254 16.5957 73.758 15.9486 74.0229 15.3285C74.2882 14.7084 74.633 14.1692 75.0842 13.7109C75.5349 13.2525 76.0655 12.8751 76.6752 12.6324C77.2854 12.3629 77.9218 12.228 78.6115 12.228C79.3012 12.228 79.9377 12.3629 80.5473 12.6324C81.1575 12.9021 81.6882 13.2525 82.1388 13.7109C82.5895 14.1692 82.9612 14.7084 83.1997 15.3285C83.465 15.9486 83.5976 16.6226 83.5976 17.2966V25.1422C83.5976 25.3848 83.5182 25.6005 83.3587 25.7623C83.1997 25.9779 82.9875 26.0588 82.749 26.0588Z" fill="white"/>
<path d="M91.2889 26.059C90.6261 26.059 89.9896 25.9512 89.4058 25.7355C88.8224 25.5198 88.2918 25.2232 87.8674 24.8188C87.4168 24.4414 87.0719 23.983 86.8066 23.4708C86.5418 22.9585 86.4354 22.3924 86.4354 21.7992C86.4354 21.5835 86.5149 21.3678 86.6739 21.2061C86.8334 21.0444 87.0456 20.9634 87.2578 20.9634C87.4963 20.9634 87.6821 21.0444 87.8411 21.2061C88.0001 21.3678 88.0796 21.5566 88.0796 21.7992C88.0796 22.1497 88.1596 22.4733 88.3186 22.7698C88.4776 23.0664 88.6898 23.336 88.9814 23.5786C89.2731 23.7943 89.5916 23.983 89.9896 24.1178C90.3871 24.2526 90.8114 24.3335 91.2626 24.3335C91.7132 24.3335 92.1376 24.2526 92.5356 24.1178C92.9336 23.983 93.2779 23.7943 93.5701 23.5517C93.8617 23.336 94.1002 23.0664 94.2592 22.7428C94.4187 22.4463 94.4714 22.1228 94.4714 21.7723C94.4451 21.4488 94.3392 21.1522 94.1797 20.8826C93.9944 20.586 93.7822 20.3433 93.4906 20.1007C93.2252 19.885 92.8804 19.6963 92.5092 19.5345C92.1376 19.3728 91.7664 19.2649 91.3421 19.211C90.7587 19.1841 90.2017 19.0492 89.6447 18.8605C89.1141 18.6718 88.6102 18.4292 88.2123 18.1326C87.7879 17.836 87.4431 17.4855 87.2046 17.0811C86.9393 16.6767 86.8066 16.1914 86.8066 15.7062C86.8066 15.1939 86.9393 14.7356 87.1783 14.3042C87.4168 13.8728 87.7616 13.4954 88.1596 13.1988C88.5571 12.8753 89.0609 12.6326 89.6179 12.4439C90.1749 12.2552 90.7587 12.1743 91.3684 12.1743C91.9786 12.1743 92.5887 12.2552 93.1189 12.4439C93.6759 12.6326 94.1534 12.8753 94.5777 13.1988C95.0021 13.5223 95.3206 13.8998 95.5591 14.3042C95.7976 14.7356 95.9302 15.1939 95.9302 15.7062C95.9302 15.9488 95.8507 16.1645 95.6649 16.3262C95.5059 16.488 95.2937 16.5958 95.0552 16.5958C94.8162 16.5958 94.6041 16.515 94.4451 16.3262C94.2861 16.1645 94.2066 15.9218 94.1797 15.6522C94.1797 15.4365 94.1002 15.2478 93.9676 15.0591C93.8086 14.8434 93.6227 14.6816 93.3579 14.5199C93.0926 14.3581 92.8009 14.2233 92.4561 14.1155C92.1112 14.0076 91.7401 13.9806 91.3421 13.9806C90.9441 13.9806 90.5729 14.0346 90.2017 14.1155C89.8569 14.2233 89.5384 14.3312 89.2999 14.5199C89.0609 14.6816 88.8488 14.8704 88.7161 15.113C88.5839 15.3287 88.5039 15.5444 88.5039 15.7601C88.5039 15.9757 88.5839 16.1645 88.7429 16.3532C88.9288 16.5689 89.1673 16.7307 89.4326 16.8924C89.7242 17.0541 90.0422 17.189 90.3871 17.2968C90.7319 17.4047 91.0504 17.4855 91.3421 17.5125C91.9786 17.5934 92.5887 17.7282 93.1721 17.9708C93.7554 18.2135 94.2592 18.51 94.6841 18.8605C95.1084 19.238 95.4527 19.6693 95.718 20.1546C95.957 20.6399 96.0897 21.2061 96.0897 21.7723C96.0897 22.3654 95.957 22.9316 95.718 23.4438C95.4795 23.9561 95.1084 24.4144 94.6572 24.7918C94.2066 25.1693 93.7027 25.4659 93.1189 25.6816C92.5887 25.9512 91.9522 26.059 91.2889 26.059Z" fill="white"/>
<path d="M100.041 26.0588C99.8024 26.0588 99.5902 25.9779 99.4312 25.7892C99.2722 25.6275 99.1659 25.4118 99.1659 25.1691V13.1177C99.1659 12.8751 99.2454 12.6594 99.4312 12.4976C99.5902 12.3359 99.8024 12.228 100.041 12.228H107.282C107.52 12.228 107.733 12.3089 107.892 12.4976C108.051 12.6594 108.131 12.8751 108.131 13.1177C108.131 13.3604 108.051 13.5761 107.892 13.7378C107.733 13.8996 107.52 14.0075 107.282 14.0075H100.916V18.2403H105.425C105.664 18.2403 105.876 18.3211 106.035 18.5099C106.194 18.6716 106.301 18.8873 106.301 19.13C106.301 19.3726 106.221 19.5883 106.035 19.7501C105.876 19.9118 105.664 19.9927 105.425 19.9927H100.916V24.3064H107.282C107.52 24.3064 107.733 24.3873 107.892 24.576C108.051 24.7377 108.131 24.9534 108.131 25.1961C108.131 25.4387 108.051 25.6544 107.892 25.8162C107.733 25.9779 107.52 26.0858 107.282 26.0858H100.041V26.0588Z" fill="white"/>
<path d="M119.588 26.0586C119.349 26.0586 119.137 25.9777 118.978 25.816C118.819 25.6542 118.713 25.4385 118.713 25.1959V17.3503C118.713 16.892 118.633 16.4876 118.448 16.0832C118.289 15.6788 118.05 15.3283 117.732 15.0318C117.44 14.7351 117.068 14.4925 116.697 14.3038C116.299 14.142 115.875 14.0342 115.45 14.0342C115 14.0342 114.575 14.115 114.204 14.3038C113.806 14.4656 113.461 14.7082 113.17 15.0318C112.878 15.3283 112.639 15.7057 112.48 16.0832C112.321 16.4876 112.215 16.919 112.215 17.3503V25.1959C112.215 25.4385 112.135 25.6542 111.949 25.816C111.79 25.9777 111.578 26.0586 111.34 26.0586C111.101 26.0586 110.889 25.9777 110.73 25.816C110.571 25.6542 110.491 25.4385 110.491 25.1959V17.3503C110.491 16.6494 110.623 16.0023 110.889 15.3822C111.154 14.7621 111.499 14.2229 111.949 13.7646C112.401 13.3062 112.931 12.9288 113.541 12.6861C114.151 12.4166 114.814 12.2817 115.477 12.2817C116.166 12.2817 116.803 12.4166 117.413 12.6861C117.996 12.9558 118.553 13.3062 119.005 13.7646C119.455 14.2229 119.827 14.7621 120.065 15.3822C120.331 16.0023 120.463 16.6763 120.463 17.3503V25.1959C120.463 25.4385 120.384 25.6542 120.224 25.816C120.039 25.9777 119.827 26.0586 119.588 26.0586Z" fill="white"/>
<path d="M128.128 26.0589C127.465 26.0589 126.829 25.951 126.245 25.7353C125.662 25.5196 125.132 25.2231 124.707 24.8187C124.256 24.4413 123.911 23.9829 123.646 23.4707C123.381 22.9584 123.275 22.3923 123.275 21.7991C123.275 21.5834 123.354 21.3678 123.513 21.206C123.673 21.0442 123.885 20.9634 124.097 20.9634C124.336 20.9634 124.521 21.0442 124.68 21.206C124.839 21.3678 124.919 21.5834 124.919 21.7991C124.919 22.1496 124.999 22.4731 125.158 22.7697C125.317 23.0662 125.529 23.3628 125.821 23.5785C126.113 23.8212 126.457 23.9829 126.829 24.1447C127.226 24.2795 127.651 24.3604 128.102 24.3604C128.553 24.3604 128.977 24.2795 129.375 24.1447C129.773 24.0099 130.118 23.8212 130.409 23.5785C130.701 23.3628 130.94 23.0662 131.099 22.7697C131.258 22.4731 131.311 22.1496 131.284 21.7991C131.258 21.4756 131.152 21.179 130.993 20.9094C130.807 20.6128 130.595 20.3702 130.303 20.1276C130.038 19.9119 129.693 19.7232 129.322 19.5614C128.951 19.3996 128.579 19.2918 128.155 19.2379C127.571 19.2109 127.014 19.0761 126.484 18.8874C125.953 18.6987 125.45 18.456 125.052 18.1594C124.627 17.8629 124.282 17.5124 124.044 17.108C123.779 16.7036 123.646 16.2183 123.646 15.733C123.646 15.2477 123.779 14.7624 124.018 14.331C124.256 13.8997 124.601 13.5222 125.025 13.2257C125.45 12.9021 125.927 12.6595 126.457 12.4707C127.014 12.282 127.598 12.2012 128.208 12.2012C128.818 12.2012 129.428 12.282 129.958 12.4707C130.515 12.6595 130.993 12.9021 131.417 13.2257C131.841 13.5492 132.16 13.9266 132.398 14.331C132.637 14.7624 132.77 15.2477 132.77 15.733C132.77 15.9756 132.69 16.1913 132.505 16.3531C132.345 16.5148 132.133 16.6227 131.895 16.6227C131.656 16.6227 131.443 16.5418 131.284 16.3531C131.125 16.1913 131.046 15.9487 131.046 15.6791C131.046 15.4634 130.966 15.2747 130.834 15.0859C130.701 14.8702 130.489 14.7085 130.224 14.5467C129.958 14.385 129.667 14.2502 129.322 14.1423C128.977 14.0345 128.606 14.0075 128.208 14.0075C127.81 14.0075 127.439 14.0614 127.067 14.1423C126.723 14.2502 126.405 14.358 126.166 14.5467C125.927 14.7085 125.715 14.8972 125.582 15.1398C125.45 15.3555 125.37 15.5712 125.37 15.7869C125.37 16.0026 125.45 16.1913 125.609 16.38C125.794 16.5957 126.033 16.7575 126.298 16.9193C126.59 17.081 126.908 17.2158 127.253 17.3237C127.571 17.4315 127.916 17.5124 128.208 17.5393C128.844 17.6202 129.454 17.755 130.038 17.9977C130.622 18.2403 131.125 18.5369 131.55 18.8874C131.974 19.2648 132.319 19.6962 132.557 20.1815C132.796 20.6668 132.929 21.2329 132.929 21.7991C132.929 22.3923 132.796 22.9584 132.557 23.4707C132.319 23.9829 131.948 24.4413 131.497 24.8187C131.046 25.1962 130.542 25.4927 129.958 25.7084C129.428 25.951 128.792 26.0589 128.128 26.0589Z" fill="white"/>
<path d="M141.203 26.0587C140.965 26.0587 140.753 25.9778 140.594 25.816C140.434 25.6543 140.328 25.4386 140.328 25.1959V20.6936L134.971 13.6838C134.838 13.4951 134.758 13.2794 134.785 13.0368C134.812 12.7941 134.918 12.6054 135.103 12.4436C135.263 12.3088 135.448 12.2549 135.66 12.2549C135.952 12.2819 136.164 12.3897 136.324 12.5784L141.23 18.9681L146.216 12.5784C146.375 12.3897 146.561 12.2819 146.8 12.2549H146.826C147.091 12.2549 147.277 12.3088 147.436 12.4436C147.622 12.6054 147.728 12.7941 147.755 13.0368C147.781 13.2794 147.702 13.4951 147.569 13.6838L142.132 20.6936V25.1959C142.132 25.4386 142.052 25.6543 141.893 25.816C141.655 25.9778 141.442 26.0587 141.203 26.0587Z" fill="white"/>
<path d="M154.252 26.059C153.59 26.059 152.953 25.9512 152.37 25.7355C151.786 25.5198 151.256 25.2232 150.831 24.8188C150.38 24.4414 150.035 23.983 149.771 23.4708C149.505 22.9585 149.399 22.3924 149.399 21.7992C149.399 21.5835 149.478 21.3678 149.638 21.2061C149.797 21.0444 150.009 20.9634 150.221 20.9634C150.433 20.9634 150.646 21.0444 150.805 21.2061C150.964 21.3678 151.044 21.5835 151.044 21.7992C151.044 22.1497 151.123 22.4733 151.282 22.7698C151.441 23.0664 151.653 23.336 151.945 23.5786C152.237 23.7943 152.582 23.983 152.953 24.1178C153.351 24.2526 153.775 24.3335 154.226 24.3335C154.677 24.3335 155.101 24.2526 155.499 24.1178C155.897 23.983 156.242 23.7943 156.534 23.5517C156.825 23.336 157.064 23.0394 157.223 22.7428C157.382 22.4463 157.435 22.1228 157.409 21.7723C157.382 21.4488 157.276 21.1522 157.117 20.8826C156.932 20.586 156.719 20.3433 156.427 20.1007C156.162 19.885 155.818 19.6963 155.446 19.5345C155.075 19.3728 154.704 19.2649 154.279 19.211C153.695 19.1841 153.139 19.0492 152.582 18.8605C152.051 18.6718 151.547 18.4292 151.149 18.1326C150.725 17.836 150.38 17.4855 150.142 17.0811C149.876 16.6767 149.744 16.1914 149.744 15.7062C149.744 15.2208 149.876 14.7356 150.115 14.3042C150.354 13.8728 150.699 13.4954 151.123 13.1988C151.521 12.8753 152.025 12.6326 152.555 12.4439C153.112 12.2552 153.695 12.1743 154.306 12.1743C154.916 12.1743 155.526 12.2552 156.056 12.4439C156.613 12.6326 157.091 12.8753 157.488 13.1988C157.913 13.5223 158.231 13.8728 158.496 14.3042C158.735 14.7356 158.867 15.2208 158.867 15.7062C158.867 15.9488 158.788 16.1645 158.602 16.3262C158.443 16.488 158.231 16.5958 157.992 16.5958C157.753 16.5958 157.541 16.515 157.382 16.3262C157.223 16.1645 157.144 15.9218 157.117 15.6522C157.117 15.4365 157.037 15.2478 156.905 15.0591C156.746 14.8434 156.56 14.6816 156.295 14.5199C156.03 14.3581 155.738 14.2233 155.393 14.1155C155.048 14.0076 154.677 13.9806 154.279 13.9806C153.881 13.9806 153.51 14.0346 153.139 14.1155C152.794 14.2233 152.476 14.3312 152.237 14.5199C151.998 14.6816 151.786 14.8704 151.653 15.113C151.521 15.3287 151.441 15.5444 151.441 15.7601C151.441 15.9757 151.521 16.1645 151.68 16.3532C151.865 16.5689 152.104 16.7307 152.37 16.8924C152.661 17.0541 152.979 17.189 153.324 17.2968C153.669 17.4047 153.988 17.4855 154.279 17.5125C154.916 17.5934 155.526 17.7282 156.109 17.9708C156.693 18.2135 157.196 18.51 157.621 18.8605C158.045 19.238 158.39 19.6693 158.629 20.1546C158.867 20.6399 159 21.1791 159 21.7723C159 22.3654 158.867 22.9316 158.629 23.4438C158.39 23.9561 158.019 24.4144 157.568 24.7918C157.117 25.1693 156.613 25.4659 156.03 25.6816C155.552 25.9512 154.916 26.059 154.252 26.059Z" fill="white"/>
</svg>
