<svg width="100" height="31" viewBox="0 0 100 31" fill="none" xmlns="http://www.w3.org/2000/svg">
<path fill-rule="evenodd" clip-rule="evenodd" d="M64.8955 7.26047C65.5542 8.72628 65.9197 10.3346 65.9197 12.0215C65.9197 12.0749 65.9269 12.1267 65.9292 12.18L71.3744 7.27561V1.42554L64.8955 7.26047Z" fill="white"/>
<path fill-rule="evenodd" clip-rule="evenodd" d="M52.7023 1.42554V5.79919C56.5711 5.79919 59.7266 8.46679 59.8689 11.7904L56.9382 14.4299C57.7187 15.8082 58.2297 17.3392 58.4009 18.9623L61.0154 16.608C62.8733 20.1604 66.819 22.6182 71.3759 22.6182V18.245C67.4171 18.245 64.1958 15.4532 64.1958 12.0219C64.1958 6.17923 59.0397 1.42554 52.7023 1.42554Z" fill="white"/>
<path fill-rule="evenodd" clip-rule="evenodd" d="M56.7389 20.1809C56.7389 14.3379 51.5828 9.58447 45.2451 9.58447V13.9578C48.6088 13.9578 51.4319 15.9761 52.2075 18.6867L50.6918 20.052L47.5533 22.8783L45.2451 24.9574V30.8076L53.0938 23.7382C54.6828 27.8361 58.9347 30.7771 63.919 30.7771V26.4034C59.9598 26.4037 56.7389 23.6124 56.7389 20.1809Z" fill="white"/>
<path fill-rule="evenodd" clip-rule="evenodd" d="M0.296326 18.7238V18.8091C0.296326 25.7513 5.18909 30.4787 11.5328 30.4787C15.5548 30.4787 18.4158 28.8174 20.4889 26.2619L17.5451 23.5792C15.8036 25.3252 14.062 26.2619 11.6158 26.2619C8.38166 26.2619 5.85248 24.218 5.31347 20.5551H21.4013C21.4046 20.5134 21.408 20.4718 21.4113 20.4304C21.449 19.9674 21.4839 19.5373 21.4839 19.1069C21.4839 12.6336 17.9596 7.01196 10.9938 7.01196C4.73301 7.01196 0.296326 12.2929 0.296326 18.7238ZM10.9523 11.2282C14.2696 11.2282 16.1768 13.8263 16.5085 17.1481H5.27201C5.7281 13.6558 7.88412 11.2282 10.9523 11.2282Z" fill="white"/>
<path d="M31.5194 0.306885H25.9437V30.4784H31.5194V0.306885Z" fill="white"/>
<path d="M40.1553 9.24683H34.9693V30.4786H40.1553V9.24683Z" fill="white"/>
<path d="M82.5429 0.306885H77.3405V4.76451H82.5429V0.306885Z" fill="white"/>
<path d="M40.0678 0.306885H34.8654V4.76451H40.0678V0.306885Z" fill="white"/>
<path d="M82.5346 8.62109H77.3485V30.4143H82.5346V8.62109Z" fill="white"/>
<path fill-rule="evenodd" clip-rule="evenodd" d="M92.1679 10.738V8.12915H87.2767V30.4784H92.1679V18.4908C92.6052 15.2537 95.8547 12.7303 99.5431 12.7303V8.16102C96.74 8.16102 94.1672 9.13041 92.1679 10.738Z" fill="white"/>
</svg>
