<svg width="124" height="39" viewBox="0 0 124 39" fill="none" xmlns="http://www.w3.org/2000/svg">
<path d="M58.7687 36.9168H68.2643V22.5349C68.2643 19.6512 69.8666 18.1285 72.1174 18.1285C74.3682 18.1285 75.8177 19.639 75.8177 22.5349V36.9168H85.3133V22.5349C85.3133 19.6512 86.9624 18.1285 89.213 18.1285C91.4637 18.1285 92.9132 19.639 92.9132 22.5349V36.9168H102.409V19.5474C102.409 13.3895 98.9083 9.85889 93.1596 9.85889C89.2132 9.85889 86.4668 11.5188 84.1099 14.1615C82.6604 11.415 79.914 9.85889 76.3103 9.85889C72.5041 9.85889 70.0071 11.8667 68.2644 14.07V10.4479H58.7689V36.9168H58.7687ZM38.4186 21.5065C38.9142 18.623 40.6225 16.7096 43.1197 16.7096C45.7227 16.7096 47.4684 18.5681 47.8207 21.5065H38.4186ZM43.9207 37.5635C49.3169 37.5635 53.064 35.4061 55.667 32.1776L50.4268 27.9207C48.4815 29.7792 46.6795 30.6092 44.4289 30.6092C41.4832 30.6092 39.326 29.1445 38.584 26.2486H56.6803C56.727 25.614 56.727 24.9212 56.727 24.3445C56.727 16.56 52.425 9.85889 43.0824 9.85889C35.0832 9.85889 29.4379 15.9711 29.4379 23.7097V23.8013C29.4313 32.0251 35.426 37.5635 43.9207 37.5635ZM0.835632 36.9168H10.3312V22.5806C10.3312 19.6971 12.027 18.1285 14.3246 18.1285C16.5754 18.1285 18.1308 19.6971 18.1308 22.5806V36.9168H27.6263V19.6054C27.6263 13.5847 24.1754 9.87104 18.4239 9.87104C14.5708 9.87104 12.0738 11.9705 10.3279 14.1737V10.4479H0.835632V36.9168Z" fill="white"/>
<path d="M121.608 3.48968C121.551 7.49467 120.107 11.3149 117.619 14.3662C117.657 14.1224 117.678 13.8738 117.678 13.6225C117.678 11.8541 116.705 10.304 115.256 9.45772V9.45679C115.233 9.44463 115.211 9.43177 115.189 9.4186C113.933 8.70118 113.155 7.38296 113.155 5.95633C113.155 3.74779 114.991 1.95117 117.248 1.95117C117.632 1.95117 118.011 2.00267 118.375 2.10532C119.493 2.46198 120.575 2.92524 121.608 3.48968Z" fill="#F7F7F7"/>
<path d="M115.478 1.43091C113.62 2.12876 112.297 3.89444 112.297 5.95625C112.297 7.43996 111.469 8.73843 110.24 9.43086C109.64 9.76895 108.946 9.96224 108.205 9.96224C106.363 9.96224 104.755 8.75242 104.265 7.04267C104.005 5.886 103.862 4.69577 103.845 3.48975C106.555 2.00702 109.62 1.22412 112.727 1.22412C113.65 1.22429 114.57 1.29338 115.478 1.43091Z" fill="white"/>
<path d="M116.818 13.6219C116.818 14.6684 116.399 15.6681 115.661 16.4127C114.767 17.2122 113.785 17.9288 112.725 18.5475C109.21 16.4977 106.552 13.3633 105.098 9.72816C105.955 10.4036 107.041 10.8025 108.204 10.8025C109.081 10.8025 109.905 10.5783 110.62 10.185V10.186C110.635 10.1766 110.65 10.1684 110.667 10.16C111.289 9.80397 112 9.61597 112.725 9.61597C113.466 9.61597 114.161 9.80944 114.76 10.1477C115.989 10.8397 116.818 12.1384 116.818 13.6219Z" fill="#EBEBEB"/>
</svg>
