<svg width="159" height="33" viewBox="0 0 159 33" fill="none" xmlns="http://www.w3.org/2000/svg">
<path fill-rule="evenodd" clip-rule="evenodd" d="M23.1156 0.464355H16.5062V9.92619V16.5494H0.45459V23.1726H9.8967V32.6344H16.5062V23.1726V16.5494H32.5576V9.92619H23.1156V0.464355Z" fill="white"/>
<path d="M54.9413 12.6618H51.3791V22.3858H48.983V12.6618H45.4686V10.7139H54.9413V12.6618ZM64.3825 18.113H62.4734V22.3858H60.0777V10.7139H64.3987C65.772 10.7139 66.8315 11.0213 67.5773 11.6358C68.3231 12.2505 68.6956 13.1189 68.6956 14.2412C68.6956 15.0374 68.5223 15.7027 68.1761 16.2372C67.8353 16.7662 67.3163 17.1885 66.6186 17.5038L69.1348 22.2735V22.3858H66.5628L64.3825 18.113ZM62.4734 16.165H64.4065C65.0082 16.165 65.4738 16.0127 65.8038 15.7081C66.1344 15.3981 66.2994 14.9733 66.2994 14.4336C66.2994 13.8831 66.1422 13.4501 65.8284 13.135C65.5194 12.8196 65.0424 12.6618 64.3987 12.6618H62.4734V16.165ZM83.2521 10.7139V18.4015C83.2521 19.6788 82.8525 20.6888 82.0539 21.4317C81.2608 22.1746 80.1742 22.5459 78.7955 22.5459C77.4372 22.5459 76.359 22.1852 75.5605 21.4639C74.7619 20.7423 74.3545 19.7509 74.3383 18.4899V10.7139H76.7346V18.4176C76.7346 19.1817 76.9158 19.7404 77.2776 20.093C77.6448 20.4404 78.1511 20.614 78.7955 20.614C80.1424 20.614 80.8264 19.9033 80.848 18.4817V10.7139H83.2521ZM112.049 12.6618H108.487V22.3858H106.091V12.6618H102.577V10.7139H112.049V12.6618ZM124.405 19.9807H120.204L119.406 22.3858H116.857L121.187 10.7139H123.407L127.76 22.3858H125.212L124.405 19.9807ZM120.851 18.0328H123.758L122.297 13.6639L120.851 18.0328ZM142.556 22.3858H140.16L135.495 14.706V22.3858H133.099V10.7139H135.495L140.167 18.4095V10.7139H142.556V22.3858ZM155.14 19.9807H150.938L150.14 22.3858H147.592L151.921 10.7139H154.141L158.494 22.3858H155.947L155.14 19.9807ZM151.585 18.0328H154.493L153.031 13.6639L151.585 18.0328Z" fill="white"/>
<path d="M95.1729 19.3232C95.1729 18.8689 95.0127 18.5214 94.6929 18.2811C94.3737 18.0352 93.7983 17.7787 92.968 17.5114C92.1376 17.2388 91.4801 16.9718 90.9953 16.7099C89.6748 15.9937 89.0142 15.0292 89.0142 13.8159C89.0142 13.1854 89.19 12.6241 89.5416 12.1326C89.8979 11.6355 90.4067 11.2481 91.0673 10.9702C91.7326 10.6922 92.4778 10.5532 93.3034 10.5532C94.1343 10.5532 94.8747 10.7057 95.5238 11.0103C96.1736 11.3094 96.6764 11.7345 97.0334 12.2848L95.4843 13.8683C95.1699 13.3948 95.0127 13.2121 94.6773 12.9181C94.3419 12.6188 93.8703 12.4693 93.2632 12.4693C92.6776 12.4693 92.2228 12.5948 91.8976 12.846C91.5731 13.0919 91.4105 13.4177 91.4105 13.824C91.4105 14.2035 91.5995 14.5214 91.9774 14.7779C92.3608 15.0345 92.923 15.2748 93.6627 15.4993C95.0259 15.9109 96.0188 16.4212 96.6422 17.0306C97.265 17.6397 97.5763 18.3987 97.5763 19.3072C97.5763 20.3171 97.196 21.1108 96.4346 21.688C95.6732 22.2597 94.6479 22.5456 93.3592 22.5456C92.4646 22.5456 91.6499 22.3827 90.9149 22.0567C90.1805 21.7254 89.619 21.2737 89.2302 20.702L90.4517 18.9199C90.9953 20.025 91.8256 20.6458 93.3592 20.6458C93.9291 20.6458 94.3737 20.5309 94.6929 20.3011C95.0127 20.066 95.1729 19.7401 95.1729 19.3232Z" fill="white"/>
</svg>
