<svg width="16" height="16" viewBox="0 0 16 16" fill="none" xmlns="http://www.w3.org/2000/svg">
<path d="M11.7417 10.3276C12.529 9.25241 12.9999 7.93175 12.9999 6.50004C12.9999 2.91608 10.0839 6.10352e-05 6.49996 6.10352e-05C2.91599 6.10352e-05 0 2.91608 0 6.50004C0 10.084 2.91602 13 6.49999 13C7.93169 13 9.25248 12.529 10.3277 11.7417L14.586 16L16 14.5859C16 14.5859 11.7417 10.3276 11.7417 10.3276ZM6.49999 11C4.01854 11 2.00001 8.98148 2.00001 6.50004C2.00001 4.0186 4.01854 2.00007 6.49999 2.00007C8.98143 2.00007 11 4.0186 11 6.50004C11 8.98148 8.9814 11 6.49999 11Z" fill="#8A7FE0"/>
</svg>
