<svg width="26" height="26" viewBox="0 0 26 26" fill="none" xmlns="http://www.w3.org/2000/svg">
<path d="M13 0C5.82038 0 0 5.82038 0 13C0 20.1796 5.82038 26 13 26C20.1796 26 26 20.1796 26 13C25.992 5.82376 20.1762 0.00804039 13 0ZM13.464 3.74787L17.9833 1.94132C18.4962 2.17344 18.9924 2.44089 19.4683 2.74176L19.4801 2.74917C19.9477 3.04539 20.3946 3.37314 20.8178 3.73009L20.8542 3.76183C21.044 3.92349 21.2285 4.09085 21.4079 4.26351C21.4305 4.28573 21.4542 4.30688 21.4769 4.32952C21.665 4.51318 21.8472 4.70256 22.0234 4.89743C22.038 4.91393 22.052 4.93128 22.0666 4.94779C22.2212 5.12108 22.37 5.3005 22.5143 5.48289C22.549 5.52627 22.5837 5.56965 22.6173 5.61302C22.7739 5.81572 22.9254 6.02202 23.0684 6.23488L22.1675 10.0646L17.7349 11.5424L13.4651 8.12585L13.464 3.74787ZM3.38224 5.61556C3.41589 5.57218 3.45016 5.52881 3.48486 5.48564C3.62747 5.30474 3.77495 5.12827 3.92729 4.95604C3.9438 4.93784 3.95903 4.91922 3.97533 4.90103C4.15052 4.70573 4.33185 4.51657 4.51974 4.33333C4.54133 4.31217 4.56291 4.28996 4.58555 4.27049C4.76349 4.09889 4.94652 3.93258 5.13462 3.77178L5.17799 3.73538C5.59736 3.38097 6.04001 3.05534 6.50296 2.76038L6.51989 2.74959C6.993 2.44935 7.486 2.18232 7.99593 1.95L12.536 3.74787V8.12458L8.26592 11.5405L3.83335 10.0655L2.93241 6.23573C3.07671 6.02329 3.22651 5.81742 3.38224 5.61556ZM2.86004 19.6496C2.73267 19.4554 2.61079 19.2575 2.49463 19.0559L2.46649 19.0072C2.35096 18.8066 2.24157 18.6027 2.13853 18.3955L2.13493 18.3889C1.91784 17.9531 1.7272 17.5045 1.56427 17.0456V17.0413C1.48726 16.8247 1.41701 16.6027 1.35205 16.3795L1.32856 16.2972C1.26911 16.0875 1.21515 15.8755 1.16691 15.6611C1.16268 15.6402 1.15739 15.6203 1.15316 15.5996C1.04673 15.1155 0.970345 14.6254 0.924219 14.1318L3.56971 10.9573L7.9716 12.4245L9.24917 17.5343L7.15 20.3273L2.86004 19.6496ZM15.8856 24.7836C15.669 24.8373 15.4466 24.8837 15.2242 24.9253C15.1931 24.9315 15.1614 24.9366 15.1303 24.9423C14.9409 24.9761 14.7494 25.0051 14.5575 25.0288C14.5063 25.0354 14.4555 25.0424 14.4045 25.0485C14.2264 25.0692 14.0465 25.0849 13.8662 25.0978C13.8095 25.1016 13.7535 25.1073 13.6968 25.1109C13.4663 25.1251 13.234 25.1333 13 25.1333C12.7857 25.1333 12.5726 25.1276 12.3608 25.1164C12.3352 25.1164 12.3106 25.1122 12.285 25.1103C12.0965 25.0995 11.9088 25.0853 11.7216 25.0671L11.7 25.0631C11.2897 25.0187 10.8818 24.9535 10.4781 24.8682L7.91489 20.855L9.98105 18.0999H16.0189L18.119 20.8732L15.8856 24.7836ZM24.85 15.6C24.8456 15.6207 24.8405 15.6408 24.8361 15.6616C24.7876 15.8757 24.7336 16.0877 24.6744 16.2976L24.6511 16.3799C24.586 16.6031 24.5159 16.8243 24.4387 17.0418V17.046C24.2758 17.5049 24.0853 17.9535 23.868 18.3894L23.8644 18.3959C23.7608 18.6033 23.6516 18.8073 23.5365 19.0076L23.5083 19.0563C23.3928 19.2586 23.2711 19.456 23.1436 19.6492L18.8682 20.3233L16.7544 17.5326L18.0314 12.4241L22.4333 10.9569L25.0787 14.1314C25.0328 14.6252 24.9564 15.1157 24.85 15.6Z" fill="#00FFA3"/>
</svg>
