<svg width="1461" height="73" viewBox="0 0 1461 73" fill="none" xmlns="http://www.w3.org/2000/svg">
<rect x="10" y="20" width="1440" height="46" fill="#284899"/>
<path d="M17.5 0.99987C13.5 4.99987 4.16667 15.6665 0 20.4999H22C22.1667 12.3332 21.5 -3.00013 17.5 0.99987Z" fill="#284899"/>
<path d="M465 0.99987C461 4.99987 451.667 15.6665 447.5 20.4999H469.5C469.667 12.3332 469 -3.00013 465 0.99987Z" fill="#284899"/>
<path d="M913 0.99987C909 4.99987 899.667 15.6665 895.5 20.4999H917.5C917.667 12.3332 917 -3.00013 913 0.99987Z" fill="#284899"/>
<path d="M241 0.99987C237 4.99987 227.667 15.6665 223.5 20.4999H245.5C245.667 12.3332 245 -3.00013 241 0.99987Z" fill="#284899"/>
<path d="M689 0.99987C685 4.99987 675.667 15.6665 671.5 20.4999H693.5C693.667 12.3332 693 -3.00013 689 0.99987Z" fill="#284899"/>
<path d="M1137 0.99987C1133 4.99987 1123.67 15.6665 1119.5 20.4999H1141.5C1141.67 12.3332 1141 -3.00013 1137 0.99987Z" fill="#284899"/>
<path d="M129 0.99987C125 4.99987 115.667 15.6665 111.5 20.4999H133.5C133.667 12.3332 133 -3.00013 129 0.99987Z" fill="#284899"/>
<path d="M577 0.99987C573 4.99987 563.667 15.6665 559.5 20.4999H581.5C581.667 12.3332 581 -3.00013 577 0.99987Z" fill="#284899"/>
<path d="M1025 0.99987C1021 4.99987 1011.67 15.6665 1007.5 20.4999H1029.5C1029.67 12.3332 1029 -3.00013 1025 0.99987Z" fill="#284899"/>
<path d="M353 0.99987C349 4.99987 339.667 15.6665 335.5 20.4999H357.5C357.667 12.3332 357 -3.00013 353 0.99987Z" fill="#284899"/>
<path d="M801 0.99987C797 4.99987 787.667 15.6665 783.5 20.4999H805.5C805.667 12.3332 805 -3.00013 801 0.99987Z" fill="#284899"/>
<path d="M1249 0.99987C1245 4.99987 1235.67 15.6665 1231.5 20.4999H1253.5C1253.67 12.3332 1253 -3.00013 1249 0.99987Z" fill="#284899"/>
<path d="M73 0.99987C69 4.99987 59.6667 15.6665 55.5 20.4999H77.5C77.6667 12.3332 77 -3.00013 73 0.99987Z" fill="#284899"/>
<path d="M521 0.99987C517 4.99987 507.667 15.6665 503.5 20.4999H525.5C525.667 12.3332 525 -3.00013 521 0.99987Z" fill="#284899"/>
<path d="M969 0.99987C965 4.99987 955.667 15.6665 951.5 20.4999H973.5C973.667 12.3332 973 -3.00013 969 0.99987Z" fill="#284899"/>
<path d="M297 0.99987C293 4.99987 283.667 15.6665 279.5 20.4999H301.5C301.667 12.3332 301 -3.00013 297 0.99987Z" fill="#284899"/>
<path d="M745 0.99987C741 4.99987 731.667 15.6665 727.5 20.4999H749.5C749.667 12.3332 749 -3.00013 745 0.99987Z" fill="#284899"/>
<path d="M1193 0.99987C1189 4.99987 1179.67 15.6665 1175.5 20.4999H1197.5C1197.67 12.3332 1197 -3.00013 1193 0.99987Z" fill="#284899"/>
<path d="M185 0.99987C181 4.99987 171.667 15.6665 167.5 20.4999H189.5C189.667 12.3332 189 -3.00013 185 0.99987Z" fill="#284899"/>
<path d="M633 0.99987C629 4.99987 619.667 15.6665 615.5 20.4999H637.5C637.667 12.3332 637 -3.00013 633 0.99987Z" fill="#284899"/>
<path d="M1081 0.99987C1077 4.99987 1067.67 15.6665 1063.5 20.4999H1085.5C1085.67 12.3332 1085 -3.00013 1081 0.99987Z" fill="#284899"/>
<path d="M409 0.99987C405 4.99987 395.667 15.6665 391.5 20.4999H413.5C413.667 12.3332 413 -3.00013 409 0.99987Z" fill="#284899"/>
<path d="M857 0.99987C853 4.99987 843.667 15.6665 839.5 20.4999H861.5C861.667 12.3332 861 -3.00013 857 0.99987Z" fill="#284899"/>
<path d="M1305 0.99987C1301 4.99987 1291.67 15.6665 1287.5 20.4999H1309.5C1309.67 12.3332 1309 -3.00013 1305 0.99987Z" fill="#284899"/>
<path d="M1361 0.653679C1357 4.65368 1347.67 15.3203 1343.5 20.1537H1365.5C1365.67 11.987 1365 -3.34632 1361 0.653679Z" fill="#284899"/>
<path d="M45 0.99987C41 4.99987 31.6667 15.6665 27.5 20.4999H49.5C49.6667 12.3332 49 -3.00013 45 0.99987Z" fill="#284899"/>
<path d="M493 0.99987C489 4.99987 479.667 15.6665 475.5 20.4999H497.5C497.667 12.3332 497 -3.00013 493 0.99987Z" fill="#284899"/>
<path d="M941 0.99987C937 4.99987 927.667 15.6665 923.5 20.4999H945.5C945.667 12.3332 945 -3.00013 941 0.99987Z" fill="#284899"/>
<path d="M269 0.99987C265 4.99987 255.667 15.6665 251.5 20.4999H273.5C273.667 12.3332 273 -3.00013 269 0.99987Z" fill="#284899"/>
<path d="M717 0.99987C713 4.99987 703.667 15.6665 699.5 20.4999H721.5C721.667 12.3332 721 -3.00013 717 0.99987Z" fill="#284899"/>
<path d="M1165 0.99987C1161 4.99987 1151.67 15.6665 1147.5 20.4999H1169.5C1169.67 12.3332 1169 -3.00013 1165 0.99987Z" fill="#284899"/>
<path d="M157 0.99987C153 4.99987 143.667 15.6665 139.5 20.4999H161.5C161.667 12.3332 161 -3.00013 157 0.99987Z" fill="#284899"/>
<path d="M605 0.99987C601 4.99987 591.667 15.6665 587.5 20.4999H609.5C609.667 12.3332 609 -3.00013 605 0.99987Z" fill="#284899"/>
<path d="M1053 0.99987C1049 4.99987 1039.67 15.6665 1035.5 20.4999H1057.5C1057.67 12.3332 1057 -3.00013 1053 0.99987Z" fill="#284899"/>
<path d="M381 0.99987C377 4.99987 367.667 15.6665 363.5 20.4999H385.5C385.667 12.3332 385 -3.00013 381 0.99987Z" fill="#284899"/>
<path d="M829 0.99987C825 4.99987 815.667 15.6665 811.5 20.4999H833.5C833.667 12.3332 833 -3.00013 829 0.99987Z" fill="#284899"/>
<path d="M1277 0.99987C1273 4.99987 1263.67 15.6665 1259.5 20.4999H1281.5C1281.67 12.3332 1281 -3.00013 1277 0.99987Z" fill="#284899"/>
<path d="M101 0.99987C97 4.99987 87.6667 15.6665 83.5 20.4999H105.5C105.667 12.3332 105 -3.00013 101 0.99987Z" fill="#284899"/>
<path d="M549 0.99987C545 4.99987 535.667 15.6665 531.5 20.4999H553.5C553.667 12.3332 553 -3.00013 549 0.99987Z" fill="#284899"/>
<path d="M997 0.99987C993 4.99987 983.667 15.6665 979.5 20.4999H1001.5C1001.67 12.3332 1001 -3.00013 997 0.99987Z" fill="#284899"/>
<path d="M325 0.99987C321 4.99987 311.667 15.6665 307.5 20.4999H329.5C329.667 12.3332 329 -3.00013 325 0.99987Z" fill="#284899"/>
<path d="M773 0.99987C769 4.99987 759.667 15.6665 755.5 20.4999H777.5C777.667 12.3332 777 -3.00013 773 0.99987Z" fill="#284899"/>
<path d="M1221 0.99987C1217 4.99987 1207.67 15.6665 1203.5 20.4999H1225.5C1225.67 12.3332 1225 -3.00013 1221 0.99987Z" fill="#284899"/>
<path d="M213 0.99987C209 4.99987 199.667 15.6665 195.5 20.4999H217.5C217.667 12.3332 217 -3.00013 213 0.99987Z" fill="#284899"/>
<path d="M661 0.99987C657 4.99987 647.667 15.6665 643.5 20.4999H665.5C665.667 12.3332 665 -3.00013 661 0.99987Z" fill="#284899"/>
<path d="M1109 0.99987C1105 4.99987 1095.67 15.6665 1091.5 20.4999H1113.5C1113.67 12.3332 1113 -3.00013 1109 0.99987Z" fill="#284899"/>
<path d="M437 0.99987C433 4.99987 423.667 15.6665 419.5 20.4999H441.5C441.667 12.3332 441 -3.00013 437 0.99987Z" fill="#284899"/>
<path d="M885 0.99987C881 4.99987 871.667 15.6665 867.5 20.4999H889.5C889.667 12.3332 889 -3.00013 885 0.99987Z" fill="#284899"/>
<path d="M1333 0.99987C1329 4.99987 1319.67 15.6665 1315.5 20.4999H1337.5C1337.67 12.3332 1337 -3.00013 1333 0.99987Z" fill="#284899"/>
<path d="M1389 0.653679C1385 4.65368 1375.67 15.3203 1371.5 20.1537H1393.5C1393.67 11.987 1393 -3.34632 1389 0.653679Z" fill="#284899"/>
<path d="M1417 0.653679C1413 4.65368 1403.67 15.3203 1399.5 20.1537H1421.5C1421.67 11.987 1421 -3.34632 1417 0.653679Z" fill="#284899"/>
<path d="M1445 0.99987C1441 4.99987 1431.67 15.6665 1427.5 20.4999H1449.5C1449.67 12.3332 1449 -3.00013 1445 0.99987Z" fill="#284899"/>
<path d="M28.5 7.99987C24.5 11.9999 15.1667 22.6665 11 27.4999H33C33.1667 19.3332 32.5 3.99987 28.5 7.99987Z" fill="#2F4FA4"/>
<path d="M476 7.99987C472 11.9999 462.667 22.6665 458.5 27.4999H480.5C480.667 19.3332 480 3.99987 476 7.99987Z" fill="#2F4FA4"/>
<path d="M924 7.99987C920 11.9999 910.667 22.6665 906.5 27.4999H928.5C928.667 19.3332 928 3.99987 924 7.99987Z" fill="#2F4FA4"/>
<path d="M252 7.99987C248 11.9999 238.667 22.6665 234.5 27.4999H256.5C256.667 19.3332 256 3.99987 252 7.99987Z" fill="#2F4FA4"/>
<path d="M700 7.99987C696 11.9999 686.667 22.6665 682.5 27.4999H704.5C704.667 19.3332 704 3.99987 700 7.99987Z" fill="#2F4FA4"/>
<path d="M1148 7.99987C1144 11.9999 1134.67 22.6665 1130.5 27.4999H1152.5C1152.67 19.3332 1152 3.99987 1148 7.99987Z" fill="#2F4FA4"/>
<path d="M140 7.99987C136 11.9999 126.667 22.6665 122.5 27.4999H144.5C144.667 19.3332 144 3.99987 140 7.99987Z" fill="#2F4FA4"/>
<path d="M588 7.99987C584 11.9999 574.667 22.6665 570.5 27.4999H592.5C592.667 19.3332 592 3.99987 588 7.99987Z" fill="#2F4FA4"/>
<path d="M1036 7.99987C1032 11.9999 1022.67 22.6665 1018.5 27.4999H1040.5C1040.67 19.3332 1040 3.99987 1036 7.99987Z" fill="#2F4FA4"/>
<path d="M364 7.99987C360 11.9999 350.667 22.6665 346.5 27.4999H368.5C368.667 19.3332 368 3.99987 364 7.99987Z" fill="#2F4FA4"/>
<path d="M812 7.99987C808 11.9999 798.667 22.6665 794.5 27.4999H816.5C816.667 19.3332 816 3.99987 812 7.99987Z" fill="#2F4FA4"/>
<path d="M1260 7.99987C1256 11.9999 1246.67 22.6665 1242.5 27.4999H1264.5C1264.67 19.3332 1264 3.99987 1260 7.99987Z" fill="#2F4FA4"/>
<path d="M84 7.99987C80 11.9999 70.6667 22.6665 66.5 27.4999H88.5C88.6667 19.3332 88 3.99987 84 7.99987Z" fill="#2F4FA4"/>
<path d="M532 7.99987C528 11.9999 518.667 22.6665 514.5 27.4999H536.5C536.667 19.3332 536 3.99987 532 7.99987Z" fill="#2F4FA4"/>
<path d="M980 7.99987C976 11.9999 966.667 22.6665 962.5 27.4999H984.5C984.667 19.3332 984 3.99987 980 7.99987Z" fill="#2F4FA4"/>
<path d="M308 7.99987C304 11.9999 294.667 22.6665 290.5 27.4999H312.5C312.667 19.3332 312 3.99987 308 7.99987Z" fill="#2F4FA4"/>
<path d="M756 7.99987C752 11.9999 742.667 22.6665 738.5 27.4999H760.5C760.667 19.3332 760 3.99987 756 7.99987Z" fill="#2F4FA4"/>
<path d="M1204 7.99987C1200 11.9999 1190.67 22.6665 1186.5 27.4999H1208.5C1208.67 19.3332 1208 3.99987 1204 7.99987Z" fill="#2F4FA4"/>
<path d="M196 7.99987C192 11.9999 182.667 22.6665 178.5 27.4999H200.5C200.667 19.3332 200 3.99987 196 7.99987Z" fill="#2F4FA4"/>
<path d="M644 7.99987C640 11.9999 630.667 22.6665 626.5 27.4999H648.5C648.667 19.3332 648 3.99987 644 7.99987Z" fill="#2F4FA4"/>
<path d="M1092 7.99987C1088 11.9999 1078.67 22.6665 1074.5 27.4999H1096.5C1096.67 19.3332 1096 3.99987 1092 7.99987Z" fill="#2F4FA4"/>
<path d="M420 7.99987C416 11.9999 406.667 22.6665 402.5 27.4999H424.5C424.667 19.3332 424 3.99987 420 7.99987Z" fill="#2F4FA4"/>
<path d="M868 7.99987C864 11.9999 854.667 22.6665 850.5 27.4999H872.5C872.667 19.3332 872 3.99987 868 7.99987Z" fill="#2F4FA4"/>
<path d="M1316 7.99987C1312 11.9999 1302.67 22.6665 1298.5 27.4999H1320.5C1320.67 19.3332 1320 3.99987 1316 7.99987Z" fill="#2F4FA4"/>
<path d="M1372 7.65368C1368 11.6537 1358.67 22.3203 1354.5 27.1537H1376.5C1376.67 18.987 1376 3.65368 1372 7.65368Z" fill="#2F4FA4"/>
<path d="M56 7.99987C52 11.9999 42.6667 22.6665 38.5 27.4999H60.5C60.6667 19.3332 60 3.99987 56 7.99987Z" fill="#2F4FA4"/>
<path d="M504 7.99987C500 11.9999 490.667 22.6665 486.5 27.4999H508.5C508.667 19.3332 508 3.99987 504 7.99987Z" fill="#2F4FA4"/>
<path d="M952 7.99987C948 11.9999 938.667 22.6665 934.5 27.4999H956.5C956.667 19.3332 956 3.99987 952 7.99987Z" fill="#2F4FA4"/>
<path d="M280 7.99987C276 11.9999 266.667 22.6665 262.5 27.4999H284.5C284.667 19.3332 284 3.99987 280 7.99987Z" fill="#2F4FA4"/>
<path d="M728 7.99987C724 11.9999 714.667 22.6665 710.5 27.4999H732.5C732.667 19.3332 732 3.99987 728 7.99987Z" fill="#2F4FA4"/>
<path d="M1176 7.99987C1172 11.9999 1162.67 22.6665 1158.5 27.4999H1180.5C1180.67 19.3332 1180 3.99987 1176 7.99987Z" fill="#2F4FA4"/>
<path d="M168 7.99987C164 11.9999 154.667 22.6665 150.5 27.4999H172.5C172.667 19.3332 172 3.99987 168 7.99987Z" fill="#2F4FA4"/>
<path d="M616 7.99987C612 11.9999 602.667 22.6665 598.5 27.4999H620.5C620.667 19.3332 620 3.99987 616 7.99987Z" fill="#2F4FA4"/>
<path d="M1064 7.99987C1060 11.9999 1050.67 22.6665 1046.5 27.4999H1068.5C1068.67 19.3332 1068 3.99987 1064 7.99987Z" fill="#2F4FA4"/>
<path d="M392 7.99987C388 11.9999 378.667 22.6665 374.5 27.4999H396.5C396.667 19.3332 396 3.99987 392 7.99987Z" fill="#2F4FA4"/>
<path d="M840 7.99987C836 11.9999 826.667 22.6665 822.5 27.4999H844.5C844.667 19.3332 844 3.99987 840 7.99987Z" fill="#2F4FA4"/>
<path d="M1288 7.99987C1284 11.9999 1274.67 22.6665 1270.5 27.4999H1292.5C1292.67 19.3332 1292 3.99987 1288 7.99987Z" fill="#2F4FA4"/>
<path d="M112 7.99987C108 11.9999 98.6667 22.6665 94.5 27.4999H116.5C116.667 19.3332 116 3.99987 112 7.99987Z" fill="#2F4FA4"/>
<path d="M560 7.99987C556 11.9999 546.667 22.6665 542.5 27.4999H564.5C564.667 19.3332 564 3.99987 560 7.99987Z" fill="#2F4FA4"/>
<path d="M1008 7.99987C1004 11.9999 994.667 22.6665 990.5 27.4999H1012.5C1012.67 19.3332 1012 3.99987 1008 7.99987Z" fill="#2F4FA4"/>
<path d="M336 7.99987C332 11.9999 322.667 22.6665 318.5 27.4999H340.5C340.667 19.3332 340 3.99987 336 7.99987Z" fill="#2F4FA4"/>
<path d="M784 7.99987C780 11.9999 770.667 22.6665 766.5 27.4999H788.5C788.667 19.3332 788 3.99987 784 7.99987Z" fill="#2F4FA4"/>
<path d="M1232 7.99987C1228 11.9999 1218.67 22.6665 1214.5 27.4999H1236.5C1236.67 19.3332 1236 3.99987 1232 7.99987Z" fill="#2F4FA4"/>
<path d="M224 7.99987C220 11.9999 210.667 22.6665 206.5 27.4999H228.5C228.667 19.3332 228 3.99987 224 7.99987Z" fill="#2F4FA4"/>
<path d="M672 7.99987C668 11.9999 658.667 22.6665 654.5 27.4999H676.5C676.667 19.3332 676 3.99987 672 7.99987Z" fill="#2F4FA4"/>
<path d="M1120 7.99987C1116 11.9999 1106.67 22.6665 1102.5 27.4999H1124.5C1124.67 19.3332 1124 3.99987 1120 7.99987Z" fill="#2F4FA4"/>
<path d="M448 7.99987C444 11.9999 434.667 22.6665 430.5 27.4999H452.5C452.667 19.3332 452 3.99987 448 7.99987Z" fill="#2F4FA4"/>
<path d="M896 7.99987C892 11.9999 882.667 22.6665 878.5 27.4999H900.5C900.667 19.3332 900 3.99987 896 7.99987Z" fill="#2F4FA4"/>
<path d="M1344 7.99987C1340 11.9999 1330.67 22.6665 1326.5 27.4999H1348.5C1348.67 19.3332 1348 3.99987 1344 7.99987Z" fill="#2F4FA4"/>
<path d="M1400 7.65368C1396 11.6537 1386.67 22.3203 1382.5 27.1537H1404.5C1404.67 18.987 1404 3.65368 1400 7.65368Z" fill="#2F4FA4"/>
<path d="M1428 7.65368C1424 11.6537 1414.67 22.3203 1410.5 27.1537H1432.5C1432.67 18.987 1432 3.65368 1428 7.65368Z" fill="#2F4FA4"/>
<path d="M1456 7.99987C1452 11.9999 1442.67 22.6665 1438.5 27.4999H1460.5C1460.67 19.3332 1460 3.99987 1456 7.99987Z" fill="#2F4FA4"/>
<rect x="10.5" y="27" width="1440" height="46" fill="#2F4FA4"/>
</svg>
