<svg width="1440" height="314" viewBox="0 0 1440 314" fill="none" xmlns="http://www.w3.org/2000/svg">
<rect y="261" width="1440" height="46" fill="#284899"/>
<path d="M7.5 242C3.5 246 -5.83333 256.667 -10 261.5H12C12.1667 253.333 11.5 238 7.5 242Z" fill="#284899"/>
<path d="M455 242C451 246 441.667 256.667 437.5 261.5H459.5C459.667 253.333 459 238 455 242Z" fill="#284899"/>
<path d="M903 242C899 246 889.667 256.667 885.5 261.5H907.5C907.667 253.333 907 238 903 242Z" fill="#284899"/>
<path d="M231 242C227 246 217.667 256.667 213.5 261.5H235.5C235.667 253.333 235 238 231 242Z" fill="#284899"/>
<path d="M679 242C675 246 665.667 256.667 661.5 261.5H683.5C683.667 253.333 683 238 679 242Z" fill="#284899"/>
<path d="M1127 242C1123 246 1113.67 256.667 1109.5 261.5H1131.5C1131.67 253.333 1131 238 1127 242Z" fill="#284899"/>
<path d="M119 242C115 246 105.667 256.667 101.5 261.5H123.5C123.667 253.333 123 238 119 242Z" fill="#284899"/>
<path d="M567 242C563 246 553.667 256.667 549.5 261.5H571.5C571.667 253.333 571 238 567 242Z" fill="#284899"/>
<path d="M1015 242C1011 246 1001.67 256.667 997.5 261.5H1019.5C1019.67 253.333 1019 238 1015 242Z" fill="#284899"/>
<path d="M343 242C339 246 329.667 256.667 325.5 261.5H347.5C347.667 253.333 347 238 343 242Z" fill="#284899"/>
<path d="M791 242C787 246 777.667 256.667 773.5 261.5H795.5C795.667 253.333 795 238 791 242Z" fill="#284899"/>
<path d="M1239 242C1235 246 1225.67 256.667 1221.5 261.5H1243.5C1243.67 253.333 1243 238 1239 242Z" fill="#284899"/>
<path d="M63 242C59 246 49.6667 256.667 45.5 261.5H67.5C67.6667 253.333 67 238 63 242Z" fill="#284899"/>
<path d="M511 242C507 246 497.667 256.667 493.5 261.5H515.5C515.667 253.333 515 238 511 242Z" fill="#284899"/>
<path d="M959 242C955 246 945.667 256.667 941.5 261.5H963.5C963.667 253.333 963 238 959 242Z" fill="#284899"/>
<path d="M287 242C283 246 273.667 256.667 269.5 261.5H291.5C291.667 253.333 291 238 287 242Z" fill="#284899"/>
<path d="M735 242C731 246 721.667 256.667 717.5 261.5H739.5C739.667 253.333 739 238 735 242Z" fill="#284899"/>
<path d="M1183 242C1179 246 1169.67 256.667 1165.5 261.5H1187.5C1187.67 253.333 1187 238 1183 242Z" fill="#284899"/>
<path d="M175 242C171 246 161.667 256.667 157.5 261.5H179.5C179.667 253.333 179 238 175 242Z" fill="#284899"/>
<path d="M623 242C619 246 609.667 256.667 605.5 261.5H627.5C627.667 253.333 627 238 623 242Z" fill="#284899"/>
<path d="M1071 242C1067 246 1057.67 256.667 1053.5 261.5H1075.5C1075.67 253.333 1075 238 1071 242Z" fill="#284899"/>
<path d="M399 242C395 246 385.667 256.667 381.5 261.5H403.5C403.667 253.333 403 238 399 242Z" fill="#284899"/>
<path d="M847 242C843 246 833.667 256.667 829.5 261.5H851.5C851.667 253.333 851 238 847 242Z" fill="#284899"/>
<path d="M1295 242C1291 246 1281.67 256.667 1277.5 261.5H1299.5C1299.67 253.333 1299 238 1295 242Z" fill="#284899"/>
<path d="M1351 241.654C1347 245.654 1337.67 256.32 1333.5 261.154H1355.5C1355.67 252.987 1355 237.654 1351 241.654Z" fill="#284899"/>
<path d="M35 242C31 246 21.6667 256.667 17.5 261.5H39.5C39.6667 253.333 39 238 35 242Z" fill="#284899"/>
<path d="M483 242C479 246 469.667 256.667 465.5 261.5H487.5C487.667 253.333 487 238 483 242Z" fill="#284899"/>
<path d="M931 242C927 246 917.667 256.667 913.5 261.5H935.5C935.667 253.333 935 238 931 242Z" fill="#284899"/>
<path d="M259 242C255 246 245.667 256.667 241.5 261.5H263.5C263.667 253.333 263 238 259 242Z" fill="#284899"/>
<path d="M707 242C703 246 693.667 256.667 689.5 261.5H711.5C711.667 253.333 711 238 707 242Z" fill="#284899"/>
<path d="M1155 242C1151 246 1141.67 256.667 1137.5 261.5H1159.5C1159.67 253.333 1159 238 1155 242Z" fill="#284899"/>
<path d="M147 242C143 246 133.667 256.667 129.5 261.5H151.5C151.667 253.333 151 238 147 242Z" fill="#284899"/>
<path d="M595 242C591 246 581.667 256.667 577.5 261.5H599.5C599.667 253.333 599 238 595 242Z" fill="#284899"/>
<path d="M1043 242C1039 246 1029.67 256.667 1025.5 261.5H1047.5C1047.67 253.333 1047 238 1043 242Z" fill="#284899"/>
<path d="M371 242C367 246 357.667 256.667 353.5 261.5H375.5C375.667 253.333 375 238 371 242Z" fill="#284899"/>
<path d="M819 242C815 246 805.667 256.667 801.5 261.5H823.5C823.667 253.333 823 238 819 242Z" fill="#284899"/>
<path d="M1267 242C1263 246 1253.67 256.667 1249.5 261.5H1271.5C1271.67 253.333 1271 238 1267 242Z" fill="#284899"/>
<path d="M91 242C87 246 77.6667 256.667 73.5 261.5H95.5C95.6667 253.333 95 238 91 242Z" fill="#284899"/>
<path d="M539 242C535 246 525.667 256.667 521.5 261.5H543.5C543.667 253.333 543 238 539 242Z" fill="#284899"/>
<path d="M987 242C983 246 973.667 256.667 969.5 261.5H991.5C991.667 253.333 991 238 987 242Z" fill="#284899"/>
<path d="M315 242C311 246 301.667 256.667 297.5 261.5H319.5C319.667 253.333 319 238 315 242Z" fill="#284899"/>
<path d="M763 242C759 246 749.667 256.667 745.5 261.5H767.5C767.667 253.333 767 238 763 242Z" fill="#284899"/>
<path d="M1211 242C1207 246 1197.67 256.667 1193.5 261.5H1215.5C1215.67 253.333 1215 238 1211 242Z" fill="#284899"/>
<path d="M203 242C199 246 189.667 256.667 185.5 261.5H207.5C207.667 253.333 207 238 203 242Z" fill="#284899"/>
<path d="M651 242C647 246 637.667 256.667 633.5 261.5H655.5C655.667 253.333 655 238 651 242Z" fill="#284899"/>
<path d="M1099 242C1095 246 1085.67 256.667 1081.5 261.5H1103.5C1103.67 253.333 1103 238 1099 242Z" fill="#284899"/>
<path d="M427 242C423 246 413.667 256.667 409.5 261.5H431.5C431.667 253.333 431 238 427 242Z" fill="#284899"/>
<path d="M875 242C871 246 861.667 256.667 857.5 261.5H879.5C879.667 253.333 879 238 875 242Z" fill="#284899"/>
<path d="M1323 242C1319 246 1309.67 256.667 1305.5 261.5H1327.5C1327.67 253.333 1327 238 1323 242Z" fill="#284899"/>
<path d="M1379 241.654C1375 245.654 1365.67 256.32 1361.5 261.154H1383.5C1383.67 252.987 1383 237.654 1379 241.654Z" fill="#284899"/>
<path d="M1407 241.654C1403 245.654 1393.67 256.32 1389.5 261.154H1411.5C1411.67 252.987 1411 237.654 1407 241.654Z" fill="#284899"/>
<path d="M1435 242C1431 246 1421.67 256.667 1417.5 261.5H1439.5C1439.67 253.333 1439 238 1435 242Z" fill="#284899"/>
<rect x="1347.22" width="5.18354" height="273" fill="#5C70DC"/>
<path d="M1304.88 19.8703L1347.22 0V71.2737L1304.88 78.1851V19.8703Z" fill="url(#paint0_linear)"/>
<path d="M1304.88 84.8758V29L1247 111.505L1298.07 94.3556C1302.14 92.9879 1304.88 89.1719 1304.88 84.8758Z" fill="url(#paint1_linear)"/>
<path d="M18.5 249C14.5 253 5.16667 263.667 1 268.5H23C23.1667 260.333 22.5 245 18.5 249Z" fill="#2F4FA4"/>
<path d="M466 249C462 253 452.667 263.667 448.5 268.5H470.5C470.667 260.333 470 245 466 249Z" fill="#2F4FA4"/>
<path d="M914 249C910 253 900.667 263.667 896.5 268.5H918.5C918.667 260.333 918 245 914 249Z" fill="#2F4FA4"/>
<path d="M242 249C238 253 228.667 263.667 224.5 268.5H246.5C246.667 260.333 246 245 242 249Z" fill="#2F4FA4"/>
<path d="M690 249C686 253 676.667 263.667 672.5 268.5H694.5C694.667 260.333 694 245 690 249Z" fill="#2F4FA4"/>
<path d="M1138 249C1134 253 1124.67 263.667 1120.5 268.5H1142.5C1142.67 260.333 1142 245 1138 249Z" fill="#2F4FA4"/>
<path d="M130 249C126 253 116.667 263.667 112.5 268.5H134.5C134.667 260.333 134 245 130 249Z" fill="#2F4FA4"/>
<path d="M578 249C574 253 564.667 263.667 560.5 268.5H582.5C582.667 260.333 582 245 578 249Z" fill="#2F4FA4"/>
<path d="M1026 249C1022 253 1012.67 263.667 1008.5 268.5H1030.5C1030.67 260.333 1030 245 1026 249Z" fill="#2F4FA4"/>
<path d="M354 249C350 253 340.667 263.667 336.5 268.5H358.5C358.667 260.333 358 245 354 249Z" fill="#2F4FA4"/>
<path d="M802 249C798 253 788.667 263.667 784.5 268.5H806.5C806.667 260.333 806 245 802 249Z" fill="#2F4FA4"/>
<path d="M1250 249C1246 253 1236.67 263.667 1232.5 268.5H1254.5C1254.67 260.333 1254 245 1250 249Z" fill="#2F4FA4"/>
<path d="M74 249C70 253 60.6667 263.667 56.5 268.5H78.5C78.6667 260.333 78 245 74 249Z" fill="#2F4FA4"/>
<path d="M522 249C518 253 508.667 263.667 504.5 268.5H526.5C526.667 260.333 526 245 522 249Z" fill="#2F4FA4"/>
<path d="M970 249C966 253 956.667 263.667 952.5 268.5H974.5C974.667 260.333 974 245 970 249Z" fill="#2F4FA4"/>
<path d="M298 249C294 253 284.667 263.667 280.5 268.5H302.5C302.667 260.333 302 245 298 249Z" fill="#2F4FA4"/>
<path d="M746 249C742 253 732.667 263.667 728.5 268.5H750.5C750.667 260.333 750 245 746 249Z" fill="#2F4FA4"/>
<path d="M1194 249C1190 253 1180.67 263.667 1176.5 268.5H1198.5C1198.67 260.333 1198 245 1194 249Z" fill="#2F4FA4"/>
<path d="M186 249C182 253 172.667 263.667 168.5 268.5H190.5C190.667 260.333 190 245 186 249Z" fill="#2F4FA4"/>
<path d="M634 249C630 253 620.667 263.667 616.5 268.5H638.5C638.667 260.333 638 245 634 249Z" fill="#2F4FA4"/>
<path d="M1082 249C1078 253 1068.67 263.667 1064.5 268.5H1086.5C1086.67 260.333 1086 245 1082 249Z" fill="#2F4FA4"/>
<path d="M410 249C406 253 396.667 263.667 392.5 268.5H414.5C414.667 260.333 414 245 410 249Z" fill="#2F4FA4"/>
<path d="M858 249C854 253 844.667 263.667 840.5 268.5H862.5C862.667 260.333 862 245 858 249Z" fill="#2F4FA4"/>
<path d="M1306 249C1302 253 1292.67 263.667 1288.5 268.5H1310.5C1310.67 260.333 1310 245 1306 249Z" fill="#2F4FA4"/>
<path d="M1362 248.654C1358 252.654 1348.67 263.32 1344.5 268.154H1366.5C1366.67 259.987 1366 244.654 1362 248.654Z" fill="#2F4FA4"/>
<path d="M46 249C42 253 32.6667 263.667 28.5 268.5H50.5C50.6667 260.333 50 245 46 249Z" fill="#2F4FA4"/>
<path d="M494 249C490 253 480.667 263.667 476.5 268.5H498.5C498.667 260.333 498 245 494 249Z" fill="#2F4FA4"/>
<path d="M942 249C938 253 928.667 263.667 924.5 268.5H946.5C946.667 260.333 946 245 942 249Z" fill="#2F4FA4"/>
<path d="M270 249C266 253 256.667 263.667 252.5 268.5H274.5C274.667 260.333 274 245 270 249Z" fill="#2F4FA4"/>
<path d="M718 249C714 253 704.667 263.667 700.5 268.5H722.5C722.667 260.333 722 245 718 249Z" fill="#2F4FA4"/>
<path d="M1166 249C1162 253 1152.67 263.667 1148.5 268.5H1170.5C1170.67 260.333 1170 245 1166 249Z" fill="#2F4FA4"/>
<path d="M158 249C154 253 144.667 263.667 140.5 268.5H162.5C162.667 260.333 162 245 158 249Z" fill="#2F4FA4"/>
<path d="M606 249C602 253 592.667 263.667 588.5 268.5H610.5C610.667 260.333 610 245 606 249Z" fill="#2F4FA4"/>
<path d="M1054 249C1050 253 1040.67 263.667 1036.5 268.5H1058.5C1058.67 260.333 1058 245 1054 249Z" fill="#2F4FA4"/>
<path d="M382 249C378 253 368.667 263.667 364.5 268.5H386.5C386.667 260.333 386 245 382 249Z" fill="#2F4FA4"/>
<path d="M830 249C826 253 816.667 263.667 812.5 268.5H834.5C834.667 260.333 834 245 830 249Z" fill="#2F4FA4"/>
<path d="M1278 249C1274 253 1264.67 263.667 1260.5 268.5H1282.5C1282.67 260.333 1282 245 1278 249Z" fill="#2F4FA4"/>
<path d="M102 249C98 253 88.6667 263.667 84.5 268.5H106.5C106.667 260.333 106 245 102 249Z" fill="#2F4FA4"/>
<path d="M550 249C546 253 536.667 263.667 532.5 268.5H554.5C554.667 260.333 554 245 550 249Z" fill="#2F4FA4"/>
<path d="M998 249C994 253 984.667 263.667 980.5 268.5H1002.5C1002.67 260.333 1002 245 998 249Z" fill="#2F4FA4"/>
<path d="M326 249C322 253 312.667 263.667 308.5 268.5H330.5C330.667 260.333 330 245 326 249Z" fill="#2F4FA4"/>
<path d="M774 249C770 253 760.667 263.667 756.5 268.5H778.5C778.667 260.333 778 245 774 249Z" fill="#2F4FA4"/>
<path d="M1222 249C1218 253 1208.67 263.667 1204.5 268.5H1226.5C1226.67 260.333 1226 245 1222 249Z" fill="#2F4FA4"/>
<path d="M214 249C210 253 200.667 263.667 196.5 268.5H218.5C218.667 260.333 218 245 214 249Z" fill="#2F4FA4"/>
<path d="M662 249C658 253 648.667 263.667 644.5 268.5H666.5C666.667 260.333 666 245 662 249Z" fill="#2F4FA4"/>
<path d="M1110 249C1106 253 1096.67 263.667 1092.5 268.5H1114.5C1114.67 260.333 1114 245 1110 249Z" fill="#2F4FA4"/>
<path d="M438 249C434 253 424.667 263.667 420.5 268.5H442.5C442.667 260.333 442 245 438 249Z" fill="#2F4FA4"/>
<path d="M886 249C882 253 872.667 263.667 868.5 268.5H890.5C890.667 260.333 890 245 886 249Z" fill="#2F4FA4"/>
<path d="M1334 249C1330 253 1320.67 263.667 1316.5 268.5H1338.5C1338.67 260.333 1338 245 1334 249Z" fill="#2F4FA4"/>
<path d="M1390 248.654C1386 252.654 1376.67 263.32 1372.5 268.154H1394.5C1394.67 259.987 1394 244.654 1390 248.654Z" fill="#2F4FA4"/>
<path d="M1418 248.654C1414 252.654 1404.67 263.32 1400.5 268.154H1422.5C1422.67 259.987 1422 244.654 1418 248.654Z" fill="#2F4FA4"/>
<path d="M1446 249C1442 253 1432.67 263.667 1428.5 268.5H1450.5C1450.67 260.333 1450 245 1446 249Z" fill="#2F4FA4"/>
<rect x="0.5" y="268" width="1440" height="46" fill="#2F4FA4"/>
<defs>
<linearGradient id="paint0_linear" x1="1305" y1="51.5" x2="1347" y2="37" gradientUnits="userSpaceOnUse">
<stop stop-color="#15895F"/>
<stop offset="1" stop-color="#2ED99B"/>
</linearGradient>
<linearGradient id="paint1_linear" x1="1305" y1="63" x2="1233.5" y2="107.5" gradientUnits="userSpaceOnUse">
<stop stop-color="#58FF87"/>
<stop offset="1" stop-color="#017121"/>
</linearGradient>
</defs>
</svg>
