<svg width="266" height="266" viewBox="0 0 266 266" fill="none" xmlns="http://www.w3.org/2000/svg">
<path d="M99.072 122.772V146.028C99.072 146.292 98.976 146.52 98.784 146.712C98.592 146.904 98.364 147 98.1 147H91.044C90.78 147 90.552 146.904 90.36 146.712C90.168 146.52 90.072 146.292 90.072 146.028V131.484L86.04 134.58C85.848 134.724 85.632 134.796 85.392 134.796C85.176 134.796 84.936 134.628 84.672 134.292L81.504 130.188C81.408 130.02 81.36 129.864 81.36 129.72C81.36 129.288 81.516 128.976 81.828 128.784L90.504 122.052C90.744 121.884 91.008 121.8 91.296 121.8H98.1C98.364 121.8 98.592 121.896 98.784 122.088C98.976 122.28 99.072 122.508 99.072 122.772ZM112.375 130.728V137.964C112.375 138.66 112.543 139.224 112.879 139.656C113.215 140.088 113.707 140.304 114.355 140.304C115.003 140.304 115.495 140.088 115.831 139.656C116.167 139.224 116.335 138.66 116.335 137.964V130.728C116.335 129.168 115.675 128.388 114.355 128.388C113.035 128.388 112.375 129.168 112.375 130.728ZM125.695 131.088V137.676C125.695 140.772 124.675 143.16 122.635 144.84C120.619 146.52 117.859 147.36 114.355 147.36C110.851 147.36 108.079 146.52 106.039 144.84C104.023 143.136 103.015 140.724 103.015 137.604V131.16C103.015 128.064 104.059 125.676 106.147 123.996C108.259 122.292 110.995 121.44 114.355 121.44C117.715 121.44 120.439 122.292 122.527 123.996C124.639 125.676 125.695 128.04 125.695 131.088ZM138.672 130.728V137.964C138.672 138.66 138.84 139.224 139.176 139.656C139.512 140.088 140.004 140.304 140.652 140.304C141.3 140.304 141.792 140.088 142.128 139.656C142.464 139.224 142.632 138.66 142.632 137.964V130.728C142.632 129.168 141.972 128.388 140.652 128.388C139.332 128.388 138.672 129.168 138.672 130.728ZM151.992 131.088V137.676C151.992 140.772 150.972 143.16 148.932 144.84C146.916 146.52 144.156 147.36 140.652 147.36C137.148 147.36 134.376 146.52 132.336 144.84C130.32 143.136 129.312 140.724 129.312 137.604V131.16C129.312 128.064 130.356 125.676 132.444 123.996C134.556 122.292 137.292 121.44 140.652 121.44C144.012 121.44 146.736 122.292 148.824 123.996C150.936 125.676 151.992 128.04 151.992 131.088ZM175.157 139.008V142.356C175.157 143.076 175.457 143.436 176.057 143.436C176.681 143.436 176.993 143.076 176.993 142.356V139.008C176.993 138.288 176.681 137.928 176.057 137.928C175.457 137.928 175.157 138.288 175.157 139.008ZM181.889 139.008V142.392C181.889 143.976 181.361 145.2 180.305 146.064C179.273 146.928 177.857 147.36 176.057 147.36C174.257 147.36 172.829 146.928 171.773 146.064C170.741 145.2 170.225 143.964 170.225 142.356V139.044C170.225 137.46 170.765 136.236 171.845 135.372C172.925 134.484 174.329 134.04 176.057 134.04C177.785 134.04 179.189 134.484 180.269 135.372C181.349 136.236 181.889 137.448 181.889 139.008ZM160.181 126.408V129.756C160.181 130.476 160.481 130.836 161.081 130.836C161.705 130.836 162.017 130.476 162.017 129.756V126.408C162.017 125.688 161.705 125.328 161.081 125.328C160.481 125.328 160.181 125.688 160.181 126.408ZM166.913 126.408V129.792C166.913 131.376 166.385 132.6 165.329 133.464C164.297 134.328 162.881 134.76 161.081 134.76C159.281 134.76 157.853 134.328 156.797 133.464C155.765 132.6 155.249 131.364 155.249 129.756V126.444C155.249 124.86 155.789 123.636 156.869 122.772C157.949 121.884 159.353 121.44 161.081 121.44C162.809 121.44 164.213 121.884 165.293 122.772C166.373 123.636 166.913 124.848 166.913 126.408ZM176.345 121.8H178.649C179.225 121.8 179.513 122.04 179.513 122.52C179.513 122.664 179.465 122.796 179.369 122.916L161.945 146.316C161.609 146.772 161.177 147 160.649 147H158.345C157.769 147 157.481 146.76 157.481 146.28C157.481 146.136 157.529 146.004 157.625 145.884L175.049 122.484C175.385 122.028 175.817 121.8 176.345 121.8Z" fill="white"/>
<path d="M266 133C266 206.454 206.454 266 133 266C59.5461 266 0 206.454 0 133C0 59.5461 59.5461 0 133 0C206.454 0 266 59.5461 266 133ZM60.1678 133C60.1678 173.224 92.7759 205.832 133 205.832C173.224 205.832 205.832 173.224 205.832 133C205.832 92.7759 173.224 60.1678 133 60.1678C92.7759 60.1678 60.1678 92.7759 60.1678 133Z" fill="#1D8CCA" fill-opacity="0.13"/>
<path d="M266 133C266 206.454 206.454 266 133 266C59.5461 266 0 206.454 0 133C0 59.5461 59.5461 0 133 0C206.454 0 266 59.5461 266 133ZM58.8392 133C58.8392 173.958 92.0421 207.161 133 207.161C173.958 207.161 207.161 173.958 207.161 133C207.161 92.0421 173.958 58.8392 133 58.8392C92.0421 58.8392 58.8392 92.0421 58.8392 133Z" fill="#37FB63"/>
</svg>
