<svg width="266" height="267" viewBox="0 0 266 267" fill="none" xmlns="http://www.w3.org/2000/svg">
<path d="M102.376 139.224C102.712 139.656 103.024 139.968 103.312 140.16C103.6 140.328 104.032 140.412 104.608 140.412C105.208 140.412 105.712 140.22 106.12 139.836C106.552 139.428 106.768 138.9 106.768 138.252C106.768 137.604 106.564 137.064 106.156 136.632C105.772 136.2 105.268 135.984 104.644 135.984C104.02 135.984 103.492 136.128 103.06 136.416C102.652 136.704 102.388 136.848 102.268 136.848H95.104C94.888 136.848 94.696 136.776 94.528 136.632C94.384 136.464 94.312 136.272 94.312 136.056V135.876L95.752 123.024C95.848 122.208 96.316 121.8 97.156 121.8H113.248C113.512 121.8 113.74 121.896 113.932 122.088C114.124 122.28 114.22 122.508 114.22 122.772V127.848C114.22 128.112 114.124 128.34 113.932 128.532C113.74 128.724 113.512 128.82 113.248 128.82H102.736L102.448 131.376C103.648 130.56 105.316 130.152 107.452 130.152C109.612 130.152 111.58 130.956 113.356 132.564C115.156 134.148 116.056 136.164 116.056 138.612C116.056 141.036 115.048 143.112 113.032 144.84C111.016 146.568 108.184 147.432 104.536 147.432C100.888 147.432 98.044 146.664 96.004 145.128C93.988 143.568 92.98 141.648 92.98 139.368C92.98 139.152 93.052 138.972 93.196 138.828C93.364 138.66 93.556 138.576 93.772 138.576H101.044C101.596 138.576 102.04 138.792 102.376 139.224ZM129.195 130.728V137.964C129.195 138.66 129.363 139.224 129.699 139.656C130.035 140.088 130.527 140.304 131.175 140.304C131.823 140.304 132.315 140.088 132.651 139.656C132.987 139.224 133.155 138.66 133.155 137.964V130.728C133.155 129.168 132.495 128.388 131.175 128.388C129.855 128.388 129.195 129.168 129.195 130.728ZM142.515 131.088V137.676C142.515 140.772 141.495 143.16 139.455 144.84C137.439 146.52 134.679 147.36 131.175 147.36C127.671 147.36 124.899 146.52 122.859 144.84C120.843 143.136 119.835 140.724 119.835 137.604V131.16C119.835 128.064 120.879 125.676 122.967 123.996C125.079 122.292 127.815 121.44 131.175 121.44C134.535 121.44 137.259 122.292 139.347 123.996C141.459 125.676 142.515 128.04 142.515 131.088ZM165.68 139.008V142.356C165.68 143.076 165.98 143.436 166.58 143.436C167.204 143.436 167.516 143.076 167.516 142.356V139.008C167.516 138.288 167.204 137.928 166.58 137.928C165.98 137.928 165.68 138.288 165.68 139.008ZM172.412 139.008V142.392C172.412 143.976 171.884 145.2 170.828 146.064C169.796 146.928 168.38 147.36 166.58 147.36C164.78 147.36 163.352 146.928 162.296 146.064C161.264 145.2 160.748 143.964 160.748 142.356V139.044C160.748 137.46 161.288 136.236 162.368 135.372C163.448 134.484 164.852 134.04 166.58 134.04C168.308 134.04 169.712 134.484 170.792 135.372C171.872 136.236 172.412 137.448 172.412 139.008ZM150.704 126.408V129.756C150.704 130.476 151.004 130.836 151.604 130.836C152.228 130.836 152.54 130.476 152.54 129.756V126.408C152.54 125.688 152.228 125.328 151.604 125.328C151.004 125.328 150.704 125.688 150.704 126.408ZM157.436 126.408V129.792C157.436 131.376 156.908 132.6 155.852 133.464C154.82 134.328 153.404 134.76 151.604 134.76C149.804 134.76 148.376 134.328 147.32 133.464C146.288 132.6 145.772 131.364 145.772 129.756V126.444C145.772 124.86 146.312 123.636 147.392 122.772C148.472 121.884 149.876 121.44 151.604 121.44C153.332 121.44 154.736 121.884 155.816 122.772C156.896 123.636 157.436 124.848 157.436 126.408ZM166.868 121.8H169.172C169.748 121.8 170.036 122.04 170.036 122.52C170.036 122.664 169.988 122.796 169.892 122.916L152.468 146.316C152.132 146.772 151.7 147 151.172 147H148.868C148.292 147 148.004 146.76 148.004 146.28C148.004 146.136 148.052 146.004 148.148 145.884L165.572 122.484C165.908 122.028 166.34 121.8 166.868 121.8Z" fill="white"/>
<path d="M266 133C266 206.454 206.454 266 133 266C59.5461 266 0 206.454 0 133C0 59.5461 59.5461 0 133 0C206.454 0 266 59.5461 266 133ZM60.1678 133C60.1678 173.224 92.7759 205.832 133 205.832C173.224 205.832 205.832 173.224 205.832 133C205.832 92.7759 173.224 60.1678 133 60.1678C92.7759 60.1678 60.1678 92.7759 60.1678 133Z" fill="#1D8CCA" fill-opacity="0.13"/>
<path d="M249.324 198.48C240.857 213.756 229.463 227.214 215.794 238.087C202.126 248.96 186.449 257.034 169.66 261.848C152.871 266.662 135.298 268.122 117.944 266.145C100.59 264.168 83.7962 258.792 68.5203 250.324C53.2444 241.857 39.7858 230.463 28.9131 216.794C18.0404 203.126 9.96641 187.449 5.15219 170.66C0.33796 153.871 -1.12224 136.297 0.854947 118.944C2.83214 101.59 8.208 84.7962 16.6756 69.5203L68.1375 98.0461C63.416 106.564 60.4184 115.928 59.3159 125.605C58.2134 135.281 59.0276 145.08 61.7121 154.441C64.3965 163.803 68.8985 172.544 74.9611 180.166C81.0238 187.788 88.5283 194.141 97.0461 198.863C105.564 203.584 114.928 206.582 124.605 207.684C134.281 208.787 144.08 207.972 153.441 205.288C162.803 202.604 171.544 198.101 179.166 192.039C186.788 185.976 193.141 178.472 197.863 169.954L249.324 198.48Z" fill="#37FB63"/>
</svg>
