<svg width="65" height="70" viewBox="0 0 65 70" fill="none" xmlns="http://www.w3.org/2000/svg">
<g filter="url(#filter0_d)">
<path d="M59.713 21.2808L33.0673 5.91211L6.42171 21.2807L6.42163 49.124L17.1997 55.3405L17.1997 55.3468L21.491 57.8574L21.4916 57.816L21.6514 57.9082L22.0235 58.1264L22.0235 58.1228L33.0673 64.4926L46.5339 56.7254L49.5338 55.0119V55.0113L49.7334 54.8985V54.88L59.713 49.124V21.2808Z" fill="#F7DDC4"/>
</g>
<g filter="url(#filter1_f)">
<path d="M60.7822 20.5703L32.8911 4.48633L5.00008 20.5703L5 49.7094L16.2819 56.2153L16.2818 56.2218L20.7737 58.8493L20.7744 58.806L20.9416 58.9024L21.3311 59.1308L21.3311 59.127L32.8911 65.7933L46.9871 57.6646L50.1273 55.8714V55.8707L50.3362 55.7526V55.7333L60.7822 49.7094V20.5703Z" fill="url(#paint0_linear)"/>
</g>
<path d="M33.0673 63.6818L7.21301 48.7696V21.7534L33.0673 36.6656V63.6818Z" fill="#DB4534"/>
<path d="M30.9562 60.3758L9.20557 47.8129V25.0528L30.9562 37.6157V60.3758Z" fill="#DB4534"/>
<path d="M7.21301 21.7534V48.7696L33.0673 63.6818L7.98767 48.3823L7.21301 21.7534Z" fill="#F56C5D"/>
<path d="M33.0671 63.6818L58.9214 48.7696V21.7534L33.0671 36.6656V63.6818Z" fill="#BF1300"/>
<path d="M33.0671 63.6819L58.9214 48.7697V48.2856L33.0671 63.1978V63.6819Z" fill="#DB4534"/>
<path d="M33.0673 36.6657L7.21301 21.7535L33.0673 6.84131L58.9215 21.7535L33.0673 36.6657Z" fill="#54A8D2"/>
<path d="M51.0501 42.5892L51.0502 41.5496L51.6412 41.2084L51.6411 42.7787L51.1716 42.755C51.0967 42.7512 51.0501 42.6876 51.0501 42.5892Z" fill="#516069"/>
<path d="M53.2823 41.3L53.2823 40.2605L52.6914 40.6017L52.6913 42.172L53.1608 41.6062C53.2357 41.5159 53.2823 41.3985 53.2823 41.3Z" fill="#516069"/>
<path d="M51.5648 41.0718L52.8271 40.3429L52.8271 42.1939L52.2564 42.8583C52.2134 42.9085 52.1624 42.9378 52.1194 42.9372L51.5647 42.9291L51.5648 41.0718Z" fill="#84A0B3"/>
<path d="M52.1455 37.6665L51.0646 38.4214C50.9232 38.5201 50.8158 38.7198 50.8158 38.884L50.8157 42.258C50.8156 42.393 50.8888 42.4712 50.9987 42.4538L52.0796 42.2823C52.1407 42.2726 52.2077 42.2339 52.2689 42.1729L53.3498 41.0963C53.4597 40.9868 53.5329 40.824 53.5329 40.6891L53.533 37.3151C53.533 37.1509 53.4256 37.0752 53.2842 37.1398L52.2033 37.6331C52.1841 37.6419 52.1647 37.6531 52.1455 37.6665Z" fill="#91B0C5"/>
<path d="M54.8112 40.9123L54.8113 39.9831C54.8113 39.887 54.8787 39.7702 54.962 39.7221L55.535 39.3913C55.6182 39.3432 55.6857 39.3821 55.6857 39.4782L55.6857 40.1419C55.6857 40.213 55.6482 40.2985 55.5911 40.358L55.018 40.9544C54.919 41.0574 54.8112 41.0354 54.8112 40.9123Z" fill="#8C7A79"/>
<path d="M54.8112 40.9123L54.8113 39.9831C54.8113 39.887 54.8787 39.7702 54.962 39.7221L55.535 39.3913C55.6182 39.3432 55.6857 39.3821 55.6857 39.4782L55.6857 40.1419C55.6857 40.213 55.6482 40.2985 55.5911 40.358L55.018 40.9544C54.919 41.0574 54.8112 41.0354 54.8112 40.9123Z" fill="#516069"/>
<path d="M56.8071 39.76L56.8071 38.8309C56.8071 38.7348 56.7397 38.6958 56.6564 38.7439L56.0834 39.0748C56.0002 39.1228 55.9327 39.2397 55.9327 39.3358L55.9327 39.9994C55.9327 40.0705 55.9701 40.1128 56.0272 40.1063L56.6003 40.0409C56.6993 40.0296 56.8071 39.8832 56.8071 39.76Z" fill="#8C7A79"/>
<path d="M56.8071 39.76L56.8071 38.8309C56.8071 38.7348 56.7397 38.6958 56.6564 38.7439L56.0834 39.0748C56.0002 39.1228 55.9327 39.2397 55.9327 39.3358L55.9327 39.9994C55.9327 40.0705 55.9701 40.1128 56.0272 40.1063L56.6003 40.0409C56.6993 40.0296 56.8071 39.8832 56.8071 39.76Z" fill="#8C685C"/>
<path d="M56.8071 39.76L56.8071 38.8309C56.8071 38.7348 56.7397 38.6958 56.6564 38.7439L56.0834 39.0748C56.0002 39.1228 55.9327 39.2397 55.9327 39.3358L55.9327 39.9994C55.9327 40.0705 55.9701 40.1128 56.0272 40.1063L56.6003 40.0409C56.6993 40.0296 56.8071 39.8832 56.8071 39.76Z" fill="#516069"/>
<path d="M55.3055 35.4448C55.2101 35.5041 55.0998 35.5752 54.9906 35.6469C54.6788 35.8515 54.4409 36.2913 54.4409 36.6521L54.4408 39.856C54.4408 40.2128 54.6735 40.3778 54.9807 40.2389L55.7342 39.8981C55.7775 39.8785 55.8212 39.8533 55.8645 39.8228L56.6181 39.2935C56.9252 39.0777 57.158 38.6438 57.158 38.2871L57.1581 35.0832C57.1581 34.7224 56.9202 34.5573 56.6085 34.7128C56.4993 34.7672 56.3891 34.8233 56.2938 34.8742C55.9081 35.0799 55.6912 35.2052 55.3055 35.4448Z" fill="#91B0C5"/>
<path fill-rule="evenodd" clip-rule="evenodd" d="M55.0442 47.0859L55.0442 46.2747L54.7514 46.4437L54.7514 47.0735C54.7514 47.0845 54.7569 47.0914 54.7654 47.0912L55.0442 47.0859Z" fill="#516069"/>
<path fill-rule="evenodd" clip-rule="evenodd" d="M56.1108 46.47L56.1108 45.6587L56.4036 45.4897L56.4036 46.1195C56.4036 46.1305 56.3981 46.1437 56.3895 46.1534L56.1108 46.47Z" fill="#516069"/>
<path d="M55.0341 44.3984L56.1343 43.7632L56.1342 46.6642C56.1342 46.6908 56.1119 46.7226 56.0899 46.7274L55.5917 46.8356C55.5867 46.8367 55.5814 46.8398 55.5765 46.8444L55.0782 47.3116C55.0563 47.3321 55.0339 47.3261 55.0339 47.2995L55.0341 44.3984Z" fill="#84A0B3"/>
<path d="M55.5793 41.7277L54.5789 42.3054C54.3811 42.4196 54.2207 42.6974 54.2207 42.9258L54.2205 46.6088C54.2205 46.8199 54.3583 46.9177 54.5401 46.8354L55.5406 46.3829C55.5662 46.3713 55.5921 46.3564 55.6177 46.3384L56.6182 45.6356C56.8 45.5078 56.9378 45.251 56.9378 45.0398L56.9379 41.3569C56.9379 41.1285 56.7776 41.0359 56.5797 41.1501L55.5793 41.7277Z" fill="url(#paint1_linear)"/>
<path d="M55.5793 41.7277L54.5789 42.3054C54.3811 42.4196 54.2207 42.6974 54.2207 42.9258L54.2205 46.6088C54.2205 46.8199 54.3583 46.9177 54.5401 46.8354L55.5406 46.3829C55.5662 46.3713 55.5921 46.3564 55.6177 46.3384L56.6182 45.6356C56.8 45.5078 56.9378 45.251 56.9378 45.0398L56.9379 41.3569C56.9379 41.1285 56.7776 41.0359 56.5797 41.1501L55.5793 41.7277Z" fill="#91B0C5"/>
<path d="M51.3214 49.3558L51.3214 48.4959L52.8035 47.6401L52.8035 48.4911C52.8035 48.5695 52.7672 48.6628 52.7083 48.7358L52.1477 49.4309C52.0891 49.5036 52.017 49.545 51.9585 49.5397L51.416 49.4906C51.3574 49.4853 51.3214 49.4339 51.3214 49.3558Z" fill="#84A0B3"/>
<path fill-rule="evenodd" clip-rule="evenodd" d="M51.7522 48.2472L51.7521 49.521L51.416 49.4906C51.3574 49.4853 51.3214 49.4339 51.3214 49.3558L51.3214 48.4959L51.7522 48.2472Z" fill="#516069"/>
<path fill-rule="evenodd" clip-rule="evenodd" d="M51.7374 49.5201L51.7374 48.2562L51.752 48.2477L51.752 49.5214L51.7374 49.5201Z" fill="#B0D2DD"/>
<path fill-rule="evenodd" clip-rule="evenodd" d="M52.3728 47.8806L52.3728 49.1545L52.709 48.7358C52.7675 48.6629 52.8036 48.5699 52.8036 48.4918L52.8036 47.6319L52.3728 47.8806Z" fill="#516069"/>
<path fill-rule="evenodd" clip-rule="evenodd" d="M52.387 49.1365L52.3871 47.8723L52.3725 47.8807L52.3724 49.1547L52.387 49.1365Z" fill="#B0D2DD"/>
<path d="M52.0628 44.1806L51.3093 44.6157C50.9751 44.8087 50.7042 45.2779 50.7042 45.6638L50.7041 48.6421C50.7041 48.9573 50.8869 49.128 51.1503 49.0586L51.9039 48.8602C52.0078 48.8328 52.1175 48.7695 52.2215 48.6768L52.975 48.005C53.2385 47.7702 53.4213 47.3884 53.4213 47.0731L53.4214 44.0949C53.4214 43.709 53.1505 43.5526 52.8164 43.7455L52.0628 44.1806Z" fill="#91B0C5"/>
<path d="M48.5834 54.6557V27.6395L44.1805 30.272L43.9019 57.3296L48.5834 54.6557Z" fill="#4D6775"/>
<path d="M48.7773 54.5458V27.543L44.1631 30.2721V57.1559L48.7773 54.5458Z" fill="#8FBACE"/>
<path d="M17.5972 54.4643V27.6992L21.761 30.0232L21.8904 56.9823L17.5972 54.4643Z" fill="#4D6775"/>
<path d="M17.2101 54.2852L17.2795 27.3145L21.8036 29.9245L21.3739 56.7213L17.2101 54.2852Z" fill="#AACCE1"/>
<defs>
<filter id="filter0_d" x="2.41191" y="2.37412" width="61.3108" height="66.6" filterUnits="userSpaceOnUse" color-interpolation-filters="sRGB">
<feFlood flood-opacity="0" result="BackgroundImageFix"/>
<feColorMatrix in="SourceAlpha" type="matrix" values="0 0 0 0 0 0 0 0 0 0 0 0 0 0 0 0 0 0 127 0" result="hardAlpha"/>
<feOffset dy="0.471731"/>
<feGaussianBlur stdDeviation="2.00486"/>
<feComposite in2="hardAlpha" operator="out"/>
<feColorMatrix type="matrix" values="0 0 0 0 1 0 0 0 0 0.568627 0 0 0 0 0.0313726 0 0 0 0.4 0"/>
<feBlend mode="normal" in2="BackgroundImageFix" result="effect1_dropShadow"/>
<feBlend mode="normal" in="SourceGraphic" in2="effect1_dropShadow" result="shape"/>
</filter>
<filter id="filter1_f" x="0.990283" y="0.476611" width="63.8017" height="69.3264" filterUnits="userSpaceOnUse" color-interpolation-filters="sRGB">
<feFlood flood-opacity="0" result="BackgroundImageFix"/>
<feBlend mode="normal" in="SourceGraphic" in2="BackgroundImageFix" result="shape"/>
<feGaussianBlur stdDeviation="2.00486" result="effect1_foregroundBlur"/>
</filter>
<linearGradient id="paint0_linear" x1="2.30396" y1="10.4514" x2="59.7108" y2="10.6202" gradientUnits="userSpaceOnUse">
<stop stop-color="#00C5FF"/>
<stop offset="0.208333" stop-color="#3CE457"/>
<stop offset="0.571698" stop-color="#F15B5B"/>
<stop offset="0.8125" stop-color="#D660E9"/>
<stop offset="1" stop-color="#184ED9"/>
</linearGradient>
<linearGradient id="paint1_linear" x1="55.0087" y1="42.6469" x2="57.2622" y2="44.3068" gradientUnits="userSpaceOnUse">
<stop stop-color="#D8ECF1"/>
<stop offset="1" stop-color="#82B3BF"/>
</linearGradient>
</defs>
</svg>
