<svg width="31" height="30" viewBox="0 0 31 30" fill="none" xmlns="http://www.w3.org/2000/svg">
<path fill-rule="evenodd" clip-rule="evenodd" d="M15.6667 0.015625C23.9883 0.015625 30.7249 6.75063 30.7249 15.0703C30.7249 22.5896 25.2123 28.8299 18.0209 29.9583V19.4285H21.5174L21.5175 19.4283L22.1934 15.0706L22.1934 15.0703H17.9977V12.2505C17.9977 11.9151 18.0459 11.5816 18.1571 11.2756C18.44 10.4973 19.13 9.89701 20.4684 9.89701H22.3566V9.89674H22.3566V6.21462C22.3566 6.21462 20.655 5.88836 19 5.88836C16.6956 5.88836 14.932 6.82418 14.0149 8.57082C13.9881 8.62189 13.962 8.67365 13.9367 8.7261C13.5308 9.56542 13.3122 10.5814 13.3122 11.7614V15.0703H9.46626V15.0706H9.46606V19.4285H13.3122V29.9619C6.10956 28.8199 0.585205 22.5976 0.585205 15.0703C0.585205 6.75063 7.34506 0.015625 15.6667 0.015625Z" fill="#00FFA3"/>
</svg>
