<svg width="31" height="30" viewBox="0 0 31 30" fill="none" xmlns="http://www.w3.org/2000/svg">
<path fill-rule="evenodd" clip-rule="evenodd" d="M30.8253 14.9888C30.8253 23.2582 24.1201 29.9619 15.8487 29.9619C7.57733 29.9619 0.87207 23.2582 0.87207 14.9888C0.87207 6.71933 7.57733 0.015625 15.8487 0.015625C24.1201 0.015625 30.8253 6.71933 30.8253 14.9888ZM23.5697 12.882C24.7796 12.8411 25.7921 13.7827 25.8368 14.9885C25.8517 15.8297 25.3789 16.6038 24.6269 16.9797C24.6418 17.1992 24.6418 17.4188 24.6269 17.6384C24.6269 20.9954 20.718 23.7197 15.8971 23.7197C11.0761 23.7197 7.1672 20.9917 7.1672 17.6384C7.15231 17.4188 7.15231 17.1992 7.1672 16.9797C6.94756 16.8829 6.75026 16.7452 6.57901 16.5852C5.69672 15.7589 5.65577 14.3745 6.48222 13.4961C7.30867 12.6141 8.69353 12.5731 9.5721 13.3994C11.2995 12.2307 13.3284 11.5906 15.4131 11.5571L16.5188 6.36156V6.35412C16.5746 6.10104 16.824 5.94473 17.0735 6.00055L20.7441 6.73374C20.9786 6.32434 21.403 6.04894 21.8758 6.00055C22.6985 5.91123 23.4356 6.50671 23.525 7.32921C23.6143 8.15172 23.0187 8.88862 22.196 8.97794C21.3732 9.06726 20.6361 8.47178 20.5468 7.64928L17.3415 6.97565L16.3699 11.6464C18.4285 11.6911 20.4314 12.3275 22.1364 13.4887C22.5236 13.1202 23.0336 12.9006 23.5697 12.882ZM12.3604 14.9885C11.534 14.9885 10.8602 15.6622 10.8602 16.4884C10.8602 17.3146 11.5303 17.9808 12.3604 17.9883C13.1869 17.9883 13.8607 17.3146 13.8607 16.4884C13.8607 15.6622 13.1869 14.9885 12.3604 14.9885ZM15.8598 21.7584C17.1926 21.8142 18.4955 21.4048 19.5603 20.6046V20.6642C19.7241 20.5041 19.7278 20.2362 19.5677 20.0724C19.4076 19.9087 19.1396 19.9049 18.9758 20.065C18.0637 20.7163 16.9618 21.0364 15.8449 20.9768C14.7281 21.0289 13.6299 20.694 12.729 20.0352C12.5764 19.9124 12.3642 19.9124 12.2153 20.0352C12.044 20.1766 12.018 20.4334 12.1594 20.6046C13.2241 21.4048 14.5271 21.8142 15.8598 21.7584ZM17.7919 16.5405C17.7919 17.3667 18.4658 18.0404 19.2922 18.0404L19.281 18.0962H19.3555C20.182 18.0627 20.826 17.3667 20.7925 16.5405C20.7925 15.7143 20.1187 15.0406 19.2922 15.0406C18.4658 15.0406 17.7919 15.7143 17.7919 16.5405Z" fill="#00FFA3"/>
</svg>
