<svg width="36" height="16" viewBox="0 0 36 16" fill="none" xmlns="http://www.w3.org/2000/svg">
<path d="M8 3.87781C2.34281 3.97846 0 8.00003 0 8.00003C0 8.00003 2.34281 12.0216 8 12.1222C13.6572 12.0216 16 8.00003 16 8.00003C16 8.00003 13.6572 3.97846 8 3.87781Z" fill="#D8ECFE"/>
<path d="M15.0045 6.76721C15.0781 6.87527 15.1141 6.93702 15.1141 6.93702C15.1141 6.93702 12.7713 10.9586 7.11409 11.0593C3.53331 10.9955 1.2809 9.36118 0.109497 8.16987C0.630528 8.9353 3.04268 12.034 7.99993 12.1222C13.6572 12.0216 15.9999 8.00002 15.9999 8.00002C15.9999 8.00002 15.6838 7.45802 15.0045 6.76721Z" fill="#C4E2FF"/>
<path d="M7.99997 12.1222C10.2766 12.1222 12.1222 10.2767 12.1222 8.00003C12.1222 5.72339 10.2766 3.87781 7.99997 3.87781C5.72333 3.87781 3.87775 5.72339 3.87775 8.00003C3.87775 10.2767 5.72333 12.1222 7.99997 12.1222Z" fill="#0182FC"/>
<path d="M7.99991 10.3031C6.72997 10.3031 5.69678 9.26997 5.69678 8.00003C5.69678 6.73006 6.72994 5.6969 7.99991 5.6969C9.26985 5.6969 10.303 6.73006 10.303 8.00003C10.303 9.26997 9.26985 10.3031 7.99991 10.3031Z" fill="#465A61"/>
<path d="M9.37563 7.73863C8.76126 7.73863 8.26141 7.23879 8.26141 6.62441C8.26141 6.01001 8.76126 5.51019 9.37563 5.51019C9.99001 5.51019 10.4899 6.01004 10.4899 6.62441C10.4898 7.23879 9.99001 7.73863 9.37563 7.73863Z" fill="#D8ECFE"/>
<path d="M10.3346 4.60248C10.7915 5.26623 11.0593 6.07032 11.0593 6.93704C11.0593 9.21369 9.21367 11.0593 6.93704 11.0593C6.07029 11.0593 5.2662 10.7915 4.60248 10.3346C5.34579 11.4143 6.59014 12.1223 8.00004 12.1223C10.2767 12.1223 12.1223 10.2767 12.1223 8.00004C12.1223 6.59013 11.4143 5.34576 10.3346 4.60248Z" fill="#0172FB"/>
<path d="M22 5.17157H27.6569H33.3137L27.6569 10.8284L22 5.17157Z" fill="#8A7FE0"/>
</svg>
