<svg width="50" height="16" viewBox="0 0 50 16" fill="none" xmlns="http://www.w3.org/2000/svg">
<g clip-path="url(#clip0)">
<path d="M7.5406 2.69351C8.28439 2.69351 8.88736 2.09055 8.88736 1.34676C8.88736 0.602963 8.28439 0 7.5406 0C6.79681 0 6.19385 0.602963 6.19385 1.34676C6.19385 2.09055 6.79681 2.69351 7.5406 2.69351Z" fill="white"/>
<path d="M8.00971 3.33567C7.67414 3.26754 7.30929 3.27053 6.9797 3.34822C4.74069 3.61058 4.01367 6.2022 4.21896 8.17825C4.308 9.03256 5.65476 9.04153 5.56481 8.17825C5.49011 7.45811 5.52208 6.37133 5.90487 5.59889C5.90487 6.53776 5.90487 7.47664 5.90487 8.41521C5.90487 8.44838 5.90815 8.47946 5.90965 8.51143C5.90875 8.52667 5.90516 8.53952 5.90516 8.55506C5.90516 10.7899 5.90128 13.0238 5.80895 15.2569C5.76801 16.2495 7.3072 16.2456 7.34784 15.2569C7.42015 13.5067 7.43838 11.7557 7.44256 10.0043C7.51547 10.0091 7.58838 10.0091 7.66129 10.0049C7.66578 11.7563 7.68341 13.5073 7.75512 15.2569C7.79606 16.2456 9.33525 16.2495 9.29402 15.2569C9.20168 13.0238 9.1984 10.7899 9.1984 8.55506C9.1984 8.48573 9.18913 8.42268 9.17509 8.36202C9.173 7.39178 9.13594 6.42063 9.1473 5.45098C9.60568 6.227 9.64751 7.4106 9.56803 8.17766C9.47779 9.04033 10.8248 9.03167 10.9139 8.17766C11.124 6.16066 10.362 3.50181 8.00971 3.33567Z" fill="white"/>
</g>
<path d="M-2.74181e-06 0.656844V15.5534C-2.74181e-06 15.7058 0.123505 15.8293 0.275859 15.8293H1.65517C1.80752 15.8293 1.93103 15.7058 1.93103 15.5534V15.0017H1.10344C0.95109 15.0017 0.827583 14.8782 0.827583 14.7258C0.827583 14.5735 0.95109 14.45 1.10344 14.45H1.93103V13.8982H1.37931C1.22695 13.8982 1.10344 13.7747 1.10344 13.6224C1.10344 13.47 1.22695 13.3465 1.37931 13.3465H1.93103V12.7948H1.10344C0.95109 12.7948 0.827583 12.6713 0.827583 12.5189C0.827583 12.3666 0.95109 12.2431 1.10344 12.2431H1.93103V11.6913H1.37931C1.22695 11.6913 1.10344 11.5678 1.10344 11.4155C1.10344 11.2631 1.22695 11.1396 1.37931 11.1396H1.93103V10.5879H1.10344C0.95109 10.5879 0.827583 10.4644 0.827583 10.312C0.827583 10.1597 0.95109 10.0362 1.10344 10.0362H1.93103V9.48443H1.37931C1.22695 9.48443 1.10344 9.36092 1.10344 9.20857C1.10344 9.05622 1.22695 8.93271 1.37931 8.93271H1.93103V8.38098H1.10344C0.95109 8.38098 0.827583 8.25748 0.827583 8.10512C0.827583 7.95277 0.95109 7.82926 1.10344 7.82926H1.93103V7.27753H1.37931C1.22695 7.27753 1.10344 7.15403 1.10344 7.00167C1.10344 6.84932 1.22695 6.72581 1.37931 6.72581H1.93103V6.17409H1.10344C0.95109 6.17409 0.827583 6.05058 0.827583 5.89822C0.827583 5.74587 0.95109 5.62236 1.10344 5.62236H1.93103V5.07064H1.37931C1.22695 5.07064 1.10344 4.94713 1.10344 4.79478C1.10344 4.64242 1.22695 4.51891 1.37931 4.51891H1.93103V3.96719H1.10344C0.95109 3.96719 0.827583 3.84368 0.827583 3.69133C0.827583 3.53897 0.95109 3.41547 1.10344 3.41547H1.93103V2.86374H1.37931C1.22695 2.86374 1.10344 2.74023 1.10344 2.58788C1.10344 2.43552 1.22695 2.31202 1.37931 2.31202H1.93103V1.76029H1.10344C0.95109 1.76029 0.827583 1.63678 0.827583 1.48443C0.827583 1.33208 0.95109 1.20857 1.10344 1.20857H1.93103V0.656844C1.93103 0.504489 1.80752 0.380981 1.65517 0.380981H0.275859C0.123505 0.380981 -2.74181e-06 0.504489 -2.74181e-06 0.656844Z" fill="white"/>
<g clip-path="url(#clip1)">
<path d="M27.984 0H14.893C14.0908 0 13.4385 0.65233 13.4385 1.45456V14.5455C13.4385 15.3477 14.0908 16 14.893 16H27.984C28.7861 16 29.4385 15.3477 29.4385 14.5455V1.45456C29.4385 0.65233 28.7861 0 27.984 0ZM26.0667 4.61329L24.0099 6.6701C23.9389 6.74111 23.8458 6.77663 23.7528 6.77663C23.6597 6.77663 23.5667 6.74111 23.4956 6.6701C22.7733 5.94774 21.6999 5.71016 20.7353 5.93769L19.9513 4.21306C19.8689 4.03054 19.6537 3.94885 19.4697 4.03265C19.2868 4.11576 19.2063 4.33129 19.2893 4.51418L20.0533 6.19483C19.811 6.32162 19.5798 6.47155 19.3813 6.67006C19.2393 6.81212 19.0091 6.81212 18.8671 6.67006L16.8103 4.61325C16.6683 4.4712 16.6683 4.24108 16.8103 4.09906C18.0464 2.86258 19.6902 2.18182 21.4385 2.18182C23.1867 2.18182 24.8305 2.86258 26.0667 4.09909C26.2087 4.24112 26.2087 4.47123 26.0667 4.61329Z" fill="white"/>
</g>
<path d="M35.4385 5.17157H41.0953H46.7522L41.0953 10.8284L35.4385 5.17157Z" fill="#8A7FE0"/>
<defs>
<clipPath id="clip0">
<rect width="6.85714" height="16" fill="white" transform="translate(4.21667)"/>
</clipPath>
<clipPath id="clip1">
<rect width="16" height="16" fill="white" transform="translate(13.4385)"/>
</clipPath>
</defs>
</svg>
