<svg width="36" height="16" viewBox="0 0 36 16" fill="none" xmlns="http://www.w3.org/2000/svg">
<g filter="url(#filter0_i)">
<path d="M7.13915 1.68702C7.49783 0.984122 8.50217 0.984122 8.86085 1.68702L10.1745 4.26145C10.3149 4.53665 10.5785 4.72813 10.8836 4.77664L13.738 5.23047C14.5173 5.35438 14.8277 6.30957 14.27 6.8679L12.2275 8.91281C12.0092 9.13141 11.9085 9.44122 11.9567 9.7464L12.4071 12.6013C12.5301 13.3808 11.7176 13.9711 11.0142 13.6133L8.43824 12.3027C8.16288 12.1626 7.83712 12.1626 7.56176 12.3027L4.98576 13.6133C4.28244 13.9711 3.4699 13.3808 3.59289 12.6013L4.04332 9.7464C4.09147 9.44122 3.9908 9.13141 3.77247 8.91281L1.72998 6.8679C1.17232 6.30957 1.48268 5.35438 2.26202 5.23047L5.11639 4.77664C5.42152 4.72813 5.68506 4.53665 5.82549 4.26145L7.13915 1.68702Z" fill="#43628F"/>
</g>
<path d="M7.13915 1.68702C7.49783 0.984122 8.50217 0.984122 8.86085 1.68702L10.1745 4.26145C10.3149 4.53665 10.5785 4.72813 10.8836 4.77664L13.738 5.23047C14.5173 5.35438 14.8277 6.30957 14.27 6.8679L12.2275 8.91281C12.0092 9.13141 11.9085 9.44122 11.9567 9.7464L12.4071 12.6013C12.5301 13.3808 11.7176 13.9711 11.0142 13.6133L8.43824 12.3027C8.16288 12.1626 7.83712 12.1626 7.56176 12.3027L4.98576 13.6133C4.28244 13.9711 3.4699 13.3808 3.59289 12.6013L4.04332 9.7464C4.09147 9.44122 3.9908 9.13141 3.77247 8.91281L1.72998 6.8679C1.17232 6.30957 1.48268 5.35438 2.26202 5.23047L5.11639 4.77664C5.42152 4.72813 5.68506 4.53665 5.82549 4.26145L7.13915 1.68702Z" fill="url(#paint0_linear)"/>
<path d="M7.42628 1.12458C7.66539 0.655983 8.33496 0.655982 8.57407 1.12458L10.2492 4.40735C10.3428 4.59081 10.5185 4.71846 10.7219 4.7508L14.3616 5.3295C14.8812 5.41211 15.0881 6.0489 14.7163 6.42112L12.1119 9.02868C11.9663 9.17441 11.8992 9.38095 11.9313 9.5844L12.5057 13.2248C12.5877 13.7445 12.046 14.138 11.5771 13.8995L8.29234 12.2283C8.10876 12.1349 7.89159 12.1349 7.70801 12.2283L4.42326 13.8995C3.95437 14.138 3.41268 13.7445 3.49467 13.2248L4.06904 9.5844C4.10114 9.38095 4.03403 9.17441 3.88847 9.02868L1.28401 6.42112C0.91224 6.0489 1.11915 5.41211 1.6387 5.3295L5.27844 4.7508C5.48185 4.71846 5.65755 4.59081 5.75116 4.40735L7.42628 1.12458Z" fill="url(#paint1_linear)"/>
<path d="M7.42628 1.12458C7.66539 0.655983 8.33496 0.655982 8.57407 1.12458L10.2492 4.40735C10.3428 4.59081 10.5185 4.71846 10.7219 4.7508L14.3616 5.3295C14.8812 5.41211 15.0881 6.0489 14.7163 6.42112L12.1119 9.02868C11.9663 9.17441 11.8992 9.38095 11.9313 9.5844L12.5057 13.2248C12.5877 13.7445 12.046 14.138 11.5771 13.8995L8.29234 12.2283C8.10876 12.1349 7.89159 12.1349 7.70801 12.2283L4.42326 13.8995C3.95437 14.138 3.41268 13.7445 3.49467 13.2248L4.06904 9.5844C4.10114 9.38095 4.03403 9.17441 3.88847 9.02868L1.28401 6.42112C0.91224 6.0489 1.11915 5.41211 1.6387 5.3295L5.27844 4.7508C5.48185 4.71846 5.65755 4.59081 5.75116 4.40735L7.42628 1.12458Z" fill="url(#paint2_radial)"/>
<path fill-rule="evenodd" clip-rule="evenodd" d="M10.0579 4.50496L8.38277 1.2222C8.22336 0.909798 7.77699 0.909797 7.61758 1.2222L5.94246 4.50496C5.81764 4.74958 5.58338 4.91978 5.31216 4.9629L1.67243 5.5416C1.32605 5.59667 1.18812 6.0212 1.43597 6.26935L4.04042 8.87691C4.2345 9.07121 4.32398 9.3466 4.28118 9.61787L3.70681 13.2583C3.65215 13.6047 4.01328 13.8671 4.32587 13.7081L7.61063 12.0369C7.8554 11.9123 8.14496 11.9123 8.38973 12.0369L11.6745 13.7081C11.9871 13.8671 12.3482 13.6047 12.2935 13.2583L11.7192 9.61787C11.6764 9.3466 11.7659 9.07121 11.9599 8.87691L14.5644 6.26935C14.8122 6.0212 14.6743 5.59667 14.3279 5.5416L10.6882 4.9629C10.417 4.91978 10.1827 4.74958 10.0579 4.50496ZM8.57407 1.12458C8.33496 0.655982 7.66539 0.655983 7.42628 1.12458L5.75116 4.40735C5.65755 4.59081 5.48185 4.71846 5.27844 4.7508L1.6387 5.3295C1.11915 5.41211 0.91224 6.0489 1.28401 6.42112L3.88847 9.02868C4.03403 9.17441 4.10114 9.38095 4.06904 9.5844L3.49467 13.2248C3.41268 13.7445 3.95437 14.138 4.42326 13.8995L7.70801 12.2283C7.89159 12.1349 8.10876 12.1349 8.29234 12.2283L11.5771 13.8995C12.046 14.138 12.5877 13.7445 12.5057 13.2248L11.9313 9.5844C11.8992 9.38095 11.9663 9.17441 12.1119 9.02868L14.7163 6.42112C15.0881 6.0489 14.8812 5.41211 14.3616 5.3295L10.7219 4.7508C10.5185 4.71846 10.3428 4.59081 10.2492 4.40735L8.57407 1.12458Z" fill="url(#paint3_linear)"/>
<path d="M7.58163 4.58863C7.76772 4.267 8.23206 4.267 8.41815 4.58863L9.22399 5.98143C9.29242 6.0997 9.40772 6.18347 9.54135 6.212L11.115 6.54801C11.4784 6.6256 11.6219 7.06721 11.3735 7.34358L10.2979 8.54038C10.2065 8.64201 10.1625 8.77755 10.1767 8.91346L10.3434 10.5139C10.3819 10.8835 10.0062 11.1564 9.66663 11.0056L8.19603 10.3525C8.07115 10.297 7.92863 10.297 7.80375 10.3525L6.33315 11.0056C5.99354 11.1564 5.61789 10.8835 5.65639 10.5139L5.82311 8.91346C5.83727 8.77755 5.79323 8.64201 5.70189 8.54038L4.62628 7.34358C4.3779 7.06721 4.52138 6.6256 4.88478 6.54801L6.45843 6.212C6.59206 6.18347 6.70736 6.0997 6.77579 5.98143L7.58163 4.58863Z" fill="url(#paint4_linear)"/>
<path d="M12.0899 6.87161C8.20315 10.5445 4.73188 8.91994 3.48208 7.64856C1.58098 4.82331 5.75284 7.08351 9.44943 6.09466C12.4067 5.30359 12.4419 6.28301 12.0899 6.87161Z" fill="url(#paint5_linear)"/>
<path fill-rule="evenodd" clip-rule="evenodd" d="M7.55958 1.85584C7.63896 1.896 7.67075 1.99291 7.63059 2.07229L7.17517 2.9724C7.13501 3.05178 7.0381 3.08357 6.95873 3.04341C6.87935 3.00324 6.84756 2.90634 6.88772 2.82696L7.34314 1.92685C7.3833 1.84747 7.4802 1.81568 7.55958 1.85584Z" fill="#93D6F6"/>
<circle cx="1.98651" cy="5.74494" r="0.161074" fill="#93D6F6"/>
<circle cx="6.81879" cy="3.27503" r="0.161074" fill="#93D6F6"/>
<path d="M6.46163 4.93799C5.23984 6.66865 5.67647 7.61092 6.04751 7.86571C7.1744 8.37434 9.2277 5.37324 9.36664 4.57907C9.50559 3.78489 7.98887 2.77466 6.46163 4.93799Z" fill="url(#paint6_linear)" fill-opacity="0.6"/>
<path d="M22 5.17157H27.6569H33.3137L27.6569 10.8284L22 5.17157Z" fill="#8A7FE0"/>
<defs>
<filter id="filter0_i" x="1.44635" y="-0.450887" width="13.1073" height="14.1713" filterUnits="userSpaceOnUse" color-interpolation-filters="sRGB">
<feFlood flood-opacity="0" result="BackgroundImageFix"/>
<feBlend mode="normal" in="SourceGraphic" in2="BackgroundImageFix" result="shape"/>
<feColorMatrix in="SourceAlpha" type="matrix" values="0 0 0 0 0 0 0 0 0 0 0 0 0 0 0 0 0 0 127 0" result="hardAlpha"/>
<feOffset dy="-1.61074"/>
<feGaussianBlur stdDeviation="2.01342"/>
<feComposite in2="hardAlpha" operator="arithmetic" k2="-1" k3="1"/>
<feColorMatrix type="matrix" values="0 0 0 0 0.595833 0 0 0 0 0.83025 0 0 0 0 1 0 0 0 1 0"/>
<feBlend mode="normal" in2="shape" result="effect1_innerShadow"/>
</filter>
<linearGradient id="paint0_linear" x1="8" y1="-1.44009e-08" x2="11.5973" y2="13.906" gradientUnits="userSpaceOnUse">
<stop stop-color="#708FBE" stop-opacity="0"/>
<stop offset="1" stop-color="#72DDFF" stop-opacity="0.63"/>
</linearGradient>
<linearGradient id="paint1_linear" x1="8.00016" y1="-9.5478e-05" x2="11.5975" y2="13.9059" gradientUnits="userSpaceOnUse">
<stop stop-color="#708FBE" stop-opacity="0"/>
<stop offset="1" stop-color="#72DDFF" stop-opacity="0.63"/>
</linearGradient>
<radialGradient id="paint2_radial" cx="0" cy="0" r="1" gradientUnits="userSpaceOnUse" gradientTransform="translate(6.12097 5.95964) rotate(52.6712) scale(9.38554)">
<stop offset="0.738765" stop-color="#9CB6DD" stop-opacity="0"/>
<stop offset="0.89825" stop-color="#C6F1FF" stop-opacity="0.37"/>
<stop offset="1" stop-color="#EFFBFF" stop-opacity="0.7"/>
</radialGradient>
<linearGradient id="paint3_linear" x1="12.5102" y1="10.7382" x2="5.10083" y2="4.02675" gradientUnits="userSpaceOnUse">
<stop stop-color="#D8F6FF" stop-opacity="0.63"/>
<stop offset="0.218803" stop-color="#A0D2FF" stop-opacity="0"/>
<stop offset="0.491108" stop-color="#8DC8FF" stop-opacity="0.56"/>
<stop offset="0.733041" stop-color="#9ADBF8"/>
<stop offset="1" stop-color="white" stop-opacity="0"/>
<stop offset="1" stop-color="#BAEAFF" stop-opacity="0"/>
</linearGradient>
<linearGradient id="paint4_linear" x1="7.99989" y1="3.86572" x2="7.89251" y2="11.0067" gradientUnits="userSpaceOnUse">
<stop stop-color="#9BE1FF"/>
<stop offset="0.277442" stop-color="#9BE1FF" stop-opacity="0.51"/>
<stop offset="1" stop-color="#CDDEE6" stop-opacity="0.15"/>
</linearGradient>
<linearGradient id="paint5_linear" x1="7.65397" y1="6.58906" x2="7.60077" y2="9.12689" gradientUnits="userSpaceOnUse">
<stop stop-color="#C4C4C4" stop-opacity="0"/>
<stop offset="0.731853" stop-color="#DBF6FF" stop-opacity="0.46"/>
</linearGradient>
<linearGradient id="paint6_linear" x1="6.94215" y1="5.16949" x2="8.36825" y2="6.51546" gradientUnits="userSpaceOnUse">
<stop offset="0.223958" stop-color="#DBF6FF" stop-opacity="0.35"/>
<stop offset="1" stop-color="#C4C4C4" stop-opacity="0"/>
</linearGradient>
</defs>
</svg>
