<svg width="38" height="16" viewBox="0 0 38 16" fill="none" xmlns="http://www.w3.org/2000/svg">
<g filter="url(#filter0_i)">
<path d="M8.56958 0.843511C8.74891 0.492061 9.25109 0.492061 9.43042 0.843511L10.0873 2.13073C10.1575 2.26833 10.2892 2.36406 10.4418 2.38832L11.869 2.61523C12.2587 2.67719 12.4138 3.15478 12.135 3.43395L11.1138 4.45641C11.0046 4.5657 10.9543 4.72061 10.9783 4.8732L11.2036 6.30066C11.265 6.6904 10.8588 6.98557 10.5071 6.80665L9.21912 6.15135C9.08144 6.0813 8.91856 6.0813 8.78088 6.15135L7.49288 6.80665C7.14122 6.98557 6.73495 6.6904 6.79644 6.30066L7.02166 4.8732C7.04573 4.72061 6.9954 4.5657 6.88623 4.45641L5.86499 3.43395C5.58616 3.15478 5.74134 2.67719 6.13101 2.61523L7.5582 2.38832C7.71076 2.36406 7.84253 2.26833 7.91274 2.13073L8.56958 0.843511Z" fill="#43628F"/>
</g>
<path d="M8.56958 0.843511C8.74891 0.492061 9.25109 0.492061 9.43042 0.843511L10.0873 2.13073C10.1575 2.26833 10.2892 2.36406 10.4418 2.38832L11.869 2.61523C12.2587 2.67719 12.4138 3.15478 12.135 3.43395L11.1138 4.45641C11.0046 4.5657 10.9543 4.72061 10.9783 4.8732L11.2036 6.30066C11.265 6.6904 10.8588 6.98557 10.5071 6.80665L9.21912 6.15135C9.08144 6.0813 8.91856 6.0813 8.78088 6.15135L7.49288 6.80665C7.14122 6.98557 6.73495 6.6904 6.79644 6.30066L7.02166 4.8732C7.04573 4.72061 6.9954 4.5657 6.88623 4.45641L5.86499 3.43395C5.58616 3.15478 5.74134 2.67719 6.13101 2.61523L7.5582 2.38832C7.71076 2.36406 7.84253 2.26833 7.91274 2.13073L8.56958 0.843511Z" fill="url(#paint0_linear)"/>
<path d="M8.71317 0.562322C8.83273 0.328022 9.16751 0.328021 9.28707 0.562321L10.1246 2.2037C10.1714 2.29544 10.2593 2.35926 10.361 2.37543L12.1809 2.66478C12.4406 2.70608 12.5441 3.02448 12.3582 3.21059L11.056 4.51437C10.9832 4.58723 10.9496 4.6905 10.9657 4.79223L11.2529 6.61244C11.2939 6.87227 11.023 7.06905 10.7886 6.94977L9.1462 6.11417C9.05441 6.06747 8.94583 6.06747 8.85404 6.11417L7.21166 6.94977C6.97722 7.06905 6.70637 6.87227 6.74737 6.61244L7.03455 4.79223C7.0506 4.6905 7.01704 4.58723 6.94427 4.51437L5.64204 3.21059C5.45615 3.02448 5.5596 2.70608 5.81938 2.66478L7.63925 2.37543C7.74096 2.35926 7.8288 2.29544 7.87561 2.2037L8.71317 0.562322Z" fill="url(#paint1_linear)"/>
<path d="M8.71317 0.562322C8.83273 0.328022 9.16751 0.328021 9.28707 0.562321L10.1246 2.2037C10.1714 2.29544 10.2593 2.35926 10.361 2.37543L12.1809 2.66478C12.4406 2.70608 12.5441 3.02448 12.3582 3.21059L11.056 4.51437C10.9832 4.58723 10.9496 4.6905 10.9657 4.79223L11.2529 6.61244C11.2939 6.87227 11.023 7.06905 10.7886 6.94977L9.1462 6.11417C9.05441 6.06747 8.94583 6.06747 8.85404 6.11417L7.21166 6.94977C6.97722 7.06905 6.70637 6.87227 6.74737 6.61244L7.03455 4.79223C7.0506 4.6905 7.01704 4.58723 6.94427 4.51437L5.64204 3.21059C5.45615 3.02448 5.5596 2.70608 5.81938 2.66478L7.63925 2.37543C7.74096 2.35926 7.8288 2.29544 7.87561 2.2037L8.71317 0.562322Z" fill="url(#paint2_radial)"/>
<path fill-rule="evenodd" clip-rule="evenodd" d="M10.029 2.25251L9.19142 0.611129C9.11171 0.454929 8.88852 0.454929 8.80882 0.611129L7.97126 2.25251C7.90885 2.37482 7.79172 2.45992 7.65611 2.48148L5.83624 2.77083C5.66306 2.79837 5.59409 3.01063 5.71801 3.1347L7.02024 4.43848C7.11728 4.53564 7.16202 4.67333 7.14062 4.80897L6.85344 6.62918C6.82611 6.80239 7.00667 6.93358 7.16297 6.85406L8.80534 6.01846C8.92773 5.95619 9.07251 5.95619 9.19489 6.01846L10.8373 6.85406C10.9936 6.93358 11.1741 6.80239 11.1468 6.62918L10.8596 4.80897C10.8382 4.67333 10.883 4.53564 10.98 4.43848L12.2822 3.1347C12.4061 3.01063 12.3372 2.79837 12.164 2.77083L10.3441 2.48148C10.2085 2.45992 10.0914 2.37482 10.029 2.25251ZM9.28707 0.562321C9.16751 0.328021 8.83273 0.328022 8.71317 0.562322L7.87561 2.2037C7.8288 2.29544 7.74096 2.35926 7.63925 2.37543L5.81938 2.66478C5.5596 2.70608 5.45615 3.02448 5.64204 3.21059L6.94427 4.51437C7.01704 4.58723 7.0506 4.6905 7.03455 4.79223L6.74737 6.61244C6.70637 6.87227 6.97722 7.06905 7.21166 6.94977L8.85404 6.11417C8.94583 6.06747 9.05441 6.06747 9.1462 6.11417L10.7886 6.94977C11.023 7.06905 11.2939 6.87227 11.2529 6.61244L10.9657 4.79223C10.9496 4.6905 10.9832 4.58723 11.056 4.51437L12.3582 3.21059C12.5441 3.02448 12.4406 2.70608 12.1809 2.66478L10.361 2.37543C10.2593 2.35926 10.1714 2.29544 10.1246 2.2037L9.28707 0.562321Z" fill="url(#paint3_linear)"/>
<path d="M8.79085 2.29432C8.88389 2.1335 9.11606 2.1335 9.20911 2.29432L9.61203 2.99071C9.64624 3.04985 9.70389 3.09174 9.7707 3.106L10.5575 3.274C10.7392 3.3128 10.811 3.53361 10.6868 3.67179L10.149 4.27019C10.1033 4.32101 10.0813 4.38878 10.0884 4.45673L10.1717 5.25696C10.191 5.44175 10.0031 5.57822 9.83335 5.50281L9.09804 5.17624C9.03561 5.14851 8.96434 5.14851 8.90191 5.17624L8.1666 5.50281C7.9968 5.57822 7.80897 5.44175 7.82822 5.25696L7.91159 4.45673C7.91867 4.38878 7.89665 4.32101 7.85098 4.27019L7.31317 3.67179C7.18898 3.53361 7.26072 3.3128 7.44242 3.274L8.22925 3.106C8.29606 3.09174 8.35371 3.04985 8.38792 2.99072L8.79085 2.29432Z" fill="url(#paint4_linear)"/>
<path d="M11.045 3.43584C9.10161 5.27227 7.36597 4.46 6.74107 3.82431C5.79052 2.41169 7.87645 3.54178 9.72475 3.04736C11.2034 2.65182 11.221 3.14154 11.045 3.43584Z" fill="url(#paint5_linear)"/>
<path fill-rule="evenodd" clip-rule="evenodd" d="M8.77982 0.927921C8.81951 0.948002 8.8354 0.996454 8.81532 1.03614L8.58762 1.4862C8.56753 1.52589 8.51908 1.54178 8.47939 1.5217C8.43971 1.50162 8.42381 1.45317 8.44389 1.41348L8.6716 0.963424C8.69168 0.923736 8.74013 0.90784 8.77982 0.927921Z" fill="#93D6F6"/>
<circle cx="5.99326" cy="2.87247" r="0.0805369" fill="#93D6F6"/>
<circle cx="8.40939" cy="1.63754" r="0.0805369" fill="#93D6F6"/>
<path d="M8.23078 2.46899C7.61989 3.33433 7.8382 3.80546 8.02373 3.93286C8.58717 4.18717 9.61382 2.68662 9.68329 2.28953C9.75276 1.89244 8.9944 1.38733 8.23078 2.46899Z" fill="url(#paint6_linear)" fill-opacity="0.6"/>
<g filter="url(#filter1_i)">
<path d="M3.56958 8.84351C3.74891 8.49206 4.25109 8.49206 4.43042 8.84351L5.08726 10.1307C5.15747 10.2683 5.28924 10.3641 5.4418 10.3883L6.86899 10.6152C7.25866 10.6772 7.41384 11.1548 7.13501 11.4339L6.11377 12.4564C6.0046 12.5657 5.95427 12.7206 5.97834 12.8732L6.20356 14.3007C6.26505 14.6904 5.85878 14.9856 5.50712 14.8066L4.21912 14.1513C4.08144 14.0813 3.91856 14.0813 3.78088 14.1513L2.49288 14.8066C2.14122 14.9856 1.73495 14.6904 1.79644 14.3007L2.02166 12.8732C2.04573 12.7206 1.9954 12.5657 1.88623 12.4564L0.864992 11.4339C0.586162 11.1548 0.741342 10.6772 1.13101 10.6152L2.5582 10.3883C2.71076 10.3641 2.84253 10.2683 2.91274 10.1307L3.56958 8.84351Z" fill="#43628F"/>
</g>
<path d="M3.56958 8.84351C3.74891 8.49206 4.25109 8.49206 4.43042 8.84351L5.08726 10.1307C5.15747 10.2683 5.28924 10.3641 5.4418 10.3883L6.86899 10.6152C7.25866 10.6772 7.41384 11.1548 7.13501 11.4339L6.11377 12.4564C6.0046 12.5657 5.95427 12.7206 5.97834 12.8732L6.20356 14.3007C6.26505 14.6904 5.85878 14.9856 5.50712 14.8066L4.21912 14.1513C4.08144 14.0813 3.91856 14.0813 3.78088 14.1513L2.49288 14.8066C2.14122 14.9856 1.73495 14.6904 1.79644 14.3007L2.02166 12.8732C2.04573 12.7206 1.9954 12.5657 1.88623 12.4564L0.864992 11.4339C0.586162 11.1548 0.741342 10.6772 1.13101 10.6152L2.5582 10.3883C2.71076 10.3641 2.84253 10.2683 2.91274 10.1307L3.56958 8.84351Z" fill="url(#paint7_linear)"/>
<path d="M3.71317 8.56232C3.83273 8.32802 4.16751 8.32802 4.28707 8.56232L5.12462 10.2037C5.17143 10.2954 5.25928 10.3593 5.36099 10.3754L7.18085 10.6648C7.44063 10.7061 7.54409 11.0245 7.3582 11.2106L6.05597 12.5144C5.98319 12.5872 5.94964 12.6905 5.96569 12.7922L6.25287 14.6124C6.29386 14.8723 6.02302 15.069 5.78858 14.9498L4.1462 14.1142C4.05441 14.0675 3.94583 14.0675 3.85404 14.1142L2.21166 14.9498C1.97722 15.069 1.70637 14.8723 1.74737 14.6124L2.03455 12.7922C2.0506 12.6905 2.01704 12.5872 1.94427 12.5144L0.642037 11.2106C0.45615 11.0245 0.559604 10.7061 0.819382 10.6648L2.63925 10.3754C2.74096 10.3593 2.8288 10.2954 2.87561 10.2037L3.71317 8.56232Z" fill="url(#paint8_linear)"/>
<path d="M3.71317 8.56232C3.83273 8.32802 4.16751 8.32802 4.28707 8.56232L5.12462 10.2037C5.17143 10.2954 5.25928 10.3593 5.36099 10.3754L7.18085 10.6648C7.44063 10.7061 7.54409 11.0245 7.3582 11.2106L6.05597 12.5144C5.98319 12.5872 5.94964 12.6905 5.96569 12.7922L6.25287 14.6124C6.29386 14.8723 6.02302 15.069 5.78858 14.9498L4.1462 14.1142C4.05441 14.0675 3.94583 14.0675 3.85404 14.1142L2.21166 14.9498C1.97722 15.069 1.70637 14.8723 1.74737 14.6124L2.03455 12.7922C2.0506 12.6905 2.01704 12.5872 1.94427 12.5144L0.642037 11.2106C0.45615 11.0245 0.559604 10.7061 0.819382 10.6648L2.63925 10.3754C2.74096 10.3593 2.8288 10.2954 2.87561 10.2037L3.71317 8.56232Z" fill="url(#paint9_radial)"/>
<path fill-rule="evenodd" clip-rule="evenodd" d="M5.02897 10.2525L4.19142 8.61113C4.11171 8.45493 3.88852 8.45493 3.80882 8.61113L2.97126 10.2525C2.90885 10.3748 2.79172 10.4599 2.65611 10.4815L0.836243 10.7708C0.663058 10.7984 0.594089 11.0106 0.718014 11.1347L2.02024 12.4385C2.11728 12.5356 2.16202 12.6733 2.14062 12.809L1.85344 14.6292C1.82611 14.8024 2.00667 14.9336 2.16297 14.8541L3.80534 14.0185C3.92773 13.9562 4.07251 13.9562 4.19489 14.0185L5.83727 14.8541C5.99357 14.9336 6.17413 14.8024 6.1468 14.6292L5.85962 12.809C5.83822 12.6733 5.88296 12.5356 5.97999 12.4385L7.28222 11.1347C7.40615 11.0106 7.33718 10.7984 7.16399 10.7708L5.34413 10.4815C5.20852 10.4599 5.09139 10.3748 5.02897 10.2525ZM4.28707 8.56232C4.16751 8.32802 3.83273 8.32802 3.71317 8.56232L2.87561 10.2037C2.8288 10.2954 2.74096 10.3593 2.63925 10.3754L0.819382 10.6648C0.559604 10.7061 0.45615 11.0245 0.642037 11.2106L1.94427 12.5144C2.01704 12.5872 2.0506 12.6905 2.03455 12.7922L1.74737 14.6124C1.70637 14.8723 1.97722 15.069 2.21166 14.9498L3.85404 14.1142C3.94583 14.0675 4.05441 14.0675 4.1462 14.1142L5.78858 14.9498C6.02302 15.069 6.29386 14.8723 6.25287 14.6124L5.96569 12.7922C5.94964 12.6905 5.98319 12.5872 6.05597 12.5144L7.3582 11.2106C7.54409 11.0245 7.44063 10.7061 7.18085 10.6648L5.36099 10.3754C5.25928 10.3593 5.17143 10.2954 5.12462 10.2037L4.28707 8.56232Z" fill="url(#paint10_linear)"/>
<path d="M3.79085 10.2943C3.88389 10.1335 4.11606 10.1335 4.20911 10.2943L4.61203 10.9907C4.64624 11.0499 4.70389 11.0917 4.7707 11.106L5.55753 11.274C5.73923 11.3128 5.81097 11.5336 5.68678 11.6718L5.14897 12.2702C5.1033 12.321 5.08128 12.3888 5.08836 12.4567L5.17173 13.257C5.19098 13.4418 5.00315 13.5782 4.83335 13.5028L4.09804 13.1762C4.03561 13.1485 3.96434 13.1485 3.90191 13.1762L3.1666 13.5028C2.9968 13.5782 2.80897 13.4418 2.82822 13.257L2.91159 12.4567C2.91867 12.3888 2.89665 12.321 2.85098 12.2702L2.31317 11.6718C2.18898 11.5336 2.26072 11.3128 2.44242 11.274L3.22925 11.106C3.29606 11.0917 3.35371 11.0499 3.38792 10.9907L3.79085 10.2943Z" fill="url(#paint11_linear)"/>
<path d="M6.04496 11.4358C4.10161 13.2723 2.36597 12.46 1.74107 11.8243C0.79052 10.4117 2.87645 11.5418 4.72475 11.0474C6.20338 10.6518 6.22098 11.1415 6.04496 11.4358Z" fill="url(#paint12_linear)"/>
<path fill-rule="evenodd" clip-rule="evenodd" d="M3.77982 8.92792C3.81951 8.948 3.8354 8.99645 3.81532 9.03614L3.58762 9.4862C3.56753 9.52589 3.51908 9.54178 3.47939 9.5217C3.43971 9.50162 3.42381 9.45317 3.44389 9.41348L3.6716 8.96342C3.69168 8.92374 3.74013 8.90784 3.77982 8.92792Z" fill="#93D6F6"/>
<circle cx="0.993257" cy="10.8725" r="0.0805369" fill="#93D6F6"/>
<circle cx="3.40939" cy="9.63754" r="0.0805369" fill="#93D6F6"/>
<path d="M3.23078 10.469C2.61989 11.3343 2.8382 11.8055 3.02373 11.9329C3.58717 12.1872 4.61382 10.6866 4.68329 10.2895C4.75276 9.89244 3.9944 9.38733 3.23078 10.469Z" fill="url(#paint13_linear)" fill-opacity="0.6"/>
<g filter="url(#filter2_i)">
<path d="M13.5696 8.84351C13.7489 8.49206 14.2511 8.49206 14.4304 8.84351L15.0873 10.1307C15.1575 10.2683 15.2892 10.3641 15.4418 10.3883L16.869 10.6152C17.2587 10.6772 17.4138 11.1548 17.135 11.4339L16.1138 12.4564C16.0046 12.5657 15.9543 12.7206 15.9783 12.8732L16.2036 14.3007C16.265 14.6904 15.8588 14.9856 15.5071 14.8066L14.2191 14.1513C14.0814 14.0813 13.9186 14.0813 13.7809 14.1513L12.4929 14.8066C12.1412 14.9856 11.735 14.6904 11.7964 14.3007L12.0217 12.8732C12.0457 12.7206 11.9954 12.5657 11.8862 12.4564L10.865 11.4339C10.5862 11.1548 10.7413 10.6772 11.131 10.6152L12.5582 10.3883C12.7108 10.3641 12.8425 10.2683 12.9127 10.1307L13.5696 8.84351Z" fill="#43628F"/>
</g>
<path d="M13.5696 8.84351C13.7489 8.49206 14.2511 8.49206 14.4304 8.84351L15.0873 10.1307C15.1575 10.2683 15.2892 10.3641 15.4418 10.3883L16.869 10.6152C17.2587 10.6772 17.4138 11.1548 17.135 11.4339L16.1138 12.4564C16.0046 12.5657 15.9543 12.7206 15.9783 12.8732L16.2036 14.3007C16.265 14.6904 15.8588 14.9856 15.5071 14.8066L14.2191 14.1513C14.0814 14.0813 13.9186 14.0813 13.7809 14.1513L12.4929 14.8066C12.1412 14.9856 11.735 14.6904 11.7964 14.3007L12.0217 12.8732C12.0457 12.7206 11.9954 12.5657 11.8862 12.4564L10.865 11.4339C10.5862 11.1548 10.7413 10.6772 11.131 10.6152L12.5582 10.3883C12.7108 10.3641 12.8425 10.2683 12.9127 10.1307L13.5696 8.84351Z" fill="url(#paint14_linear)"/>
<path d="M13.7132 8.56232C13.8327 8.32802 14.1675 8.32802 14.2871 8.56232L15.1246 10.2037C15.1714 10.2954 15.2593 10.3593 15.361 10.3754L17.1809 10.6648C17.4406 10.7061 17.5441 11.0245 17.3582 11.2106L16.056 12.5144C15.9832 12.5872 15.9496 12.6905 15.9657 12.7922L16.2529 14.6124C16.2939 14.8723 16.023 15.069 15.7886 14.9498L14.1462 14.1142C14.0544 14.0675 13.9458 14.0675 13.854 14.1142L12.2117 14.9498C11.9772 15.069 11.7064 14.8723 11.7474 14.6124L12.0345 12.7922C12.0506 12.6905 12.017 12.5872 11.9443 12.5144L10.642 11.2106C10.4562 11.0245 10.5596 10.7061 10.8194 10.6648L12.6392 10.3754C12.741 10.3593 12.8288 10.2954 12.8756 10.2037L13.7132 8.56232Z" fill="url(#paint15_linear)"/>
<path d="M13.7132 8.56232C13.8327 8.32802 14.1675 8.32802 14.2871 8.56232L15.1246 10.2037C15.1714 10.2954 15.2593 10.3593 15.361 10.3754L17.1809 10.6648C17.4406 10.7061 17.5441 11.0245 17.3582 11.2106L16.056 12.5144C15.9832 12.5872 15.9496 12.6905 15.9657 12.7922L16.2529 14.6124C16.2939 14.8723 16.023 15.069 15.7886 14.9498L14.1462 14.1142C14.0544 14.0675 13.9458 14.0675 13.854 14.1142L12.2117 14.9498C11.9772 15.069 11.7064 14.8723 11.7474 14.6124L12.0345 12.7922C12.0506 12.6905 12.017 12.5872 11.9443 12.5144L10.642 11.2106C10.4562 11.0245 10.5596 10.7061 10.8194 10.6648L12.6392 10.3754C12.741 10.3593 12.8288 10.2954 12.8756 10.2037L13.7132 8.56232Z" fill="url(#paint16_radial)"/>
<path fill-rule="evenodd" clip-rule="evenodd" d="M15.029 10.2525L14.1914 8.61113C14.1117 8.45493 13.8885 8.45493 13.8088 8.61113L12.9713 10.2525C12.9088 10.3748 12.7917 10.4599 12.6561 10.4815L10.8362 10.7708C10.6631 10.7984 10.5941 11.0106 10.718 11.1347L12.0202 12.4385C12.1173 12.5356 12.162 12.6733 12.1406 12.809L11.8534 14.6292C11.8261 14.8024 12.0067 14.9336 12.163 14.8541L13.8053 14.0185C13.9277 13.9562 14.0725 13.9562 14.1949 14.0185L15.8373 14.8541C15.9936 14.9336 16.1741 14.8024 16.1468 14.6292L15.8596 12.809C15.8382 12.6733 15.883 12.5356 15.98 12.4385L17.2822 11.1347C17.4061 11.0106 17.3372 10.7984 17.164 10.7708L15.3441 10.4815C15.2085 10.4599 15.0914 10.3748 15.029 10.2525ZM14.2871 8.56232C14.1675 8.32802 13.8327 8.32802 13.7132 8.56232L12.8756 10.2037C12.8288 10.2954 12.741 10.3593 12.6392 10.3754L10.8194 10.6648C10.5596 10.7061 10.4562 11.0245 10.642 11.2106L11.9443 12.5144C12.017 12.5872 12.0506 12.6905 12.0345 12.7922L11.7474 14.6124C11.7064 14.8723 11.9772 15.069 12.2117 14.9498L13.854 14.1142C13.9458 14.0675 14.0544 14.0675 14.1462 14.1142L15.7886 14.9498C16.023 15.069 16.2939 14.8723 16.2529 14.6124L15.9657 12.7922C15.9496 12.6905 15.9832 12.5872 16.056 12.5144L17.3582 11.2106C17.5441 11.0245 17.4406 10.7061 17.1809 10.6648L15.361 10.3754C15.2593 10.3593 15.1714 10.2954 15.1246 10.2037L14.2871 8.56232Z" fill="url(#paint17_linear)"/>
<path d="M13.7908 10.2943C13.8839 10.1335 14.1161 10.1335 14.2091 10.2943L14.612 10.9907C14.6462 11.0499 14.7039 11.0917 14.7707 11.106L15.5575 11.274C15.7392 11.3128 15.811 11.5336 15.6868 11.6718L15.149 12.2702C15.1033 12.321 15.0813 12.3888 15.0884 12.4567L15.1717 13.257C15.191 13.4418 15.0031 13.5782 14.8333 13.5028L14.098 13.1762C14.0356 13.1485 13.9643 13.1485 13.9019 13.1762L13.1666 13.5028C12.9968 13.5782 12.809 13.4418 12.8282 13.257L12.9116 12.4567C12.9187 12.3888 12.8966 12.321 12.851 12.2702L12.3132 11.6718C12.189 11.5336 12.2607 11.3128 12.4424 11.274L13.2292 11.106C13.2961 11.0917 13.3537 11.0499 13.3879 10.9907L13.7908 10.2943Z" fill="url(#paint18_linear)"/>
<path d="M16.045 11.4358C14.1016 13.2723 12.366 12.46 11.7411 11.8243C10.7905 10.4117 12.8765 11.5418 14.7247 11.0474C16.2034 10.6518 16.221 11.1415 16.045 11.4358Z" fill="url(#paint19_linear)"/>
<path fill-rule="evenodd" clip-rule="evenodd" d="M13.7798 8.92792C13.8195 8.948 13.8354 8.99645 13.8153 9.03614L13.5876 9.4862C13.5675 9.52589 13.5191 9.54178 13.4794 9.5217C13.4397 9.50162 13.4238 9.45317 13.4439 9.41348L13.6716 8.96342C13.6917 8.92374 13.7401 8.90784 13.7798 8.92792Z" fill="#93D6F6"/>
<circle cx="10.9933" cy="10.8725" r="0.0805369" fill="#93D6F6"/>
<circle cx="13.4094" cy="9.63754" r="0.0805369" fill="#93D6F6"/>
<path d="M13.2308 10.469C12.6199 11.3343 12.8382 11.8055 13.0237 11.9329C13.5872 12.1872 14.6138 10.6866 14.6833 10.2895C14.7528 9.89244 13.9944 9.38733 13.2308 10.469Z" fill="url(#paint20_linear)" fill-opacity="0.6"/>
<path d="M24 5.17157H29.6569H35.3137L29.6569 10.8284L24 5.17157Z" fill="#8A7FE0"/>
<defs>
<filter id="filter0_i" x="5.72314" y="-0.225474" width="6.55367" height="7.08563" filterUnits="userSpaceOnUse" color-interpolation-filters="sRGB">
<feFlood flood-opacity="0" result="BackgroundImageFix"/>
<feBlend mode="normal" in="SourceGraphic" in2="BackgroundImageFix" result="shape"/>
<feColorMatrix in="SourceAlpha" type="matrix" values="0 0 0 0 0 0 0 0 0 0 0 0 0 0 0 0 0 0 127 0" result="hardAlpha"/>
<feOffset dy="-0.805369"/>
<feGaussianBlur stdDeviation="1.00671"/>
<feComposite in2="hardAlpha" operator="arithmetic" k2="-1" k3="1"/>
<feColorMatrix type="matrix" values="0 0 0 0 0.595833 0 0 0 0 0.83025 0 0 0 0 1 0 0 0 1 0"/>
<feBlend mode="normal" in2="shape" result="effect1_innerShadow"/>
</filter>
<filter id="filter1_i" x="0.723145" y="7.77453" width="6.55367" height="7.08563" filterUnits="userSpaceOnUse" color-interpolation-filters="sRGB">
<feFlood flood-opacity="0" result="BackgroundImageFix"/>
<feBlend mode="normal" in="SourceGraphic" in2="BackgroundImageFix" result="shape"/>
<feColorMatrix in="SourceAlpha" type="matrix" values="0 0 0 0 0 0 0 0 0 0 0 0 0 0 0 0 0 0 127 0" result="hardAlpha"/>
<feOffset dy="-0.805369"/>
<feGaussianBlur stdDeviation="1.00671"/>
<feComposite in2="hardAlpha" operator="arithmetic" k2="-1" k3="1"/>
<feColorMatrix type="matrix" values="0 0 0 0 0.595833 0 0 0 0 0.83025 0 0 0 0 1 0 0 0 1 0"/>
<feBlend mode="normal" in2="shape" result="effect1_innerShadow"/>
</filter>
<filter id="filter2_i" x="10.7231" y="7.77453" width="6.55367" height="7.08563" filterUnits="userSpaceOnUse" color-interpolation-filters="sRGB">
<feFlood flood-opacity="0" result="BackgroundImageFix"/>
<feBlend mode="normal" in="SourceGraphic" in2="BackgroundImageFix" result="shape"/>
<feColorMatrix in="SourceAlpha" type="matrix" values="0 0 0 0 0 0 0 0 0 0 0 0 0 0 0 0 0 0 127 0" result="hardAlpha"/>
<feOffset dy="-0.805369"/>
<feGaussianBlur stdDeviation="1.00671"/>
<feComposite in2="hardAlpha" operator="arithmetic" k2="-1" k3="1"/>
<feColorMatrix type="matrix" values="0 0 0 0 0.595833 0 0 0 0 0.83025 0 0 0 0 1 0 0 0 1 0"/>
<feBlend mode="normal" in2="shape" result="effect1_innerShadow"/>
</filter>
<linearGradient id="paint0_linear" x1="9" y1="-7.20047e-09" x2="10.7987" y2="6.95302" gradientUnits="userSpaceOnUse">
<stop stop-color="#708FBE" stop-opacity="0"/>
<stop offset="1" stop-color="#72DDFF" stop-opacity="0.63"/>
</linearGradient>
<linearGradient id="paint1_linear" x1="9.00011" y1="-1.72214e-05" x2="10.7988" y2="6.953" gradientUnits="userSpaceOnUse">
<stop stop-color="#708FBE" stop-opacity="0"/>
<stop offset="1" stop-color="#72DDFF" stop-opacity="0.63"/>
</linearGradient>
<radialGradient id="paint2_radial" cx="0" cy="0" r="1" gradientUnits="userSpaceOnUse" gradientTransform="translate(8.06051 2.97985) rotate(52.6712) scale(4.69277)">
<stop offset="0.738765" stop-color="#9CB6DD" stop-opacity="0"/>
<stop offset="0.89825" stop-color="#C6F1FF" stop-opacity="0.37"/>
<stop offset="1" stop-color="#EFFBFF" stop-opacity="0.7"/>
</radialGradient>
<linearGradient id="paint3_linear" x1="11.2551" y1="5.36911" x2="7.55045" y2="2.01341" gradientUnits="userSpaceOnUse">
<stop stop-color="#D8F6FF" stop-opacity="0.63"/>
<stop offset="0.218803" stop-color="#A0D2FF" stop-opacity="0"/>
<stop offset="0.491108" stop-color="#8DC8FF" stop-opacity="0.56"/>
<stop offset="0.733041" stop-color="#9ADBF8"/>
<stop offset="1" stop-color="white" stop-opacity="0"/>
<stop offset="1" stop-color="#BAEAFF" stop-opacity="0"/>
</linearGradient>
<linearGradient id="paint4_linear" x1="8.99998" y1="1.93286" x2="8.94628" y2="5.50333" gradientUnits="userSpaceOnUse">
<stop stop-color="#9BE1FF"/>
<stop offset="0.277442" stop-color="#9BE1FF" stop-opacity="0.51"/>
<stop offset="1" stop-color="#CDDEE6" stop-opacity="0.15"/>
</linearGradient>
<linearGradient id="paint5_linear" x1="8.82701" y1="3.29456" x2="8.80042" y2="4.56348" gradientUnits="userSpaceOnUse">
<stop stop-color="#C4C4C4" stop-opacity="0"/>
<stop offset="0.731853" stop-color="#DBF6FF" stop-opacity="0.46"/>
</linearGradient>
<linearGradient id="paint6_linear" x1="8.47104" y1="2.58474" x2="9.18409" y2="3.25773" gradientUnits="userSpaceOnUse">
<stop offset="0.223958" stop-color="#DBF6FF" stop-opacity="0.35"/>
<stop offset="1" stop-color="#C4C4C4" stop-opacity="0"/>
</linearGradient>
<linearGradient id="paint7_linear" x1="4" y1="8" x2="5.79866" y2="14.953" gradientUnits="userSpaceOnUse">
<stop stop-color="#708FBE" stop-opacity="0"/>
<stop offset="1" stop-color="#72DDFF" stop-opacity="0.63"/>
</linearGradient>
<linearGradient id="paint8_linear" x1="4.00011" y1="7.99998" x2="5.79877" y2="14.953" gradientUnits="userSpaceOnUse">
<stop stop-color="#708FBE" stop-opacity="0"/>
<stop offset="1" stop-color="#72DDFF" stop-opacity="0.63"/>
</linearGradient>
<radialGradient id="paint9_radial" cx="0" cy="0" r="1" gradientUnits="userSpaceOnUse" gradientTransform="translate(3.06051 10.9798) rotate(52.6712) scale(4.69277)">
<stop offset="0.738765" stop-color="#9CB6DD" stop-opacity="0"/>
<stop offset="0.89825" stop-color="#C6F1FF" stop-opacity="0.37"/>
<stop offset="1" stop-color="#EFFBFF" stop-opacity="0.7"/>
</radialGradient>
<linearGradient id="paint10_linear" x1="6.25515" y1="13.3691" x2="2.55045" y2="10.0134" gradientUnits="userSpaceOnUse">
<stop stop-color="#D8F6FF" stop-opacity="0.63"/>
<stop offset="0.218803" stop-color="#A0D2FF" stop-opacity="0"/>
<stop offset="0.491108" stop-color="#8DC8FF" stop-opacity="0.56"/>
<stop offset="0.733041" stop-color="#9ADBF8"/>
<stop offset="1" stop-color="white" stop-opacity="0"/>
<stop offset="1" stop-color="#BAEAFF" stop-opacity="0"/>
</linearGradient>
<linearGradient id="paint11_linear" x1="3.99998" y1="9.93286" x2="3.94628" y2="13.5033" gradientUnits="userSpaceOnUse">
<stop stop-color="#9BE1FF"/>
<stop offset="0.277442" stop-color="#9BE1FF" stop-opacity="0.51"/>
<stop offset="1" stop-color="#CDDEE6" stop-opacity="0.15"/>
</linearGradient>
<linearGradient id="paint12_linear" x1="3.82701" y1="11.2946" x2="3.80042" y2="12.5635" gradientUnits="userSpaceOnUse">
<stop stop-color="#C4C4C4" stop-opacity="0"/>
<stop offset="0.731853" stop-color="#DBF6FF" stop-opacity="0.46"/>
</linearGradient>
<linearGradient id="paint13_linear" x1="3.47104" y1="10.5847" x2="4.18409" y2="11.2577" gradientUnits="userSpaceOnUse">
<stop offset="0.223958" stop-color="#DBF6FF" stop-opacity="0.35"/>
<stop offset="1" stop-color="#C4C4C4" stop-opacity="0"/>
</linearGradient>
<linearGradient id="paint14_linear" x1="14" y1="8" x2="15.7987" y2="14.953" gradientUnits="userSpaceOnUse">
<stop stop-color="#708FBE" stop-opacity="0"/>
<stop offset="1" stop-color="#72DDFF" stop-opacity="0.63"/>
</linearGradient>
<linearGradient id="paint15_linear" x1="14.0001" y1="7.99998" x2="15.7988" y2="14.953" gradientUnits="userSpaceOnUse">
<stop stop-color="#708FBE" stop-opacity="0"/>
<stop offset="1" stop-color="#72DDFF" stop-opacity="0.63"/>
</linearGradient>
<radialGradient id="paint16_radial" cx="0" cy="0" r="1" gradientUnits="userSpaceOnUse" gradientTransform="translate(13.0605 10.9798) rotate(52.6712) scale(4.69277)">
<stop offset="0.738765" stop-color="#9CB6DD" stop-opacity="0"/>
<stop offset="0.89825" stop-color="#C6F1FF" stop-opacity="0.37"/>
<stop offset="1" stop-color="#EFFBFF" stop-opacity="0.7"/>
</radialGradient>
<linearGradient id="paint17_linear" x1="16.2551" y1="13.3691" x2="12.5504" y2="10.0134" gradientUnits="userSpaceOnUse">
<stop stop-color="#D8F6FF" stop-opacity="0.63"/>
<stop offset="0.218803" stop-color="#A0D2FF" stop-opacity="0"/>
<stop offset="0.491108" stop-color="#8DC8FF" stop-opacity="0.56"/>
<stop offset="0.733041" stop-color="#9ADBF8"/>
<stop offset="1" stop-color="white" stop-opacity="0"/>
<stop offset="1" stop-color="#BAEAFF" stop-opacity="0"/>
</linearGradient>
<linearGradient id="paint18_linear" x1="14" y1="9.93286" x2="13.9463" y2="13.5033" gradientUnits="userSpaceOnUse">
<stop stop-color="#9BE1FF"/>
<stop offset="0.277442" stop-color="#9BE1FF" stop-opacity="0.51"/>
<stop offset="1" stop-color="#CDDEE6" stop-opacity="0.15"/>
</linearGradient>
<linearGradient id="paint19_linear" x1="13.827" y1="11.2946" x2="13.8004" y2="12.5635" gradientUnits="userSpaceOnUse">
<stop stop-color="#C4C4C4" stop-opacity="0"/>
<stop offset="0.731853" stop-color="#DBF6FF" stop-opacity="0.46"/>
</linearGradient>
<linearGradient id="paint20_linear" x1="13.471" y1="10.5847" x2="14.1841" y2="11.2577" gradientUnits="userSpaceOnUse">
<stop offset="0.223958" stop-color="#DBF6FF" stop-opacity="0.35"/>
<stop offset="1" stop-color="#C4C4C4" stop-opacity="0"/>
</linearGradient>
</defs>
</svg>
