<svg width="127" height="33" viewBox="0 0 127 33" fill="none" xmlns="http://www.w3.org/2000/svg">
<path d="M0.487807 6.70732C0.281393 6.40802 0.495644 6 0.859221 6H28.8752V32.1681H0.859221C0.495644 32.1681 0.281393 31.7601 0.487808 31.4608L7.96358 20.6209C8.60167 19.6957 8.60167 18.4724 7.96358 17.5472L0.487807 6.70732Z" fill="#B371D1"/>
<path d="M28.8753 31.8676L13.5353 26.4535H28.8753V31.8676Z" fill="#9D53BE"/>
<path d="M125.841 6.70732C126.048 6.40802 125.834 6 125.47 6H97.454V32.1681H125.47C125.834 32.1681 126.048 31.7601 125.841 31.4608L118.366 20.6209C117.728 19.6957 117.728 18.4724 118.366 17.5472L125.841 6.70732Z" fill="#B371D1"/>
<path d="M97.4539 31.8676L112.794 26.4535H97.4539V31.8676Z" fill="#9D53BE"/>
<path d="M14 1.8047C14 0.807991 14.808 0 15.8047 0H111.454C112.45 0 113.258 0.807991 113.258 1.8047V26.1681H14V1.8047Z" fill="url(#paint0_linear)"/>
<path d="M37.2748 7.688C35.5628 7.688 34.7628 8.808 34.7628 10.504V16.296C34.7628 17.992 35.5628 19.112 37.2748 19.112C39.0028 19.112 39.8028 17.992 39.8028 16.296V14.904H38.6188V16.36C38.6188 17.368 38.2188 17.976 37.3068 17.976C36.4108 17.976 35.9948 17.368 35.9948 16.36V10.44C35.9948 9.432 36.4108 8.824 37.3068 8.824C38.2188 8.824 38.6188 9.432 38.6188 10.44V11.512H39.8028V10.504C39.8028 8.808 39.0028 7.688 37.2748 7.688ZM42.1209 7.8H40.8889V16.296C40.8889 17.992 41.6729 19.128 43.3849 19.128C45.1129 19.128 45.8969 17.992 45.8969 16.296V7.8H44.7289V16.36C44.7289 17.368 44.3289 17.976 43.4329 17.976C42.5209 17.976 42.1209 17.368 42.1209 16.36V7.8ZM47.1244 7.8V19H48.3724V14.216H49.2524C50.2924 14.216 50.8844 14.616 50.8844 15.88V17.64C50.8844 18.392 50.9484 18.68 51.0924 19H52.3564C52.1484 18.616 52.1324 18.152 52.1324 17.656V15.912C52.1324 14.712 51.7484 13.88 50.7244 13.576C51.6844 13.272 52.1164 12.504 52.1164 11.272V10.36C52.1164 8.696 51.3804 7.8 49.6204 7.8H47.1244ZM48.3724 13.08V8.936H49.5884C50.5164 8.936 50.8844 9.464 50.8844 10.472V11.544C50.8844 12.76 50.2924 13.08 49.3004 13.08H48.3724ZM53.4213 7.8V19H54.6693V14.216H55.5493C56.5893 14.216 57.1813 14.616 57.1813 15.88V17.64C57.1813 18.392 57.2453 18.68 57.3893 19H58.6533C58.4453 18.616 58.4293 18.152 58.4293 17.656V15.912C58.4293 14.712 58.0453 13.88 57.0213 13.576C57.9813 13.272 58.4133 12.504 58.4133 11.272V10.36C58.4133 8.696 57.6773 7.8 55.9173 7.8H53.4213ZM54.6693 13.08V8.936H55.8853C56.8133 8.936 57.1813 9.464 57.1813 10.472V11.544C57.1813 12.76 56.5893 13.08 55.5973 13.08H54.6693ZM60.9661 12.76V8.936H64.3261V7.8H59.7181V19H64.3261V17.864H60.9661V13.88H63.7021V12.76H60.9661ZM66.5878 9.944L69.4518 19H70.7478V7.8H69.6438V15.896L67.0518 7.8H65.4678V19H66.5878V9.944ZM74.8786 19V8.936H76.9426V7.8H71.5826V8.936H73.6466V19H74.8786ZM80.2806 7.8V19H82.8566C84.6006 19 85.4166 18.056 85.4166 16.376V15.432C85.4166 14.2 85.0006 13.336 83.9126 13.032C84.8886 12.728 85.2246 11.992 85.2246 10.808V10.28C85.2246 8.632 84.5366 7.8 82.7926 7.8H80.2806ZM81.5286 12.552V8.936H82.7606C83.6566 8.936 83.9926 9.416 83.9926 10.408V11.064C83.9926 12.232 83.4806 12.552 82.4886 12.552H81.5286ZM81.5286 17.864V13.688H82.6166C83.6886 13.688 84.1846 14.104 84.1846 15.352V16.344C84.1846 17.384 83.7686 17.864 82.8566 17.864H81.5286ZM86.5463 7.8V19H87.7943V7.8H86.5463ZM89.0775 7.8V19H91.7015C93.4455 19 94.2455 17.944 94.2455 16.232V10.584C94.2455 8.856 93.4455 7.8 91.7015 7.8H89.0775ZM90.3255 17.864V8.936H91.6695C92.5815 8.936 93.0135 9.496 93.0135 10.52V16.28C93.0135 17.304 92.5815 17.864 91.6855 17.864H90.3255Z" fill="#536074"/>
<defs>
<linearGradient id="paint0_linear" x1="14" y1="0" x2="30.5404" y2="52.1524" gradientUnits="userSpaceOnUse">
<stop stop-color="#C495DB"/>
<stop offset="0.500057" stop-color="#EBC4FF"/>
<stop offset="1" stop-color="#C495DB"/>
</linearGradient>
</defs>
</svg>
