<svg width="127" height="32" viewBox="0 0 127 32" fill="none" xmlns="http://www.w3.org/2000/svg">
<path d="M0.487807 6.40617C0.281393 6.10687 0.495644 5.69885 0.859221 5.69885H28.8752V31.867H0.859221C0.495644 31.867 0.281393 31.459 0.487808 31.1597L7.96358 20.3198C8.60167 19.3946 8.60167 18.1713 7.96358 17.246L0.487807 6.40617Z" fill="#73C29C"/>
<path d="M28.8753 31.8676L13.5353 26.4535H28.8753V31.8676Z" fill="#4DA379"/>
<path d="M125.841 6.40617C126.048 6.10687 125.834 5.69885 125.47 5.69885H97.454V31.867H125.47C125.834 31.867 126.048 31.459 125.841 31.1597L118.366 20.3198C117.728 19.3946 117.728 18.1713 118.366 17.246L125.841 6.40617Z" fill="#73C29C"/>
<path d="M97.4539 31.8676L112.794 26.4535H97.4539V31.8676Z" fill="#4DA379"/>
<path d="M14 1.8047C14 0.807991 14.808 0 15.8047 0H111.454C112.45 0 113.258 0.807991 113.258 1.8047V26.1681H14V1.8047Z" fill="url(#paint0_linear)"/>
<path d="M14 1.8047C14 0.807991 14.808 0 15.8047 0H111.454C112.45 0 113.258 0.807991 113.258 1.8047V26.1681H14V1.8047Z" fill="url(#paint1_linear)"/>
<path d="M34.0362 9.992V19H35.2202V7.8H33.4762L31.7002 16.744L29.8602 7.8H28.1162V19H29.2042V10.072L31.0602 18.984H32.2602L34.0362 9.992ZM36.5072 7.8V19H37.7552V7.8H36.5072ZM40.1424 9.944L43.0064 19H44.3024V7.8H43.1984V15.896L40.6064 7.8H39.0224V19H40.1424V9.944ZM45.5853 7.8V19H46.8333V7.8H45.5853ZM54.0206 9.992V19H55.2046V7.8H53.4606L51.6846 16.744L49.8446 7.8H48.1006V19H49.1886V10.072L51.0446 18.984H52.2446L54.0206 9.992ZM57.6756 7.8H56.4436V16.296C56.4436 17.992 57.2276 19.128 58.9396 19.128C60.6676 19.128 61.4516 17.992 61.4516 16.296V7.8H60.2836V16.36C60.2836 17.368 59.8836 17.976 58.9876 17.976C58.0756 17.976 57.6756 17.368 57.6756 16.36V7.8ZM68.5831 9.992V19H69.7671V7.8H68.0231L66.2471 16.744L64.4071 7.8H62.6631V19H63.7511V10.072L65.6071 18.984H66.8071L68.5831 9.992ZM73.5384 7.8V19H74.7864V14.584H75.8904C77.6664 14.584 78.4984 13.656 78.4984 11.88V10.536C78.4984 8.84 77.7464 7.8 75.9864 7.8H73.5384ZM74.7864 13.464V8.936H75.9864C76.8984 8.936 77.2664 9.448 77.2664 10.472V11.96C77.2664 13.032 76.8184 13.464 75.8904 13.464H74.7864ZM79.4759 7.8V19H80.7239V14.216H81.6039C82.6439 14.216 83.2359 14.616 83.2359 15.88V17.64C83.2359 18.392 83.2999 18.68 83.4439 19H84.7079C84.4999 18.616 84.4839 18.152 84.4839 17.656V15.912C84.4839 14.712 84.0999 13.88 83.0759 13.576C84.0359 13.272 84.4679 12.504 84.4679 11.272V10.36C84.4679 8.696 83.7319 7.8 81.9719 7.8H79.4759ZM80.7239 13.08V8.936H81.9399C82.8679 8.936 83.2359 9.464 83.2359 10.472V11.544C83.2359 12.76 82.6439 13.08 81.6519 13.08H80.7239ZM85.7728 7.8V19H87.0208V7.8H85.7728ZM90.7201 7.688C89.0081 7.688 88.2081 8.808 88.2081 10.504V16.296C88.2081 17.992 89.0081 19.112 90.7201 19.112C92.4481 19.112 93.2481 17.992 93.2481 16.296V14.904H92.0641V16.36C92.0641 17.368 91.6641 17.976 90.7521 17.976C89.8561 17.976 89.4401 17.368 89.4401 16.36V10.44C89.4401 9.432 89.8561 8.824 90.7521 8.824C91.6641 8.824 92.0641 9.432 92.0641 10.44V11.512H93.2481V10.504C93.2481 8.808 92.4481 7.688 90.7201 7.688ZM95.6302 12.76V8.936H98.9902V7.8H94.3822V19H98.9902V17.864H95.6302V13.88H98.3662V12.76H95.6302Z" fill="#536074"/>
<defs>
<linearGradient id="paint0_linear" x1="44.2287" y1="1.04597e-06" x2="94.7603" y2="45.5687" gradientUnits="userSpaceOnUse">
<stop stop-color="#CCDCF3"/>
<stop offset="0.27474" stop-color="#D3E0F4"/>
<stop offset="0.526504" stop-color="#DBE9FD"/>
<stop offset="0.82983" stop-color="#D3E0F4"/>
<stop offset="1" stop-color="#C6D5EC"/>
</linearGradient>
<linearGradient id="paint1_linear" x1="42.785" y1="3.15273" x2="45.6295" y2="28.0612" gradientUnits="userSpaceOnUse">
<stop stop-color="#D8F1E5"/>
<stop offset="1" stop-color="#82BFA2"/>
</linearGradient>
</defs>
</svg>
