<svg width="127" height="32" viewBox="0 0 127 32" fill="none" xmlns="http://www.w3.org/2000/svg">
<path d="M0.487807 6.40617C0.281393 6.10687 0.495644 5.69885 0.859221 5.69885H28.8752V31.867H0.859221C0.495644 31.867 0.281393 31.459 0.487808 31.1597L7.96358 20.3198C8.60167 19.3946 8.60167 18.1713 7.96358 17.246L0.487807 6.40617Z" fill="#A6BADA"/>
<path d="M28.8753 31.8676L13.5353 26.4535H28.8753V31.8676Z" fill="#889EC0"/>
<path d="M125.841 6.40617C126.048 6.10687 125.834 5.69885 125.47 5.69885H97.454V31.867H125.47C125.834 31.867 126.048 31.459 125.841 31.1597L118.366 20.3198C117.728 19.3946 117.728 18.1713 118.366 17.246L125.841 6.40617Z" fill="#A6BADA"/>
<path d="M97.4539 31.8676L112.794 26.4535H97.4539V31.8676Z" fill="#889EC0"/>
<path d="M14 1.8047C14 0.807991 14.808 0 15.8047 0H111.454C112.45 0 113.258 0.807991 113.258 1.8047V26.1681H14V1.8047Z" fill="url(#paint0_linear)"/>
<path d="M36.7181 7.8V19H37.9661V14.584H39.0701C40.8461 14.584 41.6781 13.656 41.6781 11.88V10.536C41.6781 8.84 40.9261 7.8 39.1661 7.8H36.7181ZM37.9661 13.464V8.936H39.1661C40.0781 8.936 40.4461 9.448 40.4461 10.472V11.96C40.4461 13.032 39.9981 13.464 39.0701 13.464H37.9661ZM43.8396 7.8H42.6076V16.296C42.6076 17.992 43.3916 19.128 45.1036 19.128C46.8316 19.128 47.6156 17.992 47.6156 16.296V7.8H46.4476V16.36C46.4476 17.368 46.0476 17.976 45.1516 17.976C44.2396 17.976 43.8396 17.368 43.8396 16.36V7.8ZM48.8431 7.8V19H50.0911V14.216H50.9711C52.0111 14.216 52.6031 14.616 52.6031 15.88V17.64C52.6031 18.392 52.6671 18.68 52.8111 19H54.0751C53.8671 18.616 53.8511 18.152 53.8511 17.656V15.912C53.8511 14.712 53.4671 13.88 52.4431 13.576C53.4031 13.272 53.8351 12.504 53.8351 11.272V10.36C53.8351 8.696 53.0991 7.8 51.3391 7.8H48.8431ZM50.0911 13.08V8.936H51.3071C52.2351 8.936 52.6031 9.464 52.6031 10.472V11.544C52.6031 12.76 52.0111 13.08 51.0191 13.08H50.0911ZM57.556 7.688C55.844 7.688 55.044 8.808 55.044 10.504V16.296C55.044 17.992 55.844 19.112 57.556 19.112C59.284 19.112 60.084 17.992 60.084 16.296V14.904H58.9V16.36C58.9 17.368 58.5 17.976 57.588 17.976C56.692 17.976 56.276 17.368 56.276 16.36V10.44C56.276 9.432 56.692 8.824 57.588 8.824C58.5 8.824 58.9 9.432 58.9 10.44V11.512H60.084V10.504C60.084 8.808 59.284 7.688 57.556 7.688ZM65.2181 13.96V19H66.4661V7.8H65.2181V12.84H62.4661V7.8H61.2181V19H62.4661V13.96H65.2181ZM71.8454 16.744L72.2774 19H73.5254L71.3814 7.8H69.5734L67.4294 19H68.5814L69.0134 16.744H71.8454ZM70.4054 9.208L71.6694 15.672H69.1734L70.4054 9.208ZM76.8514 7.688C75.1714 7.688 74.3714 8.76 74.3714 10.488C74.3714 13.64 78.1154 13.88 78.1154 16.376C78.1154 17.384 77.6994 17.976 76.8034 17.976C75.9074 17.976 75.4914 17.384 75.4914 16.376V15.672H74.3234V16.312C74.3234 18.008 75.1234 19.112 76.8354 19.112C78.5474 19.112 79.3634 18.008 79.3634 16.312C79.3634 13.16 75.6034 12.92 75.6034 10.408C75.6034 9.416 75.9874 8.824 76.8834 8.824C77.7794 8.824 78.1634 9.416 78.1634 10.424V10.792H79.3474V10.488C79.3474 8.792 78.5474 7.688 76.8514 7.688ZM81.7005 12.76V8.936H85.0605V7.8H80.4525V19H85.0605V17.864H81.7005V13.88H84.4365V12.76H81.7005ZM86.2181 7.8V19H88.8421C90.5861 19 91.3861 17.944 91.3861 16.232V10.584C91.3861 8.856 90.5861 7.8 88.8421 7.8H86.2181ZM87.4661 17.864V8.936H88.8101C89.7221 8.936 90.1541 9.496 90.1541 10.52V16.28C90.1541 17.304 89.7221 17.864 88.8261 17.864H87.4661Z" fill="#536074"/>
<defs>
<linearGradient id="paint0_linear" x1="44.2287" y1="1.04597e-06" x2="94.7603" y2="45.5687" gradientUnits="userSpaceOnUse">
<stop stop-color="#CCDCF3"/>
<stop offset="0.27474" stop-color="#D3E0F4"/>
<stop offset="0.526504" stop-color="#DBE9FD"/>
<stop offset="0.82983" stop-color="#D3E0F4"/>
<stop offset="1" stop-color="#C6D5EC"/>
</linearGradient>
</defs>
</svg>
